<?xml version="1.0" encoding="utf-8"?>
<!-- Generator: Adobe Illustrator 21.1.0, SVG Export Plug-In . SVG Version: 6.00 Build 0)  -->
<svg version="1.1" id="Layer_1" xmlns="http://www.w3.org/2000/svg" xmlns:xlink="http://www.w3.org/1999/xlink" x="0px" y="0px"
	 width="35px" height="35px" viewBox="0 0 35 35" enable-background="new 0 0 35 35" xml:space="preserve">
<circle fill="#FFB300" cx="17.5" cy="17.5" r="17.5"/>
<g>
	<g>
		<path fill="#FFFFFF" d="M17.488,30.563c-2.653,0-5.25-1.237-6.945-3.31c-1.334-1.631-1.995-3.567-1.966-5.757
			c0.022-1.669,0.017-3.339,0.011-5.008l-0.005-2.385c0-0.831,0.058-0.891,0.881-0.92l0.247-0.005c1.379,0,2.306,0.477,2.917,1.502
			c0.019,0.012,0.036,0.022,0.053,0.033l-0.003-1.886c-0.005-1.208-0.009-2.416,0.022-3.624c0.012-0.447,0.084-1.091,0.363-1.622
			c0.365-0.692,0.992-1.073,1.768-1.073c0.181,0,0.368,0.021,0.557,0.063C15.477,6.591,15.55,6.6,15.61,6.6
			c0.136,0,0.236-0.026,0.288-0.368c0.119-0.784,0.585-1.351,1.348-1.639c0.276-0.104,0.554-0.158,0.824-0.158
			c0.706,0,1.327,0.357,1.749,1.006c0.131,0.2,0.208,0.265,0.319,0.265c0.053,0,0.116-0.015,0.188-0.044
			c0.281-0.114,0.569-0.171,0.855-0.171c1.003,0,1.826,0.7,2.049,1.741c0.05,0.234,0.071,0.474,0.094,0.729l0.022,0.233l0.164-0.023
			c0.202-0.03,0.396-0.059,0.591-0.069l0.137-0.003c1.253,0,2.132,0.856,2.137,2.082c0.005,0.991,0.015,1.983,0.023,2.975
			c0.029,2.952,0.059,6.004-0.051,9.003c-0.12,3.271-1.802,5.84-4.863,7.428C20.233,30.234,18.889,30.563,17.488,30.563z
			 M10.145,14.477c-0.135,0-0.223,0.022-0.269,0.069c-0.043,0.044-0.063,0.122-0.061,0.24c0.013,0.83,0.011,1.661,0.008,2.492
			c-0.005,1.78-0.011,3.621,0.149,5.413c0.24,2.68,1.779,4.735,4.453,5.945c0.994,0.45,2.017,0.678,3.04,0.678
			c1.001,0,2.023-0.218,3.038-0.648c2.76-1.171,4.533-3.718,4.628-6.648c0.09-2.765,0.067-5.58,0.046-8.303
			c-0.009-1.086-0.018-2.171-0.02-3.257c-0.001-0.683-0.346-1.094-0.921-1.1c-0.564,0-0.909,0.417-0.912,1.09
			c-0.004,0.774-0.003,1.549-0.002,2.324l0.001,1.609c-0.001,0.146-0.009,0.292-0.018,0.442l-0.011,0.195
			c-0.003,0.067-0.059,0.119-0.125,0.119H22.18c-0.069,0-0.125-0.056-0.125-0.125l0.002-7.036c0.002-0.108,0.004-0.217-0.008-0.324
			c-0.061-0.511-0.441-0.896-0.907-0.915c-0.001,0-0.001,0-0.002,0c-0.461,0-0.833,0.333-0.937,0.811
			c-0.034,0.16-0.033,0.337-0.033,0.509l-0.002,6.936c0,0.069-0.056,0.125-0.125,0.125h-1.019c-0.069,0-0.125-0.056-0.125-0.125
			L18.898,6.75c-0.001-0.543-0.291-0.96-0.74-1.062c-0.042-0.01-0.087-0.015-0.133-0.015c-0.364,0-0.748,0.302-0.894,0.703
			c-0.068,0.187-0.068,0.413-0.069,0.632l-0.003,7.296c0,0.157-0.01,0.313-0.02,0.467l-0.012,0.214
			c-0.003,0.067-0.058,0.119-0.125,0.119h-0.955c-0.069,0-0.125-0.056-0.125-0.125l0.001-2.042c0.003-1.269,0.005-2.538-0.019-3.806
			c-0.007-0.395-0.115-0.797-0.288-1.075c-0.151-0.242-0.384-0.293-0.553-0.293c-0.128,0-0.267,0.03-0.401,0.087
			c-0.501,0.213-0.608,0.665-0.61,1.007c-0.006,1.092-0.006,2.183-0.006,3.274c0,0.983,0,1.965-0.004,2.948
			c-0.001,0.164,0.021,0.262,0.068,0.31c0.038,0.039,0.107,0.057,0.212,0.057c0.241-0.017,0.386-0.023,0.529-0.023
			c0.936,0,1.784,0.277,2.521,0.823c0.017,0.012,0.068,0.041,0.189,0.041c0.103,0,0.224-0.022,0.314-0.057
			c0.206-0.081,0.405-0.185,0.604-0.288c0.312-0.163,0.636-0.331,0.982-0.408c0.349-0.077,0.691-0.116,1.019-0.116
			c1.271,0,2.362,0.59,3.153,1.706c0.983,1.387,1.08,2.983,0.261,4.27c-0.515,0.808-1.194,1.524-1.851,2.218l-0.454,0.482
			c-0.898,0.965-1.813,1.914-2.727,2.859l-1.121,1.164c-0.024,0.024-0.057,0.038-0.09,0.038c-0.019,0-0.038-0.004-0.056-0.013
			c-0.136-0.06-0.188-0.08-0.229-0.124l-1.398-1.441c-1.407-1.447-2.861-2.944-4.251-4.454c-0.346-0.375-0.604-0.922-0.812-1.722
			c-0.299-1.148-0.062-2.284,0.703-3.376c0.442-0.631,0.197-1.306-0.065-1.823c-0.232-0.456-0.701-0.72-1.289-0.726l-0.012-0.125
			v0.126H10.145z M14.689,16.68c-0.885,0-1.768,0.489-2.251,1.247c-0.696,1.093-0.61,2.447,0.212,3.371
			c0.499,0.561,1.016,1.104,1.533,1.646c0.779,0.816,3.291,3.431,3.291,3.431l0.103-0.081c0.109-0.084,0.204-0.156,0.286-0.242
			l0.194-0.204c1.418-1.489,2.838-2.979,4.246-4.479c0.829-0.883,0.963-2.275,0.316-3.312c-0.533-0.856-1.433-1.388-2.346-1.388
			c-0.282,0-0.558,0.051-0.818,0.153c-0.47,0.183-0.898,0.491-1.353,0.818c-0.214,0.154-0.433,0.312-0.663,0.461
			c-0.021,0.014-0.045,0.021-0.068,0.021c-0.034,0-0.067-0.014-0.092-0.04c-0.095-0.122-0.189-0.245-0.304-0.324
			c-0.127-0.087-0.253-0.179-0.379-0.271c-0.362-0.265-0.735-0.539-1.137-0.678C15.214,16.723,14.955,16.68,14.689,16.68z"/>
		<path fill="#FFFFFF" d="M18.069,4.562c0.651,0,1.239,0.327,1.644,0.949c0.124,0.19,0.236,0.321,0.424,0.321
			c0.067,0,0.144-0.017,0.235-0.053c0.273-0.11,0.546-0.162,0.809-0.162c0.917,0,1.71,0.631,1.926,1.643
			c0.072,0.337,0.083,0.687,0.128,1.078c0.308-0.04,0.59-0.095,0.873-0.109c0.044-0.002,0.087-0.003,0.131-0.003
			c1.153,0,2.006,0.79,2.011,1.957c0.018,3.991,0.118,7.987-0.028,11.973c-0.121,3.317-1.828,5.782-4.795,7.321
			c-1.263,0.655-2.61,0.963-3.939,0.963c-2.61,0-5.15-1.188-6.848-3.264c-1.342-1.64-1.966-3.542-1.938-5.676
			c0.033-2.465,0.005-4.93,0.006-7.396c0-0.775,0.017-0.769,0.78-0.796c0.075-0.003,0.149-0.004,0.222-0.004
			c1.169,0,2.161,0.352,2.81,1.441c0.026,0.043,0.088,0.064,0.285,0.199c0-0.32,0-0.505,0-0.689
			c0.001-1.683-0.024-3.366,0.019-5.047c0.014-0.529,0.107-1.108,0.349-1.568c0.352-0.668,0.954-1.006,1.657-1.006
			c0.171,0,0.348,0.02,0.529,0.06c0.096,0.021,0.178,0.033,0.25,0.033c0.252,0,0.361-0.141,0.411-0.474
			c0.114-0.754,0.552-1.27,1.268-1.541C17.553,4.611,17.816,4.562,18.069,4.562 M15.948,14.979c0-0.262,0-0.473,0-0.685
			c-0.001-1.722,0.016-3.444-0.017-5.166c-0.007-0.386-0.107-0.818-0.307-1.139c-0.152-0.243-0.395-0.352-0.659-0.352
			c-0.147,0-0.301,0.034-0.45,0.097c-0.479,0.204-0.684,0.624-0.686,1.122c-0.011,2.074-0.002,4.148-0.011,6.223
			c-0.001,0.335,0.084,0.493,0.406,0.493c0.033,0,0.068-0.002,0.105-0.005c0.143-0.012,0.284-0.018,0.424-0.018
			c0.882,0,1.702,0.247,2.446,0.798c0.062,0.046,0.159,0.065,0.263,0.065c0.124,0,0.259-0.027,0.36-0.066
			c0.532-0.208,1.022-0.569,1.568-0.69c0.341-0.075,0.672-0.113,0.991-0.113c1.229,0,2.276,0.559,3.052,1.653
			c0.829,1.169,1.157,2.717,0.257,4.13c-0.626,0.982-1.49,1.82-2.291,2.682c-1.265,1.361-2.567,2.688-3.846,4.022
			c-0.093-0.046-0.158-0.059-0.196-0.099c-1.89-1.957-3.804-3.892-5.647-5.894c-0.399-0.433-0.629-1.08-0.782-1.668
			c-0.307-1.179-0.013-2.277,0.685-3.273c0.461-0.657,0.25-1.348-0.057-1.951c-0.259-0.509-0.779-0.788-1.398-0.795
			c-0.005,0-0.009,0-0.014,0c-0.303,0-0.46,0.102-0.455,0.436c0.043,2.639-0.077,5.292,0.158,7.913
			c0.255,2.85,1.926,4.872,4.526,6.048c1.022,0.462,2.055,0.689,3.091,0.689c1.028,0,2.059-0.222,3.087-0.659
			c2.847-1.207,4.609-3.837,4.704-6.759c0.125-3.851,0.033-7.709,0.027-11.564c-0.001-0.758-0.41-1.219-1.045-1.225
			c-0.004,0-0.008,0-0.012,0c-0.617,0-1.023,0.47-1.027,1.214c-0.006,1.311,0.001,2.622-0.001,3.933
			c0,0.205-0.018,0.411-0.028,0.632c-0.345,0-0.617,0-0.989,0c0-0.261,0-0.472,0-0.683c0-2.074,0-4.148,0-6.222
			c0-0.157,0.011-0.315-0.007-0.469c-0.067-0.575-0.502-1.004-1.026-1.025c-0.013-0.001-0.026-0.001-0.039-0.001
			c-0.481,0-0.909,0.367-1.026,0.91c-0.041,0.188-0.036,0.388-0.037,0.583c-0.002,2.094-0.002,4.188-0.002,6.282
			c0,0.205,0,0.409,0,0.606c-0.385,0-0.67,0-1.018,0c0-0.248,0-0.459,0-0.669c0-2.524,0.002-5.049-0.002-7.573
			c-0.001-0.611-0.333-1.069-0.837-1.184c-0.053-0.012-0.107-0.018-0.161-0.018c-0.401,0-0.839,0.313-1.011,0.785
			c-0.077,0.212-0.076,0.46-0.076,0.692c-0.005,2.427-0.001,4.853-0.003,7.28c0,0.227-0.021,0.455-0.032,0.676
			C16.563,14.979,16.285,14.979,15.948,14.979 M17.371,17.996c-0.037-0.04-0.156-0.226-0.325-0.342
			c-0.502-0.344-0.986-0.77-1.546-0.964c-0.266-0.092-0.54-0.135-0.812-0.135c-0.933,0-1.848,0.508-2.356,1.305
			c-0.727,1.141-0.645,2.546,0.225,3.522c0.5,0.561,1.017,1.105,1.536,1.649c1.114,1.167,2.234,2.329,3.37,3.513
			c0.199-0.163,0.361-0.269,0.49-0.405c1.484-1.558,2.968-3.115,4.441-4.684c0.872-0.929,1.001-2.39,0.332-3.463
			c-0.551-0.885-1.495-1.447-2.453-1.447c-0.29,0-0.581,0.052-0.863,0.161C18.7,16.981,18.094,17.526,17.371,17.996 M18.069,4.312
			c-0.286,0-0.578,0.056-0.869,0.166c-0.808,0.306-1.301,0.906-1.427,1.737c-0.04,0.262-0.086,0.262-0.164,0.262
			c-0.05,0-0.116-0.009-0.195-0.027c-0.198-0.044-0.394-0.066-0.584-0.066c-0.824,0-1.491,0.405-1.878,1.14
			c-0.29,0.552-0.366,1.217-0.377,1.678c-0.031,1.217-0.027,2.454-0.022,3.649c0.002,0.468,0.003,0.936,0.003,1.404v0.094
			c-0.607-0.862-1.549-1.296-2.846-1.296c-0.076,0-0.154,0.001-0.231,0.004c-0.908,0.032-1.021,0.15-1.021,1.046
			c0,0.795,0.002,1.59,0.005,2.386c0.005,1.641,0.011,3.339-0.011,5.007c-0.03,2.22,0.641,4.184,1.994,5.837
			c1.719,2.101,4.351,3.355,7.041,3.355c1.422,0,2.786-0.333,4.054-0.991c3.104-1.609,4.808-4.215,4.93-7.534
			c0.11-3.001,0.08-6.055,0.052-9.008c-0.01-0.992-0.019-1.983-0.024-2.975c-0.006-1.278-0.957-2.206-2.261-2.206
			c-0.047,0-0.095,0.001-0.143,0.004c-0.2,0.01-0.4,0.04-0.608,0.071c-0.01,0.001-0.02,0.003-0.03,0.004
			c-0.003-0.035-0.006-0.07-0.009-0.105c-0.023-0.256-0.044-0.498-0.096-0.741c-0.235-1.101-1.107-1.841-2.171-1.841
			c-0.303,0-0.606,0.061-0.903,0.18c-0.072,0.029-0.117,0.035-0.141,0.035c-0.043,0-0.089-0.016-0.215-0.208
			C19.476,4.689,18.818,4.312,18.069,4.312L18.069,4.312z M15.948,15.229h0.955c0.133,0,0.243-0.105,0.25-0.238l0.012-0.207
			c0.01-0.159,0.02-0.32,0.02-0.481l0.001-2.913c0-1.455,0-2.911,0.003-4.366c0-0.227,0.001-0.442,0.061-0.607
			c0.129-0.354,0.462-0.62,0.776-0.62c0.037,0,0.072,0.004,0.106,0.012C18.528,5.9,18.774,6.26,18.775,6.75
			c0.003,1.844,0.002,3.688,0.002,5.532v2.041v0.424v0.245c0,0.138,0.112,0.25,0.25,0.25h1.018c0.138,0,0.25-0.112,0.25-0.25v-0.198
			v-0.409v-1.343c0-1.646,0-3.292,0.002-4.939V8.049c0-0.171,0-0.332,0.031-0.476c0.091-0.42,0.412-0.713,0.782-0.713
			c0.433,0.017,0.764,0.355,0.816,0.805c0.012,0.101,0.009,0.204,0.007,0.307L21.93,8.106v5.002v1.22v0.682
			c0,0.138,0.112,0.25,0.25,0.25h0.989c0.134,0,0.244-0.105,0.25-0.238l0.011-0.206c0.009-0.149,0.017-0.293,0.017-0.437v-1.611
			c-0.001-0.774-0.002-1.547,0.002-2.321c0.003-0.605,0.293-0.966,0.777-0.966c0.515,0.005,0.806,0.36,0.807,0.976
			c0.002,1.097,0.01,2.194,0.019,3.292c0.022,2.711,0.044,5.513-0.046,8.264c-0.094,2.881-1.838,5.386-4.552,6.537
			c-0.999,0.424-2.005,0.639-2.99,0.639c-1.005,0-2.011-0.224-2.988-0.667c-2.63-1.19-4.145-3.211-4.38-5.843
			c-0.16-1.786-0.154-3.624-0.148-5.4c0.003-0.832,0.005-1.664-0.008-2.495c-0.002-0.097,0.015-0.14,0.026-0.15
			c0.003-0.003,0.035-0.031,0.179-0.031c0.55,0.005,0.979,0.245,1.189,0.658c0.372,0.732,0.394,1.238,0.075,1.694
			c-0.787,1.123-1.03,2.294-0.722,3.479c0.213,0.819,0.48,1.383,0.84,1.775c1.391,1.511,2.845,3.008,4.252,4.455
			c0.467,0.48,0.934,0.961,1.399,1.443c0.061,0.063,0.131,0.092,0.192,0.117c0.022,0.009,0.046,0.019,0.074,0.032
			c0.035,0.017,0.073,0.026,0.11,0.026c0.067,0,0.132-0.027,0.181-0.077c0.38-0.396,0.761-0.791,1.144-1.187
			c0.892-0.924,1.814-1.879,2.705-2.838c0.149-0.16,0.3-0.319,0.451-0.478c0.662-0.698,1.346-1.42,1.868-2.239
			c0.848-1.331,0.749-2.98-0.264-4.409c-0.815-1.15-1.941-1.759-3.256-1.759c-0.336,0-0.688,0.04-1.045,0.119
			c-0.363,0.08-0.694,0.252-1.014,0.419c-0.202,0.105-0.394,0.205-0.591,0.282c-0.076,0.03-0.182,0.049-0.269,0.049
			c-0.071,0-0.108-0.012-0.116-0.017c-0.757-0.561-1.63-0.846-2.593-0.846c-0.147,0-0.295,0.007-0.445,0.019
			c-0.03,0.003-0.058,0.004-0.084,0.004c-0.085,0-0.119-0.015-0.124-0.02c-0.001-0.001-0.033-0.035-0.032-0.221
			c0.004-0.997,0.005-1.993,0.005-2.99c0-1.078,0.001-2.155,0.006-3.233c0.002-0.443,0.182-0.743,0.534-0.893
			c0.119-0.05,0.24-0.077,0.352-0.077c0.137,0,0.326,0.041,0.447,0.234c0.162,0.259,0.262,0.637,0.27,1.011
			c0.024,1.263,0.021,2.548,0.018,3.792l-0.002,1.37v0.442v0.243C15.698,15.117,15.81,15.229,15.948,15.229L15.948,15.229z
			 M17.371,18.246c0.047,0,0.094-0.013,0.136-0.04c0.233-0.151,0.453-0.31,0.669-0.465c0.447-0.322,0.869-0.625,1.324-0.803
			c0.246-0.096,0.506-0.144,0.773-0.144c0.871,0,1.729,0.51,2.24,1.33c0.616,0.988,0.489,2.317-0.302,3.16
			c-1.394,1.485-2.798,2.959-4.203,4.434l-0.236,0.248c-0.078,0.082-0.169,0.15-0.273,0.231c-0.004,0.003-0.009,0.007-0.013,0.01
			l-0.834-0.868c-0.798-0.831-1.59-1.654-2.378-2.481c-0.55-0.576-1.045-1.098-1.53-1.643c-0.786-0.882-0.866-2.176-0.201-3.221
			c0.46-0.722,1.302-1.189,2.145-1.189c0.252,0,0.497,0.041,0.73,0.122c0.385,0.133,0.735,0.39,1.106,0.661
			c0.127,0.093,0.253,0.186,0.381,0.273c0.098,0.067,0.181,0.176,0.231,0.242c0.022,0.029,0.04,0.051,0.051,0.063
			C17.236,18.218,17.303,18.246,17.371,18.246L17.371,18.246z"/>
	</g>
</g>
</svg>
