<?xml version="1.0" encoding="utf-8"?>
<!-- Generator: Adobe Illustrator 21.1.0, SVG Export Plug-In . SVG Version: 6.00 Build 0)  -->
<svg version="1.1" id="Layer_1" xmlns="http://www.w3.org/2000/svg" xmlns:xlink="http://www.w3.org/1999/xlink" x="0px" y="0px"
	 width="35px" height="35px" viewBox="0 0 35 35" enable-background="new 0 0 35 35" xml:space="preserve">
<circle fill="#FFFFFF" cx="17.5" cy="17.5" r="17.5"/>
<g>
	<path fill="#808080" d="M26.555,9.002c-2.277-2.329-5.305-3.619-8.526-3.633c-1.896-0.013-3.715,0.413-5.401,1.252
		c-3.507,1.744-5.824,5.293-6.048,9.262l-0.004,0.072c0.164-0.036,0.332-0.056,0.502-0.056c0.174,0,0.353,0.024,0.533,0.062
		l0.001-0.02c0.126-2.234,0.983-4.319,2.374-5.958c0.485,0.518,1.35,1.341,2.546,2.088c-0.878,1.615-1.354,3.249-1.398,4.84
		c0.342,0.094,0.69,0.188,1.031,0.277c-0.009-1.669,0.434-3.23,1.185-4.607c1.18,0.603,2.528,1.076,4.149,1.16v0.91
		c0-0.025,0.355-0.031,0.428-0.033c0.044-0.003-0.066-0.005-0.022-0.005c0.191,0,0.405,0.03,0.405,0.087v-0.957
		c2.027-0.081,3.476-0.455,4.71-1.057c0.594,1.275,1.176,2.78,1.163,4.401h-4.209c-0.006,0-0.013,0.017-0.021,0.079
		c-0.001,0.006-0.002-0.043-0.002-0.038c-0.04,0.28-0.107,0.769-0.196,0.769h4.366c-0.155,1.621-0.775,2.727-1.338,3.897
		c-1.146-0.42-2.852-0.72-4.473-0.718c0,0,0.003-1.157,0-1.154c-0.278,0.26-0.489,0.44-0.811,0.715v0.475
		c-0.224,0.005-0.301,0.005-0.339,0.008c-0.039,0.056-0.047,0.088-0.087,0.16c0,0,0.178,0.809,0.2,0.894
		c0.101-0.009,0.226-0.018,0.226-0.026v1.162c0.076,0.192,0.164,0.391,0.229,0.59c0.107,0.326,0.232,0.667,0.319,1.005
		c0.075,0.264,0.209,0.648,0.281,0.928l-0.001-0.006l-0.017-3.731c1.621,0,2.789,0.27,3.787,0.619
		c-0.945,1.646-2.478,3.793-3.447,4.326c-0.007,0.004-0.013,0.007-0.02,0.011l-0.002-0.008l0,0l0.043,0.175
		c0.067,0.402,0.08,1.179-0.591,1.94c-0.007,0.008-0.014,0.01-0.021,0.018c-0.061,0.067-0.124,0.13-0.186,0.196l0.828,0.022
		c2.901-0.172,5.614-1.372,7.703-3.426c2.26-2.221,3.536-5.188,3.593-8.353C30.057,14.392,28.834,11.333,26.555,9.002z
		 M13.067,11.169c-1.126-0.707-1.936-1.484-2.364-1.94c0.701-0.669,1.499-1.241,2.386-1.682c1.37-0.681,2.837-1.056,4.362-1.128
		c-0.628,0.49-1.839,1.51-3.045,2.939C13.902,9.954,13.457,10.559,13.067,11.169z M17.5,12.703c-1.621-0.083-2.65-0.495-3.696-1.023
		c1.218-1.876,2.885-3.323,3.696-4.102V12.703z M18.311,12.705V7.059c1.216,0.86,2.804,2.445,4.032,4.583
		C21.23,12.183,19.932,12.623,18.311,12.705z M21.805,8.582c-0.741-0.844-1.481-1.528-2.094-2.04
		c2.247,0.359,4.323,1.417,5.982,3.063c-0.388,0.367-1.086,0.966-2.046,1.541C23.148,10.269,22.532,9.411,21.805,8.582z
		 M24.128,12.193c1.057-0.627,1.826-1.345,2.267-1.766c1.592,1.897,2.478,4.204,2.554,6.659h-3.731
		C25.23,15.465,24.861,13.755,24.128,12.193z M19.068,28.328c0.97-0.794,2.947-2.605,4.401-5.201
		c0.226,0.109,0.435,0.219,0.621,0.327c1.043,0.605,1.647,1.243,1.851,1.479C24.167,26.802,21.752,28.058,19.068,28.328z
		 M26.623,24.157c-0.381-0.42-1.25-1.262-2.676-1.954c0.607-1.282,1.062-2.686,1.217-4.307h3.784
		C28.846,20.25,27.995,22.408,26.623,24.157z"/>
	<path fill="#808080" d="M18.143,15.451c-0.03,0-0.059,0.014-0.089,0.014h-0.011c-0.058,0-0.16-0.007-0.285,0.02l-0.118,0.016
		c-0.19,0.034-0.404,0.07-0.624,0.134c-0.54,0.151-1.048,0.435-1.461,0.819c-0.287,0.263-0.563,0.54-0.83,0.808
		c-0.129,0.129-0.257,0.258-0.387,0.386c-0.184,0.18-0.367,0.363-0.55,0.546c-0.074,0.074-0.148,0.148-0.222,0.222
		c-0.013-0.004-0.026-0.007-0.039-0.011c-0.172-0.047-0.345-0.094-0.516-0.139c-0.163-0.044-0.331-0.088-0.5-0.132
		c-0.162-0.042-0.323-0.084-0.485-0.128c-0.004-0.001-0.008-0.002-0.012-0.003c-0.419-0.108-0.848-0.226-1.264-0.34
		c-0.005-0.001-0.01-0.003-0.015-0.004c-0.419-0.108-0.848-0.226-1.264-0.34c-0.404-0.11-0.799-0.218-1.193-0.327l-0.071-0.021
		c-0.209-0.062-0.425-0.125-0.654-0.18c-0.165-0.044-0.321-0.065-0.475-0.065c-0.39,0-0.748,0.139-1.035,0.402
		c-0.004,0.004-0.008,0.008-0.012,0.012c-0.062,0.059-0.124,0.115-0.185,0.172c-0.069,0.063-0.138,0.127-0.206,0.192
		c-0.007,0.006-0.013,0.013-0.02,0.019l-0.048,0.048l-0.096,0.096c-0.235,0.235-0.343,0.569-0.29,0.897s0.261,0.611,0.558,0.759
		c0.081,0.041,0.158,0.08,0.232,0.118c0.073,0.037,0.144,0.074,0.217,0.11c0.257,0.136,0.516,0.268,0.767,0.395l0.249,0.127
		c0.14,0.073,0.282,0.145,0.424,0.217c0.135,0.068,0.269,0.136,0.402,0.206c0.15,0.078,0.3,0.154,0.451,0.231
		c0.142,0.072,0.284,0.143,0.424,0.217c0.121,0.063,0.235,0.12,0.348,0.178c0.11,0.056,0.22,0.112,0.332,0.169l0.281,0.143
		c0.175,0.089,0.348,0.177,0.521,0.267c-0.178,0.2-0.353,0.397-0.523,0.587c-0.17,0.191-0.341,0.381-0.512,0.571
		c-0.266,0.296-0.54,0.6-0.809,0.907c-0.267-0.026-0.528-0.047-0.783-0.067l-0.472-0.04l-0.483-0.04
		c-0.012-0.001-0.024-0.002-0.036-0.002c-0.016-0.001-0.032-0.002-0.049-0.003c-0.053-0.004-0.126-0.01-0.208-0.01
		c-0.225,0-0.427,0.042-0.618,0.127C5.626,23.849,5.391,24.04,5.2,24.3c-0.193,0.263-0.25,0.6-0.156,0.912
		c0.095,0.312,0.33,0.56,0.636,0.672c0.065,0.024,0.13,0.047,0.189,0.071c0.013,0.005,0.025,0.01,0.038,0.014
		c0.105,0.037,0.208,0.074,0.311,0.112c0.103,0.037,0.206,0.074,0.311,0.112c0.101,0.038,0.202,0.075,0.303,0.111
		c0.095,0.034,0.19,0.069,0.284,0.105c0.008,0.003,0.016,0.006,0.024,0.009c0.123,0.043,0.247,0.088,0.37,0.133
		c0.131,0.048,0.262,0.096,0.393,0.142c0.008,0.003,0.015,0.006,0.02,0.008c0.075,0.187,0.148,0.39,0.225,0.604
		c0.052,0.145,0.105,0.29,0.159,0.435c0.068,0.189,0.138,0.378,0.209,0.569c0.078,0.21,0.156,0.422,0.235,0.64
		c0.113,0.313,0.37,0.553,0.69,0.644c0.093,0.027,0.189,0.04,0.283,0.04c0.23,0,0.457-0.077,0.642-0.223
		c0.585-0.463,0.674-1.026,0.644-1.421c-0.005-0.072-0.013-0.146-0.022-0.219c-0.004-0.037-0.009-0.073-0.012-0.109
		c0-0.006-0.001-0.012-0.001-0.017c-0.017-0.219-0.037-0.44-0.056-0.661c-0.018-0.213-0.037-0.427-0.054-0.638
		c-0.007-0.101-0.015-0.203-0.023-0.304c0.33-0.296,0.661-0.59,0.984-0.876l1.029-0.911l0.061-0.054l0.012,0.023
		c0.125,0.244,0.243,0.472,0.355,0.702c0.002,0.004,0.003,0.007,0.005,0.011c0.04,0.08,0.079,0.159,0.117,0.238
		c0.063,0.13,0.126,0.259,0.192,0.386c0.051,0.098,0.103,0.195,0.155,0.293c0.047,0.088,0.095,0.177,0.141,0.265l0.326,0.642
		l0.33,0.65c0.097,0.191,0.194,0.38,0.291,0.568c0.096,0.186,0.191,0.372,0.287,0.56c0.003,0.006,0.006,0.012,0.009,0.018
		c0.058,0.108,0.115,0.216,0.187,0.346c0.161,0.29,0.452,0.486,0.782,0.525c0.041,0.005,0.082,0.007,0.122,0.007
		c0.287,0,0.564-0.12,0.761-0.334c0.073-0.079,0.144-0.153,0.213-0.226c0.083-0.087,0.164-0.172,0.243-0.258
		c0.004-0.004,0.008-0.009,0.012-0.013c0.422-0.478,0.448-0.953,0.396-1.267c-0.032-0.181-0.069-0.354-0.12-0.55
		c-0.059-0.242-0.123-0.478-0.185-0.707l-0.038-0.141c-0.071-0.275-0.147-0.548-0.222-0.812c-0.089-0.342-0.178-0.684-0.267-1.019
		c-0.069-0.27-0.147-0.546-0.222-0.814c-0.102-0.381-0.204-0.77-0.306-1.158c-0.001-0.006-0.003-0.011-0.005-0.017l-0.113-0.402
		l-0.071-0.251c-0.028-0.103-0.054-0.207-0.081-0.312c-0.01-0.039-0.02-0.077-0.03-0.117l0.1-0.099
		c0.53-0.537,1.066-1.073,1.597-1.597c0.251-0.251,0.53-0.554,0.741-0.942c0.259-0.456,0.426-0.941,0.498-1.443
		c0.011-0.079,0.018-0.151,0.025-0.225c0.004-0.042,0.008-0.086,0.013-0.13c0.037-0.311-0.07-0.617-0.29-0.841
		C18.685,15.556,18.419,15.451,18.143,15.451z M18.108,16.805c-0.055,0.385-0.186,0.749-0.378,1.086
		c-0.144,0.268-0.351,0.495-0.564,0.708c-0.536,0.529-1.073,1.066-1.602,1.602c-0.138,0.138-0.275,0.275-0.413,0.413
		c-0.069,0.076-0.096,0.151-0.069,0.261c0.083,0.289,0.151,0.578,0.227,0.859c0.062,0.22,0.124,0.44,0.186,0.66
		c0.103,0.392,0.206,0.784,0.309,1.169c0.076,0.268,0.151,0.536,0.22,0.804c0.089,0.337,0.179,0.681,0.268,1.025
		c0.076,0.268,0.151,0.536,0.22,0.804c0.076,0.282,0.151,0.557,0.22,0.839c0.041,0.158,0.076,0.309,0.103,0.468
		c0.027,0.165-0.048,0.296-0.151,0.413c-0.144,0.158-0.296,0.309-0.454,0.481c-0.069-0.124-0.124-0.227-0.179-0.33
		c-0.193-0.378-0.385-0.749-0.578-1.128c-0.22-0.433-0.44-0.866-0.66-1.3c-0.096-0.186-0.199-0.371-0.296-0.557
		c-0.103-0.199-0.199-0.406-0.303-0.612c-0.117-0.241-0.241-0.481-0.364-0.722c-0.144-0.282-0.289-0.564-0.433-0.846
		c-0.072-0.143-0.143-0.212-0.244-0.212c-0.025,0-0.051,0.004-0.08,0.012c-0.055,0.014-0.11,0.055-0.158,0.096
		c-0.598,0.529-1.196,1.059-1.795,1.588c-0.426,0.378-0.853,0.756-1.279,1.141c-0.069,0.062-0.089,0.138-0.083,0.234
		c0.021,0.22,0.041,0.44,0.055,0.653c0.034,0.433,0.076,0.873,0.11,1.306c0.007,0.11,0.027,0.227,0.034,0.337
		c0.021,0.254-0.089,0.406-0.254,0.536c-0.151-0.419-0.303-0.818-0.447-1.217c-0.138-0.364-0.261-0.736-0.406-1.093
		c-0.117-0.282-0.337-0.468-0.626-0.571c-0.254-0.089-0.509-0.186-0.763-0.275c-0.199-0.076-0.399-0.144-0.598-0.22
		C6.67,25.141,6.464,25.066,6.25,24.99c-0.069-0.028-0.144-0.055-0.22-0.083c0.076-0.103,0.165-0.186,0.282-0.234
		c0.065-0.031,0.132-0.04,0.2-0.04s0.137,0.009,0.205,0.012C7.04,24.672,7.356,24.7,7.68,24.728
		c0.351,0.028,0.701,0.055,1.052,0.096c0.027,0.003,0.052,0.005,0.076,0.005c0.126,0,0.224-0.047,0.316-0.156
		c0.495-0.571,1.011-1.135,1.513-1.698c0.399-0.447,0.791-0.887,1.183-1.334c0.117-0.131,0.096-0.323-0.069-0.406
		c-0.289-0.144-0.571-0.289-0.859-0.44c-0.275-0.144-0.55-0.282-0.832-0.426c-0.227-0.117-0.447-0.227-0.674-0.344
		c-0.289-0.151-0.584-0.296-0.873-0.447c-0.275-0.144-0.557-0.282-0.832-0.426C7.344,18.98,7,18.808,6.663,18.629
		c-0.151-0.076-0.296-0.151-0.461-0.234c0.048-0.048,0.096-0.096,0.144-0.144c0.131-0.124,0.261-0.241,0.392-0.364
		c0.103-0.094,0.217-0.13,0.336-0.13c0.072,0,0.146,0.013,0.221,0.034c0.234,0.055,0.461,0.124,0.694,0.193
		c0.399,0.11,0.798,0.22,1.203,0.33c0.426,0.117,0.853,0.234,1.279,0.344c0.426,0.117,0.853,0.234,1.279,0.344
		c0.33,0.089,0.66,0.172,0.99,0.261c0.337,0.089,0.681,0.186,1.018,0.275c0.016,0.004,0.032,0.006,0.048,0.006
		c0.064,0,0.121-0.032,0.165-0.082c0.364-0.358,0.722-0.722,1.086-1.08c0.399-0.392,0.784-0.798,1.196-1.176
		c0.296-0.275,0.653-0.474,1.045-0.584c0.213-0.062,0.44-0.096,0.66-0.138c0.055-0.014,0.11-0.007,0.179-0.014
		C18.129,16.591,18.122,16.701,18.108,16.805z"/>
</g>
</svg>
