<?xml version="1.0" encoding="utf-8"?>
<!-- Generator: Adobe Illustrator 21.1.0, SVG Export Plug-In . SVG Version: 6.00 Build 0)  -->
<svg version="1.1" id="Layer_1" xmlns="http://www.w3.org/2000/svg" xmlns:xlink="http://www.w3.org/1999/xlink" x="0px" y="0px"
	 width="36.438px" height="35.375px" viewBox="0 0 36.438 35.375" enable-background="new 0 0 36.438 35.375" xml:space="preserve">
<g>
	<g>
		<g>
			<g>
				<path fill="#000066" d="M31.258,5.431c-3.286-3.361-7.655-5.222-12.303-5.243c-2.736-0.019-5.36,0.596-7.794,1.806
					C6.1,4.511,2.756,9.632,2.433,15.36l-0.006,0.104c0.236-0.051,0.478-0.081,0.725-0.081c0.251,0,0.51,0.035,0.77,0.089
					l0.002-0.028c0.182-3.224,1.419-6.233,3.426-8.598c0.7,0.748,1.948,1.936,3.673,3.013c-1.268,2.331-1.954,4.688-2.018,6.984
					c0.494,0.135,0.996,0.272,1.488,0.399c-0.012-2.409,0.626-4.661,1.711-6.648c1.703,0.87,3.648,1.552,5.988,1.673v1.313
					c0-0.036,0.512-0.045,0.618-0.048c0.063-0.004-0.095-0.007-0.032-0.007c0.276,0,0.585,0.043,0.585,0.125V12.27
					c2.924-0.118,5.016-0.657,6.797-1.525c0.857,1.84,1.697,4.011,1.678,6.351h-6.073c-0.009,0-0.018,0.024-0.03,0.114
					c-0.001,0.008-0.002-0.062-0.003-0.054c-0.058,0.404-0.155,1.11-0.282,1.11h6.3c-0.223,2.34-1.119,3.935-1.931,5.623
					c-1.654-0.606-4.115-1.039-6.455-1.035c0,0,0.004-1.669,0-1.665c-0.402,0.376-0.705,0.635-1.17,1.032v0.685
					c-0.323,0.007-0.434,0.007-0.489,0.012c-0.056,0.081-0.067,0.127-0.126,0.231c0,0,0.256,1.168,0.289,1.29
					c0.146-0.013,0.326-0.026,0.326-0.037v1.677c0.11,0.276,0.236,0.564,0.33,0.851c0.154,0.47,0.334,0.963,0.461,1.451
					c0.105,0.372,0.29,0.906,0.396,1.307c0.002-0.001,0.005-0.002,0.007-0.003l-0.024-5.358c2.34,0,4.025,0.389,5.464,0.894
					c-1.364,2.376-3.576,5.473-4.974,6.242c-0.01,0.005-0.019,0.01-0.029,0.016l-0.007-0.028c0,0,0,0,0,0l0.066,0.269
					c0.097,0.58,0.115,1.702-0.853,2.799c-0.01,0.011-0.02,0.015-0.03,0.026c-0.088,0.096-0.178,0.187-0.269,0.282l1.195,0.032
					c4.187-0.248,8.102-1.98,11.116-4.943c3.261-3.205,5.102-7.487,5.185-12.054C36.31,13.208,34.546,8.794,31.258,5.431z
					 M11.793,8.557c-1.625-1.02-2.794-2.142-3.411-2.799c1.011-0.965,2.164-1.791,3.443-2.427c1.977-0.983,4.094-1.523,6.295-1.628
					c-0.906,0.707-2.654,2.18-4.394,4.24C12.998,6.804,12.357,7.678,11.793,8.557z M18.19,10.771
					c-2.34-0.12-3.825-0.715-5.334-1.477c1.758-2.707,4.164-4.795,5.334-5.92V10.771z M19.36,10.774V2.626
					c1.755,1.241,4.046,3.528,5.819,6.614C23.573,10.021,21.7,10.656,19.36,10.774z M24.402,4.824
					C23.333,3.607,22.264,2.62,21.38,1.88c3.243,0.518,6.238,2.044,8.633,4.421c-0.559,0.53-1.567,1.393-2.952,2.224
					C26.34,7.259,25.452,6.021,24.402,4.824z M27.755,10.035c1.525-0.905,2.635-1.941,3.272-2.549
					c2.297,2.737,3.576,6.066,3.686,9.609h-5.384C29.345,14.756,28.812,12.289,27.755,10.035z M20.453,33.318
					c1.4-1.146,4.252-3.759,6.35-7.505c0.327,0.157,0.628,0.316,0.896,0.471c1.504,0.874,2.377,1.794,2.671,2.135
					C27.811,31.117,24.327,32.928,20.453,33.318z M31.355,27.3c-0.55-0.606-1.804-1.821-3.862-2.819
					c0.876-1.85,1.533-3.876,1.756-6.215h5.461C34.563,21.662,33.335,24.776,31.355,27.3z"/>
			</g>
		</g>
	</g>
	<path fill="#000066" d="M19.118,14.736c-0.043,0-0.086,0.02-0.128,0.02h-0.015c-0.083,0-0.231-0.009-0.411,0.029l-0.171,0.024
		c-0.274,0.049-0.584,0.101-0.901,0.193c-0.779,0.219-1.512,0.627-2.109,1.182c-0.414,0.38-0.812,0.779-1.197,1.166
		c-0.186,0.187-0.371,0.373-0.559,0.557c-0.265,0.26-0.529,0.524-0.793,0.788c-0.107,0.107-0.214,0.214-0.321,0.32
		c-0.019-0.005-0.038-0.01-0.057-0.016c-0.249-0.068-0.498-0.136-0.744-0.201c-0.235-0.064-0.478-0.127-0.721-0.19
		c-0.233-0.061-0.467-0.122-0.7-0.185c-0.006-0.002-0.011-0.003-0.017-0.005c-0.604-0.156-1.224-0.326-1.824-0.49
		c-0.007-0.002-0.014-0.004-0.022-0.006c-0.604-0.156-1.224-0.326-1.824-0.49c-0.583-0.158-1.152-0.315-1.722-0.472l-0.102-0.03
		c-0.301-0.089-0.613-0.181-0.943-0.259c-0.238-0.063-0.463-0.094-0.685-0.094c-0.563,0-1.08,0.2-1.493,0.58
		c-0.006,0.006-0.012,0.011-0.018,0.017c-0.089,0.085-0.178,0.167-0.268,0.249c-0.099,0.091-0.199,0.183-0.298,0.277
		c-0.01,0.009-0.019,0.019-0.029,0.028l-0.069,0.069l-0.139,0.139c-0.339,0.339-0.495,0.821-0.418,1.295
		c0.077,0.474,0.377,0.881,0.806,1.096c0.117,0.059,0.227,0.115,0.335,0.17c0.105,0.054,0.208,0.107,0.313,0.159
		c0.37,0.196,0.745,0.386,1.107,0.57l0.36,0.183c0.202,0.106,0.407,0.21,0.611,0.313c0.194,0.098,0.389,0.197,0.58,0.297
		c0.216,0.113,0.433,0.223,0.65,0.333c0.205,0.103,0.409,0.207,0.611,0.313c0.175,0.09,0.339,0.173,0.503,0.257
		c0.159,0.081,0.317,0.161,0.479,0.244l0.406,0.207c0.252,0.128,0.502,0.255,0.752,0.386c-0.257,0.289-0.509,0.572-0.755,0.847
		c-0.245,0.275-0.492,0.55-0.738,0.824c-0.384,0.427-0.779,0.866-1.167,1.308c-0.386-0.038-0.763-0.068-1.131-0.097l-0.681-0.058
		l-0.699-0.06c-0.017-0.001-0.035-0.003-0.052-0.004c-0.023-0.001-0.047-0.003-0.07-0.005c-0.077-0.006-0.181-0.014-0.301-0.014
		c-0.325,0-0.617,0.06-0.891,0.184c-0.394,0.17-0.733,0.446-1.008,0.821c-0.278,0.379-0.361,0.867-0.225,1.316
		c0.136,0.45,0.477,0.809,0.918,0.969c0.094,0.034,0.188,0.068,0.273,0.102c0.018,0.007,0.037,0.014,0.055,0.021
		c0.151,0.054,0.3,0.107,0.449,0.161c0.149,0.054,0.298,0.107,0.449,0.161c0.146,0.055,0.292,0.108,0.438,0.161
		c0.137,0.05,0.274,0.099,0.41,0.151c0.011,0.004,0.023,0.009,0.035,0.013c0.178,0.062,0.356,0.127,0.534,0.192
		c0.189,0.069,0.378,0.138,0.568,0.205c0.012,0.004,0.022,0.008,0.029,0.012c0.108,0.27,0.214,0.562,0.325,0.872
		c0.075,0.209,0.151,0.419,0.229,0.627c0.099,0.273,0.2,0.546,0.302,0.821c0.112,0.303,0.225,0.609,0.339,0.923
		c0.163,0.452,0.533,0.798,0.995,0.929c0.135,0.038,0.272,0.057,0.409,0.057c0.332,0,0.66-0.111,0.927-0.322
		c0.844-0.668,0.972-1.481,0.93-2.05c-0.007-0.104-0.019-0.21-0.032-0.317c-0.006-0.053-0.014-0.105-0.017-0.157
		c-0.001-0.008-0.001-0.017-0.002-0.025c-0.025-0.316-0.053-0.635-0.08-0.953c-0.027-0.308-0.053-0.616-0.078-0.921
		c-0.01-0.146-0.021-0.292-0.033-0.438c0.476-0.427,0.954-0.851,1.42-1.265l1.485-1.314l0.088-0.078l0.017,0.034
		c0.181,0.352,0.351,0.682,0.512,1.014c0.002,0.005,0.005,0.01,0.008,0.015c0.057,0.115,0.113,0.23,0.169,0.344
		c0.091,0.188,0.182,0.374,0.277,0.557c0.073,0.142,0.149,0.282,0.224,0.422c0.068,0.128,0.137,0.255,0.203,0.383l0.471,0.927
		l0.476,0.938c0.14,0.276,0.28,0.548,0.42,0.82c0.138,0.269,0.276,0.537,0.414,0.809c0.004,0.008,0.009,0.017,0.013,0.025
		c0.083,0.156,0.166,0.312,0.27,0.499c0.233,0.419,0.653,0.701,1.129,0.757c0.059,0.007,0.118,0.01,0.176,0.01
		c0.415,0,0.814-0.173,1.098-0.482c0.105-0.114,0.207-0.221,0.308-0.326c0.12-0.125,0.237-0.248,0.351-0.373
		c0.006-0.006,0.011-0.013,0.017-0.019c0.609-0.69,0.647-1.375,0.571-1.828c-0.045-0.262-0.1-0.511-0.174-0.794
		c-0.085-0.349-0.177-0.69-0.266-1.021l-0.055-0.204c-0.102-0.396-0.213-0.791-0.32-1.172c-0.128-0.494-0.257-0.987-0.385-1.471
		c-0.1-0.389-0.212-0.788-0.321-1.174c-0.147-0.55-0.295-1.111-0.442-1.671c-0.002-0.008-0.004-0.016-0.007-0.024l-0.163-0.581
		l-0.102-0.363c-0.04-0.149-0.078-0.299-0.117-0.45c-0.014-0.056-0.029-0.112-0.043-0.168l0.144-0.144
		c0.765-0.775,1.538-1.548,2.305-2.305c0.362-0.362,0.765-0.8,1.07-1.359c0.373-0.658,0.615-1.358,0.719-2.082
		c0.015-0.114,0.025-0.218,0.035-0.325c0.006-0.061,0.011-0.123,0.019-0.188c0.053-0.449-0.101-0.891-0.418-1.213
		C19.901,14.888,19.516,14.736,19.118,14.736z M19.068,16.69c-0.079,0.556-0.268,1.082-0.546,1.568
		c-0.208,0.387-0.506,0.714-0.814,1.022c-0.774,0.764-1.548,1.538-2.312,2.312c-0.198,0.198-0.397,0.397-0.595,0.595
		c-0.099,0.109-0.139,0.218-0.099,0.377c0.119,0.417,0.218,0.833,0.327,1.24c0.089,0.318,0.179,0.635,0.268,0.953
		c0.149,0.566,0.298,1.131,0.446,1.687c0.109,0.387,0.218,0.774,0.318,1.161c0.129,0.486,0.258,0.982,0.387,1.478
		c0.109,0.387,0.218,0.774,0.318,1.161c0.109,0.407,0.218,0.804,0.318,1.211c0.06,0.228,0.109,0.447,0.149,0.675
		c0.04,0.238-0.069,0.427-0.218,0.595c-0.208,0.228-0.427,0.447-0.655,0.695c-0.099-0.179-0.179-0.327-0.258-0.476
		c-0.278-0.546-0.556-1.082-0.833-1.627c-0.318-0.625-0.635-1.25-0.953-1.875c-0.139-0.268-0.288-0.536-0.427-0.804
		c-0.149-0.288-0.288-0.585-0.437-0.883c-0.169-0.347-0.347-0.695-0.526-1.042c-0.208-0.407-0.417-0.814-0.625-1.22
		c-0.104-0.207-0.207-0.305-0.352-0.305c-0.036,0-0.074,0.006-0.115,0.018c-0.079,0.02-0.159,0.079-0.228,0.139
		c-0.863,0.764-1.726,1.528-2.59,2.292c-0.615,0.546-1.23,1.091-1.846,1.647c-0.099,0.089-0.129,0.198-0.119,0.337
		c0.03,0.318,0.06,0.635,0.079,0.943c0.05,0.625,0.109,1.26,0.159,1.885c0.01,0.159,0.04,0.327,0.05,0.486
		c0.03,0.367-0.129,0.585-0.367,0.774c-0.218-0.605-0.437-1.181-0.645-1.756c-0.198-0.526-0.377-1.062-0.585-1.578
		c-0.169-0.407-0.486-0.675-0.903-0.824c-0.367-0.129-0.734-0.268-1.101-0.397c-0.288-0.109-0.575-0.208-0.863-0.318
		c-0.308-0.109-0.605-0.218-0.913-0.327c-0.099-0.04-0.208-0.079-0.318-0.119c0.109-0.149,0.238-0.268,0.407-0.337
		c0.094-0.045,0.191-0.057,0.289-0.057c0.098,0,0.197,0.012,0.296,0.017c0.466,0.04,0.923,0.079,1.389,0.119
		c0.506,0.04,1.012,0.079,1.518,0.139c0.038,0.005,0.075,0.007,0.11,0.007c0.182,0,0.323-0.067,0.456-0.226
		c0.714-0.824,1.459-1.637,2.183-2.451c0.576-0.645,1.141-1.28,1.707-1.925c0.169-0.189,0.139-0.466-0.099-0.585
		c-0.417-0.208-0.824-0.417-1.24-0.635c-0.397-0.208-0.794-0.407-1.201-0.615c-0.327-0.169-0.645-0.327-0.972-0.496
		c-0.417-0.218-0.843-0.427-1.26-0.645c-0.397-0.208-0.804-0.407-1.201-0.615c-0.486-0.248-0.982-0.496-1.469-0.754
		c-0.218-0.109-0.427-0.218-0.665-0.337c0.069-0.069,0.139-0.139,0.208-0.208c0.189-0.179,0.377-0.347,0.566-0.526
		c0.149-0.136,0.313-0.187,0.485-0.187c0.104,0,0.211,0.019,0.319,0.048c0.337,0.079,0.665,0.179,1.002,0.278
		c0.575,0.159,1.151,0.318,1.736,0.476c0.615,0.169,1.23,0.337,1.846,0.496c0.615,0.169,1.23,0.337,1.846,0.496
		c0.476,0.129,0.953,0.248,1.429,0.377c0.486,0.129,0.982,0.268,1.469,0.397c0.023,0.006,0.047,0.009,0.069,0.009
		c0.092,0,0.175-0.046,0.238-0.118c0.526-0.516,1.042-1.042,1.568-1.558c0.575-0.566,1.131-1.151,1.726-1.697
		c0.427-0.397,0.943-0.685,1.508-0.843c0.308-0.089,0.635-0.139,0.953-0.198c0.079-0.02,0.159-0.01,0.258-0.02
		C19.098,16.382,19.088,16.541,19.068,16.69z"/>
</g>
</svg>
