<?xml version="1.0" encoding="utf-8"?>
<!-- Generator: Adobe Illustrator 21.1.0, SVG Export Plug-In . SVG Version: 6.00 Build 0)  -->
<svg version="1.1" id="Layer_1" xmlns="http://www.w3.org/2000/svg" xmlns:xlink="http://www.w3.org/1999/xlink" x="0px" y="0px"
	 width="44.208px" height="32.938px" viewBox="0 0 44.208 32.938" enable-background="new 0 0 44.208 32.938" xml:space="preserve">
<g>
	<path fill="#000066" d="M8.643,16.604c-1.902,0-3.449,1.547-3.449,3.449s1.547,3.449,3.449,3.449s3.449-1.547,3.449-3.449
		S10.545,16.604,8.643,16.604z M8.643,21.181c-0.622,0-1.129-0.507-1.129-1.129c0-0.622,0.507-1.129,1.129-1.129
		c0.622,0,1.129,0.507,1.129,1.129C9.772,20.675,9.265,21.181,8.643,21.181z"/>
	<path fill="#000066" d="M35.021,16.604c-1.902,0-3.449,1.547-3.449,3.449s1.547,3.449,3.449,3.449c1.902,0,3.449-1.547,3.449-3.449
		S36.923,16.604,35.021,16.604z M35.021,21.181c-0.622,0-1.129-0.507-1.129-1.129c0-0.622,0.507-1.129,1.129-1.129
		c0.622,0,1.129,0.507,1.129,1.129C36.15,20.675,35.644,21.181,35.021,21.181z"/>
	<path fill="#000066" d="M29.006,17.401H14.7c-0.641,0-1.16,0.595-1.16,1.236s0.519,1.236,1.16,1.236h14.306
		c0.641,0,1.16-0.595,1.16-1.236S29.647,17.401,29.006,17.401z"/>
	<path fill="#000066" d="M29.006,21.725H14.7c-0.641,0-1.16,0.595-1.16,1.236s0.519,1.236,1.16,1.236h14.306
		c0.641,0,1.16-0.595,1.16-1.236S29.647,21.725,29.006,21.725z"/>
	<path fill="#000066" d="M43.895,10.14c-0.389-1.083-1.323-1.849-2.438-1.999c-1.232-0.166-2.284,0.051-3.036,0.315l-2.574-5.58
		c-0.097-0.21-0.254-0.386-0.451-0.506c-0.082-0.05-2.06-1.227-6.436-1.833c-4.08-0.565-6.555-0.417-6.855-0.396
		c-0.298-0.021-2.774-0.168-6.855,0.396c-4.376,0.606-6.354,1.783-6.436,1.833C8.617,2.49,8.46,2.667,8.363,2.876l-2.574,5.58
		C5.037,8.192,3.984,7.975,2.752,8.141c-1.114,0.15-2.048,0.916-2.438,1.999c-0.413,1.148-0.141,2.433,0.71,3.353
		c0.378,0.409,1.099,0.763,1.814,1.039l-1.015,1.875c-0.093,0.173-0.142,0.366-0.14,0.562c0,0-0.637,12.481,0.135,14.502
		c0.438,1.145,1.619,1.306,2.179,1.339c0.391,0.023,0.987,0.031,1.604,0.031c1.05,0,2.162-0.022,2.429-0.028
		c1.279,0.08,2.635-0.615,2.795-2.135c0.066-0.631,0.071-1.415,0.057-2.069c4.85,0.244,10.997,0.65,11.085,0.656
		c0.026,0.002,0.052,0.002,0.078,0.002c0.02,0,0.038-0.005,0.057-0.006c0.019,0.001,0.038,0.006,0.057,0.006
		c0.026,0,0.052-0.001,0.078-0.002c0.085-0.006,5.834-0.386,10.599-0.631c-0.002,0.58,0.014,1.352,0.087,2.044
		c0.16,1.52,1.508,2.214,2.789,2.135c0.267,0.006,1.373,0.028,2.419,0.028c0.615,0,1.209-0.008,1.6-0.031
		c0.564-0.033,0.952-0.273,1.313-0.693c0.663-0.772,0.517-1.906,0.517-2.25v-2.779c0.618-0.936,0.84-2.012,0.798-2.4l0.114-7.718
		c0.002-0.196-0.021-0.39-0.115-0.562l-1.003-1.875c0.715-0.275,1.442-0.63,1.82-1.039C44.03,12.573,44.308,11.288,43.895,10.14z
		 M10.302,4.211c0.634-0.295,2.322-0.968,5.267-1.376c3.985-0.552,6.361-0.381,6.388-0.379c0.05,0.004,0.098-0.001,0.147-0.004
		c0.05,0.003,0.099,0.007,0.15,0.004c0.024-0.002,2.401-0.173,6.389,0.379c2.949,0.408,4.638,1.083,5.266,1.375l2.339,5.07
		c-1,0.242-2.396,0.411-3.336,0.524c-0.435,0.052-0.82,0.099-1.111,0.143c-1.141,0.156-17.133,0.064-20.105-0.012
		c-1.324-0.034-2.756-0.367-3.737-0.645L10.302,4.211z M8.534,30.621c-0.08,0.035-3.524-0.056-4.669-0.104
		c-0.035-0.135-0.077-2.299-0.077-2.299l4.761,0.125C8.549,28.343,8.594,30.038,8.534,30.621z M39.58,30.521
		c-1.15,0.045-4.559,0.126-4.559,0.126s-0.099-1.595-0.11-2.125c1.298-0.056,4.604-0.037,4.604-0.037S39.61,30.387,39.58,30.521z
		 M41.499,11.901c-0.219,0.19-1.232,0.595-2.125,0.849c-0.339,0.096-0.615,0.341-0.752,0.665c-0.137,0.324-0.119,0.693,0.049,1.003
		l1.533,2.83l-0.062,7.498c-0.001,0.072,0.002,0.12,0.014,0.191c0.001,0.004,0.051,0.412-0.198,0.697
		c-0.268,0.306-0.867,0.475-1.685,0.475c-3.454,0-15.493,0.794-16.169,0.839C21.429,26.904,9.39,26.11,5.936,26.11
		c-0.818,0-1.417-0.169-1.685-0.475c-0.244-0.279-0.201-0.674-0.202-0.674c0,0,0,0,0,0c0.013-0.071,0.019-0.142,0.018-0.214
		l-0.062-7.498l1.533-2.83c0.168-0.309,0.186-0.678,0.049-1.003c-0.136-0.324-0.413-0.569-0.752-0.665
		c-0.893-0.254-1.905-0.659-2.107-0.831c-0.382-0.413-0.288-0.832-0.231-0.993c0.047-0.129,0.195-0.435,0.565-0.485
		c1.527-0.206,2.049,0.219,2.652,0.524c1.352,0.683,3.24,1.221,5.921,1.29c1.172,0.03,8.052,0.1,13.545,0.1
		c3.477,0,6.398-0.028,6.962-0.113c0.276-0.042,0.637-0.085,1.046-0.134c1.965-0.237,3.63-0.573,4.788-0.961
		c0.155-0.052,0.501-0.22,0.676-0.279c0.616-0.208,1.138-0.55,2.494-0.428c0.372,0.033,0.518,0.356,0.565,0.485
		C41.77,11.086,41.864,11.506,41.499,11.901z"/>
</g>
</svg>
