<?xml version="1.0" encoding="utf-8"?>
<!-- Generator: Adobe Illustrator 21.1.0, SVG Export Plug-In . SVG Version: 6.00 Build 0)  -->
<svg version="1.1" id="Layer_1" xmlns="http://www.w3.org/2000/svg" xmlns:xlink="http://www.w3.org/1999/xlink" x="0px" y="0px"
	 width="52px" height="33.5px" viewBox="0 0 52 33.5" enable-background="new 0 0 52 33.5" xml:space="preserve">
<g>
	<g>
		<path fill="#000066" d="M31.201,2.778c-0.032,0.269-0.047,0.522-0.079,0.759c-0.127,0.886-0.427,1.724-0.87,2.499
			c-0.332,0.617-0.807,1.139-1.297,1.629c-1.234,1.218-2.467,2.451-3.685,3.685c-0.316,0.316-0.633,0.633-0.949,0.949
			c-0.158,0.174-0.221,0.348-0.158,0.601c0.19,0.664,0.348,1.328,0.522,1.977c0.142,0.506,0.285,1.012,0.427,1.518
			c0.237,0.901,0.474,1.803,0.712,2.689c0.174,0.617,0.348,1.234,0.506,1.85c0.206,0.775,0.411,1.566,0.617,2.356
			c0.174,0.617,0.348,1.234,0.506,1.85c0.174,0.648,0.348,1.281,0.506,1.929c0.095,0.364,0.174,0.712,0.237,1.075
			c0.063,0.38-0.111,0.68-0.348,0.949c-0.332,0.364-0.68,0.712-1.044,1.107c-0.158-0.285-0.285-0.522-0.411-0.759
			c-0.443-0.87-0.886-1.724-1.328-2.594c-0.506-0.996-1.012-1.993-1.518-2.989c-0.221-0.427-0.459-0.854-0.68-1.281
			c-0.237-0.459-0.459-0.933-0.696-1.408c-0.269-0.554-0.554-1.107-0.838-1.661c-0.332-0.648-0.664-1.297-0.996-1.945
			c-0.165-0.33-0.33-0.487-0.56-0.487c-0.057,0-0.117,0.009-0.183,0.028c-0.127,0.032-0.253,0.127-0.364,0.221
			c-1.376,1.218-2.752,2.435-4.128,3.653c-0.981,0.87-1.961,1.74-2.942,2.625c-0.158,0.142-0.206,0.316-0.19,0.538
			c0.047,0.506,0.095,1.012,0.127,1.502c0.079,0.996,0.174,2.008,0.253,3.005c0.016,0.253,0.063,0.522,0.079,0.775
			c0.047,0.585-0.206,0.933-0.585,1.234c-0.348-0.965-0.696-1.882-1.028-2.799c-0.316-0.838-0.601-1.692-0.933-2.515
			c-0.269-0.648-0.775-1.075-1.439-1.313c-0.585-0.206-1.17-0.427-1.755-0.633c-0.459-0.174-0.917-0.332-1.376-0.506
			c-0.49-0.174-0.965-0.348-1.455-0.522c-0.158-0.063-0.332-0.127-0.506-0.19c0.174-0.237,0.38-0.427,0.648-0.538
			c0.15-0.071,0.304-0.091,0.461-0.091c0.156,0,0.314,0.02,0.472,0.028c0.743,0.063,1.471,0.127,2.214,0.19
			c0.807,0.063,1.613,0.127,2.42,0.221c0.061,0.008,0.119,0.012,0.175,0.012c0.291,0,0.514-0.107,0.726-0.359
			c1.139-1.313,2.325-2.609,3.479-3.906c0.917-1.028,1.819-2.04,2.72-3.068c0.269-0.3,0.221-0.743-0.158-0.933
			c-0.664-0.332-1.313-0.664-1.977-1.012c-0.633-0.332-1.265-0.648-1.914-0.981c-0.522-0.269-1.028-0.522-1.55-0.791
			c-0.664-0.348-1.344-0.68-2.008-1.028C8.428,9.594,7.779,9.278,7.147,8.946C6.372,8.55,5.581,8.155,4.806,7.744
			c-0.348-0.174-0.68-0.348-1.06-0.538c0.111-0.111,0.221-0.221,0.332-0.332c0.3-0.285,0.601-0.554,0.901-0.838
			c0.237-0.217,0.498-0.299,0.773-0.299c0.166,0,0.336,0.03,0.508,0.077c0.538,0.127,1.06,0.285,1.597,0.443
			c0.917,0.253,1.835,0.506,2.768,0.759c0.981,0.269,1.961,0.538,2.942,0.791c0.981,0.269,1.961,0.538,2.942,0.791
			c0.759,0.206,1.518,0.395,2.277,0.601c0.775,0.206,1.566,0.427,2.341,0.633c0.037,0.009,0.074,0.014,0.11,0.014
			c0.146,0,0.278-0.073,0.38-0.188c0.838-0.822,1.661-1.661,2.499-2.483c0.917-0.901,1.803-1.835,2.752-2.704
			c0.68-0.633,1.502-1.091,2.404-1.344c0.49-0.142,1.012-0.221,1.518-0.316C30.916,2.778,31.043,2.794,31.201,2.778 M31.201,0.302
			c-0.07,0-0.14,0.003-0.21,0.009L30.97,0.311c-0.136,0.003-0.377,0.009-0.673,0.071l-0.27,0.049
			C29.589,0.51,29.092,0.6,28.581,0.748c-1.255,0.352-2.438,1.014-3.4,1.909c-0.661,0.606-1.296,1.245-1.911,1.863
			c-0.296,0.297-0.591,0.595-0.89,0.889c-0.423,0.415-0.844,0.836-1.264,1.256c-0.157,0.157-0.314,0.314-0.472,0.471
			c-0.012-0.003-0.025-0.007-0.037-0.01c-0.397-0.108-0.793-0.216-1.186-0.321c-0.375-0.102-0.762-0.202-1.149-0.303
			c-0.372-0.097-0.744-0.194-1.116-0.294c-0.01-0.003-0.019-0.005-0.029-0.008c-0.961-0.248-1.948-0.519-2.902-0.78
			c-0.012-0.003-0.028-0.007-0.04-0.011c-0.962-0.248-1.949-0.519-2.904-0.781c-0.931-0.253-1.838-0.503-2.745-0.753L8.376,3.828
			C7.895,3.686,7.397,3.54,6.869,3.414C6.482,3.311,6.116,3.261,5.753,3.261c-0.922,0-1.768,0.328-2.446,0.95
			c-0.01,0.009-0.02,0.018-0.03,0.028C3.135,4.373,2.994,4.503,2.852,4.634C2.693,4.78,2.534,4.926,2.376,5.077
			C2.359,5.092,2.344,5.107,2.328,5.123L2.261,5.189L1.995,5.455C1.433,6.018,1.175,6.817,1.302,7.603
			C1.43,8.388,1.927,9.065,2.639,9.421c0.187,0.093,0.362,0.183,0.533,0.27c0.168,0.086,0.332,0.17,0.5,0.254
			c0.591,0.313,1.187,0.616,1.765,0.909l0.574,0.292c0.322,0.169,0.648,0.334,0.974,0.499c0.309,0.157,0.619,0.313,0.925,0.474
			c0.345,0.18,0.691,0.356,1.038,0.531c0.326,0.165,0.651,0.329,0.973,0.498c0.28,0.144,0.542,0.277,0.803,0.41
			c0.253,0.128,0.505,0.257,0.762,0.389l0.65,0.331c0.364,0.185,0.725,0.368,1.085,0.556c-0.38,0.427-0.755,0.848-1.12,1.257
			c-0.391,0.439-0.784,0.876-1.177,1.314c-0.601,0.669-1.219,1.356-1.827,2.048c-0.599-0.059-1.184-0.105-1.755-0.149l-1.093-0.094
			l-1.104-0.095c-0.029-0.002-0.058-0.004-0.086-0.006c-0.036-0.002-0.073-0.005-0.109-0.008c-0.124-0.01-0.293-0.023-0.487-0.023
			c-0.531,0-1.01,0.099-1.46,0.301c-0.644,0.277-1.198,0.728-1.646,1.339c-0.461,0.629-0.599,1.437-0.373,2.183
			c0.226,0.746,0.791,1.342,1.523,1.608c0.149,0.054,0.298,0.108,0.433,0.162c0.03,0.012,0.061,0.024,0.092,0.035
			c0.241,0.085,0.478,0.171,0.715,0.256c0.237,0.086,0.474,0.171,0.715,0.257c0.233,0.088,0.465,0.172,0.698,0.257
			c0.217,0.079,0.435,0.157,0.652,0.24c0.019,0.007,0.038,0.014,0.057,0.021c0.283,0.1,0.566,0.203,0.85,0.306
			c0.302,0.11,0.604,0.22,0.906,0.326c0.001,0,0.002,0.001,0.003,0.001c0.166,0.417,0.329,0.871,0.502,1.349
			c0.12,0.334,0.241,0.668,0.366,1c0.158,0.435,0.319,0.87,0.482,1.31c0.178,0.482,0.359,0.97,0.54,1.471
			c0.27,0.749,0.885,1.323,1.651,1.541c0.223,0.064,0.451,0.095,0.678,0.095c0.552,0,1.094-0.184,1.537-0.535
			c1.378-1.091,1.588-2.419,1.518-3.351c-0.011-0.167-0.031-0.338-0.051-0.51c-0.01-0.082-0.021-0.164-0.026-0.244
			c-0.001-0.014-0.002-0.028-0.003-0.042c-0.04-0.504-0.084-1.012-0.128-1.52c-0.042-0.49-0.085-0.98-0.124-1.467
			c-0.014-0.217-0.031-0.435-0.049-0.652c0.744-0.667,1.491-1.33,2.219-1.976l2.07-1.832l0.352-0.312
			c0.266,0.517,0.537,1.046,0.785,1.556c0.004,0.009,0.008,0.017,0.013,0.026c0.092,0.183,0.181,0.366,0.269,0.548
			c0.146,0.3,0.291,0.598,0.442,0.889c0.117,0.226,0.238,0.45,0.358,0.674c0.109,0.203,0.218,0.406,0.323,0.609l1.497,2.947
			l0.012,0.024c0.223,0.439,0.446,0.872,0.668,1.305c0.22,0.429,0.441,0.858,0.661,1.291c0.007,0.014,0.014,0.028,0.022,0.042
			c0.133,0.249,0.266,0.498,0.431,0.796c0.386,0.695,1.083,1.162,1.872,1.256c0.098,0.012,0.195,0.017,0.293,0.017
			c0.688,0,1.35-0.287,1.822-0.8c0.167-0.181,0.33-0.351,0.489-0.518c0.191-0.2,0.378-0.396,0.561-0.596
			c0.009-0.01,0.019-0.021,0.028-0.031c0.996-1.129,1.057-2.251,0.934-2.994c-0.073-0.42-0.161-0.82-0.279-1.274
			c-0.136-0.557-0.283-1.102-0.425-1.628l-0.087-0.325c-0.162-0.632-0.339-1.261-0.511-1.869c-0.206-0.791-0.41-1.575-0.613-2.343
			c-0.159-0.62-0.338-1.257-0.512-1.872c-0.235-0.877-0.47-1.769-0.705-2.662c-0.004-0.013-0.007-0.027-0.011-0.04l-0.423-1.504
			c-0.063-0.237-0.125-0.475-0.186-0.715c-0.018-0.071-0.037-0.143-0.055-0.215l0.19-0.19c1.22-1.235,2.452-2.467,3.674-3.674
			c0.582-0.582,1.23-1.286,1.722-2.188c0.601-1.059,0.99-2.186,1.157-3.351c0.025-0.184,0.041-0.35,0.057-0.523
			c0.009-0.096,0.018-0.195,0.03-0.297c0.088-0.745-0.167-1.49-0.693-2.025C32.499,0.566,31.862,0.302,31.201,0.302L31.201,0.302z"
			/>
	</g>
	<path fill="#000066" d="M31.954,15.897l-0.402,2.347c-0.045,0.264,0.063,0.531,0.28,0.689c0.123,0.089,0.268,0.134,0.414,0.134
		c0.112,0,0.225-0.027,0.328-0.081l2.108-1.108l2.108,1.108c0.237,0.125,0.525,0.104,0.742-0.053
		c0.217-0.158,0.326-0.425,0.28-0.689l-0.403-2.347l1.705-1.662c0.192-0.187,0.261-0.467,0.178-0.722
		c-0.083-0.255-0.303-0.441-0.569-0.479l-2.356-0.342l-1.054-2.135c-0.119-0.24-0.364-0.393-0.632-0.393s-0.513,0.152-0.632,0.393
		l-1.054,2.135l-2.356,0.342c-0.265,0.039-0.486,0.224-0.569,0.479c-0.083,0.255-0.014,0.535,0.178,0.722L31.954,15.897z"/>
	<path fill="#000066" d="M43.753,15.897l-0.402,2.347c-0.045,0.264,0.063,0.531,0.28,0.689c0.123,0.089,0.268,0.134,0.414,0.134
		c0.112,0,0.225-0.027,0.328-0.081l2.108-1.108l2.108,1.108c0.237,0.125,0.525,0.104,0.742-0.053
		c0.217-0.158,0.326-0.425,0.28-0.689l-0.403-2.347l1.705-1.662c0.192-0.187,0.261-0.467,0.178-0.722
		c-0.083-0.255-0.303-0.441-0.569-0.479l-2.356-0.342l-1.054-2.135c-0.119-0.24-0.364-0.393-0.632-0.393s-0.513,0.152-0.632,0.393
		l-1.054,2.135l-2.356,0.342c-0.265,0.039-0.486,0.224-0.569,0.479c-0.083,0.255-0.014,0.535,0.178,0.722L43.753,15.897z
		 M45.364,14.032c0.229-0.033,0.428-0.177,0.53-0.385l0.586-1.187l0.586,1.187c0.103,0.208,0.301,0.352,0.53,0.385l1.31,0.19
		l-0.948,0.924c-0.166,0.162-0.242,0.395-0.203,0.624l0.224,1.305l-1.172-0.616c-0.205-0.108-0.45-0.108-0.656,0l-1.172,0.616
		l0.224-1.305c0.039-0.228-0.037-0.462-0.203-0.623l-0.948-0.924L45.364,14.032z"/>
</g>
</svg>
