<?xml version="1.0" standalone="no"?>
<!DOCTYPE svg PUBLIC "-//W3C//DTD SVG 1.1//EN" "http://www.w3.org/Graphics/SVG/1.1/DTD/svg11.dtd" >
<svg xmlns="http://www.w3.org/2000/svg" xmlns:xlink="http://www.w3.org/1999/xlink" version="1.1">
<metadata>
Created by FontForge 20170910 at Tue Feb 19 12:35:58 2008
 By Jimmy Wärting
Berthold first published Akzidenz-Grotesk in 1896. The design originates from Royal Grotesk light by Ferdinand Theinhardt who also supplied the regular, medium and bold weights. Throughout the years, Berthold has expanded this extremely popular and versatile family. AG Super was developed in 1968 by Guenter Gerhard Lange and is an excellent choice for headlines. In 2001, Guenter Gerhard Lange added more weights for Berthold including Super Italic and Extra Bold italic.
</metadata>
<defs>
<font id="AkzidenzGroteskPro-BoldIt" horiz-adv-x="604" >
  <font-face 
    font-family="Akzidenz-Grotesk Pro Bold"
    font-weight="700"
    font-style="italic"
    font-stretch="normal"
    units-per-em="1000"
    panose-1="2 0 8 3 6 0 0 9 0 4"
    ascent="750"
    descent="-250"
    x-height="515"
    cap-height="706"
    bbox="-196 -260 1155 998"
    underline-thickness="50"
    underline-position="-100"
    slope="-13"
    stemh="117"
    stemv="176"
    unicode-range="U+0020-FB02"
  />
<missing-glyph horiz-adv-x="500" 
d="M0 0v706h500v-706h-500zM250 401l170 255h-340zM280 353l170 -258v516zM80 50h340l-170 258zM50 611v-516l170 258z" />
    <glyph glyph-name="fi" unicode="fi" horiz-adv-x="625" 
d="M649 706l-26 -117h-155l27 117h154zM606 515l-117 -515h-155l117 515h155zM433 710l-22 -102h-45c-53 0 -63 -17 -77 -90h92l-22 -93h-91l-96 -425h-154l94 425h-71l21 93h73l12 56c26 120 100 151 185 151c42 0 93 -14 101 -15z" />
    <glyph glyph-name="fl" unicode="fl" horiz-adv-x="625" 
d="M647 706l-158 -706h-154l157 706h155zM433 710l-22 -102h-45c-53 0 -63 -17 -77 -90h92l-22 -93h-91l-96 -425h-154l94 425h-71l21 93h73l12 56c26 120 100 151 185 151c42 0 93 -14 101 -15z" />
    <glyph glyph-name=".notdef" horiz-adv-x="500" 
d="M0 0v706h500v-706h-500zM250 401l170 255h-340zM280 353l170 -258v516zM80 50h340l-170 258zM50 611v-516l170 258z" />
    <glyph glyph-name="space" unicode=" " horiz-adv-x="292" 
 />
    <glyph glyph-name="exclam" unicode="!" horiz-adv-x="292" 
d="M340 706l-49 -218l-102 -244h-65l8 244l50 218h158zM215 161l-36 -161h-158l36 161h158z" />
    <glyph glyph-name="quotedbl" unicode="&#x22;" horiz-adv-x="318" 
d="M395 743l-103 -304h-37l37 304h103zM233 743l-103 -304h-37l37 304h103z" />
    <glyph glyph-name="numbersign" unicode="#" horiz-adv-x="667" 
d="M669 529l-22 -124h-109l-28 -95h97l-21 -124h-116l-59 -186h-126l60 186h-99l-59 -186h-124l58 186h-94l22 124h112l29 95h-100l22 124h117l56 177h124l-56 -177h100l55 177h125l-55 -177h91zM414 405h-100l-29 -95h99z" />
    <glyph glyph-name="dollar" unicode="$" horiz-adv-x="667" 
d="M666 575l-128 -87c-34 48 -55 54 -94 66l-40 -143c110 -25 205 -81 205 -201c0 -21 -4 -64 -34 -110c-73 -113 -223 -116 -254 -116h-33l-28 -97h-58l28 104c-142 22 -202 110 -217 125l139 83c36 -50 68 -59 116 -71l43 159c-82 25 -201 62 -201 192c0 26 3 73 45 124
c66 80 163 92 223 92c21 0 37 -1 46 -2l16 55h56l-17 -64c120 -27 162 -77 187 -109zM351 428l35 133c-52 0 -108 -17 -108 -69c0 -42 43 -55 73 -64zM366 272l-41 -149c27 0 114 10 114 80c0 42 -39 57 -73 69z" />
    <glyph glyph-name="percent" unicode="%" horiz-adv-x="833" 
d="M700 678l-461 -678h-86l461 678h86zM53 402c0 98 56 285 191 285c108 0 135 -94 135 -164c0 -124 -75 -279 -195 -279c-68 0 -131 52 -131 158zM149 371c0 -26 7 -53 36 -53c63 0 99 186 99 235c0 40 -15 61 -38 61c-57 0 -97 -168 -97 -243zM474 148
c0 141 82 285 191 285c108 0 135 -94 135 -164c0 -124 -75 -279 -195 -279c-85 0 -131 67 -131 158zM570 117c0 -26 7 -53 36 -53c63 0 99 186 99 235c0 40 -15 61 -38 61c-57 0 -97 -168 -97 -243z" />
    <glyph glyph-name="ampersand" unicode="&#x26;" horiz-adv-x="708" 
d="M550 353l113 -46c-48 -95 -68 -117 -120 -177c8 -8 28 -27 62 -27c9 0 20 2 40 7l-26 -110c-24 -2 -54 -3 -79 -3c-65 0 -90 28 -106 45c-42 -29 -103 -56 -190 -56c-146 0 -227 74 -227 191c0 131 111 204 227 251c-10 35 -21 68 -21 102c0 97 87 182 199 182
c119 0 167 -84 167 -148c0 -21 -6 -60 -41 -100c-36 -41 -84 -63 -132 -85c19 -45 38 -89 62 -135c37 44 46 57 72 109zM377 480c20 10 88 32 88 82c0 26 -23 46 -48 46c-39 0 -56 -29 -56 -55c0 -15 6 -39 16 -73zM371 145c-33 60 -60 119 -84 178
c-96 -41 -115 -97 -115 -132c0 -30 16 -86 94 -86c53 0 90 30 105 40z" />
    <glyph glyph-name="quotesingle" unicode="'" horiz-adv-x="156" 
d="M233 743l-103 -304h-37l37 304h103z" />
    <glyph glyph-name="parenleft" unicode="(" horiz-adv-x="335" 
d="M404 804l49 -68c-81 -61 -133 -110 -175 -166c-73 -98 -114 -225 -114 -351c0 -120 33 -231 97 -319l-68 -64c-34 42 -45 57 -63 83c-67 98 -99 198 -99 311c0 132 40 247 120 354c66 89 145 157 253 220z" />
    <glyph glyph-name="parenright" unicode=")" horiz-adv-x="335" 
d="M76 741l68 64c34 -41 46 -56 64 -82c66 -98 98 -198 98 -311c0 -43 -5 -87 -14 -129c-18 -84 -50 -152 -106 -226c-66 -89 -143 -156 -252 -220l-50 68c83 62 133 110 175 166c73 99 114 226 114 351c0 123 -33 232 -97 319z" />
    <glyph glyph-name="asterisk" unicode="*" horiz-adv-x="411" 
d="M448 496l-104 -11l42 -89l-97 -47l-46 97l-79 -69l-71 81l74 65l-89 50l52 94l93 -51l23 103l105 -24l-23 -103l109 11z" />
    <glyph glyph-name="plus" unicode="+" horiz-adv-x="724" 
d="M658 390l-29 -130h-187l-46 -204h-167l47 204h-183l30 130h182l47 201h166l-47 -201h187z" />
    <glyph glyph-name="comma" unicode="," horiz-adv-x="250" 
d="M15 162h159l-25 -111c-28 -126 -94 -194 -213 -227l17 73c54 33 63 45 85 103h-60z" />
    <glyph glyph-name="hyphen" unicode="-" horiz-adv-x="376" 
d="M358 380l-33 -143h-299l33 143h299z" />
    <glyph glyph-name="period" unicode="." horiz-adv-x="250" 
d="M175 165l-37 -165h-158l37 165h158z" />
    <glyph glyph-name="slash" unicode="/" horiz-adv-x="458" 
d="M553 706l-480 -706h-143l481 706h142z" />
    <glyph glyph-name="zero" unicode="0" horiz-adv-x="562" 
d="M551 441c0 -135 -81 -455 -311 -455c-33 0 -210 12 -210 248c0 175 96 461 308 461c80 0 213 -49 213 -254zM398 476c0 53 -11 101 -60 101c-82 0 -154 -254 -154 -391c0 -58 23 -82 58 -82c91 0 156 266 156 372z" />
    <glyph glyph-name="one" unicode="1" horiz-adv-x="562" 
d="M472 678l-153 -678h-161l112 494c-66 -16 -84 -17 -152 -17l24 109c82 1 152 7 209 92h121z" />
    <glyph glyph-name="two" unicode="2" horiz-adv-x="562" 
d="M476 0h-487l24 106l291 239c28 23 94 79 94 142c0 47 -31 85 -80 85c-54 0 -93 -48 -93 -132c0 -8 0 -17 1 -26l-149 18c2 135 82 263 248 263c108 0 229 -65 229 -207c0 -99 -81 -182 -157 -237l-171 -124h279z" />
    <glyph glyph-name="three" unicode="3" horiz-adv-x="562" 
d="M0 224l163 17c-1 -4 -5 -24 -5 -39c0 -52 38 -94 89 -94c86 0 99 81 99 107c0 45 -29 80 -82 80c-7 0 -14 0 -22 -1l22 104c14 -3 22 -4 37 -4c76 0 102 63 102 112c0 16 -1 71 -72 71c-85 0 -93 -96 -94 -109l-155 18c0 92 94 209 251 209c149 0 231 -98 231 -191
c0 -74 -44 -129 -133 -156c57 -30 87 -80 87 -143c0 -114 -108 -220 -271 -220c-173 0 -248 103 -248 217c0 9 1 16 1 22z" />
    <glyph glyph-name="four" unicode="4" horiz-adv-x="562" 
d="M552 279l-26 -113h-99l-38 -166h-158l38 166h-285l30 128l344 384h185l-90 -399h99zM357 530l-222 -251h161z" />
    <glyph glyph-name="five" unicode="5" horiz-adv-x="562" 
d="M536 678l-29 -126h-267l-30 -117c22 15 51 36 112 36c102 0 198 -61 198 -202c0 -113 -94 -283 -285 -283c-149 0 -226 92 -226 226l161 7s-1 -23 -1 -26c0 -42 26 -83 74 -83c53 0 110 62 110 153c0 75 -46 98 -80 98c-40 0 -70 -29 -90 -60l-136 23l85 354h404z" />
    <glyph glyph-name="six" unicode="6" horiz-adv-x="562" 
d="M562 514l-150 -20c-5 22 -9 80 -67 80c-73 0 -122 -110 -131 -181c26 30 59 67 127 67c92 0 176 -80 176 -194c0 -107 -81 -281 -256 -281c-151 0 -219 140 -219 276c0 167 92 434 327 434c143 0 182 -105 193 -181zM355 252c0 9 0 93 -62 93c-56 0 -91 -90 -91 -143
c0 -64 33 -95 62 -95c45 0 91 66 91 145z" />
    <glyph glyph-name="seven" unicode="7" horiz-adv-x="562" 
d="M88 678h498l-27 -120c-34 -36 -67 -72 -99 -111c-110 -136 -179 -284 -199 -338c-14 -36 -22 -72 -31 -109h-180c13 50 34 129 95 237c69 121 147 210 238 314h-323z" />
    <glyph glyph-name="eight" unicode="8" horiz-adv-x="562" 
d="M419 359c46 -25 101 -55 101 -149c0 -108 -86 -225 -258 -225c-104 0 -231 60 -231 201c0 115 70 172 160 187c-8 7 -79 34 -79 129c0 92 81 193 223 193c131 0 207 -76 207 -179c0 -99 -68 -141 -123 -157zM389 510c0 46 -22 78 -57 78c-50 0 -72 -62 -72 -104
c0 -56 34 -78 58 -78c47 0 71 58 71 104zM354 204c0 36 -19 87 -77 87c-62 0 -88 -67 -88 -116c0 -68 53 -83 77 -83c46 0 88 43 88 112z" />
    <glyph glyph-name="nine" unicode="9" horiz-adv-x="562" 
d="M14 165l151 20c4 -27 10 -79 67 -79c80 0 122 122 131 180c-27 -29 -60 -66 -127 -66c-108 0 -176 90 -176 194c0 100 72 280 256 280c144 0 219 -129 219 -276c0 -115 -63 -433 -327 -433c-139 0 -180 101 -194 180zM375 478c0 65 -34 94 -62 94c-48 0 -91 -67 -91 -149
c0 -18 4 -89 61 -89c55 0 92 88 92 144z" />
    <glyph glyph-name="colon" unicode=":" horiz-adv-x="292" 
d="M294 515l-35 -158h-158l35 158h158zM215 165l-36 -165h-159l37 165h158z" />
    <glyph glyph-name="semicolon" unicode=";" horiz-adv-x="292" 
d="M298 515l-37 -160h-157l37 160h157zM57 162h159l-25 -111c-28 -126 -94 -194 -213 -227l17 73c54 33 63 45 85 103h-60z" />
    <glyph glyph-name="less" unicode="&#x3c;" horiz-adv-x="724" 
d="M653 621l-41 -167l-345 -133l283 -145l-37 -155l-411 236l37 153z" />
    <glyph glyph-name="equal" unicode="=" horiz-adv-x="724" 
d="M697 483l-30 -131h-526l30 131h526zM647 266l-30 -131h-526l30 131h526z" />
    <glyph glyph-name="greater" unicode="&#x3e;" horiz-adv-x="724" 
d="M629 381l-37 -152l-514 -211l41 166l345 133l-283 145l37 155z" />
    <glyph glyph-name="question" unicode="?" horiz-adv-x="562" 
d="M304 245h-140c18 98 74 119 194 193c31 19 67 42 67 84c0 25 -20 66 -82 66c-90 0 -108 -81 -114 -105l-155 36c34 113 113 197 279 197c109 0 243 -49 243 -180c0 -93 -61 -146 -131 -178c-60 -28 -138 -52 -161 -113zM297 158l-35 -158h-160l37 158h158z" />
    <glyph glyph-name="at" unicode="@" horiz-adv-x="842" 
d="M747 102l44 -62c-56 -50 -80 -68 -124 -94c-80 -46 -163 -69 -255 -69c-209 0 -371 130 -371 345c0 268 216 492 475 492c175 0 290 -110 290 -279c0 -188 -123 -367 -250 -367c-49 0 -82 25 -89 68c-38 -45 -81 -68 -128 -68c-82 0 -133 61 -133 159
c0 156 108 297 227 297c47 0 75 -16 103 -60l12 40h90l-39 -159c-25 -103 -34 -147 -34 -167c0 -17 7 -26 19 -26c16 0 37 16 59 43c48 60 79 152 79 234c0 127 -82 205 -216 205c-203 0 -383 -191 -383 -405c0 -177 126 -273 292 -273c117 0 232 50 332 146zM309 238
c0 -51 23 -80 61 -80c62 0 129 100 129 193c0 52 -25 84 -64 84c-68 0 -126 -107 -126 -197z" />
    <glyph glyph-name="A" unicode="A" horiz-adv-x="708" 
d="M635 0h-172l-9 140h-260l-78 -140h-185l431 706h198zM446 268l-19 290l-161 -290h180z" />
    <glyph glyph-name="B" unicode="B" horiz-adv-x="708" 
d="M159 706h318c86 0 202 -30 202 -167c0 -87 -51 -145 -144 -167c67 -29 119 -68 119 -157c0 -151 -139 -215 -248 -215h-407zM301 579l-34 -151h131c56 0 109 17 109 86c0 53 -42 65 -78 65h-128zM238 300l-38 -170h153c54 0 118 14 118 98c0 62 -51 72 -86 72h-147z" />
    <glyph glyph-name="C" unicode="C" horiz-adv-x="729" 
d="M738 524l-169 -38c-10 31 -36 101 -128 101c-113 0 -200 -125 -200 -277c0 -133 74 -182 134 -182c77 0 142 71 167 139l147 -82c-43 -76 -127 -203 -318 -203c-172 0 -317 113 -317 327c0 236 164 415 383 415c168 0 265 -88 301 -200z" />
    <glyph glyph-name="D" unicode="D" horiz-adv-x="750" 
d="M161 706h273c196 0 291 -106 291 -280c0 -175 -86 -341 -248 -399c-53 -19 -113 -27 -228 -27h-248zM302 571l-98 -435h77c59 0 118 4 164 44c36 32 100 114 100 243c0 126 -76 148 -154 148h-89z" />
    <glyph glyph-name="E" unicode="E" horiz-adv-x="667" 
d="M669 706l-31 -135h-335l-31 -137h323l-29 -129h-323l-39 -171h385l-29 -134h-560l161 706h508z" />
    <glyph glyph-name="F" unicode="F" horiz-adv-x="625" 
d="M670 706l-29 -132h-335l-35 -154h323l-31 -135h-323l-65 -285h-175l161 706h509z" />
    <glyph glyph-name="G" unicode="G" horiz-adv-x="812" 
d="M751 382l-85 -382h-158l13 59c-44 -41 -84 -78 -177 -78c-160 0 -291 113 -291 320c0 214 141 424 396 424c127 0 268 -59 303 -198l-168 -44c-18 56 -45 103 -136 103c-136 0 -207 -154 -207 -283c0 -103 48 -187 157 -187c77 0 139 47 161 131h-147l30 135h309z" />
    <glyph glyph-name="H" unicode="H" horiz-adv-x="750" 
d="M774 706l-160 -706h-176l71 313h-263l-71 -313h-175l161 706h175l-58 -257h262l58 257h176z" />
    <glyph glyph-name="I" unicode="I" horiz-adv-x="313" 
d="M336 706l-158 -706h-176l158 706h176z" />
    <glyph glyph-name="J" unicode="J" horiz-adv-x="396" 
d="M245 706h175l-118 -527c-30 -135 -101 -179 -223 -179h-136l34 147h44c67 0 102 15 119 92z" />
    <glyph glyph-name="K" unicode="K" horiz-adv-x="729" 
d="M778 706l-309 -282l204 -424h-185l-144 313l-135 -123l-42 -190h-168l159 706h167l-65 -290l308 290h210z" />
    <glyph glyph-name="L" unicode="L" horiz-adv-x="562" 
d="M506 143l-33 -143h-472l159 706h175l-127 -563h298z" />
    <glyph glyph-name="M" unicode="M" horiz-adv-x="896" 
d="M917 706l-159 -706h-164l126 546l-264 -546h-148l-20 554l-121 -554h-165l158 706h261c0 -40 12 -463 12 -463l219 463h265z" />
    <glyph glyph-name="N" unicode="N" horiz-adv-x="708" 
d="M733 706l-161 -706h-172l-139 453l-100 -453h-162l162 706h174l141 -455l96 455h161z" />
    <glyph glyph-name="O" unicode="O" horiz-adv-x="792" 
d="M769 423c0 -167 -109 -440 -407 -440c-221 0 -314 129 -314 307c0 182 121 435 407 435c209 0 314 -136 314 -302zM593 424c0 94 -56 157 -151 157c-173 0 -216 -214 -216 -299c0 -99 63 -159 145 -159c148 0 222 175 222 301z" />
    <glyph glyph-name="P" unicode="P" horiz-adv-x="688" 
d="M159 706h307c127 0 230 -59 230 -211c0 -186 -152 -262 -285 -262h-183l-53 -233h-175zM307 580l-50 -220h132c71 0 130 48 130 129c0 72 -54 91 -104 91h-108z" />
    <glyph glyph-name="Q" unicode="Q" horiz-adv-x="812" 
d="M819 100l-64 -129c-69 0 -120 40 -169 78c-50 -32 -114 -66 -225 -66c-205 0 -313 118 -313 307c0 162 107 435 407 435c146 0 314 -81 314 -301c0 -113 -38 -195 -84 -271c69 -48 103 -48 134 -53zM593 424c0 93 -56 157 -151 157c-160 0 -216 -191 -216 -299
c0 -99 62 -159 144 -159c155 0 223 181 223 301z" />
    <glyph glyph-name="R" unicode="R" horiz-adv-x="708" 
d="M160 706h326c99 0 218 -43 218 -205c0 -114 -60 -189 -178 -221l115 -280h-192l-93 253h-123l-58 -253h-175zM307 577l-44 -193h148c94 0 119 70 119 113c0 56 -35 80 -104 80h-119z" />
    <glyph glyph-name="S" unicode="S" horiz-adv-x="667" 
d="M669 576l-146 -85c-20 80 -108 99 -162 99c-75 0 -100 -42 -100 -66c0 -38 36 -52 91 -71l75 -26c121 -42 192 -100 192 -207c0 -114 -99 -238 -306 -238c-181 0 -284 77 -329 163l155 97c3 -9 35 -119 177 -119c100 0 120 60 120 82c0 25 -15 49 -98 78l-101 35
c-44 15 -153 64 -153 182c0 105 87 224 292 224c165 0 241 -64 293 -148z" />
    <glyph glyph-name="T" unicode="T" horiz-adv-x="625" 
d="M683 706l-35 -137h-183l-128 -569h-177l128 569h-194l35 137h554z" />
    <glyph glyph-name="U" unicode="U" horiz-adv-x="729" 
d="M578 706h176l-107 -477c-43 -190 -173 -245 -313 -245c-194 0 -275 103 -275 219c0 30 8 77 15 110l88 393h177l-96 -430c-2 -8 -7 -30 -7 -54c0 -27 16 -87 105 -87c41 0 106 12 135 136z" />
    <glyph glyph-name="V" unicode="V" horiz-adv-x="667" 
d="M756 706l-373 -706h-206l-85 706h175l47 -516l257 516h185z" />
    <glyph glyph-name="W" unicode="W" horiz-adv-x="979" 
d="M1064 706l-352 -706h-200c2 61 10 407 12 456l-202 -456h-200l-23 706h170v-508l226 508h168c-1 -55 -8 -511 -8 -511l237 511h172z" />
    <glyph glyph-name="X" unicode="X" horiz-adv-x="708" 
d="M776 706l-308 -344l177 -362h-186l-112 236l-202 -236h-216l342 382l-161 324h189l94 -201l176 201h207z" />
    <glyph glyph-name="Y" unicode="Y" horiz-adv-x="667" 
d="M754 706l-333 -408l-67 -298h-175l71 320l-153 386h175l98 -254l185 254h199z" />
    <glyph glyph-name="Z" unicode="Z" horiz-adv-x="667" 
d="M698 706l-34 -145l-433 -424h365l-31 -137h-583l33 145l432 423h-340l32 138h559z" />
    <glyph glyph-name="bracketleft" unicode="[" horiz-adv-x="292" 
d="M398 779l-19 -84h-91l-174 -755h91l-19 -84h-224l213 923h223z" />
    <glyph glyph-name="backslash" unicode="\" horiz-adv-x="458" 
d="M389 0h-141l-155 706h143z" />
    <glyph glyph-name="bracketright" unicode="]" horiz-adv-x="292" 
d="M335 779l-213 -922h-223l19 84h91l174 754h-91l20 84h223z" />
    <glyph glyph-name="asciicircum" unicode="^" horiz-adv-x="724" 
d="M649 281h-162l-59 279l-180 -279h-178l302 425h156z" />
    <glyph glyph-name="underscore" unicode="_" horiz-adv-x="498" 
d="M419 -121l-25 -110h-520l26 110h519z" />
    <glyph glyph-name="grave" unicode="`" horiz-adv-x="313" 
d="M286 580h-94l-165 162h165z" />
    <glyph glyph-name="a" unicode="a" 
d="M480 0h-148c-2 8 -5 15 -5 24c0 6 6 28 9 48c-8 -18 -50 -87 -171 -87c-97 0 -155 58 -155 146c0 46 19 85 47 115c62 67 186 73 332 81c4 15 10 39 10 55c0 51 -58 52 -72 52c-57 0 -81 -32 -91 -73c0 0 -130 4 -154 5c28 107 96 166 264 166c158 0 205 -70 205 -135
c0 -27 0 -37 -10 -79l-60 -267c-3 -12 -4 -24 -4 -29c0 -4 1 -11 3 -22zM366 231h-15c-140 0 -186 -42 -186 -83c0 -10 1 -53 63 -53c71 0 120 48 138 136z" />
    <glyph glyph-name="b" unicode="b" horiz-adv-x="625" 
d="M155 706h157l-52 -226c46 29 81 50 138 50c142 0 181 -132 181 -218c0 -133 -97 -327 -271 -327c-54 0 -125 22 -145 72l-14 -57h-152zM200 207c0 -78 55 -102 88 -102c80 0 134 113 134 212c0 63 -37 98 -86 98c-73 0 -136 -109 -136 -208z" />
    <glyph glyph-name="c" unicode="c" horiz-adv-x="582" 
d="M566 356l-138 -30c-20 82 -77 85 -101 85c-89 0 -141 -105 -141 -187c0 -27 5 -115 105 -115c73 0 98 64 106 85l140 -43c-21 -46 -90 -166 -255 -166c-146 0 -255 99 -255 245c0 161 126 302 302 302c158 0 217 -105 237 -176z" />
    <glyph glyph-name="d" unicode="d" horiz-adv-x="625" 
d="M658 706l-160 -706h-154l7 36c-15 -12 -62 -50 -138 -50c-101 0 -184 77 -184 217c0 146 94 329 274 329c24 0 104 -5 145 -70l55 244h155zM411 309c0 61 -35 102 -86 102c-98 0 -141 -124 -141 -205c0 -82 42 -103 85 -103c95 0 142 120 142 206z" />
    <glyph glyph-name="e" unicode="e" 
d="M555 230h-375s-1 -12 -1 -21c0 -49 25 -105 105 -105c53 0 98 28 122 76l129 -45c-43 -72 -104 -150 -255 -150c-141 0 -251 89 -251 248c0 134 95 300 293 300c132 0 237 -75 237 -235c0 -23 -2 -46 -4 -68zM200 327h221v6c0 48 -35 92 -98 92c-65 0 -103 -47 -123 -98z
" />
    <glyph glyph-name="f" unicode="f" horiz-adv-x="333" 
d="M433 710l-22 -102h-45c-53 0 -63 -17 -77 -90h92l-22 -93h-91l-96 -425h-154l94 425h-71l21 93h73l12 56c26 120 100 151 185 151c42 0 93 -14 101 -15z" />
    <glyph glyph-name="g" unicode="g" horiz-adv-x="625" 
d="M606 515l-110 -485c-34 -151 -109 -224 -288 -224c-164 0 -237 75 -237 149c0 18 6 43 6 45h160c-4 -15 -5 -22 -5 -30c0 -60 83 -61 90 -61c104 0 119 95 131 159c-20 -17 -59 -51 -128 -51c-114 0 -195 78 -195 213c0 147 106 305 269 305c27 0 99 -5 146 -68l12 48
h149zM182 228c0 -49 25 -103 95 -103c124 0 132 184 132 193c0 21 -8 100 -91 100c-81 0 -136 -105 -136 -190z" />
    <glyph glyph-name="h" unicode="h" 
d="M162 706h155l-57 -252c19 21 66 73 149 73c98 0 143 -66 143 -133c0 -23 -7 -55 -8 -59l-78 -335h-154l62 274c8 36 13 55 13 72c0 36 -21 63 -61 63c-49 0 -87 -44 -104 -120l-66 -289h-155z" />
    <glyph glyph-name="i" unicode="i" horiz-adv-x="292" 
d="M316 706l-26 -117h-155l27 117h154zM273 515l-117 -515h-155l117 515h155z" />
    <glyph glyph-name="j" unicode="j" horiz-adv-x="313" 
d="M338 706l-27 -117h-155l27 117h155zM294 515l-121 -524c-22 -97 -58 -171 -218 -171c-24 0 -51 1 -75 2l29 124c15 -1 28 -1 38 -1c37 0 63 8 75 59l117 511h155z" />
    <glyph glyph-name="k" unicode="k" horiz-adv-x="583" 
d="M630 515l-234 -194l140 -321h-166l-94 226l-87 -72l-34 -154h-154l160 706h153l-80 -357l192 166h204z" />
    <glyph glyph-name="l" unicode="l" horiz-adv-x="292" 
d="M314 706l-158 -706h-154l157 706h155z" />
    <glyph glyph-name="m" unicode="m" horiz-adv-x="917" 
d="M119 515h156l-16 -72c55 77 124 87 162 87c61 0 105 -25 132 -81c24 32 72 81 157 81c81 0 149 -49 149 -137c0 -39 -13 -88 -15 -99l-65 -294h-156l67 289c7 31 12 53 12 66c0 19 -10 56 -61 56c-53 0 -85 -35 -103 -112l-70 -299h-155l70 306c6 25 9 38 9 52
c0 48 -43 54 -59 54c-51 0 -90 -44 -104 -102l-72 -310h-156z" />
    <glyph glyph-name="n" unicode="n" 
d="M119 515h154l-14 -62c18 20 66 75 150 75c108 0 142 -78 142 -134c0 -17 -6 -52 -8 -61l-76 -333h-154l67 304c1 6 6 27 6 48c0 49 -43 57 -59 57c-65 0 -93 -71 -104 -119l-67 -290h-154z" />
    <glyph glyph-name="o" unicode="o" horiz-adv-x="625" 
d="M581 291c0 -117 -87 -306 -303 -306c-181 0 -249 130 -249 247c0 128 98 301 303 301c139 0 249 -87 249 -242zM423 294c0 60 -27 118 -100 118c-77 0 -138 -82 -138 -186c0 -93 57 -119 103 -119c91 0 135 104 135 187z" />
    <glyph glyph-name="p" unicode="p" horiz-adv-x="625" 
d="M119 515h138l-11 -51c19 21 59 65 139 65c135 0 198 -110 198 -228c0 -129 -86 -315 -268 -315c-49 0 -116 17 -147 68l-55 -242h-154zM430 294c0 72 -31 125 -90 125c-106 0 -139 -136 -139 -213c0 -88 62 -109 96 -109c75 0 133 96 133 197z" />
    <glyph glyph-name="q" unicode="q" horiz-adv-x="625" 
d="M615 515l-159 -703h-155l49 221c-23 -17 -64 -48 -136 -48c-135 0 -183 125 -183 211c0 112 71 335 274 335c28 0 94 -1 146 -70l13 54h151zM414 306c0 80 -52 104 -88 104c-79 0 -139 -96 -139 -203c0 -57 20 -105 86 -105c118 0 141 170 141 204z" />
    <glyph glyph-name="r" unicode="r" horiz-adv-x="396" 
d="M116 515h153l-16 -75c23 34 82 83 152 83c10 0 21 -1 31 -2l-31 -134c-60 -1 -129 -11 -166 -66c-15 -23 -22 -40 -33 -88l-53 -233h-154z" />
    <glyph glyph-name="s" unicode="s" horiz-adv-x="542" 
d="M521 407l-116 -57c-24 38 -57 69 -127 69c-43 0 -66 -17 -66 -39c0 -23 14 -30 67 -46l53 -16c79 -24 154 -64 154 -151c0 -79 -74 -183 -257 -183c-43 0 -177 1 -251 136l130 64c11 -29 47 -76 132 -76c9 0 84 1 84 46c0 27 -27 36 -69 49l-53 17
c-57 18 -151 52 -151 151c0 75 68 162 229 162c159 0 216 -78 241 -126z" />
    <glyph glyph-name="t" unicode="t" horiz-adv-x="354" 
d="M367 518l-21 -93h-89l-49 -215c-5 -22 -7 -35 -7 -45c0 -27 10 -46 58 -46h30l-27 -118c-45 -6 -68 -8 -90 -8c-73 0 -135 28 -136 113c0 17 1 28 8 58l58 261h-70l21 93h69l33 143h156l-33 -143h89z" />
    <glyph glyph-name="u" unicode="u" 
d="M583 515l-116 -515h-154l15 68c-19 -21 -64 -72 -148 -72c-77 0 -144 46 -144 127c0 15 2 34 9 66l73 326h155l-68 -303c-2 -8 -4 -22 -4 -36c0 -30 13 -60 59 -60c65 0 93 58 106 118l63 281h154z" />
    <glyph glyph-name="v" unicode="v" horiz-adv-x="521" 
d="M570 515l-301 -515h-160l-61 515h154l21 -352l175 352h172z" />
    <glyph glyph-name="w" unicode="w" horiz-adv-x="792" 
d="M838 515l-283 -515h-154c-1 35 -5 316 -5 316l-158 -316h-154l-32 515h142c1 -51 8 -336 8 -336l163 336h144c0 -44 8 -336 8 -336l158 336h163z" />
    <glyph glyph-name="x" unicode="x" horiz-adv-x="521" 
d="M566 515l-227 -253l114 -262h-162l-56 156l-129 -156h-173l241 272l-101 243h162l48 -132l106 132h177z" />
    <glyph glyph-name="y" unicode="y" horiz-adv-x="500" 
d="M563 515l-336 -572c-46 -79 -86 -128 -218 -128c-26 0 -52 1 -77 4l27 125c18 -3 35 -7 53 -7c42 0 62 15 80 38l-53 540h156l16 -360l181 360h171z" />
    <glyph glyph-name="z" unicode="z" horiz-adv-x="521" 
d="M532 515l-25 -110l-312 -291h259l-26 -114h-458l25 114l314 291h-249l25 110h447z" />
    <glyph glyph-name="braceleft" unicode="{" horiz-adv-x="317" 
d="M420 782l-19 -84h-16c-56 0 -64 -32 -82 -108l-33 -142c-22 -95 -46 -122 -114 -136c37 -13 57 -41 57 -81c0 -20 -2 -42 -8 -67l-28 -120c-10 -44 -12 -53 -12 -66c0 -27 17 -43 49 -43h11l-19 -83h-64c-72 0 -114 39 -114 107c0 19 3 38 13 80l31 129c4 17 7 40 7 50
c0 36 -18 51 -69 56l20 87c73 1 92 19 111 106l33 148c29 129 58 167 182 167h64z" />
    <glyph glyph-name="bar" unicode="|" horiz-adv-x="256" 
d="M303 779l-213 -922h-133l213 922h133z" />
    <glyph glyph-name="braceright" unicode="}" horiz-adv-x="317" 
d="M-104 -148l19 84h17c56 0 63 32 81 108l33 142c22 95 47 122 115 136c-37 13 -58 41 -58 81c0 20 3 42 9 67l27 120c10 44 12 53 12 66c0 27 -16 43 -48 43h-11l18 83h65c72 0 113 -39 113 -107c0 -19 -3 -38 -13 -80l-30 -129c-4 -17 -8 -40 -8 -50c0 -36 19 -51 70 -56
l-20 -87c-73 -1 -91 -20 -111 -106l-34 -148c-29 -129 -56 -167 -181 -167h-65z" />
    <glyph glyph-name="asciitilde" unicode="~" horiz-adv-x="724" 
d="M619 439l46 -131c-63 -73 -113 -99 -169 -99c-32 0 -62 10 -120 38l-35 17c-44 21 -72 31 -102 31c-37 0 -59 -11 -106 -68l-10 -12l-47 133c59 72 98 99 164 99c37 0 62 -10 114 -34l61 -28c45 -21 58 -25 78 -25c42 0 72 17 126 79z" />
    <glyph glyph-name="Adieresis" unicode="&#xc4;" horiz-adv-x="708" 
d="M635 0h-172l-9 140h-260l-78 -140h-185l431 706h198zM446 268l-19 290l-161 -290h180zM715 897l-26 -114h-161l25 114h162zM455 897l-26 -114h-161l25 114h162z" />
    <glyph glyph-name="Aring" unicode="&#xc5;" horiz-adv-x="708" 
d="M635 0h-172l-9 140h-260l-78 -140h-185l431 706h198zM446 268l-19 290l-161 -290h180zM591 862c0 -41 -32 -85 -103 -85c-56 0 -103 33 -103 85c0 32 25 85 103 85c79 0 103 -53 103 -85zM534 862c0 14 -9 38 -47 38c-37 0 -46 -22 -46 -38c0 -18 12 -38 47 -38
c36 0 46 23 46 38z" />
    <glyph glyph-name="Ccedilla" unicode="&#xc7;" horiz-adv-x="729" 
d="M738 524l-169 -38c-10 31 -36 101 -128 101c-113 0 -200 -125 -200 -277c0 -133 74 -181 134 -181c77 0 140 71 167 139l147 -82c-43 -76 -126 -200 -324 -204l-33 -51c24 4 31 5 44 5c35 0 61 -20 61 -53c0 -10 -3 -28 -19 -48c-33 -41 -84 -48 -131 -48
c-23 0 -45 1 -67 3l10 45c14 -2 26 -2 36 -2c18 0 48 10 48 29c0 10 -10 19 -26 19c-22 0 -44 -7 -49 -9l8 36l67 79c-146 22 -260 132 -260 322c0 236 164 415 383 415c168 0 265 -88 301 -200z" />
    <glyph glyph-name="Eacute" unicode="&#xc9;" horiz-adv-x="667" 
d="M669 706l-31 -135h-335l-31 -137h323l-29 -129h-323l-39 -171h385l-29 -134h-560l161 706h508zM606 911l-162 -131h-101l76 131h187z" />
    <glyph glyph-name="Ntilde" unicode="&#xd1;" horiz-adv-x="708" 
d="M733 706l-161 -706h-172l-139 453l-100 -453h-162l162 706h174l141 -455l96 455h161zM599 902h75c-32 -104 -86 -136 -132 -136c-33 0 -61 15 -75 23l-26 13c-18 9 -32 13 -45 13c-29 0 -39 -24 -46 -44h-73c7 28 39 135 126 135c21 0 43 -3 81 -21l19 -9
c20 -10 35 -14 50 -14c26 0 41 20 46 40z" />
    <glyph glyph-name="Odieresis" unicode="&#xd6;" horiz-adv-x="792" 
d="M769 423c0 -167 -109 -440 -407 -440c-221 0 -314 129 -314 307c0 182 121 435 407 435c209 0 314 -136 314 -302zM593 424c0 94 -56 157 -151 157c-173 0 -216 -214 -216 -299c0 -99 63 -159 145 -159c148 0 222 175 222 301zM731 897l-26 -114h-161l25 114h162z
M471 897l-26 -114h-161l25 114h162z" />
    <glyph glyph-name="Udieresis" unicode="&#xdc;" horiz-adv-x="729" 
d="M578 706h176l-107 -477c-43 -190 -173 -245 -313 -245c-194 0 -275 103 -275 219c0 30 8 77 15 110l88 393h177l-96 -430c-2 -8 -7 -30 -7 -54c0 -27 16 -87 105 -87c41 0 106 12 135 136zM704 897l-26 -114h-161l25 114h162zM444 897l-26 -114h-161l25 114h162z" />
    <glyph glyph-name="aacute" unicode="&#xe1;" 
d="M480 0h-148c-2 8 -5 15 -5 24c0 6 6 28 9 48c-8 -18 -50 -87 -171 -87c-97 0 -155 58 -155 146c0 46 19 85 47 115c62 67 186 73 332 81c4 15 10 39 10 55c0 51 -58 52 -72 52c-57 0 -81 -32 -91 -73c0 0 -130 4 -154 5c28 107 96 166 264 166c158 0 205 -70 205 -135
c0 -27 0 -37 -10 -79l-60 -267c-3 -12 -4 -24 -4 -29c0 -4 1 -11 3 -22zM366 231h-15c-140 0 -186 -42 -186 -83c0 -10 1 -53 63 -53c71 0 120 48 138 136zM539 742l-165 -162h-94l94 162h165z" />
    <glyph glyph-name="agrave" unicode="&#xe0;" 
d="M480 0h-148c-2 8 -5 15 -5 24c0 6 6 28 9 48c-8 -18 -50 -87 -171 -87c-97 0 -155 58 -155 146c0 46 19 85 47 115c62 67 186 73 332 81c4 15 10 39 10 55c0 51 -58 52 -72 52c-57 0 -81 -32 -91 -73c0 0 -130 4 -154 5c28 107 96 166 264 166c158 0 205 -70 205 -135
c0 -27 0 -37 -10 -79l-60 -267c-3 -12 -4 -24 -4 -29c0 -4 1 -11 3 -22zM366 231h-15c-140 0 -186 -42 -186 -83c0 -10 1 -53 63 -53c71 0 120 48 138 136zM435 580h-94l-165 162h165z" />
    <glyph glyph-name="acircumflex" unicode="&#xe2;" 
d="M480 0h-148c-2 8 -5 15 -5 24c0 6 6 28 9 48c-8 -18 -50 -87 -171 -87c-97 0 -155 58 -155 146c0 46 19 85 47 115c62 67 186 73 332 81c4 15 10 39 10 55c0 51 -58 52 -72 52c-57 0 -81 -32 -91 -73c0 0 -130 4 -154 5c28 107 96 166 264 166c158 0 205 -70 205 -135
c0 -27 0 -37 -10 -79l-60 -267c-3 -12 -4 -24 -4 -29c0 -4 1 -11 3 -22zM366 231h-15c-140 0 -186 -42 -186 -83c0 -10 1 -53 63 -53c71 0 120 48 138 136zM537 580h-110l-47 74l-70 -74h-138l126 126h169z" />
    <glyph glyph-name="adieresis" unicode="&#xe4;" 
d="M480 0h-148c-2 8 -5 15 -5 24c0 6 6 28 9 48c-8 -18 -50 -87 -171 -87c-97 0 -155 58 -155 146c0 46 19 85 47 115c62 67 186 73 332 81c4 15 10 39 10 55c0 51 -58 52 -72 52c-57 0 -81 -32 -91 -73c0 0 -130 4 -154 5c28 107 96 166 264 166c158 0 205 -70 205 -135
c0 -27 0 -37 -10 -79l-60 -267c-3 -12 -4 -24 -4 -29c0 -4 1 -11 3 -22zM366 231h-15c-140 0 -186 -42 -186 -83c0 -10 1 -53 63 -53c71 0 120 48 138 136zM583 694l-26 -116h-163l26 116h163zM340 694l-24 -116h-162l25 116h161z" />
    <glyph glyph-name="atilde" unicode="&#xe3;" 
d="M480 0h-148c-2 8 -5 15 -5 24c0 6 6 28 9 48c-8 -18 -50 -87 -171 -87c-97 0 -155 58 -155 146c0 46 19 85 47 115c62 67 186 73 332 81c4 15 10 39 10 55c0 51 -58 52 -72 52c-57 0 -81 -32 -91 -73c0 0 -130 4 -154 5c28 107 96 166 264 166c158 0 205 -70 205 -135
c0 -27 0 -37 -10 -79l-60 -267c-3 -12 -4 -24 -4 -29c0 -4 1 -11 3 -22zM366 231h-15c-140 0 -186 -42 -186 -83c0 -10 1 -53 63 -53c71 0 120 48 138 136zM475 720h72c-34 -129 -91 -139 -124 -139c-26 0 -44 9 -66 21l-23 13c-17 9 -29 14 -40 14c-22 0 -33 -22 -41 -47
h-69c6 41 34 139 117 139c20 0 35 -2 69 -20l19 -10c20 -11 33 -17 46 -17c22 0 33 23 40 46z" />
    <glyph glyph-name="aring" unicode="&#xe5;" 
d="M480 0h-148c-2 8 -5 15 -5 24c0 6 6 28 9 48c-8 -18 -50 -87 -171 -87c-97 0 -155 58 -155 146c0 46 19 85 47 115c62 67 186 73 332 81c4 15 10 39 10 55c0 51 -58 52 -72 52c-57 0 -81 -32 -91 -73c0 0 -130 4 -154 5c28 107 96 166 264 166c158 0 205 -70 205 -135
c0 -27 0 -37 -10 -79l-60 -267c-3 -12 -4 -24 -4 -29c0 -4 1 -11 3 -22zM366 231h-15c-140 0 -186 -42 -186 -83c0 -10 1 -53 63 -53c71 0 120 48 138 136zM469 673c0 -60 -48 -108 -108 -108c-58 0 -108 49 -108 108s50 108 107 108c61 0 109 -49 109 -108zM402 673
c0 23 -18 41 -41 41s-41 -19 -41 -41c0 -23 18 -41 41 -41s41 19 41 41z" />
    <glyph glyph-name="ccedilla" unicode="&#xe7;" horiz-adv-x="582" 
d="M566 356l-138 -30c-20 82 -77 85 -101 85c-89 0 -141 -105 -141 -187c0 -27 5 -116 105 -116c73 0 98 65 106 86l140 -43c-21 -48 -89 -163 -250 -166l-34 -55c24 4 32 5 45 5c34 0 60 -19 60 -52c0 -74 -94 -96 -151 -96c-23 0 -45 1 -67 3l10 45c14 -2 26 -2 36 -2
c18 0 48 10 48 29c0 9 -10 19 -26 19c-19 0 -44 -7 -49 -9l8 35l69 81c-122 18 -209 111 -209 242c0 161 126 302 302 302c158 0 217 -105 237 -176z" />
    <glyph glyph-name="eacute" unicode="&#xe9;" 
d="M555 230h-375s-1 -12 -1 -21c0 -49 25 -105 105 -105c53 0 98 28 122 76l129 -45c-43 -72 -104 -150 -255 -150c-141 0 -251 89 -251 248c0 134 95 300 293 300c132 0 237 -75 237 -235c0 -23 -2 -46 -4 -68zM200 327h221v6c0 48 -35 92 -98 92c-65 0 -103 -47 -123 -98z
M526 742l-165 -162h-94l94 162h165z" />
    <glyph glyph-name="egrave" unicode="&#xe8;" 
d="M555 230h-375s-1 -12 -1 -21c0 -49 25 -105 105 -105c53 0 98 28 122 76l129 -45c-43 -72 -104 -150 -255 -150c-141 0 -251 89 -251 248c0 134 95 300 293 300c132 0 237 -75 237 -235c0 -23 -2 -46 -4 -68zM200 327h221v6c0 48 -35 92 -98 92c-65 0 -103 -47 -123 -98z
M415 580h-94l-165 162h165z" />
    <glyph glyph-name="ecircumflex" unicode="&#xea;" 
d="M555 230h-375s-1 -12 -1 -21c0 -49 25 -105 105 -105c53 0 98 28 122 76l129 -45c-43 -72 -104 -150 -255 -150c-141 0 -251 89 -251 248c0 134 95 300 293 300c132 0 237 -75 237 -235c0 -23 -2 -46 -4 -68zM200 327h221v6c0 48 -35 92 -98 92c-65 0 -103 -47 -123 -98z
M522 580h-110l-47 74l-70 -74h-138l126 126h169z" />
    <glyph glyph-name="edieresis" unicode="&#xeb;" 
d="M555 230h-375s-1 -12 -1 -21c0 -49 25 -105 105 -105c53 0 98 28 122 76l129 -45c-43 -72 -104 -150 -255 -150c-141 0 -251 89 -251 248c0 134 95 300 293 300c132 0 237 -75 237 -235c0 -23 -2 -46 -4 -68zM200 327h221v6c0 48 -35 92 -98 92c-65 0 -103 -47 -123 -98z
M584 694l-26 -116h-163l26 116h163zM341 694l-24 -116h-162l25 116h161z" />
    <glyph glyph-name="iacute" unicode="&#xed;" horiz-adv-x="292" 
d="M273 515l-117 -515h-156l119 515h154zM396 742l-165 -162h-94l94 162h165z" />
    <glyph glyph-name="igrave" unicode="&#xec;" horiz-adv-x="292" 
d="M273 515l-117 -515h-156l119 515h154zM288 580h-94l-165 162h165z" />
    <glyph glyph-name="icircumflex" unicode="&#xee;" horiz-adv-x="292" 
d="M273 515l-117 -515h-156l119 515h154zM387 580h-110l-47 74l-70 -74h-138l126 126h169z" />
    <glyph glyph-name="idieresis" unicode="&#xef;" horiz-adv-x="292" 
d="M273 515l-117 -515h-156l119 515h154zM441 694l-26 -116h-163l26 116h163zM198 694l-24 -116h-162l25 116h161z" />
    <glyph glyph-name="ntilde" unicode="&#xf1;" 
d="M119 515h154l-14 -62c18 20 66 75 150 75c108 0 142 -78 142 -134c0 -17 -6 -52 -8 -61l-76 -333h-154l67 304c1 6 6 27 6 48c0 49 -43 57 -59 57c-65 0 -93 -71 -104 -119l-67 -290h-154zM480 720h72c-34 -129 -91 -139 -124 -139c-26 0 -44 9 -66 21l-23 13
c-17 9 -29 14 -40 14c-22 0 -33 -22 -41 -47h-69c6 41 34 139 117 139c20 0 35 -2 69 -20l19 -10c20 -11 33 -17 46 -17c22 0 33 23 40 46z" />
    <glyph glyph-name="oacute" unicode="&#xf3;" horiz-adv-x="625" 
d="M581 291c0 -117 -87 -306 -303 -306c-181 0 -249 130 -249 247c0 128 98 301 303 301c139 0 249 -87 249 -242zM423 294c0 60 -27 118 -100 118c-77 0 -138 -82 -138 -186c0 -93 57 -119 103 -119c91 0 135 104 135 187zM550 742l-165 -162h-94l94 162h165z" />
    <glyph glyph-name="ograve" unicode="&#xf2;" horiz-adv-x="625" 
d="M581 291c0 -117 -87 -306 -303 -306c-181 0 -249 130 -249 247c0 128 98 301 303 301c139 0 249 -87 249 -242zM423 294c0 60 -27 118 -100 118c-77 0 -138 -82 -138 -186c0 -93 57 -119 103 -119c91 0 135 104 135 187zM433 580h-94l-165 162h165z" />
    <glyph glyph-name="ocircumflex" unicode="&#xf4;" horiz-adv-x="625" 
d="M581 291c0 -117 -87 -306 -303 -306c-181 0 -249 130 -249 247c0 128 98 301 303 301c139 0 249 -87 249 -242zM423 294c0 60 -27 118 -100 118c-77 0 -138 -82 -138 -186c0 -93 57 -119 103 -119c91 0 135 104 135 187zM533 580h-110l-47 74l-70 -74h-138l126 126h169z
" />
    <glyph glyph-name="odieresis" unicode="&#xf6;" horiz-adv-x="625" 
d="M581 291c0 -117 -87 -306 -303 -306c-181 0 -249 130 -249 247c0 128 98 301 303 301c139 0 249 -87 249 -242zM423 294c0 60 -27 118 -100 118c-77 0 -138 -82 -138 -186c0 -93 57 -119 103 -119c91 0 135 104 135 187zM594 694l-26 -116h-163l26 116h163zM351 694
l-24 -116h-162l25 116h161z" />
    <glyph glyph-name="otilde" unicode="&#xf5;" horiz-adv-x="625" 
d="M581 291c0 -117 -87 -306 -303 -306c-181 0 -249 130 -249 247c0 128 98 301 303 301c139 0 249 -87 249 -242zM423 294c0 60 -27 118 -100 118c-77 0 -138 -82 -138 -186c0 -93 57 -119 103 -119c91 0 135 104 135 187zM480 720h72c-34 -129 -91 -139 -124 -139
c-26 0 -44 9 -66 21l-23 13c-17 9 -29 14 -40 14c-22 0 -33 -22 -41 -47h-69c6 41 34 139 117 139c20 0 35 -2 69 -20l19 -10c20 -11 33 -17 46 -17c22 0 33 23 40 46z" />
    <glyph glyph-name="uacute" unicode="&#xfa;" 
d="M583 515l-116 -515h-154l15 68c-19 -21 -64 -72 -148 -72c-77 0 -144 46 -144 127c0 15 2 34 9 66l73 326h155l-68 -303c-2 -8 -4 -22 -4 -36c0 -30 13 -60 59 -60c65 0 93 58 106 118l63 281h154zM552 742l-165 -162h-94l94 162h165z" />
    <glyph glyph-name="ugrave" unicode="&#xf9;" 
d="M583 515l-116 -515h-154l15 68c-19 -21 -64 -72 -148 -72c-77 0 -144 46 -144 127c0 15 2 34 9 66l73 326h155l-68 -303c-2 -8 -4 -22 -4 -36c0 -30 13 -60 59 -60c65 0 93 58 106 118l63 281h154zM433 580h-94l-165 162h165z" />
    <glyph glyph-name="ucircumflex" unicode="&#xfb;" 
d="M583 515l-116 -515h-154l15 68c-19 -21 -64 -72 -148 -72c-77 0 -144 46 -144 127c0 15 2 34 9 66l73 326h155l-68 -303c-2 -8 -4 -22 -4 -36c0 -30 13 -60 59 -60c65 0 93 58 106 118l63 281h154zM542 580h-110l-47 74l-70 -74h-138l126 126h169z" />
    <glyph glyph-name="udieresis" unicode="&#xfc;" 
d="M583 515l-116 -515h-154l15 68c-19 -21 -64 -72 -148 -72c-77 0 -144 46 -144 127c0 15 2 34 9 66l73 326h155l-68 -303c-2 -8 -4 -22 -4 -36c0 -30 13 -60 59 -60c65 0 93 58 106 118l63 281h154zM593 694l-26 -116h-163l26 116h163zM350 694l-24 -116h-162l25 116h161z
" />
    <glyph glyph-name="dagger" unicode="&#x2020;" horiz-adv-x="479" 
d="M529 518l-32 -135h-159l-111 -491h-155l111 491h-159l30 135h160l43 191h155l-43 -191h160z" />
    <glyph glyph-name="degree" unicode="&#xb0;" horiz-adv-x="354" 
d="M396 573c0 -95 -77 -173 -172 -173s-172 78 -172 173c0 96 76 172 172 172s172 -76 172 -172zM281 575c0 31 -26 55 -56 55c-31 0 -56 -24 -56 -55c0 -30 26 -56 56 -56s56 26 56 56z" />
    <glyph glyph-name="cent" unicode="&#xa2;" horiz-adv-x="562" 
d="M566 356l-138 -30c-9 35 -20 60 -57 76l-82 -293c74 0 96 56 108 84l140 -43c-52 -124 -175 -165 -255 -165c-9 0 -16 0 -27 1l-27 -98h-58l30 108c-118 35 -172 134 -172 228c0 145 104 308 300 308c8 0 14 0 22 -1l21 75h56l-23 -84c81 -22 135 -73 162 -166zM316 410
c-92 -6 -130 -129 -130 -184c0 -32 8 -81 49 -104z" />
    <glyph glyph-name="sterling" unicode="&#xa3;" horiz-adv-x="750" 
d="M551 233h149c-13 -109 -51 -245 -197 -245c-60 0 -96 20 -186 78c-24 -16 -82 -79 -181 -79c-121 0 -138 88 -138 120c0 81 72 122 150 122c43 0 93 -14 102 -16c-3 50 -5 61 -21 107h-147l19 88h93c-8 40 -11 58 -11 78c0 62 31 123 80 160c32 24 90 52 189 52
c77 0 164 -20 211 -88c18 -27 28 -56 37 -87l-146 -56c-11 67 -54 105 -111 105s-95 -46 -95 -101c0 -22 6 -43 12 -64h164l-21 -87h-110c2 -7 15 -46 15 -77c0 -22 -5 -38 -22 -81c28 -19 57 -38 88 -38c61 0 71 62 77 109zM230 122c-7 3 -43 21 -74 21
c-38 0 -54 -22 -54 -40c0 -25 30 -35 43 -35c31 0 66 26 85 54z" />
    <glyph glyph-name="section" unicode="&#xa7;" horiz-adv-x="625" 
d="M5 -34l93 91c37 -30 83 -67 159 -67c32 0 68 12 68 42c0 39 -58 58 -132 94c-64 32 -157 77 -157 181c0 100 85 153 146 174c-12 23 -24 45 -24 79c0 84 75 162 211 162c127 0 187 -48 244 -93l-92 -86c-30 22 -94 69 -157 69c-27 0 -54 -11 -54 -38c0 -28 22 -39 79 -66
c116 -56 199 -114 199 -214c0 -87 -63 -146 -135 -175c12 -27 23 -53 23 -81c0 -74 -72 -166 -226 -166c-135 0 -206 61 -245 94zM240 427c-32 -15 -73 -38 -73 -81c0 -45 43 -67 98 -96c43 -22 85 -46 126 -70c26 12 69 32 69 82c0 52 -53 77 -97 99c-55 27 -89 46 -123 66
z" />
    <glyph glyph-name="bullet" unicode="&#x2022;" horiz-adv-x="333" 
d="M341 478l-59 -258h-257l59 258h257z" />
    <glyph glyph-name="paragraph" unicode="&#xb6;" horiz-adv-x="638" 
d="M663 706l-19 -83h-35l-182 -790h-89l183 790h-114l-182 -790h-89l108 468c-75 36 -112 94 -112 177c0 76 35 145 95 185c47 31 98 43 197 43h239z" />
    <glyph glyph-name="germandbls" unicode="&#xdf;" horiz-adv-x="625" 
d="M155 0h-155l110 487c27 120 82 232 263 232c131 0 203 -67 203 -169c0 -69 -38 -135 -111 -147c48 -16 102 -65 102 -156c0 -155 -115 -260 -242 -260c-38 0 -77 10 -112 19l26 113c20 -6 42 -12 63 -12c62 0 108 54 108 136c0 67 -29 105 -98 105h-21l24 108
c6 -3 18 -8 36 -8c60 0 80 54 80 89c0 61 -49 68 -70 68c-44 0 -73 -23 -91 -103z" />
    <glyph glyph-name="registered" unicode="&#xae;" horiz-adv-x="819" 
d="M778 360c0 -207 -153 -363 -357 -363c-198 0 -355 157 -355 356c0 198 158 356 356 356c195 0 356 -157 356 -349zM729 347c0 182 -133 320 -308 320c-169 0 -306 -141 -306 -315c0 -175 135 -313 306 -313c168 0 308 140 308 308zM314 579h112c80 0 94 -2 125 -16
c42 -19 64 -59 64 -113c0 -68 -30 -110 -97 -138l70 -175h-116l-55 158h-53l-32 -158h-106zM403 489l-20 -105h54c47 0 67 17 67 58c0 32 -17 47 -52 47h-49z" />
    <glyph glyph-name="copyright" unicode="&#xa9;" horiz-adv-x="823" 
d="M626 481l-85 -71c-27 41 -48 66 -97 66c-66 0 -117 -66 -117 -150c0 -64 34 -101 93 -101c33 0 51 8 91 40l55 -88c-57 -47 -97 -64 -156 -64c-120 0 -204 85 -204 206c0 148 105 262 240 262c79 0 123 -24 180 -100zM778 360c0 -207 -153 -363 -357 -363
c-198 0 -355 157 -355 356c0 198 158 356 356 356c195 0 356 -157 356 -349zM729 347c0 182 -133 320 -308 320c-169 0 -306 -141 -306 -315c0 -175 135 -313 306 -313c168 0 308 140 308 308z" />
    <glyph glyph-name="trademark" unicode="&#x2122;" horiz-adv-x="736" 
d="M760 706l-70 -331h-81l57 252l-120 -252h-70l-12 256l-52 -256h-81l72 331h124l9 -212l100 212h124zM364 706l-14 -68h-91l-57 -263h-85l57 263h-95l15 68h270z" />
    <glyph glyph-name="acute" unicode="&#xb4;" horiz-adv-x="313" 
d="M286 742l-165 -162h-94l94 162h165z" />
    <glyph glyph-name="dieresis" unicode="&#xa8;" horiz-adv-x="313" 
d="M371 694l-26 -116h-163l26 116h163zM128 694l-24 -116h-162l25 116h161z" />
    <glyph glyph-name="notequal" unicode="&#x2260;" horiz-adv-x="724" 
d="M672 483l-31 -131h-176l-61 -86h217l-30 -131h-282l-101 -141h-127l102 141h-118l30 131h183l61 86h-224l31 131h288l97 133h126l-96 -133h111z" />
    <glyph glyph-name="AE" unicode="&#xc6;" horiz-adv-x="1062" 
d="M1059 706l-30 -135h-303l-31 -137h292l-28 -129h-293l-38 -170h359l-31 -135h-531l37 165h-210l-118 -165h-203l541 706h587zM558 588l-213 -295h147z" />
    <glyph glyph-name="Oslash" unicode="&#xd8;" horiz-adv-x="792" 
d="M686 746l56 -47l-51 -61c18 -20 79 -85 79 -217c0 -180 -118 -439 -408 -439c-97 0 -166 33 -190 48l-68 -79l-54 47l66 80c-12 14 -67 75 -67 208c0 184 115 439 408 439c95 0 138 -22 175 -43zM232 213l298 349c-16 9 -42 24 -88 24c-164 0 -220 -201 -220 -306
c0 -29 8 -58 10 -67zM580 509l-306 -360c21 -18 65 -34 104 -34c118 0 220 144 220 306c0 46 -10 69 -18 88z" />
    <glyph glyph-name="infinity" unicode="&#x221e;" horiz-adv-x="724" 
d="M387 430c59 73 111 107 177 107c85 0 140 -66 140 -166c0 -146 -89 -261 -202 -261c-68 0 -108 27 -151 102c-64 -76 -110 -103 -173 -103c-89 0 -142 62 -142 167c0 143 92 260 205 260c54 0 110 -28 146 -106zM461 333l-12 -14c28 -59 44 -77 68 -77c34 0 63 44 63 98
c0 35 -14 55 -37 55c-21 0 -45 -18 -82 -62zM292 321c-25 56 -44 78 -67 78c-35 0 -63 -45 -63 -99c0 -35 14 -55 37 -55s53 25 93 76z" />
    <glyph glyph-name="plusminus" unicode="&#xb1;" horiz-adv-x="724" 
d="M680 504l-29 -130h-187l-43 -190h-166l43 190h-183l30 130h182l43 185h166l-43 -185h187zM596 131l-30 -131h-536l30 131h536z" />
    <glyph glyph-name="lessequal" unicode="&#x2264;" horiz-adv-x="724" 
d="M681 718l-38 -166l-342 -117l288 -121l-36 -155l-416 212l36 152zM547 131l-31 -131h-463l30 131h464z" />
    <glyph glyph-name="greaterequal" unicode="&#x2265;" horiz-adv-x="724" 
d="M650 507l-35 -155l-508 -194l40 167l342 116l-289 123l36 154zM565 131l-30 -131h-464l30 131h464z" />
    <glyph glyph-name="yen" unicode="&#xa5;" horiz-adv-x="667" 
d="M754 695l-207 -250h72l-26 -102h-131l-41 -50l-2 -13h162l-26 -103h-160l-41 -177h-175l40 177h-159l25 103h158l7 34l-11 29h-140l24 102h75l-101 250h175l97 -252l186 252h199z" />
    <glyph glyph-name="mu" unicode="&#xb5;" horiz-adv-x="637" 
d="M597 515l-80 -361c-2 -8 -3 -18 -3 -24c0 -17 8 -26 25 -26c10 0 14 1 31 8l-26 -112c-27 -7 -62 -12 -84 -12c-49 0 -93 20 -101 78c-24 -44 -61 -75 -108 -75c-37 0 -62 20 -70 57l-58 -264h-156l163 731h155l-66 -290c-4 -17 -8 -37 -8 -55c0 -37 17 -69 59 -69
c67 0 97 101 113 171l57 243h157z" />
    <glyph glyph-name="partialdiff" unicode="&#x2202;" horiz-adv-x="576" 
d="M198 579v123c35 9 102 16 144 16c131 0 207 -87 207 -239c0 -119 -31 -261 -76 -343c-54 -98 -138 -149 -244 -149c-121 0 -206 80 -206 193c0 150 100 262 234 262c51 0 85 -13 122 -48c5 29 7 61 7 84c0 74 -36 113 -102 113c-22 0 -37 -2 -86 -12zM353 271
c-21 28 -53 45 -83 45c-51 0 -91 -53 -91 -124c0 -51 27 -83 69 -83c54 0 88 53 105 162z" />
    <glyph glyph-name="summation" unicode="&#x2211;" horiz-adv-x="615" 
d="M687 706l-29 -135h-377l177 -276l-297 -284h365l-28 -133h-566l30 130l299 299l-169 266l31 133h564z" />
    <glyph glyph-name="product" unicode="&#x220f;" horiz-adv-x="770" 
d="M787 706l-189 -828h-178l161 694h-261l-161 -694h-175l189 828h614z" />
    <glyph glyph-name="pi" unicode="&#x3c0;" horiz-adv-x="669" 
d="M667 514l-26 -113h-54l-48 -209c-4 -17 -7 -30 -7 -37c0 -19 4 -31 49 -31h11l-28 -124c-28 -1 -50 -1 -67 -1c-94 0 -129 27 -129 91c0 17 3 38 9 64l57 247h-143l-93 -401h-154l93 401h-54l26 113h558z" />
    <glyph glyph-name="integral" unicode="&#x222b;" horiz-adv-x="378" 
d="M440 700l-30 -131c-20 15 -30 20 -44 20c-32 0 -41 -19 -53 -74l-104 -479c-31 -143 -79 -212 -208 -212c-30 0 -53 4 -85 16l31 132c19 -15 29 -20 43 -20c39 0 46 36 59 99l95 451c23 107 47 160 106 190c27 14 62 24 105 24c31 0 54 -4 85 -16z" />
    <glyph glyph-name="ordfeminine" unicode="&#xaa;" horiz-adv-x="375" 
d="M359 382h-93c-2 5 -3 11 -3 16c1 11 3 18 6 30c-19 -32 -50 -55 -107 -55c-80 0 -97 56 -97 92c0 52 34 84 75 100c40 15 94 18 162 22c4 17 6 27 6 34c0 21 -15 33 -45 33c-43 0 -52 -30 -57 -45c0 0 -83 2 -95 2c0 5 8 34 22 52c37 48 101 52 143 52
c48 0 127 -10 127 -89c0 -15 -3 -30 -6 -45l-38 -169c-1 -6 -2 -11 -2 -17c0 -4 1 -9 2 -13zM288 527c-26 0 -126 -2 -126 -51c0 -21 9 -34 40 -34c67 0 84 73 86 85z" />
    <glyph glyph-name="ordmasculine" unicode="&#xba;" horiz-adv-x="354" 
d="M405 565c0 -69 -49 -192 -193 -192c-124 0 -152 104 -152 148c0 94 65 195 189 195c127 0 156 -96 156 -151zM306 570c0 56 -37 71 -63 71c-51 0 -85 -57 -85 -116c0 -11 1 -76 63 -76c67 0 85 80 85 121z" />
    <glyph glyph-name="Omega" unicode="&#x2126;" horiz-adv-x="767" 
d="M693 129l-31 -129h-300l31 131c52 16 88 46 119 102c33 60 53 131 53 193c0 99 -49 156 -132 156c-112 0 -191 -122 -191 -293c0 -69 12 -120 68 -158l-30 -131h-300l30 128h183c-80 44 -125 126 -125 228c0 83 28 168 75 231c68 91 169 137 298 137
c186 0 307 -105 307 -266c0 -150 -95 -282 -235 -329h180z" />
    <glyph glyph-name="ae" unicode="&#xe6;" horiz-adv-x="938" 
d="M888 229h-370c-1 -5 -1 -12 -1 -20c0 -72 43 -107 105 -107s101 46 117 77l129 -45c-58 -112 -157 -149 -249 -149c-148 0 -189 74 -212 100c-17 -21 -95 -101 -235 -101c-104 0 -163 59 -163 144c0 32 9 99 81 144c62 39 144 46 294 54c6 26 10 41 10 54
c0 52 -58 54 -71 54c-77 0 -88 -73 -88 -73l-154 5c12 38 22 67 50 97c52 56 124 69 200 69c103 0 149 -33 166 -47c28 17 76 47 158 47c77 0 157 -30 200 -95c16 -23 37 -69 37 -141c0 -22 -2 -45 -4 -67zM755 325c0 44 -29 99 -95 99s-101 -47 -123 -99h218zM360 229h-24
c-135 0 -172 -45 -172 -83c0 -24 14 -51 58 -51c73 0 122 48 138 134z" />
    <glyph glyph-name="oslash" unicode="&#xf8;" horiz-adv-x="625" 
d="M45 -65l69 100c-23 25 -86 72 -86 190c0 172 140 309 299 309c54 0 96 -16 115 -22l47 70h74l-68 -101c38 -34 85 -87 85 -190c0 -138 -100 -306 -311 -306c-53 0 -93 17 -101 22l-48 -72h-75zM414 364l-175 -257c17 -5 32 -9 49 -9c85 0 139 92 139 199
c0 35 -7 50 -13 67zM194 151l176 256c-17 7 -30 12 -49 12c-100 0 -143 -113 -143 -194c0 -29 5 -48 16 -74z" />
    <glyph glyph-name="questiondown" unicode="&#xbf;" horiz-adv-x="562" 
d="M287 461h140c-15 -98 -74 -119 -194 -193c-31 -19 -67 -42 -67 -84c0 -25 20 -66 82 -66c90 0 108 81 114 105l155 -36c-34 -113 -113 -197 -279 -197c-109 0 -243 49 -243 180c0 93 61 146 131 178c60 28 138 52 161 113zM294 548l35 158h160l-37 -158h-158z" />
    <glyph glyph-name="exclamdown" unicode="&#xa1;" horiz-adv-x="292" 
d="M297 706l-36 -159h-159l37 159h158zM129 463h65l-9 -244l-50 -219h-159l51 219z" />
    <glyph glyph-name="logicalnot" unicode="&#xac;" horiz-adv-x="724" 
d="M663 390l-83 -366h-167l54 232h-400l30 134h566z" />
    <glyph glyph-name="radical" unicode="&#x221a;" horiz-adv-x="724" 
d="M765 706l-444 -891h-157l-60 255l-78 -24l-36 120l233 84l47 -228l319 684h176z" />
    <glyph glyph-name="florin" unicode="&#x192;" horiz-adv-x="333" 
d="M422 682l-23 -102h-15c-79 0 -91 -5 -106 -90h92l-22 -93h-92l-82 -368c-33 -150 -66 -224 -203 -224c-43 0 -87 11 -101 15l23 102h16c82 0 89 6 107 89l85 386h-71l21 93h72c29 131 61 207 198 207c38 0 64 -6 101 -15z" />
    <glyph glyph-name="approxequal" unicode="&#x2248;" horiz-adv-x="724" 
d="M651 546l39 -122c-81 -69 -132 -93 -187 -93c-32 0 -61 9 -114 36l-31 16c-40 21 -68 29 -95 29c-40 0 -61 -11 -120 -64l-12 -11l-38 124c70 68 115 93 181 93c35 0 57 -8 108 -32l56 -26c42 -19 53 -24 73 -24c36 0 71 13 140 74zM601 312l38 -123
c-77 -68 -130 -92 -186 -92c-33 0 -60 9 -114 36l-32 16c-40 20 -67 28 -95 28c-45 0 -61 -13 -119 -63l-13 -11l-38 123c71 69 116 94 182 94c36 0 63 -11 107 -32l56 -27c41 -20 54 -23 74 -23c40 0 70 14 140 74z" />
    <glyph glyph-name="Delta" unicode="&#x2206;" horiz-adv-x="745" 
d="M676 0h-746l436 706h202zM474 134l-54 397l-209 -397h263z" />
    <glyph glyph-name="guillemotleft" unicode="&#xab;" horiz-adv-x="417" 
d="M424 516l-33 -142l-104 -65l72 -72l-28 -122l-121 127l37 162zM240 517l-32 -139l-103 -67l71 -71l-28 -123l-120 128l36 158z" />
    <glyph glyph-name="guillemotright" unicode="&#xbb;" horiz-adv-x="417" 
d="M394 387l-36 -158l-176 -115l32 140l103 67l-72 70l29 123zM211 389l-36 -161l-177 -113l33 142l102 64l-71 73l28 121z" />
    <glyph glyph-name="ellipsis" unicode="&#x2026;" horiz-adv-x="1000" 
d="M871 136l-31 -136h-136l32 136h135zM538 136l-32 -136h-135l31 136h136zM203 136l-32 -136h-135l31 136h136z" />
    <glyph glyph-name="uni00A0" unicode="&#xa0;" horiz-adv-x="292" 
 />
    <glyph glyph-name="Agrave" unicode="&#xc0;" horiz-adv-x="708" 
d="M635 0h-172l-9 140h-260l-78 -140h-185l431 706h198zM446 268l-19 290l-161 -290h180zM545 780h-100l-163 131h187z" />
    <glyph glyph-name="Atilde" unicode="&#xc3;" horiz-adv-x="708" 
d="M635 0h-172l-9 140h-260l-78 -140h-185l431 706h198zM446 268l-19 290l-161 -290h180zM599 902h75c-32 -104 -86 -136 -132 -136c-33 0 -61 15 -75 23l-26 13c-18 9 -32 13 -45 13c-29 0 -39 -24 -46 -44h-73c7 28 39 135 126 135c21 0 43 -3 81 -21l19 -9
c20 -10 35 -14 50 -14c26 0 41 20 46 40z" />
    <glyph glyph-name="Otilde" unicode="&#xd5;" horiz-adv-x="792" 
d="M769 423c0 -167 -109 -440 -407 -440c-221 0 -314 129 -314 307c0 182 121 435 407 435c209 0 314 -136 314 -302zM593 424c0 94 -56 157 -151 157c-173 0 -216 -214 -216 -299c0 -99 63 -159 145 -159c148 0 222 175 222 301zM618 902h75c-32 -104 -86 -136 -132 -136
c-33 0 -61 15 -75 23l-26 13c-18 9 -32 13 -45 13c-29 0 -39 -24 -46 -44h-73c7 28 39 135 126 135c21 0 43 -3 81 -21l19 -9c20 -10 35 -14 50 -14c26 0 41 20 46 40z" />
    <glyph glyph-name="OE" unicode="&#x152;" horiz-adv-x="1083" 
d="M1083 706l-30 -136h-300l-31 -136h287l-28 -128h-288l-40 -171h356l-32 -135h-522l7 28c-57 -25 -94 -41 -158 -41c-122 0 -257 84 -257 296c0 214 148 439 385 439c91 0 143 -25 178 -44l6 28h467zM509 233l56 246c-12 71 -60 107 -123 107c-109 0 -215 -126 -215 -285
c0 -137 78 -171 136 -171c86 0 131 66 146 103z" />
    <glyph glyph-name="oe" unicode="&#x153;" horiz-adv-x="958" 
d="M908 229h-361c-1 -5 -1 -8 -1 -14c0 -90 55 -111 102 -111c54 0 87 37 111 76l129 -46c-54 -95 -136 -149 -250 -149c-97 0 -144 41 -174 66c-31 -24 -85 -67 -186 -67c-132 0 -248 82 -248 240c0 180 135 308 301 308c77 0 134 -27 175 -65c29 23 80 65 169 65
c128 0 238 -73 238 -229c0 -24 -2 -51 -5 -74zM567 326h208c0 59 -42 97 -92 97c-56 0 -99 -49 -116 -97zM416 292c0 78 -38 119 -94 119c-89 0 -136 -105 -136 -183c0 -76 35 -121 97 -121c93 0 133 104 133 185z" />
    <glyph glyph-name="endash" unicode="&#x2013;" horiz-adv-x="626" 
d="M608 380l-33 -143h-549l33 143h549z" />
    <glyph glyph-name="emdash" unicode="&#x2014;" horiz-adv-x="918" 
d="M900 380l-33 -143h-841l33 143h841z" />
    <glyph glyph-name="quotedblleft" unicode="&#x201c;" horiz-adv-x="479" 
d="M225 377h-159l25 111c38 168 138 203 213 227l-17 -73c-53 -33 -62 -44 -84 -104h59zM457 377h-160l26 111c41 175 134 201 213 227l-17 -73c-53 -33 -62 -44 -85 -104h60z" />
    <glyph glyph-name="quotedblright" unicode="&#x201d;" horiz-adv-x="479" 
d="M369 706h160l-26 -111c-39 -166 -134 -201 -213 -226l17 73c53 32 62 43 85 103h-59zM136 706h159l-25 -111c-38 -167 -137 -202 -213 -226l17 73c53 32 62 43 85 103h-60z" />
    <glyph glyph-name="quoteleft" unicode="&#x2018;" horiz-adv-x="250" 
d="M226 379h-159l25 111c39 171 137 202 213 227l-17 -73c-53 -33 -62 -44 -85 -104h60z" />
    <glyph glyph-name="quoteright" unicode="&#x2019;" horiz-adv-x="250" 
d="M133 706h160l-26 -111c-40 -173 -133 -201 -213 -226l17 73c53 32 62 43 85 103h-59z" />
    <glyph glyph-name="divide" unicode="&#xf7;" horiz-adv-x="724" 
d="M509 598l-35 -152h-154l35 152h154zM666 392l-31 -139h-566l32 139h565zM417 199l-35 -152h-154l35 152h154z" />
    <glyph glyph-name="lozenge" unicode="&#x25ca;" horiz-adv-x="724" 
d="M638 353l-268 -353h-155l-106 353l267 353h156zM484 355l-56 218l-165 -221l55 -219z" />
    <glyph glyph-name="ydieresis" unicode="&#xff;" horiz-adv-x="500" 
d="M563 515l-336 -572c-46 -79 -86 -128 -218 -128c-26 0 -52 1 -77 4l27 125c18 -3 35 -7 53 -7c42 0 62 15 80 38l-53 540h156l16 -360l181 360h171zM531 694l-26 -116h-163l26 116h163zM288 694l-24 -116h-162l25 116h161z" />
    <glyph glyph-name="Ydieresis" unicode="&#x178;" horiz-adv-x="667" 
d="M754 706l-333 -408l-67 -298h-175l71 320l-153 386h175l98 -254l185 254h199zM681 897l-26 -114h-161l25 114h162zM421 897l-26 -114h-161l25 114h162z" />
    <glyph glyph-name="fraction" unicode="&#x2044;" horiz-adv-x="125" 
d="M352 678l-461 -678h-87l461 678h87z" />
    <glyph glyph-name="Euro" unicode="&#x20ac;" horiz-adv-x="749" 
d="M740 608l-74 -128c-48 54 -102 84 -175 84c-83 0 -145 -44 -176 -120h333l-45 -78h-309c-4 -14 -6 -25 -6 -39h292l-43 -75h-249c11 -87 81 -129 164 -129c84 0 139 26 202 80l-35 -184c-61 -27 -123 -37 -189 -37c-171 0 -313 88 -324 270h-97l47 75h47c0 13 1 26 5 39
h-74l47 78h47c54 169 187 254 361 254c98 0 180 -20 251 -90z" />
    <glyph glyph-name="guilsinglleft" unicode="&#x2039;" horiz-adv-x="229" 
d="M238 516l-32 -142l-104 -65l72 -72l-28 -122l-121 127l37 162z" />
    <glyph glyph-name="guilsinglright" unicode="&#x203a;" horiz-adv-x="229" 
d="M208 387l-35 -158l-176 -115l32 140l103 67l-72 70l29 123z" />
    <glyph glyph-name="daggerdbl" unicode="&#x2021;" horiz-adv-x="479" 
d="M529 516l-32 -136h-159l-29 -130h158l-29 -136h-160l-51 -225h-155l51 225h-159l29 136h161l29 130h-159l30 137h160l43 189h155l-43 -190h160z" />
    <glyph glyph-name="periodcentered" unicode="&#xb7;" horiz-adv-x="250" 
d="M226 383l-37 -165h-158l37 165h158z" />
    <glyph glyph-name="quotesinglbase" unicode="&#x201a;" horiz-adv-x="250" 
d="M15 162h159l-25 -112c-38 -169 -137 -203 -213 -226l17 73c53 32 62 43 85 103h-60z" />
    <glyph glyph-name="quotedblbase" unicode="&#x201e;" horiz-adv-x="479" 
d="M241 162h160l-26 -112c-40 -172 -133 -201 -213 -226l17 73c53 32 62 43 85 103h-59zM15 162h159l-25 -112c-37 -167 -136 -202 -213 -226l17 73c53 32 62 43 85 103h-60z" />
    <glyph glyph-name="perthousand" unicode="&#x2030;" horiz-adv-x="1188" 
d="M700 678l-461 -678h-86l461 678h86zM53 402c0 98 56 285 191 285c108 0 135 -94 135 -164c0 -124 -75 -279 -195 -279c-68 0 -131 52 -131 158zM149 371c0 -26 7 -53 36 -53c63 0 99 186 99 235c0 40 -15 61 -38 61c-57 0 -97 -168 -97 -243zM474 148
c0 141 82 285 191 285c108 0 135 -94 135 -164c0 -124 -75 -279 -195 -279c-85 0 -131 67 -131 158zM570 117c0 -26 7 -53 36 -53c63 0 99 186 99 235c0 40 -15 61 -38 61c-57 0 -97 -168 -97 -243zM829 148c0 141 82 285 191 285c108 0 135 -94 135 -164
c0 -124 -75 -279 -195 -279c-85 0 -131 67 -131 158zM925 117c0 -26 7 -53 36 -53c63 0 99 186 99 235c0 40 -15 61 -38 61c-57 0 -97 -168 -97 -243z" />
    <glyph glyph-name="Acircumflex" unicode="&#xc2;" horiz-adv-x="708" 
d="M635 0h-172l-9 140h-260l-78 -140h-185l431 706h198zM446 268l-19 290l-161 -290h180zM651 782h-115l-49 77l-70 -77h-161l137 116h192z" />
    <glyph glyph-name="Ecircumflex" unicode="&#xca;" horiz-adv-x="667" 
d="M669 706l-31 -135h-335l-31 -137h323l-29 -129h-323l-39 -171h385l-29 -134h-560l161 706h508zM610 782h-115l-49 77l-70 -77h-161l137 116h192z" />
    <glyph glyph-name="Aacute" unicode="&#xc1;" horiz-adv-x="708" 
d="M635 0h-172l-9 140h-260l-78 -140h-185l431 706h198zM446 268l-19 290l-161 -290h180zM663 911l-162 -131h-101l76 131h187z" />
    <glyph glyph-name="Edieresis" unicode="&#xcb;" horiz-adv-x="667" 
d="M669 706l-31 -135h-335l-31 -137h323l-29 -129h-323l-39 -171h385l-29 -134h-560l161 706h508zM681 897l-26 -114h-161l25 114h162zM421 897l-26 -114h-161l25 114h162z" />
    <glyph glyph-name="Egrave" unicode="&#xc8;" horiz-adv-x="667" 
d="M669 706l-31 -135h-335l-31 -137h323l-29 -129h-323l-39 -171h385l-29 -134h-560l161 706h508zM503 780h-100l-163 131h187z" />
    <glyph glyph-name="Iacute" unicode="&#xcd;" horiz-adv-x="313" 
d="M336 706l-158 -706h-176l158 706h176zM450 911l-162 -131h-101l76 131h187z" />
    <glyph glyph-name="Icircumflex" unicode="&#xce;" horiz-adv-x="313" 
d="M336 706l-158 -706h-176l158 706h176zM446 782h-115l-49 77l-70 -77h-161l137 116h192z" />
    <glyph glyph-name="Idieresis" unicode="&#xcf;" horiz-adv-x="313" 
d="M336 706l-158 -706h-176l158 706h176zM504 897l-26 -114h-161l25 114h162zM244 897l-26 -114h-161l25 114h162z" />
    <glyph glyph-name="Igrave" unicode="&#xcc;" horiz-adv-x="313" 
d="M336 706l-158 -706h-176l158 706h176zM341 780h-100l-163 131h187z" />
    <glyph glyph-name="Oacute" unicode="&#xd3;" horiz-adv-x="792" 
d="M769 423c0 -167 -109 -440 -407 -440c-221 0 -314 129 -314 307c0 182 121 435 407 435c209 0 314 -136 314 -302zM593 424c0 94 -56 157 -151 157c-173 0 -216 -214 -216 -299c0 -99 63 -159 145 -159c148 0 222 175 222 301zM670 911l-162 -131h-101l76 131h187z" />
    <glyph glyph-name="Ocircumflex" unicode="&#xd4;" horiz-adv-x="792" 
d="M769 423c0 -167 -109 -440 -407 -440c-221 0 -314 129 -314 307c0 182 121 435 407 435c209 0 314 -136 314 -302zM593 424c0 94 -56 157 -151 157c-173 0 -216 -214 -216 -299c0 -99 63 -159 145 -159c148 0 222 175 222 301zM680 782h-115l-49 77l-70 -77h-161l137 116
h192z" />
    <glyph glyph-name="Ograve" unicode="&#xd2;" horiz-adv-x="792" 
d="M769 423c0 -167 -109 -440 -407 -440c-221 0 -314 129 -314 307c0 182 121 435 407 435c209 0 314 -136 314 -302zM593 424c0 94 -56 157 -151 157c-173 0 -216 -214 -216 -299c0 -99 63 -159 145 -159c148 0 222 175 222 301zM558 780h-100l-163 131h187z" />
    <glyph glyph-name="Uacute" unicode="&#xda;" horiz-adv-x="729" 
d="M578 706h176l-107 -477c-43 -190 -173 -245 -313 -245c-194 0 -275 103 -275 219c0 30 8 77 15 110l88 393h177l-96 -430c-2 -8 -7 -30 -7 -54c0 -27 16 -87 105 -87c41 0 106 12 135 136zM663 911l-162 -131h-101l76 131h187z" />
    <glyph glyph-name="Ucircumflex" unicode="&#xdb;" horiz-adv-x="729" 
d="M578 706h176l-107 -477c-43 -190 -173 -245 -313 -245c-194 0 -275 103 -275 219c0 30 8 77 15 110l88 393h177l-96 -430c-2 -8 -7 -30 -7 -54c0 -27 16 -87 105 -87c41 0 106 12 135 136zM648 782h-115l-49 77l-70 -77h-161l137 116h192z" />
    <glyph glyph-name="Ugrave" unicode="&#xd9;" horiz-adv-x="729" 
d="M578 706h176l-107 -477c-43 -190 -173 -245 -313 -245c-194 0 -275 103 -275 219c0 30 8 77 15 110l88 393h177l-96 -430c-2 -8 -7 -30 -7 -54c0 -27 16 -87 105 -87c41 0 106 12 135 136zM550 780h-100l-163 131h187z" />
    <glyph glyph-name="dotlessi" unicode="&#x131;" horiz-adv-x="292" 
d="M273 515l-117 -515h-156l119 515h154z" />
    <glyph glyph-name="circumflex" unicode="&#x2c6;" horiz-adv-x="313" 
d="M339 580h-110l-47 74l-70 -74h-138l126 126h169z" />
    <glyph glyph-name="tilde" unicode="&#x2dc;" horiz-adv-x="313" 
d="M266 720h72c-34 -129 -91 -139 -124 -139c-26 0 -44 9 -66 21l-23 13c-17 9 -29 14 -40 14c-22 0 -33 -22 -41 -47h-69c6 41 34 139 117 139c20 0 35 -2 69 -20l19 -10c20 -11 33 -17 46 -17c22 0 33 23 40 46z" />
    <glyph glyph-name="macron" unicode="&#xaf;" horiz-adv-x="313" 
d="M349 695l-20 -92h-365l19 92h366z" />
    <glyph glyph-name="breve" unicode="&#x2d8;" horiz-adv-x="313" 
d="M213 706h122c-6 -22 -13 -46 -29 -68c-49 -66 -132 -70 -155 -70c-117 0 -173 56 -173 138h120c0 -18 0 -54 51 -54c48 0 58 35 64 54z" />
    <glyph glyph-name="dotaccent" unicode="&#x2d9;" horiz-adv-x="313" 
d="M251 694l-26 -116h-163l25 116h164z" />
    <glyph glyph-name="ring" unicode="&#x2da;" horiz-adv-x="313" 
d="M264 673c0 -60 -48 -108 -108 -108c-58 0 -108 49 -108 108s50 108 107 108c61 0 109 -49 109 -108zM197 673c0 23 -18 41 -41 41s-41 -19 -41 -41c0 -23 18 -41 41 -41s41 19 41 41z" />
    <glyph glyph-name="cedilla" unicode="&#xb8;" horiz-adv-x="313" 
d="M170 17h46l-57 -87c24 4 32 5 45 5c33 0 60 -19 60 -52c0 -10 -3 -28 -19 -48c-33 -41 -84 -48 -131 -48c-23 0 -44 1 -66 3l10 45c14 -2 26 -2 36 -2c18 0 48 8 48 29c0 11 -11 19 -27 19c-22 0 -43 -8 -48 -10l7 36z" />
    <glyph glyph-name="hungarumlaut" unicode="&#x2dd;" horiz-adv-x="313" 
d="M190 742l-164 -162h-86l94 162h156zM373 742l-164 -162h-86l94 162h156z" />
    <glyph glyph-name="ogonek" unicode="&#x2db;" horiz-adv-x="313" 
d="M128 0h51c-10 -13 -38 -42 -38 -77c0 -15 10 -55 56 -55c21 0 33 7 42 13l23 -38c-46 -35 -101 -35 -113 -35c-42 0 -98 23 -98 79c0 49 34 79 77 113z" />
    <glyph glyph-name="caron" unicode="&#x2c7;" horiz-adv-x="313" 
d="M338 706l-126 -128h-168l-69 128h109l47 -74l70 74h137z" />
    <glyph glyph-name="currency" unicode="&#xa4;" horiz-adv-x="700" 
d="M621 650l84 -101l-88 -76c18 -39 24 -67 24 -100c0 -71 -20 -133 -62 -189l71 -84l-111 -93l-71 84c-48 -24 -84 -33 -134 -33c-61 0 -98 12 -151 48l-90 -76l-85 101l90 76c-18 40 -26 71 -26 108c0 65 22 129 62 178l-69 83l109 93l69 -82c46 24 89 34 138 34
c56 0 96 -12 150 -47zM491 355c0 73 -50 125 -123 125c-82 0 -145 -68 -145 -156c0 -72 51 -125 120 -125c82 0 148 70 148 156z" />
    <glyph glyph-name="afii61289" unicode="&#x2113;" horiz-adv-x="571" 
d="M470 165l48 -83c-89 -70 -154 -96 -235 -96c-112 0 -178 56 -178 152c0 14 0 22 3 41l-47 -23l-20 109c15 6 40 18 102 46l37 146c45 179 123 238 242 238c99 0 161 -55 161 -143c0 -80 -52 -145 -129 -200c-54 -38 -86 -57 -178 -107l-5 -19c-8 -29 -10 -43 -10 -57
c0 -42 26 -67 70 -67c31 0 66 6 139 63zM304 379c119 75 156 113 156 157c0 29 -18 47 -48 47c-40 0 -61 -25 -81 -101z" />
    <glyph glyph-name="estimated" unicode="&#x212e;" horiz-adv-x="853" 
d="M841 285h-620c4 -109 75 -170 199 -170c93 0 178 45 223 118l157 -54c-94 -131 -223 -194 -393 -194c-230 0 -363 132 -363 319c0 226 183 391 433 391c228 0 367 -132 367 -349c0 -17 -1 -30 -3 -61zM242 421h426c-15 97 -88 154 -200 154c-103 0 -189 -59 -226 -154z
" />
    <glyph glyph-name="acute.cap" horiz-adv-x="313" 
d="M288 911l-162 -131h-101l76 131h187z" />
    <glyph glyph-name="breve.cap" horiz-adv-x="313" 
d="M219 897h116c-22 -85 -97 -127 -190 -127c-114 0 -167 57 -167 116v11h114c0 -17 6 -50 57 -50c48 0 64 32 70 50z" />
    <glyph glyph-name="caron.cap" horiz-adv-x="313" 
d="M354 897l-137 -117h-191l-67 117h115l50 -78l69 78h161z" />
    <glyph glyph-name="cedilla.cap" horiz-adv-x="313" 
d="M170 17h46l-57 -87c24 4 32 5 45 5c33 0 60 -19 60 -52c0 -10 -3 -28 -19 -48c-33 -41 -84 -48 -131 -48c-23 0 -44 1 -66 3l10 45c14 -2 26 -2 36 -2c18 0 48 8 48 29c0 11 -11 19 -27 19c-22 0 -43 -8 -48 -10l7 36z" />
    <glyph glyph-name="circumflex.cap" horiz-adv-x="313" 
d="M354 782h-115l-49 77l-70 -77h-161l137 116h192z" />
    <glyph glyph-name="commaaccent" horiz-adv-x="313" 
d="M97 -118l17 82h112l-8 -38c-18 -85 -47 -120 -131 -122l8 38c25 3 37 11 43 40h-41z" />
    <glyph glyph-name="dieresis.cap" horiz-adv-x="313" 
d="M380 897l-26 -114h-161l25 114h162zM120 897l-26 -114h-161l25 114h162z" />
    <glyph glyph-name="dotaccent.cap" horiz-adv-x="313" 
d="M251 897l-27 -114h-163l26 114h164z" />
    <glyph glyph-name="grave.cap" horiz-adv-x="313" 
d="M288 780h-100l-163 131h187z" />
    <glyph glyph-name="hungarumlaut.cap" horiz-adv-x="313" 
d="M176 911l-161 -131h-90l75 131h176zM389 911l-161 -131h-90l75 131h176z" />
    <glyph glyph-name="macron.cap" horiz-adv-x="313" 
d="M353 876l-21 -95h-372l20 95h373z" />
    <glyph glyph-name="ring.cap" horiz-adv-x="313" 
d="M259 862c0 -41 -32 -85 -103 -85c-56 0 -103 33 -103 85c0 32 25 85 103 85c79 0 103 -53 103 -85zM202 862c0 14 -9 38 -47 38c-37 0 -46 -22 -46 -38c0 -18 12 -38 47 -38c36 0 46 23 46 38z" />
    <glyph glyph-name="tilde.cap" horiz-adv-x="313" 
d="M280 902h75c-32 -104 -86 -136 -132 -136c-33 0 -61 15 -75 23l-26 13c-18 9 -32 13 -45 13c-29 0 -39 -24 -46 -44h-73c7 28 39 135 126 135c21 0 43 -3 81 -21l19 -9c20 -10 35 -14 50 -14c26 0 41 20 46 40z" />
    <glyph glyph-name="caron.alt" horiz-adv-x="313" 
d="M116 706h116l-16 -73c-15 -67 -70 -95 -136 -103l10 43c28 6 51 20 58 49h-50z" />
    <glyph glyph-name="Eth" unicode="&#xd0;" horiz-adv-x="750" 
d="M161 706h279c241 0 285 -159 285 -283c0 -137 -63 -332 -249 -397c-67 -23 -150 -26 -217 -26h-259l74 328h-67l22 96h68zM301 571l-33 -147h180l-22 -96h-180l-43 -192h78c42 0 97 2 139 26c60 35 125 135 125 264c0 145 -113 145 -156 145h-88z" />
    <glyph glyph-name="eth" unicode="&#xf0;" horiz-adv-x="625" 
d="M564 689l17 -55l-72 -17c28 -47 75 -157 75 -287c0 -160 -87 -345 -306 -345c-138 0 -249 90 -249 237c0 193 151 311 290 311c50 0 81 -19 101 -40c-9 43 -20 64 -37 95l-153 -36l-16 55l136 32c-17 24 -28 34 -42 50l122 38c15 -17 25 -29 47 -59zM423 299
c-1 89 -55 113 -100 113c-58 0 -138 -60 -138 -185c0 -89 56 -121 103 -121c105 0 135 129 135 193z" />
    <glyph glyph-name="Lslash" unicode="&#x141;" horiz-adv-x="562" 
d="M506 143l-33 -143h-472l51 228l-72 -35l21 95l73 36l86 382h175l-65 -287l224 108l-21 -98l-225 -107l-40 -179h298z" />
    <glyph glyph-name="lslash" unicode="&#x142;" horiz-adv-x="292" 
d="M356 518l-19 -87l-96 -49l-85 -382h-154l65 291l-84 -43l20 87l83 43l73 328h155l-53 -237z" />
    <glyph glyph-name="Scaron" unicode="&#x160;" horiz-adv-x="667" 
d="M669 576l-146 -85c-20 80 -108 99 -162 99c-75 0 -100 -42 -100 -66c0 -38 36 -52 91 -71l75 -26c121 -42 192 -100 192 -207c0 -114 -99 -238 -306 -238c-181 0 -284 77 -329 163l155 97c3 -9 35 -119 177 -119c100 0 120 60 120 82c0 25 -15 49 -98 78l-101 35
c-44 15 -153 64 -153 182c0 105 87 224 292 224c165 0 241 -64 293 -148zM637 897l-137 -117h-191l-67 117h115l50 -78l69 78h161z" />
    <glyph glyph-name="scaron" unicode="&#x161;" horiz-adv-x="542" 
d="M521 407l-116 -57c-24 38 -57 69 -127 69c-43 0 -66 -17 -66 -39c0 -23 14 -30 67 -46l53 -16c79 -24 154 -64 154 -151c0 -79 -74 -183 -257 -183c-43 0 -177 1 -251 136l130 64c11 -29 47 -76 132 -76c9 0 84 1 84 46c0 27 -27 36 -69 49l-53 17
c-57 18 -151 52 -151 151c0 75 68 162 229 162c159 0 216 -78 241 -126zM516 706l-126 -128h-168l-69 128h109l47 -74l70 74h137z" />
    <glyph glyph-name="Yacute" unicode="&#xdd;" horiz-adv-x="667" 
d="M754 706l-333 -408l-67 -298h-175l71 320l-153 386h175l98 -254l185 254h199zM615 911l-162 -131h-101l76 131h187z" />
    <glyph glyph-name="yacute" unicode="&#xfd;" horiz-adv-x="500" 
d="M563 515l-336 -572c-46 -79 -86 -128 -218 -128c-26 0 -52 1 -77 4l27 125c18 -3 35 -7 53 -7c42 0 62 15 80 38l-53 540h156l16 -360l181 360h171zM491 742l-165 -162h-94l94 162h165z" />
    <glyph glyph-name="Thorn" unicode="&#xde;" horiz-adv-x="688" 
d="M158 706h175l-21 -100h129c67 0 234 -15 234 -210c0 -106 -59 -212 -187 -249c-41 -12 -86 -15 -127 -15h-155l-31 -132h-175zM236 260h125c109 0 137 89 137 128c0 65 -41 92 -107 92h-106z" />
    <glyph glyph-name="thorn" unicode="&#xfe;" horiz-adv-x="625" 
d="M159 706h139l-52 -243c27 30 65 66 137 66c78 0 200 -47 200 -219c0 -170 -106 -324 -267 -324c-85 0 -119 30 -148 68l-55 -242h-154zM201 205c0 -81 54 -108 93 -108c102 0 136 134 136 205c0 84 -44 117 -89 117c-116 0 -140 -165 -140 -214z" />
    <glyph glyph-name="Zcaron" unicode="&#x17d;" horiz-adv-x="667" 
d="M698 706l-34 -145l-433 -424h365l-31 -137h-583l33 145l432 423h-340l32 138h559zM660 897l-137 -117h-191l-67 117h115l50 -78l69 78h161z" />
    <glyph glyph-name="zcaron" unicode="&#x17e;" horiz-adv-x="521" 
d="M532 515l-25 -110l-312 -291h259l-26 -114h-458l25 114l314 291h-249l25 110h447zM514 706l-126 -128h-168l-69 128h109l47 -74l70 74h137z" />
    <glyph glyph-name="onehalf" unicode="&#xbd;" horiz-adv-x="833" 
d="M449 0l14 67l184 150c16 13 57 49 57 87c0 28 -18 53 -49 53c-32 0 -59 -27 -59 -80c0 -6 0 -12 1 -19l-94 12c0 64 37 164 154 164c112 0 144 -78 144 -129c0 -74 -70 -127 -98 -148l-106 -77h174l-19 -80h-303zM677 678l-461 -678h-87l461 678h87zM331 676l-96 -424
h-100l70 309c-35 -9 -43 -11 -81 -11h-14l15 68c73 2 100 14 131 58h75z" />
    <glyph glyph-name="onequarter" unicode="&#xbc;" horiz-adv-x="833" 
d="M804 174l-16 -70h-62l-23 -104h-99l24 104h-178l18 80l215 240h116l-56 -250h61zM700 678l-461 -678h-86l461 678h86zM683 331l-139 -157h100zM331 676l-96 -424h-100l70 309c-35 -9 -43 -11 -81 -11h-14l15 68c73 2 100 14 131 58h75z" />
    <glyph glyph-name="onesuperior" unicode="&#xb9;" horiz-adv-x="375" 
d="M351 676l-96 -424h-100l70 309c-35 -9 -43 -11 -81 -11h-14l15 68c73 2 100 14 131 58h75z" />
    <glyph glyph-name="threequarters" unicode="&#xbe;" horiz-adv-x="833" 
d="M804 174l-16 -70h-62l-23 -104h-99l24 104h-178l18 80l215 240h116l-56 -250h61zM727 678l-461 -678h-87l461 678h87zM683 331l-139 -157h100zM178 436l14 65c8 -2 16 -3 25 -3c59 1 62 64 62 73c0 30 -23 42 -44 42c-54 0 -59 -58 -60 -68l-97 11c14 95 91 130 160 130
c103 0 141 -71 141 -117c0 -71 -59 -92 -83 -99c24 -15 55 -39 55 -89c0 -68 -63 -138 -171 -138c-115 0 -154 76 -154 130c0 3 1 19 1 19l102 11c-2 -8 -3 -16 -3 -24c0 -33 23 -60 57 -60c40 0 61 33 61 67c0 16 -6 50 -51 50h-15z" />
    <glyph glyph-name="threesuperior" unicode="&#xb3;" horiz-adv-x="375" 
d="M212 437l14 65c8 -2 16 -3 25 -3c59 1 62 64 62 73c0 30 -23 42 -44 42c-54 0 -59 -58 -60 -68l-97 11c14 95 91 130 160 130c103 0 141 -71 141 -117c0 -71 -59 -92 -83 -99c24 -15 55 -39 55 -89c0 -68 -63 -138 -171 -138c-115 0 -154 76 -154 130c0 3 1 19 1 19
l102 11c-2 -8 -3 -16 -3 -24c0 -33 23 -60 57 -60c40 0 61 33 61 67c0 16 -6 50 -51 50h-15z" />
    <glyph glyph-name="twosuperior" unicode="&#xb2;" horiz-adv-x="375" 
d="M46 252l14 67l184 150c16 13 57 49 57 87c0 28 -18 53 -49 53c-32 0 -59 -27 -59 -80c0 -6 0 -12 1 -19l-94 12c0 64 37 164 154 164c112 0 144 -78 144 -129c0 -74 -70 -127 -98 -148l-106 -77h174l-19 -80h-303z" />
    <glyph glyph-name="brokenbar" unicode="&#xa6;" horiz-adv-x="256" 
d="M302 778l-92 -402h-134l93 402h133zM182 257l-92 -401h-134l92 401h134z" />
    <glyph glyph-name="minus" unicode="&#x2212;" horiz-adv-x="724" 
d="M666 394l-32 -139h-565l32 139h565z" />
    <glyph glyph-name="multiply" unicode="&#xd7;" horiz-adv-x="724" 
d="M634 462l-167 -136l119 -148l-126 -102l-120 147l-166 -135l-81 100l166 135l-118 146l126 102l118 -145l168 136z" />
    <glyph glyph-name="uni00AD" unicode="&#xad;" horiz-adv-x="376" 
d="M358 380l-33 -143h-299l33 143h299z" />
    <glyph glyph-name="uni03BC" unicode="&#x3bc;" horiz-adv-x="637" 
d="M597 515l-80 -361c-2 -8 -3 -18 -3 -24c0 -17 8 -26 25 -26c10 0 14 1 31 8l-26 -112c-27 -7 -62 -12 -84 -12c-49 0 -93 20 -101 78c-24 -44 -61 -75 -108 -75c-37 0 -62 20 -70 57l-58 -264h-156l163 731h155l-66 -290c-4 -17 -8 -37 -8 -55c0 -37 17 -69 59 -69
c67 0 97 101 113 171l57 243h157z" />
    <glyph glyph-name="uni03A9" unicode="&#x3a9;" horiz-adv-x="767" 
d="M693 129l-31 -129h-300l31 131c52 16 88 46 119 102c33 60 53 131 53 193c0 99 -49 156 -132 156c-112 0 -191 -122 -191 -293c0 -69 12 -120 68 -158l-30 -131h-300l30 128h183c-80 44 -125 126 -125 228c0 83 28 168 75 231c68 91 169 137 298 137
c186 0 307 -105 307 -266c0 -150 -95 -282 -235 -329h180z" />
    <glyph glyph-name="uni0394" unicode="&#x394;" horiz-adv-x="745" 
d="M676 0h-746l436 706h202zM474 134l-54 397l-209 -397h263z" />
    <glyph glyph-name="uni2215" unicode="&#x2215;" horiz-adv-x="125" 
d="M352 678l-461 -678h-87l461 678h87z" />
    <glyph glyph-name="uni2219" unicode="&#x2219;" horiz-adv-x="250" 
d="M226 383l-37 -165h-158l37 165h158z" />
    <glyph glyph-name="uni02C9" unicode="&#x2c9;" horiz-adv-x="313" 
d="M349 695l-20 -92h-365l19 92h366z" />
    <glyph glyph-name="uni037E" unicode="&#x37e;" horiz-adv-x="292" 
d="M298 515l-37 -160h-157l37 160h157zM57 162h159l-25 -111c-28 -126 -94 -194 -213 -227l17 73c54 33 63 45 85 103h-60z" />
    <glyph glyph-name="zero.tab" horiz-adv-x="562" 
d="M551 441c0 -135 -81 -455 -311 -455c-33 0 -210 12 -210 248c0 175 96 461 308 461c80 0 213 -49 213 -254zM398 476c0 53 -11 101 -60 101c-82 0 -154 -254 -154 -391c0 -58 23 -82 58 -82c91 0 156 266 156 372z" />
    <glyph glyph-name="one.tab" horiz-adv-x="562" 
d="M472 678l-153 -678h-161l112 494c-66 -16 -84 -17 -152 -17l24 109c82 1 152 7 209 92h121z" />
    <glyph glyph-name="two.tab" horiz-adv-x="562" 
d="M476 0h-487l24 106l291 239c28 23 94 79 94 142c0 47 -31 85 -80 85c-54 0 -93 -48 -93 -132c0 -8 0 -17 1 -26l-149 18c2 135 82 263 248 263c108 0 229 -65 229 -207c0 -99 -81 -182 -157 -237l-171 -124h279z" />
    <glyph glyph-name="three.tab" horiz-adv-x="562" 
d="M564 504c0 -74 -44 -129 -133 -156c57 -30 87 -80 87 -143c0 -114 -108 -220 -271 -220c-173 0 -248 103 -248 217c0 9 1 16 1 22l163 17c-1 -4 -5 -24 -5 -39c0 -52 38 -94 89 -94c86 0 99 81 99 107c0 45 -29 80 -82 80c-7 0 -14 0 -22 -1l22 104c14 -3 22 -4 37 -4
c76 0 102 63 102 112c0 16 -1 71 -72 71c-85 0 -93 -96 -94 -109l-155 18c0 92 94 209 251 209c149 0 231 -98 231 -191z" />
    <glyph glyph-name="four.tab" horiz-adv-x="562" 
d="M552 279l-26 -113h-99l-38 -166h-158l38 166h-285l30 128l344 384h185l-90 -399h99zM357 530l-222 -251h161z" />
    <glyph glyph-name="five.tab" horiz-adv-x="562" 
d="M536 678l-29 -126h-267l-30 -117c22 15 51 36 112 36c102 0 198 -61 198 -202c0 -113 -94 -283 -285 -283c-149 0 -226 92 -226 226l161 7s-1 -23 -1 -26c0 -42 26 -83 74 -83c53 0 110 62 110 153c0 75 -46 98 -80 98c-40 0 -70 -29 -90 -60l-136 23l85 354h404z" />
    <glyph glyph-name="six.tab" horiz-adv-x="562" 
d="M562 514l-150 -20c-5 22 -9 80 -67 80c-73 0 -122 -110 -131 -181c26 30 59 67 127 67c92 0 176 -80 176 -194c0 -107 -81 -281 -256 -281c-151 0 -219 140 -219 276c0 167 92 434 327 434c143 0 182 -105 193 -181zM355 252c0 9 0 93 -62 93c-56 0 -91 -90 -91 -143
c0 -64 33 -95 62 -95c45 0 91 66 91 145z" />
    <glyph glyph-name="seven.tab" horiz-adv-x="562" 
d="M586 678l-27 -120c-34 -36 -67 -72 -99 -111c-110 -136 -179 -284 -199 -338c-14 -36 -22 -72 -31 -109h-180c13 50 34 129 95 237c69 121 147 210 238 314h-323l28 127h498z" />
    <glyph glyph-name="eight.tab" horiz-adv-x="562" 
d="M542 516c0 -99 -68 -141 -123 -157c46 -25 101 -55 101 -149c0 -108 -86 -225 -258 -225c-104 0 -231 60 -231 201c0 115 70 172 160 187c-8 7 -79 34 -79 129c0 92 81 193 223 193c131 0 207 -76 207 -179zM389 510c0 46 -22 78 -57 78c-50 0 -72 -62 -72 -104
c0 -56 34 -78 58 -78c47 0 71 58 71 104zM354 204c0 36 -19 87 -77 87c-62 0 -88 -67 -88 -116c0 -68 53 -83 77 -83c46 0 88 43 88 112z" />
    <glyph glyph-name="nine.tab" horiz-adv-x="562" 
d="M535 418c0 -115 -63 -433 -327 -433c-139 0 -180 101 -194 180l151 20c4 -27 10 -79 67 -79c80 0 122 122 131 180c-27 -29 -60 -66 -127 -66c-108 0 -176 90 -176 194c0 100 72 280 256 280c144 0 219 -129 219 -276zM375 478c0 65 -34 94 -62 94
c-48 0 -91 -67 -91 -149c0 -18 4 -89 61 -89c55 0 92 88 92 144z" />
    <glyph glyph-name="Amacron" unicode="&#x100;" horiz-adv-x="708" 
d="M635 0h-172l-9 140h-260l-78 -140h-185l431 706h198zM446 268l-19 290l-161 -290h180zM673 876l-21 -95h-372l20 95h373z" />
    <glyph glyph-name="amacron" unicode="&#x101;" 
d="M480 0h-148c-2 8 -5 15 -5 24c0 6 6 28 9 48c-8 -18 -50 -87 -171 -87c-97 0 -155 58 -155 146c0 46 19 85 47 115c62 67 186 73 332 81c4 15 10 39 10 55c0 51 -58 52 -72 52c-57 0 -81 -32 -91 -73c0 0 -130 4 -154 5c28 107 96 166 264 166c158 0 205 -70 205 -135
c0 -27 0 -37 -10 -79l-60 -267c-3 -12 -4 -24 -4 -29c0 -4 1 -11 3 -22zM366 231h-15c-140 0 -186 -42 -186 -83c0 -10 1 -53 63 -53c71 0 120 48 138 136zM571 695l-20 -92h-365l19 92h366z" />
    <glyph glyph-name="Abreve" unicode="&#x102;" horiz-adv-x="708" 
d="M635 0h-172l-9 140h-260l-78 -140h-185l431 706h198zM446 268l-19 290l-161 -290h180zM552 897h116c-22 -85 -97 -127 -190 -127c-114 0 -167 57 -167 116v11h114c0 -17 6 -50 57 -50c48 0 64 32 70 50z" />
    <glyph glyph-name="abreve" unicode="&#x103;" 
d="M480 0h-148c-2 8 -5 15 -5 24c0 6 6 28 9 48c-8 -18 -50 -87 -171 -87c-97 0 -155 58 -155 146c0 46 19 85 47 115c62 67 186 73 332 81c4 15 10 39 10 55c0 51 -58 52 -72 52c-57 0 -81 -32 -91 -73c0 0 -130 4 -154 5c28 107 96 166 264 166c158 0 205 -70 205 -135
c0 -27 0 -37 -10 -79l-60 -267c-3 -12 -4 -24 -4 -29c0 -4 1 -11 3 -22zM366 231h-15c-140 0 -186 -42 -186 -83c0 -10 1 -53 63 -53c71 0 120 48 138 136zM441 706h122c-6 -22 -13 -46 -29 -68c-49 -66 -132 -70 -155 -70c-117 0 -173 56 -173 138h120c0 -18 0 -54 51 -54
c48 0 58 35 64 54z" />
    <glyph glyph-name="Aogonek" unicode="&#x104;" horiz-adv-x="708" 
d="M116 0h-185l431 706h198l75 -706h-77c-29 -3 -58 -42 -58 -77c0 -15 10 -55 56 -55c21 0 33 7 42 13l23 -38c-46 -35 -101 -35 -113 -35c-42 0 -98 23 -98 79c0 49 34 79 77 113h-24l-9 140h-260zM446 268l-19 290l-161 -290h180z" />
    <glyph glyph-name="aogonek" unicode="&#x105;" 
d="M456 -119l23 -38c-46 -35 -101 -35 -113 -35c-42 0 -98 23 -98 79c0 49 34 79 77 113h-13c-2 8 -5 15 -5 24c0 6 6 28 9 48c-8 -18 -50 -87 -171 -87c-97 0 -155 58 -155 146c0 46 19 85 47 115c62 67 186 73 332 81c4 15 10 39 10 55c0 51 -58 52 -72 52
c-57 0 -81 -32 -91 -73c0 0 -130 4 -154 5c28 107 96 166 264 166c158 0 205 -70 205 -135c0 -27 0 -37 -10 -79l-60 -267c-3 -12 -4 -24 -4 -29c0 -4 1 -11 3 -22h-64c-30 -4 -58 -42 -58 -77c0 -15 10 -55 56 -55c21 0 33 7 42 13zM366 231h-15c-140 0 -186 -42 -186 -83
c0 -10 1 -53 63 -53c71 0 120 48 138 136z" />
    <glyph glyph-name="Cacute" unicode="&#x106;" horiz-adv-x="729" 
d="M738 524l-169 -38c-10 31 -36 101 -128 101c-113 0 -200 -125 -200 -277c0 -133 74 -182 134 -182c77 0 142 71 167 139l147 -82c-43 -76 -127 -203 -318 -203c-172 0 -317 113 -317 327c0 236 164 415 383 415c168 0 265 -88 301 -200zM634 911l-162 -131h-101l76 131
h187z" />
    <glyph glyph-name="cacute" unicode="&#x107;" horiz-adv-x="582" 
d="M566 356l-138 -30c-20 82 -77 85 -101 85c-89 0 -141 -105 -141 -187c0 -27 5 -115 105 -115c73 0 98 64 106 85l140 -43c-21 -46 -90 -166 -255 -166c-146 0 -255 99 -255 245c0 161 126 302 302 302c158 0 217 -105 237 -176zM526 742l-165 -162h-94l94 162h165z" />
    <glyph glyph-name="Ccircumflex" unicode="&#x108;" horiz-adv-x="729" 
d="M738 524l-169 -38c-10 31 -36 101 -128 101c-113 0 -200 -125 -200 -277c0 -133 74 -182 134 -182c77 0 142 71 167 139l147 -82c-43 -76 -127 -203 -318 -203c-172 0 -317 113 -317 327c0 236 164 415 383 415c168 0 265 -88 301 -200zM663 782h-115l-49 77l-70 -77
h-161l137 116h192z" />
    <glyph glyph-name="ccircumflex" unicode="&#x109;" horiz-adv-x="582" 
d="M566 356l-138 -30c-20 82 -77 85 -101 85c-89 0 -141 -105 -141 -187c0 -27 5 -115 105 -115c73 0 98 64 106 85l140 -43c-21 -46 -90 -166 -255 -166c-146 0 -255 99 -255 245c0 161 126 302 302 302c158 0 217 -105 237 -176zM531 580h-110l-47 74l-70 -74h-138
l126 126h169z" />
    <glyph glyph-name="Cdotaccent" unicode="&#x10a;" horiz-adv-x="729" 
d="M738 524l-169 -38c-10 31 -36 101 -128 101c-113 0 -200 -125 -200 -277c0 -133 74 -182 134 -182c77 0 142 71 167 139l147 -82c-43 -76 -127 -203 -318 -203c-172 0 -317 113 -317 327c0 236 164 415 383 415c168 0 265 -88 301 -200zM579 897l-27 -114h-163l26 114
h164z" />
    <glyph glyph-name="cdotaccent" unicode="&#x10b;" horiz-adv-x="582" 
d="M566 356l-138 -30c-20 82 -77 85 -101 85c-89 0 -141 -105 -141 -187c0 -27 5 -115 105 -115c73 0 98 64 106 85l140 -43c-21 -46 -90 -166 -255 -166c-146 0 -255 99 -255 245c0 161 126 302 302 302c158 0 217 -105 237 -176zM452 694l-26 -116h-163l25 116h164z" />
    <glyph glyph-name="Ccaron" unicode="&#x10c;" horiz-adv-x="729" 
d="M738 524l-169 -38c-10 31 -36 101 -128 101c-113 0 -200 -125 -200 -277c0 -133 74 -182 134 -182c77 0 142 71 167 139l147 -82c-43 -76 -127 -203 -318 -203c-172 0 -317 113 -317 327c0 236 164 415 383 415c168 0 265 -88 301 -200zM688 897l-137 -117h-191l-67 117
h115l50 -78l69 78h161z" />
    <glyph glyph-name="ccaron" unicode="&#x10d;" horiz-adv-x="582" 
d="M566 356l-138 -30c-20 82 -77 85 -101 85c-89 0 -141 -105 -141 -187c0 -27 5 -115 105 -115c73 0 98 64 106 85l140 -43c-21 -46 -90 -166 -255 -166c-146 0 -255 99 -255 245c0 161 126 302 302 302c158 0 217 -105 237 -176zM558 706l-126 -128h-168l-69 128h109
l47 -74l70 74h137z" />
    <glyph glyph-name="Dcaron" unicode="&#x10e;" horiz-adv-x="750" 
d="M161 706h273c196 0 291 -106 291 -280c0 -175 -86 -341 -248 -399c-53 -19 -113 -27 -228 -27h-248zM302 571l-98 -435h77c59 0 118 4 164 44c36 32 100 114 100 243c0 126 -76 148 -154 148h-89zM632 897l-137 -117h-191l-67 117h115l50 -78l69 78h161z" />
    <glyph glyph-name="dcaron" unicode="&#x10f;" horiz-adv-x="625" 
d="M658 706l-160 -706h-154l7 36c-15 -12 -62 -50 -138 -50c-101 0 -184 77 -184 217c0 146 94 329 274 329c24 0 104 -5 145 -70l55 244h155zM411 309c0 61 -35 102 -86 102c-98 0 -141 -124 -141 -205c0 -82 42 -103 85 -103c95 0 142 120 142 206zM687 706h116l-16 -73
c-15 -67 -70 -95 -136 -103l10 43c28 6 51 20 58 49h-50z" />
    <glyph glyph-name="Dcroat" unicode="&#x110;" horiz-adv-x="750" 
d="M161 706h279c241 0 285 -159 285 -283c0 -137 -63 -332 -249 -397c-67 -23 -150 -26 -217 -26h-259l74 328h-67l22 96h68zM301 571l-33 -147h180l-22 -96h-180l-43 -192h78c42 0 97 2 139 26c60 35 125 135 125 264c0 145 -113 145 -156 145h-88z" />
    <glyph glyph-name="dcroat" unicode="&#x111;" horiz-adv-x="625" 
d="M658 706l-15 -66h69l-18 -79h-68l-128 -561h-154l7 36c-15 -12 -62 -50 -138 -50c-101 0 -184 77 -184 217c0 146 94 329 274 329c24 0 104 -5 145 -70l23 99h-164l18 79h163l15 66h155zM411 309c0 61 -35 102 -86 102c-98 0 -141 -124 -141 -205c0 -82 42 -103 85 -103
c98 0 142 120 142 206z" />
    <glyph glyph-name="Emacron" unicode="&#x112;" horiz-adv-x="667" 
d="M669 706l-31 -135h-335l-31 -137h323l-29 -129h-323l-39 -171h385l-29 -134h-560l161 706h508zM631 876l-21 -95h-372l20 95h373z" />
    <glyph glyph-name="emacron" unicode="&#x113;" 
d="M555 230h-375s-1 -12 -1 -21c0 -49 25 -105 105 -105c53 0 98 28 122 76l129 -45c-43 -72 -104 -150 -255 -150c-141 0 -251 89 -251 248c0 134 95 300 293 300c132 0 237 -75 237 -235c0 -23 -2 -46 -4 -68zM200 327h221v6c0 48 -35 92 -98 92c-65 0 -103 -47 -123 -98z
M541 695l-20 -92h-365l19 92h366z" />
    <glyph glyph-name="Ebreve" unicode="&#x114;" horiz-adv-x="667" 
d="M669 706l-31 -135h-335l-31 -137h323l-29 -129h-323l-39 -171h385l-29 -134h-560l161 706h508zM487 897h116c-22 -85 -97 -127 -190 -127c-114 0 -167 57 -167 116v11h114c0 -17 6 -50 57 -50c48 0 64 32 70 50z" />
    <glyph glyph-name="ebreve" unicode="&#x115;" 
d="M555 230h-375s-1 -12 -1 -21c0 -49 25 -105 105 -105c53 0 98 28 122 76l129 -45c-43 -72 -104 -150 -255 -150c-141 0 -251 89 -251 248c0 134 95 300 293 300c132 0 237 -75 237 -235c0 -23 -2 -46 -4 -68zM200 327h221v6c0 48 -35 92 -98 92c-65 0 -103 -47 -123 -98z
M418 706h122c-6 -22 -13 -46 -29 -68c-49 -66 -132 -70 -155 -70c-117 0 -173 56 -173 138h120c0 -18 0 -54 51 -54c48 0 58 35 64 54z" />
    <glyph glyph-name="Edotaccent" unicode="&#x116;" horiz-adv-x="667" 
d="M669 706l-31 -135h-335l-31 -137h323l-29 -129h-323l-39 -171h385l-29 -134h-560l161 706h508zM528 897l-27 -114h-163l26 114h164z" />
    <glyph glyph-name="edotaccent" unicode="&#x117;" 
d="M555 230h-375s-1 -12 -1 -21c0 -49 25 -105 105 -105c53 0 98 28 122 76l129 -45c-43 -72 -104 -150 -255 -150c-141 0 -251 89 -251 248c0 134 95 300 293 300c132 0 237 -75 237 -235c0 -23 -2 -46 -4 -68zM200 327h221v6c0 48 -35 92 -98 92c-65 0 -103 -47 -123 -98z
M445 694l-26 -116h-163l25 116h164z" />
    <glyph glyph-name="Eogonek" unicode="&#x118;" horiz-adv-x="667" 
d="M589 134l-29 -134h-77c-28 -2 -58 -42 -58 -77c0 -15 10 -55 56 -55c21 0 33 7 42 13l23 -38c-46 -35 -101 -35 -113 -35c-42 0 -98 23 -98 79c0 49 34 79 77 113h-412l161 706h508l-31 -135h-335l-31 -137h323l-29 -129h-323l-39 -171h385z" />
    <glyph glyph-name="eogonek" unicode="&#x119;" 
d="M555 230h-375s-1 -12 -1 -21c0 -49 25 -105 105 -105c53 0 98 28 122 76l129 -45c-36 -60 -66 -103 -151 -134c-54 -20 -67 -49 -67 -78c0 -15 10 -55 56 -55c21 0 33 7 42 13l23 -38c-46 -35 -101 -35 -113 -35c-42 0 -98 23 -98 79c0 42 25 70 59 98h-7
c-141 0 -250 89 -250 248c0 134 95 300 293 300c132 0 237 -75 237 -235c0 -23 -2 -46 -4 -68zM200 327h221v6c0 48 -35 92 -98 92c-65 0 -103 -47 -123 -98z" />
    <glyph glyph-name="Ecaron" unicode="&#x11a;" horiz-adv-x="667" 
d="M669 706l-31 -135h-335l-31 -137h323l-29 -129h-323l-39 -171h385l-29 -134h-560l161 706h508zM642 897l-137 -117h-191l-67 117h115l50 -78l69 78h161z" />
    <glyph glyph-name="ecaron" unicode="&#x11b;" 
d="M555 230h-375s-1 -12 -1 -21c0 -49 25 -105 105 -105c53 0 98 28 122 76l129 -45c-43 -72 -104 -150 -255 -150c-141 0 -251 89 -251 248c0 134 95 300 293 300c132 0 237 -75 237 -235c0 -23 -2 -46 -4 -68zM200 327h221v6c0 48 -35 92 -98 92c-65 0 -103 -47 -123 -98z
M541 706l-126 -128h-168l-69 128h109l47 -74l70 74h137z" />
    <glyph glyph-name="Gcircumflex" unicode="&#x11c;" horiz-adv-x="812" 
d="M751 382l-85 -382h-158l13 59c-44 -41 -84 -78 -177 -78c-160 0 -291 113 -291 320c0 214 141 424 396 424c127 0 268 -59 303 -198l-168 -44c-18 56 -45 103 -136 103c-136 0 -207 -154 -207 -283c0 -103 48 -187 157 -187c77 0 139 47 161 131h-147l30 135h309z
M670 782h-115l-49 77l-70 -77h-161l137 116h192z" />
    <glyph glyph-name="gcircumflex" unicode="&#x11d;" horiz-adv-x="625" 
d="M606 515l-110 -485c-34 -151 -109 -224 -288 -224c-164 0 -237 75 -237 149c0 18 6 43 6 45h160c-4 -15 -5 -22 -5 -30c0 -60 83 -61 90 -61c104 0 119 95 131 159c-20 -17 -59 -51 -128 -51c-114 0 -195 78 -195 213c0 147 106 305 269 305c27 0 99 -5 146 -68l12 48
h149zM182 228c0 -49 25 -103 95 -103c124 0 132 184 132 193c0 21 -8 100 -91 100c-81 0 -136 -105 -136 -190zM533 580h-110l-47 74l-70 -74h-138l126 126h169z" />
    <glyph glyph-name="Gbreve" unicode="&#x11e;" horiz-adv-x="812" 
d="M751 382l-85 -382h-158l13 59c-44 -41 -84 -78 -177 -78c-160 0 -291 113 -291 320c0 214 141 424 396 424c127 0 268 -59 303 -198l-168 -44c-18 56 -45 103 -136 103c-136 0 -207 -154 -207 -283c0 -103 48 -187 157 -187c77 0 139 47 161 131h-147l30 135h309z
M553 897h116c-22 -85 -97 -127 -190 -127c-114 0 -167 57 -167 116v11h114c0 -17 6 -50 57 -50c48 0 64 32 70 50z" />
    <glyph glyph-name="gbreve" unicode="&#x11f;" horiz-adv-x="625" 
d="M606 515l-110 -485c-34 -151 -109 -224 -288 -224c-164 0 -237 75 -237 149c0 18 6 43 6 45h160c-4 -15 -5 -22 -5 -30c0 -60 83 -61 90 -61c104 0 119 95 131 159c-20 -17 -59 -51 -128 -51c-114 0 -195 78 -195 213c0 147 106 305 269 305c27 0 99 -5 146 -68l12 48
h149zM182 228c0 -49 25 -103 95 -103c124 0 132 184 132 193c0 21 -8 100 -91 100c-81 0 -136 -105 -136 -190zM449 706h122c-6 -22 -13 -46 -29 -68c-49 -66 -132 -70 -155 -70c-117 0 -173 56 -173 138h120c0 -18 0 -54 51 -54c48 0 58 35 64 54z" />
    <glyph glyph-name="Gdotaccent" unicode="&#x120;" horiz-adv-x="812" 
d="M751 382l-85 -382h-158l13 59c-44 -41 -84 -78 -177 -78c-160 0 -291 113 -291 320c0 214 141 424 396 424c127 0 268 -59 303 -198l-168 -44c-18 56 -45 103 -136 103c-136 0 -207 -154 -207 -283c0 -103 48 -187 157 -187c77 0 139 47 161 131h-147l30 135h309z
M582 897l-27 -114h-163l26 114h164z" />
    <glyph glyph-name="gdotaccent" unicode="&#x121;" horiz-adv-x="625" 
d="M606 515l-110 -485c-34 -151 -109 -224 -288 -224c-164 0 -237 75 -237 149c0 18 6 43 6 45h160c-4 -15 -5 -22 -5 -30c0 -60 83 -61 90 -61c104 0 119 95 131 159c-20 -17 -59 -51 -128 -51c-114 0 -195 78 -195 213c0 147 106 305 269 305c27 0 99 -5 146 -68l12 48
h149zM182 228c0 -49 25 -103 95 -103c124 0 132 184 132 193c0 21 -8 100 -91 100c-81 0 -136 -105 -136 -190zM450 694l-26 -116h-163l25 116h164z" />
    <glyph glyph-name="Gcommaaccent" unicode="&#x122;" horiz-adv-x="812" 
d="M751 382l-85 -382h-158l13 59c-44 -41 -84 -78 -177 -78c-160 0 -291 113 -291 320c0 214 141 424 396 424c127 0 268 -59 303 -198l-168 -44c-18 56 -45 103 -136 103c-136 0 -207 -154 -207 -283c0 -103 48 -187 157 -187c77 0 139 47 161 131h-147l30 135h309z
M271 -118l17 82h112l-8 -38c-18 -85 -47 -120 -131 -122l8 38c25 3 37 11 43 40h-41z" />
    <glyph glyph-name="gcommaaccent" unicode="&#x123;" horiz-adv-x="625" 
d="M423 668l-17 -82h-112l8 38c18 85 47 120 131 122l-8 -38c-25 -3 -37 -11 -43 -40h41zM606 515l-110 -485c-34 -151 -109 -224 -288 -224c-164 0 -237 75 -237 149c0 18 6 43 6 45h160c-4 -15 -5 -22 -5 -30c0 -60 83 -61 90 -61c104 0 119 95 131 159
c-20 -17 -59 -51 -128 -51c-114 0 -195 78 -195 213c0 147 106 305 269 305c27 0 99 -5 146 -68l12 48h149zM182 228c0 -49 25 -103 95 -103c124 0 132 184 132 193c0 21 -8 100 -91 100c-81 0 -136 -105 -136 -190z" />
    <glyph glyph-name="Hbar" unicode="&#x126;" horiz-adv-x="750" 
d="M56 501l30 119h55l20 86h175l-20 -86h262l20 86h176l-20 -86h56l-28 -119h-55l-113 -501h-176l71 313h-263l-71 -313h-175l114 501h-58zM278 449h262l11 52h-262z" />
    <glyph glyph-name="hbar" unicode="&#x127;" 
d="M78 641h69l15 65h155l-15 -65h130l-19 -80h-129l-24 -107c19 21 66 73 149 73c98 0 143 -66 143 -133c0 -23 -7 -55 -8 -59l-78 -335h-154l62 274c8 36 13 55 13 72c0 36 -21 63 -61 63c-49 0 -87 -44 -104 -120l-66 -289h-155l128 561h-70z" />
    <glyph glyph-name="Hcircumflex" unicode="&#x124;" horiz-adv-x="750" 
d="M774 706l-160 -706h-176l71 313h-263l-71 -313h-175l161 706h175l-58 -257h262l58 257h176zM663 782h-115l-49 77l-70 -77h-161l137 116h192z" />
    <glyph glyph-name="hcircumflex" unicode="&#x125;" 
d="M162 706h155l-57 -252c19 21 66 73 149 73c98 0 143 -66 143 -133c0 -23 -7 -55 -8 -59l-78 -335h-154l62 274c8 36 13 55 13 72c0 36 -21 63 -61 63c-49 0 -87 -44 -104 -120l-66 -289h-155zM424 782h-115l-49 77l-70 -77h-161l137 116h192z" />
    <glyph glyph-name="Itilde" unicode="&#x128;" horiz-adv-x="313" 
d="M336 706l-158 -706h-176l158 706h176zM387 902h75c-32 -104 -86 -136 -132 -136c-33 0 -61 15 -75 23l-26 13c-18 9 -32 13 -45 13c-29 0 -39 -24 -46 -44h-73c7 28 39 135 126 135c21 0 43 -3 81 -21l19 -9c20 -10 35 -14 50 -14c26 0 41 20 46 40z" />
    <glyph glyph-name="itilde" unicode="&#x129;" horiz-adv-x="292" 
d="M273 515l-117 -515h-156l119 515h154zM330 720h72c-34 -129 -91 -139 -124 -139c-26 0 -44 9 -66 21l-23 13c-17 9 -29 14 -40 14c-22 0 -33 -22 -41 -47h-69c6 41 34 139 117 139c20 0 35 -2 69 -20l19 -10c20 -11 33 -17 46 -17c22 0 33 23 40 46z" />
    <glyph glyph-name="uni012A" unicode="&#x12a;" horiz-adv-x="313" 
d="M336 706l-158 -706h-176l158 706h176zM437 876l-21 -95h-322l20 95h323z" />
    <glyph glyph-name="imacron" unicode="&#x12b;" horiz-adv-x="292" 
d="M273 515l-117 -515h-156l119 515h154zM387 695l-20 -92h-325l19 92h326z" />
    <glyph glyph-name="Ibreve" unicode="&#x12c;" horiz-adv-x="313" 
d="M336 706l-158 -706h-176l158 706h176zM338 897h116c-22 -85 -97 -127 -190 -127c-114 0 -167 57 -167 116v11h114c0 -17 6 -50 57 -50c48 0 64 32 70 50z" />
    <glyph glyph-name="uni012D" unicode="&#x12d;" horiz-adv-x="292" 
d="M273 515l-117 -515h-156l119 515h154zM281 706h122c-6 -22 -13 -46 -29 -68c-49 -66 -132 -70 -155 -70c-117 0 -173 56 -173 138h120c0 -18 0 -54 51 -54c48 0 58 35 64 54z" />
    <glyph glyph-name="Iogonek" unicode="&#x12e;" horiz-adv-x="313" 
d="M43 0h-41l158 706h176l-158 -706h-65c-30 -6 -57 -42 -57 -77c0 -15 10 -55 56 -55c21 0 33 7 42 13l23 -38c-46 -35 -101 -35 -113 -35c-42 0 -98 23 -98 79c0 49 34 79 77 113z" />
    <glyph glyph-name="iogonek" unicode="&#x12f;" horiz-adv-x="292" 
d="M38 0h-37l117 515h155l-117 -515h-48c-28 -4 -57 -42 -57 -77c0 -15 10 -55 56 -55c21 0 33 7 42 13l23 -38c-46 -35 -101 -35 -113 -35c-42 0 -98 23 -98 79c0 49 34 79 77 113zM316 706l-26 -117h-155l27 117h154z" />
    <glyph glyph-name="Idotaccent" unicode="&#x130;" horiz-adv-x="313" 
d="M336 706l-158 -706h-176l158 706h176zM370 897l-27 -114h-163l26 114h164z" />
    <glyph glyph-name="IJ" unicode="&#x132;" horiz-adv-x="709" 
d="M336 706l-158 -706h-176l158 706h176zM558 706h175l-118 -527c-30 -135 -101 -179 -223 -179h-136l34 147h44c67 0 102 15 119 92z" />
    <glyph glyph-name="ij" unicode="&#x133;" horiz-adv-x="605" 
d="M316 706l-26 -117h-155l27 117h154zM273 515l-117 -515h-155l117 515h155zM630 706l-27 -117h-155l27 117h155zM586 515l-121 -524c-22 -97 -58 -171 -218 -171c-24 0 -51 1 -75 2l29 124c15 -1 28 -1 38 -1c37 0 63 8 75 59l117 511h155z" />
    <glyph glyph-name="Jcircumflex" unicode="&#x134;" horiz-adv-x="396" 
d="M245 706h175l-118 -527c-30 -135 -101 -179 -223 -179h-136l34 147h44c67 0 102 15 119 92zM517 782h-115l-49 77l-70 -77h-161l137 116h192z" />
    <glyph glyph-name="jcircumflex" unicode="&#x135;" horiz-adv-x="313" 
d="M294 515l-121 -524c-22 -97 -58 -171 -218 -171c-24 0 -51 1 -75 2l29 124c15 -1 28 -1 38 -1c37 0 63 8 75 59l117 511h155zM393 580h-110l-47 74l-70 -74h-138l126 126h169z" />
    <glyph glyph-name="Kcommaaccent" unicode="&#x136;" horiz-adv-x="729" 
d="M778 706l-309 -282l204 -424h-185l-144 313l-135 -123l-42 -190h-168l159 706h167l-65 -290l308 290h210zM255 -118l17 82h112l-8 -38c-18 -85 -47 -120 -131 -122l8 38c25 3 37 11 43 40h-41z" />
    <glyph glyph-name="kcommaaccent" unicode="&#x137;" horiz-adv-x="583" 
d="M630 515l-234 -194l140 -321h-166l-94 226l-87 -72l-34 -154h-154l160 706h153l-80 -357l192 166h204zM190 -118l17 82h112l-8 -38c-18 -85 -47 -120 -131 -122l8 38c25 3 37 11 43 40h-41z" />
    <glyph glyph-name="kgreenlandic" unicode="&#x138;" horiz-adv-x="583" 
d="M630 515l-234 -194l140 -321h-166l-94 226l-87 -72l-34 -154h-154l117 515h153l-37 -166l192 166h204z" />
    <glyph glyph-name="Lacute" unicode="&#x139;" horiz-adv-x="562" 
d="M506 143l-33 -143h-472l159 706h175l-127 -563h298zM452 911l-162 -131h-101l76 131h187z" />
    <glyph glyph-name="lacute" unicode="&#x13a;" horiz-adv-x="292" 
d="M314 706l-158 -706h-154l157 706h155zM444 911l-162 -131h-101l76 131h187z" />
    <glyph glyph-name="Lcommaaccent" unicode="&#x13b;" horiz-adv-x="562" 
d="M506 143l-33 -143h-472l159 706h175l-127 -563h298zM169 -118l17 82h112l-8 -38c-18 -85 -47 -120 -131 -122l8 38c25 3 37 11 43 40h-41z" />
    <glyph glyph-name="lcommaaccent" unicode="&#x13c;" horiz-adv-x="292" 
d="M314 706l-158 -706h-154l157 706h155zM-2 -118l17 82h112l-8 -38c-18 -85 -47 -120 -131 -122l8 38c25 3 37 11 43 40h-41z" />
    <glyph glyph-name="Lcaron" unicode="&#x13d;" horiz-adv-x="562" 
d="M506 143l-33 -143h-472l159 706h175l-127 -563h298zM374 706h116l-16 -73c-15 -67 -70 -95 -136 -103l10 43c28 6 51 20 58 49h-50z" />
    <glyph glyph-name="lcaron" unicode="&#x13e;" horiz-adv-x="292" 
d="M314 706l-158 -706h-154l157 706h155zM343 706h116l-16 -73c-15 -67 -70 -95 -136 -103l10 43c28 6 51 20 58 49h-50z" />
    <glyph glyph-name="Ldot" unicode="&#x13f;" horiz-adv-x="562" 
d="M506 143l-33 -143h-472l159 706h175l-127 -563h298zM539 471l-37 -162h-157l36 162h158z" />
    <glyph glyph-name="ldot" unicode="&#x140;" horiz-adv-x="402" 
d="M314 706l-158 -706h-154l157 706h155zM454 444l-34 -155h-151l33 155h152z" />
    <glyph glyph-name="Nacute" unicode="&#x143;" horiz-adv-x="708" 
d="M733 706l-161 -706h-172l-139 453l-100 -453h-162l162 706h174l141 -455l96 455h161zM646 911l-162 -131h-101l76 131h187z" />
    <glyph glyph-name="nacute" unicode="&#x144;" 
d="M119 515h154l-14 -62c18 20 66 75 150 75c108 0 142 -78 142 -134c0 -17 -6 -52 -8 -61l-76 -333h-154l67 304c1 6 6 27 6 48c0 49 -43 57 -59 57c-65 0 -93 -71 -104 -119l-67 -290h-154zM537 742l-165 -162h-94l94 162h165z" />
    <glyph glyph-name="Ncommaaccent" unicode="&#x145;" horiz-adv-x="708" 
d="M733 706l-161 -706h-172l-139 453l-100 -453h-162l162 706h174l141 -455l96 455h161zM231 -118l17 82h112l-8 -38c-18 -85 -47 -120 -131 -122l8 38c25 3 37 11 43 40h-41z" />
    <glyph glyph-name="ncommaaccent" unicode="&#x146;" 
d="M119 515h154l-14 -62c18 20 66 75 150 75c108 0 142 -78 142 -134c0 -17 -6 -52 -8 -61l-76 -333h-154l67 304c1 6 6 27 6 48c0 49 -43 57 -59 57c-65 0 -93 -71 -104 -119l-67 -290h-154zM155 -118l17 82h112l-8 -38c-18 -85 -47 -120 -131 -122l8 38c25 3 37 11 43 40
h-41z" />
    <glyph glyph-name="Ncaron" unicode="&#x147;" horiz-adv-x="708" 
d="M733 706l-161 -706h-172l-139 453l-100 -453h-162l162 706h174l141 -455l96 455h161zM668 897l-137 -117h-191l-67 117h115l50 -78l69 78h161z" />
    <glyph glyph-name="ncaron" unicode="&#x148;" 
d="M119 515h154l-14 -62c18 20 66 75 150 75c108 0 142 -78 142 -134c0 -17 -6 -52 -8 -61l-76 -333h-154l67 304c1 6 6 27 6 48c0 49 -43 57 -59 57c-65 0 -93 -71 -104 -119l-67 -290h-154zM540 706l-126 -128h-168l-69 128h109l47 -74l70 74h137z" />
    <glyph glyph-name="napostrophe" unicode="&#x149;" 
d="M119 515h154l-14 -62c18 20 66 75 150 75c108 0 142 -78 142 -134c0 -17 -6 -52 -8 -61l-76 -333h-154l67 304c1 6 6 27 6 48c0 49 -43 57 -59 57c-65 0 -93 -71 -104 -119l-67 -290h-154zM76 706h116l-16 -73c-15 -67 -70 -95 -136 -103l10 43c28 6 51 20 58 49h-50z
" />
    <glyph glyph-name="Eng" unicode="&#x14a;" horiz-adv-x="708" 
d="M733 706l-165 -723c-24 -105 -50 -171 -212 -171c-24 0 -53 1 -75 4l29 123c17 -2 30 -3 40 -3c34 0 52 9 58 35l-147 482l-100 -453h-162l162 706h174l141 -455l96 455h161z" />
    <glyph glyph-name="eng" unicode="&#x14b;" 
d="M119 515h154l-14 -62c18 20 66 75 150 75c108 0 142 -78 142 -134c0 -17 -6 -52 -8 -61l-77 -336c-25 -108 -58 -171 -218 -171c-24 0 -48 2 -66 5l29 123c16 -3 25 -3 35 -3c41 0 58 12 69 62l65 291c1 6 6 27 6 48c0 49 -43 57 -59 57c-65 0 -93 -71 -104 -119
l-67 -290h-154z" />
    <glyph glyph-name="Omacron" unicode="&#x14c;" horiz-adv-x="792" 
d="M769 423c0 -167 -109 -440 -407 -440c-221 0 -314 129 -314 307c0 182 121 435 407 435c209 0 314 -136 314 -302zM593 424c0 94 -56 157 -151 157c-173 0 -216 -214 -216 -299c0 -99 63 -159 145 -159c148 0 222 175 222 301zM694 876l-21 -95h-372l20 95h373z" />
    <glyph glyph-name="omacron" unicode="&#x14d;" horiz-adv-x="625" 
d="M581 291c0 -117 -87 -306 -303 -306c-181 0 -249 130 -249 247c0 128 98 301 303 301c139 0 249 -87 249 -242zM423 294c0 60 -27 118 -100 118c-77 0 -138 -82 -138 -186c0 -93 57 -119 103 -119c91 0 135 104 135 187zM555 695l-20 -92h-365l19 92h366z" />
    <glyph glyph-name="Obreve" unicode="&#x14e;" horiz-adv-x="792" 
d="M769 423c0 -167 -109 -440 -407 -440c-221 0 -314 129 -314 307c0 182 121 435 407 435c209 0 314 -136 314 -302zM593 424c0 94 -56 157 -151 157c-173 0 -216 -214 -216 -299c0 -99 63 -159 145 -159c148 0 222 175 222 301zM563 897h116c-22 -85 -97 -127 -190 -127
c-114 0 -167 57 -167 116v11h114c0 -17 6 -50 57 -50c48 0 64 32 70 50z" />
    <glyph glyph-name="obreve" unicode="&#x14f;" horiz-adv-x="625" 
d="M581 291c0 -117 -87 -306 -303 -306c-181 0 -249 130 -249 247c0 128 98 301 303 301c139 0 249 -87 249 -242zM423 294c0 60 -27 118 -100 118c-77 0 -138 -82 -138 -186c0 -93 57 -119 103 -119c91 0 135 104 135 187zM419 706h122c-6 -22 -13 -46 -29 -68
c-49 -66 -132 -70 -155 -70c-117 0 -173 56 -173 138h120c0 -18 0 -54 51 -54c48 0 58 35 64 54z" />
    <glyph glyph-name="Ohungarumlaut" unicode="&#x150;" horiz-adv-x="792" 
d="M769 423c0 -167 -109 -440 -407 -440c-221 0 -314 129 -314 307c0 182 121 435 407 435c209 0 314 -136 314 -302zM593 424c0 94 -56 157 -151 157c-173 0 -216 -214 -216 -299c0 -99 63 -159 145 -159c148 0 222 175 222 301zM559 911l-161 -131h-90l75 131h176z
M772 911l-161 -131h-90l75 131h176z" />
    <glyph glyph-name="ohungarumlaut" unicode="&#x151;" horiz-adv-x="625" 
d="M581 291c0 -117 -87 -306 -303 -306c-181 0 -249 130 -249 247c0 128 98 301 303 301c139 0 249 -87 249 -242zM423 294c0 60 -27 118 -100 118c-77 0 -138 -82 -138 -186c0 -93 57 -119 103 -119c91 0 135 104 135 187zM441 742l-164 -162h-86l94 162h156zM624 742
l-164 -162h-86l94 162h156z" />
    <glyph glyph-name="Racute" unicode="&#x154;" horiz-adv-x="708" 
d="M160 706h326c99 0 218 -43 218 -205c0 -114 -60 -189 -178 -221l115 -280h-192l-93 253h-123l-58 -253h-175zM307 577l-44 -193h148c94 0 119 70 119 113c0 56 -35 80 -104 80h-119zM607 911l-162 -131h-101l76 131h187z" />
    <glyph glyph-name="racute" unicode="&#x155;" horiz-adv-x="396" 
d="M116 515h153l-16 -75c23 34 82 83 152 83c10 0 21 -1 31 -2l-31 -134c-60 -1 -129 -11 -166 -66c-15 -23 -22 -40 -33 -88l-53 -233h-154zM456 742l-165 -162h-94l94 162h165z" />
    <glyph glyph-name="Rcommaaccent" unicode="&#x156;" horiz-adv-x="708" 
d="M160 706h326c99 0 218 -43 218 -205c0 -114 -60 -189 -178 -221l115 -280h-192l-93 253h-123l-58 -253h-175zM307 577l-44 -193h148c94 0 119 70 119 113c0 56 -35 80 -104 80h-119zM245 -118l17 82h112l-8 -38c-18 -85 -47 -120 -131 -122l8 38c25 3 37 11 43 40h-41z
" />
    <glyph glyph-name="rcommaaccent" unicode="&#x157;" horiz-adv-x="396" 
d="M116 515h153l-16 -75c23 34 82 83 152 83c10 0 21 -1 31 -2l-31 -134c-60 -1 -129 -11 -166 -66c-15 -23 -22 -40 -33 -88l-53 -233h-154zM0 -118l17 82h112l-8 -38c-18 -85 -47 -120 -131 -122l8 38c25 3 37 11 43 40h-41z" />
    <glyph glyph-name="Rcaron" unicode="&#x158;" horiz-adv-x="708" 
d="M160 706h326c99 0 218 -43 218 -205c0 -114 -60 -189 -178 -221l115 -280h-192l-93 253h-123l-58 -253h-175zM307 577l-44 -193h148c94 0 119 70 119 113c0 56 -35 80 -104 80h-119zM640 897l-137 -117h-191l-67 117h115l50 -78l69 78h161z" />
    <glyph glyph-name="rcaron" unicode="&#x159;" horiz-adv-x="396" 
d="M116 515h153l-16 -75c23 34 82 83 152 83c10 0 21 -1 31 -2l-31 -134c-60 -1 -129 -11 -166 -66c-15 -23 -22 -40 -33 -88l-53 -233h-154zM477 706l-126 -128h-168l-69 128h109l47 -74l70 74h137z" />
    <glyph glyph-name="Sacute" unicode="&#x15a;" horiz-adv-x="667" 
d="M669 576l-146 -85c-20 80 -108 99 -162 99c-75 0 -100 -42 -100 -66c0 -38 36 -52 91 -71l75 -26c121 -42 192 -100 192 -207c0 -114 -99 -238 -306 -238c-181 0 -284 77 -329 163l155 97c3 -9 35 -119 177 -119c100 0 120 60 120 82c0 25 -15 49 -98 78l-101 35
c-44 15 -153 64 -153 182c0 105 87 224 292 224c165 0 241 -64 293 -148zM581 911l-162 -131h-101l76 131h187z" />
    <glyph glyph-name="sacute" unicode="&#x15b;" horiz-adv-x="542" 
d="M521 407l-116 -57c-24 38 -57 69 -127 69c-43 0 -66 -17 -66 -39c0 -23 14 -30 67 -46l53 -16c79 -24 154 -64 154 -151c0 -79 -74 -183 -257 -183c-43 0 -177 1 -251 136l130 64c11 -29 47 -76 132 -76c9 0 84 1 84 46c0 27 -27 36 -69 49l-53 17
c-57 18 -151 52 -151 151c0 75 68 162 229 162c159 0 216 -78 241 -126zM481 742l-165 -162h-94l94 162h165z" />
    <glyph glyph-name="Scircumflex" unicode="&#x15c;" horiz-adv-x="667" 
d="M669 576l-146 -85c-20 80 -108 99 -162 99c-75 0 -100 -42 -100 -66c0 -38 36 -52 91 -71l75 -26c121 -42 192 -100 192 -207c0 -114 -99 -238 -306 -238c-181 0 -284 77 -329 163l155 97c3 -9 35 -119 177 -119c100 0 120 60 120 82c0 25 -15 49 -98 78l-101 35
c-44 15 -153 64 -153 182c0 105 87 224 292 224c165 0 241 -64 293 -148zM589 782h-115l-49 77l-70 -77h-161l137 116h192z" />
    <glyph glyph-name="scircumflex" unicode="&#x15d;" horiz-adv-x="542" 
d="M521 407l-116 -57c-24 38 -57 69 -127 69c-43 0 -66 -17 -66 -39c0 -23 14 -30 67 -46l53 -16c79 -24 154 -64 154 -151c0 -79 -74 -183 -257 -183c-43 0 -177 1 -251 136l130 64c11 -29 47 -76 132 -76c9 0 84 1 84 46c0 27 -27 36 -69 49l-53 17
c-57 18 -151 52 -151 151c0 75 68 162 229 162c159 0 216 -78 241 -126zM484 580h-110l-47 74l-70 -74h-138l126 126h169z" />
    <glyph glyph-name="Scedilla" unicode="&#x15e;" horiz-adv-x="667" 
d="M669 576l-146 -85c-20 80 -108 99 -162 99c-75 0 -100 -42 -100 -66c0 -38 36 -52 91 -71l75 -26c121 -42 192 -100 192 -207c0 -114 -98 -237 -303 -238l-34 -52c24 4 32 5 45 5c33 0 60 -19 60 -52c0 -10 -3 -28 -19 -48c-33 -41 -84 -48 -131 -48c-23 0 -44 1 -66 3
l10 45c14 -2 26 -2 36 -2c18 0 48 8 48 29c0 11 -11 19 -27 19c-22 0 -43 -8 -48 -10l7 36l67 77c-151 13 -239 83 -280 161l155 97c3 -9 35 -119 177 -119c100 0 120 60 120 82c0 25 -15 49 -98 78l-101 35c-44 15 -153 64 -153 182c0 105 87 224 292 224
c165 0 241 -64 293 -148z" />
    <glyph glyph-name="scedilla" unicode="&#x15f;" horiz-adv-x="542" 
d="M521 407l-116 -57c-24 38 -57 69 -127 69c-43 0 -66 -17 -66 -39c0 -23 14 -30 67 -46l53 -16c79 -24 154 -64 154 -151c0 -79 -74 -183 -257 -183h-4l-35 -54c24 4 32 5 45 5c33 0 60 -19 60 -52c0 -10 -3 -28 -19 -48c-33 -41 -84 -48 -131 -48c-23 0 -44 1 -66 3
l10 45c14 -2 26 -2 36 -2c18 0 48 8 48 29c0 11 -11 19 -27 19c-22 0 -43 -8 -48 -10l7 36l70 80c-59 8 -144 35 -197 133l130 64c11 -29 47 -76 132 -76c9 0 84 1 84 46c0 27 -27 36 -69 49l-53 17c-57 18 -151 52 -151 151c0 75 68 162 229 162c159 0 216 -78 241 -126z
" />
    <glyph glyph-name="Tcommaaccent" unicode="&#x162;" horiz-adv-x="625" 
d="M683 706l-35 -137h-183l-128 -569h-177l128 569h-194l35 137h554zM167 -118l17 82h112l-8 -38c-18 -85 -47 -120 -131 -122l8 38c25 3 37 11 43 40h-41z" />
    <glyph glyph-name="tcommaaccent" unicode="&#x163;" horiz-adv-x="354" 
d="M367 518l-21 -93h-89l-49 -215c-5 -22 -7 -35 -7 -45c0 -27 10 -46 58 -46h30l-27 -118c-45 -6 -68 -8 -90 -8c-73 0 -135 28 -136 113c0 17 1 28 8 58l58 261h-70l21 93h69l33 143h156l-33 -143h89zM56 -118l17 82h112l-8 -38c-18 -85 -47 -120 -131 -122l8 38
c25 3 37 11 43 40h-41z" />
    <glyph glyph-name="Tcaron" unicode="&#x164;" horiz-adv-x="625" 
d="M683 706l-35 -137h-183l-128 -569h-177l128 569h-194l35 137h554zM653 897l-137 -117h-191l-67 117h115l50 -78l69 78h161z" />
    <glyph glyph-name="tcaron" unicode="&#x165;" horiz-adv-x="354" 
d="M367 518l-21 -93h-89l-49 -215c-5 -22 -7 -35 -7 -45c0 -27 10 -46 58 -46h30l-27 -118c-45 -6 -68 -8 -90 -8c-73 0 -135 28 -136 113c0 17 1 28 8 58l58 261h-70l21 93h69l33 143h156l-33 -143h89zM357 706h116l-16 -73c-15 -67 -70 -95 -136 -103l10 43
c28 6 51 20 58 49h-50z" />
    <glyph glyph-name="Tbar" unicode="&#x166;" horiz-adv-x="625" 
d="M113 358l30 119h124l21 92h-194l35 137h554l-35 -137h-183l-21 -92h127l-28 -119h-126l-80 -358h-177l80 358h-127z" />
    <glyph glyph-name="tbar" unicode="&#x167;" horiz-adv-x="354" 
d="M367 518l-21 -93h-89l-49 -215c-5 -22 -7 -35 -7 -45c0 -27 10 -46 58 -46h30l-27 -118c-45 -6 -68 -8 -90 -8c-73 0 -135 28 -136 113c0 17 1 28 8 58l58 261h-70l21 93h69l33 143h156l-33 -143h89zM293 252h-294l21 93h294z" />
    <glyph glyph-name="Utilde" unicode="&#x168;" horiz-adv-x="729" 
d="M578 706h176l-107 -477c-43 -190 -173 -245 -313 -245c-194 0 -275 103 -275 219c0 30 8 77 15 110l88 393h177l-96 -430c-2 -8 -7 -30 -7 -54c0 -27 16 -87 105 -87c41 0 106 12 135 136zM604 902h75c-32 -104 -86 -136 -132 -136c-33 0 -61 15 -75 23l-26 13
c-18 9 -32 13 -45 13c-29 0 -39 -24 -46 -44h-73c7 28 39 135 126 135c21 0 43 -3 81 -21l19 -9c20 -10 35 -14 50 -14c26 0 41 20 46 40z" />
    <glyph glyph-name="utilde" unicode="&#x169;" 
d="M583 515l-116 -515h-154l15 68c-19 -21 -64 -72 -148 -72c-77 0 -144 46 -144 127c0 15 2 34 9 66l73 326h155l-68 -303c-2 -8 -4 -22 -4 -36c0 -30 13 -60 59 -60c65 0 93 58 106 118l63 281h154zM497 720h72c-34 -129 -91 -139 -124 -139c-26 0 -44 9 -66 21l-23 13
c-17 9 -29 14 -40 14c-22 0 -33 -22 -41 -47h-69c6 41 34 139 117 139c20 0 35 -2 69 -20l19 -10c20 -11 33 -17 46 -17c22 0 33 23 40 46z" />
    <glyph glyph-name="Umacron" unicode="&#x16a;" horiz-adv-x="729" 
d="M578 706h176l-107 -477c-43 -190 -173 -245 -313 -245c-194 0 -275 103 -275 219c0 30 8 77 15 110l88 393h177l-96 -430c-2 -8 -7 -30 -7 -54c0 -27 16 -87 105 -87c41 0 106 12 135 136zM677 876l-21 -95h-372l20 95h373z" />
    <glyph glyph-name="umacron" unicode="&#x16b;" 
d="M583 515l-116 -515h-154l15 68c-19 -21 -64 -72 -148 -72c-77 0 -144 46 -144 127c0 15 2 34 9 66l73 326h155l-68 -303c-2 -8 -4 -22 -4 -36c0 -30 13 -60 59 -60c65 0 93 58 106 118l63 281h154zM567 695l-20 -92h-365l19 92h366z" />
    <glyph glyph-name="Ubreve" unicode="&#x16c;" horiz-adv-x="729" 
d="M578 706h176l-107 -477c-43 -190 -173 -245 -313 -245c-194 0 -275 103 -275 219c0 30 8 77 15 110l88 393h177l-96 -430c-2 -8 -7 -30 -7 -54c0 -27 16 -87 105 -87c41 0 106 12 135 136zM544 897h116c-22 -85 -97 -127 -190 -127c-114 0 -167 57 -167 116v11h114
c0 -17 6 -50 57 -50c48 0 64 32 70 50z" />
    <glyph glyph-name="ubreve" unicode="&#x16d;" 
d="M583 515l-116 -515h-154l15 68c-19 -21 -64 -72 -148 -72c-77 0 -144 46 -144 127c0 15 2 34 9 66l73 326h155l-68 -303c-2 -8 -4 -22 -4 -36c0 -30 13 -60 59 -60c65 0 93 58 106 118l63 281h154zM441 706h122c-6 -22 -13 -46 -29 -68c-49 -66 -132 -70 -155 -70
c-117 0 -173 56 -173 138h120c0 -18 0 -54 51 -54c48 0 58 35 64 54z" />
    <glyph glyph-name="Uring" unicode="&#x16e;" horiz-adv-x="729" 
d="M578 706h176l-107 -477c-43 -190 -173 -245 -313 -245c-194 0 -275 103 -275 219c0 30 8 77 15 110l88 393h177l-96 -430c-2 -8 -7 -30 -7 -54c0 -27 16 -87 105 -87c41 0 106 12 135 136zM587 862c0 -41 -32 -85 -103 -85c-56 0 -103 33 -103 85c0 32 25 85 103 85
c79 0 103 -53 103 -85zM530 862c0 14 -9 38 -47 38c-37 0 -46 -22 -46 -38c0 -18 12 -38 47 -38c36 0 46 23 46 38z" />
    <glyph glyph-name="uring" unicode="&#x16f;" 
d="M583 515l-116 -515h-154l15 68c-19 -21 -64 -72 -148 -72c-77 0 -144 46 -144 127c0 15 2 34 9 66l73 326h155l-68 -303c-2 -8 -4 -22 -4 -36c0 -30 13 -60 59 -60c65 0 93 58 106 118l63 281h154zM485 673c0 -60 -48 -108 -108 -108c-58 0 -108 49 -108 108
s50 108 107 108c61 0 109 -49 109 -108zM418 673c0 23 -18 41 -41 41s-41 -19 -41 -41c0 -23 18 -41 41 -41s41 19 41 41z" />
    <glyph glyph-name="Uhungarumlaut" unicode="&#x170;" horiz-adv-x="729" 
d="M578 706h176l-107 -477c-43 -190 -173 -245 -313 -245c-194 0 -275 103 -275 219c0 30 8 77 15 110l88 393h177l-96 -430c-2 -8 -7 -30 -7 -54c0 -27 16 -87 105 -87c41 0 106 12 135 136zM554 911l-161 -131h-90l75 131h176zM767 911l-161 -131h-90l75 131h176z" />
    <glyph glyph-name="uhungarumlaut" unicode="&#x171;" 
d="M583 515l-116 -515h-154l15 68c-19 -21 -64 -72 -148 -72c-77 0 -144 46 -144 127c0 15 2 34 9 66l73 326h155l-68 -303c-2 -8 -4 -22 -4 -36c0 -30 13 -60 59 -60c65 0 93 58 106 118l63 281h154zM453 742l-164 -162h-86l94 162h156zM636 742l-164 -162h-86l94 162h156z
" />
    <glyph glyph-name="Uogonek" unicode="&#x172;" horiz-adv-x="729" 
d="M578 706h176l-107 -477c-35 -158 -129 -224 -262 -242c-51 -7 -61 -39 -61 -64c0 -15 10 -55 56 -55c21 0 33 7 42 13l23 -38c-46 -35 -101 -35 -113 -35c-42 0 -98 23 -98 79c0 42 25 70 59 99c-165 13 -234 109 -234 217c0 30 8 77 15 110l88 393h177l-96 -430
c-2 -8 -7 -30 -7 -54c0 -27 16 -87 105 -87c41 0 106 12 135 136z" />
    <glyph glyph-name="uogonek" unicode="&#x173;" 
d="M346 0h-33l15 68c-19 -21 -64 -72 -148 -72c-77 0 -144 46 -144 127c0 15 2 34 9 66l73 326h155l-68 -303c-2 -8 -4 -22 -4 -36c0 -30 13 -60 59 -60c65 0 93 58 106 118l63 281h154l-116 -515h-50c-32 -6 -58 -42 -58 -77c0 -15 10 -55 56 -55c21 0 33 7 42 13l23 -38
c-46 -35 -101 -35 -113 -35c-42 0 -98 23 -98 79c0 49 34 79 77 113z" />
    <glyph glyph-name="Wacute" unicode="&#x1e82;" horiz-adv-x="979" 
d="M1064 706l-352 -706h-200c2 61 10 407 12 456l-202 -456h-200l-23 706h170v-508l226 508h168c-1 -55 -8 -511 -8 -511l237 511h172zM760 911l-162 -131h-101l76 131h187z" />
    <glyph glyph-name="wacute" unicode="&#x1e83;" horiz-adv-x="792" 
d="M838 515l-283 -515h-154c-1 35 -5 316 -5 316l-158 -316h-154l-32 515h142c1 -51 8 -336 8 -336l163 336h144c0 -44 8 -336 8 -336l158 336h163zM624 742l-165 -162h-94l94 162h165z" />
    <glyph glyph-name="Wcircumflex" unicode="&#x174;" horiz-adv-x="979" 
d="M1064 706l-352 -706h-200c2 61 10 407 12 456l-202 -456h-200l-23 706h170v-508l226 508h168c-1 -55 -8 -511 -8 -511l237 511h172zM760 782h-115l-49 77l-70 -77h-161l137 116h192z" />
    <glyph glyph-name="wcircumflex" unicode="&#x175;" horiz-adv-x="792" 
d="M838 515l-283 -515h-154c-1 35 -5 316 -5 316l-158 -316h-154l-32 515h142c1 -51 8 -336 8 -336l163 336h144c0 -44 8 -336 8 -336l158 336h163zM617 580h-110l-47 74l-70 -74h-138l126 126h169z" />
    <glyph glyph-name="Wdieresis" unicode="&#x1e84;" horiz-adv-x="979" 
d="M1064 706l-352 -706h-200c2 61 10 407 12 456l-202 -456h-200l-23 706h170v-508l226 508h168c-1 -55 -8 -511 -8 -511l237 511h172zM823 897l-26 -114h-161l25 114h162zM563 897l-26 -114h-161l25 114h162z" />
    <glyph glyph-name="wdieresis" unicode="&#x1e85;" horiz-adv-x="792" 
d="M838 515l-283 -515h-154c-1 35 -5 316 -5 316l-158 -316h-154l-32 515h142c1 -51 8 -336 8 -336l163 336h144c0 -44 8 -336 8 -336l158 336h163zM669 694l-26 -116h-163l26 116h163zM426 694l-24 -116h-162l25 116h161z" />
    <glyph glyph-name="Wgrave" unicode="&#x1e80;" horiz-adv-x="979" 
d="M1064 706l-352 -706h-200c2 61 10 407 12 456l-202 -456h-200l-23 706h170v-508l226 508h168c-1 -55 -8 -511 -8 -511l237 511h172zM672 780h-100l-163 131h187z" />
    <glyph glyph-name="wgrave" unicode="&#x1e81;" horiz-adv-x="792" 
d="M838 515l-283 -515h-154c-1 35 -5 316 -5 316l-158 -316h-154l-32 515h142c1 -51 8 -336 8 -336l163 336h144c0 -44 8 -336 8 -336l158 336h163zM514 580h-94l-165 162h165z" />
    <glyph glyph-name="Ycircumflex" unicode="&#x176;" horiz-adv-x="667" 
d="M754 706l-333 -408l-67 -298h-175l71 320l-153 386h175l98 -254l185 254h199zM605 782h-115l-49 77l-70 -77h-161l137 116h192z" />
    <glyph glyph-name="ycircumflex" unicode="&#x177;" horiz-adv-x="500" 
d="M563 515l-336 -572c-46 -79 -86 -128 -218 -128c-26 0 -52 1 -77 4l27 125c18 -3 35 -7 53 -7c42 0 62 15 80 38l-53 540h156l16 -360l181 360h171zM470 580h-110l-47 74l-70 -74h-138l126 126h169z" />
    <glyph glyph-name="Ygrave" unicode="&#x1ef2;" horiz-adv-x="667" 
d="M754 706l-333 -408l-67 -298h-175l71 320l-153 386h175l98 -254l185 254h199zM493 780h-100l-163 131h187z" />
    <glyph glyph-name="ygrave" unicode="&#x1ef3;" horiz-adv-x="500" 
d="M563 515l-336 -572c-46 -79 -86 -128 -218 -128c-26 0 -52 1 -77 4l27 125c18 -3 35 -7 53 -7c42 0 62 15 80 38l-53 540h156l16 -360l181 360h171zM375 580h-94l-165 162h165z" />
    <glyph glyph-name="Zacute" unicode="&#x179;" horiz-adv-x="667" 
d="M698 706l-34 -145l-433 -424h365l-31 -137h-583l33 145l432 423h-340l32 138h559zM604 911l-162 -131h-101l76 131h187z" />
    <glyph glyph-name="zacute" unicode="&#x17a;" horiz-adv-x="521" 
d="M532 515l-25 -110l-312 -291h259l-26 -114h-458l25 114l314 291h-249l25 110h447zM493 742l-165 -162h-94l94 162h165z" />
    <glyph glyph-name="Zdotaccent" unicode="&#x17b;" horiz-adv-x="667" 
d="M698 706l-34 -145l-433 -424h365l-31 -137h-583l33 145l432 423h-340l32 138h559zM518 897l-27 -114h-163l26 114h164z" />
    <glyph glyph-name="zdotaccent" unicode="&#x17c;" horiz-adv-x="521" 
d="M532 515l-25 -110l-312 -291h259l-26 -114h-458l25 114l314 291h-249l25 110h447zM408 694l-26 -116h-163l25 116h164z" />
    <glyph glyph-name="longs" unicode="&#x17f;" horiz-adv-x="317" 
d="M433 710l-22 -102h-45c-50 0 -60 -11 -77 -88l-117 -520h-154l94 425h-71l21 93h73l12 56c26 120 100 151 185 151c42 0 93 -14 101 -15z" />
    <glyph glyph-name="Aringacute" unicode="&#x1fa;" horiz-adv-x="708" 
d="M635 0h-172l-9 140h-260l-78 -140h-185l431 706h198zM446 268l-19 290l-161 -290h180zM667 998l-175 -100h-92l91 100h176zM387 806c0 41 34 75 76 75s76 -34 76 -75c0 -42 -34 -75 -76 -75s-76 33 -76 75zM438 806c0 -15 10 -25 25 -25s25 10 25 25s-10 26 -25 26
s-25 -11 -25 -26z" />
    <glyph glyph-name="aringacute" unicode="&#x1fb;" 
d="M480 0h-148c-2 8 -5 15 -5 24c0 6 6 28 9 48c-8 -18 -50 -87 -171 -87c-97 0 -155 58 -155 146c0 46 19 85 47 115c62 67 186 73 332 81c4 15 10 39 10 55c0 51 -58 52 -72 52c-57 0 -81 -32 -91 -73c0 0 -130 4 -154 5c28 107 96 166 264 166c158 0 205 -70 205 -135
c0 -27 0 -37 -10 -79l-60 -267c-3 -12 -4 -24 -4 -29c0 -4 1 -11 3 -22zM366 231h-15c-140 0 -186 -42 -186 -83c0 -10 1 -53 63 -53c71 0 120 48 138 136zM573 883l-187 -109h-102l107 109h182zM264 655c0 54 44 98 98 98s98 -44 98 -98s-44 -98 -98 -98s-98 44 -98 98z
M322 655c0 -22 18 -40 40 -40s40 18 40 40s-18 40 -40 40s-40 -18 -40 -40z" />
    <glyph glyph-name="AEacute" unicode="&#x1fc;" horiz-adv-x="1062" 
d="M1059 706l-30 -135h-303l-31 -137h292l-28 -129h-293l-38 -170h359l-31 -135h-531l37 165h-210l-118 -165h-203l541 706h587zM558 588l-213 -295h147zM926 911l-162 -131h-101l76 131h187z" />
    <glyph glyph-name="aeacute" unicode="&#x1fd;" horiz-adv-x="938" 
d="M888 229h-370c-1 -5 -1 -12 -1 -20c0 -72 43 -107 105 -107s101 46 117 77l129 -45c-58 -112 -157 -149 -249 -149c-148 0 -189 74 -212 100c-17 -21 -95 -101 -235 -101c-104 0 -163 59 -163 144c0 32 9 99 81 144c62 39 144 46 294 54c6 26 10 41 10 54
c0 52 -58 54 -71 54c-77 0 -88 -73 -88 -73l-154 5c12 38 22 67 50 97c52 56 124 69 200 69c103 0 149 -33 166 -47c28 17 76 47 158 47c77 0 157 -30 200 -95c16 -23 37 -69 37 -141c0 -22 -2 -45 -4 -67zM755 325c0 44 -29 99 -95 99s-101 -47 -123 -99h218zM360 229h-24
c-135 0 -172 -45 -172 -83c0 -24 14 -51 58 -51c73 0 122 48 138 134zM686 742l-165 -162h-94l94 162h165z" />
    <glyph glyph-name="Oslashacute" unicode="&#x1fe;" horiz-adv-x="792" 
d="M686 746l56 -47l-51 -61c18 -20 79 -85 79 -217c0 -180 -118 -439 -408 -439c-97 0 -166 33 -190 48l-68 -79l-54 47l66 80c-12 14 -67 75 -67 208c0 184 115 439 408 439c95 0 138 -22 175 -43zM232 213l298 349c-16 9 -42 24 -88 24c-164 0 -220 -201 -220 -306
c0 -29 8 -58 10 -67zM580 509l-306 -360c21 -18 65 -34 104 -34c118 0 220 144 220 306c0 46 -10 69 -18 88zM644 911l-162 -131h-101l76 131h187z" />
    <glyph glyph-name="oslashacute" unicode="&#x1ff;" horiz-adv-x="625" 
d="M45 -65l69 100c-23 25 -86 72 -86 190c0 172 140 309 299 309c54 0 96 -16 115 -22l47 70h74l-68 -101c38 -34 85 -87 85 -190c0 -138 -100 -306 -311 -306c-53 0 -93 17 -101 22l-48 -72h-75zM414 364l-175 -257c17 -5 32 -9 49 -9c85 0 139 92 139 199
c0 35 -7 50 -13 67zM194 151l176 256c-17 7 -30 12 -49 12c-100 0 -143 -113 -143 -194c0 -29 5 -48 16 -74zM538 742l-165 -162h-94l94 162h165z" />
    <glyph glyph-name="Scommaaccent" unicode="&#x218;" horiz-adv-x="667" 
d="M669 576l-146 -85c-20 80 -108 99 -162 99c-75 0 -100 -42 -100 -66c0 -38 36 -52 91 -71l75 -26c121 -42 192 -100 192 -207c0 -114 -99 -238 -306 -238c-181 0 -284 77 -329 163l155 97c3 -9 35 -119 177 -119c100 0 120 60 120 82c0 25 -15 49 -98 78l-101 35
c-44 15 -153 64 -153 182c0 105 87 224 292 224c165 0 241 -64 293 -148zM218 -118l17 82h112l-8 -38c-18 -85 -47 -120 -131 -122l8 38c25 3 37 11 43 40h-41z" />
    <glyph glyph-name="scommaaccent" unicode="&#x219;" horiz-adv-x="542" 
d="M521 407l-116 -57c-24 38 -57 69 -127 69c-43 0 -66 -17 -66 -39c0 -23 14 -30 67 -46l53 -16c79 -24 154 -64 154 -151c0 -79 -74 -183 -257 -183c-43 0 -177 1 -251 136l130 64c11 -29 47 -76 132 -76c9 0 84 1 84 46c0 27 -27 36 -69 49l-53 17
c-57 18 -151 52 -151 151c0 75 68 162 229 162c159 0 216 -78 241 -126zM153 -118l17 82h112l-8 -38c-18 -85 -47 -120 -131 -122l8 38c25 3 37 11 43 40h-41z" />
    <glyph glyph-name="uni021A" unicode="&#x21a;" horiz-adv-x="625" 
d="M683 706l-35 -137h-183l-128 -569h-177l128 569h-194l35 137h554zM167 -118l17 82h112l-8 -38c-18 -85 -47 -120 -131 -122l8 38c25 3 37 11 43 40h-41z" />
    <glyph glyph-name="uni021B" unicode="&#x21b;" horiz-adv-x="354" 
d="M367 518l-21 -93h-89l-49 -215c-5 -22 -7 -35 -7 -45c0 -27 10 -46 58 -46h30l-27 -118c-45 -6 -68 -8 -90 -8c-73 0 -135 28 -136 113c0 17 1 28 8 58l58 261h-70l21 93h69l33 143h156l-33 -143h89zM56 -118l17 82h112l-8 -38c-18 -85 -47 -120 -131 -122l8 38
c25 3 37 11 43 40h-41z" />
    <glyph glyph-name="uniF6C1" unicode="&#xf6c1;" horiz-adv-x="667" 
d="M669 576l-146 -85c-20 80 -108 99 -162 99c-75 0 -100 -42 -100 -66c0 -38 36 -52 91 -71l75 -26c121 -42 192 -100 192 -207c0 -114 -98 -237 -303 -238l-34 -52c24 4 32 5 45 5c33 0 60 -19 60 -52c0 -10 -3 -28 -19 -48c-33 -41 -84 -48 -131 -48c-23 0 -44 1 -66 3
l10 45c14 -2 26 -2 36 -2c18 0 48 8 48 29c0 11 -11 19 -27 19c-22 0 -43 -8 -48 -10l7 36l67 77c-151 13 -239 83 -280 161l155 97c3 -9 35 -119 177 -119c100 0 120 60 120 82c0 25 -15 49 -98 78l-101 35c-44 15 -153 64 -153 182c0 105 87 224 292 224
c165 0 241 -64 293 -148z" />
    <glyph glyph-name="uniF6C2" unicode="&#xf6c2;" horiz-adv-x="542" 
d="M521 407l-116 -57c-24 38 -57 69 -127 69c-43 0 -66 -17 -66 -39c0 -23 14 -30 67 -46l53 -16c79 -24 154 -64 154 -151c0 -79 -74 -183 -257 -183h-4l-35 -54c24 4 32 5 45 5c33 0 60 -19 60 -52c0 -10 -3 -28 -19 -48c-33 -41 -84 -48 -131 -48c-23 0 -44 1 -66 3
l10 45c14 -2 26 -2 36 -2c18 0 48 8 48 29c0 11 -11 19 -27 19c-22 0 -43 -8 -48 -10l7 36l70 80c-59 8 -144 35 -197 133l130 64c11 -29 47 -76 132 -76c9 0 84 1 84 46c0 27 -27 36 -69 49l-53 17c-57 18 -151 52 -151 151c0 75 68 162 229 162c159 0 216 -78 241 -126z
" />
    <glyph glyph-name="i.dot" horiz-adv-x="292" 
d="M316 706l-26 -117h-155l27 117h154zM273 515l-117 -515h-155l117 515h155z" />
    <glyph glyph-name="zero.numerator" horiz-adv-x="375" 
d="M404 532c0 -159 -96 -288 -213 -288c-87 0 -142 60 -142 155c0 159 96 288 214 288c87 0 141 -59 141 -155zM300 548c0 44 -12 66 -42 66c-54 0 -104 -155 -104 -242c0 -37 12 -54 41 -54c53 0 105 151 105 230z" />
    <glyph glyph-name="one.numerator" horiz-adv-x="375" 
d="M343 676l-96 -424h-100l70 309c-35 -9 -43 -11 -81 -11h-14l15 68c73 2 100 14 131 58h75z" />
    <glyph glyph-name="two.numerator" horiz-adv-x="375" 
d="M40 252l14 67l184 150c16 13 57 49 57 87c0 28 -18 53 -49 53c-32 0 -59 -27 -59 -80c0 -6 0 -12 1 -19l-94 12c0 64 37 164 154 164c112 0 144 -78 144 -129c0 -74 -70 -127 -98 -148l-106 -77h174l-19 -80h-303z" />
    <glyph glyph-name="three.numerator" horiz-adv-x="375" 
d="M198 437l14 65c8 -2 16 -3 25 -3c59 1 62 64 62 73c0 30 -23 42 -44 42c-54 0 -59 -58 -60 -68l-97 11c14 95 91 130 160 130c103 0 141 -71 141 -117c0 -71 -59 -92 -83 -99c24 -15 55 -39 55 -89c0 -68 -63 -138 -171 -138c-115 0 -154 76 -154 130c0 3 1 19 1 19
l102 11c-2 -8 -3 -16 -3 -24c0 -33 23 -60 57 -60c40 0 61 33 61 67c0 16 -6 50 -51 50h-15z" />
    <glyph glyph-name="four.numerator" horiz-adv-x="375" 
d="M390 426l-16 -70h-62l-23 -104h-99l24 104h-178l18 80l215 240h116l-56 -250h61zM269 583l-139 -157h100z" />
    <glyph glyph-name="five.numerator" horiz-adv-x="375" 
d="M386 676l-18 -79h-168l-19 -73c29 18 43 23 71 23c76 0 124 -48 124 -124c0 -102 -77 -179 -178 -179c-88 0 -139 50 -143 141l101 4v-10c0 -36 17 -58 46 -58c38 0 69 43 69 96c0 37 -19 61 -49 61c-22 0 -38 -10 -58 -37l-85 14l53 221h254z" />
    <glyph glyph-name="six.numerator" horiz-adv-x="375" 
d="M416 574l-104 -12c-7 35 -20 49 -47 49c-42 0 -71 -36 -90 -112c25 30 53 42 89 42c68 0 115 -50 115 -122c0 -97 -77 -175 -172 -175c-88 0 -147 70 -147 173c0 132 83 270 221 270c78 0 124 -41 135 -113zM272 412c0 35 -16 57 -41 57c-34 0 -64 -42 -64 -90
c0 -35 17 -57 42 -57c34 0 63 42 63 90z" />
    <glyph glyph-name="seven.numerator" horiz-adv-x="375" 
d="M421 675l-17 -75c-34 -33 -61 -72 -88 -111c-49 -70 -85 -150 -106 -237h-114c16 58 24 80 48 130c38 79 78 138 146 214h-188l17 79h302z" />
    <glyph glyph-name="eight.numerator" horiz-adv-x="375" 
d="M163 486c-36 18 -52 44 -52 81c0 68 62 120 145 120c80 0 135 -45 135 -110c0 -51 -27 -84 -81 -100c42 -18 67 -48 67 -93c0 -80 -72 -140 -167 -140c-89 0 -152 53 -152 128c0 60 41 105 105 114zM209 556c0 -30 15 -50 37 -50c26 0 46 28 46 63c0 30 -16 47 -37 47
c-26 0 -46 -26 -46 -60zM161 368c0 -31 21 -54 52 -54c32 0 57 29 57 65c0 33 -20 56 -50 56c-33 0 -59 -30 -59 -67z" />
    <glyph glyph-name="nine.numerator" horiz-adv-x="375" 
d="M46 357l104 12c7 -35 20 -49 48 -49c41 0 70 36 89 112c-25 -30 -52 -42 -89 -42c-69 0 -118 50 -118 121c0 98 78 176 175 176c90 0 145 -66 145 -172c0 -153 -95 -271 -219 -271c-78 0 -122 41 -135 113zM190 519c0 -35 16 -57 42 -57c33 0 63 42 63 90
c0 35 -16 57 -42 57c-33 0 -63 -42 -63 -90z" />
    <glyph glyph-name="period.numerator" horiz-adv-x="163" 
d="M164 363l-24 -111h-106l24 111h106z" />
    <glyph glyph-name="comma.numerator" horiz-adv-x="163" 
d="M58 363h106l-21 -98c-14 -68 -58 -110 -136 -125l13 51c29 13 40 28 52 61h-38z" />
    <glyph glyph-name="hyphen.numerator" horiz-adv-x="240" 
d="M263 482l-22 -93h-191l22 93h191z" />
    <glyph glyph-name="parenleft.numerator" horiz-adv-x="208" 
d="M283 752l36 -46c-113 -80 -173 -187 -173 -318c0 -68 16 -140 55 -195l-49 -43c-63 72 -101 153 -101 245c0 154 99 282 232 357z" />
    <glyph glyph-name="parenright.numerator" horiz-adv-x="208" 
d="M2 150l-36 46c113 80 173 187 173 318c0 68 -16 140 -55 195l49 43c63 -72 101 -153 101 -245c0 -154 -99 -282 -232 -357z" />
    <glyph glyph-name="dollar.numerator" horiz-adv-x="415" 
d="M446 609l-80 -56c-14 21 -33 35 -57 43l-23 -82c69 -17 129 -51 129 -128c0 -13 -3 -44 -22 -72c-46 -68 -141 -69 -181 -69l-17 -60h-52l18 64c-88 14 -126 69 -135 78l90 59c22 -28 39 -40 69 -47l25 92c-82 25 -124 55 -124 122c0 21 5 52 27 78c40 48 101 56 138 56
c13 0 25 0 31 -1l11 43h53l-14 -48c67 -13 99 -52 114 -72zM237 525l21 75c-46 -1 -61 -20 -61 -38c0 -21 14 -30 40 -37zM260 421l-23 -85c28 0 64 13 64 42c0 23 -8 34 -41 43z" />
    <glyph glyph-name="cent.numerator" horiz-adv-x="390" 
d="M412 472l-92 -23c-5 22 -14 37 -34 47l-47 -168c43 0 59 30 67 52l89 -27c-35 -78 -92 -108 -178 -108l-17 -61h-54l19 68c-73 21 -109 83 -109 141c0 100 65 192 201 192l13 46h54l-15 -52c51 -14 85 -45 103 -107zM234 501c-56 -4 -75 -64 -75 -101c0 -20 7 -47 30 -61
z" />
    <glyph glyph-name="sterling.numerator" horiz-adv-x="467" 
d="M373 397h98c-8 -68 -25 -152 -122 -152c-37 0 -60 12 -116 48c-23 -21 -59 -49 -118 -49c-72 0 -86 47 -86 75c0 53 38 80 93 80c27 0 62 -10 68 -12c-2 25 -11 43 -19 62h-91l13 60h58c-5 25 -7 38 -7 50c0 42 19 72 50 95c19 15 62 32 123 32c48 0 104 -14 134 -57
c11 -16 18 -34 23 -54l-97 -35c-7 42 -30 66 -65 66c-36 0 -60 -18 -60 -61c0 -14 4 -24 8 -37h102l-14 -59h-68c5 -13 10 -27 10 -46c0 -14 -3 -33 -14 -50c19 -9 38 -18 55 -18c29 0 38 26 42 62zM168 328c-4 2 -22 10 -41 10c-23 0 -29 -10 -29 -22c0 -13 13 -17 22 -17
c19 0 36 11 48 29z" />
    <glyph glyph-name="yen.numerator" horiz-adv-x="415" 
d="M506 676l-134 -155h47l-16 -64h-84l-24 -31l-2 -8h102l-18 -64h-99l-26 -102h-116l25 102h-99l16 64h98l5 21l-7 18h-87l15 64h46l-69 155h125l53 -153l115 153h134z" />
    <glyph glyph-name="florin.numerator" horiz-adv-x="263" 
d="M275 679l-16 -72c-8 2 -17 3 -22 3c-30 0 -44 -12 -53 -61h57l-17 -69h-57l-46 -209c-20 -93 -49 -139 -134 -139c-27 0 -48 6 -63 9l16 72c11 -2 24 -4 30 -4c29 0 35 5 45 51l48 220h-49l16 69h50c19 100 49 138 133 138c23 0 43 -3 62 -8z" />
    <glyph glyph-name="Euro.numerator" horiz-adv-x="466" 
d="M515 638l-47 -80c-31 33 -72 46 -114 46c-44 0 -84 -24 -98 -57h207l-34 -60h-192c-2 -10 -4 -24 -4 -32h183l-31 -60h-146c7 -36 44 -63 95 -63c52 0 87 16 126 49l-22 -114c-38 -17 -76 -23 -118 -23c-106 0 -177 64 -194 151h-66l31 60h27c1 12 2 23 4 32h-48l34 60
h30c27 85 111 142 219 142c57 0 115 -13 158 -51z" />
    <glyph glyph-name="zero.denominator" horiz-adv-x="375" 
d="M346 280c0 -159 -96 -288 -213 -288c-87 0 -142 60 -142 155c0 159 96 288 214 288c87 0 141 -59 141 -155zM242 296c0 44 -12 66 -42 66c-54 0 -104 -155 -104 -242c0 -37 12 -54 41 -54c53 0 105 151 105 230z" />
    <glyph glyph-name="one.denominator" horiz-adv-x="375" 
d="M286 424l-96 -424h-100l70 309c-35 -9 -43 -11 -81 -11h-14l15 68c73 2 100 14 131 58h75z" />
    <glyph glyph-name="two.denominator" horiz-adv-x="375" 
d="M-17 0l14 67l184 150c16 13 57 49 57 87c0 28 -18 53 -49 53c-32 0 -59 -27 -59 -80c0 -6 0 -12 1 -19l-94 12c0 64 37 164 154 164c112 0 144 -78 144 -129c0 -74 -70 -127 -98 -148l-106 -77h174l-19 -80h-303z" />
    <glyph glyph-name="three.denominator" horiz-adv-x="375" 
d="M148 185l14 65c8 -2 16 -3 25 -3c59 1 62 64 62 73c0 30 -23 42 -44 42c-54 0 -59 -58 -60 -68l-97 11c14 95 91 130 160 130c103 0 141 -71 141 -117c0 -71 -59 -92 -83 -99c24 -15 55 -39 55 -89c0 -68 -63 -138 -171 -138c-115 0 -154 76 -154 130c0 3 1 19 1 19
l102 11c-2 -8 -3 -16 -3 -24c0 -33 23 -60 57 -60c40 0 61 33 61 67c0 16 -6 50 -51 50h-15z" />
    <glyph glyph-name="four.denominator" horiz-adv-x="375" 
d="M332 174l-16 -70h-62l-23 -104h-99l24 104h-178l18 80l215 240h116l-56 -250h61zM211 331l-139 -157h100z" />
    <glyph glyph-name="five.denominator" horiz-adv-x="375" 
d="M332 424l-18 -79h-168l-19 -73c29 18 43 23 71 23c76 0 124 -48 124 -124c0 -102 -77 -179 -178 -179c-88 0 -139 50 -143 141l101 4v-10c0 -36 17 -58 46 -58c38 0 69 43 69 96c0 37 -19 61 -49 61c-22 0 -38 -10 -58 -37l-85 14l53 221h254z" />
    <glyph glyph-name="six.denominator" horiz-adv-x="375" 
d="M358 322l-104 -12c-7 35 -20 49 -47 49c-42 0 -71 -36 -90 -112c25 30 53 42 89 42c68 0 115 -50 115 -122c0 -97 -77 -175 -172 -175c-88 0 -147 70 -147 173c0 132 83 270 221 270c78 0 124 -41 135 -113zM214 160c0 35 -16 57 -41 57c-34 0 -64 -42 -64 -90
c0 -35 17 -57 42 -57c34 0 63 42 63 90z" />
    <glyph glyph-name="seven.denominator" horiz-adv-x="375" 
d="M366 423l-17 -75c-34 -33 -61 -72 -88 -111c-49 -70 -85 -150 -106 -237h-114c16 58 24 80 48 130c38 79 78 138 146 214h-188l17 79h302z" />
    <glyph glyph-name="eight.denominator" horiz-adv-x="375" 
d="M105 234c-36 18 -52 44 -52 81c0 68 62 120 145 120c80 0 135 -45 135 -110c0 -51 -27 -84 -81 -100c42 -18 67 -48 67 -93c0 -80 -72 -140 -167 -140c-89 0 -152 53 -152 128c0 60 41 105 105 114zM151 304c0 -30 15 -50 37 -50c26 0 46 28 46 63c0 30 -16 47 -37 47
c-26 0 -46 -26 -46 -60zM103 116c0 -31 21 -54 52 -54c32 0 57 29 57 65c0 33 -20 56 -50 56c-33 0 -59 -30 -59 -67z" />
    <glyph glyph-name="nine.denominator" horiz-adv-x="375" 
d="M-16 105l104 12c7 -35 20 -49 48 -49c41 0 70 36 89 112c-25 -30 -52 -42 -89 -42c-69 0 -118 50 -118 121c0 98 78 176 175 176c90 0 145 -66 145 -172c0 -153 -95 -271 -219 -271c-78 0 -122 41 -135 113zM128 267c0 -35 16 -57 42 -57c33 0 63 42 63 90
c0 35 -16 57 -42 57c-33 0 -63 -42 -63 -90z" />
    <glyph glyph-name="period.denominator" horiz-adv-x="163" 
d="M104 111l-24 -111h-106l24 111h106z" />
    <glyph glyph-name="comma.denominator" horiz-adv-x="172" 
d="M-2 111h106l-21 -99c-14 -68 -58 -110 -136 -125l13 51c29 13 40 29 52 62h-38z" />
    <glyph glyph-name="hyphen.denominator" horiz-adv-x="240" 
d="M205 230l-22 -93h-191l22 93h191z" />
    <glyph glyph-name="parenleft.denominator" horiz-adv-x="208" 
d="M225 500l36 -46c-113 -80 -173 -187 -173 -318c0 -68 16 -140 55 -195l-49 -43c-63 72 -101 153 -101 245c0 154 99 282 232 357z" />
    <glyph glyph-name="parenright.denominator" horiz-adv-x="208" 
d="M-59 -102l-36 46c113 80 173 187 173 318c0 68 -16 140 -55 195l49 43c63 -72 101 -153 101 -245c0 -154 -99 -282 -232 -357z" />
    <glyph glyph-name="dollar.denominator" horiz-adv-x="415" 
d="M388 357l-80 -56c-14 21 -33 35 -57 43l-23 -82c69 -17 129 -51 129 -128c0 -13 -3 -44 -22 -72c-46 -68 -141 -69 -181 -69l-17 -60h-52l18 64c-88 14 -126 69 -135 78l90 59c22 -28 39 -40 69 -47l25 92c-82 25 -124 55 -124 122c0 21 5 52 27 78c40 48 101 56 138 56
c13 0 25 0 31 -1l11 43h53l-14 -48c67 -13 99 -52 114 -72zM179 273l21 75c-46 -1 -61 -20 -61 -38c0 -21 14 -30 40 -37zM202 169l-23 -85c28 0 64 13 64 42c0 23 -8 34 -41 43z" />
    <glyph glyph-name="cent.denominator" horiz-adv-x="390" 
d="M353 220l-92 -23c-5 22 -14 37 -34 47l-47 -168c43 0 59 30 67 52l89 -27c-35 -78 -92 -108 -178 -108l-17 -61h-54l19 68c-73 21 -109 83 -109 141c0 100 65 192 201 192l13 46h54l-15 -52c51 -14 85 -45 103 -107zM175 249c-56 -4 -75 -64 -75 -101c0 -20 7 -47 30 -61
z" />
    <glyph glyph-name="sterling.denominator" horiz-adv-x="467" 
d="M319 145h98c-8 -68 -25 -152 -122 -152c-37 0 -60 12 -116 48c-23 -21 -59 -49 -118 -49c-72 0 -86 47 -86 75c0 53 38 80 93 80c27 0 62 -10 68 -12c-2 25 -11 43 -19 62h-91l13 60h58c-5 25 -7 38 -7 50c0 42 19 72 50 95c19 15 62 32 123 32c48 0 104 -14 134 -57
c11 -16 18 -34 23 -54l-97 -35c-7 42 -30 66 -65 66c-36 0 -60 -18 -60 -61c0 -14 4 -24 8 -37h102l-14 -59h-68c5 -13 10 -27 10 -46c0 -14 -3 -33 -14 -50c19 -9 38 -18 55 -18c29 0 38 26 42 62zM114 76c-4 2 -22 10 -41 10c-23 0 -29 -10 -29 -22c0 -13 13 -17 22 -17
c19 0 36 11 48 29z" />
    <glyph glyph-name="yen.denominator" horiz-adv-x="415" 
d="M450 424l-134 -155h47l-16 -64h-84l-24 -31l-2 -8h102l-18 -64h-99l-26 -102h-116l25 102h-99l16 64h98l5 21l-7 18h-87l15 64h46l-69 155h125l53 -153l115 153h134z" />
    <glyph glyph-name="florin.denominator" horiz-adv-x="263" 
d="M275 427l-16 -72c-8 2 -17 3 -22 3c-30 0 -44 -12 -53 -61h57l-17 -69h-57l-46 -209c-20 -93 -49 -139 -134 -139c-27 0 -48 6 -63 9l16 72c11 -2 24 -4 30 -4c29 0 35 5 45 51l48 220h-49l16 69h50c19 100 49 138 133 138c23 0 43 -3 62 -8z" />
    <glyph glyph-name="Euro.denominator" horiz-adv-x="466" 
d="M462 386l-47 -80c-31 33 -72 46 -114 46c-44 0 -84 -24 -98 -57h207l-34 -60h-192c-2 -10 -4 -24 -4 -32h183l-31 -60h-146c7 -36 44 -63 95 -63c52 0 87 16 126 49l-22 -114c-38 -17 -76 -23 -118 -23c-106 0 -177 64 -194 151h-66l31 60h27c1 12 2 23 4 32h-48l34 60
h30c27 85 111 142 219 142c57 0 115 -13 158 -51z" />
    <glyph glyph-name="zero.superior" unicode="&#x2070;" horiz-adv-x="375" 
d="M443 702c0 -159 -96 -288 -213 -288c-87 0 -142 60 -142 155c0 159 96 288 214 288c87 0 141 -59 141 -155zM339 718c0 44 -12 66 -42 66c-54 0 -104 -155 -104 -242c0 -37 12 -54 41 -54c53 0 105 151 105 230z" />
    <glyph glyph-name="one.superior" horiz-adv-x="375" 
d="M379 846l-96 -424h-100l70 309c-35 -9 -43 -11 -81 -11h-14l15 68c73 2 100 14 131 58h75z" />
    <glyph glyph-name="two.superior" horiz-adv-x="375" 
d="M77 422l14 67l184 150c16 13 57 49 57 87c0 28 -18 53 -49 53c-32 0 -59 -27 -59 -80c0 -6 0 -12 1 -19l-94 12c0 64 37 164 154 164c112 0 144 -78 144 -129c0 -74 -70 -127 -98 -148l-106 -77h174l-19 -80h-303z" />
    <glyph glyph-name="three.superior" horiz-adv-x="375" 
d="M233 607l14 65c8 -2 16 -3 25 -3c59 1 62 64 62 73c0 30 -23 42 -44 42c-54 0 -59 -58 -60 -68l-97 11c14 95 91 130 160 130c103 0 141 -71 141 -117c0 -71 -59 -92 -83 -99c24 -15 55 -39 55 -89c0 -68 -63 -138 -171 -138c-115 0 -154 76 -154 130c0 3 1 19 1 19
l102 11c-2 -8 -3 -16 -3 -24c0 -33 23 -60 57 -60c40 0 61 33 61 67c0 16 -6 50 -51 50h-15z" />
    <glyph glyph-name="four.superior" unicode="&#x2074;" horiz-adv-x="375" 
d="M430 596l-16 -70h-62l-23 -104h-99l24 104h-178l18 80l215 240h116l-56 -250h61zM309 753l-139 -157h100z" />
    <glyph glyph-name="five.superior" unicode="&#x2075;" horiz-adv-x="375" 
d="M427 846l-18 -79h-168l-19 -73c29 18 43 23 71 23c76 0 124 -48 124 -124c0 -102 -77 -179 -178 -179c-88 0 -139 50 -143 141l101 4v-10c0 -36 17 -58 46 -58c38 0 69 43 69 96c0 37 -19 61 -49 61c-22 0 -38 -10 -58 -37l-85 14l53 221h254z" />
    <glyph glyph-name="six.superior" unicode="&#x2076;" horiz-adv-x="375" 
d="M454 744l-104 -12c-7 35 -20 49 -47 49c-42 0 -71 -36 -90 -112c25 30 53 42 89 42c68 0 115 -50 115 -122c0 -97 -77 -175 -172 -175c-88 0 -147 70 -147 173c0 132 83 270 221 270c78 0 124 -41 135 -113zM310 582c0 35 -16 57 -41 57c-34 0 -64 -42 -64 -90
c0 -35 17 -57 42 -57c34 0 63 42 63 90z" />
    <glyph glyph-name="seven.superior" unicode="&#x2077;" horiz-adv-x="375" 
d="M464 845l-17 -75c-34 -33 -61 -72 -88 -111c-49 -70 -85 -150 -106 -237h-114c16 58 24 80 48 130c38 79 78 138 146 214h-188l17 79h302z" />
    <glyph glyph-name="eight.superior" unicode="&#x2078;" horiz-adv-x="375" 
d="M202 656c-36 18 -52 44 -52 81c0 68 62 120 145 120c80 0 135 -45 135 -110c0 -51 -27 -84 -81 -100c42 -18 67 -48 67 -93c0 -80 -72 -140 -167 -140c-89 0 -152 53 -152 128c0 60 41 105 105 114zM248 726c0 -30 15 -50 37 -50c26 0 46 28 46 63c0 30 -16 47 -37 47
c-26 0 -46 -26 -46 -60zM200 538c0 -31 21 -54 52 -54c32 0 57 29 57 65c0 33 -20 56 -50 56c-33 0 -59 -30 -59 -67z" />
    <glyph glyph-name="nine.superior" unicode="&#x2079;" horiz-adv-x="375" 
d="M86 527l104 12c7 -35 20 -49 48 -49c41 0 70 36 89 112c-25 -30 -52 -42 -89 -42c-69 0 -118 50 -118 121c0 98 78 176 175 176c90 0 145 -66 145 -172c0 -153 -95 -271 -219 -271c-78 0 -122 41 -135 113zM230 689c0 -35 16 -57 42 -57c33 0 63 42 63 90
c0 35 -16 57 -42 57c-33 0 -63 -42 -63 -90z" />
    <glyph glyph-name="period.superior" horiz-adv-x="163" 
d="M198 533l-24 -111h-106l24 111h106z" />
    <glyph glyph-name="comma.superior" horiz-adv-x="163" 
d="M92 533h106l-21 -98c-14 -68 -58 -110 -136 -125l13 51c29 13 40 28 52 61h-38z" />
    <glyph glyph-name="hyphen.superior" horiz-adv-x="240" 
d="M297 652l-22 -93h-191l22 93h191z" />
    <glyph glyph-name="parenleft.superior" unicode="&#x207d;" horiz-adv-x="208" 
d="M324 922l36 -46c-113 -80 -173 -187 -173 -318c0 -68 16 -140 55 -195l-49 -43c-63 72 -101 153 -101 245c0 154 99 282 232 357z" />
    <glyph glyph-name="parenright.superior" unicode="&#x207e;" horiz-adv-x="208" 
d="M36 320l-36 46c113 80 173 187 173 318c0 68 -16 140 -55 195l49 43c63 -72 101 -153 101 -245c0 -154 -99 -282 -232 -357z" />
    <glyph glyph-name="dollar.superior" horiz-adv-x="415" 
d="M485 779l-80 -56c-14 21 -33 35 -57 43l-23 -82c69 -17 129 -51 129 -128c0 -13 -3 -44 -22 -72c-46 -68 -141 -69 -181 -69l-17 -60h-52l18 64c-88 14 -126 69 -135 78l90 59c22 -28 39 -40 69 -47l25 92c-82 25 -124 55 -124 122c0 21 5 52 27 78c40 48 101 56 138 56
c13 0 25 0 31 -1l11 43h53l-14 -48c67 -13 99 -52 114 -72zM276 695l21 75c-46 -1 -61 -20 -61 -38c0 -21 14 -30 40 -37zM299 591l-23 -85c28 0 64 13 64 42c0 23 -8 34 -41 43z" />
    <glyph glyph-name="cent.superior" horiz-adv-x="390" 
d="M451 642l-92 -23c-5 22 -14 37 -34 47l-47 -168c43 0 59 30 67 52l89 -27c-35 -78 -92 -108 -178 -108l-17 -61h-54l19 68c-73 21 -109 83 -109 141c0 100 65 192 201 192l13 46h54l-15 -52c51 -14 85 -45 103 -107zM273 671c-56 -4 -75 -64 -75 -101c0 -20 7 -47 30 -61
z" />
    <glyph glyph-name="sterling.superior" horiz-adv-x="467" 
d="M412 567h98c-8 -68 -25 -152 -122 -152c-37 0 -60 12 -116 48c-23 -21 -59 -49 -118 -49c-72 0 -86 47 -86 75c0 53 38 80 93 80c27 0 62 -10 68 -12c-2 25 -11 43 -19 62h-91l13 60h58c-5 25 -7 38 -7 50c0 42 19 72 50 95c19 15 62 32 123 32c48 0 104 -14 134 -57
c11 -16 18 -34 23 -54l-97 -35c-7 42 -30 66 -65 66c-36 0 -60 -18 -60 -61c0 -14 4 -24 8 -37h102l-14 -59h-68c5 -13 10 -27 10 -46c0 -14 -3 -33 -14 -50c19 -9 38 -18 55 -18c29 0 38 26 42 62zM207 498c-4 2 -22 10 -41 10c-23 0 -29 -10 -29 -22c0 -13 13 -17 22 -17
c19 0 36 11 48 29z" />
    <glyph glyph-name="yen.superior" horiz-adv-x="415" 
d="M545 846l-134 -155h47l-16 -64h-84l-24 -31l-2 -8h102l-18 -64h-99l-26 -102h-116l25 102h-99l16 64h98l5 21l-7 18h-87l15 64h46l-69 155h125l53 -153l115 153h134z" />
    <glyph glyph-name="florin.superior" horiz-adv-x="263" 
d="M362 849l-16 -72c-8 2 -17 3 -22 3c-30 0 -44 -12 -53 -61h57l-17 -69h-57l-46 -209c-20 -93 -49 -139 -134 -139c-27 0 -48 6 -63 9l16 72c11 -2 24 -4 30 -4c29 0 35 5 45 51l48 220h-49l16 69h50c19 100 49 138 133 138c23 0 43 -3 62 -8z" />
    <glyph glyph-name="Euro.superior" horiz-adv-x="466" 
d="M554 808l-47 -80c-31 33 -72 46 -114 46c-44 0 -84 -24 -98 -57h207l-34 -60h-192c-2 -10 -4 -24 -4 -32h183l-31 -60h-146c7 -36 44 -63 95 -63c52 0 87 16 126 49l-22 -114c-38 -17 -76 -23 -118 -23c-106 0 -177 64 -194 151h-66l31 60h27c1 12 2 23 4 32h-48l34 60
h30c27 85 111 142 219 142c57 0 115 -13 158 -51z" />
    <glyph glyph-name="zero.inferior" unicode="&#x2080;" horiz-adv-x="375" 
d="M317 140c0 -159 -96 -288 -213 -288c-87 0 -142 60 -142 155c0 159 96 288 214 288c87 0 141 -59 141 -155zM213 156c0 44 -12 66 -42 66c-54 0 -104 -155 -104 -242c0 -37 12 -54 41 -54c53 0 105 151 105 230z" />
    <glyph glyph-name="one.inferior" unicode="&#x2081;" horiz-adv-x="375" 
d="M261 284l-96 -424h-100l70 309c-35 -9 -43 -11 -81 -11h-14l15 68c73 2 100 14 131 58h75z" />
    <glyph glyph-name="two.inferior" unicode="&#x2082;" horiz-adv-x="375" 
d="M-44 -140l14 67l184 150c16 13 57 49 57 87c0 28 -18 53 -49 53c-32 0 -59 -27 -59 -80c0 -6 0 -12 1 -19l-94 12c0 64 37 164 154 164c112 0 144 -78 144 -129c0 -74 -70 -127 -98 -148l-106 -77h174l-19 -80h-303z" />
    <glyph glyph-name="three.inferior" unicode="&#x2083;" horiz-adv-x="375" 
d="M115 45l14 65c8 -2 16 -3 25 -3c59 1 62 64 62 73c0 30 -23 42 -44 42c-54 0 -59 -58 -60 -68l-97 11c14 95 91 130 160 130c103 0 141 -71 141 -117c0 -71 -59 -92 -83 -99c24 -15 55 -39 55 -89c0 -68 -63 -138 -171 -138c-115 0 -154 76 -154 130c0 3 1 19 1 19
l102 11c-2 -8 -3 -16 -3 -24c0 -33 23 -60 57 -60c40 0 61 33 61 67c0 16 -6 50 -51 50h-15z" />
    <glyph glyph-name="four.inferior" unicode="&#x2084;" horiz-adv-x="375" 
d="M308 34l-16 -70h-62l-23 -104h-99l24 104h-178l18 80l215 240h116l-56 -250h61zM187 191l-139 -157h100z" />
    <glyph glyph-name="five.inferior" unicode="&#x2085;" horiz-adv-x="375" 
d="M304 284l-18 -79h-168l-19 -73c29 18 43 23 71 23c76 0 124 -48 124 -124c0 -102 -77 -179 -178 -179c-88 0 -139 50 -143 141l101 4v-10c0 -36 17 -58 46 -58c38 0 69 43 69 96c0 37 -19 61 -49 61c-22 0 -38 -10 -58 -37l-85 14l53 221h254z" />
    <glyph glyph-name="six.inferior" unicode="&#x2086;" horiz-adv-x="375" 
d="M328 182l-104 -12c-7 35 -20 49 -47 49c-42 0 -71 -36 -90 -112c25 30 53 42 89 42c68 0 115 -50 115 -122c0 -97 -77 -175 -172 -175c-88 0 -147 70 -147 173c0 132 83 270 221 270c78 0 124 -41 135 -113zM184 20c0 35 -16 57 -41 57c-34 0 -64 -42 -64 -90
c0 -35 17 -57 42 -57c34 0 63 42 63 90z" />
    <glyph glyph-name="seven.inferior" unicode="&#x2087;" horiz-adv-x="375" 
d="M336 283l-17 -75c-34 -33 -61 -72 -88 -111c-49 -70 -85 -150 -106 -237h-114c16 58 24 80 48 130c38 79 78 138 146 214h-188l17 79h302z" />
    <glyph glyph-name="eight.inferior" unicode="&#x2088;" horiz-adv-x="375" 
d="M78 94c-36 18 -52 44 -52 81c0 68 62 120 145 120c80 0 135 -45 135 -110c0 -51 -27 -84 -81 -100c42 -18 67 -48 67 -93c0 -80 -72 -140 -167 -140c-89 0 -152 53 -152 128c0 60 41 105 105 114zM124 164c0 -30 15 -50 37 -50c26 0 46 28 46 63c0 30 -16 47 -37 47
c-26 0 -46 -26 -46 -60zM76 -24c0 -31 21 -54 52 -54c32 0 57 29 57 65c0 33 -20 56 -50 56c-33 0 -59 -30 -59 -67z" />
    <glyph glyph-name="nine.inferior" unicode="&#x2089;" horiz-adv-x="375" 
d="M-48 -35l104 12c7 -35 20 -49 48 -49c41 0 70 36 89 112c-25 -30 -52 -42 -89 -42c-69 0 -118 50 -118 121c0 98 78 176 175 176c90 0 145 -66 145 -172c0 -153 -95 -271 -219 -271c-78 0 -122 41 -135 113zM96 127c0 -35 16 -57 42 -57c33 0 63 42 63 90
c0 35 -16 57 -42 57c-33 0 -63 -42 -63 -90z" />
    <glyph glyph-name="period.inferior" horiz-adv-x="163" 
d="M75 -29l-24 -111h-106l24 111h106z" />
    <glyph glyph-name="comma.inferior" horiz-adv-x="172" 
d="M-31 -29h106l-21 -99c-14 -68 -58 -110 -136 -125l13 51c29 13 40 29 52 62h-38z" />
    <glyph glyph-name="hyphen.inferior" horiz-adv-x="240" 
d="M176 90l-22 -93h-191l22 93h191z" />
    <glyph glyph-name="parenleft.inferior" unicode="&#x208d;" horiz-adv-x="208" 
d="M196 360l36 -46c-113 -80 -173 -187 -173 -318c0 -68 16 -140 55 -195l-49 -43c-63 72 -101 153 -101 245c0 154 99 282 232 357z" />
    <glyph glyph-name="parenright.inferior" unicode="&#x208e;" horiz-adv-x="208" 
d="M-88 -242l-36 46c113 80 173 187 173 318c0 68 -16 140 -55 195l49 43c63 -72 101 -153 101 -245c0 -154 -99 -282 -232 -357z" />
    <glyph glyph-name="dollar.inferior" horiz-adv-x="415" 
d="M359 217l-80 -56c-14 21 -33 35 -57 43l-23 -82c69 -17 129 -51 129 -128c0 -13 -3 -44 -22 -72c-46 -68 -141 -69 -181 -69l-17 -60h-52l18 64c-88 14 -126 69 -135 78l90 59c22 -28 39 -40 69 -47l25 92c-82 25 -124 55 -124 122c0 21 5 52 27 78c40 48 101 56 138 56
c13 0 25 0 31 -1l11 43h53l-14 -48c67 -13 99 -52 114 -72zM150 133l21 75c-46 -1 -61 -20 -61 -38c0 -21 14 -30 40 -37zM173 29l-23 -85c28 0 64 13 64 42c0 23 -8 34 -41 43z" />
    <glyph glyph-name="cent.inferior" horiz-adv-x="390" 
d="M324 80l-92 -23c-5 22 -14 37 -34 47l-47 -168c43 0 59 30 67 52l89 -27c-35 -78 -92 -108 -178 -108l-17 -61h-54l19 68c-73 21 -109 83 -109 141c0 100 65 192 201 192l13 46h54l-15 -52c51 -14 85 -45 103 -107zM146 109c-56 -4 -75 -64 -75 -101c0 -20 7 -47 30 -61z
" />
    <glyph glyph-name="sterling.inferior" horiz-adv-x="467" 
d="M290 5h98c-8 -68 -25 -152 -122 -152c-37 0 -60 12 -116 48c-23 -21 -59 -49 -118 -49c-72 0 -86 47 -86 75c0 53 38 80 93 80c27 0 62 -10 68 -12c-2 25 -11 43 -19 62h-91l13 60h58c-5 25 -7 38 -7 50c0 42 19 72 50 95c19 15 62 32 123 32c48 0 104 -14 134 -57
c11 -16 18 -34 23 -54l-97 -35c-7 42 -30 66 -65 66c-36 0 -60 -18 -60 -61c0 -14 4 -24 8 -37h102l-14 -59h-68c5 -13 10 -27 10 -46c0 -14 -3 -33 -14 -50c19 -9 38 -18 55 -18c29 0 38 26 42 62zM85 -64c-4 2 -22 10 -41 10c-23 0 -29 -10 -29 -22c0 -13 13 -17 22 -17
c19 0 36 11 48 29z" />
    <glyph glyph-name="yen.inferior" horiz-adv-x="415" 
d="M421 284l-134 -155h47l-16 -64h-84l-24 -31l-2 -8h102l-18 -64h-99l-26 -102h-116l25 102h-99l16 64h98l5 21l-7 18h-87l15 64h46l-69 155h125l53 -153l115 153h134z" />
    <glyph glyph-name="florin.inferior" horiz-adv-x="263" 
d="M246 287l-16 -72c-8 2 -17 3 -22 3c-30 0 -44 -12 -53 -61h57l-17 -69h-57l-46 -209c-20 -93 -49 -139 -134 -139c-27 0 -48 6 -63 9l16 72c11 -2 24 -4 30 -4c29 0 35 5 45 51l48 220h-49l16 69h50c19 100 49 138 133 138c23 0 43 -3 62 -8z" />
    <glyph glyph-name="Euro.inferior" horiz-adv-x="466" 
d="M433 246l-47 -80c-31 33 -72 46 -114 46c-44 0 -84 -24 -98 -57h207l-34 -60h-192c-2 -10 -4 -24 -4 -32h183l-31 -60h-146c7 -36 44 -63 95 -63c52 0 87 16 126 49l-22 -114c-38 -17 -76 -23 -118 -23c-106 0 -177 64 -194 151h-66l31 60h27c1 12 2 23 4 32h-48l34 60
h30c27 85 111 142 219 142c57 0 115 -13 158 -51z" />
    <glyph glyph-name="zero.fitted" horiz-adv-x="562" 
d="M551 441c0 -135 -81 -455 -311 -455c-33 0 -210 12 -210 248c0 175 96 461 308 461c80 0 213 -49 213 -254zM398 476c0 53 -11 101 -60 101c-82 0 -154 -254 -154 -391c0 -58 23 -82 58 -82c91 0 156 266 156 372z" />
    <glyph glyph-name="one.fitted" horiz-adv-x="384" 
d="M393 678l-153 -678h-161l112 494c-66 -16 -84 -17 -152 -17l24 109c82 1 152 7 209 92h121z" />
    <glyph glyph-name="two.fitted" horiz-adv-x="544" 
d="M461 0h-487l24 106l291 239c28 23 94 79 94 142c0 47 -31 85 -80 85c-54 0 -93 -48 -93 -132c0 -8 0 -17 1 -26l-149 18c2 135 82 263 248 263c108 0 229 -65 229 -207c0 -99 -81 -182 -157 -237l-171 -124h279z" />
    <glyph glyph-name="three.fitted" horiz-adv-x="562" 
d="M0 224l163 17c-1 -4 -5 -24 -5 -39c0 -52 38 -94 89 -94c86 0 99 81 99 107c0 45 -29 80 -82 80c-7 0 -14 0 -22 -1l22 104c14 -3 22 -4 37 -4c76 0 102 63 102 112c0 16 -1 71 -72 71c-85 0 -93 -96 -94 -109l-155 18c0 92 94 209 251 209c149 0 231 -98 231 -191
c0 -74 -44 -129 -133 -156c57 -30 87 -80 87 -143c0 -114 -108 -220 -271 -220c-173 0 -248 103 -248 217c0 9 1 16 1 22z" />
    <glyph glyph-name="four.fitted" horiz-adv-x="562" 
d="M552 279l-26 -113h-99l-38 -166h-158l38 166h-285l30 128l344 384h185l-90 -399h99zM357 530l-222 -251h161z" />
    <glyph glyph-name="five.fitted" horiz-adv-x="559" 
d="M540 678l-29 -126h-267l-30 -117c22 15 51 36 112 36c102 0 198 -61 198 -202c0 -113 -94 -283 -285 -283c-149 0 -226 92 -226 226l161 7s-1 -23 -1 -26c0 -42 26 -83 74 -83c53 0 110 62 110 153c0 75 -46 98 -80 98c-40 0 -70 -29 -90 -60l-136 23l85 354h404z" />
    <glyph glyph-name="six.fitted" horiz-adv-x="552" 
d="M551 514l-150 -20c-5 22 -9 80 -67 80c-73 0 -122 -110 -131 -181c26 30 59 67 127 67c92 0 176 -80 176 -194c0 -107 -81 -281 -256 -281c-151 0 -219 140 -219 276c0 167 92 434 327 434c143 0 182 -105 193 -181zM344 252c0 9 0 93 -62 93c-56 0 -91 -90 -91 -143
c0 -64 33 -95 62 -95c45 0 91 66 91 145z" />
    <glyph glyph-name="seven.fitted" horiz-adv-x="489" 
d="M579 678l-27 -120c-34 -36 -67 -72 -99 -111c-110 -136 -179 -284 -199 -338c-14 -36 -22 -72 -31 -109h-180c13 50 34 129 95 237c69 121 147 210 238 314h-323l28 127h498z" />
    <glyph glyph-name="eight.fitted" horiz-adv-x="543" 
d="M517 516c0 -99 -68 -141 -123 -157c46 -25 101 -55 101 -149c0 -108 -86 -225 -258 -225c-104 0 -231 60 -231 201c0 115 70 172 160 187c-8 7 -79 34 -79 129c0 92 81 193 223 193c131 0 207 -76 207 -179zM364 510c0 46 -22 78 -57 78c-50 0 -72 -62 -72 -104
c0 -56 34 -78 58 -78c47 0 71 58 71 104zM329 204c0 36 -19 87 -77 87c-62 0 -88 -67 -88 -116c0 -68 53 -83 77 -83c46 0 88 43 88 112z" />
    <glyph glyph-name="nine.fitted" horiz-adv-x="553" 
d="M532 418c0 -115 -63 -433 -327 -433c-139 0 -180 101 -194 180l151 20c4 -27 10 -79 67 -79c80 0 122 122 131 180c-27 -29 -60 -66 -127 -66c-108 0 -176 90 -176 194c0 100 72 280 256 280c144 0 219 -129 219 -276zM372 478c0 65 -34 94 -62 94
c-48 0 -91 -67 -91 -149c0 -18 4 -89 61 -89c55 0 92 88 92 144z" />
    <glyph glyph-name="oneeighth" unicode="&#x215b;" horiz-adv-x="833" 
d="M657 678l-461 -678h-87l461 678h87zM311 676l-96 -424h-100l70 309c-35 -9 -43 -11 -81 -11h-14l15 68c73 2 100 14 131 58h75zM553 234c-36 18 -52 44 -52 81c0 68 62 120 145 120c80 0 135 -45 135 -110c0 -51 -27 -84 -81 -100c42 -18 67 -48 67 -93
c0 -80 -72 -140 -167 -140c-89 0 -152 53 -152 128c0 60 41 105 105 114zM599 304c0 -30 15 -50 37 -50c26 0 46 28 46 63c0 30 -16 47 -37 47c-26 0 -46 -26 -46 -60zM551 116c0 -31 21 -54 52 -54c32 0 57 29 57 65c0 33 -20 56 -50 56c-33 0 -59 -30 -59 -67z" />
    <glyph glyph-name="threeeighths" unicode="&#x215c;" horiz-adv-x="833" 
d="M712 678l-461 -678h-87l461 678h87zM580 234c-36 18 -52 44 -52 81c0 68 62 120 145 120c80 0 135 -45 135 -110c0 -51 -27 -84 -81 -100c42 -18 67 -48 67 -93c0 -80 -72 -140 -167 -140c-89 0 -152 53 -152 128c0 60 41 105 105 114zM626 304c0 -30 15 -50 37 -50
c26 0 46 28 46 63c0 30 -16 47 -37 47c-26 0 -46 -26 -46 -60zM578 116c0 -31 21 -54 52 -54c32 0 57 29 57 65c0 33 -20 56 -50 56c-33 0 -59 -30 -59 -67zM174 437l14 65c8 -2 16 -3 25 -3c59 1 62 64 62 73c0 30 -23 42 -44 42c-54 0 -59 -58 -60 -68l-97 11
c14 95 91 130 160 130c103 0 141 -71 141 -117c0 -71 -59 -92 -83 -99c24 -15 55 -39 55 -89c0 -68 -63 -138 -171 -138c-115 0 -154 76 -154 130c0 3 1 19 1 19l102 11c-2 -8 -3 -16 -3 -24c0 -33 23 -60 57 -60c40 0 61 33 61 67c0 16 -6 50 -51 50h-15z" />
    <glyph glyph-name="fiveeighths" unicode="&#x215d;" horiz-adv-x="833" 
d="M705 678l-461 -678h-87l461 678h87zM573 234c-36 18 -52 44 -52 81c0 68 62 120 145 120c80 0 135 -45 135 -110c0 -51 -27 -84 -81 -100c42 -18 67 -48 67 -93c0 -80 -72 -140 -167 -140c-89 0 -152 53 -152 128c0 60 41 105 105 114zM619 304c0 -30 15 -50 37 -50
c26 0 46 28 46 63c0 30 -16 47 -37 47c-26 0 -46 -26 -46 -60zM571 116c0 -31 21 -54 52 -54c32 0 57 29 57 65c0 33 -20 56 -50 56c-33 0 -59 -30 -59 -67zM366 676l-18 -79h-168l-19 -73c29 18 43 23 71 23c76 0 124 -48 124 -124c0 -102 -77 -179 -178 -179
c-88 0 -139 50 -143 141l101 4v-10c0 -36 17 -58 46 -58c38 0 69 43 69 96c0 37 -19 61 -49 61c-22 0 -38 -10 -58 -37l-85 14l53 221h254z" />
    <glyph glyph-name="seveneighths" unicode="&#x215e;" horiz-adv-x="833" 
d="M672 678l-461 -678h-87l461 678h87zM568 234c-36 18 -52 44 -52 81c0 68 62 120 145 120c80 0 135 -45 135 -110c0 -51 -27 -84 -81 -100c42 -18 67 -48 67 -93c0 -80 -72 -140 -167 -140c-89 0 -152 53 -152 128c0 60 41 105 105 114zM614 304c0 -30 15 -50 37 -50
c26 0 46 28 46 63c0 30 -16 47 -37 47c-26 0 -46 -26 -46 -60zM566 116c0 -31 21 -54 52 -54c32 0 57 29 57 65c0 33 -20 56 -50 56c-33 0 -59 -30 -59 -67zM430 675l-17 -75c-34 -33 -61 -72 -88 -111c-49 -70 -85 -150 -106 -237h-114c16 58 24 80 48 130
c38 79 78 138 146 214h-188l17 79h302z" />
    <glyph glyph-name="onethird" unicode="&#x2153;" horiz-adv-x="833" 
d="M665 678l-461 -678h-87l461 678h87zM319 676l-96 -424h-100l70 309c-35 -9 -43 -11 -81 -11h-14l15 68c73 2 100 14 131 58h75zM587 185l14 65c8 -2 16 -3 25 -3c59 1 62 64 62 73c0 30 -23 42 -44 42c-54 0 -59 -58 -60 -68l-97 11c14 95 91 130 160 130
c103 0 141 -71 141 -117c0 -71 -59 -92 -83 -99c24 -15 55 -39 55 -89c0 -68 -63 -138 -171 -138c-115 0 -154 76 -154 130c0 3 1 19 1 19l102 11c-2 -8 -3 -16 -3 -24c0 -33 23 -60 57 -60c40 0 61 33 61 67c0 16 -6 50 -51 50h-15z" />
    <glyph glyph-name="twothirds" unicode="&#x2154;" horiz-adv-x="833" 
d="M718 678l-461 -678h-87l461 678h87zM622 185l14 65c8 -2 16 -3 25 -3c59 1 62 64 62 73c0 30 -23 42 -44 42c-54 0 -59 -58 -60 -68l-97 11c14 95 91 130 160 130c103 0 141 -71 141 -117c0 -71 -59 -92 -83 -99c24 -15 55 -39 55 -89c0 -68 -63 -138 -171 -138
c-115 0 -154 76 -154 130c0 3 1 19 1 19l102 11c-2 -8 -3 -16 -3 -24c0 -33 23 -60 57 -60c40 0 61 33 61 67c0 16 -6 50 -51 50h-15zM16 252l14 67l184 150c16 13 57 49 57 87c0 28 -18 53 -49 53c-32 0 -59 -27 -59 -80c0 -6 0 -12 1 -19l-94 12c0 64 37 164 154 164
c112 0 144 -78 144 -129c0 -74 -70 -127 -98 -148l-106 -77h174l-19 -80h-303z" />
    <glyph glyph-name="onefifth" horiz-adv-x="833" 
d="M667 678l-461 -678h-87l461 678h87zM321 676l-96 -424h-100l70 309c-35 -9 -43 -11 -81 -11h-14l15 68c73 2 100 14 131 58h75zM800 424l-18 -79h-168l-19 -73c29 18 43 23 71 23c76 0 124 -48 124 -124c0 -102 -77 -179 -178 -179c-88 0 -139 50 -143 141l101 4v-10
c0 -36 17 -58 46 -58c38 0 69 43 69 96c0 37 -19 61 -49 61c-22 0 -38 -10 -58 -37l-85 14l53 221h254z" />
    <glyph glyph-name="twofifths" horiz-adv-x="833" 
d="M13 252l14 67l184 150c16 13 57 49 57 87c0 28 -18 53 -49 53c-32 0 -59 -27 -59 -80c0 -6 0 -12 1 -19l-94 12c0 64 37 164 154 164c112 0 144 -78 144 -129c0 -74 -70 -127 -98 -148l-106 -77h174l-19 -80h-303zM714 678l-461 -678h-87l461 678h87zM829 424l-18 -79
h-168l-19 -73c29 18 43 23 71 23c76 0 124 -48 124 -124c0 -102 -77 -179 -178 -179c-88 0 -139 50 -143 141l101 4v-10c0 -36 17 -58 46 -58c38 0 69 43 69 96c0 37 -19 61 -49 61c-22 0 -38 -10 -58 -37l-85 14l53 221h254z" />
    <glyph glyph-name="threefifths" horiz-adv-x="833" 
d="M707 678l-461 -678h-87l461 678h87zM819 424l-18 -79h-168l-19 -73c29 18 43 23 71 23c76 0 124 -48 124 -124c0 -102 -77 -179 -178 -179c-88 0 -139 50 -143 141l101 4v-10c0 -36 17 -58 46 -58c38 0 69 43 69 96c0 37 -19 61 -49 61c-22 0 -38 -10 -58 -37l-85 14
l53 221h254zM178 437l14 65c8 -2 16 -3 25 -3c59 1 62 64 62 73c0 30 -23 42 -44 42c-54 0 -59 -58 -60 -68l-97 11c14 95 91 130 160 130c103 0 141 -71 141 -117c0 -71 -59 -92 -83 -99c24 -15 55 -39 55 -89c0 -68 -63 -138 -171 -138c-115 0 -154 76 -154 130
c0 3 1 19 1 19l102 11c-2 -8 -3 -16 -3 -24c0 -33 23 -60 57 -60c40 0 61 33 61 67c0 16 -6 50 -51 50h-15z" />
    <glyph glyph-name="fourfifths" horiz-adv-x="833" 
d="M702 678l-461 -678h-87l461 678h87zM810 424l-18 -79h-168l-19 -73c29 18 43 23 71 23c76 0 124 -48 124 -124c0 -102 -77 -179 -178 -179c-88 0 -139 50 -143 141l101 4v-10c0 -36 17 -58 46 -58c38 0 69 43 69 96c0 37 -19 61 -49 61c-22 0 -38 -10 -58 -37l-85 14
l53 221h254zM368 426l-16 -70h-62l-23 -104h-99l24 104h-178l18 80l215 240h116l-56 -250h61zM247 583l-139 -157h100z" />
    <glyph glyph-name="braceleft.cap" horiz-adv-x="317" 
d="M426 807l-19 -84h-16c-56 0 -64 -32 -82 -108l-33 -142c-22 -95 -46 -122 -114 -136c37 -13 57 -41 57 -81c0 -20 -2 -42 -8 -67l-28 -120c-10 -44 -12 -53 -12 -66c0 -27 17 -43 49 -43h11l-19 -83h-64c-72 0 -114 39 -114 107c0 19 3 38 13 80l31 129c4 17 7 40 7 50
c0 36 -18 51 -69 56l20 87c73 1 92 19 111 106l33 148c29 129 58 167 182 167h64z" />
    <glyph glyph-name="braceright.cap" horiz-adv-x="317" 
d="M-98 -123l19 84h17c56 0 63 32 81 108l33 142c22 95 47 122 115 136c-37 13 -58 41 -58 81c0 20 3 42 9 67l27 120c10 44 12 53 12 66c0 27 -16 43 -48 43h-11l18 83h65c72 0 113 -39 113 -107c0 -19 -3 -38 -13 -80l-30 -129c-4 -17 -8 -40 -8 -50c0 -36 19 -51 70 -56
l-20 -87c-73 -1 -91 -20 -111 -106l-34 -148c-29 -129 -56 -167 -181 -167h-65z" />
    <glyph glyph-name="bracketleft.cap" horiz-adv-x="292" 
d="M404 804l-19 -84h-91l-174 -755h91l-19 -84h-224l213 923h223z" />
    <glyph glyph-name="bracketright.cap" horiz-adv-x="292" 
d="M341 804l-213 -922h-223l19 84h91l174 754h-91l20 84h223z" />
    <glyph glyph-name="emdash.cap" horiz-adv-x="918" 
d="M908 415l-33 -143h-841l33 143h841z" />
    <glyph glyph-name="endash.cap" horiz-adv-x="626" 
d="M616 415l-33 -143h-549l33 143h549z" />
    <glyph glyph-name="guillemotleft.cap" horiz-adv-x="417" 
d="M431 546l-33 -142l-104 -65l72 -72l-28 -122l-121 127l37 162zM247 547l-32 -139l-103 -67l71 -71l-28 -123l-120 128l36 158z" />
    <glyph glyph-name="guillemotright.cap" horiz-adv-x="417" 
d="M401 417l-36 -158l-176 -115l32 140l103 67l-72 70l29 123zM218 419l-36 -161l-177 -113l33 142l102 64l-71 73l28 121z" />
    <glyph glyph-name="guilsinglleft.cap" horiz-adv-x="229" 
d="M245 546l-32 -142l-104 -65l72 -72l-28 -122l-121 127l37 162z" />
    <glyph glyph-name="guilsinglright.cap" horiz-adv-x="229" 
d="M215 417l-35 -158l-176 -115l32 140l103 67l-72 70l29 123z" />
    <glyph glyph-name="hyphen.cap" horiz-adv-x="376" 
d="M366 415l-33 -143h-299l33 143h299z" />
    <glyph glyph-name="parenleft.cap" horiz-adv-x="335" 
d="M410 829l49 -68c-81 -61 -133 -110 -175 -166c-73 -98 -114 -225 -114 -351c0 -120 33 -231 97 -319l-68 -64c-34 42 -45 57 -63 83c-67 98 -99 198 -99 311c0 132 40 247 120 354c66 89 145 157 253 220z" />
    <glyph glyph-name="parenright.cap" horiz-adv-x="335" 
d="M82 766l68 64c34 -41 46 -56 64 -82c66 -98 98 -198 98 -311c0 -43 -5 -87 -14 -129c-18 -84 -50 -152 -106 -226c-66 -89 -143 -156 -252 -220l-50 68c83 62 133 110 175 166c73 99 114 226 114 351c0 123 -33 232 -97 319z" />
    <glyph glyph-name="periodcentered.cap" horiz-adv-x="250" 
d="M236 427l-37 -165h-158l37 165h158z" />
    <glyph glyph-name="afii10017" unicode="&#x410;" horiz-adv-x="708" 
d="M635 0h-172l-9 140h-260l-78 -140h-185l431 706h198zM446 268l-19 290l-161 -290h180z" />
    <glyph glyph-name="afii10018" unicode="&#x411;" horiz-adv-x="708" 
d="M160 706h542l-31 -136h-366l-32 -140h175c116 0 210 -53 210 -190c0 -170 -147 -240 -275 -240h-383zM244 302l-39 -174h165c60 0 110 37 110 98c0 62 -43 76 -94 76h-142z" />
    <glyph glyph-name="afii10019" unicode="&#x412;" horiz-adv-x="708" 
d="M159 706h318c86 0 202 -30 202 -167c0 -87 -51 -145 -144 -167c67 -29 119 -68 119 -157c0 -151 -139 -215 -248 -215h-407zM301 579l-34 -151h131c56 0 109 17 109 86c0 53 -42 65 -78 65h-128zM238 300l-38 -170h153c54 0 118 14 118 98c0 62 -51 72 -86 72h-147z" />
    <glyph glyph-name="afii10020" unicode="&#x413;" horiz-adv-x="600" 
d="M160 706h516l-31 -136h-340l-129 -570h-176z" />
    <glyph glyph-name="afii10021" unicode="&#x414;" horiz-adv-x="840" 
d="M816 706l-129 -570h90l-65 -286h-166l34 150h-462l-34 -150h-166l65 286c97 0 184 127 253 430l32 140h548zM609 570h-206l-8 -35c-53 -251 -117 -354 -173 -399h289z" />
    <glyph glyph-name="afii10022" unicode="&#x415;" horiz-adv-x="667" 
d="M669 706l-31 -135h-335l-31 -137h323l-29 -129h-323l-39 -171h385l-29 -134h-560l161 706h508z" />
    <glyph glyph-name="afii10024" unicode="&#x416;" horiz-adv-x="980" 
d="M497 706h170l-60 -264h56c140 0 121 175 205 264h176c-124 -108 -95 -277 -246 -330c147 -32 54 -267 113 -376h-166c-41 130 33 314 -107 314h-60l-71 -314h-170l71 314h-54c-160 0 -124 -204 -244 -314h-170c147 161 98 337 287 376c-128 54 -34 193 -118 330h166
c51 -79 -25 -249 107 -264h55z" />
    <glyph glyph-name="afii10025" unicode="&#x417;" horiz-adv-x="720" 
d="M263 298l29 128h119c56 0 109 16 109 84c0 58 -46 80 -108 80c-100 0 -156 -55 -186 -99l-140 82c45 57 138 151 347 151c110 0 259 -33 259 -185c0 -87 -51 -145 -144 -167c67 -22 119 -68 119 -157c0 -164 -196 -233 -350 -233c-167 0 -262 77 -303 163l155 97
c18 -80 95 -126 174 -126c66 0 142 17 142 110c0 62 -56 72 -95 72h-127z" />
    <glyph glyph-name="afii10026" unicode="&#x418;" horiz-adv-x="764" 
d="M336 706l-91 -402l350 326l17 76h176l-160 -706h-176l93 410l-350 -326l-19 -84h-176l160 706h176z" />
    <glyph glyph-name="afii10027" unicode="&#x419;" horiz-adv-x="764" 
d="M336 706l-91 -402l350 326l17 76h176l-160 -706h-176l93 410l-350 -326l-19 -84h-176l160 706h176zM568 900l120 -20c-35 -86 -106 -129 -206 -129c-103 0 -152 52 -152 129l124 20c0 -27 4 -57 47 -57c25 0 56 12 67 57z" />
    <glyph glyph-name="afii10028" unicode="&#x41a;" horiz-adv-x="700" 
d="M160 706h176l-59 -260h92c140 0 121 172 205 260h186c-124 -108 -95 -277 -246 -330c147 -32 54 -267 113 -376h-176c-8 31 -8 83 -8 117v53c0 77 -9 140 -89 140h-108l-70 -310h-176z" />
    <glyph glyph-name="afii10029" unicode="&#x41b;" horiz-adv-x="748" 
d="M236 706h536l-160 -706h-176l129 570h-194l-14 -62c-87 -404 -152 -508 -347 -508h-60l31 136h22c80 0 115 48 190 380z" />
    <glyph glyph-name="afii10030" unicode="&#x41c;" horiz-adv-x="896" 
d="M917 706l-159 -706h-164l126 546l-264 -546h-148l-20 554l-121 -554h-165l158 706h261c0 -40 12 -463 12 -463l219 463h265z" />
    <glyph glyph-name="afii10031" unicode="&#x41d;" horiz-adv-x="750" 
d="M774 706l-160 -706h-176l71 313h-263l-71 -313h-175l161 706h175l-58 -257h262l58 257h176z" />
    <glyph glyph-name="afii10032" unicode="&#x41e;" horiz-adv-x="792" 
d="M769 423c0 -167 -109 -440 -407 -440c-221 0 -314 129 -314 307c0 182 121 435 407 435c209 0 314 -136 314 -302zM593 424c0 94 -56 157 -151 157c-173 0 -216 -214 -216 -299c0 -99 63 -159 145 -159c148 0 222 175 222 301z" />
    <glyph glyph-name="afii10033" unicode="&#x41f;" horiz-adv-x="736" 
d="M160 706h600l-160 -706h-176l129 570h-248l-129 -570h-176z" />
    <glyph glyph-name="afii10034" unicode="&#x420;" horiz-adv-x="688" 
d="M159 706h307c127 0 230 -59 230 -211c0 -186 -152 -262 -285 -262h-183l-53 -233h-175zM307 580l-50 -220h132c71 0 130 48 130 129c0 72 -54 91 -104 91h-108z" />
    <glyph glyph-name="afii10035" unicode="&#x421;" horiz-adv-x="729" 
d="M738 524l-169 -38c-10 31 -36 101 -128 101c-113 0 -200 -125 -200 -277c0 -133 74 -182 134 -182c77 0 142 71 167 139l147 -82c-43 -76 -127 -203 -318 -203c-172 0 -317 113 -317 327c0 236 164 415 383 415c168 0 265 -88 301 -200z" />
    <glyph glyph-name="afii10036" unicode="&#x422;" horiz-adv-x="625" 
d="M683 706l-35 -137h-183l-128 -569h-177l128 569h-194l35 137h554z" />
    <glyph glyph-name="afii10037" unicode="&#x423;" horiz-adv-x="652" 
d="M562 706h186l-312 -509c-118 -192 -183 -197 -350 -197h-30l34 146h30c59 0 108 3 146 68l-176 492h180l106 -330z" />
    <glyph glyph-name="afii10038" unicode="&#x424;" horiz-adv-x="880" 
d="M447 720h176l-22 -96h10c204 0 247 -126 247 -225c0 -222 -162 -309 -342 -309h-36l-22 -100h-176l22 100h-9c-204 0 -247 126 -247 225c0 222 162 309 342 309h35zM400 496h-28c-94 0 -158 -56 -158 -165c0 -65 40 -113 112 -113h10zM506 218h28c94 0 158 56 158 165
c0 65 -40 113 -112 113h-10z" />
    <glyph glyph-name="afii10039" unicode="&#x425;" horiz-adv-x="708" 
d="M776 706l-308 -344l177 -362h-186l-112 236l-202 -236h-216l342 382l-161 324h189l94 -201l176 201h207z" />
    <glyph glyph-name="afii10040" unicode="&#x426;" horiz-adv-x="780" 
d="M160 706h176l-129 -570h244l129 570h176l-129 -570h90l-65 -286h-166l34 150h-520z" />
    <glyph glyph-name="afii10041" unicode="&#x427;" horiz-adv-x="708" 
d="M732 706l-160 -706h-176l60 266c-67 -17 -119 -24 -165 -24c-125 0 -207 42 -207 156c0 31 3 61 18 127l42 181h176l-43 -187c-5 -23 -13 -55 -13 -82c0 -31 13 -59 91 -59c38 0 80 8 132 24l69 304h176z" />
    <glyph glyph-name="afii10042" unicode="&#x428;" horiz-adv-x="1026" 
d="M160 706h170l-129 -570h190l129 570h170l-129 -570h190l129 570h170l-160 -706h-890z" />
    <glyph glyph-name="afii10043" unicode="&#x429;" horiz-adv-x="1074" 
d="M160 706h170l-129 -570h190l129 570h170l-129 -570h190l129 570h170l-129 -570h90l-65 -286h-166l34 150h-814z" />
    <glyph glyph-name="afii10044" unicode="&#x42a;" horiz-adv-x="820" 
d="M456 706l-58 -256h160c122 0 212 -58 212 -200c0 -177 -152 -250 -285 -250h-365l129 570h-159l31 136h335zM368 322l-43 -194h147c65 0 120 41 120 108c0 70 -48 86 -104 86h-120z" />
    <glyph glyph-name="afii10045" unicode="&#x42b;" horiz-adv-x="960" 
d="M160 706h170l-58 -256h140c122 0 212 -58 212 -200c0 -177 -152 -250 -285 -250h-339zM242 322l-43 -194h137c65 0 120 41 120 108c0 70 -48 86 -104 86h-110zM984 706l-158 -706h-176l158 706h176z" />
    <glyph glyph-name="afii10046" unicode="&#x42c;" horiz-adv-x="700" 
d="M160 706h176l-58 -256h160c122 0 212 -58 212 -200c0 -177 -152 -250 -285 -250h-365zM248 322l-43 -194h147c65 0 120 41 120 108c0 70 -48 86 -104 86h-120z" />
    <glyph glyph-name="afii10047" unicode="&#x42d;" horiz-adv-x="720" 
d="M247 298l29 128h244c-6 99 -59 164 -140 164c-90 0 -140 -61 -166 -109l-134 82c42 61 124 161 311 161c167 0 307 -113 307 -327c0 -236 -164 -415 -384 -415c-165 0 -259 77 -300 163l155 97c2 -9 29 -126 145 -126c130 0 183 106 198 182h-265z" />
    <glyph glyph-name="afii10048" unicode="&#x42e;" horiz-adv-x="1080" 
d="M160 706h170l-58 -257h118c29 99 118 276 365 276c202 0 303 -136 303 -302c0 -167 -105 -440 -396 -440c-209 0 -298 129 -298 307v23h-123l-71 -313h-170zM880 424c0 96 -51 161 -138 161c-165 0 -206 -217 -206 -303c0 -99 59 -159 135 -159c139 0 209 175 209 301z
" />
    <glyph glyph-name="afii10049" unicode="&#x42f;" horiz-adv-x="708" 
d="M732 706l-160 -706h-176l58 256h-110c-125 0 -144 -196 -210 -256h-186c101 74 98 285 258 311c-45 9 -106 61 -106 152c0 153 86 243 281 243h351zM483 384l43 194h-132c-65 0 -120 -33 -120 -108c0 -70 48 -86 104 -86h105z" />
    <glyph glyph-name="afii10065" unicode="&#x430;" 
d="M480 0h-148c-2 8 -5 15 -5 24c0 6 6 28 9 48c-8 -18 -50 -87 -171 -87c-97 0 -155 58 -155 146c0 46 19 85 47 115c62 67 186 73 332 81c4 15 10 39 10 55c0 51 -58 52 -72 52c-57 0 -81 -32 -91 -73c0 0 -130 4 -154 5c28 107 96 166 264 166c158 0 205 -70 205 -135
c0 -27 0 -37 -10 -79l-60 -267c-3 -12 -4 -24 -4 -29c0 -4 1 -11 3 -22zM366 231h-15c-140 0 -186 -42 -186 -83c0 -10 1 -53 63 -53c71 0 120 48 138 136z" />
    <glyph glyph-name="afii10066" unicode="&#x431;" horiz-adv-x="629" 
d="M546 728h118c-18 -103 -69 -176 -266 -180c-137 -3 -187 -55 -205 -113l-7 -21c58 55 113 78 198 78c111 0 202 -76 202 -211c0 -113 -87 -296 -303 -296c-196 0 -248 114 -249 237c0 63 15 139 34 196c28 83 79 256 348 263c88 2 120 16 130 47zM430 274
c0 56 -25 112 -92 112c-83 0 -148 -75 -148 -170c0 -85 55 -109 99 -109c95 0 141 92 141 167z" />
    <glyph glyph-name="afii10067" unicode="&#x432;" horiz-adv-x="600" 
d="M117 515h307c105 0 146 -55 146 -118c0 -84 -69 -112 -106 -120c37 -8 84 -31 84 -114c0 -41 -25 -163 -181 -163h-365zM239 407l-21 -93h145c46 0 57 31 57 50c0 31 -18 43 -42 43h-139zM196 216l-24 -108h155c58 0 71 35 71 60c0 34 -22 48 -52 48h-150z" />
    <glyph glyph-name="afii10068" unicode="&#x433;" horiz-adv-x="460" 
d="M117 515h382l-25 -114h-228l-90 -401h-154z" />
    <glyph glyph-name="afii10069" unicode="&#x434;" horiz-adv-x="676" 
d="M631 515l-89 -401h74l-53 -234h-140l27 120h-350l-27 -120h-140l53 234c117 35 159 177 196 343l13 58h436zM452 401h-136l-9 -40c-15 -69 -57 -200 -123 -247h204z" />
    <glyph glyph-name="afii10070" unicode="&#x435;" 
d="M555 230h-375s-1 -12 -1 -21c0 -49 25 -105 105 -105c53 0 98 28 122 76l129 -45c-43 -72 -104 -150 -255 -150c-141 0 -251 89 -251 248c0 134 95 300 293 300c132 0 237 -75 237 -235c0 -23 -2 -46 -4 -68zM200 327h221v6c0 48 -35 92 -98 92c-65 0 -103 -47 -123 -98z
" />
    <glyph glyph-name="afii10072" unicode="&#x436;" horiz-adv-x="760" 
d="M356 515h146l-40 -181h37c85 0 73 118 131 181h160c-102 -59 -84 -215 -186 -235c113 -37 34 -184 100 -280h-148c-36 59 23 220 -83 220h-37l-49 -220h-146l49 220h-45c-92 0 -94 -167 -157 -220h-148c95 81 87 259 209 280c-91 37 -17 160 -94 235h150
c35 -63 -3 -181 64 -181h47z" />
    <glyph glyph-name="afii10073" unicode="&#x437;" horiz-adv-x="556" 
d="M213 316h100c46 0 57 33 57 54c0 39 -29 54 -86 54c-63 0 -101 -43 -116 -70l-118 63c21 32 90 115 252 115c173 0 224 -61 224 -135c0 -86 -69 -115 -106 -123c37 -13 84 -30 84 -111c0 -45 -37 -178 -269 -178c-41 0 -167 1 -237 135l130 64c10 -31 43 -81 120 -81
c82 0 100 40 100 69c0 34 -22 48 -52 48h-105z" />
    <glyph glyph-name="afii10074" unicode="&#x438;" horiz-adv-x="628" 
d="M117 515h154l-60 -265l226 187l18 78h154l-115 -515h-154l61 273l-226 -187l-19 -86h-154z" />
    <glyph glyph-name="afii10075" unicode="&#x439;" horiz-adv-x="628" 
d="M117 515h154l-60 -265l226 187l18 78h154l-115 -515h-154l61 273l-226 -187l-19 -86h-154zM452 717l116 -20c-34 -86 -104 -129 -202 -129c-100 0 -148 52 -148 129l120 20c0 -31 4 -65 47 -65c25 0 56 14 67 65z" />
    <glyph glyph-name="afii10076" unicode="&#x43a;" horiz-adv-x="580" 
d="M117 515h154l-40 -181h67c101 0 87 118 146 181h166c-101 -59 -83 -217 -185 -237c113 -37 34 -183 100 -278h-154c-38 59 24 220 -97 220h-69l-49 -220h-154z" />
    <glyph glyph-name="afii10077" unicode="&#x43b;" horiz-adv-x="600" 
d="M145 515h436l-115 -515h-154l90 401h-136l-31 -139c-38 -174 -79 -262 -257 -262h-36l26 114h16c69 0 90 82 106 155z" />
    <glyph glyph-name="afii10078" unicode="&#x43c;" horiz-adv-x="794" 
d="M117 515h248l15 -335l155 335h240l-115 -515h-148s57 245 107 446l-209 -446h-155l-15 446c-33 -180 -90 -446 -90 -446h-148z" />
    <glyph glyph-name="afii10079" unicode="&#x43d;" horiz-adv-x="608" 
d="M117 515h154l-42 -189h164l42 189h154l-115 -515h-154l47 212h-164l-47 -212h-154z" />
    <glyph glyph-name="afii10080" unicode="&#x43e;" horiz-adv-x="625" 
d="M581 291c0 -117 -87 -306 -303 -306c-181 0 -249 130 -249 247c0 128 98 301 303 301c139 0 249 -87 249 -242zM423 294c0 60 -27 118 -100 118c-77 0 -138 -82 -138 -186c0 -93 57 -119 103 -119c91 0 135 104 135 187z" />
    <glyph glyph-name="afii10081" unicode="&#x43f;" 
d="M117 515h468l-115 -515h-154l90 401h-160l-90 -401h-154z" />
    <glyph glyph-name="afii10082" unicode="&#x440;" horiz-adv-x="628" 
d="M119 515h138l-11 -51c19 21 59 65 139 65c136 0 199 -110 199 -228c0 -129 -86 -315 -269 -315c-49 0 -116 17 -147 68l-55 -242h-154zM428 294c0 72 -30 125 -88 125c-106 0 -139 -136 -139 -213c0 -89 62 -110 96 -110c74 0 131 96 131 198z" />
    <glyph glyph-name="afii10083" unicode="&#x441;" horiz-adv-x="582" 
d="M566 356l-138 -30c-20 82 -77 85 -101 85c-89 0 -141 -105 -141 -187c0 -27 5 -115 105 -115c73 0 98 64 106 85l140 -43c-21 -46 -90 -166 -255 -166c-146 0 -255 99 -255 245c0 161 126 302 302 302c158 0 217 -105 237 -176z" />
    <glyph glyph-name="afii10084" unicode="&#x442;" horiz-adv-x="502" 
d="M59 515h482l-25 -114h-164l-90 -401h-154l90 401h-164z" />
    <glyph glyph-name="afii10085" unicode="&#x443;" horiz-adv-x="500" 
d="M563 515l-336 -572c-46 -79 -86 -128 -218 -128c-26 0 -52 1 -77 4l27 125c18 -3 35 -7 53 -7c42 0 62 15 80 38l-53 540h156l16 -360l181 360h171z" />
    <glyph glyph-name="afii10086" unicode="&#x444;" horiz-adv-x="780" 
d="M560 706l-43 -191c66 0 219 -41 219 -216c0 -184 -119 -299 -334 -299l-42 -188h-154l42 188c-66 0 -218 41 -218 216c0 184 119 299 333 299l43 191h154zM279 122l60 271c-123 -1 -165 -82 -165 -161c0 -67 28 -110 105 -110zM486 394l-60 -271c124 1 166 82 166 161
c0 67 -28 110 -106 110z" />
    <glyph glyph-name="afii10087" unicode="&#x445;" horiz-adv-x="521" 
d="M566 515l-227 -253l114 -262h-162l-56 156l-129 -156h-173l241 272l-101 243h162l48 -132l106 132h177z" />
    <glyph glyph-name="afii10088" unicode="&#x446;" horiz-adv-x="630" 
d="M117 515h154l-89 -401h160l89 401h154l-89 -401h74l-53 -234h-140l27 120h-402z" />
    <glyph glyph-name="afii10089" unicode="&#x447;" horiz-adv-x="572" 
d="M83 515h154c-25 -110 -26 -113 -26 -115c-7 -32 -10 -48 -10 -68c0 -31 23 -42 59 -42c26 0 69 7 92 16l47 209h154l-115 -515h-154l44 196c-41 -10 -82 -16 -154 -16c-75 0 -130 33 -130 125c0 15 4 61 14 101z" />
    <glyph glyph-name="afii10090" unicode="&#x448;" horiz-adv-x="874" 
d="M117 515h146l-89 -401h150l89 401h146l-89 -401h150l89 401h146l-115 -515h-738z" />
    <glyph glyph-name="afii10091" unicode="&#x449;" horiz-adv-x="900" 
d="M117 515h146l-89 -401h150l89 401h146l-89 -401h150l89 401h146l-89 -401h74l-53 -234h-140l27 120h-672z" />
    <glyph glyph-name="afii10092" unicode="&#x44a;" horiz-adv-x="620" 
d="M331 515l-39 -177h125c90 0 157 -52 157 -162c0 -46 -26 -176 -194 -176h-318l90 401h-118l25 114h272zM266 224l-24 -110h110c56 0 68 35 68 60c0 36 -21 50 -50 50h-104z" />
    <glyph glyph-name="afii10093" unicode="&#x44b;" horiz-adv-x="780" 
d="M263 515l-39 -177h107c90 0 157 -52 157 -162c0 -46 -26 -176 -194 -176h-292l115 515h146zM198 224l-25 -110h103c56 0 68 35 68 60c0 36 -21 50 -50 50h-96zM615 515h146l-115 -515h-146z" />
    <glyph glyph-name="afii10094" unicode="&#x44c;" horiz-adv-x="560" 
d="M271 515l-39 -177h125c90 0 157 -52 157 -162c0 -46 -26 -176 -194 -176h-318l115 515h154zM206 224l-24 -110h110c56 0 68 35 68 60c0 36 -21 50 -50 50h-104z" />
    <glyph glyph-name="afii10095" unicode="&#x44d;" horiz-adv-x="582" 
d="M172 354l-118 63c37 50 87 115 242 115c138 0 242 -75 242 -245c0 -161 -125 -302 -299 -302c-41 0 -167 1 -237 135l134 64c9 -31 38 -81 106 -81c93 0 123 82 130 117h-177l21 96h166c0 32 -16 108 -101 108c-65 0 -94 -43 -109 -70z" />
    <glyph glyph-name="afii10096" unicode="&#x44e;" horiz-adv-x="880" 
d="M117 515h146l-42 -189h92c18 76 82 207 276 207c138 0 247 -87 247 -242c0 -117 -86 -306 -301 -306c-187 0 -236 130 -236 227h-104l-47 -212h-146zM680 294c0 59 -27 117 -97 117c-74 0 -133 -82 -133 -185c0 -93 54 -119 98 -119c89 0 132 104 132 187z" />
    <glyph glyph-name="afii10097" unicode="&#x44f;" horiz-adv-x="592" 
d="M573 515l-115 -515h-154l40 177h-65c-105 0 -101 -122 -153 -177h-166c77 55 67 197 184 229c-21 3 -77 28 -77 108c0 65 27 178 201 178h305zM368 285l27 122h-94c-64 0 -78 -38 -78 -66c0 -40 25 -56 60 -56h85z" />
    <glyph glyph-name="afii10050" unicode="&#x490;" horiz-adv-x="600" 
d="M160 706h350l34 150h166l-65 -286h-340l-129 -570h-176z" />
    <glyph glyph-name="afii10055" unicode="&#x406;" horiz-adv-x="313" 
d="M336 706l-158 -706h-176l158 706h176z" />
    <glyph glyph-name="afii10051" unicode="&#x402;" horiz-adv-x="848" 
d="M682 706l-31 -136h-187l-36 -158c41 17 103 34 159 34c161 0 211 -93 211 -203c0 -162 -129 -243 -286 -243h-71l29 128h40c74 0 110 39 110 97c0 30 -4 85 -89 85c-54 0 -101 -18 -134 -36l-62 -274h-176l129 570h-194l31 136h557z" />
    <glyph glyph-name="afii10099" unicode="&#x452;" horiz-adv-x="602" 
d="M159 706h154l-15 -68h200l-23 -104h-200l-34 -150c20 21 67 73 153 73c98 0 143 -66 143 -133c0 -23 -7 -55 -69 -333c-22 -97 -58 -171 -218 -171c-24 0 -51 1 -75 2l29 124c15 -1 28 -1 38 -1c37 0 63 8 75 59l45 197c8 36 14 58 14 79c0 34 -24 59 -64 59
c-49 0 -90 -44 -107 -120l-49 -219h-154l119 534h-80l23 104h80z" />
    <glyph glyph-name="afii10052" unicode="&#x403;" horiz-adv-x="600" 
d="M160 706h516l-31 -136h-340l-129 -570h-176zM628 911l-162 -131h-101l76 131h187z" />
    <glyph glyph-name="afii10100" unicode="&#x453;" horiz-adv-x="460" 
d="M117 515h382l-25 -114h-228l-90 -401h-154zM506 742l-165 -162h-94l94 162h165z" />
    <glyph glyph-name="afii10103" unicode="&#x456;" horiz-adv-x="292" 
d="M316 706l-26 -117h-155l27 117h154zM273 515l-117 -515h-155l117 515h155z" />
    <glyph glyph-name="afii10098" unicode="&#x491;" horiz-adv-x="460" 
d="M117 515h243l27 121h140l-53 -235h-228l-90 -401h-154z" />
    <glyph glyph-name="afii10057" unicode="&#x408;" horiz-adv-x="396" 
d="M244 706h176l-119 -527c-30 -135 -101 -179 -223 -179h-136l34 146h44c67 0 102 15 119 93z" />
    <glyph glyph-name="afii10053" unicode="&#x404;" horiz-adv-x="728" 
d="M732 534l-169 -38c-11 29 -39 94 -138 94c-113 0 -166 -105 -181 -164h255l-29 -128h-244c0 -129 79 -182 143 -182c77 0 142 67 167 131l147 -82c-45 -69 -135 -183 -338 -183c-162 0 -297 113 -297 327c0 236 164 415 383 415c168 0 265 -84 301 -190z" />
    <glyph glyph-name="afii10101" unicode="&#x454;" horiz-adv-x="582" 
d="M566 376l-138 -30c-20 76 -77 78 -101 78c-82 0 -120 -75 -129 -108h175l-21 -96h-170c0 -25 5 -117 109 -117c73 0 98 61 106 81l140 -43c-21 -43 -90 -156 -255 -156c-144 0 -252 99 -252 245c0 161 125 302 299 302c158 0 217 -93 237 -156z" />
    <glyph glyph-name="afii10056" unicode="&#x407;" horiz-adv-x="370" 
d="M364 706l-160 -706h-176l160 706h176zM470 896l-26 -116h-130l26 116h130zM278 896l-26 -116h-130l26 116h130z" />
    <glyph glyph-name="afii10104" unicode="&#x457;" horiz-adv-x="360" 
d="M424 706l-26 -116h-120l26 116h120zM240 706l-26 -116h-120l26 116h120zM308 515l-117 -515h-156l119 515h154z" />
    <glyph glyph-name="afii10058" unicode="&#x409;" horiz-adv-x="1110" 
d="M236 706h520l-58 -256h150c122 0 212 -58 212 -200c0 -177 -152 -250 -285 -250h-349l129 570h-184l-14 -62c-39 -176 -69 -295 -110 -373c-55 -102 -127 -135 -237 -135h-60l31 136h22c80 2 115 48 190 380zM668 322l-43 -194h137c65 0 120 41 120 108
c0 70 -48 86 -104 86h-110z" />
    <glyph glyph-name="afii10106" unicode="&#x459;" horiz-adv-x="850" 
d="M569 515l-39 -177h117c90 0 157 -52 157 -162c0 -46 -26 -176 -194 -176h-302l90 401h-132l-31 -139c-17 -75 -34 -134 -61 -177c-37 -57 -95 -85 -196 -85h-36l26 114h16c69 0 90 82 106 155l55 246h424zM504 224l-25 -110h103c56 0 68 35 68 60c0 36 -21 50 -50 50h-96
z" />
    <glyph glyph-name="afii10059" unicode="&#x40a;" horiz-adv-x="1110" 
d="M160 706h176l-58 -256h250l58 256h170l-58 -256h150c122 0 212 -58 212 -200c0 -177 -152 -250 -285 -250h-349l73 322h-250l-73 -322h-176zM668 322l-43 -194h137c65 0 120 41 120 108c0 70 -48 86 -104 86h-110z" />
    <glyph glyph-name="afii10107" unicode="&#x45a;" horiz-adv-x="858" 
d="M117 515h154l-39 -177h160l39 177h146l-39 -177h117c90 0 157 -52 157 -162c0 -46 -26 -176 -194 -176h-302l50 224h-160l-50 -224h-154zM512 224l-25 -110h103c56 0 68 35 68 60c0 36 -21 50 -50 50h-96z" />
    <glyph glyph-name="afii10105" unicode="&#x458;" horiz-adv-x="313" 
d="M338 706l-27 -117h-155l27 117h155zM294 515l-121 -524c-22 -97 -58 -171 -218 -171c-24 0 -51 1 -75 2l29 124c15 -1 28 -1 38 -1c37 0 63 8 75 59l117 511h155z" />
    <glyph glyph-name="afii10054" unicode="&#x405;" horiz-adv-x="667" 
d="M669 576l-146 -85c-20 80 -108 99 -162 99c-75 0 -100 -42 -100 -66c0 -38 36 -52 91 -71l75 -26c121 -42 192 -100 192 -207c0 -114 -99 -238 -306 -238c-181 0 -284 77 -329 163l155 97c3 -9 35 -119 177 -119c100 0 120 60 120 82c0 25 -15 49 -98 78l-101 35
c-44 15 -153 64 -153 182c0 105 87 224 292 224c165 0 241 -64 293 -148z" />
    <glyph glyph-name="afii10060" unicode="&#x40b;" horiz-adv-x="860" 
d="M682 706l-31 -136h-187l-33 -148c66 17 119 24 165 24c124 0 206 -42 206 -156c0 -31 -3 -67 -17 -127l-37 -163h-176l38 169c5 23 12 55 12 82c0 31 -13 59 -90 59c-38 0 -81 -8 -132 -24l-65 -286h-176l129 570h-194l31 136h557z" />
    <glyph glyph-name="afii10108" unicode="&#x45b;" horiz-adv-x="602" 
d="M159 706h154l-15 -68h200l-23 -104h-200l-34 -150c20 21 67 73 153 73c98 0 143 -66 143 -133c0 -23 -7 -55 -8 -59l-59 -265h-154l46 204c8 36 13 55 14 72c0 38 -24 63 -64 63c-49 0 -90 -44 -107 -120l-49 -219h-154l119 534h-80l23 104h80z" />
    <glyph glyph-name="afii10061" unicode="&#x40c;" horiz-adv-x="700" 
d="M160 706h176l-59 -260h92c140 0 121 172 205 260h186c-124 -108 -95 -277 -246 -330c147 -32 54 -267 113 -376h-176c-8 31 -8 83 -8 117v53c0 77 -9 140 -89 140h-108l-70 -310h-176zM648 911l-162 -131h-101l76 131h187z" />
    <glyph glyph-name="afii10109" unicode="&#x45c;" horiz-adv-x="580" 
d="M117 515h154l-40 -181h67c101 0 87 118 146 181h166c-101 -59 -83 -217 -185 -237c113 -37 34 -183 100 -278h-154c-38 59 24 220 -97 220h-69l-49 -220h-154zM546 742l-165 -162h-94l94 162h165z" />
    <glyph glyph-name="afii10102" unicode="&#x455;" horiz-adv-x="542" 
d="M521 407l-116 -57c-24 38 -57 69 -127 69c-43 0 -66 -17 -66 -39c0 -23 14 -30 67 -46l53 -16c79 -24 154 -64 154 -151c0 -79 -74 -183 -257 -183c-43 0 -177 1 -251 136l130 64c11 -29 47 -76 132 -76c9 0 84 1 84 46c0 27 -27 36 -69 49l-53 17
c-57 18 -151 52 -151 151c0 75 68 162 229 162c159 0 216 -78 241 -126z" />
    <glyph glyph-name="afii10062" unicode="&#x40e;" horiz-adv-x="652" 
d="M562 706h186l-312 -509c-118 -192 -183 -197 -350 -197h-30l34 146h30c59 0 108 3 146 68l-176 492h180l106 -330zM502 900l120 -20c-35 -86 -106 -129 -206 -129c-103 0 -152 52 -152 129l124 20c0 -27 4 -57 47 -57c25 0 56 12 67 57z" />
    <glyph glyph-name="afii10110" unicode="&#x45e;" horiz-adv-x="500" 
d="M563 515l-336 -572c-46 -79 -86 -128 -218 -128c-26 0 -52 1 -77 4l27 125c18 -3 35 -7 53 -7c42 0 62 15 80 38l-53 540h156l16 -360l181 360h171zM374 717l116 -20c-34 -86 -104 -129 -202 -129c-100 0 -148 52 -148 129l120 20c0 -31 4 -65 47 -65c25 0 56 14 67 65z
" />
    <glyph glyph-name="afii10145" unicode="&#x40f;" horiz-adv-x="780" 
d="M160 706h176l-129 -570h244l129 570h176l-160 -706h-204l-39 -170h-166l39 170h-226z" />
    <glyph glyph-name="afii10193" unicode="&#x45f;" 
d="M117 515h154l-89 -401h160l89 401h154l-114 -515h-163l-31 -140h-140l31 140h-166z" />
    <glyph glyph-name="afii61352" unicode="&#x2116;" horiz-adv-x="1126" 
d="M734 706l-160 -706h-172l-140 453l-100 -453h-162l160 706h176l141 -455l96 455h161zM760 446c0 115 65 260 221 260c116 0 145 -105 145 -184c0 -135 -77 -254 -225 -254c-73 0 -141 58 -141 178zM866 445c0 -46 11 -93 54 -93c73 0 100 96 100 169
c0 66 -22 101 -55 101c-59 0 -99 -97 -99 -177zM1052 222l-27 -122h-324l27 122h324z" />
    <glyph glyph-name="afii10023" unicode="&#x401;" horiz-adv-x="667" 
d="M649 896l-26 -116h-160l26 116h160zM427 896l-26 -116h-160l26 116h160zM669 706l-31 -135h-335l-31 -137h323l-29 -129h-323l-39 -171h385l-29 -134h-560l161 706h508z" />
    <glyph glyph-name="afii10071" unicode="&#x451;" 
d="M548 706l-26 -116h-154l26 116h154zM314 706l-26 -116h-154l26 116h154zM555 230h-375s-1 -12 -1 -21c0 -49 25 -105 105 -105c53 0 98 28 122 76l129 -45c-43 -72 -104 -150 -255 -150c-141 0 -251 89 -251 248c0 134 95 300 293 300c132 0 237 -75 237 -235
c0 -23 -2 -46 -4 -68zM200 327h221v6c0 48 -35 92 -98 92c-65 0 -103 -47 -123 -98z" />
    <glyph glyph-name="afii10066.locl" horiz-adv-x="630" 
d="M547 728h118c-16 -87 -52 -166 -150 -166c-43 0 -74 8 -94 12c-38 6 -56 11 -92 11s-50 -18 -50 -40c0 -41 64 -44 114 -52c149 -23 194 -111 194 -212c0 -113 -87 -296 -303 -296c-144 0 -249 63 -249 219c0 121 76 219 187 240c-53 17 -99 48 -99 122
c0 88 59 141 166 141c28 0 73 -6 116 -14c33 -4 55 -9 81 -9c39 0 55 25 61 44zM431 274c0 61 -17 112 -92 112c-83 0 -148 -75 -148 -170c0 -85 55 -109 99 -109c95 0 141 92 141 167z" />
    <glyph glyph-name="afii10068.locl" horiz-adv-x="290" 
d="M271 515l-115 -515h-154l115 515h154zM374 695l-21 -92h-284l21 92h284z" />
    <glyph glyph-name="afii10069.locl" horiz-adv-x="626" 
d="M607 515l-109 -485c-34 -151 -110 -224 -289 -224c-164 0 -237 75 -237 149c0 18 6 43 6 45h160c-4 -15 -5 -22 -5 -30c0 -60 83 -61 90 -61c104 0 119 95 131 159c-20 -17 -59 -51 -128 -51c-114 0 -195 78 -195 213c0 147 106 305 269 305c27 0 99 -5 146 -68l11 48
h150zM187 228c0 -49 24 -103 91 -103c124 0 132 184 132 193c0 21 -8 100 -91 100c-79 0 -132 -105 -132 -190z" />
    <glyph glyph-name="afii10081.locl" 
d="M585 515l-116 -515h-154l15 68c-19 -21 -64 -72 -148 -72c-77 0 -144 46 -144 127c0 15 2 34 9 66l73 326h154l-68 -303c-2 -8 -4 -22 -4 -36c0 -30 13 -60 60 -60c65 0 93 58 106 118l63 281h154zM570 695l-21 -92h-364l21 92h364z" />
    <glyph glyph-name="afii10084.locl" horiz-adv-x="915" 
d="M118 515h154l-64 -289c-7 -31 -12 -53 -12 -66c0 -19 10 -56 60 -56c56 0 91 35 108 112l66 299h154l-68 -306c-6 -25 -9 -38 -9 -52c0 -48 42 -54 57 -54c53 0 96 44 109 102l69 310h154l-115 -515h-154l16 72c-57 -77 -128 -87 -167 -87c-61 0 -105 25 -132 81
c-24 -32 -72 -81 -157 -81c-81 0 -149 49 -149 137c0 39 13 88 15 99zM766 695l-21 -92h-460l21 92h460z" />
    <glyph glyph-name="tonos" unicode="&#x384;" horiz-adv-x="313" 
d="M286 742l-165 -162h-94l94 162h165z" />
    <glyph glyph-name="dieresistonos" unicode="&#x385;" horiz-adv-x="461" 
d="M350 752l-114 -174h-95l63 174h146zM509 694l-26 -116h-153l26 116h153zM128 694l-24 -116h-152l25 116h151z" />
    <glyph glyph-name="Gamma" unicode="&#x393;" horiz-adv-x="588" 
d="M646 706l-33 -137h-310l-128 -569h-175l161 706h485z" />
    <glyph glyph-name="Theta" unicode="&#x398;" horiz-adv-x="775" 
d="M507 305h-220l27 120h221zM769 423c0 -167 -109 -440 -407 -440c-221 0 -314 129 -314 307c0 182 121 435 407 435c209 0 314 -136 314 -302zM593 424c0 94 -56 157 -151 157c-173 0 -216 -214 -216 -299c0 -99 63 -159 145 -159c148 0 222 175 222 301z" />
    <glyph glyph-name="Lambda" unicode="&#x39b;" horiz-adv-x="693" 
d="M420 552l-299 -552h-185l419 706h198l63 -706h-172z" />
    <glyph glyph-name="Xi" unicode="&#x39e;" horiz-adv-x="704" 
d="M682 561h-556l33 145h557zM581 298h-471l33 142h471zM590 0h-594l33 144h594z" />
    <glyph glyph-name="Pi" unicode="&#x3a0;" horiz-adv-x="736" 
d="M600 0h-176l131 576h-247l-132 -576h-176l163 706h597z" />
    <glyph glyph-name="Sigma" unicode="&#x3a3;" horiz-adv-x="682" 
d="M477 366l-238 -229h371l-32 -137h-596l27 120l266 247l-153 230l25 109h547l-31 -138h-321z" />
    <glyph glyph-name="Iotadieresis" unicode="&#x3aa;" horiz-adv-x="313" 
d="M336 706l-158 -706h-176l158 706h176zM504 897l-26 -114h-161l25 114h162zM244 897l-26 -114h-161l25 114h162z" />
    <glyph glyph-name="Alpha" unicode="&#x391;" horiz-adv-x="708" 
d="M635 0h-172l-9 140h-260l-78 -140h-185l431 706h198zM446 268l-19 290l-161 -290h180z" />
    <glyph glyph-name="Beta" unicode="&#x392;" horiz-adv-x="708" 
d="M159 706h318c86 0 202 -30 202 -167c0 -87 -51 -145 -144 -167c67 -29 119 -68 119 -157c0 -151 -139 -215 -248 -215h-407zM301 579l-34 -151h131c56 0 109 17 109 86c0 53 -42 65 -78 65h-128zM238 300l-38 -170h153c54 0 118 14 118 98c0 62 -51 72 -86 72h-147z" />
    <glyph glyph-name="Epsilon" unicode="&#x395;" horiz-adv-x="667" 
d="M669 706l-31 -135h-335l-31 -137h323l-29 -129h-323l-39 -171h385l-29 -134h-560l161 706h508z" />
    <glyph glyph-name="Zeta" unicode="&#x396;" horiz-adv-x="667" 
d="M698 706l-34 -145l-433 -424h365l-31 -137h-583l33 145l432 423h-340l32 138h559z" />
    <glyph glyph-name="Eta" unicode="&#x397;" horiz-adv-x="750" 
d="M774 706l-160 -706h-176l71 313h-263l-71 -313h-175l161 706h175l-58 -257h262l58 257h176z" />
    <glyph glyph-name="Iota" unicode="&#x399;" horiz-adv-x="313" 
d="M336 706l-158 -706h-176l158 706h176z" />
    <glyph glyph-name="Kappa" unicode="&#x39a;" horiz-adv-x="729" 
d="M778 706l-309 -282l204 -424h-185l-144 313l-135 -123l-42 -190h-168l159 706h167l-65 -290l308 290h210z" />
    <glyph glyph-name="Mu" unicode="&#x39c;" horiz-adv-x="896" 
d="M917 706l-159 -706h-164l126 546l-264 -546h-148l-20 554l-121 -554h-165l158 706h261c0 -40 12 -463 12 -463l219 463h265z" />
    <glyph glyph-name="Phi" unicode="&#x3a6;" horiz-adv-x="859" 
d="M860 409c0 -173 -131 -334 -391 -350l-13 -59h-176l15 65c-183 22 -261 130 -261 235c0 164 114 331 391 347l13 59h176l-14 -62c171 -25 260 -121 260 -235zM683 384c0 46 -16 104 -114 124l-70 -312c156 19 184 118 184 188zM211 321c0 -43 13 -104 114 -121l69 313
c-141 -18 -183 -103 -183 -192z" />
    <glyph glyph-name="Upsilondieresis" unicode="&#x3ab;" horiz-adv-x="667" 
d="M754 706l-333 -408l-67 -298h-175l71 320l-153 386h175l98 -254l185 254h199zM681 897l-26 -114h-161l25 114h162zM421 897l-26 -114h-161l25 114h162z" />
    <glyph glyph-name="Psi" unicode="&#x3a8;" horiz-adv-x="859" 
d="M609 706l-92 -410c80 3 142 64 163 157l59 253h176l-57 -256c-52 -230 -197 -291 -373 -299l-34 -151h-176l34 151c-159 15 -255 93 -255 215c0 26 4 55 11 84l58 256h177l-56 -253c-4 -17 -7 -35 -7 -53c0 -53 28 -101 104 -105l92 411h176z" />
    <glyph glyph-name="Nu" unicode="&#x39d;" horiz-adv-x="708" 
d="M733 706l-161 -706h-172l-139 453l-100 -453h-162l162 706h174l141 -455l96 455h161z" />
    <glyph glyph-name="Omicron" unicode="&#x39f;" horiz-adv-x="792" 
d="M769 423c0 -167 -109 -440 -407 -440c-221 0 -314 129 -314 307c0 182 121 435 407 435c209 0 314 -136 314 -302zM593 424c0 94 -56 157 -151 157c-173 0 -216 -214 -216 -299c0 -99 63 -159 145 -159c148 0 222 175 222 301z" />
    <glyph glyph-name="Rho" unicode="&#x3a1;" horiz-adv-x="688" 
d="M159 706h307c127 0 230 -59 230 -211c0 -186 -152 -262 -285 -262h-183l-53 -233h-175zM307 580l-50 -220h132c71 0 130 48 130 129c0 72 -54 91 -104 91h-108z" />
    <glyph glyph-name="Tau" unicode="&#x3a4;" horiz-adv-x="625" 
d="M683 706l-35 -137h-183l-128 -569h-177l128 569h-194l35 137h554z" />
    <glyph glyph-name="Upsilon" unicode="&#x3a5;" horiz-adv-x="667" 
d="M754 706l-333 -408l-67 -298h-175l71 320l-153 386h175l98 -254l185 254h199z" />
    <glyph glyph-name="Chi" unicode="&#x3a7;" horiz-adv-x="708" 
d="M776 706l-308 -344l177 -362h-186l-112 236l-202 -236h-216l342 382l-161 324h189l94 -201l176 201h207z" />
    <glyph glyph-name="Alphatonos" unicode="&#x386;" horiz-adv-x="708" 
d="M635 0h-172l-9 140h-260l-78 -140h-185l431 706h198zM446 268l-19 290l-161 -290h180zM236 706l-165 -162h-94l94 162h165z" />
    <glyph glyph-name="Epsilontonos" unicode="&#x388;" horiz-adv-x="667" 
d="M669 706l-31 -135h-335l-31 -137h323l-29 -129h-323l-39 -171h385l-29 -134h-560l161 706h508zM96 706l-165 -162h-94l94 162h165z" />
    <glyph glyph-name="Etatonos" unicode="&#x389;" horiz-adv-x="750" 
d="M774 706l-160 -706h-176l71 313h-263l-71 -313h-175l161 706h175l-58 -257h262l58 257h176zM96 706l-165 -162h-94l94 162h165z" />
    <glyph glyph-name="Iotatonos" unicode="&#x38a;" horiz-adv-x="313" 
d="M336 706l-158 -706h-176l158 706h176zM96 706l-165 -162h-94l94 162h165z" />
    <glyph glyph-name="Omicrontonos" unicode="&#x38c;" horiz-adv-x="792" 
d="M769 423c0 -167 -109 -440 -407 -440c-221 0 -314 129 -314 307c0 182 121 435 407 435c209 0 314 -136 314 -302zM593 424c0 94 -56 157 -151 157c-173 0 -216 -214 -216 -299c0 -99 63 -159 145 -159c148 0 222 175 222 301zM136 706l-165 -162h-94l94 162h165z" />
    <glyph glyph-name="Upsilontonos" unicode="&#x38e;" horiz-adv-x="667" 
d="M754 706l-333 -408l-67 -298h-175l71 320l-153 386h175l98 -254l185 254h199zM86 706l-165 -162h-94l94 162h165z" />
    <glyph glyph-name="Omegatonos" unicode="&#x38f;" horiz-adv-x="818" 
d="M624 131h136l-30 -131h-311l30 127c108 62 159 160 159 292c0 100 -66 162 -153 162c-119 0 -213 -105 -213 -270c0 -81 33 -147 82 -184l-29 -127h-281l31 131h114c-43 33 -96 104 -96 209c0 208 172 385 400 385c200 0 323 -139 323 -289c0 -165 -92 -262 -162 -305z
M142 706l-165 -162h-94l94 162h165z" />
    <glyph glyph-name="alpha" unicode="&#x3b1;" horiz-adv-x="637" 
d="M412 306c0 80 -52 104 -88 104c-79 0 -139 -96 -139 -203c0 -57 20 -105 86 -105c118 0 141 170 141 204zM377 56c-39 -38 -93 -71 -165 -71c-135 0 -183 125 -183 211c0 112 71 335 274 335c28 0 94 -1 146 -70l13 54h151l-76 -337c-4 -17 -5 -24 -5 -31
c0 -17 8 -33 28 -33h30l-26 -113c-25 -7 -60 -10 -90 -10c-42 0 -81 15 -97 65z" />
    <glyph glyph-name="beta" unicode="&#x3b2;" horiz-adv-x="625" 
d="M393 725c118 0 209 -62 209 -156c0 -87 -57 -169 -148 -185c88 -15 126 -81 126 -151c0 -137 -116 -247 -264 -247c-63 0 -125 27 -148 70l-55 -244h-154c48 211 102 440 150 652c39 175 116 261 284 261zM389 617c-70 0 -100 -55 -118 -130l-58 -244
c-3 -14 -6 -29 -6 -45c0 -77 53 -100 92 -100c80 0 131 55 131 143c0 66 -39 89 -123 89l22 96h10c49 0 125 33 125 124c0 42 -29 67 -75 67z" />
    <glyph glyph-name="psi" unicode="&#x3c8;" horiz-adv-x="808" 
d="M559 661l-124 -560c83 3 122 67 142 153l59 261h154l-64 -287c-37 -166 -130 -230 -316 -237l-40 -179h-155l41 181c-129 10 -220 62 -220 177c0 22 3 53 9 79l59 266h156l-60 -266c-4 -18 -10 -45 -10 -61c0 -54 36 -86 91 -86l124 559h154z" />
    <glyph glyph-name="delta" unicode="&#x3b4;" horiz-adv-x="628" 
d="M424 266c0 58 -30 98 -99 98c-84 0 -138 -75 -138 -156c0 -60 34 -100 102 -100c77 0 135 65 135 158zM593 569l-132 -19c-8 41 -37 67 -80 67c-30 0 -64 -8 -69 -51c0 -90 270 -94 270 -304c0 -175 -151 -277 -304 -277c-137 0 -248 75 -248 211c0 145 109 245 245 252
c-58 23 -114 59 -114 126c0 116 126 151 210 151c112 0 201 -43 222 -156z" />
    <glyph glyph-name="epsilon" unicode="&#x3b5;" horiz-adv-x="576" 
d="M545 158c-58 -129 -145 -172 -294 -172c-107 0 -231 31 -231 135c0 94 76 137 157 153c-61 10 -96 60 -96 103c0 117 124 156 245 156c148 0 228 -62 234 -168l-133 -17c0 34 -22 77 -104 77c-65 0 -97 -23 -97 -59c0 -33 31 -45 74 -45h75l-21 -97h-86
c-60 0 -97 -27 -97 -65c0 -31 30 -55 93 -55c70 0 123 23 145 86z" />
    <glyph glyph-name="phi" unicode="&#x3c6;" horiz-adv-x="810" 
d="M374 -188h-155l40 181c-129 17 -230 84 -230 232c0 145 99 299 351 306l29 130h154l-30 -132c185 -24 233 -129 233 -230c0 -173 -127 -301 -353 -309zM609 298c0 73 -36 103 -102 114l-67 -305c108 11 169 79 169 191zM185 227c0 -65 29 -106 100 -118l69 306
c-81 -3 -169 -57 -169 -188z" />
    <glyph glyph-name="gamma" unicode="&#x3b3;" horiz-adv-x="551" 
d="M293 -10l-41 -178h-154l41 183l-43 362c-2 44 -10 48 -46 48h-18l27 110h68c81 0 106 -24 111 -116l13 -241l176 357h173z" />
    <glyph glyph-name="eta" unicode="&#x3b7;" horiz-adv-x="603" 
d="M43 405l25 110c25 7 60 10 90 10c47 0 107 -20 108 -77c19 23 75 80 159 80c108 0 142 -78 142 -134c0 -17 -6 -52 -8 -61l-117 -521h-155l109 492c1 6 6 27 6 48c0 49 -43 57 -59 57c-65 0 -93 -71 -104 -119l-67 -290h-154l78 341c4 17 5 24 5 31c0 17 -8 33 -28 33
h-30z" />
    <glyph glyph-name="iota" unicode="&#x3b9;" horiz-adv-x="297" 
d="M220 114h30l-26 -113c-29 -8 -72 -10 -105 -10c-46 0 -95 19 -95 87c0 15 3 34 8 55l86 382h155l-76 -337c-4 -17 -5 -24 -5 -31c0 -17 8 -33 28 -33z" />
    <glyph glyph-name="xi" unicode="&#x3be;" horiz-adv-x="509" 
d="M450 427l-27 -111h-86c-83 0 -162 -33 -162 -122c0 -53 53 -71 134 -89c57 -13 99 -39 99 -100c0 -78 -45 -128 -120 -189l-103 48c48 37 81 72 81 96c0 26 -20 33 -59 40c-91 17 -189 62 -189 162c0 132 98 196 217 220c-55 7 -104 44 -104 98c0 63 61 109 110 120h-88
l25 106h396l-26 -113h-104c-72 0 -164 -16 -164 -105c0 -48 49 -61 98 -61h72z" />
    <glyph glyph-name="kappa" unicode="&#x3ba;" horiz-adv-x="588" 
d="M608 515l-24 -110h-13c-19 0 -36 -12 -60 -29l-111 -77l159 -299h-172l-114 217l-82 -60l-35 -157h-154l114 515h155l-41 -184l187 134c64 45 79 50 164 50h27z" />
    <glyph glyph-name="lambda" unicode="&#x3bb;" horiz-adv-x="511" 
d="M454 114h32l-26 -113c-22 -6 -53 -9 -82 -9c-65 0 -93 35 -101 119l-17 180l-163 -291h-172l317 485l-5 53c-5 52 -16 67 -54 67c-17 0 -34 -3 -61 -10l30 116c21 5 50 14 83 14c93 0 122 -40 135 -146l49 -410c3 -27 7 -55 35 -55z" />
    <glyph glyph-name="nu" unicode="&#x3bd;" horiz-adv-x="483" 
d="M467 337c0 0 -197 -336 -198 -337h-160l-61 515h154l21 -352l104 206c18 35 38 78 38 123v23h152c2 -9 3 -22 3 -32c0 -46 -53 -146 -53 -146z" />
    <glyph glyph-name="omicron" unicode="&#x3bf;" horiz-adv-x="625" 
d="M581 291c0 -117 -87 -306 -303 -306c-181 0 -249 130 -249 247c0 128 98 301 303 301c139 0 249 -87 249 -242zM423 294c0 60 -27 118 -100 118c-77 0 -138 -82 -138 -186c0 -93 57 -119 103 -119c91 0 135 104 135 187z" />
    <glyph glyph-name="rho" unicode="&#x3c1;" horiz-adv-x="627" 
d="M430 294c0 72 -31 118 -90 118c-103 0 -139 -129 -139 -206c0 -88 62 -109 96 -109c75 0 133 96 133 197zM360 533c156 0 223 -114 223 -232c0 -129 -86 -315 -268 -315c-49 0 -116 17 -147 68l-55 -242h-154l110 483c31 137 118 238 291 238z" />
    <glyph glyph-name="sigma" unicode="&#x3c3;" horiz-adv-x="629" 
d="M609 397h-89c47 -35 56 -82 56 -128c0 -113 -95 -284 -296 -284c-161 0 -251 101 -251 243c0 137 98 287 299 287h306zM423 288c0 58 -28 117 -101 117c-92 0 -137 -110 -137 -188c0 -65 38 -109 98 -109c88 0 140 90 140 180z" />
    <glyph glyph-name="tau" unicode="&#x3c4;" horiz-adv-x="452" 
d="M104 164l53 241h-80c-19 0 -50 -1 -82 -13l23 105c43 17 80 18 135 18h321l-23 -110h-139l-44 -195c-5 -22 -7 -35 -7 -45c0 -27 0 -46 58 -46h30l-27 -118c-45 -6 -68 -8 -90 -8c-73 0 -135 28 -136 113c0 17 1 28 8 58z" />
    <glyph glyph-name="theta" unicode="&#x3b8;" horiz-adv-x="576" 
d="M350 715c147 0 211 -97 211 -249c0 -185 -62 -479 -318 -479c-148 0 -213 95 -213 250c0 186 64 478 320 478zM411 412c3 23 5 46 5 68c0 71 -14 128 -79 128c-84 0 -124 -107 -139 -196h213zM175 229c0 -70 18 -131 82 -131c82 0 123 105 140 212h-215
c-4 -27 -7 -55 -7 -81z" />
    <glyph glyph-name="omega" unicode="&#x3c9;" horiz-adv-x="835" 
d="M524 -14c-61 0 -133 24 -145 110c-38 -81 -107 -110 -176 -110c-124 0 -174 79 -174 184c0 231 141 363 304 363c8 0 18 -1 23 -1l-27 -119h-7c-100 0 -137 -162 -137 -241c0 -37 11 -64 48 -64c59 0 83 63 94 115l24 108h155c-9 -35 -17 -70 -25 -105
c-5 -21 -10 -44 -10 -64c0 -30 13 -54 49 -54c83 0 113 144 113 219c0 44 -22 85 -73 86l28 119c120 -3 203 -68 203 -197c0 -136 -71 -349 -267 -349z" />
    <glyph glyph-name="sigma1" unicode="&#x3c2;" horiz-adv-x="569" 
d="M285 -184l-104 48c48 37 76 64 76 88c0 25 -18 38 -53 52c-86 34 -177 87 -177 209c0 156 110 319 295 319c109 0 212 -56 231 -169l-145 -39c-4 33 -17 87 -85 87c-83 0 -138 -102 -138 -182c0 -60 41 -86 113 -113c53 -20 104 -51 104 -120c0 -71 -41 -119 -117 -180z
" />
    <glyph glyph-name="chi" unicode="&#x3c7;" horiz-adv-x="547" 
d="M135 525c59 0 91 -25 110 -106l25 -103l137 199h190l-288 -341l64 -196c17 -51 30 -51 54 -51h32l-26 -113c-22 -6 -53 -9 -82 -9c-60 0 -93 20 -116 109l-31 117l-148 -219h-191l299 361l-59 189c-13 42 -24 43 -42 43h-35l25 110c23 6 54 10 82 10z" />
    <glyph glyph-name="upsilon" unicode="&#x3c5;" horiz-adv-x="595" 
d="M577 515l-68 -300c-34 -148 -109 -229 -274 -229c-116 0 -199 47 -199 158c0 22 3 48 9 74l67 297h155l-69 -308c-3 -15 -5 -33 -5 -44c0 -40 22 -56 64 -56c55 0 84 46 97 104l69 304h154z" />
    <glyph glyph-name="zeta" unicode="&#x3b6;" horiz-adv-x="474" 
d="M172 -136c48 37 81 72 81 96c0 29 -28 34 -75 40c-86 12 -168 45 -168 146c0 154 125 328 361 451h-238l24 109h407l-28 -127c-145 -78 -367 -235 -367 -399c0 -52 53 -61 132 -75c52 -9 94 -39 94 -100c0 -73 -41 -127 -120 -189z" />
    <glyph glyph-name="alphatonos" unicode="&#x3ac;" horiz-adv-x="637" 
d="M412 306c0 80 -52 104 -88 104c-79 0 -139 -96 -139 -203c0 -57 20 -105 86 -105c118 0 141 170 141 204zM377 56c-39 -38 -93 -71 -165 -71c-135 0 -183 125 -183 211c0 112 71 335 274 335c28 0 94 -1 146 -70l13 54h151l-76 -337c-4 -17 -5 -24 -5 -31
c0 -17 8 -33 28 -33h30l-26 -113c-25 -7 -60 -10 -90 -10c-42 0 -81 15 -97 65zM572 742l-165 -162h-94l94 162h165z" />
    <glyph glyph-name="upsilontonos" unicode="&#x3cd;" horiz-adv-x="595" 
d="M577 515l-68 -300c-34 -148 -109 -229 -274 -229c-116 0 -199 47 -199 158c0 22 3 48 9 74l67 297h155l-69 -308c-3 -15 -5 -33 -5 -44c0 -40 22 -56 64 -56c55 0 84 46 97 104l69 304h154zM564 742l-165 -162h-94l94 162h165z" />
    <glyph glyph-name="epsilontonos" unicode="&#x3ad;" horiz-adv-x="576" 
d="M545 158c-58 -129 -145 -172 -294 -172c-107 0 -231 31 -231 135c0 94 76 137 157 153c-61 10 -96 60 -96 103c0 117 124 156 245 156c148 0 228 -62 234 -168l-133 -17c0 34 -22 77 -104 77c-65 0 -97 -23 -97 -59c0 -33 31 -45 74 -45h75l-21 -97h-86
c-60 0 -97 -27 -97 -65c0 -31 30 -55 93 -55c70 0 123 23 145 86zM537 742l-165 -162h-94l94 162h165z" />
    <glyph glyph-name="etatonos" unicode="&#x3ae;" horiz-adv-x="603" 
d="M43 405l25 110c25 7 60 10 90 10c47 0 107 -20 108 -77c19 23 75 80 159 80c108 0 142 -78 142 -134c0 -17 -6 -52 -8 -61l-117 -521h-155l109 492c1 6 6 27 6 48c0 49 -43 57 -59 57c-65 0 -93 -71 -104 -119l-67 -290h-154l78 341c4 17 5 24 5 31c0 17 -8 33 -28 33
h-30zM572 742l-165 -162h-94l94 162h165z" />
    <glyph glyph-name="iotatonos" unicode="&#x3af;" horiz-adv-x="297" 
d="M220 114h30l-26 -113c-29 -8 -72 -10 -105 -10c-46 0 -95 19 -95 87c0 15 3 34 8 55l86 382h155l-76 -337c-4 -17 -5 -24 -5 -31c0 -17 8 -33 28 -33zM403 742l-165 -162h-94l94 162h165z" />
    <glyph glyph-name="omicrontonos" unicode="&#x3cc;" horiz-adv-x="625" 
d="M581 291c0 -117 -87 -306 -303 -306c-181 0 -249 130 -249 247c0 128 98 301 303 301c139 0 249 -87 249 -242zM423 294c0 60 -27 118 -100 118c-77 0 -138 -82 -138 -186c0 -93 57 -119 103 -119c91 0 135 104 135 187zM559 742l-165 -162h-94l94 162h165z" />
    <glyph glyph-name="upsilondieresistonos" unicode="&#x3b0;" horiz-adv-x="595" 
d="M577 515l-68 -300c-34 -148 -109 -229 -274 -229c-116 0 -199 47 -199 158c0 22 3 48 9 74l67 297h155l-69 -308c-3 -15 -5 -33 -5 -44c0 -40 22 -56 64 -56c55 0 84 46 97 104l69 304h154zM500 752l-114 -174h-95l63 174h146zM659 694l-26 -116h-153l26 116h153z
M278 694l-24 -116h-152l25 116h151z" />
    <glyph glyph-name="iotadieresistonos" unicode="&#x390;" horiz-adv-x="297" 
d="M220 114h30l-26 -113c-29 -8 -72 -10 -105 -10c-46 0 -95 19 -95 87c0 15 3 34 8 55l86 382h155l-76 -337c-4 -17 -5 -24 -5 -31c0 -17 8 -33 28 -33zM350 752l-114 -174h-95l63 174h146zM509 694l-26 -116h-153l26 116h153zM128 694l-24 -116h-152l25 116h151z" />
    <glyph glyph-name="upsilondieresis" unicode="&#x3cb;" horiz-adv-x="595" 
d="M577 515l-68 -300c-34 -148 -109 -229 -274 -229c-116 0 -199 47 -199 158c0 22 3 48 9 74l67 297h155l-69 -308c-3 -15 -5 -33 -5 -44c0 -40 22 -56 64 -56c55 0 84 46 97 104l69 304h154zM578 694l-26 -116h-163l26 116h163zM335 694l-24 -116h-162l25 116h161z" />
    <glyph glyph-name="iotadieresis" unicode="&#x3ca;" horiz-adv-x="297" 
d="M220 114h30l-26 -113c-29 -8 -72 -10 -105 -10c-46 0 -95 19 -95 87c0 15 3 34 8 55l86 382h155l-76 -337c-4 -17 -5 -24 -5 -31c0 -17 8 -33 28 -33zM434 694l-26 -116h-163l26 116h163zM191 694l-24 -116h-162l25 116h161z" />
    <glyph glyph-name="omegatonos" unicode="&#x3ce;" horiz-adv-x="835" 
d="M524 -14c-61 0 -133 24 -145 110c-38 -81 -107 -110 -176 -110c-124 0 -174 79 -174 184c0 231 141 363 304 363c8 0 18 -1 23 -1l-27 -119h-7c-100 0 -137 -162 -137 -241c0 -37 11 -64 48 -64c59 0 83 63 94 115l24 108h155c-9 -35 -17 -70 -25 -105
c-5 -21 -10 -44 -10 -64c0 -30 13 -54 49 -54c83 0 113 144 113 219c0 44 -22 85 -73 86l28 119c120 -3 203 -68 203 -197c0 -136 -71 -349 -267 -349zM671 742l-165 -162h-94l94 162h165z" />
    <glyph glyph-name="Imacron" horiz-adv-x="313" 
d="M336 706l-158 -706h-176l158 706h176zM437 876l-21 -95h-322l20 95h323z" />
    <glyph glyph-name="ibreve" horiz-adv-x="292" 
d="M273 515l-117 -515h-156l119 515h154zM281 706h122c-6 -22 -13 -46 -29 -68c-49 -66 -132 -70 -155 -70c-117 0 -173 56 -173 138h120c0 -18 0 -54 51 -54c48 0 58 35 64 54z" />
    <glyph glyph-name="cyrbreve" horiz-adv-x="313" 
d="M294 717l116 -20c-34 -86 -104 -129 -202 -129c-100 0 -148 52 -148 129l120 20c0 -31 4 -65 47 -65c25 0 56 14 67 65z" />
    <glyph glyph-name="afii00208" unicode="&#x2015;" horiz-adv-x="918" 
d="M900 380l-33 -143h-841l33 143h841z" />
    <glyph glyph-name="phi.salt" horiz-adv-x="810" 
d="M368 -188h-155l40 176c-167 15 -224 127 -224 233c0 186 145 306 280 312l8 -120c-102 -11 -133 -132 -133 -183c0 -42 10 -114 96 -126l45 193c22 92 75 236 245 236c81 0 196 -47 196 -206c0 -184 -126 -323 -359 -341zM433 103c139 19 179 156 179 230
c0 45 -17 85 -52 85c-42 0 -65 -45 -75 -89z" />
    <glyph glyph-name="xi.salt" horiz-adv-x="506" 
d="M166 194c0 -53 53 -71 134 -89c57 -13 99 -39 99 -100c0 -78 -45 -128 -120 -189l-103 48c48 37 81 72 81 96c0 26 -20 33 -59 40c-91 17 -189 62 -189 162c0 132 102 215 221 239c-56 11 -107 59 -107 128c0 132 116 196 240 196c97 0 201 -33 223 -152l-139 -20
c-8 49 -50 65 -85 65c-26 0 -90 -15 -90 -95c0 -53 46 -78 104 -78h69l-27 -113h-86c-83 0 -166 -49 -166 -138z" />
    <glyph glyph-name="uniF6C3" unicode="&#xf6c3;" horiz-adv-x="313" 
d="M97 -118l17 82h112l-8 -38c-18 -85 -47 -120 -131 -122l8 38c25 3 37 11 43 40h-41z" />
    <glyph glyph-name="anoteleia" unicode="&#x387;" horiz-adv-x="250" 
d="M236 427l-37 -165h-158l37 165h158z" />
    <glyph glyph-name="alpha.salt" horiz-adv-x="625" 
d="M414 306c0 80 -52 104 -88 104c-79 0 -139 -96 -139 -203c0 -57 20 -105 86 -105c118 0 141 170 141 204zM369 61c-37 -44 -91 -76 -155 -76c-135 0 -183 125 -183 211c0 112 71 335 274 335c28 0 94 -1 146 -70l13 54h151l-105 -464c-3 -12 -4 -24 -4 -29
c0 -4 1 -11 3 -22h-142c-2 8 -5 15 -5 24c0 6 4 21 7 37z" />
    <glyph glyph-name="alphatonos.salt" horiz-adv-x="625" 
d="M414 306c0 80 -52 104 -88 104c-79 0 -139 -96 -139 -203c0 -57 20 -105 86 -105c118 0 141 170 141 204zM369 61c-37 -44 -91 -76 -155 -76c-135 0 -183 125 -183 211c0 112 71 335 274 335c28 0 94 -1 146 -70l13 54h151l-105 -464c-3 -12 -4 -24 -4 -29
c0 -4 1 -11 3 -22h-142c-2 8 -5 15 -5 24c0 6 4 21 7 37zM573 742l-165 -162h-94l94 162h165z" />
    <glyph glyph-name="beta.salt" horiz-adv-x="624" 
d="M387 725c118 0 209 -62 209 -156c0 -87 -57 -169 -148 -185c88 -15 126 -81 126 -151c0 -137 -116 -247 -264 -247c-63 0 -125 27 -148 70l-11 -56h-154l106 464c40 175 116 261 284 261zM383 617c-70 0 -100 -55 -118 -130l-58 -244c-3 -14 -5 -29 -6 -45
c0 -77 53 -100 92 -100c80 0 131 55 131 143c0 66 -39 89 -123 89l22 96h10c49 0 125 33 125 124c0 42 -29 67 -75 67z" />
    <glyph glyph-name="gamma.salt" horiz-adv-x="522" 
d="M264 -10l-41 -178h-154l41 183l-62 520h154l20 -357l176 357h173z" />
    <glyph glyph-name="eta.salt" 
d="M119 515h154l-14 -62c18 20 66 75 150 75c108 0 142 -78 142 -134c0 -17 -6 -52 -8 -61l-76 -333h-154l67 304c1 6 6 27 6 48c0 49 -43 57 -59 57c-65 0 -93 -71 -104 -119l-67 -290h-154z" />
    <glyph glyph-name="etatonos.salt" 
d="M119 515h154l-14 -62c18 20 66 75 150 75c108 0 142 -78 142 -134c0 -17 -6 -52 -8 -61l-76 -333h-154l67 304c1 6 6 27 6 48c0 49 -43 57 -59 57c-65 0 -93 -71 -104 -119l-67 -290h-154zM573 742l-165 -162h-94l94 162h165z" />
    <glyph glyph-name="iota.salt" horiz-adv-x="292" 
d="M273 515l-117 -515h-155l117 515h155z" />
    <glyph glyph-name="iotatonos.salt" horiz-adv-x="292" 
d="M273 515l-117 -515h-155l117 515h155zM420 742l-165 -162h-94l94 162h165z" />
    <glyph glyph-name="iotadieresis.salt" horiz-adv-x="292" 
d="M273 515l-117 -515h-155l117 515h155zM440 694l-26 -116h-163l26 116h163zM197 694l-24 -116h-162l25 116h161z" />
    <glyph glyph-name="iotadieresistonos.salt" horiz-adv-x="292" 
d="M273 515l-117 -515h-155l117 515h155zM360 752l-114 -174h-95l63 174h146zM519 694l-26 -116h-153l26 116h153zM138 694l-24 -116h-152l25 116h151z" />
    <glyph glyph-name="kappa.salt" horiz-adv-x="570" 
d="M630 515l-234 -194l140 -321h-166l-94 226l-87 -72l-34 -154h-154l117 515h153l-37 -166l192 166h204z" />
    <glyph glyph-name="lambda.salt" horiz-adv-x="479" 
d="M439 0h-152l-27 291l-163 -291h-172l317 485l-5 53c-5 52 -16 67 -54 67c-17 0 -34 -3 -61 -10l30 116c21 5 50 14 83 14c93 0 122 -40 135 -146z" />
    <glyph glyph-name="mu.salt" 
d="M467 0h-133l14 68c-27 -57 -61 -81 -105 -81s-70 21 -76 65c0 0 -52 -232 -54 -240h-154l160 703h153l-57 -256c-9 -40 -15 -68 -15 -85c0 -42 10 -67 56 -67c73 0 94 59 118 165l55 243h154z" />
    <glyph glyph-name="nu.salt" horiz-adv-x="521" 
d="M570 515l-301 -515h-160l-61 515h154l21 -352l175 352h172z" />
    <glyph glyph-name="pi.salt" horiz-adv-x="656" 
d="M654 405h-74l-92 -405h-155l92 405h-153l-94 -405h-154l93 405h-78l25 110h614z" />
    <glyph glyph-name="tau.salt" horiz-adv-x="474" 
d="M179 405h-155l25 110h447l-23 -110h-139l-44 -195c-5 -22 -7 -35 -7 -45c0 -27 0 -46 58 -46h30l-27 -118c-45 -6 -68 -8 -90 -8c-73 0 -135 28 -136 113c0 17 1 28 8 58z" />
    <glyph glyph-name="chi.salt" horiz-adv-x="521" 
d="M566 515l-227 -253l114 -262h-162l-56 156l-129 -156h-173l241 272l-101 243h162l48 -132l106 132h177z" />
    <glyph glyph-name="dotmath" unicode="&#x22c5;" horiz-adv-x="250" 
d="M236 427l-37 -165h-158l37 165h158z" />
    <glyph glyph-name="cyrBreve" horiz-adv-x="313" 
d="M342 900l120 -20c-35 -86 -106 -129 -206 -129c-103 0 -152 52 -152 129l124 20c0 -27 4 -57 47 -57c25 0 56 12 67 57z" />
    <glyph glyph-name="afii10074.alt" 
d="M585 515l-116 -515h-154l15 68c-19 -21 -64 -72 -148 -72c-77 0 -144 46 -144 127c0 15 2 34 9 66l73 326h154l-68 -303c-2 -8 -4 -22 -4 -36c0 -30 13 -60 60 -60c65 0 93 58 106 118l63 281h154z" />
    </font>
</defs>
</svg>
