<?xml version="1.0" standalone="no"?>
<!DOCTYPE svg PUBLIC "-//W3C//DTD SVG 1.1//EN" "http://www.w3.org/Graphics/SVG/1.1/DTD/svg11.dtd" >
<svg xmlns="http://www.w3.org/2000/svg" xmlns:xlink="http://www.w3.org/1999/xlink" version="1.1">
<metadata>
Created by FontForge 20170910 at Fri Mar  5 18:41:08 2010
 By Jimmy Wärting
Berthold first published Akzidenz-Grotesk in 1896. The design originates from Royal Grotesk light by Ferdinand Theinhardt who also supplied the regular, medium and bold weights. Throughout the years, Berthold has expanded this extremely popular and versatile family. AG Super was developed in 1968 by Guenter Gerhard Lange and is an excellent choice for headlines. In 2001, Guenter Gerhard Lange added more weights for Berthold including Super Italic and Extra Bold italic.
</metadata>
<defs>
<font id="AkzidenzGroteskPro-LightIt" horiz-adv-x="375" >
  <font-face 
    font-family="Akzidenz-Grotesk Pro Light"
    font-weight="300"
    font-style="italic"
    font-stretch="normal"
    units-per-em="1000"
    panose-1="2 0 4 6 3 0 0 9 0 3"
    ascent="750"
    descent="-250"
    x-height="471"
    cap-height="706"
    bbox="-127 -317 1239 998"
    underline-thickness="59"
    underline-position="-176"
    slope="-12"
    stemh="46"
    stemv="49"
    unicode-range="U+0020-FB02"
  />
<missing-glyph horiz-adv-x="500" 
d="M0 0v706h500v-706h-500zM250 401l170 255h-340zM280 353l170 -258v516zM80 50h340l-170 258zM50 611v-516l170 258z" />
    <glyph glyph-name="fi" unicode="fi" horiz-adv-x="465" 
d="M526 706l-21 -90h-59l21 90h59zM472 471l-106 -471h-59l106 471h59zM361 705l-11 -49c-16 7 -26 9 -36 9c-17 0 -39 -5 -53 -68l-28 -126h82l-12 -50h-81l-97 -421h-57l95 421h-70l12 50h69l33 143c22 94 82 102 103 102c16 0 31 -4 51 -11z" />
    <glyph glyph-name="fl" unicode="fl" horiz-adv-x="465" 
d="M526 706l-160 -706h-59l160 706h59zM361 705l-11 -49c-16 7 -26 9 -36 9c-17 0 -39 -5 -53 -68l-28 -126h82l-12 -50h-81l-97 -421h-57l95 421h-70l12 50h69l33 143c22 94 82 102 103 102c16 0 31 -4 51 -11z" />
    <glyph glyph-name=".notdef" horiz-adv-x="500" 
d="M0 0v706h500v-706h-500zM250 401l170 255h-340zM280 353l170 -258v516zM80 50h340l-170 258zM50 611v-516l170 258z" />
    <glyph glyph-name="space" unicode=" " horiz-adv-x="258" 
 />
    <glyph glyph-name="exclam" unicode="!" horiz-adv-x="253" 
d="M304 706l-54 -233l-72 -247h-36l43 259l51 221h68zM177 110l-26 -110h-77l25 110h78z" />
    <glyph glyph-name="quotedbl" unicode="&#x22;" horiz-adv-x="357" 
d="M446 744l-93 -291h-30l40 291h83zM274 744l-93 -291h-30l40 291h83z" />
    <glyph glyph-name="numbersign" unicode="#" horiz-adv-x="657" 
d="M683 468l-13 -57h-162l-31 -97h171l-12 -54h-175l-81 -259h-62l84 259h-101l-84 -259h-58l82 259h-167l13 54h172l30 97h-180l13 57h184l74 241h63l-76 -241h100l73 241h60l-75 -241h158zM449 411h-100l-31 -97h100z" />
    <glyph glyph-name="dollar" unicode="$" horiz-adv-x="625" 
d="M649 525l-65 -5c-11 68 -45 108 -107 123l-59 -253l12 -6c103 -52 152 -87 152 -177c0 -124 -98 -209 -240 -209c-3 0 -8 0 -15 1l-20 -91h-58l22 95c-108 31 -161 92 -187 216l70 5c15 -94 59 -142 131 -161l65 281l-18 8c-102 45 -142 98 -142 175
c0 110 90 183 225 183h20l19 81h57l-21 -87c101 -27 144 -92 159 -179zM422 651h-20c-88 0 -145 -46 -145 -118c0 -53 29 -86 109 -123zM402 322l-60 -264h12c97 0 160 55 160 139c0 54 -26 85 -99 119z" />
    <glyph glyph-name="percent" unicode="%" horiz-adv-x="875" 
d="M538 158c0 162 86 287 196 287c80 0 129 -63 129 -180c0 -160 -88 -277 -191 -277c-85 0 -134 62 -134 170zM722 724l-437 -763l-38 22l435 764zM101 428c0 162 86 287 196 287c80 0 129 -63 129 -180c0 -159 -88 -277 -191 -277c-85 0 -134 62 -134 170zM589 164
c0 -84 29 -129 85 -129c98 0 140 143 140 236c0 86 -29 129 -87 129c-76 0 -138 -106 -138 -236zM152 434c0 -84 29 -129 84 -129c118 0 141 186 141 237c0 85 -29 128 -86 128c-76 0 -139 -106 -139 -236z" />
    <glyph glyph-name="ampersand" unicode="&#x26;" horiz-adv-x="580" 
d="M527 273l45 -31c-56 -78 -79 -107 -116 -141c37 -27 60 -39 96 -52l-14 -61c-58 20 -75 28 -130 73c-79 -54 -122 -70 -183 -70c-102 0 -174 67 -174 164c0 92 58 155 161 220c-8 35 -12 61 -12 96c0 134 71 224 177 224c70 0 121 -46 121 -108c0 -89 -75 -149 -214 -232
c39 -97 79 -163 132 -215c51 51 57 53 111 133zM269 406c144 93 170 123 170 175c0 38 -29 64 -69 64c-66 0 -108 -66 -108 -171c0 -30 1 -40 7 -68zM366 102c-61 63 -107 138 -138 222c-73 -47 -109 -100 -109 -161c0 -70 45 -114 116 -114c44 0 72 11 131 53z" />
    <glyph glyph-name="quotesingle" unicode="'" horiz-adv-x="185" 
d="M274 744l-93 -291h-30l40 291h83z" />
    <glyph glyph-name="parenleft" unicode="(" horiz-adv-x="308" 
d="M452 799l25 -36c-97 -67 -154 -116 -206 -193c-72 -107 -110 -236 -110 -374c0 -101 19 -181 59 -251c15 -26 24 -39 50 -69l-34 -34c-97 93 -145 214 -145 361c0 131 33 247 100 352c41 64 89 119 150 168c36 30 57 44 111 76z" />
    <glyph glyph-name="parenright" unicode=")" horiz-adv-x="308" 
d="M128 764l34 35c97 -94 145 -215 145 -362c0 -131 -33 -247 -100 -352c-41 -64 -89 -119 -150 -168c-36 -30 -57 -44 -111 -76l-25 36c97 67 155 117 206 193c72 107 110 236 110 374c0 102 -19 181 -59 251c-15 26 -24 39 -50 69z" />
    <glyph glyph-name="asterisk" unicode="*" horiz-adv-x="357" 
d="M421 562l-117 -14l45 -103l-42 -19l-47 103l-79 -73l-31 35l82 75l-96 54l22 39l97 -53l25 107l46 -11l-25 -108l113 10z" />
    <glyph glyph-name="plus" unicode="+" horiz-adv-x="724" 
d="M681 323l-14 -59h-238l-55 -239h-60l55 239h-238l14 59h238l55 237h60l-55 -237h238z" />
    <glyph glyph-name="comma" unicode="," horiz-adv-x="229" 
d="M65 110h79c-16 -113 -42 -184 -84 -264h-42c25 42 47 104 58 154h-35z" />
    <glyph glyph-name="hyphen" unicode="-" horiz-adv-x="341" 
d="M347 324l-14 -60h-265l14 60h265z" />
    <glyph glyph-name="period" unicode="." horiz-adv-x="208" 
d="M139 108l-22 -108h-80l23 108h79z" />
    <glyph glyph-name="slash" unicode="/" horiz-adv-x="439" 
d="M565 706l-520 -706h-72l521 706h71z" />
    <glyph glyph-name="zero" unicode="0" horiz-adv-x="583" 
d="M596 460c0 -187 -91 -472 -312 -472c-133 0 -209 95 -209 261c0 185 92 467 312 467c136 0 209 -89 209 -256zM530 457c0 135 -52 207 -149 207c-167 0 -243 -275 -243 -425c0 -129 54 -197 153 -197c175 0 239 276 239 415z" />
    <glyph glyph-name="one" unicode="1" horiz-adv-x="583" 
d="M474 705l-163 -705h-66l130 559c-27 -18 -81 -30 -133 -30c-19 0 -27 0 -46 3l12 55c14 -1 22 -1 32 -1c95 0 144 35 168 119h66z" />
    <glyph glyph-name="two" unicode="2" horiz-adv-x="583" 
d="M497 0h-457l17 76c24 11 31 15 66 35c95 54 124 73 179 116c142 110 211 210 211 306c0 80 -51 130 -132 130c-97 0 -160 -75 -160 -188c0 -15 0 -23 3 -41l-67 13c0 185 95 270 231 270c115 0 191 -70 191 -178c0 -95 -45 -185 -164 -291c-60 -53 -94 -79 -172 -128
c-53 -33 -67 -41 -110 -63c0 0 350 5 377 5z" />
    <glyph glyph-name="three" unicode="3" horiz-adv-x="583" 
d="M220 494l-65 10c29 145 105 212 236 212c118 0 194 -68 194 -174c0 -96 -70 -168 -175 -179c91 -17 138 -72 138 -161c0 -126 -102 -214 -247 -214s-229 80 -236 225l67 8c4 -125 75 -178 172 -178c106 0 181 66 181 160c0 150 -176 129 -242 134l13 55
c18 -2 26 -2 39 -2c148 0 225 51 225 149c0 76 -54 125 -138 125c-88 0 -155 -70 -162 -170z" />
    <glyph glyph-name="four" unicode="4" horiz-adv-x="583" 
d="M563 706l-99 -453h95l-12 -56h-94l-45 -197h-63l45 197h-310l12 58l415 451h56zM489 612l-322 -358h233z" />
    <glyph glyph-name="five" unicode="5" horiz-adv-x="583" 
d="M609 706l-14 -58h-317l-67 -244c38 49 94 80 166 80c115 0 194 -84 194 -206c0 -113 -71 -290 -274 -290c-132 0 -224 81 -233 212l66 12c5 -104 73 -169 173 -169c117 0 205 98 205 229c0 94 -58 161 -140 161c-72 0 -120 -36 -161 -102l-72 12l98 363h376z" />
    <glyph glyph-name="six" unicode="6" horiz-adv-x="583" 
d="M616 548l-63 -14c-11 87 -54 131 -130 131c-125 0 -220 -128 -248 -332c35 91 115 142 205 142c116 0 192 -83 192 -209c0 -158 -106 -278 -245 -278c-136 0 -217 105 -217 279c0 89 22 190 60 269c57 119 147 182 260 182c107 0 169 -57 186 -170zM509 264
c0 99 -52 158 -139 158c-105 0 -190 -95 -190 -212c0 -99 61 -168 149 -168c112 0 180 110 180 222z" />
    <glyph glyph-name="seven" unicode="7" horiz-adv-x="583" 
d="M176 706h433c-9 -78 -23 -116 -87 -221c-104 -170 -179 -318 -223 -485h-76c17 66 48 142 81 214c36 79 65 130 130 235c70 114 85 142 98 200h-306l-31 -131h-62z" />
    <glyph glyph-name="eight" unicode="8" horiz-adv-x="583" 
d="M226 377c-46 30 -68 74 -68 132c0 124 89 209 221 209c121 0 194 -66 194 -174c0 -83 -49 -149 -129 -175c61 -28 93 -81 93 -154c0 -130 -104 -226 -245 -226c-130 0 -215 73 -215 186c0 96 58 175 149 202zM219 513c0 -74 48 -117 130 -117c93 0 162 57 162 140
c0 86 -51 131 -134 131c-96 0 -158 -60 -158 -154zM475 206c0 89 -59 142 -157 142c-101 0 -176 -71 -176 -168c0 -86 59 -141 150 -141c105 0 183 71 183 167z" />
    <glyph glyph-name="nine" unicode="9" horiz-adv-x="583" 
d="M77 158l63 14c6 -75 49 -131 130 -131c125 0 218 125 248 333c-32 -90 -115 -143 -204 -143c-117 0 -193 83 -193 209c0 159 106 278 247 278c135 0 216 -102 216 -275c0 -91 -23 -193 -60 -272c-57 -120 -147 -183 -261 -183c-105 0 -174 58 -186 170zM513 496
c0 100 -61 168 -149 168c-135 0 -180 -145 -180 -221c0 -100 52 -159 140 -159c104 0 189 95 189 212z" />
    <glyph glyph-name="colon" unicode=":" horiz-adv-x="258" 
d="M258 491l-22 -109h-80l23 109h79zM178 108l-22 -108h-81l23 108h80z" />
    <glyph glyph-name="semicolon" unicode=";" horiz-adv-x="258" 
d="M258 491l-22 -109h-80l23 109h79zM99 111h79c-17 -113 -41 -184 -85 -264h-42c25 42 47 104 58 154h-35z" />
    <glyph glyph-name="less" unicode="&#x3c;" horiz-adv-x="724" 
d="M692 571l-16 -69l-457 -208l362 -205l-14 -61l-412 236l16 68z" />
    <glyph glyph-name="equal" unicode="=" horiz-adv-x="724" 
d="M690 408l-14 -57h-525l14 57h525zM649 231l-13 -56h-526l14 56h525z" />
    <glyph glyph-name="greater" unicode="&#x3e;" horiz-adv-x="724" 
d="M633 324l-15 -67l-522 -240l16 69l457 208l-361 206l14 60z" />
    <glyph glyph-name="question" unicode="?" horiz-adv-x="509" 
d="M336 176h-61l49 208h17c96 0 155 54 155 140c0 80 -55 134 -136 134c-97 0 -160 -66 -165 -175l-66 12c13 137 98 218 228 218c120 0 204 -78 204 -188c0 -112 -73 -188 -191 -198zM328 112l-25 -112h-75l26 112h74z" />
    <glyph glyph-name="at" unicode="@" horiz-adv-x="896" 
d="M620 492h59l-46 -194c-15 -65 -22 -97 -22 -121c0 -35 11 -57 36 -57c12 0 32 9 48 22c69 57 120 179 120 288c0 148 -97 240 -253 240c-225 0 -418 -204 -418 -445c0 -184 131 -306 329 -306c127 0 239 48 344 147l27 -32c-30 -27 -41 -37 -64 -54
c-91 -68 -196 -104 -303 -104c-226 0 -378 141 -378 350c0 266 213 486 471 486c178 0 291 -109 291 -282c0 -182 -117 -358 -236 -358c-47 0 -78 31 -78 80c0 4 1 11 1 13c-44 -61 -96 -92 -152 -92c-76 0 -125 60 -125 155c0 149 103 287 215 287c50 0 87 -23 117 -95z
M580 347c0 56 -22 115 -88 115c-80 0 -153 -110 -153 -230c0 -65 33 -105 85 -105c80 0 156 100 156 220z" />
    <glyph glyph-name="A" unicode="A" horiz-adv-x="634" 
d="M571 0h-68l-29 227h-276l-125 -227h-74l398 706h80zM468 288l-42 360l-194 -360h236z" />
    <glyph glyph-name="B" unicode="B" horiz-adv-x="657" 
d="M212 706h218c84 0 112 -3 146 -17c54 -22 86 -76 86 -144c0 -94 -56 -160 -164 -177c85 -9 130 -59 130 -146c0 -77 -39 -147 -104 -186c-44 -26 -89 -36 -172 -36h-302zM264 648l-58 -250h198c48 0 91 2 128 21c40 20 66 68 66 122c0 75 -44 107 -148 107h-186zM191 339
l-64 -281h219c46 0 95 0 133 18c50 23 82 78 82 142c0 38 -11 69 -31 89c-23 24 -57 32 -133 32h-206z" />
    <glyph glyph-name="C" unicode="C" horiz-adv-x="745" 
d="M752 505l-66 -13c-29 116 -111 175 -226 175c-209 0 -294 -203 -294 -356c0 -168 90 -271 237 -271c121 0 218 75 263 203l66 -9c-52 -153 -180 -247 -337 -247c-186 0 -298 120 -298 320c0 217 130 413 374 413c145 0 246 -70 281 -215z" />
    <glyph glyph-name="D" unicode="D" horiz-adv-x="684" 
d="M212 706h157c69 0 142 -3 191 -27c85 -41 131 -128 131 -246c0 -129 -48 -257 -128 -339c-68 -69 -146 -94 -288 -94h-225zM263 648l-136 -590h147c113 0 161 8 218 53c79 62 134 196 134 325c0 58 -14 108 -40 144c-36 49 -91 68 -199 68h-124z" />
    <glyph glyph-name="E" unicode="E" horiz-adv-x="590" 
d="M640 706l-13 -58h-363l-60 -256h333l-14 -58h-332l-64 -276h413l-13 -58h-477l162 706h428z" />
    <glyph glyph-name="F" unicode="F" horiz-adv-x="544" 
d="M635 706l-15 -58h-358l-56 -251h333l-14 -59h-333l-78 -338h-64l162 706h423z" />
    <glyph glyph-name="G" unicode="G" horiz-adv-x="734" 
d="M751 504l-66 -11c-20 113 -110 174 -223 174c-167 0 -295 -155 -295 -359c0 -164 91 -269 232 -269c133 0 221 85 248 260h-261l13 59h321l-79 -358h-61l21 95c-52 -78 -122 -108 -218 -108c-176 0 -286 119 -286 310c0 246 157 423 376 423c141 0 249 -74 278 -216z" />
    <glyph glyph-name="H" unicode="H" horiz-adv-x="719" 
d="M763 706l-163 -706h-64l79 345h-422l-80 -345h-63l162 706h64l-70 -304h423l70 304h64z" />
    <glyph glyph-name="I" unicode="I" horiz-adv-x="233" 
d="M277 706l-163 -706h-64l162 706h65z" />
    <glyph glyph-name="J" unicode="J" horiz-adv-x="381" 
d="M431 706l-112 -485c-36 -155 -77 -235 -212 -235c-34 0 -65 5 -104 17l14 62c32 -15 59 -21 94 -21c91 0 119 59 146 179l111 483h63z" />
    <glyph glyph-name="K" unicode="K" horiz-adv-x="626" 
d="M707 706l-319 -263l196 -443h-70l-176 405l-161 -130l-64 -275h-63l162 706h65l-82 -351l425 351h87z" />
    <glyph glyph-name="L" unicode="L" horiz-adv-x="529" 
d="M478 58l-13 -58h-415l162 706h64l-150 -648h352z" />
    <glyph glyph-name="M" unicode="M" horiz-adv-x="778" 
d="M822 706l-163 -706h-64l144 586l-344 -586h-75l-76 601l-130 -601h-64l162 706h80l80 -640l373 640h77z" />
    <glyph glyph-name="N" unicode="N" horiz-adv-x="671" 
d="M715 706l-163 -706h-69l-233 617l-137 -617h-63l162 706h71l230 -616l137 616h65z" />
    <glyph glyph-name="O" unicode="O" horiz-adv-x="757" 
d="M764 393c0 -102 -43 -214 -103 -285c-68 -79 -160 -121 -267 -121c-182 0 -298 124 -298 320c0 240 155 413 369 413c202 0 299 -136 299 -327zM698 402c0 165 -87 263 -233 263c-88 0 -160 -34 -215 -102c-52 -65 -86 -166 -86 -258c0 -157 94 -264 232 -264
c170 0 302 158 302 361z" />
    <glyph glyph-name="P" unicode="P" horiz-adv-x="607" 
d="M212 706h226c69 0 108 -6 138 -22c48 -25 78 -84 78 -152c0 -70 -29 -129 -82 -170c-48 -36 -112 -52 -216 -52h-172l-70 -310h-64zM262 648l-64 -280h155c113 0 160 14 197 57c24 28 37 66 37 110c0 79 -37 113 -133 113h-192z" />
    <glyph glyph-name="Q" unicode="Q" horiz-adv-x="757" 
d="M738 22l-48 -45l-93 73c-13 -10 -83 -63 -202 -63c-183 0 -299 124 -299 321c0 214 130 412 371 412c184 0 297 -122 297 -320c0 -114 -46 -236 -116 -306zM697 402c0 164 -86 261 -233 261c-193 0 -301 -179 -301 -360c0 -157 94 -263 232 -263c171 0 302 157 302 362z
" />
    <glyph glyph-name="R" unicode="R" horiz-adv-x="629" 
d="M212 706h250c52 0 87 -7 117 -23c49 -27 81 -86 81 -151c0 -107 -76 -192 -201 -210l119 -322h-70l-111 317h-210l-73 -317h-64zM264 648l-64 -274h200c127 0 191 58 191 157c0 40 -12 71 -34 89c-26 22 -54 28 -134 28h-159z" />
    <glyph glyph-name="S" unicode="S" horiz-adv-x="617" 
d="M651 529l-63 -15c-13 98 -73 152 -181 152c-106 0 -176 -51 -176 -130c0 -67 49 -90 119 -120l81 -34c108 -45 153 -94 153 -180c0 -128 -106 -215 -262 -215c-165 0 -262 81 -262 233v9l69 14c-1 -10 -1 -16 -1 -22c0 -114 71 -179 197 -179c119 0 194 59 194 152
c0 65 -47 96 -118 126l-81 34c-90 38 -156 78 -156 171c0 119 96 195 248 195c138 0 219 -60 239 -191z" />
    <glyph glyph-name="T" unicode="T" horiz-adv-x="523" 
d="M636 706l-12 -57h-211l-149 -649h-66l151 649h-212l12 57h487z" />
    <glyph glyph-name="U" unicode="U" horiz-adv-x="687" 
d="M224 706h66l-85 -376c-10 -44 -19 -111 -19 -140c0 -96 60 -149 166 -149c155 0 194 117 222 243l95 422h65l-103 -457c-28 -124 -84 -262 -284 -262c-143 0 -226 75 -226 204c0 39 7 89 23 159z" />
    <glyph glyph-name="V" unicode="V" horiz-adv-x="570" 
d="M672 706l-378 -706h-68l-66 706h66l48 -623l324 623h74z" />
    <glyph glyph-name="W" unicode="W" horiz-adv-x="950" 
d="M1052 706l-357 -706h-64l-54 621l-310 -621h-65l-73 706h67l54 -618l312 618h63l55 -618l299 618h73z" />
    <glyph glyph-name="X" unicode="X" horiz-adv-x="547" 
d="M648 706l-285 -352l137 -354h-69l-116 307l-242 -307h-76l298 364l-133 342h69l110 -293l232 293h75z" />
    <glyph glyph-name="Y" unicode="Y" horiz-adv-x="562" 
d="M685 706l-346 -399l-71 -307h-65l72 315l-120 391h69l97 -335l281 335h83z" />
    <glyph glyph-name="Z" unicode="Z" horiz-adv-x="567" 
d="M625 706l-15 -60l-511 -588h441l-13 -58h-517l15 67l507 581h-381l14 58h460z" />
    <glyph glyph-name="bracketleft" unicode="[" horiz-adv-x="271" 
d="M406 779l-11 -51h-109l-190 -822h109l-12 -50h-170l213 923h170z" />
    <glyph glyph-name="backslash" unicode="\" horiz-adv-x="345" 
d="M290 -19h-60l-75 725h59z" />
    <glyph glyph-name="bracketright" unicode="]" horiz-adv-x="271" 
d="M326 779l-213 -923h-170l12 51h109l190 823h-109l11 49h170z" />
    <glyph glyph-name="asciicircum" unicode="^" horiz-adv-x="724" 
d="M620 289h-61l-86 359l-252 -359h-70l296 417h68z" />
    <glyph glyph-name="underscore" unicode="_" horiz-adv-x="500" 
d="M437 -206h-520l14 59h520z" />
    <glyph glyph-name="grave" unicode="`" horiz-adv-x="225" 
d="M184 531h-44l-99 152h91z" />
    <glyph glyph-name="a" unicode="a" horiz-adv-x="492" 
d="M453 53l-11 -50c-13 -4 -18 -5 -30 -5c-41 0 -63 22 -63 60c0 4 0 7 1 12c-36 -54 -90 -80 -165 -80c-90 0 -141 43 -141 117c0 78 57 131 141 149c42 9 54 11 202 31c9 35 12 49 12 62c0 54 -31 83 -103 83c-74 0 -116 -33 -129 -102l-62 4c25 99 91 148 199 148
c96 0 156 -44 156 -115c0 -21 -1 -36 -12 -81l-40 -168c-6 -26 -8 -39 -8 -47c0 -17 8 -25 24 -25c9 0 14 1 29 7zM361 166l16 74c-205 -21 -269 -52 -269 -127c0 -49 33 -77 93 -77c92 0 144 54 160 130z" />
    <glyph glyph-name="b" unicode="b" horiz-adv-x="517" 
d="M205 706h59l-70 -305c34 51 89 79 155 79c95 0 152 -72 152 -193c0 -112 -55 -296 -238 -296c-77 0 -124 32 -142 96l-20 -87h-56zM440 284c0 75 -25 145 -112 145c-110 0 -176 -124 -176 -262c0 -78 44 -128 113 -128c127 0 175 154 175 245z" />
    <glyph glyph-name="c" unicode="c" horiz-adv-x="491" 
d="M491 340l-58 -14c-12 77 -49 111 -121 111c-105 0 -185 -108 -185 -248c0 -94 52 -154 134 -154c68 0 121 42 149 115l59 -8c-41 -101 -114 -154 -213 -154c-119 0 -189 73 -189 196c0 169 108 299 250 299c99 0 165 -54 174 -143z" />
    <glyph glyph-name="d" unicode="d" horiz-adv-x="517" 
d="M578 706l-159 -706h-59l17 78c-35 -56 -91 -87 -158 -87c-98 0 -152 68 -152 191c0 168 100 298 231 298c78 0 126 -36 146 -108l75 334h59zM419 293c0 87 -43 138 -117 138c-99 0 -174 -107 -174 -249c0 -89 40 -140 108 -140c110 0 183 126 183 251z" />
    <glyph glyph-name="e" unicode="e" horiz-adv-x="501" 
d="M411 144l56 -12c-35 -88 -114 -144 -215 -144c-115 0 -185 75 -185 198c0 167 109 297 250 297c107 0 169 -69 169 -189c0 -19 0 -29 -4 -59h-350c-3 -24 -4 -35 -4 -49c0 -91 51 -149 131 -149c68 0 125 40 152 107zM141 281h284c2 15 2 21 2 32c0 76 -43 124 -113 124
c-81 0 -142 -56 -173 -156z" />
    <glyph glyph-name="f" unicode="f" horiz-adv-x="262" 
d="M361 705l-11 -49c-16 7 -26 9 -36 9c-17 0 -39 -5 -53 -68l-28 -126h82l-12 -50h-81l-97 -421h-57l95 421h-70l12 50h69l33 143c22 94 82 102 103 102c16 0 31 -4 51 -11z" />
    <glyph glyph-name="g" unicode="g" horiz-adv-x="514" 
d="M461 471h59l-100 -445c-18 -78 -30 -117 -50 -152c-33 -60 -98 -94 -179 -94c-106 0 -175 57 -175 144c0 11 1 16 3 33l61 6c-2 -14 -3 -19 -3 -30c0 -67 42 -103 120 -103c69 0 112 29 137 93c13 34 21 66 38 145c-38 -52 -86 -77 -146 -77c-97 0 -162 76 -162 189
c0 107 67 300 236 300c69 0 117 -33 142 -98zM415 299c0 85 -42 134 -116 134c-97 0 -172 -105 -172 -241c0 -95 45 -153 120 -153c40 0 77 21 108 59c35 42 60 147 60 201z" />
    <glyph glyph-name="h" unicode="h" horiz-adv-x="515" 
d="M205 706h59l-69 -304c46 55 98 81 163 81c81 0 132 -46 132 -119c0 -24 -3 -50 -13 -92l-62 -272h-58l62 271c7 28 13 57 13 86c0 48 -32 75 -89 75c-56 0 -102 -24 -138 -72c-23 -31 -32 -54 -49 -128l-53 -232h-58z" />
    <glyph glyph-name="i" unicode="i" horiz-adv-x="203" 
d="M264 706l-21 -90h-59l21 90h59zM210 471l-106 -471h-59l106 471h59z" />
    <glyph glyph-name="j" unicode="j" horiz-adv-x="208" 
d="M269 706l-21 -90h-59l20 90h60zM214 471l-132 -587c-18 -79 -53 -112 -122 -112c-15 0 -28 1 -49 4l13 55c11 -2 30 -3 36 -3c52 0 57 23 73 95l123 548h58z" />
    <glyph glyph-name="k" unicode="k" horiz-adv-x="463" 
d="M495 471l-232 -188l172 -283h-69l-148 245l-70 -56l-44 -189h-59l160 706h59l-101 -445l255 210h77z" />
    <glyph glyph-name="l" unicode="l" horiz-adv-x="203" 
d="M264 706l-160 -706h-59l160 706h59z" />
    <glyph glyph-name="m" unicode="m" horiz-adv-x="773" 
d="M152 471h58l-16 -70c46 56 92 82 146 82c66 0 112 -37 122 -99c42 63 102 99 164 99c73 0 123 -48 123 -119c0 -24 -4 -50 -14 -92l-62 -272h-57l61 271c6 28 14 57 14 86c0 47 -30 76 -78 76c-47 0 -90 -26 -123 -70c-25 -35 -33 -61 -49 -131l-53 -232h-58l62 271
c5 20 13 56 13 78c0 46 -18 84 -77 84c-47 0 -92 -26 -124 -71c-23 -32 -31 -56 -48 -130l-53 -232h-58z" />
    <glyph glyph-name="n" unicode="n" horiz-adv-x="515" 
d="M152 471h58l-16 -70c49 57 99 82 164 82c81 0 132 -46 132 -119c0 -24 -3 -50 -13 -92l-62 -272h-58l62 271c7 29 13 56 13 76c0 54 -25 85 -89 85c-56 0 -102 -24 -138 -72c-23 -31 -32 -54 -49 -128l-53 -232h-58z" />
    <glyph glyph-name="o" unicode="o" horiz-adv-x="521" 
d="M506 278c0 -161 -112 -290 -251 -290c-114 0 -188 81 -188 205c0 164 110 290 253 290c63 0 186 -30 186 -205zM445 288c0 117 -70 147 -127 147c-109 0 -191 -104 -191 -243c0 -95 50 -154 131 -154c103 0 187 109 187 250z" />
    <glyph glyph-name="p" unicode="p" horiz-adv-x="520" 
d="M152 471h58l-16 -78c35 56 91 87 157 87c98 0 153 -69 153 -191c0 -169 -101 -298 -231 -298c-79 0 -127 35 -147 108l-70 -315h-59zM442 289c0 88 -40 140 -108 140c-109 0 -183 -127 -183 -252c0 -86 44 -137 118 -137c99 0 173 107 173 249z" />
    <glyph glyph-name="q" unicode="q" horiz-adv-x="517" 
d="M522 471l-156 -686h-59l67 285c-35 -51 -90 -79 -156 -79c-95 0 -151 71 -151 193c0 150 79 296 238 296c76 0 124 -32 142 -96l20 87h55zM415 303c0 79 -43 128 -112 128c-133 0 -175 -162 -175 -251c0 -88 41 -139 112 -139c127 0 175 153 175 262z" />
    <glyph glyph-name="r" unicode="r" horiz-adv-x="291" 
d="M151 471h59l-19 -84c33 59 84 93 138 93c6 0 16 0 21 -1l-14 -60c-10 1 -17 1 -22 1c-79 0 -129 -61 -156 -179l-54 -241h-59z" />
    <glyph glyph-name="s" unicode="s" horiz-adv-x="452" 
d="M442 341l-53 -10c1 9 1 13 1 19c0 56 -37 87 -107 87c-71 0 -116 -32 -116 -82c0 -26 14 -45 43 -57l106 -44c62 -26 101 -57 101 -122c0 -87 -74 -144 -187 -144c-111 0 -173 51 -173 143c0 12 0 17 3 31l59 12c-3 -16 -4 -23 -4 -36c0 -67 42 -103 120 -103
c76 0 126 36 126 91c0 38 -17 55 -85 83l-78 32c-60 25 -88 60 -88 110c0 78 73 132 179 132c98 0 154 -46 154 -124c0 -6 0 -10 -1 -18z" />
    <glyph glyph-name="t" unicode="t" horiz-adv-x="271" 
d="M319 471l-10 -49h-82l-65 -281c-5 -23 -11 -53 -11 -61c0 -20 11 -29 35 -29c13 0 25 2 51 8l-11 -48c-23 -10 -45 -14 -68 -14c-42 0 -67 25 -67 67c0 15 2 29 7 50l70 308h-74l11 49h74l33 150h59l-34 -150h82z" />
    <glyph glyph-name="u" unicode="u" horiz-adv-x="515" 
d="M519 471l-107 -471h-58l16 69c-49 -56 -99 -81 -164 -81c-81 0 -132 46 -132 119c0 24 3 49 13 92l62 272h58l-62 -271c-9 -38 -13 -59 -13 -86c0 -48 32 -75 89 -75c56 0 103 24 138 71c24 32 32 54 49 129l53 232h58z" />
    <glyph glyph-name="v" unicode="v" horiz-adv-x="434" 
d="M491 471l-287 -471h-68l-45 471h63l33 -404l236 404h68z" />
    <glyph glyph-name="w" unicode="w" horiz-adv-x="719" 
d="M766 471l-261 -471h-67l-30 393l-204 -393h-66l-46 471h63l33 -404l203 404h63l31 -404l214 404h67z" />
    <glyph glyph-name="x" unicode="x" horiz-adv-x="411" 
d="M486 471l-216 -237l76 -234h-60l-58 194l-174 -194h-74l224 242l-75 229h60l57 -189l169 189h71z" />
    <glyph glyph-name="y" unicode="y" horiz-adv-x="422" 
d="M485 471l-343 -594c-55 -95 -84 -108 -146 -108c-18 0 -32 1 -49 5l12 52c19 -4 31 -6 43 -6c40 0 53 15 94 89l52 93l-49 469h62l35 -400l221 400h68z" />
    <glyph glyph-name="z" unicode="z" horiz-adv-x="433" 
d="M457 471l-14 -55l-358 -363h306l-13 -53h-383l12 52l363 366h-267l11 53h343z" />
    <glyph glyph-name="braceleft" unicode="{" horiz-adv-x="268" 
d="M402 783l-11 -49h-18c-58 0 -75 -12 -95 -98l-42 -186c-20 -87 -48 -121 -113 -135c40 -14 58 -39 58 -79c0 -16 -2 -34 -7 -55l-40 -172c-10 -42 -12 -50 -12 -63c0 -32 17 -45 59 -45h18l-12 -49h-23c-64 0 -102 34 -102 90c0 20 1 32 12 78l39 166c5 21 8 41 8 51
c0 35 -17 49 -68 55l12 51c65 2 88 14 109 106l38 167c33 143 62 167 161 167h29z" />
    <glyph glyph-name="bar" unicode="|" horiz-adv-x="229" 
d="M293 778l-213 -921h-62l213 921h62z" />
    <glyph glyph-name="braceright" unicode="}" horiz-adv-x="268" 
d="M-54 -148l11 49h18c68 0 79 25 95 98l42 186c20 87 48 121 113 135c-40 14 -58 39 -58 79c0 16 2 34 7 55l40 172c10 42 12 50 12 63c0 32 -17 45 -59 45h-18l12 49h23c64 0 102 -34 102 -90c0 -20 -1 -32 -12 -78l-39 -166c-5 -21 -8 -41 -8 -51c0 -35 17 -49 68 -55
l-12 -51c-65 -2 -88 -14 -109 -106l-38 -167c-28 -125 -49 -167 -161 -167h-29z" />
    <glyph glyph-name="asciitilde" unicode="~" horiz-adv-x="724" 
d="M661 361l39 -42c-66 -66 -128 -100 -179 -100c-26 0 -56 4 -120 39l-31 17c-41 22 -68 31 -96 31c-41 0 -62 -12 -118 -68l-12 -12l-40 44c67 73 114 100 179 100c37 0 60 -10 108 -34l57 -28c42 -21 54 -25 74 -25c43 0 71 16 139 78z" />
    <glyph glyph-name="Adieresis" unicode="&#xc4;" horiz-adv-x="634" 
d="M571 0h-68l-29 227h-276l-125 -227h-74l398 706h80zM468 288l-42 360l-194 -360h236zM585 876l-21 -97h-68l21 97h68zM403 876l-22 -97h-68l22 97h68z" />
    <glyph glyph-name="Aring" unicode="&#xc5;" horiz-adv-x="634" 
d="M571 0h-68l-29 227h-276l-125 -227h-74l398 706h80zM468 288l-42 360l-194 -360h236zM527 828c0 -43 -35 -78 -79 -78c-43 0 -78 35 -78 78s35 78 77 78c45 0 80 -34 80 -78zM490 828c0 24 -18 44 -41 44s-41 -19 -41 -44c0 -24 18 -43 41 -43s41 19 41 43z" />
    <glyph glyph-name="Ccedilla" unicode="&#xc7;" horiz-adv-x="745" 
d="M752 505l-66 -13c-32 117 -111 175 -226 175c-215 0 -294 -214 -294 -356c0 -168 90 -271 237 -271c121 0 218 75 263 203l66 -9c-52 -152 -180 -247 -334 -247h-13l-21 -29c41 -4 62 -26 62 -64c0 -53 -50 -91 -121 -91c-13 0 -19 1 -36 3l12 26c7 -1 13 -1 17 -1
c41 0 63 16 63 45c0 26 -20 40 -61 43l52 70l-7 2c-165 20 -248 146 -248 316c0 182 105 413 374 413c87 0 155 -25 206 -75c38 -36 54 -66 75 -140z" />
    <glyph glyph-name="Eacute" unicode="&#xc9;" horiz-adv-x="590" 
d="M640 706l-13 -58h-363l-60 -256h333l-14 -58h-332l-64 -276h413l-13 -58h-477l162 706h428zM585 895l-152 -127h-50l99 127h103z" />
    <glyph glyph-name="Ntilde" unicode="&#xd1;" horiz-adv-x="671" 
d="M715 706l-163 -706h-69l-233 617l-137 -617h-63l162 706h71l230 -616l137 616h65zM607 880l35 -19c-29 -60 -64 -92 -101 -92c-21 0 -40 9 -78 32c-30 18 -47 26 -59 26c-20 0 -36 -16 -55 -54l-36 16c32 69 63 98 103 98c20 0 39 -9 81 -34c30 -18 41 -23 53 -23
c21 0 36 13 57 50z" />
    <glyph glyph-name="Odieresis" unicode="&#xd6;" horiz-adv-x="757" 
d="M764 393c0 -102 -43 -214 -103 -285c-68 -79 -160 -121 -267 -121c-182 0 -298 124 -298 320c0 240 155 413 369 413c202 0 299 -136 299 -327zM698 402c0 165 -87 263 -233 263c-88 0 -160 -34 -215 -102c-52 -65 -86 -166 -86 -258c0 -157 94 -264 232 -264
c170 0 302 158 302 361zM626 876l-21 -97h-68l21 97h68zM444 876l-22 -97h-68l22 97h68z" />
    <glyph glyph-name="Udieresis" unicode="&#xdc;" horiz-adv-x="687" 
d="M224 706h66l-85 -376c-10 -44 -19 -111 -19 -140c0 -96 60 -149 166 -149c155 0 194 117 222 243l95 422h65l-103 -457c-28 -124 -84 -262 -284 -262c-143 0 -226 75 -226 204c0 39 7 89 23 159zM630 876l-21 -97h-68l21 97h68zM448 876l-22 -97h-68l22 97h68z" />
    <glyph glyph-name="aacute" unicode="&#xe1;" horiz-adv-x="492" 
d="M453 53l-11 -50c-13 -4 -18 -5 -30 -5c-41 0 -63 22 -63 60c0 4 0 7 1 12c-36 -54 -90 -80 -165 -80c-90 0 -141 43 -141 117c0 78 57 131 141 149c42 9 54 11 202 31c9 35 12 49 12 62c0 54 -31 83 -103 83c-74 0 -116 -33 -129 -102l-62 4c25 99 91 148 199 148
c96 0 156 -44 156 -115c0 -21 -1 -36 -12 -81l-40 -168c-6 -26 -8 -39 -8 -47c0 -17 8 -25 24 -25c9 0 14 1 29 7zM361 166l16 74c-205 -21 -269 -52 -269 -127c0 -49 33 -77 93 -77c92 0 144 54 160 130zM468 683l-143 -150h-46l93 150h96z" />
    <glyph glyph-name="agrave" unicode="&#xe0;" horiz-adv-x="492" 
d="M453 53l-11 -50c-13 -4 -18 -5 -30 -5c-41 0 -63 22 -63 60c0 4 0 7 1 12c-36 -54 -90 -80 -165 -80c-90 0 -141 43 -141 117c0 78 57 131 141 149c42 9 54 11 202 31c9 35 12 49 12 62c0 54 -31 83 -103 83c-74 0 -116 -33 -129 -102l-62 4c25 99 91 148 199 148
c96 0 156 -44 156 -115c0 -21 -1 -36 -12 -81l-40 -168c-6 -26 -8 -39 -8 -47c0 -17 8 -25 24 -25c9 0 14 1 29 7zM361 166l16 74c-205 -21 -269 -52 -269 -127c0 -49 33 -77 93 -77c92 0 144 54 160 130zM364 531h-44l-99 152h91z" />
    <glyph glyph-name="acircumflex" unicode="&#xe2;" horiz-adv-x="492" 
d="M453 53l-11 -50c-13 -4 -18 -5 -30 -5c-41 0 -63 22 -63 60c0 4 0 7 1 12c-36 -54 -90 -80 -165 -80c-90 0 -141 43 -141 117c0 78 57 131 141 149c42 9 54 11 202 31c9 35 12 49 12 62c0 54 -31 83 -103 83c-74 0 -116 -33 -129 -102l-62 4c25 99 91 148 199 148
c96 0 156 -44 156 -115c0 -21 -1 -36 -12 -81l-40 -168c-6 -26 -8 -39 -8 -47c0 -17 8 -25 24 -25c9 0 14 1 29 7zM361 166l16 74c-205 -21 -269 -52 -269 -127c0 -49 33 -77 93 -77c92 0 144 54 160 130zM446 531h-45l-65 85l-104 -85h-51l147 151h42z" />
    <glyph glyph-name="adieresis" unicode="&#xe4;" horiz-adv-x="492" 
d="M453 53l-11 -50c-13 -4 -18 -5 -30 -5c-41 0 -63 22 -63 60c0 4 0 7 1 12c-36 -54 -90 -80 -165 -80c-90 0 -141 43 -141 117c0 78 57 131 141 149c42 9 54 11 202 31c9 35 12 49 12 62c0 54 -31 83 -103 83c-74 0 -116 -33 -129 -102l-62 4c25 99 91 148 199 148
c96 0 156 -44 156 -115c0 -21 -1 -36 -12 -81l-40 -168c-6 -26 -8 -39 -8 -47c0 -17 8 -25 24 -25c9 0 14 1 29 7zM361 166l16 74c-205 -21 -269 -52 -269 -127c0 -49 33 -77 93 -77c92 0 144 54 160 130zM464 674l-22 -92h-63l22 92h63zM280 674l-21 -92h-64l23 92h62z" />
    <glyph glyph-name="atilde" unicode="&#xe3;" horiz-adv-x="492" 
d="M453 53l-11 -50c-13 -4 -18 -5 -30 -5c-41 0 -63 22 -63 60c0 4 0 7 1 12c-36 -54 -90 -80 -165 -80c-90 0 -141 43 -141 117c0 78 57 131 141 149c42 9 54 11 202 31c9 35 12 49 12 62c0 54 -31 83 -103 83c-74 0 -116 -33 -129 -102l-62 4c25 99 91 148 199 148
c96 0 156 -44 156 -115c0 -21 -1 -36 -12 -81l-40 -168c-6 -26 -8 -39 -8 -47c0 -17 8 -25 24 -25c9 0 14 1 29 7zM361 166l16 74c-205 -21 -269 -52 -269 -127c0 -49 33 -77 93 -77c92 0 144 54 160 130zM453 662l33 -18c-28 -59 -60 -89 -95 -89c-18 0 -31 3 -73 30
c-28 18 -44 25 -55 25c-19 0 -34 -15 -52 -52l-34 16c31 66 59 94 97 94c22 0 37 -8 76 -33c28 -17 38 -22 50 -22c19 0 33 13 53 49z" />
    <glyph glyph-name="aring" unicode="&#xe5;" horiz-adv-x="492" 
d="M453 53l-11 -50c-13 -4 -18 -5 -30 -5c-41 0 -63 22 -63 60c0 4 0 7 1 12c-36 -54 -90 -80 -165 -80c-90 0 -141 43 -141 117c0 78 57 131 141 149c42 9 54 11 202 31c9 35 12 49 12 62c0 54 -31 83 -103 83c-74 0 -116 -33 -129 -102l-62 4c25 99 91 148 199 148
c96 0 156 -44 156 -115c0 -21 -1 -36 -12 -81l-40 -168c-6 -26 -8 -39 -8 -47c0 -17 8 -25 24 -25c9 0 14 1 29 7zM361 166l16 74c-205 -21 -269 -52 -269 -127c0 -49 33 -77 93 -77c92 0 144 54 160 130zM407 614c0 -43 -35 -78 -79 -78c-43 0 -78 35 -78 78s35 78 77 78
c45 0 80 -34 80 -78zM370 614c0 24 -18 44 -41 44s-41 -19 -41 -44c0 -24 18 -43 41 -43s41 19 41 43z" />
    <glyph glyph-name="ccedilla" unicode="&#xe7;" horiz-adv-x="491" 
d="M491 340l-58 -14c-12 77 -49 111 -121 111c-105 0 -185 -108 -185 -248c0 -94 52 -154 134 -154c68 0 121 42 149 115l59 -8c-39 -98 -114 -154 -207 -154h-9l-23 -33c36 -2 57 -24 57 -60c0 -50 -48 -88 -112 -88c-13 0 -22 1 -37 3l13 25c9 -1 15 -1 20 -1
c31 0 51 16 51 42s-16 38 -55 40l54 74c-102 18 -154 83 -154 194c0 169 108 299 250 299c99 0 165 -54 174 -143z" />
    <glyph glyph-name="eacute" unicode="&#xe9;" horiz-adv-x="501" 
d="M411 144l56 -12c-35 -88 -114 -144 -215 -144c-115 0 -185 75 -185 198c0 167 109 297 250 297c107 0 169 -69 169 -189c0 -19 0 -29 -4 -59h-350c-3 -24 -4 -35 -4 -49c0 -91 51 -149 131 -149c68 0 125 40 152 107zM141 281h284c2 15 2 21 2 32c0 76 -43 124 -113 124
c-81 0 -142 -56 -173 -156zM459 683l-143 -150h-46l93 150h96z" />
    <glyph glyph-name="egrave" unicode="&#xe8;" horiz-adv-x="501" 
d="M411 144l56 -12c-35 -88 -114 -144 -215 -144c-115 0 -185 75 -185 198c0 167 109 297 250 297c107 0 169 -69 169 -189c0 -19 0 -29 -4 -59h-350c-3 -24 -4 -35 -4 -49c0 -91 51 -149 131 -149c68 0 125 40 152 107zM141 281h284c2 15 2 21 2 32c0 76 -43 124 -113 124
c-81 0 -142 -56 -173 -156zM362 531h-44l-99 152h91z" />
    <glyph glyph-name="ecircumflex" unicode="&#xea;" horiz-adv-x="501" 
d="M411 144l56 -12c-35 -88 -114 -144 -215 -144c-115 0 -185 75 -185 198c0 167 109 297 250 297c107 0 169 -69 169 -189c0 -19 0 -29 -4 -59h-350c-3 -24 -4 -35 -4 -49c0 -91 51 -149 131 -149c68 0 125 40 152 107zM141 281h284c2 15 2 21 2 32c0 76 -43 124 -113 124
c-81 0 -142 -56 -173 -156zM449 531h-45l-65 85l-104 -85h-51l147 151h42z" />
    <glyph glyph-name="edieresis" unicode="&#xeb;" horiz-adv-x="501" 
d="M411 144l56 -12c-35 -88 -114 -144 -215 -144c-115 0 -185 75 -185 198c0 167 109 297 250 297c107 0 169 -69 169 -189c0 -19 0 -29 -4 -59h-350c-3 -24 -4 -35 -4 -49c0 -91 51 -149 131 -149c68 0 125 40 152 107zM141 281h284c2 15 2 21 2 32c0 76 -43 124 -113 124
c-81 0 -142 -56 -173 -156zM472 674l-22 -92h-63l22 92h63zM288 674l-21 -92h-64l23 92h62z" />
    <glyph glyph-name="iacute" unicode="&#xed;" horiz-adv-x="203" 
d="M210 471l-106 -471h-59l106 471h59zM328 683l-143 -150h-46l93 150h96z" />
    <glyph glyph-name="igrave" unicode="&#xec;" horiz-adv-x="203" 
d="M210 471l-106 -471h-59l106 471h59zM234 531h-44l-99 152h91z" />
    <glyph glyph-name="icircumflex" unicode="&#xee;" horiz-adv-x="203" 
d="M210 471l-106 -471h-59l106 471h59zM311 531h-45l-65 85l-104 -85h-51l147 151h42z" />
    <glyph glyph-name="idieresis" unicode="&#xef;" horiz-adv-x="203" 
d="M210 471l-106 -471h-59l106 471h59zM343 674l-22 -92h-63l22 92h63zM159 674l-21 -92h-64l23 92h62z" />
    <glyph glyph-name="ntilde" unicode="&#xf1;" horiz-adv-x="515" 
d="M152 471h58l-16 -70c49 57 99 82 164 82c81 0 132 -46 132 -119c0 -24 -3 -50 -13 -92l-62 -272h-58l62 271c7 29 13 56 13 76c0 54 -25 85 -89 85c-56 0 -102 -24 -138 -72c-23 -31 -32 -54 -49 -128l-53 -232h-58zM465 662l33 -18c-28 -59 -60 -89 -95 -89
c-18 0 -31 3 -73 30c-28 18 -44 25 -55 25c-19 0 -34 -15 -52 -52l-34 16c31 66 59 94 97 94c22 0 37 -8 76 -33c28 -17 38 -22 50 -22c19 0 33 13 53 49z" />
    <glyph glyph-name="oacute" unicode="&#xf3;" horiz-adv-x="521" 
d="M506 278c0 -161 -112 -290 -251 -290c-114 0 -188 81 -188 205c0 164 110 290 253 290c63 0 186 -30 186 -205zM445 288c0 117 -70 147 -127 147c-109 0 -191 -104 -191 -243c0 -95 50 -154 131 -154c103 0 187 109 187 250zM469 683l-143 -150h-46l93 150h96z" />
    <glyph glyph-name="ograve" unicode="&#xf2;" horiz-adv-x="521" 
d="M506 278c0 -161 -112 -290 -251 -290c-114 0 -188 81 -188 205c0 164 110 290 253 290c63 0 186 -30 186 -205zM445 288c0 117 -70 147 -127 147c-109 0 -191 -104 -191 -243c0 -95 50 -154 131 -154c103 0 187 109 187 250zM370 531h-44l-99 152h91z" />
    <glyph glyph-name="ocircumflex" unicode="&#xf4;" horiz-adv-x="521" 
d="M506 278c0 -161 -112 -290 -251 -290c-114 0 -188 81 -188 205c0 164 110 290 253 290c63 0 186 -30 186 -205zM445 288c0 117 -70 147 -127 147c-109 0 -191 -104 -191 -243c0 -95 50 -154 131 -154c103 0 187 109 187 250zM452 531h-45l-65 85l-104 -85h-51l147 151h42
z" />
    <glyph glyph-name="odieresis" unicode="&#xf6;" horiz-adv-x="521" 
d="M506 278c0 -161 -112 -290 -251 -290c-114 0 -188 81 -188 205c0 164 110 290 253 290c63 0 186 -30 186 -205zM445 288c0 117 -70 147 -127 147c-109 0 -191 -104 -191 -243c0 -95 50 -154 131 -154c103 0 187 109 187 250zM472 674l-22 -92h-63l22 92h63zM288 674
l-21 -92h-64l23 92h62z" />
    <glyph glyph-name="otilde" unicode="&#xf5;" horiz-adv-x="521" 
d="M506 278c0 -161 -112 -290 -251 -290c-114 0 -188 81 -188 205c0 164 110 290 253 290c63 0 186 -30 186 -205zM445 288c0 117 -70 147 -127 147c-109 0 -191 -104 -191 -243c0 -95 50 -154 131 -154c103 0 187 109 187 250zM456 662l33 -18c-28 -59 -60 -89 -95 -89
c-18 0 -31 3 -73 30c-28 18 -44 25 -55 25c-19 0 -34 -15 -52 -52l-34 16c31 66 59 94 97 94c22 0 37 -8 76 -33c28 -17 38 -22 50 -22c19 0 33 13 53 49z" />
    <glyph glyph-name="uacute" unicode="&#xfa;" horiz-adv-x="515" 
d="M519 471l-107 -471h-58l16 69c-49 -56 -99 -81 -164 -81c-81 0 -132 46 -132 119c0 24 3 49 13 92l62 272h58l-62 -271c-9 -38 -13 -59 -13 -86c0 -48 32 -75 89 -75c56 0 103 24 138 71c24 32 32 54 49 129l53 232h58zM489 683l-143 -150h-46l93 150h96z" />
    <glyph glyph-name="ugrave" unicode="&#xf9;" horiz-adv-x="515" 
d="M519 471l-107 -471h-58l16 69c-49 -56 -99 -81 -164 -81c-81 0 -132 46 -132 119c0 24 3 49 13 92l62 272h58l-62 -271c-9 -38 -13 -59 -13 -86c0 -48 32 -75 89 -75c56 0 103 24 138 71c24 32 32 54 49 129l53 232h58zM379 531h-44l-99 152h91z" />
    <glyph glyph-name="ucircumflex" unicode="&#xfb;" horiz-adv-x="515" 
d="M519 471l-107 -471h-58l16 69c-49 -56 -99 -81 -164 -81c-81 0 -132 46 -132 119c0 24 3 49 13 92l62 272h58l-62 -271c-9 -38 -13 -59 -13 -86c0 -48 32 -75 89 -75c56 0 103 24 138 71c24 32 32 54 49 129l53 232h58zM464 531h-45l-65 85l-104 -85h-51l147 151h42z" />
    <glyph glyph-name="udieresis" unicode="&#xfc;" horiz-adv-x="515" 
d="M519 471l-107 -471h-58l16 69c-49 -56 -99 -81 -164 -81c-81 0 -132 46 -132 119c0 24 3 49 13 92l62 272h58l-62 -271c-9 -38 -13 -59 -13 -86c0 -48 32 -75 89 -75c56 0 103 24 138 71c24 32 32 54 49 129l53 232h58zM494 674l-22 -92h-63l22 92h63zM310 674l-21 -92
h-64l23 92h62z" />
    <glyph glyph-name="dagger" unicode="&#x2020;" horiz-adv-x="460" 
d="M503 498l-12 -53h-162l-102 -445h-60l103 445h-159l12 53h159l47 208h60l-48 -208h162z" />
    <glyph glyph-name="degree" unicode="&#xb0;" horiz-adv-x="354" 
d="M428 601c0 -81 -66 -147 -148 -147c-81 0 -146 65 -146 147c0 80 66 147 146 147c82 0 148 -65 148 -147zM369 601c0 50 -39 91 -88 91c-50 0 -90 -41 -90 -92c0 -50 40 -90 90 -90c49 0 88 40 88 91z" />
    <glyph glyph-name="cent" unicode="&#xa2;" horiz-adv-x="488" 
d="M500 340l-57 -14c-10 64 -36 89 -82 100l-90 -388h6c65 0 115 40 142 112l60 -8c-42 -102 -113 -154 -212 -154h-7l-24 -102h-50l25 108c-89 21 -138 90 -138 192c0 158 96 298 252 298l21 95h50l-23 -100c77 -15 118 -65 127 -139zM223 47l89 384
c-102 -6 -175 -107 -175 -241c0 -78 26 -121 86 -143z" />
    <glyph glyph-name="sterling" unicode="&#xa3;" horiz-adv-x="614" 
d="M708 540l-67 -13c0 86 -41 129 -120 129c-33 0 -74 -12 -97 -33c-38 -36 -51 -70 -72 -185l-16 -90h173l-10 -51h-171c-19 -89 -37 -142 -57 -179l20 -11c84 -46 107 -53 133 -53c44 0 80 39 93 103l64 -7c-24 -101 -82 -156 -164 -156c-29 0 -66 9 -89 22l-90 52
c-39 -49 -85 -74 -136 -74c-62 0 -104 34 -104 86c0 55 49 94 118 94c35 0 61 -7 104 -27c16 38 24 66 37 123l6 27h-146l11 51h143l22 138c23 143 109 224 246 224c104 0 163 -58 169 -170zM192 101c-34 17 -57 24 -83 24c-35 0 -58 -17 -58 -42c0 -22 19 -37 46 -37
c32 0 62 17 95 55z" />
    <glyph glyph-name="section" unicode="&#xa7;" horiz-adv-x="560" 
d="M537 655l-13 -63c-66 49 -117 71 -170 71c-62 0 -101 -35 -101 -90c0 -39 23 -73 60 -90l121 -57c76 -36 112 -83 112 -147c0 -79 -46 -133 -132 -156c35 -30 51 -65 51 -111c0 -94 -70 -158 -174 -158c-69 0 -133 22 -220 81l-9 6l17 67c74 -64 149 -97 217 -97
s108 32 108 88c0 50 -24 78 -104 119l-95 49c-60 31 -93 77 -93 140c0 73 47 128 130 154c-37 29 -54 62 -54 106c0 86 71 151 167 151c64 0 129 -23 182 -63zM396 376l-104 50c-71 -5 -118 -47 -118 -105c0 -48 24 -79 91 -114l93 -49c76 1 127 45 127 109
c0 45 -27 79 -89 109z" />
    <glyph glyph-name="bullet" unicode="&#x2022;" horiz-adv-x="333" 
d="M349 464l-48 -218h-220l49 218h219z" />
    <glyph glyph-name="paragraph" unicode="&#xb6;" horiz-adv-x="643" 
d="M645 706l-10 -44h-33l-191 -829h-46l191 829h-157l-191 -829h-46l115 498c-75 23 -119 84 -119 166c0 65 31 127 83 165c46 34 89 44 183 44h221z" />
    <glyph glyph-name="germandbls" unicode="&#xdf;" horiz-adv-x="517" 
d="M108 0h-58l111 493c33 148 89 222 213 222c102 0 163 -55 163 -146c0 -94 -60 -159 -163 -162c76 -10 122 -68 122 -154c0 -74 -27 -155 -67 -198c-41 -44 -98 -64 -181 -64c-33 0 -47 1 -81 9l13 55c39 -9 60 -12 87 -12c49 0 85 12 110 36c36 35 60 100 60 164
c0 110 -59 123 -153 134l14 63h11c116 0 171 43 171 129c0 61 -41 97 -108 97c-78 0 -124 -48 -148 -155z" />
    <glyph glyph-name="registered" unicode="&#xae;" horiz-adv-x="833" 
d="M820 358c0 -203 -156 -361 -356 -361s-356 156 -356 356c0 201 156 356 357 356c196 0 355 -157 355 -351zM787 352c0 183 -140 325 -321 325c-182 0 -326 -143 -326 -325c0 -179 144 -323 324 -323c179 0 323 144 323 323zM374 578h147c93 0 105 -79 105 -111
c0 -74 -41 -123 -111 -135l75 -204h-55l-72 198h-83l-37 -198h-53zM419 529l-29 -156h81c64 0 100 29 100 89c0 21 -5 67 -72 67h-80z" />
    <glyph glyph-name="copyright" unicode="&#xa9;" horiz-adv-x="833" 
d="M655 449l-50 -10c-18 70 -58 102 -124 102c-95 0 -159 -87 -159 -216c0 -97 50 -158 131 -158c63 0 114 41 141 116l51 -5c-31 -99 -106 -158 -200 -158c-105 0 -179 86 -179 207c0 148 96 259 222 259c82 0 145 -37 167 -137zM820 358c0 -203 -156 -361 -356 -361
s-356 156 -356 356c0 201 156 356 357 356c196 0 355 -157 355 -351zM787 352c0 183 -140 325 -321 325c-182 0 -326 -143 -326 -325c0 -179 144 -323 324 -323c179 0 323 144 323 323z" />
    <glyph glyph-name="trademark" unicode="&#x2122;" horiz-adv-x="685" 
d="M723 706l-77 -332h-41l68 285l-156 -285h-36l-24 284l-63 -284h-41l77 332h60l23 -276l149 276h61zM399 706l-9 -39h-105l-68 -293h-43l67 293h-108l9 39h257z" />
    <glyph glyph-name="acute" unicode="&#xb4;" horiz-adv-x="225" 
d="M207 683l-143 -150h-46l93 150h96z" />
    <glyph glyph-name="dieresis" unicode="&#xa8;" horiz-adv-x="225" 
d="M247 674l-22 -92h-63l22 92h63zM63 674l-21 -92h-64l23 92h62z" />
    <glyph glyph-name="notequal" unicode="&#x2260;" horiz-adv-x="724" 
d="M691 408l-14 -57h-205l-84 -120h262l-13 -56h-290l-130 -181h-63l130 181h-173l14 56h200l84 120h-257l14 57h287l121 167h63l-121 -167h175z" />
    <glyph glyph-name="AE" unicode="&#xc6;" horiz-adv-x="1009" 
d="M1017 706l-13 -58h-333l-58 -256h321l-13 -58h-322l-65 -276h412l-13 -58h-475l53 233h-245l-202 -233h-84l618 706h419zM609 634l-291 -344h206z" />
    <glyph glyph-name="Oslash" unicode="&#xd8;" horiz-adv-x="757" 
d="M719 717l39 -35l-59 -65l7 -10c41 -56 58 -136 58 -207c0 -235 -159 -413 -370 -413c-82 0 -144 21 -198 68l-60 -66l-40 31l65 73c-42 54 -65 130 -65 214c0 204 124 413 369 413c80 0 149 -24 198 -67zM206 143l418 468c-40 34 -98 54 -161 54
c-173 0 -299 -152 -299 -360c0 -60 12 -108 42 -162zM658 570l-421 -469c56 -45 95 -59 158 -59c173 0 303 155 303 364c0 67 -14 125 -40 164z" />
    <glyph glyph-name="infinity" unicode="&#x221e;" horiz-adv-x="724" 
d="M390 243c-68 -76 -130 -128 -202 -128c-71 0 -120 56 -120 138c0 115 90 215 193 215c66 0 110 -38 152 -130l27 28c73 76 123 101 176 101c71 0 120 -55 120 -136c0 -117 -89 -216 -194 -216c-60 0 -96 16 -152 128zM503 355l-67 -65c43 -89 70 -121 121 -121
c64 0 119 71 119 153c0 55 -26 89 -68 89c-31 0 -70 -22 -105 -56zM367 292c-35 83 -72 121 -118 121c-64 0 -119 -72 -119 -155c0 -55 26 -89 69 -89c62 0 134 84 168 123z" />
    <glyph glyph-name="plusminus" unicode="&#xb1;" horiz-adv-x="724" 
d="M724 408l-14 -59h-238l-53 -230h-60l53 230h-238l14 59h238l53 228h60l-53 -228h238zM644 58l-14 -58h-536l14 58h536z" />
    <glyph glyph-name="lessequal" unicode="&#x2264;" horiz-adv-x="724" 
d="M734 633l-16 -68l-455 -200l363 -198l-14 -61l-413 228l15 68zM601 58l-14 -58h-466l14 58h466z" />
    <glyph glyph-name="greaterequal" unicode="&#x2265;" horiz-adv-x="724" 
d="M633 402l-16 -68l-518 -228l16 68l454 198l-363 199l14 62zM554 58l-13 -58h-466l13 58h466z" />
    <glyph glyph-name="yen" unicode="&#xa5;" horiz-adv-x="573" 
d="M677 706l-256 -309h130l-13 -54h-161l-31 -36l-5 -17h184l-12 -55h-184l-54 -235h-62l53 235h-186l12 54h186l6 24l-8 29h-172l13 54h144l-89 310h69l87 -338l268 338h81z" />
    <glyph glyph-name="mu" unicode="&#xb5;" horiz-adv-x="515" 
d="M462 471h56l-86 -383c-2 -8 -3 -16 -3 -22c0 -17 8 -25 24 -25c9 0 14 1 29 7l-11 -50c-19 -5 -25 -6 -35 -6c-42 0 -62 18 -62 54c0 7 0 14 3 27c-48 -61 -92 -85 -155 -85c-50 0 -82 17 -102 56l-57 -260h-59l155 687h57l-58 -253c-10 -43 -14 -71 -14 -91
c0 -56 34 -90 88 -90c48 0 94 27 127 71c18 24 29 41 49 129z" />
    <glyph glyph-name="partialdiff" unicode="&#x2202;" horiz-adv-x="531" 
d="M247 646v55c34 10 61 14 94 14c122 0 181 -70 181 -212c0 -85 -21 -209 -52 -304c-45 -139 -122 -209 -228 -209s-176 70 -176 174c0 144 103 256 235 256c56 0 101 -18 145 -58c8 41 13 99 13 136c0 107 -43 161 -129 161c-23 0 -42 -3 -83 -13zM432 302
c-40 42 -86 64 -138 64c-93 0 -164 -88 -164 -204c0 -72 44 -118 114 -118c103 0 161 104 188 258z" />
    <glyph glyph-name="summation" unicode="&#x2211;" horiz-adv-x="585" 
d="M698 706l-14 -59h-455l225 -347l-378 -364h444l-13 -58h-530l13 59l380 366l-216 342l14 61h530z" />
    <glyph glyph-name="product" unicode="&#x220f;" horiz-adv-x="706" 
d="M765 706l-191 -828h-67l178 768h-422l-177 -768h-66l191 828h554z" />
    <glyph glyph-name="pi" unicode="&#x3c0;" horiz-adv-x="607" 
d="M605 471l-13 -55h-54l-69 -301c-3 -14 -7 -28 -7 -37c0 -23 13 -31 50 -31h11l-11 -47h-14c-68 0 -98 20 -98 64c0 13 4 30 9 54l68 298h-223l-96 -416h-60l96 416h-54l13 55h452z" />
    <glyph glyph-name="integral" unicode="&#x222b;" horiz-adv-x="328" 
d="M408 708l-12 -62c-21 15 -31 19 -47 19c-46 0 -51 -30 -63 -90l-120 -619c-21 -108 -52 -133 -129 -133c-20 0 -32 2 -53 10l13 63c17 -12 27 -16 44 -16c30 0 48 9 61 78l129 661c13 67 55 101 119 101c21 0 36 -3 58 -12z" />
    <glyph glyph-name="ordfeminine" unicode="&#xaa;" horiz-adv-x="357" 
d="M416 406l-10 -42c-10 -3 -15 -4 -26 -4c-30 0 -48 15 -48 40v11c-24 -36 -70 -57 -123 -57c-71 0 -112 32 -112 89c0 79 67 108 156 119l109 14l3 12c4 16 5 29 5 41c0 33 -27 52 -74 52c-58 0 -87 -22 -97 -74l-55 5c20 74 71 111 155 111c74 0 121 -34 121 -87
c0 -17 -5 -36 -10 -60l-31 -139c-2 -7 -2 -13 -2 -17c0 -12 6 -18 19 -18c6 0 10 1 20 4zM342 483l13 54c-157 -15 -204 -35 -204 -87c0 -35 24 -54 71 -54c55 0 105 26 120 87z" />
    <glyph glyph-name="ordmasculine" unicode="&#xba;" horiz-adv-x="395" 
d="M458 569c0 -120 -86 -217 -194 -217c-88 0 -145 60 -145 154c0 122 85 217 195 217c88 0 144 -56 144 -154zM406 573c0 66 -37 109 -95 109c-80 0 -140 -75 -140 -176c0 -69 37 -112 96 -112c77 0 139 80 139 179z" />
    <glyph glyph-name="Omega" unicode="&#x2126;" horiz-adv-x="733" 
d="M671 59l-13 -59h-262l13 62c148 36 257 226 257 393c0 136 -81 215 -204 215c-163 0 -291 -166 -291 -378c0 -106 30 -198 134 -230l-13 -62h-262l13 59h162c-67 51 -102 132 -102 239c0 243 155 425 362 425c165 0 269 -103 269 -266c0 -157 -86 -323 -229 -398h166z
" />
    <glyph glyph-name="ae" unicode="&#xe6;" horiz-adv-x="802" 
d="M710 144l58 -12c-31 -87 -114 -144 -214 -144c-80 0 -132 32 -165 102c-49 -65 -120 -102 -211 -102c-83 0 -134 45 -134 118c0 83 55 128 141 150c51 13 95 19 202 30c5 23 12 46 12 69c0 51 -36 78 -103 78c-75 0 -112 -30 -127 -104l-64 5c25 99 91 148 199 148
c77 0 124 -24 148 -77c41 52 96 78 166 78c108 0 170 -69 170 -189c0 -19 -1 -29 -5 -59h-348c-3 -25 -4 -36 -4 -50c0 -90 51 -148 131 -148c69 0 121 37 148 107zM444 281h281c2 16 3 22 3 32c0 76 -43 122 -113 122c-80 0 -141 -56 -171 -154zM365 181l12 59
c-205 -21 -269 -52 -269 -127c0 -48 34 -77 90 -77c82 0 149 57 167 145z" />
    <glyph glyph-name="oslash" unicode="&#xf8;" horiz-adv-x="521" 
d="M505 482l31 -28l-58 -58c17 -29 28 -76 28 -122c0 -158 -112 -286 -251 -286c-54 0 -94 15 -132 51l-50 -49l-29 28l53 54c-20 34 -30 74 -30 122c0 162 111 289 253 289c39 0 97 -9 134 -53zM140 115l274 275c-25 31 -55 45 -96 45c-109 0 -192 -103 -192 -241
c0 -32 4 -53 14 -79zM435 352l-273 -273c22 -26 56 -41 95 -41c104 0 189 109 189 241c0 29 -3 53 -11 73z" />
    <glyph glyph-name="questiondown" unicode="&#xbf;" horiz-adv-x="509" 
d="M378 706l-26 -112h-74l25 112h75zM410 222l67 -11c-13 -137 -98 -218 -228 -218c-121 0 -205 78 -205 188c0 112 74 188 192 198l34 151h60l-49 -208h-16c-96 0 -156 -54 -156 -141c0 -79 56 -134 137 -134c97 0 160 67 164 175z" />
    <glyph glyph-name="exclamdown" unicode="&#xa1;" horiz-adv-x="253" 
d="M273 706l-25 -110h-78l26 110h77zM110 0h-68l54 233l73 247h36l-44 -259z" />
    <glyph glyph-name="logicalnot" unicode="&#xac;" horiz-adv-x="724" 
d="M678 323l-74 -323h-61l61 264h-506l14 59h566z" />
    <glyph glyph-name="radical" unicode="&#x221a;" horiz-adv-x="725" 
d="M761 706l-474 -891h-62l-71 308l-76 -26l-13 52l138 51l65 -299l424 805h69z" />
    <glyph glyph-name="florin" unicode="&#x192;" horiz-adv-x="341" 
d="M400 707l-14 -57l-7 2c-12 3 -18 4 -25 4c-33 0 -42 -13 -58 -78l-26 -108h85l-11 -45h-84l-139 -569c-15 -61 -53 -97 -103 -97c-17 0 -31 3 -51 12l15 55c17 -6 25 -8 35 -8c21 0 35 7 50 69l131 538h-73l11 45h72l34 136c20 80 50 111 106 111c14 0 25 -2 52 -10z" />
    <glyph glyph-name="approxequal" unicode="&#x2248;" horiz-adv-x="724" 
d="M638 267l40 -41c-79 -71 -129 -95 -185 -95c-32 0 -60 10 -114 37l-32 16c-40 20 -68 29 -96 29c-42 0 -62 -13 -118 -64l-12 -11l-40 42c69 69 113 95 180 95c33 0 62 -9 108 -32l56 -28c42 -21 54 -24 74 -24c43 0 74 17 139 76zM680 444l40 -41
c-79 -71 -129 -95 -185 -95c-32 0 -60 10 -114 37l-32 16c-40 20 -68 29 -96 29c-42 0 -62 -13 -118 -64l-12 -11l-40 42c69 69 113 95 180 95c33 0 62 -9 108 -32l56 -28c42 -21 54 -24 74 -24c43 0 74 17 139 76z" />
    <glyph glyph-name="Delta" unicode="&#x2206;" horiz-adv-x="603" 
d="M596 0h-613l402 706h60zM515 62l-113 553l-310 -553h423z" />
    <glyph glyph-name="guillemotleft" unicode="&#xab;" horiz-adv-x="383" 
d="M401 446l-17 -77l-102 -72l68 -75l-15 -66l-106 121l12 54zM241 446l-17 -77l-101 -72l67 -75l-15 -66l-106 121l12 54z" />
    <glyph glyph-name="guillemotright" unicode="&#xbb;" horiz-adv-x="383" 
d="M390 325l-12 -54l-160 -115l17 77l101 72l-67 75l15 66zM230 325l-12 -54l-160 -115l17 77l102 72l-68 75l15 66z" />
    <glyph glyph-name="ellipsis" unicode="&#x2026;" horiz-adv-x="1000" 
d="M858 82l-18 -82h-83l19 82h82zM524 82l-19 -82h-82l18 82h83zM191 82l-19 -82h-83l19 82h83z" />
    <glyph glyph-name="uni00A0" unicode="&#xa0;" horiz-adv-x="258" 
 />
    <glyph glyph-name="Agrave" unicode="&#xc0;" horiz-adv-x="634" 
d="M571 0h-68l-29 227h-276l-125 -227h-74l398 706h80zM468 288l-42 360l-194 -360h236zM493 768h-51l-82 127h86z" />
    <glyph glyph-name="Atilde" unicode="&#xc3;" horiz-adv-x="634" 
d="M571 0h-68l-29 227h-276l-125 -227h-74l398 706h80zM468 288l-42 360l-194 -360h236zM565 880l35 -19c-29 -60 -64 -92 -101 -92c-21 0 -40 9 -78 32c-30 18 -47 26 -59 26c-20 0 -36 -16 -55 -54l-36 16c32 69 63 98 103 98c20 0 39 -9 81 -34c30 -18 41 -23 53 -23
c21 0 36 13 57 50z" />
    <glyph glyph-name="Otilde" unicode="&#xd5;" horiz-adv-x="757" 
d="M764 393c0 -102 -43 -214 -103 -285c-68 -79 -160 -121 -267 -121c-182 0 -298 124 -298 320c0 240 155 413 369 413c202 0 299 -136 299 -327zM698 402c0 165 -87 263 -233 263c-88 0 -160 -34 -215 -102c-52 -65 -86 -166 -86 -258c0 -157 94 -264 232 -264
c170 0 302 158 302 361zM617 880l35 -19c-29 -60 -64 -92 -101 -92c-21 0 -40 9 -78 32c-30 18 -47 26 -59 26c-20 0 -36 -16 -55 -54l-36 16c32 69 63 98 103 98c20 0 39 -9 81 -34c30 -18 41 -23 53 -23c21 0 36 13 57 50z" />
    <glyph glyph-name="OE" unicode="&#x152;" horiz-adv-x="1042" 
d="M1082 706l-9 -58h-323l-57 -256h312l-16 -58h-311l-59 -276h384l-16 -58h-446l26 103c-59 -75 -128 -112 -218 -112c-149 0 -252 124 -252 302c0 238 156 422 359 422c106 0 177 -44 213 -151l32 142h381zM626 460c0 125 -66 199 -177 199c-161 0 -282 -155 -282 -361
c0 -154 75 -251 194 -251c166 0 265 190 265 413z" />
    <glyph glyph-name="oe" unicode="&#x153;" horiz-adv-x="854" 
d="M835 235h-348c-3 -24 -4 -35 -4 -48c0 -91 51 -149 131 -149c69 0 121 37 148 106l58 -12c-37 -89 -114 -144 -215 -144c-85 0 -143 39 -166 111c-52 -76 -112 -111 -189 -111c-112 0 -183 80 -183 205c0 165 107 290 247 290c78 0 136 -40 162 -112
c47 75 112 112 194 112c108 0 170 -69 170 -189c0 -19 -1 -29 -5 -59zM496 281h281c2 16 2 22 2 32c0 77 -42 123 -112 123c-80 0 -142 -56 -171 -155zM434 284c0 90 -46 151 -122 151c-105 0 -184 -104 -184 -242c0 -97 48 -156 126 -156c100 0 180 109 180 247z" />
    <glyph glyph-name="endash" unicode="&#x2013;" horiz-adv-x="565" 
d="M571 323l-14 -60h-489l14 60h489z" />
    <glyph glyph-name="emdash" unicode="&#x2014;" horiz-adv-x="843" 
d="M849 324l-14 -60h-767l14 60h767z" />
    <glyph glyph-name="quotedblleft" unicode="&#x201c;" horiz-adv-x="331" 
d="M386 552l-24 -110h-87c19 108 41 178 93 264h46c-25 -41 -55 -104 -63 -154h35zM239 552l-24 -110h-87c18 104 42 179 93 264h46c-26 -43 -53 -103 -63 -154h35z" />
    <glyph glyph-name="quotedblright" unicode="&#x201d;" horiz-adv-x="331" 
d="M331 706h87c-18 -109 -46 -188 -93 -264h-45c25 42 53 104 63 154h-36zM185 706h86c-19 -115 -46 -186 -93 -264h-45c25 41 54 106 63 154h-36z" />
    <glyph glyph-name="quoteleft" unicode="&#x2018;" horiz-adv-x="184" 
d="M215 442h-87c18 104 42 179 93 264h46c-26 -43 -54 -103 -63 -154h35z" />
    <glyph glyph-name="quoteright" unicode="&#x2019;" horiz-adv-x="184" 
d="M185 706h86c-19 -115 -45 -186 -93 -264h-45c25 41 54 106 63 154h-36z" />
    <glyph glyph-name="divide" unicode="&#xf7;" horiz-adv-x="724" 
d="M488 477l-19 -82h-83l19 82h83zM689 322l-14 -58h-565l13 58h566zM422 188l-18 -82h-83l18 82h83z" />
    <glyph glyph-name="lozenge" unicode="&#x25ca;" horiz-adv-x="724" 
d="M614 353l-261 -353h-63l-93 353l262 353h63zM552 360l-74 286l-215 -296l71 -288z" />
    <glyph glyph-name="ydieresis" unicode="&#xff;" horiz-adv-x="422" 
d="M485 471l-343 -594c-55 -95 -84 -108 -146 -108c-18 0 -32 1 -49 5l12 52c19 -4 31 -6 43 -6c40 0 53 15 94 89l52 93l-49 469h62l35 -400l221 400h68zM454 674l-22 -92h-63l22 92h63zM270 674l-21 -92h-64l23 92h62z" />
    <glyph glyph-name="Ydieresis" unicode="&#x178;" horiz-adv-x="562" 
d="M685 706l-346 -399l-71 -307h-65l72 315l-120 391h69l97 -335l281 335h83zM565 876l-21 -97h-68l21 97h68zM383 876l-22 -97h-68l22 97h68z" />
    <glyph glyph-name="fraction" unicode="&#x2044;" horiz-adv-x="125" 
d="M349 724l-437 -763l-39 22l436 764z" />
    <glyph glyph-name="Euro" unicode="&#x20ac;" horiz-adv-x="654" 
d="M713 600l-33 -61c-46 80 -99 113 -189 113c-132 0 -223 -80 -257 -214h395l-29 -53h-376c-4 -15 -8 -42 -9 -60h353l-31 -52h-323c5 -143 88 -232 218 -232c70 0 134 19 203 85l-22 -89c-70 -43 -119 -53 -185 -53c-169 0 -272 106 -280 288h-82l32 54h51c1 18 4 36 8 59
h-72l30 52h51c45 175 163 271 331 271c97 0 157 -28 216 -108z" />
    <glyph glyph-name="guilsinglleft" unicode="&#x2039;" horiz-adv-x="224" 
d="M241 446l-17 -77l-101 -72l67 -75l-15 -66l-106 121l12 54z" />
    <glyph glyph-name="guilsinglright" unicode="&#x203a;" horiz-adv-x="224" 
d="M230 325l-12 -54l-160 -115l17 77l102 72l-68 75l15 66z" />
    <glyph glyph-name="daggerdbl" unicode="&#x2021;" horiz-adv-x="460" 
d="M506 513l-14 -54h-165l-38 -172h165l-13 -53h-165l-53 -234h-58l54 234h-158l13 53h159l38 172h-159l13 54h159l44 193h57l-45 -193h166z" />
    <glyph glyph-name="periodcentered" unicode="&#xb7;" horiz-adv-x="187" 
d="M172 344l-23 -108h-81l24 108h80z" />
    <glyph glyph-name="quotesinglbase" unicode="&#x201a;" horiz-adv-x="184" 
d="M58 110h87c-19 -109 -44 -182 -93 -264h-46c25 40 54 105 63 154h-35z" />
    <glyph glyph-name="quotedblbase" unicode="&#x201e;" horiz-adv-x="331" 
d="M202 110h86c-20 -114 -42 -178 -92 -264h-46c25 43 52 104 63 154h-36zM55 110h87c-21 -113 -44 -181 -93 -264h-46c24 41 54 105 63 154h-36z" />
    <glyph glyph-name="perthousand" unicode="&#x2030;" horiz-adv-x="1251" 
d="M722 724l-437 -763l-38 22l435 764zM101 428c0 162 86 287 196 287c80 0 129 -63 129 -180c0 -159 -88 -277 -191 -277c-85 0 -134 62 -134 170zM152 434c0 -84 29 -129 84 -129c118 0 141 186 141 237c0 85 -29 128 -86 128c-76 0 -139 -106 -139 -236zM538 158
c0 162 86 287 196 287c80 0 129 -63 129 -180c0 -160 -88 -277 -191 -277c-85 0 -134 62 -134 170zM589 164c0 -84 29 -129 85 -129c98 0 140 143 140 236c0 86 -29 129 -87 129c-76 0 -138 -106 -138 -236zM914 158c0 162 86 287 196 287c80 0 129 -63 129 -180
c0 -160 -88 -277 -191 -277c-85 0 -134 62 -134 170zM965 164c0 -84 29 -129 85 -129c98 0 140 143 140 236c0 86 -29 129 -87 129c-76 0 -138 -106 -138 -236z" />
    <glyph glyph-name="Acircumflex" unicode="&#xc2;" horiz-adv-x="634" 
d="M571 0h-68l-29 227h-276l-125 -227h-74l398 706h80zM468 288l-42 360l-194 -360h236zM563 772h-49l-62 63l-101 -63h-52l149 125h42z" />
    <glyph glyph-name="Ecircumflex" unicode="&#xca;" horiz-adv-x="590" 
d="M640 706l-13 -58h-363l-60 -256h333l-14 -58h-332l-64 -276h413l-13 -58h-477l162 706h428zM561 772h-49l-62 63l-101 -63h-52l149 125h42z" />
    <glyph glyph-name="Aacute" unicode="&#xc1;" horiz-adv-x="634" 
d="M571 0h-68l-29 227h-276l-125 -227h-74l398 706h80zM468 288l-42 360l-194 -360h236zM580 895l-152 -127h-50l99 127h103z" />
    <glyph glyph-name="Edieresis" unicode="&#xcb;" horiz-adv-x="590" 
d="M640 706l-13 -58h-363l-60 -256h333l-14 -58h-332l-64 -276h413l-13 -58h-477l162 706h428zM587 876l-21 -97h-68l21 97h68zM405 876l-22 -97h-68l22 97h68z" />
    <glyph glyph-name="Egrave" unicode="&#xc8;" horiz-adv-x="590" 
d="M640 706l-13 -58h-363l-60 -256h333l-14 -58h-332l-64 -276h413l-13 -58h-477l162 706h428zM478 768h-51l-82 127h86z" />
    <glyph glyph-name="Iacute" unicode="&#xcd;" horiz-adv-x="233" 
d="M277 706l-163 -706h-64l162 706h65zM406 895l-152 -127h-50l99 127h103z" />
    <glyph glyph-name="Icircumflex" unicode="&#xce;" horiz-adv-x="233" 
d="M277 706l-163 -706h-64l162 706h65zM384 772h-49l-62 63l-101 -63h-52l149 125h42z" />
    <glyph glyph-name="Idieresis" unicode="&#xcf;" horiz-adv-x="233" 
d="M277 706l-163 -706h-64l162 706h65zM404 876l-21 -97h-68l21 97h68zM222 876l-22 -97h-68l22 97h68z" />
    <glyph glyph-name="Igrave" unicode="&#xcc;" horiz-adv-x="233" 
d="M277 706l-163 -706h-64l162 706h65zM306 768h-51l-82 127h86z" />
    <glyph glyph-name="Oacute" unicode="&#xd3;" horiz-adv-x="757" 
d="M764 393c0 -102 -43 -214 -103 -285c-68 -79 -160 -121 -267 -121c-182 0 -298 124 -298 320c0 240 155 413 369 413c202 0 299 -136 299 -327zM698 402c0 165 -87 263 -233 263c-88 0 -160 -34 -215 -102c-52 -65 -86 -166 -86 -258c0 -157 94 -264 232 -264
c170 0 302 158 302 361zM620 895l-152 -127h-50l99 127h103z" />
    <glyph glyph-name="Ocircumflex" unicode="&#xd4;" horiz-adv-x="757" 
d="M764 393c0 -102 -43 -214 -103 -285c-68 -79 -160 -121 -267 -121c-182 0 -298 124 -298 320c0 240 155 413 369 413c202 0 299 -136 299 -327zM698 402c0 165 -87 263 -233 263c-88 0 -160 -34 -215 -102c-52 -65 -86 -166 -86 -258c0 -157 94 -264 232 -264
c170 0 302 158 302 361zM598 772h-49l-62 63l-101 -63h-52l149 125h42z" />
    <glyph glyph-name="Ograve" unicode="&#xd2;" horiz-adv-x="757" 
d="M764 393c0 -102 -43 -214 -103 -285c-68 -79 -160 -121 -267 -121c-182 0 -298 124 -298 320c0 240 155 413 369 413c202 0 299 -136 299 -327zM698 402c0 165 -87 263 -233 263c-88 0 -160 -34 -215 -102c-52 -65 -86 -166 -86 -258c0 -157 94 -264 232 -264
c170 0 302 158 302 361zM523 768h-51l-82 127h86z" />
    <glyph glyph-name="Uacute" unicode="&#xda;" horiz-adv-x="687" 
d="M224 706h66l-85 -376c-10 -44 -19 -111 -19 -140c0 -96 60 -149 166 -149c155 0 194 117 222 243l95 422h65l-103 -457c-28 -124 -84 -262 -284 -262c-143 0 -226 75 -226 204c0 39 7 89 23 159zM628 895l-152 -127h-50l99 127h103z" />
    <glyph glyph-name="Ucircumflex" unicode="&#xdb;" horiz-adv-x="687" 
d="M224 706h66l-85 -376c-10 -44 -19 -111 -19 -140c0 -96 60 -149 166 -149c155 0 194 117 222 243l95 422h65l-103 -457c-28 -124 -84 -262 -284 -262c-143 0 -226 75 -226 204c0 39 7 89 23 159zM614 772h-49l-62 63l-101 -63h-52l149 125h42z" />
    <glyph glyph-name="Ugrave" unicode="&#xd9;" horiz-adv-x="687" 
d="M224 706h66l-85 -376c-10 -44 -19 -111 -19 -140c0 -96 60 -149 166 -149c155 0 194 117 222 243l95 422h65l-103 -457c-28 -124 -84 -262 -284 -262c-143 0 -226 75 -226 204c0 39 7 89 23 159zM526 768h-51l-82 127h86z" />
    <glyph glyph-name="dotlessi" unicode="&#x131;" horiz-adv-x="203" 
d="M210 471l-106 -471h-59l106 471h59z" />
    <glyph glyph-name="circumflex" unicode="&#x2c6;" horiz-adv-x="225" 
d="M245 531h-45l-65 85l-104 -85h-51l147 151h42z" />
    <glyph glyph-name="tilde" unicode="&#x2dc;" horiz-adv-x="225" 
d="M234 662l33 -18c-28 -59 -60 -89 -95 -89c-18 0 -31 3 -73 30c-28 18 -44 25 -55 25c-19 0 -34 -15 -52 -52l-34 16c31 66 59 94 97 94c22 0 37 -8 76 -33c28 -17 38 -22 50 -22c19 0 33 13 53 49z" />
    <glyph glyph-name="macron" unicode="&#xaf;" horiz-adv-x="225" 
d="M266 628l-14 -61h-293l14 61h293z" />
    <glyph glyph-name="breve" unicode="&#x2d8;" horiz-adv-x="225" 
d="M219 687l37 -21c-38 -81 -91 -123 -158 -123c-73 0 -119 49 -129 138l44 11c6 -57 40 -90 92 -90c47 0 86 29 114 85z" />
    <glyph glyph-name="dotaccent" unicode="&#x2d9;" horiz-adv-x="225" 
d="M156 674l-22 -92h-65l22 92h65z" />
    <glyph glyph-name="ring" unicode="&#x2da;" horiz-adv-x="225" 
d="M191 614c0 -43 -35 -78 -79 -78c-43 0 -78 35 -78 78s35 78 77 78c45 0 80 -34 80 -78zM154 614c0 24 -18 44 -41 44s-41 -19 -41 -44c0 -24 18 -43 41 -43s41 19 41 43z" />
    <glyph glyph-name="cedilla" unicode="&#xb8;" horiz-adv-x="225" 
d="M128 0h33l-32 -45c37 -2 58 -24 58 -60c0 -50 -48 -88 -113 -88c-13 0 -19 1 -36 3l13 25c9 -1 15 -1 20 -1c31 0 51 16 51 42s-17 38 -55 40z" />
    <glyph glyph-name="hungarumlaut" unicode="&#x2dd;" horiz-adv-x="225" 
d="M145 683l-143 -150h-38l99 150h82zM261 683l-143 -150h-38l99 150h82z" />
    <glyph glyph-name="ogonek" unicode="&#x2db;" horiz-adv-x="225" 
d="M132 0h54c-65 -38 -97 -72 -97 -104c0 -26 19 -44 49 -44c21 0 40 6 65 20l-18 -50c-28 -11 -44 -14 -67 -14c-57 0 -96 30 -96 74c0 52 35 78 110 118z" />
    <glyph glyph-name="caron" unicode="&#x2c7;" horiz-adv-x="225" 
d="M245 682l-147 -151h-42l-76 151h46l65 -85l104 85h50z" />
    <glyph glyph-name="currency" unicode="&#xa4;" horiz-adv-x="667" 
d="M683 558l-76 -66c25 -37 37 -77 37 -123c0 -73 -28 -146 -79 -201l64 -75l-44 -39l-64 75c-52 -32 -102 -46 -161 -46c-66 0 -113 17 -159 59l-79 -67l-38 45l78 66c-29 50 -39 83 -39 131c0 72 24 139 79 195l-64 76l45 40l62 -74c48 27 98 44 157 44
c66 0 124 -21 166 -58l77 65zM582 361c0 107 -73 179 -182 179c-122 0 -213 -94 -213 -220c0 -105 73 -180 173 -180c125 0 222 96 222 221z" />
    <glyph glyph-name="afii61289" unicode="&#x2113;" horiz-adv-x="462" 
d="M417 118l30 -34c-67 -69 -117 -96 -183 -96c-88 0 -144 52 -144 132c0 21 2 37 10 73c-37 -23 -44 -25 -66 -37l-16 39c45 26 61 32 96 54l65 259c24 95 37 128 71 163c28 29 67 45 110 45c71 0 112 -39 112 -105c0 -50 -23 -116 -64 -172c-60 -81 -111 -123 -237 -209
l-6 -26c-9 -38 -13 -53 -13 -68c0 -58 32 -96 90 -96c47 0 81 19 145 78zM216 290c72 56 100 82 139 126c57 66 88 132 88 185c0 40 -23 66 -58 66c-75 0 -93 -72 -114 -157z" />
    <glyph glyph-name="estimated" unicode="&#x212e;" horiz-adv-x="851" 
d="M858 340h-694c-2 -19 -3 -25 -3 -42c0 -165 101 -257 283 -257c137 0 240 56 339 183l44 -35c-41 -49 -57 -65 -88 -91c-87 -74 -189 -110 -309 -110c-204 0 -335 118 -335 302c0 240 191 426 436 426c205 0 329 -121 329 -323c0 -14 0 -26 -2 -53zM173 394h624
c-1 68 -6 94 -26 135c-41 86 -129 134 -243 134c-172 0 -311 -105 -355 -269z" />
    <glyph glyph-name="acute.cap" horiz-adv-x="225" 
d="M213 895l-152 -127h-50l99 127h103z" />
    <glyph glyph-name="breve.cap" horiz-adv-x="225" 
d="M219 903l38 -19c-37 -67 -92 -102 -158 -102c-73 0 -120 41 -130 115l43 9c11 -46 42 -71 94 -71c46 0 81 20 113 68z" />
    <glyph glyph-name="caron.cap" horiz-adv-x="225" 
d="M245 897l-149 -125h-42l-73 125h49l62 -63l101 63h52z" />
    <glyph glyph-name="cedilla.cap" horiz-adv-x="225" 
d="M138 -11h13l-22 -31c41 -4 62 -26 62 -64c0 -53 -50 -91 -121 -91c-13 0 -19 1 -36 3l12 26c7 -1 13 -1 17 -1c41 0 63 16 63 45c0 26 -20 40 -61 43l52 70h21z" />
    <glyph glyph-name="circumflex.cap" horiz-adv-x="225" 
d="M245 772h-49l-62 63l-101 -63h-52l149 125h42z" />
    <glyph glyph-name="commaaccent" horiz-adv-x="225" 
d="M92 -41h63l-7 -32c-11 -52 -22 -86 -46 -131h-33c13 22 26 57 34 90h-27z" />
    <glyph glyph-name="dieresis.cap" horiz-adv-x="225" 
d="M249 876l-21 -97h-68l21 97h68zM67 876l-22 -97h-68l22 97h68z" />
    <glyph glyph-name="dotaccent.cap" horiz-adv-x="225" 
d="M158 876l-23 -97h-68l23 97h68z" />
    <glyph glyph-name="grave.cap" horiz-adv-x="225" 
d="M179 768h-51l-82 127h86z" />
    <glyph glyph-name="hungarumlaut.cap" horiz-adv-x="225" 
d="M136 896l-152 -127h-42l104 127h90zM283 896l-152 -127h-42l104 127h90z" />
    <glyph glyph-name="macron.cap" horiz-adv-x="225" 
d="M266 845l-14 -61h-293l14 61h293z" />
    <glyph glyph-name="ring.cap" horiz-adv-x="225" 
d="M191 828c0 -43 -35 -78 -79 -78c-43 0 -78 35 -78 78s35 78 77 78c45 0 80 -34 80 -78zM154 828c0 24 -18 44 -41 44s-41 -19 -41 -44c0 -24 18 -43 41 -43s41 19 41 43z" />
    <glyph glyph-name="tilde.cap" horiz-adv-x="225" 
d="M242 880l35 -19c-29 -60 -64 -92 -101 -92c-21 0 -40 9 -78 32c-30 18 -47 26 -59 26c-20 0 -36 -16 -55 -54l-36 16c32 69 63 98 103 98c20 0 39 -9 81 -34c30 -18 41 -23 53 -23c21 0 36 13 57 50z" />
    <glyph glyph-name="caron.alt" horiz-adv-x="225" 
d="M98 706h61c-15 -79 -29 -125 -63 -177h-30c24 36 39 88 42 103h-27z" />
    <glyph glyph-name="Eth" unicode="&#xd0;" horiz-adv-x="684" 
d="M212 706h157c69 0 142 -4 191 -26c83 -38 131 -129 131 -247c0 -129 -48 -257 -128 -339c-76 -78 -175 -94 -288 -94h-225l80 352h-87l12 54h87zM263 648l-56 -242h252l-12 -54h-253l-67 -294h147c89 0 151 0 218 53c79 62 134 196 134 325c0 58 -14 108 -40 144
c-36 49 -91 68 -199 68h-124z" />
    <glyph glyph-name="eth" unicode="&#xf0;" horiz-adv-x="521" 
d="M475 662l15 -38l-81 -25c64 -82 98 -200 98 -303c0 -178 -106 -308 -252 -308c-114 0 -188 81 -188 204c0 164 108 293 247 293c54 0 90 -18 120 -57c-14 57 -44 117 -76 155l-151 -48l-16 37l140 43c-28 32 -48 53 -81 78l43 26c36 -30 65 -57 88 -86zM127 194
c0 -97 50 -156 131 -156c103 0 187 111 187 249c0 103 -55 152 -132 152c-106 0 -186 -105 -186 -245z" />
    <glyph glyph-name="Lslash" unicode="&#x141;" horiz-adv-x="529" 
d="M478 58l-13 -58h-415l63 272l-81 -51l17 72l80 51l83 362h64l-75 -322l225 144l-18 -72l-224 -144l-58 -254h352z" />
    <glyph glyph-name="lslash" unicode="&#x142;" horiz-adv-x="203" 
d="M276 465l-16 -65l-78 -52l-78 -348h-59l71 309l-81 -53l16 66l79 52l75 332h59l-67 -293z" />
    <glyph glyph-name="Scaron" unicode="&#x160;" horiz-adv-x="617" 
d="M651 529l-63 -15c-13 98 -73 152 -181 152c-106 0 -176 -51 -176 -130c0 -67 49 -90 119 -120l81 -34c108 -45 153 -94 153 -180c0 -128 -106 -215 -262 -215c-165 0 -262 81 -262 233v9l69 14c-1 -10 -1 -16 -1 -22c0 -114 71 -179 197 -179c119 0 194 59 194 152
c0 65 -47 96 -118 126l-81 34c-90 38 -156 78 -156 171c0 119 96 195 248 195c138 0 219 -60 239 -191zM607 897l-149 -125h-42l-73 125h49l62 -63l101 63h52z" />
    <glyph glyph-name="scaron" unicode="&#x161;" horiz-adv-x="452" 
d="M442 341l-53 -10c1 9 1 13 1 19c0 56 -37 87 -107 87c-71 0 -116 -32 -116 -82c0 -26 14 -45 43 -57l106 -44c62 -26 101 -57 101 -122c0 -87 -74 -144 -187 -144c-111 0 -173 51 -173 143c0 12 0 17 3 31l59 12c-3 -16 -4 -23 -4 -36c0 -67 42 -103 120 -103
c76 0 126 36 126 91c0 38 -17 55 -85 83l-78 32c-60 25 -88 60 -88 110c0 78 73 132 179 132c98 0 154 -46 154 -124c0 -6 0 -10 -1 -18zM464 682l-147 -151h-42l-76 151h46l65 -85l104 85h50z" />
    <glyph glyph-name="Yacute" unicode="&#xdd;" horiz-adv-x="562" 
d="M685 706l-346 -399l-71 -307h-65l72 315l-120 391h69l97 -335l281 335h83zM569 895l-152 -127h-50l99 127h103z" />
    <glyph glyph-name="yacute" unicode="&#xfd;" horiz-adv-x="422" 
d="M485 471l-343 -594c-55 -95 -84 -108 -146 -108c-18 0 -32 1 -49 5l12 52c19 -4 31 -6 43 -6c40 0 53 15 94 89l52 93l-49 469h62l35 -400l221 400h68zM436 683l-143 -150h-46l93 150h96z" />
    <glyph glyph-name="Thorn" unicode="&#xde;" horiz-adv-x="607" 
d="M212 706h65l-34 -148h160c70 0 109 -7 138 -22c49 -26 79 -84 79 -152c0 -70 -29 -130 -82 -170c-48 -36 -113 -52 -216 -52h-171l-37 -162h-64zM229 500l-65 -280h154c112 0 161 14 198 57c24 28 37 66 37 110c0 81 -40 113 -131 113h-193z" />
    <glyph glyph-name="thorn" unicode="&#xfe;" horiz-adv-x="520" 
d="M205 706h58l-71 -316c37 59 91 90 159 90c98 0 153 -69 153 -191c0 -169 -101 -298 -231 -298c-79 0 -127 35 -147 108l-70 -315h-59zM442 289c0 88 -40 140 -108 140c-112 0 -183 -127 -183 -252c0 -86 44 -137 118 -137c99 0 173 107 173 249z" />
    <glyph glyph-name="Zcaron" unicode="&#x17d;" horiz-adv-x="567" 
d="M625 706l-15 -60l-511 -588h441l-13 -58h-517l15 67l507 581h-381l14 58h460zM559 897l-149 -125h-42l-73 125h49l62 -63l101 63h52z" />
    <glyph glyph-name="zcaron" unicode="&#x17e;" horiz-adv-x="433" 
d="M457 471l-14 -55l-358 -363h306l-13 -53h-383l12 52l363 366h-267l11 53h343zM452 682l-147 -151h-42l-76 151h46l65 -85l104 85h50z" />
    <glyph glyph-name="onehalf" unicode="&#xbd;" horiz-adv-x="875" 
d="M793 0h-284l10 48c179 93 276 202 276 281c0 47 -30 77 -75 77c-58 0 -93 -42 -93 -114c0 -9 0 -13 1 -22l-48 10c0 100 51 168 144 168c74 0 120 -44 120 -113c0 -62 -33 -124 -96 -179c-53 -47 -102 -83 -154 -112c0 0 196 2 208 2zM694 723l-438 -763l-38 22l435 764z
M346 708l-105 -443h-49l82 340c-22 -12 -56 -20 -92 -20c-13 0 -19 1 -32 2l10 42c10 -1 15 -1 22 -1c65 0 99 23 116 80h48z" />
    <glyph glyph-name="onequarter" unicode="&#xbc;" horiz-adv-x="875" 
d="M836 162l-10 -42h-66l-27 -120h-49l28 121h-206l9 40l267 281h49l-61 -280h66zM718 723l-437 -763l-38 22l435 764zM772 374l-195 -209h144zM349 708l-105 -443h-49l82 340c-22 -12 -56 -20 -92 -20c-13 0 -19 1 -32 2l10 42c10 -1 15 -1 22 -1c65 0 99 23 116 80h48z
" />
    <glyph glyph-name="onesuperior" unicode="&#xb9;" 
d="M362 708l-105 -443h-49l82 340c-22 -12 -56 -20 -92 -20c-13 0 -19 1 -32 2l10 42c10 -1 15 -1 22 -1c65 0 99 23 116 80h48z" />
    <glyph glyph-name="threequarters" unicode="&#xbe;" horiz-adv-x="875" 
d="M844 162l-10 -42h-66l-27 -120h-49l28 121h-206l9 40l267 281h49l-61 -280h66zM738 724l-437 -763l-38 22l435 764zM780 374l-195 -209h144zM204 472l11 45c10 -1 17 -1 24 -1c88 0 136 32 136 88c0 43 -32 72 -79 72c-52 0 -87 -36 -96 -100l-51 7c19 90 66 133 148 133
c75 0 124 -44 124 -111c0 -60 -44 -105 -111 -111c57 -11 89 -46 89 -102c0 -79 -64 -134 -157 -134c-90 0 -143 50 -149 141l52 5c3 -69 38 -106 103 -106c60 0 103 38 103 90c0 30 -15 58 -39 69c-23 11 -33 13 -108 15z" />
    <glyph glyph-name="threesuperior" unicode="&#xb3;" 
d="M204 472l11 45c10 -1 17 -1 24 -1c88 0 136 32 136 88c0 43 -32 72 -79 72c-52 0 -87 -36 -96 -100l-51 7c19 90 66 133 148 133c75 0 124 -44 124 -111c0 -60 -44 -105 -111 -111c57 -11 89 -46 89 -102c0 -79 -64 -134 -157 -134c-90 0 -143 50 -149 141l52 5
c3 -69 38 -106 103 -106c60 0 103 38 103 90c0 30 -15 58 -39 69c-23 11 -33 13 -108 15z" />
    <glyph glyph-name="twosuperior" unicode="&#xb2;" 
d="M376 311l-9 -46h-284l10 48c179 93 276 202 276 281c0 47 -30 77 -75 77c-58 0 -93 -42 -93 -114c0 -9 0 -13 1 -22l-48 10c0 100 51 168 144 168c74 0 120 -44 120 -113c0 -62 -33 -124 -96 -179c-53 -47 -102 -83 -154 -112c0 0 196 2 208 2z" />
    <glyph glyph-name="brokenbar" unicode="&#xa6;" horiz-adv-x="229" 
d="M294 778l-91 -395h-62l92 395h61zM173 253l-92 -396h-61l91 396h62z" />
    <glyph glyph-name="minus" unicode="&#x2212;" horiz-adv-x="724" 
d="M689 323l-14 -59h-565l13 59h566z" />
    <glyph glyph-name="multiply" unicode="&#xd7;" horiz-adv-x="724" 
d="M655 466l-217 -177l150 -188l-47 -39l-150 189l-214 -174l-36 44l214 175l-150 188l48 38l150 -188l216 176z" />
    <glyph glyph-name="uni00AD" unicode="&#xad;" horiz-adv-x="341" 
d="M347 324l-14 -60h-265l14 60h265z" />
    <glyph glyph-name="uni03BC" unicode="&#x3bc;" horiz-adv-x="515" 
d="M462 471h56l-86 -383c-2 -8 -3 -16 -3 -22c0 -17 8 -25 24 -25c9 0 14 1 29 7l-11 -50c-19 -5 -25 -6 -35 -6c-42 0 -62 18 -62 54c0 7 0 14 3 27c-48 -61 -92 -85 -155 -85c-50 0 -82 17 -102 56l-57 -260h-59l155 687h57l-58 -253c-10 -43 -14 -71 -14 -91
c0 -56 34 -90 88 -90c48 0 94 27 127 71c18 24 29 41 49 129z" />
    <glyph glyph-name="uni03A9" unicode="&#x3a9;" horiz-adv-x="733" 
d="M671 59l-13 -59h-262l13 62c148 36 257 226 257 393c0 136 -81 215 -204 215c-163 0 -291 -166 -291 -378c0 -106 30 -198 134 -230l-13 -62h-262l13 59h162c-67 51 -102 132 -102 239c0 243 155 425 362 425c165 0 269 -103 269 -266c0 -157 -86 -323 -229 -398h166z
" />
    <glyph glyph-name="uni0394" unicode="&#x394;" horiz-adv-x="603" 
d="M596 0h-613l402 706h60zM515 62l-113 553l-310 -553h423z" />
    <glyph glyph-name="uni2215" unicode="&#x2215;" horiz-adv-x="125" 
d="M349 724l-437 -763l-39 22l436 764z" />
    <glyph glyph-name="uni2219" unicode="&#x2219;" horiz-adv-x="187" 
d="M172 344l-23 -108h-81l24 108h80z" />
    <glyph glyph-name="uni02C9" unicode="&#x2c9;" horiz-adv-x="225" 
d="M266 628l-14 -61h-293l14 61h293z" />
    <glyph glyph-name="uni037E" unicode="&#x37e;" horiz-adv-x="258" 
d="M258 491l-22 -109h-80l23 109h79zM99 111h79c-17 -113 -41 -184 -85 -264h-42c25 42 47 104 58 154h-35z" />
    <glyph glyph-name="zero.tab" horiz-adv-x="583" 
d="M596 460c0 -187 -91 -472 -312 -472c-133 0 -209 95 -209 261c0 185 92 467 312 467c136 0 209 -89 209 -256zM530 457c0 135 -52 207 -149 207c-167 0 -243 -275 -243 -425c0 -129 54 -197 153 -197c175 0 239 276 239 415z" />
    <glyph glyph-name="one.tab" horiz-adv-x="583" 
d="M474 705l-163 -705h-66l130 559c-27 -18 -81 -30 -133 -30c-19 0 -27 0 -46 3l12 55c14 -1 22 -1 32 -1c95 0 144 35 168 119h66z" />
    <glyph glyph-name="two.tab" horiz-adv-x="583" 
d="M497 0h-457l17 76c24 11 31 15 66 35c95 54 124 73 179 116c142 110 211 210 211 306c0 80 -51 130 -132 130c-97 0 -160 -75 -160 -188c0 -15 0 -23 3 -41l-67 13c0 185 95 270 231 270c115 0 191 -70 191 -178c0 -95 -45 -185 -164 -291c-60 -53 -94 -79 -172 -128
c-53 -33 -67 -41 -110 -63c0 0 350 5 377 5z" />
    <glyph glyph-name="three.tab" horiz-adv-x="583" 
d="M220 494l-65 10c29 145 105 212 236 212c118 0 194 -68 194 -174c0 -96 -70 -168 -175 -179c91 -17 138 -72 138 -161c0 -126 -102 -214 -247 -214s-229 80 -236 225l67 8c4 -125 75 -178 172 -178c106 0 181 66 181 160c0 150 -176 129 -242 134l13 55
c18 -2 26 -2 39 -2c148 0 225 51 225 149c0 76 -54 125 -138 125c-88 0 -155 -70 -162 -170z" />
    <glyph glyph-name="four.tab" horiz-adv-x="583" 
d="M563 706l-99 -453h95l-12 -56h-94l-45 -197h-63l45 197h-310l12 58l415 451h56zM489 612l-322 -358h233z" />
    <glyph glyph-name="five.tab" horiz-adv-x="583" 
d="M609 706l-14 -58h-317l-67 -244c38 49 94 80 166 80c115 0 194 -84 194 -206c0 -113 -71 -290 -274 -290c-132 0 -224 81 -233 212l66 12c5 -104 73 -169 173 -169c117 0 205 98 205 229c0 94 -58 161 -140 161c-72 0 -120 -36 -161 -102l-72 12l98 363h376z" />
    <glyph glyph-name="six.tab" horiz-adv-x="583" 
d="M616 548l-63 -14c-11 87 -54 131 -130 131c-125 0 -220 -128 -248 -332c35 91 115 142 205 142c116 0 192 -83 192 -209c0 -158 -106 -278 -245 -278c-136 0 -217 105 -217 279c0 89 22 190 60 269c57 119 147 182 260 182c107 0 169 -57 186 -170zM509 264
c0 99 -52 158 -139 158c-105 0 -190 -95 -190 -212c0 -99 61 -168 149 -168c112 0 180 110 180 222z" />
    <glyph glyph-name="seven.tab" horiz-adv-x="583" 
d="M176 706h433c-9 -78 -23 -116 -87 -221c-104 -170 -179 -318 -223 -485h-76c17 66 48 142 81 214c36 79 65 130 130 235c70 114 85 142 98 200h-306l-31 -131h-62z" />
    <glyph glyph-name="eight.tab" horiz-adv-x="583" 
d="M226 377c-46 30 -68 74 -68 132c0 124 89 209 221 209c121 0 194 -66 194 -174c0 -83 -49 -149 -129 -175c61 -28 93 -81 93 -154c0 -130 -104 -226 -245 -226c-130 0 -215 73 -215 186c0 96 58 175 149 202zM219 513c0 -74 48 -117 130 -117c93 0 162 57 162 140
c0 86 -51 131 -134 131c-96 0 -158 -60 -158 -154zM475 206c0 89 -59 142 -157 142c-101 0 -176 -71 -176 -168c0 -86 59 -141 150 -141c105 0 183 71 183 167z" />
    <glyph glyph-name="nine.tab" horiz-adv-x="583" 
d="M77 158l63 14c6 -75 49 -131 130 -131c125 0 218 125 248 333c-32 -90 -115 -143 -204 -143c-117 0 -193 83 -193 209c0 159 106 278 247 278c135 0 216 -102 216 -275c0 -91 -23 -193 -60 -272c-57 -120 -147 -183 -261 -183c-105 0 -174 58 -186 170zM513 496
c0 100 -61 168 -149 168c-135 0 -180 -145 -180 -221c0 -100 52 -159 140 -159c104 0 189 95 189 212z" />
    <glyph glyph-name="Amacron" unicode="&#x100;" horiz-adv-x="634" 
d="M571 0h-68l-29 227h-276l-125 -227h-74l398 706h80zM468 288l-42 360l-194 -360h236zM606 845l-14 -61h-293l14 61h293z" />
    <glyph glyph-name="amacron" unicode="&#x101;" horiz-adv-x="492" 
d="M453 53l-11 -50c-13 -4 -18 -5 -30 -5c-41 0 -63 22 -63 60c0 4 0 7 1 12c-36 -54 -90 -80 -165 -80c-90 0 -141 43 -141 117c0 78 57 131 141 149c42 9 54 11 202 31c9 35 12 49 12 62c0 54 -31 83 -103 83c-74 0 -116 -33 -129 -102l-62 4c25 99 91 148 199 148
c96 0 156 -44 156 -115c0 -21 -1 -36 -12 -81l-40 -168c-6 -26 -8 -39 -8 -47c0 -17 8 -25 24 -25c9 0 14 1 29 7zM361 166l16 74c-205 -21 -269 -52 -269 -127c0 -49 33 -77 93 -77c92 0 144 54 160 130zM487 628l-14 -61h-293l14 61h293z" />
    <glyph glyph-name="Abreve" unicode="&#x102;" horiz-adv-x="634" 
d="M571 0h-68l-29 227h-276l-125 -227h-74l398 706h80zM468 288l-42 360l-194 -360h236zM574 903l38 -19c-37 -67 -92 -102 -158 -102c-73 0 -120 41 -130 115l43 9c11 -46 42 -71 94 -71c46 0 81 20 113 68z" />
    <glyph glyph-name="abreve" unicode="&#x103;" horiz-adv-x="492" 
d="M453 53l-11 -50c-13 -4 -18 -5 -30 -5c-41 0 -63 22 -63 60c0 4 0 7 1 12c-36 -54 -90 -80 -165 -80c-90 0 -141 43 -141 117c0 78 57 131 141 149c42 9 54 11 202 31c9 35 12 49 12 62c0 54 -31 83 -103 83c-74 0 -116 -33 -129 -102l-62 4c25 99 91 148 199 148
c96 0 156 -44 156 -115c0 -21 -1 -36 -12 -81l-40 -168c-6 -26 -8 -39 -8 -47c0 -17 8 -25 24 -25c9 0 14 1 29 7zM361 166l16 74c-205 -21 -269 -52 -269 -127c0 -49 33 -77 93 -77c92 0 144 54 160 130zM455 687l37 -21c-38 -81 -91 -123 -158 -123
c-73 0 -119 49 -129 138l44 11c6 -57 40 -90 92 -90c47 0 86 29 114 85z" />
    <glyph glyph-name="Aogonek" unicode="&#x104;" horiz-adv-x="634" 
d="M503 3l-29 224h-276l-125 -227h-74l398 706h80l94 -706c-25 0 -117 -50 -117 -104c0 -26 19 -44 49 -44c21 0 40 6 65 20l-18 -50c-28 -11 -44 -14 -67 -14c-57 0 -96 30 -96 74c0 51 36 80 116 121zM468 288l-42 360l-194 -360h236z" />
    <glyph glyph-name="aogonek" unicode="&#x105;" horiz-adv-x="492" 
d="M453 53l-11 -50c-13 -4 -19 -5 -30 -5c-57 -12 -113 -64 -113 -102c0 -26 19 -44 49 -44c21 0 40 6 65 20l-18 -50c-28 -11 -44 -14 -67 -14c-57 0 -96 30 -96 74c0 50 34 81 134 131c-11 11 -17 26 -17 45c0 4 0 7 1 12c-36 -54 -90 -80 -165 -80
c-90 0 -141 43 -141 117c0 78 57 131 141 149c42 9 54 11 202 31c9 35 12 49 12 62c0 54 -31 83 -103 83c-74 0 -116 -33 -129 -102l-62 4c25 99 91 148 199 148c96 0 156 -44 156 -115c0 -21 -1 -36 -12 -81l-40 -168c-6 -26 -8 -39 -8 -47c0 -17 8 -25 24 -25
c9 0 14 1 29 7zM377 240c-205 -21 -269 -52 -269 -127c0 -49 33 -77 93 -77c92 0 144 54 160 130z" />
    <glyph glyph-name="Cacute" unicode="&#x106;" horiz-adv-x="745" 
d="M752 505l-66 -13c-29 116 -111 175 -226 175c-209 0 -294 -203 -294 -356c0 -168 90 -271 237 -271c121 0 218 75 263 203l66 -9c-52 -153 -180 -247 -337 -247c-186 0 -298 120 -298 320c0 217 130 413 374 413c145 0 246 -70 281 -215zM631 895l-152 -127h-50l99 127
h103z" />
    <glyph glyph-name="cacute" unicode="&#x107;" horiz-adv-x="491" 
d="M491 340l-58 -14c-12 77 -49 111 -121 111c-105 0 -185 -108 -185 -248c0 -94 52 -154 134 -154c68 0 121 42 149 115l59 -8c-41 -101 -114 -154 -213 -154c-119 0 -189 73 -189 196c0 169 108 299 250 299c99 0 165 -54 174 -143zM462 683l-143 -150h-46l93 150h96z" />
    <glyph glyph-name="Ccircumflex" unicode="&#x108;" horiz-adv-x="745" 
d="M752 505l-66 -13c-29 116 -111 175 -226 175c-209 0 -294 -203 -294 -356c0 -168 90 -271 237 -271c121 0 218 75 263 203l66 -9c-52 -153 -180 -247 -337 -247c-186 0 -298 120 -298 320c0 217 130 413 374 413c145 0 246 -70 281 -215zM624 772h-49l-62 63l-101 -63
h-52l149 125h42z" />
    <glyph glyph-name="ccircumflex" unicode="&#x109;" horiz-adv-x="491" 
d="M491 340l-58 -14c-12 77 -49 111 -121 111c-105 0 -185 -108 -185 -248c0 -94 52 -154 134 -154c68 0 121 42 149 115l59 -8c-41 -101 -114 -154 -213 -154c-119 0 -189 73 -189 196c0 169 108 299 250 299c99 0 165 -54 174 -143zM460 531h-45l-65 85l-104 -85h-51
l147 151h42z" />
    <glyph glyph-name="Cdotaccent" unicode="&#x10a;" horiz-adv-x="745" 
d="M752 505l-66 -13c-29 116 -111 175 -226 175c-209 0 -294 -203 -294 -356c0 -168 90 -271 237 -271c121 0 218 75 263 203l66 -9c-52 -153 -180 -247 -337 -247c-186 0 -298 120 -298 320c0 217 130 413 374 413c145 0 246 -70 281 -215zM555 876l-23 -97h-68l23 97h68z
" />
    <glyph glyph-name="cdotaccent" unicode="&#x10b;" horiz-adv-x="491" 
d="M491 340l-58 -14c-12 77 -49 111 -121 111c-105 0 -185 -108 -185 -248c0 -94 52 -154 134 -154c68 0 121 42 149 115l59 -8c-41 -101 -114 -154 -213 -154c-119 0 -189 73 -189 196c0 169 108 299 250 299c99 0 165 -54 174 -143zM401 674l-22 -92h-65l22 92h65z" />
    <glyph glyph-name="Ccaron" unicode="&#x10c;" horiz-adv-x="745" 
d="M752 505l-66 -13c-29 116 -111 175 -226 175c-209 0 -294 -203 -294 -356c0 -168 90 -271 237 -271c121 0 218 75 263 203l66 -9c-52 -153 -180 -247 -337 -247c-186 0 -298 120 -298 320c0 217 130 413 374 413c145 0 246 -70 281 -215zM652 897l-149 -125h-42l-73 125
h49l62 -63l101 63h52z" />
    <glyph glyph-name="ccaron" unicode="&#x10d;" horiz-adv-x="491" 
d="M491 340l-58 -14c-12 77 -49 111 -121 111c-105 0 -185 -108 -185 -248c0 -94 52 -154 134 -154c68 0 121 42 149 115l59 -8c-41 -101 -114 -154 -213 -154c-119 0 -189 73 -189 196c0 169 108 299 250 299c99 0 165 -54 174 -143zM496 682l-147 -151h-42l-76 151h46
l65 -85l104 85h50z" />
    <glyph glyph-name="Dcaron" unicode="&#x10e;" horiz-adv-x="684" 
d="M212 706h157c69 0 142 -3 191 -27c85 -41 131 -128 131 -246c0 -129 -48 -257 -128 -339c-68 -69 -146 -94 -288 -94h-225zM263 648l-136 -590h147c113 0 161 8 218 53c79 62 134 196 134 325c0 58 -14 108 -40 144c-36 49 -91 68 -199 68h-124zM586 897l-149 -125h-42
l-73 125h49l62 -63l101 63h52z" />
    <glyph glyph-name="dcaron" unicode="&#x10f;" horiz-adv-x="517" 
d="M578 706l-159 -706h-59l17 78c-35 -56 -91 -87 -158 -87c-98 0 -152 68 -152 191c0 168 100 298 231 298c78 0 126 -36 146 -108l75 334h59zM419 293c0 87 -43 138 -117 138c-99 0 -174 -107 -174 -249c0 -89 40 -140 108 -140c110 0 183 126 183 251zM614 706h61
c-15 -79 -29 -125 -63 -177h-30c24 36 39 88 42 103h-27z" />
    <glyph glyph-name="Dcroat" unicode="&#x110;" horiz-adv-x="684" 
d="M212 706h157c69 0 142 -4 191 -26c83 -38 131 -129 131 -247c0 -129 -48 -257 -128 -339c-76 -78 -175 -94 -288 -94h-225l80 352h-87l12 54h87zM263 648l-56 -242h252l-12 -54h-253l-67 -294h147c89 0 151 0 218 53c79 62 134 196 134 325c0 58 -14 108 -40 144
c-36 49 -91 68 -199 68h-124z" />
    <glyph glyph-name="dcroat" unicode="&#x111;" horiz-adv-x="517" 
d="M624 567h-77l-128 -567h-59l17 78c-35 -56 -91 -87 -158 -87c-98 0 -152 68 -152 191c0 168 100 298 231 298c78 0 126 -36 146 -108l44 195h-174l11 48h173l21 91h59l-21 -91h78zM419 293c0 87 -43 138 -117 138c-99 0 -174 -107 -174 -249c0 -89 40 -140 108 -140
c109 0 183 126 183 251z" />
    <glyph glyph-name="Emacron" unicode="&#x112;" horiz-adv-x="590" 
d="M640 706l-13 -58h-363l-60 -256h333l-14 -58h-332l-64 -276h413l-13 -58h-477l162 706h428zM591 845l-14 -61h-293l14 61h293z" />
    <glyph glyph-name="emacron" unicode="&#x113;" horiz-adv-x="501" 
d="M411 144l56 -12c-35 -88 -114 -144 -215 -144c-115 0 -185 75 -185 198c0 167 109 297 250 297c107 0 169 -69 169 -189c0 -19 0 -29 -4 -59h-350c-3 -24 -4 -35 -4 -49c0 -91 51 -149 131 -149c68 0 125 40 152 107zM141 281h284c2 15 2 21 2 32c0 76 -43 124 -113 124
c-81 0 -142 -56 -173 -156zM501 628l-14 -61h-293l14 61h293z" />
    <glyph glyph-name="Ebreve" unicode="&#x114;" horiz-adv-x="590" 
d="M640 706l-13 -58h-363l-60 -256h333l-14 -58h-332l-64 -276h413l-13 -58h-477l162 706h428zM554 903l38 -19c-37 -67 -92 -102 -158 -102c-73 0 -120 41 -130 115l43 9c11 -46 42 -71 94 -71c46 0 81 20 113 68z" />
    <glyph glyph-name="ebreve" unicode="&#x115;" horiz-adv-x="501" 
d="M411 144l56 -12c-35 -88 -114 -144 -215 -144c-115 0 -185 75 -185 198c0 167 109 297 250 297c107 0 169 -69 169 -189c0 -19 0 -29 -4 -59h-350c-3 -24 -4 -35 -4 -49c0 -91 51 -149 131 -149c68 0 125 40 152 107zM141 281h284c2 15 2 21 2 32c0 76 -43 124 -113 124
c-81 0 -142 -56 -173 -156zM456 687l37 -21c-38 -81 -91 -123 -158 -123c-73 0 -119 49 -129 138l44 11c6 -57 40 -90 92 -90c47 0 86 29 114 85z" />
    <glyph glyph-name="Edotaccent" unicode="&#x116;" horiz-adv-x="590" 
d="M640 706l-13 -58h-363l-60 -256h333l-14 -58h-332l-64 -276h413l-13 -58h-477l162 706h428zM493 876l-23 -97h-68l23 97h68z" />
    <glyph glyph-name="edotaccent" unicode="&#x117;" horiz-adv-x="501" 
d="M411 144l56 -12c-35 -88 -114 -144 -215 -144c-115 0 -185 75 -185 198c0 167 109 297 250 297c107 0 169 -69 169 -189c0 -19 0 -29 -4 -59h-350c-3 -24 -4 -35 -4 -49c0 -91 51 -149 131 -149c68 0 125 40 152 107zM141 281h284c2 15 2 21 2 32c0 76 -43 124 -113 124
c-81 0 -142 -56 -173 -156zM390 674l-22 -92h-65l22 92h65z" />
    <glyph glyph-name="Eogonek" unicode="&#x118;" horiz-adv-x="590" 
d="M436 0h-386l162 706h428l-13 -58h-363l-60 -256h333l-14 -58h-332l-64 -276h413l-13 -58h-24c-47 -14 -110 -61 -110 -104c0 -26 19 -44 49 -44c21 0 40 6 65 20l-18 -50c-28 -11 -44 -14 -67 -14c-57 0 -96 30 -96 74c0 52 35 78 110 118z" />
    <glyph glyph-name="eogonek" unicode="&#x119;" horiz-adv-x="501" 
d="M411 144l56 -12c-26 -63 -62 -98 -115 -123c-86 -40 -119 -83 -119 -113c0 -26 19 -44 49 -44c21 0 40 6 65 20l-18 -50c-28 -11 -44 -14 -67 -14c-57 0 -96 30 -96 74c0 45 29 73 88 106c-118 0 -187 75 -187 198c0 167 109 297 250 297c107 0 169 -69 169 -189
c0 -19 0 -29 -4 -59h-350c-3 -24 -4 -35 -4 -49c0 -91 51 -149 131 -149c68 0 125 40 152 107zM141 281h284c2 15 2 21 2 32c0 76 -43 124 -113 124c-81 0 -142 -56 -173 -156z" />
    <glyph glyph-name="Ecaron" unicode="&#x11a;" horiz-adv-x="590" 
d="M640 706l-13 -58h-363l-60 -256h333l-14 -58h-332l-64 -276h413l-13 -58h-477l162 706h428zM602 897l-149 -125h-42l-73 125h49l62 -63l101 63h52z" />
    <glyph glyph-name="ecaron" unicode="&#x11b;" horiz-adv-x="501" 
d="M411 144l56 -12c-35 -88 -114 -144 -215 -144c-115 0 -185 75 -185 198c0 167 109 297 250 297c107 0 169 -69 169 -189c0 -19 0 -29 -4 -59h-350c-3 -24 -4 -35 -4 -49c0 -91 51 -149 131 -149c68 0 125 40 152 107zM141 281h284c2 15 2 21 2 32c0 76 -43 124 -113 124
c-81 0 -142 -56 -173 -156zM497 682l-147 -151h-42l-76 151h46l65 -85l104 85h50z" />
    <glyph glyph-name="Gcircumflex" unicode="&#x11c;" horiz-adv-x="734" 
d="M751 504l-66 -11c-20 113 -110 174 -223 174c-167 0 -295 -155 -295 -359c0 -164 91 -269 232 -269c133 0 221 85 248 260h-261l13 59h321l-79 -358h-61l21 95c-52 -78 -122 -108 -218 -108c-176 0 -286 119 -286 310c0 246 157 423 376 423c141 0 249 -74 278 -216z
M615 772h-49l-62 63l-101 -63h-52l149 125h42z" />
    <glyph glyph-name="gcircumflex" unicode="&#x11d;" horiz-adv-x="514" 
d="M461 471h59l-100 -445c-18 -78 -30 -117 -50 -152c-33 -60 -98 -94 -179 -94c-106 0 -175 57 -175 144c0 11 1 16 3 33l61 6c-2 -14 -3 -19 -3 -30c0 -67 42 -103 120 -103c69 0 112 29 137 93c13 34 21 66 38 145c-38 -52 -86 -77 -146 -77c-97 0 -162 76 -162 189
c0 107 67 300 236 300c69 0 117 -33 142 -98zM415 299c0 85 -42 134 -116 134c-97 0 -172 -105 -172 -241c0 -95 45 -153 120 -153c40 0 77 21 108 59c35 42 60 147 60 201zM452 531h-45l-65 85l-104 -85h-51l147 151h42z" />
    <glyph glyph-name="Gbreve" unicode="&#x11e;" horiz-adv-x="734" 
d="M751 504l-66 -11c-20 113 -110 174 -223 174c-167 0 -295 -155 -295 -359c0 -164 91 -269 232 -269c133 0 221 85 248 260h-261l13 59h321l-79 -358h-61l21 95c-52 -78 -122 -108 -218 -108c-176 0 -286 119 -286 310c0 246 157 423 376 423c141 0 249 -74 278 -216z
M607 903l38 -19c-37 -67 -92 -102 -158 -102c-73 0 -120 41 -130 115l43 9c11 -46 42 -71 94 -71c46 0 81 20 113 68z" />
    <glyph glyph-name="gbreve" unicode="&#x11f;" horiz-adv-x="514" 
d="M461 471h59l-100 -445c-18 -78 -30 -117 -50 -152c-33 -60 -98 -94 -179 -94c-106 0 -175 57 -175 144c0 11 1 16 3 33l61 6c-2 -14 -3 -19 -3 -30c0 -67 42 -103 120 -103c69 0 112 29 137 93c13 34 21 66 38 145c-38 -52 -86 -77 -146 -77c-97 0 -162 76 -162 189
c0 107 67 300 236 300c69 0 117 -33 142 -98zM415 299c0 85 -42 134 -116 134c-97 0 -172 -105 -172 -241c0 -95 45 -153 120 -153c40 0 77 21 108 59c35 42 60 147 60 201zM450 687l37 -21c-38 -81 -91 -123 -158 -123c-73 0 -119 49 -129 138l44 11c6 -57 40 -90 92 -90
c47 0 86 29 114 85z" />
    <glyph glyph-name="Gdotaccent" unicode="&#x120;" horiz-adv-x="734" 
d="M751 504l-66 -11c-20 113 -110 174 -223 174c-167 0 -295 -155 -295 -359c0 -164 91 -269 232 -269c133 0 221 85 248 260h-261l13 59h321l-79 -358h-61l21 95c-52 -78 -122 -108 -218 -108c-176 0 -286 119 -286 310c0 246 157 423 376 423c141 0 249 -74 278 -216z
M547 876l-23 -97h-68l23 97h68z" />
    <glyph glyph-name="gdotaccent" unicode="&#x121;" horiz-adv-x="514" 
d="M461 471h59l-100 -445c-18 -78 -30 -117 -50 -152c-33 -60 -98 -94 -179 -94c-106 0 -175 57 -175 144c0 11 1 16 3 33l61 6c-2 -14 -3 -19 -3 -30c0 -67 42 -103 120 -103c69 0 112 29 137 93c13 34 21 66 38 145c-38 -52 -86 -77 -146 -77c-97 0 -162 76 -162 189
c0 107 67 300 236 300c69 0 117 -33 142 -98zM415 299c0 85 -42 134 -116 134c-97 0 -172 -105 -172 -241c0 -95 45 -153 120 -153c40 0 77 21 108 59c35 42 60 147 60 201zM389 674l-22 -92h-65l22 92h65z" />
    <glyph glyph-name="Gcommaaccent" unicode="&#x122;" horiz-adv-x="734" 
d="M751 504l-66 -11c-20 113 -110 174 -223 174c-167 0 -295 -155 -295 -359c0 -164 91 -269 232 -269c133 0 221 85 248 260h-261l13 59h321l-79 -358h-61l21 95c-52 -78 -122 -108 -218 -108c-176 0 -286 119 -286 310c0 246 157 423 376 423c141 0 249 -74 278 -216z
M332 -41h63l-7 -32c-11 -52 -22 -86 -46 -131h-33c13 22 26 57 34 90h-27z" />
    <glyph glyph-name="gcommaaccent" unicode="&#x123;" horiz-adv-x="514" 
d="M461 471h59l-100 -445c-18 -78 -30 -117 -50 -152c-33 -60 -98 -94 -179 -94c-106 0 -175 57 -175 144c0 11 1 16 3 33l61 6c-2 -14 -3 -19 -3 -30c0 -67 42 -103 120 -103c69 0 112 29 137 93c13 34 21 66 38 145c-38 -52 -86 -77 -146 -77c-97 0 -162 76 -162 189
c0 107 67 300 236 300c69 0 117 -33 142 -98zM415 299c0 85 -42 134 -116 134c-97 0 -172 -105 -172 -241c0 -95 45 -153 120 -153c40 0 77 21 108 59c35 42 60 147 60 201zM345 533h-63l7 32c11 52 22 86 46 131h33c-13 -22 -26 -57 -34 -90h27z" />
    <glyph glyph-name="Hbar" unicode="&#x126;" horiz-adv-x="719" 
d="M107 539l14 57h65l26 110h64l-26 -110h423l26 110h64l-26 -110h66l-14 -57h-65l-124 -539h-64l79 345h-422l-80 -345h-63l123 539h-66zM206 402h423l31 137h-423z" />
    <glyph glyph-name="hbar" unicode="&#x127;" horiz-adv-x="515" 
d="M101 615h83l21 91h59l-21 -91h152l-10 -48h-153l-37 -165c46 55 98 81 163 81c81 0 132 -46 132 -119c0 -24 -3 -50 -13 -92l-62 -272h-58l62 271c7 28 13 57 13 86c0 48 -32 75 -89 75c-56 0 -102 -24 -138 -72c-23 -31 -32 -54 -49 -128l-53 -232h-58l128 567h-83z" />
    <glyph glyph-name="Hcircumflex" unicode="&#x124;" horiz-adv-x="719" 
d="M763 706l-163 -706h-64l79 345h-422l-80 -345h-63l162 706h64l-70 -304h423l70 304h64zM627 772h-49l-62 63l-101 -63h-52l149 125h42z" />
    <glyph glyph-name="hcircumflex" unicode="&#x125;" horiz-adv-x="515" 
d="M205 706h59l-69 -304c46 55 98 81 163 81c81 0 132 -46 132 -119c0 -24 -3 -50 -13 -92l-62 -272h-58l62 271c7 28 13 57 13 86c0 48 -32 75 -89 75c-56 0 -102 -24 -138 -72c-23 -31 -32 -54 -49 -128l-53 -232h-58zM368 772h-49l-62 63l-101 -63h-52l149 125h42z" />
    <glyph glyph-name="Itilde" unicode="&#x128;" horiz-adv-x="233" 
d="M277 706l-163 -706h-64l162 706h65zM400 880l35 -19c-29 -60 -64 -92 -101 -92c-21 0 -40 9 -78 32c-30 18 -47 26 -59 26c-20 0 -36 -16 -55 -54l-36 16c32 69 63 98 103 98c20 0 39 -9 81 -34c30 -18 41 -23 53 -23c21 0 36 13 57 50z" />
    <glyph glyph-name="itilde" unicode="&#x129;" horiz-adv-x="203" 
d="M210 471l-106 -471h-59l106 471h59zM329 662l33 -18c-28 -59 -60 -89 -95 -89c-18 0 -31 3 -73 30c-28 18 -44 25 -55 25c-19 0 -34 -15 -52 -52l-34 16c31 66 59 94 97 94c22 0 37 -8 76 -33c28 -17 38 -22 50 -22c19 0 33 13 53 49z" />
    <glyph glyph-name="uni012A" unicode="&#x12a;" horiz-adv-x="233" 
d="M277 706l-163 -706h-64l162 706h65zM383 845l-14 -61h-219l14 61h219z" />
    <glyph glyph-name="imacron" unicode="&#x12b;" horiz-adv-x="203" 
d="M210 471l-106 -471h-59l106 471h59zM321 628l-14 -61h-219l14 61h219z" />
    <glyph glyph-name="Ibreve" unicode="&#x12c;" horiz-adv-x="233" 
d="M277 706l-163 -706h-64l162 706h65zM379 903l38 -19c-37 -67 -92 -102 -158 -102c-73 0 -120 41 -130 115l43 9c11 -46 42 -71 94 -71c46 0 81 20 113 68z" />
    <glyph glyph-name="uni012D" unicode="&#x12d;" horiz-adv-x="203" 
d="M210 471l-106 -471h-59l106 471h59zM315 687l37 -21c-38 -81 -91 -123 -158 -123c-73 0 -119 49 -129 138l44 11c6 -57 40 -90 92 -90c47 0 86 29 114 85z" />
    <glyph glyph-name="Iogonek" unicode="&#x12e;" horiz-adv-x="233" 
d="M50 0l162 706h65l-163 -706c-66 -38 -98 -72 -98 -104c0 -26 19 -44 49 -44c21 0 40 6 65 20l-18 -50c-28 -11 -44 -14 -67 -14c-57 0 -96 30 -96 74c0 51 34 78 110 118h-9z" />
    <glyph glyph-name="iogonek" unicode="&#x12f;" horiz-adv-x="203" 
d="M45 0l106 471h59l-106 -471c-66 -38 -98 -72 -98 -104c0 -26 19 -44 49 -44c21 0 40 6 65 20l-18 -50c-28 -11 -44 -14 -67 -14c-57 0 -96 30 -96 74c0 51 34 78 110 118h-4zM264 706l-21 -90h-59l21 90h59z" />
    <glyph glyph-name="Idotaccent" unicode="&#x130;" horiz-adv-x="233" 
d="M277 706l-163 -706h-64l162 706h65zM318 876l-23 -97h-68l23 97h68z" />
    <glyph glyph-name="IJ" unicode="&#x132;" horiz-adv-x="614" 
d="M277 706l-163 -706h-64l162 706h65zM664 706l-112 -485c-36 -155 -77 -235 -212 -235c-34 0 -65 5 -104 17l14 62c32 -15 59 -21 94 -21c91 0 119 59 146 179l111 483h63z" />
    <glyph glyph-name="ij" unicode="&#x133;" horiz-adv-x="411" 
d="M264 706l-21 -90h-59l21 90h59zM210 471l-106 -471h-59l106 471h59zM472 706l-21 -90h-59l20 90h60zM417 471l-132 -587c-18 -79 -53 -112 -122 -112c-15 0 -28 1 -49 4l13 55c11 -2 30 -3 36 -3c52 0 57 23 73 95l123 548h58z" />
    <glyph glyph-name="Jcircumflex" unicode="&#x134;" horiz-adv-x="381" 
d="M431 706l-112 -485c-36 -155 -77 -235 -212 -235c-34 0 -65 5 -104 17l14 62c32 -15 59 -21 94 -21c91 0 119 59 146 179l111 483h63zM536 772h-49l-62 63l-101 -63h-52l149 125h42z" />
    <glyph glyph-name="jcircumflex" unicode="&#x135;" horiz-adv-x="208" 
d="M214 471l-132 -587c-18 -79 -53 -112 -122 -112c-15 0 -28 1 -49 4l13 55c11 -2 30 -3 36 -3c52 0 57 23 73 95l123 548h58zM317 531h-45l-65 85l-104 -85h-51l147 151h42z" />
    <glyph glyph-name="Kcommaaccent" unicode="&#x136;" horiz-adv-x="626" 
d="M707 706l-319 -263l196 -443h-70l-176 405l-161 -130l-64 -275h-63l162 706h65l-82 -351l425 351h87zM265 -41h63l-7 -32c-11 -52 -22 -86 -46 -131h-33c13 22 26 57 34 90h-27z" />
    <glyph glyph-name="kcommaaccent" unicode="&#x137;" horiz-adv-x="463" 
d="M495 471l-232 -188l172 -283h-69l-148 245l-70 -56l-44 -189h-59l160 706h59l-101 -445l255 210h77zM183 -41h63l-7 -32c-11 -52 -22 -86 -46 -131h-33c13 22 26 57 34 90h-27z" />
    <glyph glyph-name="kgreenlandic" unicode="&#x138;" horiz-adv-x="463" 
d="M495 471l-232 -188l172 -283h-69l-148 245l-70 -56l-44 -189h-59l106 471h59l-47 -210l255 210h77z" />
    <glyph glyph-name="Lacute" unicode="&#x139;" horiz-adv-x="529" 
d="M478 58l-13 -58h-415l162 706h64l-150 -648h352zM434 895l-152 -127h-50l99 127h103z" />
    <glyph glyph-name="lacute" unicode="&#x13a;" horiz-adv-x="203" 
d="M264 706l-160 -706h-59l160 706h59zM423 895l-152 -127h-50l99 127h103z" />
    <glyph glyph-name="Lcommaaccent" unicode="&#x13b;" horiz-adv-x="529" 
d="M478 58l-13 -58h-415l162 706h64l-150 -648h352zM229 -41h63l-7 -32c-11 -52 -22 -86 -46 -131h-33c13 22 26 57 34 90h-27z" />
    <glyph glyph-name="lcommaaccent" unicode="&#x13c;" horiz-adv-x="203" 
d="M264 706l-160 -706h-59l160 706h59zM35 -41h63l-7 -32c-11 -52 -22 -86 -46 -131h-33c13 22 26 57 34 90h-27z" />
    <glyph glyph-name="Lcaron" unicode="&#x13d;" horiz-adv-x="529" 
d="M478 58l-13 -58h-415l162 706h64l-150 -648h352zM312 706h61c-15 -79 -29 -125 -63 -177h-30c24 36 39 88 42 103h-27z" />
    <glyph glyph-name="lcaron" unicode="&#x13e;" horiz-adv-x="203" 
d="M264 706l-160 -706h-59l160 706h59zM300 706h61c-15 -79 -29 -125 -63 -177h-30c24 36 39 88 42 103h-27z" />
    <glyph glyph-name="Ldot" unicode="&#x13f;" horiz-adv-x="529" 
d="M478 58l-13 -58h-415l162 706h64l-150 -648h352zM440 325h-71l21 93h71z" />
    <glyph glyph-name="ldot" unicode="&#x140;" horiz-adv-x="266" 
d="M264 706l-160 -706h-59l160 706h59zM336 413l-22 -92h-68l22 92h68z" />
    <glyph glyph-name="Nacute" unicode="&#x143;" horiz-adv-x="671" 
d="M715 706l-163 -706h-69l-233 617l-137 -617h-63l162 706h71l230 -616l137 616h65zM619 895l-152 -127h-50l99 127h103z" />
    <glyph glyph-name="nacute" unicode="&#x144;" horiz-adv-x="515" 
d="M152 471h58l-16 -70c49 57 99 82 164 82c81 0 132 -46 132 -119c0 -24 -3 -50 -13 -92l-62 -272h-58l62 271c7 29 13 56 13 76c0 54 -25 85 -89 85c-56 0 -102 -24 -138 -72c-23 -31 -32 -54 -49 -128l-53 -232h-58zM481 683l-143 -150h-46l93 150h96z" />
    <glyph glyph-name="Ncommaaccent" unicode="&#x145;" horiz-adv-x="671" 
d="M715 706l-163 -706h-69l-233 617l-137 -617h-63l162 706h71l230 -616l137 616h65zM269 -41h63l-7 -32c-11 -52 -22 -86 -46 -131h-33c13 22 26 57 34 90h-27z" />
    <glyph glyph-name="ncommaaccent" unicode="&#x146;" horiz-adv-x="515" 
d="M152 471h58l-16 -70c49 57 99 82 164 82c81 0 132 -46 132 -119c0 -24 -3 -50 -13 -92l-62 -272h-58l62 271c7 29 13 56 13 76c0 54 -25 85 -89 85c-56 0 -102 -24 -138 -72c-23 -31 -32 -54 -49 -128l-53 -232h-58zM193 -41h63l-7 -32c-11 -52 -22 -86 -46 -131h-33
c13 22 26 57 34 90h-27z" />
    <glyph glyph-name="Ncaron" unicode="&#x147;" horiz-adv-x="671" 
d="M715 706l-163 -706h-69l-233 617l-137 -617h-63l162 706h71l230 -616l137 616h65zM637 897l-149 -125h-42l-73 125h49l62 -63l101 63h52z" />
    <glyph glyph-name="ncaron" unicode="&#x148;" horiz-adv-x="515" 
d="M152 471h58l-16 -70c49 57 99 82 164 82c81 0 132 -46 132 -119c0 -24 -3 -50 -13 -92l-62 -272h-58l62 271c7 29 13 56 13 76c0 54 -25 85 -89 85c-56 0 -102 -24 -138 -72c-23 -31 -32 -54 -49 -128l-53 -232h-58zM508 682l-147 -151h-42l-76 151h46l65 -85l104 85h50z
" />
    <glyph glyph-name="napostrophe" unicode="&#x149;" horiz-adv-x="515" 
d="M152 471h58l-16 -70c49 57 99 82 164 82c81 0 132 -46 132 -119c0 -24 -3 -50 -13 -92l-62 -272h-58l62 271c7 29 13 56 13 76c0 54 -25 85 -89 85c-56 0 -102 -24 -138 -72c-23 -31 -32 -54 -49 -128l-53 -232h-58zM140 706h61c-15 -79 -29 -125 -63 -177h-30
c24 36 39 88 42 103h-27z" />
    <glyph glyph-name="Eng" unicode="&#x14a;" horiz-adv-x="671" 
d="M715 706l-180 -779c-18 -79 -40 -111 -118 -111c-16 0 -37 4 -48 8l12 55c15 -5 27 -7 35 -7c36 0 48 6 65 77l8 34l-239 634l-137 -617h-63l162 706h71l230 -616l137 616h65z" />
    <glyph glyph-name="eng" unicode="&#x14b;" horiz-adv-x="515" 
d="M152 471h58l-16 -70c49 57 99 82 164 82c81 0 132 -46 132 -119c0 -24 -3 -50 -13 -92l-74 -326c-18 -79 -49 -111 -122 -111c-15 0 -32 2 -49 7l12 50c12 -4 30 -6 36 -6c52 0 58 27 74 99l65 286c7 28 13 57 13 86c0 48 -32 75 -89 75c-56 0 -102 -24 -138 -72
c-23 -31 -32 -54 -49 -128l-53 -232h-58z" />
    <glyph glyph-name="Omacron" unicode="&#x14c;" horiz-adv-x="757" 
d="M764 393c0 -102 -43 -214 -103 -285c-68 -79 -160 -121 -267 -121c-182 0 -298 124 -298 320c0 240 155 413 369 413c202 0 299 -136 299 -327zM698 402c0 165 -87 263 -233 263c-88 0 -160 -34 -215 -102c-52 -65 -86 -166 -86 -258c0 -157 94 -264 232 -264
c170 0 302 158 302 361zM657 845l-14 -61h-293l14 61h293z" />
    <glyph glyph-name="omacron" unicode="&#x14d;" horiz-adv-x="521" 
d="M506 278c0 -161 -112 -290 -251 -290c-114 0 -188 81 -188 205c0 164 110 290 253 290c63 0 186 -30 186 -205zM445 288c0 117 -70 147 -127 147c-109 0 -191 -104 -191 -243c0 -95 50 -154 131 -154c103 0 187 109 187 250zM505 628l-14 -61h-293l14 61h293z" />
    <glyph glyph-name="Obreve" unicode="&#x14e;" horiz-adv-x="757" 
d="M764 393c0 -102 -43 -214 -103 -285c-68 -79 -160 -121 -267 -121c-182 0 -298 124 -298 320c0 240 155 413 369 413c202 0 299 -136 299 -327zM698 402c0 165 -87 263 -233 263c-88 0 -160 -34 -215 -102c-52 -65 -86 -166 -86 -258c0 -157 94 -264 232 -264
c170 0 302 158 302 361zM622 903l38 -19c-37 -67 -92 -102 -158 -102c-73 0 -120 41 -130 115l43 9c11 -46 42 -71 94 -71c46 0 81 20 113 68z" />
    <glyph glyph-name="obreve" unicode="&#x14f;" horiz-adv-x="521" 
d="M506 278c0 -161 -112 -290 -251 -290c-114 0 -188 81 -188 205c0 164 110 290 253 290c63 0 186 -30 186 -205zM445 288c0 117 -70 147 -127 147c-109 0 -191 -104 -191 -243c0 -95 50 -154 131 -154c103 0 187 109 187 250zM476 687l37 -21c-38 -81 -91 -123 -158 -123
c-73 0 -119 49 -129 138l44 11c6 -57 40 -90 92 -90c47 0 86 29 114 85z" />
    <glyph glyph-name="Ohungarumlaut" unicode="&#x150;" horiz-adv-x="757" 
d="M764 393c0 -102 -43 -214 -103 -285c-68 -79 -160 -121 -267 -121c-182 0 -298 124 -298 320c0 240 155 413 369 413c202 0 299 -136 299 -327zM698 402c0 165 -87 263 -233 263c-88 0 -160 -34 -215 -102c-52 -65 -86 -166 -86 -258c0 -157 94 -264 232 -264
c170 0 302 158 302 361zM572 896l-152 -127h-42l104 127h90zM719 896l-152 -127h-42l104 127h90z" />
    <glyph glyph-name="ohungarumlaut" unicode="&#x151;" horiz-adv-x="521" 
d="M506 278c0 -161 -112 -290 -251 -290c-114 0 -188 81 -188 205c0 164 110 290 253 290c63 0 186 -30 186 -205zM445 288c0 117 -70 147 -127 147c-109 0 -191 -104 -191 -243c0 -95 50 -154 131 -154c103 0 187 109 187 250zM426 683l-143 -150h-38l99 150h82zM542 683
l-143 -150h-38l99 150h82z" />
    <glyph glyph-name="Racute" unicode="&#x154;" horiz-adv-x="629" 
d="M212 706h250c52 0 87 -7 117 -23c49 -27 81 -86 81 -151c0 -107 -76 -192 -201 -210l119 -322h-70l-111 317h-210l-73 -317h-64zM264 648l-64 -274h200c127 0 191 58 191 157c0 40 -12 71 -34 89c-26 22 -54 28 -134 28h-159zM566 895l-152 -127h-50l99 127h103z" />
    <glyph glyph-name="racute" unicode="&#x155;" horiz-adv-x="291" 
d="M151 471h59l-19 -84c33 59 84 93 138 93c6 0 16 0 21 -1l-14 -60c-10 1 -17 1 -22 1c-79 0 -129 -61 -156 -179l-54 -241h-59zM395 683l-143 -150h-46l93 150h96z" />
    <glyph glyph-name="Rcommaaccent" unicode="&#x156;" horiz-adv-x="629" 
d="M212 706h250c52 0 87 -7 117 -23c49 -27 81 -86 81 -151c0 -107 -76 -192 -201 -210l119 -322h-70l-111 317h-210l-73 -317h-64zM264 648l-64 -274h200c127 0 191 58 191 157c0 40 -12 71 -34 89c-26 22 -54 28 -134 28h-159zM265 -41h63l-7 -32
c-11 -52 -22 -86 -46 -131h-33c13 22 26 57 34 90h-27z" />
    <glyph glyph-name="rcommaaccent" unicode="&#x157;" horiz-adv-x="291" 
d="M151 471h59l-19 -84c33 59 84 93 138 93c6 0 16 0 21 -1l-14 -60c-10 1 -17 1 -22 1c-79 0 -129 -61 -156 -179l-54 -241h-59zM35 -41h63l-7 -32c-11 -52 -22 -86 -46 -131h-33c13 22 26 57 34 90h-27z" />
    <glyph glyph-name="Rcaron" unicode="&#x158;" horiz-adv-x="629" 
d="M212 706h250c52 0 87 -7 117 -23c49 -27 81 -86 81 -151c0 -107 -76 -192 -201 -210l119 -322h-70l-111 317h-210l-73 -317h-64zM264 648l-64 -274h200c127 0 191 58 191 157c0 40 -12 71 -34 89c-26 22 -54 28 -134 28h-159zM585 897l-149 -125h-42l-73 125h49l62 -63
l101 63h52z" />
    <glyph glyph-name="rcaron" unicode="&#x159;" horiz-adv-x="291" 
d="M151 471h59l-19 -84c33 59 84 93 138 93c6 0 16 0 21 -1l-14 -60c-10 1 -17 1 -22 1c-79 0 -129 -61 -156 -179l-54 -241h-59zM410 682l-147 -151h-42l-76 151h46l65 -85l104 85h50z" />
    <glyph glyph-name="Sacute" unicode="&#x15a;" horiz-adv-x="617" 
d="M651 529l-63 -15c-13 98 -73 152 -181 152c-106 0 -176 -51 -176 -130c0 -67 49 -90 119 -120l81 -34c108 -45 153 -94 153 -180c0 -128 -106 -215 -262 -215c-165 0 -262 81 -262 233v9l69 14c-1 -10 -1 -16 -1 -22c0 -114 71 -179 197 -179c119 0 194 59 194 152
c0 65 -47 96 -118 126l-81 34c-90 38 -156 78 -156 171c0 119 96 195 248 195c138 0 219 -60 239 -191zM575 895l-152 -127h-50l99 127h103z" />
    <glyph glyph-name="sacute" unicode="&#x15b;" horiz-adv-x="452" 
d="M442 341l-53 -10c1 9 1 13 1 19c0 56 -37 87 -107 87c-71 0 -116 -32 -116 -82c0 -26 14 -45 43 -57l106 -44c62 -26 101 -57 101 -122c0 -87 -74 -144 -187 -144c-111 0 -173 51 -173 143c0 12 0 17 3 31l59 12c-3 -16 -4 -23 -4 -36c0 -67 42 -103 120 -103
c76 0 126 36 126 91c0 38 -17 55 -85 83l-78 32c-60 25 -88 60 -88 110c0 78 73 132 179 132c98 0 154 -46 154 -124c0 -6 0 -10 -1 -18zM438 683l-143 -150h-46l93 150h96z" />
    <glyph glyph-name="Scircumflex" unicode="&#x15c;" horiz-adv-x="617" 
d="M651 529l-63 -15c-13 98 -73 152 -181 152c-106 0 -176 -51 -176 -130c0 -67 49 -90 119 -120l81 -34c108 -45 153 -94 153 -180c0 -128 -106 -215 -262 -215c-165 0 -262 81 -262 233v9l69 14c-1 -10 -1 -16 -1 -22c0 -114 71 -179 197 -179c119 0 194 59 194 152
c0 65 -47 96 -118 126l-81 34c-90 38 -156 78 -156 171c0 119 96 195 248 195c138 0 219 -60 239 -191zM570 772h-49l-62 63l-101 -63h-52l149 125h42z" />
    <glyph glyph-name="scircumflex" unicode="&#x15d;" horiz-adv-x="452" 
d="M442 341l-53 -10c1 9 1 13 1 19c0 56 -37 87 -107 87c-71 0 -116 -32 -116 -82c0 -26 14 -45 43 -57l106 -44c62 -26 101 -57 101 -122c0 -87 -74 -144 -187 -144c-111 0 -173 51 -173 143c0 12 0 17 3 31l59 12c-3 -16 -4 -23 -4 -36c0 -67 42 -103 120 -103
c76 0 126 36 126 91c0 38 -17 55 -85 83l-78 32c-60 25 -88 60 -88 110c0 78 73 132 179 132c98 0 154 -46 154 -124c0 -6 0 -10 -1 -18zM433 531h-45l-65 85l-104 -85h-51l147 151h42z" />
    <glyph glyph-name="Scedilla" unicode="&#x15e;" horiz-adv-x="617" 
d="M651 529l-63 -15c-13 98 -73 152 -181 152c-106 0 -176 -51 -176 -130c0 -66 49 -90 119 -120l81 -34c108 -45 153 -94 153 -180c0 -128 -106 -215 -262 -215h-10l-20 -29c41 -4 62 -26 62 -64c0 -53 -50 -91 -121 -91c-13 0 -19 1 -36 3l12 26c7 -1 13 -1 17 -1
c41 0 63 16 63 45c0 26 -20 40 -61 43l52 70c-140 13 -220 92 -220 231v9l69 14c-1 -10 -1 -16 -1 -22c0 -114 71 -179 197 -179c119 0 194 59 194 152c0 65 -47 96 -118 126l-81 34c-90 38 -156 78 -156 171c0 119 96 195 248 195c138 0 219 -60 239 -191z" />
    <glyph glyph-name="scedilla" unicode="&#x15f;" horiz-adv-x="452" 
d="M442 341l-53 -10c1 9 1 13 1 19c0 56 -37 87 -107 87c-71 0 -116 -32 -116 -82c0 -26 14 -45 43 -57l106 -44c62 -26 101 -57 101 -122c0 -85 -71 -142 -180 -144l-23 -33c37 -2 58 -24 58 -60c0 -50 -48 -88 -113 -88c-13 0 -19 1 -36 3l13 25c9 -1 15 -1 20 -1
c31 0 51 16 51 42s-17 38 -55 40l53 73c-96 7 -148 57 -148 142c0 12 0 17 3 31l59 12c-3 -16 -4 -23 -4 -36c0 -67 42 -103 120 -103c76 0 126 36 126 91c0 38 -17 55 -85 83l-78 32c-60 25 -88 60 -88 110c0 78 73 132 179 132c98 0 154 -46 154 -124c0 -6 0 -10 -1 -18z
" />
    <glyph glyph-name="Tcommaaccent" unicode="&#x162;" horiz-adv-x="523" 
d="M636 706l-12 -57h-211l-149 -649h-66l151 649h-212l12 57h487zM191 -41h63l-7 -32c-11 -52 -22 -86 -46 -131h-33c13 22 26 57 34 90h-27z" />
    <glyph glyph-name="tcommaaccent" unicode="&#x163;" horiz-adv-x="271" 
d="M319 471l-10 -49h-82l-65 -281c-5 -23 -11 -53 -11 -61c0 -20 11 -29 35 -29c13 0 25 2 51 8l-11 -48c-23 -10 -45 -14 -68 -14c-42 0 -67 25 -67 67c0 15 2 29 7 50l70 308h-74l11 49h74l33 150h59l-34 -150h82zM90 -41h63l-7 -32c-11 -52 -22 -86 -46 -131h-33
c13 22 26 57 34 90h-27z" />
    <glyph glyph-name="Tcaron" unicode="&#x164;" horiz-adv-x="523" 
d="M636 706l-12 -57h-211l-149 -649h-66l151 649h-212l12 57h487zM574 897l-149 -125h-42l-73 125h49l62 -63l101 63h52z" />
    <glyph glyph-name="tcaron" unicode="&#x165;" horiz-adv-x="271" 
d="M319 471l-10 -49h-82l-65 -281c-5 -23 -11 -53 -11 -61c0 -20 11 -29 35 -29c13 0 25 2 51 8l-11 -48c-23 -10 -45 -14 -68 -14c-42 0 -67 25 -67 67c0 15 2 29 7 50l70 308h-74l11 49h74l33 150h59l-34 -150h82zM326 706h61c-15 -79 -29 -125 -63 -177h-30
c24 36 39 88 42 103h-27z" />
    <glyph glyph-name="Tbar" unicode="&#x166;" horiz-adv-x="523" 
d="M154 419l14 57h141l40 173h-212l12 57h487l-12 -57h-211l-40 -173h145l-14 -57h-144l-96 -419h-66l97 419h-141z" />
    <glyph glyph-name="tbar" unicode="&#x167;" horiz-adv-x="273" 
d="M85 329h63l22 93h-74l11 49h74l33 150h59l-34 -150h82l-10 -49h-82l-22 -93h65l-10 -49h-66l-32 -139c-5 -23 -11 -53 -11 -61c0 -20 11 -29 35 -29c13 0 25 2 51 8l-11 -48c-23 -10 -45 -14 -68 -14c-42 0 -67 25 -67 67c0 15 2 29 7 50l37 166h-63z" />
    <glyph glyph-name="Utilde" unicode="&#x168;" horiz-adv-x="687" 
d="M224 706h66l-85 -376c-10 -44 -19 -111 -19 -140c0 -96 60 -149 166 -149c155 0 194 117 222 243l95 422h65l-103 -457c-28 -124 -84 -262 -284 -262c-143 0 -226 75 -226 204c0 39 7 89 23 159zM632 880l35 -19c-29 -60 -64 -92 -101 -92c-21 0 -40 9 -78 32
c-30 18 -47 26 -59 26c-20 0 -36 -16 -55 -54l-36 16c32 69 63 98 103 98c20 0 39 -9 81 -34c30 -18 41 -23 53 -23c21 0 36 13 57 50z" />
    <glyph glyph-name="utilde" unicode="&#x169;" horiz-adv-x="515" 
d="M519 471l-107 -471h-58l16 69c-49 -56 -99 -81 -164 -81c-81 0 -132 46 -132 119c0 24 3 49 13 92l62 272h58l-62 -271c-9 -38 -13 -59 -13 -86c0 -48 32 -75 89 -75c56 0 103 24 138 71c24 32 32 54 49 129l53 232h58zM481 662l33 -18c-28 -59 -60 -89 -95 -89
c-18 0 -31 3 -73 30c-28 18 -44 25 -55 25c-19 0 -34 -15 -52 -52l-34 16c31 66 59 94 97 94c22 0 37 -8 76 -33c28 -17 38 -22 50 -22c19 0 33 13 53 49z" />
    <glyph glyph-name="Umacron" unicode="&#x16a;" horiz-adv-x="687" 
d="M224 706h66l-85 -376c-10 -44 -19 -111 -19 -140c0 -96 60 -149 166 -149c155 0 194 117 222 243l95 422h65l-103 -457c-28 -124 -84 -262 -284 -262c-143 0 -226 75 -226 204c0 39 7 89 23 159zM655 845l-14 -61h-293l14 61h293z" />
    <glyph glyph-name="umacron" unicode="&#x16b;" horiz-adv-x="515" 
d="M519 471l-107 -471h-58l16 69c-49 -56 -99 -81 -164 -81c-81 0 -132 46 -132 119c0 24 3 49 13 92l62 272h58l-62 -271c-9 -38 -13 -59 -13 -86c0 -48 32 -75 89 -75c56 0 103 24 138 71c24 32 32 54 49 129l53 232h58zM515 628l-14 -61h-293l14 61h293z" />
    <glyph glyph-name="Ubreve" unicode="&#x16c;" horiz-adv-x="687" 
d="M224 706h66l-85 -376c-10 -44 -19 -111 -19 -140c0 -96 60 -149 166 -149c155 0 194 117 222 243l95 422h65l-103 -457c-28 -124 -84 -262 -284 -262c-143 0 -226 75 -226 204c0 39 7 89 23 159zM605 903l38 -19c-37 -67 -92 -102 -158 -102c-73 0 -120 41 -130 115l43 9
c11 -46 42 -71 94 -71c46 0 81 20 113 68z" />
    <glyph glyph-name="ubreve" unicode="&#x16d;" horiz-adv-x="515" 
d="M519 471l-107 -471h-58l16 69c-49 -56 -99 -81 -164 -81c-81 0 -132 46 -132 119c0 24 3 49 13 92l62 272h58l-62 -271c-9 -38 -13 -59 -13 -86c0 -48 32 -75 89 -75c56 0 103 24 138 71c24 32 32 54 49 129l53 232h58zM463 687l37 -21c-38 -81 -91 -123 -158 -123
c-73 0 -119 49 -129 138l44 11c6 -57 40 -90 92 -90c47 0 86 29 114 85z" />
    <glyph glyph-name="Uring" unicode="&#x16e;" horiz-adv-x="687" 
d="M224 706h66l-85 -376c-10 -44 -19 -111 -19 -140c0 -96 60 -149 166 -149c155 0 194 117 222 243l95 422h65l-103 -457c-28 -124 -84 -262 -284 -262c-143 0 -226 75 -226 204c0 39 7 89 23 159zM569 828c0 -43 -35 -78 -79 -78c-43 0 -78 35 -78 78s35 78 77 78
c45 0 80 -34 80 -78zM532 828c0 24 -18 44 -41 44s-41 -19 -41 -44c0 -24 18 -43 41 -43s41 19 41 43z" />
    <glyph glyph-name="uring" unicode="&#x16f;" horiz-adv-x="515" 
d="M519 471l-107 -471h-58l16 69c-49 -56 -99 -81 -164 -81c-81 0 -132 46 -132 119c0 24 3 49 13 92l62 272h58l-62 -271c-9 -38 -13 -59 -13 -86c0 -48 32 -75 89 -75c56 0 103 24 138 71c24 32 32 54 49 129l53 232h58zM432 614c0 -43 -35 -78 -79 -78
c-43 0 -78 35 -78 78s35 78 77 78c45 0 80 -34 80 -78zM395 614c0 24 -18 44 -41 44s-41 -19 -41 -44c0 -24 18 -43 41 -43s41 19 41 43z" />
    <glyph glyph-name="Uhungarumlaut" unicode="&#x170;" horiz-adv-x="687" 
d="M224 706h66l-85 -376c-10 -44 -19 -111 -19 -140c0 -96 60 -149 166 -149c155 0 194 117 222 243l95 422h65l-103 -457c-28 -124 -84 -262 -284 -262c-143 0 -226 75 -226 204c0 39 7 89 23 159zM567 896l-152 -127h-42l104 127h90zM714 896l-152 -127h-42l104 127h90z
" />
    <glyph glyph-name="uhungarumlaut" unicode="&#x171;" horiz-adv-x="515" 
d="M519 471l-107 -471h-58l16 69c-49 -56 -99 -81 -164 -81c-81 0 -132 46 -132 119c0 24 3 49 13 92l62 272h58l-62 -271c-9 -38 -13 -59 -13 -86c0 -48 32 -75 89 -75c56 0 103 24 138 71c24 32 32 54 49 129l53 232h58zM440 683l-143 -150h-38l99 150h82zM556 683
l-143 -150h-38l99 150h82z" />
    <glyph glyph-name="Uogonek" unicode="&#x172;" horiz-adv-x="687" 
d="M224 706h66l-85 -376c-10 -44 -19 -111 -19 -140c0 -96 60 -149 166 -149c155 0 194 117 222 243l95 422h65l-103 -457c-25 -113 -74 -229 -219 -256c-74 -14 -111 -68 -111 -97c0 -26 19 -44 49 -44c21 0 40 6 65 20l-18 -50c-28 -11 -44 -14 -67 -14
c-57 0 -96 30 -96 74c0 47 28 73 87 106c-127 9 -200 82 -200 203c0 39 7 89 23 159z" />
    <glyph glyph-name="uogonek" unicode="&#x173;" horiz-adv-x="515" 
d="M461 471h58l-107 -471c-65 -26 -106 -70 -106 -104c0 -26 19 -44 49 -44c21 0 40 6 65 20l-18 -50c-28 -11 -44 -14 -67 -14c-57 0 -96 30 -96 74c0 51 35 79 116 121l15 66c-49 -56 -99 -81 -164 -81c-81 0 -132 46 -132 119c0 24 3 49 13 92l62 272h58l-62 -271
c-9 -38 -13 -59 -13 -86c0 -48 32 -75 89 -75c56 0 103 24 138 71c24 32 32 54 49 129z" />
    <glyph glyph-name="Wacute" unicode="&#x1e82;" horiz-adv-x="950" 
d="M1052 706l-357 -706h-64l-54 621l-310 -621h-65l-73 706h67l54 -618l312 618h63l55 -618l299 618h73zM740 895l-152 -127h-50l99 127h103z" />
    <glyph glyph-name="wacute" unicode="&#x1e83;" horiz-adv-x="719" 
d="M766 471l-261 -471h-67l-30 393l-204 -393h-66l-46 471h63l33 -404l203 404h63l31 -404l214 404h67zM561 683l-143 -150h-46l93 150h96z" />
    <glyph glyph-name="Wcircumflex" unicode="&#x174;" horiz-adv-x="950" 
d="M1052 706l-357 -706h-64l-54 621l-310 -621h-65l-73 706h67l54 -618l312 618h63l55 -618l299 618h73zM722 772h-49l-62 63l-101 -63h-52l149 125h42z" />
    <glyph glyph-name="wcircumflex" unicode="&#x175;" horiz-adv-x="719" 
d="M766 471l-261 -471h-67l-30 393l-204 -393h-66l-46 471h63l33 -404l203 404h63l31 -404l214 404h67zM551 531h-45l-65 85l-104 -85h-51l147 151h42z" />
    <glyph glyph-name="Wdieresis" unicode="&#x1e84;" horiz-adv-x="950" 
d="M1052 706l-357 -706h-64l-54 621l-310 -621h-65l-73 706h67l54 -618l312 618h63l55 -618l299 618h73zM750 876l-21 -97h-68l21 97h68zM568 876l-22 -97h-68l22 97h68z" />
    <glyph glyph-name="wdieresis" unicode="&#x1e85;" horiz-adv-x="719" 
d="M766 471l-261 -471h-67l-30 393l-204 -393h-66l-46 471h63l33 -404l203 404h63l31 -404l214 404h67zM579 674l-22 -92h-63l22 92h63zM395 674l-21 -92h-64l23 92h62z" />
    <glyph glyph-name="Wgrave" unicode="&#x1e80;" horiz-adv-x="950" 
d="M1052 706l-357 -706h-64l-54 621l-310 -621h-65l-73 706h67l54 -618l312 618h63l55 -618l299 618h73zM645 768h-51l-82 127h86z" />
    <glyph glyph-name="wgrave" unicode="&#x1e81;" horiz-adv-x="719" 
d="M766 471l-261 -471h-67l-30 393l-204 -393h-66l-46 471h63l33 -404l203 404h63l31 -404l214 404h67zM471 531h-44l-99 152h91z" />
    <glyph glyph-name="Ycircumflex" unicode="&#x176;" horiz-adv-x="562" 
d="M685 706l-346 -399l-71 -307h-65l72 315l-120 391h69l97 -335l281 335h83zM552 772h-49l-62 63l-101 -63h-52l149 125h42z" />
    <glyph glyph-name="ycircumflex" unicode="&#x177;" horiz-adv-x="422" 
d="M485 471l-343 -594c-55 -95 -84 -108 -146 -108c-18 0 -32 1 -49 5l12 52c19 -4 31 -6 43 -6c40 0 53 15 94 89l52 93l-49 469h62l35 -400l221 400h68zM433 531h-45l-65 85l-104 -85h-51l147 151h42z" />
    <glyph glyph-name="Ygrave" unicode="&#x1ef2;" horiz-adv-x="562" 
d="M685 706l-346 -399l-71 -307h-65l72 315l-120 391h69l97 -335l281 335h83zM453 768h-51l-82 127h86z" />
    <glyph glyph-name="ygrave" unicode="&#x1ef3;" horiz-adv-x="422" 
d="M485 471l-343 -594c-55 -95 -84 -108 -146 -108c-18 0 -32 1 -49 5l12 52c19 -4 31 -6 43 -6c40 0 53 15 94 89l52 93l-49 469h62l35 -400l221 400h68zM327 531h-44l-99 152h91z" />
    <glyph glyph-name="Zacute" unicode="&#x179;" horiz-adv-x="567" 
d="M625 706l-15 -60l-511 -588h441l-13 -58h-517l15 67l507 581h-381l14 58h460zM551 895l-152 -127h-50l99 127h103z" />
    <glyph glyph-name="zacute" unicode="&#x17a;" horiz-adv-x="433" 
d="M457 471l-14 -55l-358 -363h306l-13 -53h-383l12 52l363 366h-267l11 53h343zM437 683l-143 -150h-46l93 150h96z" />
    <glyph glyph-name="Zdotaccent" unicode="&#x17b;" horiz-adv-x="567" 
d="M625 706l-15 -60l-511 -588h441l-13 -58h-517l15 67l507 581h-381l14 58h460zM455 876l-23 -97h-68l23 97h68z" />
    <glyph glyph-name="zdotaccent" unicode="&#x17c;" horiz-adv-x="433" 
d="M457 471l-14 -55l-358 -363h306l-13 -53h-383l12 52l363 366h-267l11 53h343zM346 674l-22 -92h-65l22 92h65z" />
    <glyph glyph-name="longs" unicode="&#x17f;" horiz-adv-x="233" 
d="M361 705l-11 -49c-16 7 -23 8 -36 8c-22 0 -38 -1 -58 -90l-131 -574h-57l95 421h-70l12 50h69l27 118c21 92 55 127 109 127c16 0 31 -4 51 -11z" />
    <glyph glyph-name="Aringacute" unicode="&#x1fa;" horiz-adv-x="634" 
d="M571 0h-68l-29 227h-276l-125 -227h-74l398 706h80zM468 288l-42 360l-194 -360h236zM601 998l-163 -100h-52l118 100h97zM372 808c0 39 31 70 71 70c39 0 70 -31 70 -70s-31 -70 -70 -70c-40 0 -71 31 -71 70zM407 808c0 -20 16 -35 36 -35c19 0 35 15 35 35
c0 19 -16 35 -35 35c-20 0 -36 -16 -36 -35z" />
    <glyph glyph-name="aringacute" unicode="&#x1fb;" horiz-adv-x="492" 
d="M453 53l-11 -50c-13 -4 -18 -5 -30 -5c-41 0 -63 22 -63 60c0 4 0 7 1 12c-36 -54 -90 -80 -165 -80c-90 0 -141 43 -141 117c0 78 57 131 141 149c42 9 54 11 202 31c9 35 12 49 12 62c0 54 -31 83 -103 83c-74 0 -116 -33 -129 -102l-62 4c25 99 91 148 199 148
c96 0 156 -44 156 -115c0 -21 -1 -36 -12 -81l-40 -168c-6 -26 -8 -39 -8 -47c0 -17 8 -25 24 -25c9 0 14 1 29 7zM361 166l16 74c-205 -21 -269 -52 -269 -127c0 -49 33 -77 93 -77c92 0 144 54 160 130zM490 845l-179 -133h-49l121 133h107zM249 605c0 40 33 70 72 70
s71 -30 71 -70s-32 -71 -71 -71s-72 30 -72 71zM284 604c0 -20 16 -35 36 -35c19 0 35 15 35 35c0 21 -16 36 -35 36c-20 0 -36 -15 -36 -36z" />
    <glyph glyph-name="AEacute" unicode="&#x1fc;" horiz-adv-x="1009" 
d="M1017 706l-13 -58h-333l-58 -256h321l-13 -58h-322l-65 -276h412l-13 -58h-475l53 233h-245l-202 -233h-84l618 706h419zM609 634l-291 -344h206zM932 895l-152 -127h-50l99 127h103z" />
    <glyph glyph-name="aeacute" unicode="&#x1fd;" horiz-adv-x="802" 
d="M710 144l58 -12c-31 -87 -114 -144 -214 -144c-80 0 -132 32 -165 102c-49 -65 -120 -102 -211 -102c-83 0 -134 45 -134 118c0 83 55 128 141 150c51 13 95 19 202 30c5 23 12 46 12 69c0 51 -36 78 -103 78c-75 0 -112 -30 -127 -104l-64 5c25 99 91 148 199 148
c77 0 124 -24 148 -77c41 52 96 78 166 78c108 0 170 -69 170 -189c0 -19 -1 -29 -5 -59h-348c-3 -25 -4 -36 -4 -50c0 -90 51 -148 131 -148c69 0 121 37 148 107zM444 281h281c2 16 3 22 3 32c0 76 -43 122 -113 122c-80 0 -141 -56 -171 -154zM365 181l12 59
c-205 -21 -269 -52 -269 -127c0 -48 34 -77 90 -77c82 0 149 57 167 145zM612 683l-143 -150h-46l93 150h96z" />
    <glyph glyph-name="Oslashacute" unicode="&#x1fe;" horiz-adv-x="757" 
d="M719 717l39 -35l-59 -65l7 -10c41 -56 58 -136 58 -207c0 -235 -159 -413 -370 -413c-82 0 -144 21 -198 68l-60 -66l-40 31l65 73c-42 54 -65 130 -65 214c0 204 124 413 369 413c80 0 149 -24 198 -67zM206 143l418 468c-40 34 -98 54 -161 54
c-173 0 -299 -152 -299 -360c0 -60 12 -108 42 -162zM658 570l-421 -469c56 -45 95 -59 158 -59c173 0 303 155 303 364c0 67 -14 125 -40 164zM625 895l-152 -127h-50l99 127h103z" />
    <glyph glyph-name="oslashacute" unicode="&#x1ff;" horiz-adv-x="521" 
d="M505 482l31 -28l-58 -58c17 -29 28 -76 28 -122c0 -158 -112 -286 -251 -286c-54 0 -94 15 -132 51l-50 -49l-29 28l53 54c-20 34 -30 74 -30 122c0 162 111 289 253 289c39 0 97 -9 134 -53zM140 115l274 275c-25 31 -55 45 -96 45c-109 0 -192 -103 -192 -241
c0 -32 4 -53 14 -79zM435 352l-273 -273c22 -26 56 -41 95 -41c104 0 189 109 189 241c0 29 -3 53 -11 73zM456 683l-143 -150h-46l93 150h96z" />
    <glyph glyph-name="Scommaaccent" unicode="&#x218;" horiz-adv-x="617" 
d="M651 529l-63 -15c-13 98 -73 152 -181 152c-106 0 -176 -51 -176 -130c0 -67 49 -90 119 -120l81 -34c108 -45 153 -94 153 -180c0 -128 -106 -215 -262 -215c-165 0 -262 81 -262 233v9l69 14c-1 -10 -1 -16 -1 -22c0 -114 71 -179 197 -179c119 0 194 59 194 152
c0 65 -47 96 -118 126l-81 34c-90 38 -156 78 -156 171c0 119 96 195 248 195c138 0 219 -60 239 -191zM274 -41h63l-7 -32c-11 -52 -22 -86 -46 -131h-33c13 22 26 57 34 90h-27z" />
    <glyph glyph-name="scommaaccent" unicode="&#x219;" horiz-adv-x="452" 
d="M442 341l-53 -10c1 9 1 13 1 19c0 56 -37 87 -107 87c-71 0 -116 -32 -116 -82c0 -26 14 -45 43 -57l106 -44c62 -26 101 -57 101 -122c0 -87 -74 -144 -187 -144c-111 0 -173 51 -173 143c0 12 0 17 3 31l59 12c-3 -16 -4 -23 -4 -36c0 -67 42 -103 120 -103
c76 0 126 36 126 91c0 38 -17 55 -85 83l-78 32c-60 25 -88 60 -88 110c0 78 73 132 179 132c98 0 154 -46 154 -124c0 -6 0 -10 -1 -18zM191 -41h63l-7 -32c-11 -52 -22 -86 -46 -131h-33c13 22 26 57 34 90h-27z" />
    <glyph glyph-name="uni021A" unicode="&#x21a;" horiz-adv-x="523" 
d="M636 706l-12 -57h-211l-149 -649h-66l151 649h-212l12 57h487zM191 -41h63l-7 -32c-11 -52 -22 -86 -46 -131h-33c13 22 26 57 34 90h-27z" />
    <glyph glyph-name="uni021B" unicode="&#x21b;" horiz-adv-x="271" 
d="M319 471l-10 -49h-82l-65 -281c-5 -23 -11 -53 -11 -61c0 -20 11 -29 35 -29c13 0 25 2 51 8l-11 -48c-23 -10 -45 -14 -68 -14c-42 0 -67 25 -67 67c0 15 2 29 7 50l70 308h-74l11 49h74l33 150h59l-34 -150h82zM90 -41h63l-7 -32c-11 -52 -22 -86 -46 -131h-33
c13 22 26 57 34 90h-27z" />
    <glyph glyph-name="uniF6C1" unicode="&#xf6c1;" horiz-adv-x="617" 
d="M651 529l-63 -15c-13 98 -73 152 -181 152c-106 0 -176 -51 -176 -130c0 -66 49 -90 119 -120l81 -34c108 -45 153 -94 153 -180c0 -128 -106 -215 -262 -215h-10l-20 -29c41 -4 62 -26 62 -64c0 -53 -50 -91 -121 -91c-13 0 -19 1 -36 3l12 26c7 -1 13 -1 17 -1
c41 0 63 16 63 45c0 26 -20 40 -61 43l52 70c-140 13 -220 92 -220 231v9l69 14c-1 -10 -1 -16 -1 -22c0 -114 71 -179 197 -179c119 0 194 59 194 152c0 65 -47 96 -118 126l-81 34c-90 38 -156 78 -156 171c0 119 96 195 248 195c138 0 219 -60 239 -191z" />
    <glyph glyph-name="uniF6C2" unicode="&#xf6c2;" horiz-adv-x="452" 
d="M442 341l-53 -10c1 9 1 13 1 19c0 56 -37 87 -107 87c-71 0 -116 -32 -116 -82c0 -26 14 -45 43 -57l106 -44c62 -26 101 -57 101 -122c0 -85 -71 -142 -180 -144l-23 -33c37 -2 58 -24 58 -60c0 -50 -48 -88 -113 -88c-13 0 -19 1 -36 3l13 25c9 -1 15 -1 20 -1
c31 0 51 16 51 42s-17 38 -55 40l53 73c-96 7 -148 57 -148 142c0 12 0 17 3 31l59 12c-3 -16 -4 -23 -4 -36c0 -67 42 -103 120 -103c76 0 126 36 126 91c0 38 -17 55 -85 83l-78 32c-60 25 -88 60 -88 110c0 78 73 132 179 132c98 0 154 -46 154 -124c0 -6 0 -10 -1 -18z
" />
    <glyph glyph-name="i.dot" horiz-adv-x="203" 
d="M264 706l-21 -90h-59l21 90h59zM210 471l-106 -471h-59l106 471h59z" />
    <glyph glyph-name="zero.numerator" 
d="M90 423c0 118 59 293 205 293c90 0 139 -56 139 -162c0 -161 -82 -296 -205 -296c-89 0 -139 60 -139 165zM140 419c0 -80 34 -122 95 -122c96 0 147 142 147 253c0 84 -33 128 -93 128c-113 0 -149 -167 -149 -259z" />
    <glyph glyph-name="one.numerator" 
d="M362 708l-105 -443h-49l82 340c-22 -12 -56 -20 -92 -20c-13 0 -19 1 -32 2l10 42c10 -1 15 -1 22 -1c65 0 99 23 116 80h48z" />
    <glyph glyph-name="two.numerator" 
d="M376 311l-9 -46h-284l10 48c179 93 276 202 276 281c0 47 -30 77 -75 77c-58 0 -93 -42 -93 -114c0 -9 0 -13 1 -22l-48 10c0 100 51 168 144 168c74 0 120 -44 120 -113c0 -62 -33 -124 -96 -179c-53 -47 -102 -83 -154 -112c0 0 196 2 208 2z" />
    <glyph glyph-name="three.numerator" 
d="M204 472l11 45c10 -1 17 -1 24 -1c88 0 136 32 136 88c0 43 -32 72 -79 72c-52 0 -87 -36 -96 -100l-51 7c19 90 66 133 148 133c75 0 124 -44 124 -111c0 -60 -44 -105 -111 -111c57 -11 89 -46 89 -102c0 -79 -64 -134 -157 -134c-90 0 -143 50 -149 141l52 5
c3 -69 38 -106 103 -106c60 0 103 38 103 90c0 30 -15 58 -39 69c-23 11 -33 13 -108 15z" />
    <glyph glyph-name="four.numerator" 
d="M412 427l-10 -42h-66l-27 -120h-49l28 121h-206l9 40l267 281h49l-61 -280h66zM348 639l-195 -209h144z" />
    <glyph glyph-name="five.numerator" 
d="M419 666h-200l-39 -136c27 25 55 39 101 39c74 0 122 -53 122 -129c0 -101 -57 -182 -173 -182c-84 0 -140 51 -149 134l50 8c3 -64 40 -103 103 -103c75 0 121 56 121 139c0 59 -27 93 -79 93c-41 0 -74 -14 -102 -56l-47 7l62 228h240z" />
    <glyph glyph-name="six.numerator" 
d="M440 609l-46 -9c-8 55 -32 78 -84 78c-83 0 -135 -71 -159 -184c27 43 68 69 129 69c80 0 130 -50 130 -129c0 -100 -71 -176 -166 -176c-94 0 -147 66 -147 176c0 134 77 282 217 282c74 0 115 -36 126 -107zM361 429c0 63 -30 96 -90 96c-72 0 -121 -53 -121 -127
c0 -62 34 -101 95 -101c76 0 116 61 116 132z" />
    <glyph glyph-name="seven.numerator" 
d="M233 265h-57c37 108 74 182 148 287c35 49 58 81 70 122h-212l-22 -78h-46l30 120h307c-6 -49 -14 -74 -61 -141c-77 -111 -123 -204 -157 -310z" />
    <glyph glyph-name="eight.numerator" 
d="M348 497c37 -15 61 -53 61 -99c0 -82 -66 -140 -168 -140c-89 0 -147 46 -147 118c0 60 36 111 105 130c-32 19 -50 45 -50 82c0 78 61 128 151 128c83 0 133 -40 133 -106c0 -52 -30 -97 -85 -113zM386 605c0 46 -32 73 -87 73c-64 0 -105 -35 -105 -87
c0 -45 32 -73 86 -73c61 0 106 33 106 87zM359 395c0 55 -35 89 -100 89c-68 0 -116 -44 -116 -103c0 -52 38 -84 98 -84c71 0 118 40 118 98z" />
    <glyph glyph-name="nine.numerator" 
d="M79 365l46 9c8 -55 36 -78 88 -78c83 0 132 71 156 184c-27 -43 -69 -69 -130 -69c-80 0 -130 50 -130 129c0 100 71 176 166 176c103 0 145 -64 145 -176c0 -126 -56 -282 -211 -282c-74 0 -119 36 -130 107zM158 545c0 -63 30 -96 90 -96c72 0 121 53 121 127
c0 62 -34 101 -95 101c-76 0 -116 -61 -116 -132z" />
    <glyph glyph-name="period.numerator" horiz-adv-x="134" 
d="M154 340l-17 -75h-55l17 75h55z" />
    <glyph glyph-name="comma.numerator" horiz-adv-x="134" 
d="M98 340h55c-11 -73 -27 -123 -55 -174h-31c16 27 30 67 37 99h-23z" />
    <glyph glyph-name="hyphen.numerator" horiz-adv-x="222" 
d="M274 488l-10 -43h-173l10 43h173z" />
    <glyph glyph-name="parenleft.numerator" horiz-adv-x="204" 
d="M323 758l17 -24c-130 -84 -201 -207 -201 -365c0 -87 21 -146 68 -205l-24 -23c-62 60 -93 138 -93 233c0 164 89 306 233 384z" />
    <glyph glyph-name="parenright.numerator" horiz-adv-x="204" 
d="M20 141l-17 24c130 84 201 207 201 365c0 87 -21 146 -68 205l24 23c62 -60 93 -138 93 -233c0 -164 -89 -306 -233 -384z" />
    <glyph glyph-name="dollar.numerator" horiz-adv-x="403" 
d="M462 601l-46 -4c-7 44 -32 67 -73 77l-37 -158c88 -44 114 -75 114 -126c0 -67 -51 -115 -125 -126c-11 -2 -31 -3 -48 -3l-13 -58h-41l14 61c-70 20 -112 58 -128 139l48 3c10 -60 45 -88 89 -100l42 176l-12 5c-68 28 -96 65 -96 115c0 71 57 118 150 118h13l12 52h41
l-14 -56c67 -14 100 -59 110 -115zM303 679h-13c-60 0 -92 -27 -92 -73c0 -34 18 -54 70 -78zM295 468l-38 -166h12c63 0 103 32 103 83c0 32 -21 57 -77 83z" />
    <glyph glyph-name="cent.numerator" horiz-adv-x="326" 
d="M383 490l-44 -9c-7 42 -21 52 -51 59l-56 -239h4c42 0 70 20 87 67l45 -5c-27 -66 -70 -100 -140 -100h-4l-16 -66h-40l16 70c-57 14 -91 58 -91 124c0 102 64 192 165 192l13 61h40l-14 -64c49 -10 80 -42 86 -90zM193 306l55 237c-66 -4 -107 -63 -107 -149
c0 -51 23 -77 52 -88z" />
    <glyph glyph-name="sterling.numerator" horiz-adv-x="419" 
d="M517 607l-46 -8c0 55 -31 77 -82 77c-21 0 -42 -8 -56 -21c-24 -23 -33 -40 -46 -113l-10 -55h112l-7 -37h-111c-13 -57 -23 -88 -36 -109l13 -7c54 -29 68 -33 84 -33c28 1 52 25 60 66l47 -4c-16 -64 -51 -106 -111 -106c-23 0 -42 4 -115 48c-26 -33 -61 -49 -94 -49
c-39 0 -68 23 -68 57c0 38 25 66 78 66c22 0 40 -8 68 -20c11 24 16 40 25 91h-94l9 37h91l14 84c15 93 70 145 158 145c71 0 113 -36 117 -109zM176 324c-22 11 -36 15 -53 15c-22 0 -32 -10 -32 -24c0 -12 11 -21 25 -21c17 0 39 7 60 30z" />
    <glyph glyph-name="yen.numerator" horiz-adv-x="373" 
d="M495 708l-167 -193h85l-8 -35h-106l-20 -23l-3 -11h121l-8 -35h-121l-34 -146h-49l34 146h-121l7 34h121l4 16l-5 19h-112l8 34h94l-65 194h53l62 -202l168 202h62z" />
    <glyph glyph-name="florin.numerator" horiz-adv-x="220" 
d="M299 709l-10 -40c-5 2 -15 4 -22 4c-15 0 -25 -7 -34 -44l-18 -73h55l-7 -29h-54l-90 -367c-10 -40 -28 -62 -72 -62c-11 0 -24 2 -35 7l10 39c11 -4 17 -5 23 -5c14 0 22 4 30 37l86 351h-47l7 29h46l22 88c13 51 38 71 76 71c9 0 20 -1 34 -6z" />
    <glyph glyph-name="Euro.numerator" horiz-adv-x="429" 
d="M522 649l-26 -42c-32 51 -71 69 -124 69c-80 0 -135 -45 -159 -131h252l-19 -35h-240c-2 -9 -5 -23 -5 -34h228l-18 -35h-211c3 -92 54 -141 138 -141c45 0 86 10 131 49l-17 -63c-35 -20 -74 -28 -117 -28c-109 0 -179 65 -185 182h-55l20 36h36c1 12 3 24 5 34h-49
l19 34h36c30 113 108 171 213 171c54 0 105 -14 147 -66z" />
    <glyph glyph-name="zero.denominator" 
d="M33 158c0 118 59 293 205 293c90 0 139 -56 139 -162c0 -161 -82 -296 -205 -296c-89 0 -139 60 -139 165zM83 154c0 -80 34 -122 95 -122c96 0 147 142 147 253c0 84 -33 128 -93 128c-113 0 -149 -167 -149 -259z" />
    <glyph glyph-name="one.denominator" 
d="M299 443l-105 -443h-49l82 340c-22 -12 -56 -20 -92 -20c-13 0 -19 1 -32 2l10 42c10 -1 15 -1 22 -1c65 0 99 23 116 80h48z" />
    <glyph glyph-name="two.denominator" 
d="M323 46l-9 -46h-284l10 48c179 93 276 202 276 281c0 47 -30 77 -75 77c-58 0 -93 -42 -93 -114c0 -9 0 -13 1 -22l-48 10c0 100 51 168 144 168c74 0 120 -44 120 -113c0 -62 -33 -124 -96 -179c-53 -47 -102 -83 -154 -112c0 0 196 2 208 2z" />
    <glyph glyph-name="three.denominator" 
d="M152 207l11 45c10 -1 17 -1 24 -1c88 0 136 32 136 88c0 43 -32 72 -79 72c-52 0 -87 -36 -96 -100l-51 7c19 90 66 133 148 133c75 0 124 -44 124 -111c0 -60 -44 -105 -111 -111c57 -11 89 -46 89 -102c0 -79 -64 -134 -157 -134c-90 0 -143 50 -149 141l52 5
c3 -69 38 -106 103 -106c60 0 103 38 103 90c0 30 -15 58 -39 69c-23 11 -33 13 -108 15z" />
    <glyph glyph-name="four.denominator" 
d="M353 162l-10 -42h-66l-27 -120h-49l28 121h-206l9 40l267 281h49l-61 -280h66zM289 374l-195 -209h144z" />
    <glyph glyph-name="five.denominator" 
d="M369 401h-200l-39 -136c27 25 55 39 101 39c74 0 122 -53 122 -129c0 -101 -57 -182 -173 -182c-84 0 -140 51 -149 134l50 8c3 -64 40 -103 103 -103c75 0 121 56 121 139c0 59 -27 93 -79 93c-41 0 -74 -14 -102 -56l-47 7l62 228h240z" />
    <glyph glyph-name="six.denominator" 
d="M388 344l-46 -9c-8 55 -32 78 -84 78c-83 0 -135 -71 -159 -184c27 43 68 69 129 69c80 0 130 -50 130 -129c0 -100 -71 -176 -166 -176c-94 0 -147 66 -147 176c0 134 77 282 217 282c74 0 115 -36 126 -107zM309 164c0 63 -30 96 -90 96c-72 0 -121 -53 -121 -127
c0 -62 34 -101 95 -101c76 0 116 61 116 132z" />
    <glyph glyph-name="seven.denominator" 
d="M182 0h-57c37 108 74 182 148 287c35 49 58 81 70 122h-212l-22 -78h-46l30 120h307c-6 -49 -14 -74 -61 -141c-77 -111 -123 -204 -157 -310z" />
    <glyph glyph-name="eight.denominator" 
d="M295 232c37 -15 61 -53 61 -99c0 -82 -66 -140 -168 -140c-89 0 -147 46 -147 118c0 60 36 111 105 130c-32 19 -50 45 -50 82c0 78 61 128 151 128c83 0 133 -40 133 -106c0 -52 -30 -97 -85 -113zM333 340c0 46 -32 73 -87 73c-64 0 -105 -35 -105 -87
c0 -45 32 -73 86 -73c61 0 106 33 106 87zM306 130c0 55 -35 89 -100 89c-68 0 -116 -44 -116 -103c0 -52 38 -84 98 -84c71 0 118 40 118 98z" />
    <glyph glyph-name="nine.denominator" 
d="M27 100l46 9c8 -55 36 -78 88 -78c83 0 132 71 156 184c-27 -43 -69 -69 -130 -69c-80 0 -130 50 -130 129c0 100 71 176 166 176c103 0 145 -64 145 -176c0 -126 -56 -282 -211 -282c-74 0 -119 36 -130 107zM106 280c0 -63 30 -96 90 -96c72 0 121 53 121 127
c0 62 -34 101 -95 101c-76 0 -116 -61 -116 -132z" />
    <glyph glyph-name="period.denominator" horiz-adv-x="134" 
d="M96 75l-17 -75h-55l17 75h55z" />
    <glyph glyph-name="comma.denominator" horiz-adv-x="134" 
d="M41 75h55c-11 -73 -27 -123 -55 -174h-31c16 27 30 67 37 99h-23z" />
    <glyph glyph-name="hyphen.denominator" horiz-adv-x="222" 
d="M223 245l-10 -43h-173l10 43h173z" />
    <glyph glyph-name="parenleft.denominator" horiz-adv-x="204" 
d="M262 493l17 -24c-130 -84 -201 -207 -201 -365c0 -87 21 -146 68 -205l-24 -23c-62 60 -93 138 -93 233c0 164 89 306 233 384z" />
    <glyph glyph-name="parenright.denominator" horiz-adv-x="204" 
d="M-32 -124l-17 24c130 84 201 207 201 365c0 87 -21 146 -68 205l24 23c62 -60 93 -138 93 -233c0 -164 -89 -306 -233 -384z" />
    <glyph glyph-name="dollar.denominator" horiz-adv-x="403" 
d="M411 333l-46 -4c-7 44 -32 67 -73 77l-37 -158c88 -44 114 -75 114 -126c0 -67 -51 -115 -125 -126c-11 -2 -31 -3 -48 -3l-13 -58h-41l14 61c-70 20 -112 58 -128 139l48 3c10 -60 45 -88 89 -100l42 176l-12 5c-68 28 -96 65 -96 115c0 71 57 118 150 118h13l12 52h41
l-14 -56c67 -14 100 -59 110 -115zM252 411h-13c-60 0 -92 -27 -92 -73c0 -34 18 -54 70 -78zM244 200l-38 -166h12c63 0 103 32 103 83c0 32 -21 57 -77 83z" />
    <glyph glyph-name="cent.denominator" horiz-adv-x="326" 
d="M328 224l-44 -9c-7 42 -21 52 -51 59l-56 -239h4c42 0 70 20 87 67l45 -5c-27 -66 -70 -100 -140 -100h-4l-16 -66h-40l16 70c-57 14 -91 58 -91 124c0 102 64 192 165 192l13 61h40l-14 -64c49 -10 80 -42 86 -90zM138 40l55 237c-66 -4 -107 -63 -107 -149
c0 -51 23 -77 52 -88z" />
    <glyph glyph-name="sterling.denominator" horiz-adv-x="419" 
d="M459 342l-46 -8c0 55 -31 77 -82 77c-21 0 -42 -8 -56 -21c-24 -23 -33 -40 -46 -113l-10 -55h112l-7 -37h-111c-13 -57 -23 -88 -36 -109l13 -7c54 -29 68 -33 84 -33c28 1 52 25 60 66l47 -4c-16 -64 -51 -106 -111 -106c-23 0 -42 4 -115 48c-26 -33 -61 -49 -94 -49
c-39 0 -68 23 -68 57c0 38 25 66 78 66c22 0 40 -8 68 -20c11 24 16 40 25 91h-94l9 37h91l14 84c15 93 70 145 158 145c71 0 113 -36 117 -109zM118 59c-22 11 -36 15 -53 15c-22 0 -32 -10 -32 -24c0 -12 11 -21 25 -21c17 0 39 7 60 30z" />
    <glyph glyph-name="yen.denominator" horiz-adv-x="373" 
d="M441 443l-167 -193h85l-8 -35h-106l-20 -23l-3 -11h121l-8 -35h-121l-34 -146h-49l34 146h-121l7 34h121l4 16l-5 19h-112l8 34h94l-65 194h53l62 -202l168 202h62z" />
    <glyph glyph-name="florin.denominator" horiz-adv-x="220" 
d="M251 444l-10 -40c-5 2 -15 4 -22 4c-15 0 -25 -7 -34 -44l-18 -73h55l-7 -29h-54l-90 -367c-10 -40 -28 -62 -72 -62c-11 0 -24 2 -35 7l10 39c11 -4 17 -5 23 -5c14 0 22 4 30 37l86 351h-47l7 29h46l22 88c13 51 38 71 76 71c9 0 20 -1 34 -6z" />
    <glyph glyph-name="Euro.denominator" horiz-adv-x="429" 
d="M465 384l-26 -42c-32 51 -71 69 -124 69c-80 0 -135 -45 -159 -131h252l-19 -35h-240c-2 -9 -5 -23 -5 -34h228l-18 -35h-211c3 -92 54 -141 138 -141c45 0 86 10 131 49l-17 -63c-35 -20 -74 -28 -117 -28c-109 0 -179 65 -185 182h-55l20 36h36c1 12 3 24 5 34h-49
l19 34h36c30 113 108 171 213 171c54 0 105 -14 147 -66z" />
    <glyph glyph-name="zero.superior" unicode="&#x2070;" 
d="M126 573c0 118 59 293 205 293c90 0 139 -56 139 -162c0 -161 -82 -296 -205 -296c-89 0 -139 60 -139 165zM176 569c0 -80 34 -122 95 -122c96 0 147 142 147 253c0 84 -33 128 -93 128c-113 0 -149 -167 -149 -259z" />
    <glyph glyph-name="one.superior" 
d="M397 858l-105 -443h-49l82 340c-22 -12 -56 -20 -92 -20c-13 0 -19 1 -32 2l10 42c10 -1 15 -1 22 -1c65 0 99 23 116 80h48z" />
    <glyph glyph-name="two.superior" 
d="M414 461l-9 -46h-284l10 48c179 93 276 202 276 281c0 47 -30 77 -75 77c-58 0 -93 -42 -93 -114c0 -9 0 -13 1 -22l-48 10c0 100 51 168 144 168c74 0 120 -44 120 -113c0 -62 -33 -124 -96 -179c-53 -47 -102 -83 -154 -112c0 0 196 2 208 2z" />
    <glyph glyph-name="three.superior" 
d="M235 622l11 45c9 -1 17 -1 24 -1c88 0 136 32 136 88c0 43 -32 72 -79 72c-52 0 -87 -36 -96 -100l-51 7c19 90 66 133 148 133c75 0 124 -44 124 -111c0 -60 -44 -105 -111 -111c57 -11 89 -46 89 -102c0 -79 -64 -134 -157 -134c-90 0 -143 50 -149 141l52 5
c3 -69 38 -106 103 -106c60 0 103 38 103 90c0 30 -15 58 -39 69c-23 11 -33 13 -108 15z" />
    <glyph glyph-name="four.superior" unicode="&#x2074;" 
d="M447 577l-10 -42h-66l-27 -120h-49l28 121h-206l9 40l267 281h49l-61 -280h66zM383 789l-195 -209h144z" />
    <glyph glyph-name="five.superior" unicode="&#x2075;" 
d="M454 816h-200l-39 -136c27 25 55 39 101 39c74 0 122 -53 122 -129c0 -101 -57 -182 -173 -182c-84 0 -140 51 -149 134l50 8c3 -64 40 -103 103 -103c75 0 121 56 121 139c0 59 -27 93 -79 93c-41 0 -74 -14 -102 -56l-47 7l62 228h240z" />
    <glyph glyph-name="six.superior" unicode="&#x2076;" 
d="M481 759l-46 -9c-8 55 -32 78 -84 78c-83 0 -135 -71 -159 -184c27 43 68 69 129 69c80 0 130 -50 130 -129c0 -100 -71 -176 -166 -176c-94 0 -147 66 -147 176c0 134 77 282 217 282c74 0 115 -36 126 -107zM402 579c0 63 -30 96 -90 96c-72 0 -121 -53 -121 -127
c0 -62 34 -101 95 -101c76 0 116 61 116 132z" />
    <glyph glyph-name="seven.superior" unicode="&#x2077;" 
d="M265 408h-57c37 108 74 182 148 287c35 49 58 81 70 122h-212l-22 -78h-46l30 120h307c-6 -49 -14 -74 -61 -141c-77 -111 -123 -204 -157 -310z" />
    <glyph glyph-name="eight.superior" unicode="&#x2078;" 
d="M378 647c37 -15 61 -53 61 -99c0 -82 -66 -140 -168 -140c-89 0 -147 46 -147 118c0 60 36 111 105 130c-32 19 -50 45 -50 82c0 78 61 128 151 128c83 0 133 -40 133 -106c0 -52 -30 -97 -85 -113zM416 755c0 46 -32 73 -87 73c-64 0 -105 -35 -105 -87
c0 -45 32 -73 86 -73c61 0 106 33 106 87zM389 545c0 55 -35 89 -100 89c-68 0 -116 -44 -116 -103c0 -52 38 -84 98 -84c71 0 118 40 118 98z" />
    <glyph glyph-name="nine.superior" unicode="&#x2079;" 
d="M115 515l46 9c8 -55 36 -78 88 -78c83 0 132 71 156 184c-27 -43 -69 -69 -130 -69c-80 0 -130 50 -130 129c0 100 71 176 166 176c103 0 145 -64 145 -176c0 -126 -56 -282 -211 -282c-74 0 -119 36 -130 107zM194 695c0 -63 30 -96 90 -96c72 0 121 53 121 127
c0 62 -34 101 -95 101c-76 0 -116 -61 -116 -132z" />
    <glyph glyph-name="period.superior" horiz-adv-x="134" 
d="M189 490l-17 -75h-55l17 75h55z" />
    <glyph glyph-name="comma.superior" horiz-adv-x="134" 
d="M133 490h55c-11 -73 -27 -123 -55 -174h-31c16 27 30 67 37 99h-23z" />
    <glyph glyph-name="hyphen.superior" horiz-adv-x="222" 
d="M309 638l-10 -43h-173l10 43h173z" />
    <glyph glyph-name="parenleft.superior" unicode="&#x207d;" horiz-adv-x="204" 
d="M358 908l17 -24c-130 -84 -201 -207 -201 -365c0 -87 21 -146 68 -205l-24 -23c-62 60 -93 138 -93 233c0 164 89 306 233 384z" />
    <glyph glyph-name="parenright.superior" unicode="&#x207e;" horiz-adv-x="204" 
d="M55 291l-17 24c130 84 201 207 201 365c0 87 -21 146 -68 205l24 23c62 -60 93 -138 93 -233c0 -164 -89 -306 -233 -384z" />
    <glyph glyph-name="dollar.superior" horiz-adv-x="403" 
d="M497 751l-46 -4c-7 44 -32 67 -73 77l-37 -158c88 -44 114 -75 114 -126c0 -67 -51 -115 -125 -126c-11 -2 -31 -3 -48 -3l-13 -58h-41l14 61c-70 20 -112 58 -128 139l48 3c10 -60 45 -88 89 -100l42 176l-12 5c-68 28 -96 65 -96 115c0 71 57 118 150 118h13l12 52h41
l-14 -56c67 -14 100 -59 110 -115zM338 829h-13c-60 0 -92 -27 -92 -73c0 -34 18 -54 70 -78zM330 618l-38 -166h12c63 0 103 32 103 83c0 32 -21 57 -77 83z" />
    <glyph glyph-name="cent.superior" horiz-adv-x="326" 
d="M418 640l-44 -9c-7 42 -21 52 -51 59l-56 -239h4c42 0 70 20 87 67l45 -5c-27 -66 -70 -100 -140 -100h-4l-16 -66h-40l16 70c-57 14 -91 58 -91 124c0 102 64 192 165 192l13 61h40l-14 -64c49 -10 80 -42 86 -90zM228 456l55 237c-66 -4 -107 -63 -107 -149
c0 -51 23 -77 52 -88z" />
    <glyph glyph-name="sterling.superior" horiz-adv-x="419" 
d="M552 757l-46 -8c0 55 -31 77 -82 77c-21 0 -42 -8 -56 -21c-24 -23 -33 -40 -46 -113l-10 -55h112l-7 -37h-111c-13 -57 -23 -88 -36 -109l13 -7c54 -29 68 -33 84 -33c28 1 52 25 60 66l47 -4c-16 -64 -51 -106 -111 -106c-23 0 -42 4 -115 48c-26 -33 -61 -49 -94 -49
c-39 0 -68 23 -68 57c0 38 25 66 78 66c22 0 40 -8 68 -20c11 24 16 40 25 91h-94l9 37h91l14 84c15 93 70 145 158 145c71 0 113 -36 117 -109zM211 474c-22 11 -36 15 -53 15c-22 0 -32 -10 -32 -24c0 -12 11 -21 25 -21c17 0 39 7 60 30z" />
    <glyph glyph-name="yen.superior" horiz-adv-x="373" 
d="M530 858l-167 -193h85l-8 -35h-106l-20 -23l-3 -11h121l-8 -35h-121l-34 -146h-49l34 146h-121l7 34h121l4 16l-5 19h-112l8 34h94l-65 194h53l62 -202l168 202h62z" />
    <glyph glyph-name="florin.superior" horiz-adv-x="220" 
d="M334 859l-10 -40c-5 2 -15 4 -22 4c-15 0 -25 -7 -34 -44l-18 -73h55l-7 -29h-54l-90 -367c-10 -40 -28 -62 -72 -62c-11 0 -24 2 -35 7l10 39c11 -4 17 -5 23 -5c14 0 22 4 30 37l86 351h-47l7 29h46l22 88c13 51 38 71 76 71c9 0 20 -1 34 -6z" />
    <glyph glyph-name="Euro.superior" horiz-adv-x="429" 
d="M557 799l-26 -42c-32 51 -71 69 -124 69c-80 0 -135 -45 -159 -131h252l-19 -35h-240c-2 -9 -5 -23 -5 -34h228l-18 -35h-211c3 -92 54 -141 138 -141c45 0 86 10 131 49l-17 -63c-35 -20 -74 -28 -117 -28c-109 0 -179 65 -185 182h-55l20 36h36c1 12 3 24 5 34h-49
l19 34h36c30 113 108 171 213 171c54 0 105 -14 147 -66z" />
    <glyph glyph-name="zero.inferior" unicode="&#x2080;" 
d="M1 8c0 118 59 293 205 293c90 0 139 -56 139 -162c0 -161 -82 -296 -205 -296c-89 0 -139 60 -139 165zM51 4c0 -80 34 -122 95 -122c96 0 147 142 147 253c0 84 -33 128 -93 128c-113 0 -149 -167 -149 -259z" />
    <glyph glyph-name="one.inferior" unicode="&#x2081;" 
d="M270 293l-105 -443h-49l82 340c-22 -12 -56 -20 -92 -20c-13 0 -19 1 -32 2l10 42c10 -1 15 -1 22 -1c65 0 99 23 116 80h48z" />
    <glyph glyph-name="two.inferior" unicode="&#x2082;" 
d="M289 -104l-9 -46h-284l10 48c179 93 276 202 276 281c0 47 -30 77 -75 77c-58 0 -93 -42 -93 -114c0 -9 0 -13 1 -22l-48 10c0 100 51 168 144 168c74 0 120 -44 120 -113c0 -62 -33 -124 -96 -179c-53 -47 -102 -83 -154 -112c0 0 196 2 208 2z" />
    <glyph glyph-name="three.inferior" unicode="&#x2083;" 
d="M116 57l11 45c10 -1 17 -1 24 -1c88 0 136 32 136 88c0 43 -32 72 -79 72c-52 0 -87 -36 -96 -100l-51 7c19 90 66 133 148 133c75 0 124 -44 124 -111c0 -60 -44 -105 -111 -111c57 -11 89 -46 89 -102c0 -79 -64 -134 -157 -134c-90 0 -143 50 -149 141l52 5
c3 -69 38 -106 103 -106c60 0 103 38 103 90c0 30 -15 58 -39 69c-23 11 -33 13 -108 15z" />
    <glyph glyph-name="four.inferior" unicode="&#x2084;" 
d="M325 12l-10 -42h-66l-27 -120h-49l28 121h-206l9 40l267 281h49l-61 -280h66zM261 224l-195 -209h144z" />
    <glyph glyph-name="five.inferior" unicode="&#x2085;" 
d="M333 251h-200l-39 -136c27 25 55 39 101 39c74 0 122 -53 122 -129c0 -101 -57 -182 -173 -182c-84 0 -140 51 -149 134l50 8c3 -64 40 -103 103 -103c75 0 121 56 121 139c0 59 -27 93 -79 93c-41 0 -74 -14 -102 -56l-47 7l62 228h240z" />
    <glyph glyph-name="six.inferior" unicode="&#x2086;" 
d="M357 194l-46 -9c-8 55 -32 78 -84 78c-83 0 -135 -71 -159 -184c27 43 68 69 129 69c80 0 130 -50 130 -129c0 -100 -71 -176 -166 -176c-94 0 -147 66 -147 176c0 134 77 282 217 282c74 0 115 -36 126 -107zM278 14c0 63 -30 96 -90 96c-72 0 -121 -53 -121 -127
c0 -62 34 -101 95 -101c76 0 116 61 116 132z" />
    <glyph glyph-name="seven.inferior" unicode="&#x2087;" 
d="M156 -150h-57c37 108 74 182 148 287c35 49 58 81 70 122h-212l-22 -78h-46l30 120h307c-6 -49 -14 -74 -61 -141c-77 -111 -123 -204 -157 -310z" />
    <glyph glyph-name="eight.inferior" unicode="&#x2088;" 
d="M260 82c37 -15 61 -53 61 -99c0 -82 -66 -140 -168 -140c-89 0 -147 46 -147 118c0 60 36 111 105 130c-32 19 -50 45 -50 82c0 78 61 128 151 128c83 0 133 -40 133 -106c0 -52 -30 -97 -85 -113zM298 190c0 46 -32 73 -87 73c-64 0 -105 -35 -105 -87
c0 -45 32 -73 86 -73c61 0 106 33 106 87zM271 -20c0 55 -35 89 -100 89c-68 0 -116 -44 -116 -103c0 -52 38 -84 98 -84c71 0 118 40 118 98z" />
    <glyph glyph-name="nine.inferior" unicode="&#x2089;" 
d="M-5 -50l46 9c8 -55 36 -78 88 -78c83 0 132 71 156 184c-27 -43 -69 -69 -130 -69c-80 0 -130 50 -130 129c0 100 71 176 166 176c103 0 145 -64 145 -176c0 -126 -56 -282 -211 -282c-74 0 -119 36 -130 107zM74 130c0 -63 30 -96 90 -96c72 0 121 53 121 127
c0 62 -34 101 -95 101c-76 0 -116 -61 -116 -132z" />
    <glyph glyph-name="period.inferior" horiz-adv-x="134" 
d="M67 -75l-17 -75h-55l17 75h55z" />
    <glyph glyph-name="comma.inferior" horiz-adv-x="134" 
d="M12 -75h55c-11 -73 -27 -123 -55 -174h-31c16 27 30 67 37 99h-23z" />
    <glyph glyph-name="hyphen.inferior" horiz-adv-x="222" 
d="M194 95l-10 -43h-173l10 43h173z" />
    <glyph glyph-name="parenleft.inferior" unicode="&#x208d;" horiz-adv-x="204" 
d="M233 343l17 -24c-130 -84 -201 -207 -201 -365c0 -87 21 -146 68 -205l-24 -23c-62 60 -93 138 -93 233c0 164 89 306 233 384z" />
    <glyph glyph-name="parenright.inferior" unicode="&#x208e;" horiz-adv-x="204" 
d="M-61 -274l-17 24c130 84 201 207 201 365c0 87 -21 146 -68 205l24 23c62 -60 93 -138 93 -233c0 -164 -89 -306 -233 -384z" />
    <glyph glyph-name="dollar.inferior" horiz-adv-x="403" 
d="M382 183l-46 -4c-7 44 -32 67 -73 77l-37 -158c88 -44 114 -75 114 -126c0 -67 -51 -115 -125 -126c-11 -2 -31 -3 -48 -3l-13 -58h-41l14 61c-70 20 -112 58 -128 139l48 3c10 -60 45 -88 89 -100l42 176l-12 5c-68 28 -96 65 -96 115c0 71 57 118 150 118h13l12 52h41
l-14 -56c67 -14 100 -59 110 -115zM223 261h-13c-60 0 -92 -27 -92 -73c0 -34 18 -54 70 -78zM215 50l-38 -166h12c63 0 103 32 103 83c0 32 -21 57 -77 83z" />
    <glyph glyph-name="cent.inferior" horiz-adv-x="326" 
d="M299 74l-44 -9c-7 42 -21 52 -51 59l-56 -239h4c42 0 70 20 87 67l45 -5c-27 -66 -70 -100 -140 -100h-4l-16 -66h-40l16 70c-57 14 -91 58 -91 124c0 102 64 192 165 192l13 61h40l-14 -64c49 -10 80 -42 86 -90zM109 -110l55 237c-66 -4 -107 -63 -107 -149
c0 -51 23 -77 52 -88z" />
    <glyph glyph-name="sterling.inferior" horiz-adv-x="419" 
d="M430 192l-46 -8c0 55 -31 77 -82 77c-21 0 -42 -8 -56 -21c-24 -23 -33 -40 -46 -113l-10 -55h112l-7 -37h-111c-13 -57 -23 -88 -36 -109l13 -7c54 -29 68 -33 84 -33c28 1 52 25 60 66l47 -4c-16 -64 -51 -106 -111 -106c-23 0 -42 4 -115 48c-26 -33 -61 -49 -94 -49
c-39 0 -68 23 -68 57c0 38 25 66 78 66c22 0 40 -8 68 -20c11 24 16 40 25 91h-94l9 37h91l14 84c15 93 70 145 158 145c71 0 113 -36 117 -109zM89 -91c-22 11 -36 15 -53 15c-22 0 -32 -10 -32 -24c0 -12 11 -21 25 -21c17 0 39 7 60 30z" />
    <glyph glyph-name="yen.inferior" horiz-adv-x="373" 
d="M412 293l-167 -193h85l-8 -35h-106l-20 -23l-3 -11h121l-8 -35h-121l-34 -146h-49l34 146h-121l7 34h121l4 16l-5 19h-112l8 34h94l-65 194h53l62 -202l168 202h62z" />
    <glyph glyph-name="florin.inferior" horiz-adv-x="220" 
d="M222 294l-10 -40c-5 2 -15 4 -22 4c-15 0 -25 -7 -34 -44l-18 -73h55l-7 -29h-54l-90 -367c-10 -40 -28 -62 -72 -62c-11 0 -24 2 -35 7l10 39c11 -4 17 -5 23 -5c14 0 22 4 30 37l86 351h-47l7 29h46l22 88c13 51 38 71 76 71c9 0 20 -1 34 -6z" />
    <glyph glyph-name="Euro.inferior" horiz-adv-x="429" 
d="M436 234l-26 -42c-32 51 -71 69 -124 69c-80 0 -135 -45 -159 -131h252l-19 -35h-240c-2 -9 -5 -23 -5 -34h228l-18 -35h-211c3 -92 54 -141 138 -141c45 0 86 10 131 49l-17 -63c-35 -20 -74 -28 -117 -28c-109 0 -179 65 -185 182h-55l20 36h36c1 12 3 24 5 34h-49
l19 34h36c30 113 108 171 213 171c54 0 105 -14 147 -66z" />
    <glyph glyph-name="zero.fitted" horiz-adv-x="583" 
d="M596 460c0 -187 -91 -472 -312 -472c-133 0 -209 95 -209 261c0 185 92 467 312 467c136 0 209 -89 209 -256zM530 457c0 135 -52 207 -149 207c-167 0 -243 -275 -243 -425c0 -129 54 -197 153 -197c175 0 239 276 239 415z" />
    <glyph glyph-name="one.fitted" horiz-adv-x="318" 
d="M349 705l-163 -705h-66l130 559c-27 -18 -81 -30 -133 -30c-19 0 -27 0 -46 3l12 55c14 -1 22 -1 32 -1c95 0 144 35 168 119h66z" />
    <glyph glyph-name="two.fitted" horiz-adv-x="548" 
d="M471 0h-457l17 76c24 11 31 15 66 35c95 54 124 73 179 116c142 110 211 210 211 306c0 80 -51 130 -132 130c-97 0 -160 -75 -160 -188c0 -15 0 -23 3 -41l-67 13c0 185 95 270 231 270c115 0 191 -70 191 -178c0 -95 -45 -185 -164 -291c-60 -53 -94 -79 -172 -128
c-53 -33 -67 -41 -110 -63c0 0 350 5 377 5z" />
    <glyph glyph-name="three.fitted" horiz-adv-x="565" 
d="M224 494l-65 10c29 145 105 212 236 212c118 0 194 -68 194 -174c0 -96 -70 -168 -175 -179c91 -17 138 -72 138 -161c0 -126 -102 -214 -247 -214s-229 80 -236 225l67 8c4 -125 75 -178 172 -178c106 0 181 66 181 160c0 150 -176 129 -242 134l13 55
c18 -2 26 -2 39 -2c148 0 225 51 225 149c0 76 -54 125 -138 125c-88 0 -155 -70 -162 -170z" />
    <glyph glyph-name="four.fitted" horiz-adv-x="524" 
d="M513 706l-99 -453h95l-12 -56h-94l-45 -197h-63l45 197h-310l12 58l415 451h56zM439 612l-322 -358h233z" />
    <glyph glyph-name="five.fitted" horiz-adv-x="589" 
d="M607 706l-14 -58h-317l-67 -244c38 49 94 80 166 80c115 0 194 -84 194 -206c0 -113 -71 -290 -274 -290c-132 0 -224 81 -233 212l66 12c5 -104 73 -169 173 -169c117 0 205 98 205 229c0 94 -58 161 -140 161c-72 0 -120 -36 -161 -102l-72 12l98 363h376z" />
    <glyph glyph-name="six.fitted" horiz-adv-x="552" 
d="M587 548l-63 -14c-11 87 -54 131 -130 131c-125 0 -220 -128 -248 -332c35 91 115 142 205 142c116 0 192 -83 192 -209c0 -158 -106 -278 -245 -278c-136 0 -217 105 -217 279c0 89 22 190 60 269c57 119 147 182 260 182c107 0 169 -57 186 -170zM480 264
c0 99 -52 158 -139 158c-105 0 -190 -95 -190 -212c0 -99 61 -168 149 -168c112 0 180 110 180 222z" />
    <glyph glyph-name="seven.fitted" horiz-adv-x="472" 
d="M140 706h433c-9 -78 -23 -116 -87 -221c-104 -170 -179 -318 -223 -485h-76c17 66 48 142 81 214c36 79 65 130 130 235c70 114 85 142 98 200h-306l-31 -131h-62z" />
    <glyph glyph-name="eight.fitted" horiz-adv-x="542" 
d="M208 377c-46 30 -68 74 -68 132c0 124 89 209 221 209c121 0 194 -66 194 -174c0 -83 -49 -149 -129 -175c61 -28 93 -81 93 -154c0 -130 -104 -226 -245 -226c-130 0 -215 73 -215 186c0 96 58 175 149 202zM201 513c0 -74 48 -117 130 -117c93 0 162 57 162 140
c0 86 -51 131 -134 131c-96 0 -158 -60 -158 -154zM457 206c0 89 -59 142 -157 142c-101 0 -176 -71 -176 -168c0 -86 59 -141 150 -141c105 0 183 71 183 167z" />
    <glyph glyph-name="nine.fitted" horiz-adv-x="553" 
d="M55 158l63 14c6 -75 49 -131 130 -131c125 0 218 125 248 333c-32 -90 -115 -143 -204 -143c-117 0 -193 83 -193 209c0 159 106 278 247 278c135 0 216 -102 216 -275c0 -91 -23 -193 -60 -272c-57 -120 -147 -183 -261 -183c-105 0 -174 58 -186 170zM491 496
c0 100 -61 168 -149 168c-135 0 -180 -145 -180 -221c0 -100 52 -159 140 -159c104 0 189 95 189 212z" />
    <glyph glyph-name="oneeighth" unicode="&#x215b;" horiz-adv-x="875" 
d="M694 723l-438 -763l-38 22l435 764zM346 708l-105 -443h-49l82 340c-22 -12 -56 -20 -92 -20c-13 0 -19 1 -32 2l10 42c10 -1 15 -1 22 -1c65 0 99 23 116 80h48zM765 232c37 -15 61 -53 61 -99c0 -82 -66 -140 -168 -140c-89 0 -147 46 -147 118c0 60 36 111 105 130
c-32 19 -50 45 -50 82c0 78 61 128 151 128c83 0 133 -40 133 -106c0 -52 -30 -97 -85 -113zM803 340c0 46 -32 73 -87 73c-64 0 -105 -35 -105 -87c0 -45 32 -73 86 -73c61 0 106 33 106 87zM776 130c0 55 -35 89 -100 89c-68 0 -116 -44 -116 -103c0 -52 38 -84 98 -84
c71 0 118 40 118 98z" />
    <glyph glyph-name="threeeighths" unicode="&#x215c;" horiz-adv-x="875" 
d="M717 723l-438 -763l-38 22l435 764zM765 232c37 -15 61 -53 61 -99c0 -82 -66 -140 -168 -140c-89 0 -147 46 -147 118c0 60 36 111 105 130c-32 19 -50 45 -50 82c0 78 61 128 151 128c83 0 133 -40 133 -106c0 -52 -30 -97 -85 -113zM803 340c0 46 -32 73 -87 73
c-64 0 -105 -35 -105 -87c0 -45 32 -73 86 -73c61 0 106 33 106 87zM776 130c0 55 -35 89 -100 89c-68 0 -116 -44 -116 -103c0 -52 38 -84 98 -84c71 0 118 40 118 98zM204 472l11 45c10 -1 17 -1 24 -1c88 0 136 32 136 88c0 43 -32 72 -79 72c-52 0 -87 -36 -96 -100
l-51 7c19 90 66 133 148 133c75 0 124 -44 124 -111c0 -60 -44 -105 -111 -111c57 -11 89 -46 89 -102c0 -79 -64 -134 -157 -134c-90 0 -143 50 -149 141l52 5c3 -69 38 -106 103 -106c60 0 103 38 103 90c0 30 -15 58 -39 69c-23 11 -33 13 -108 15z" />
    <glyph glyph-name="fiveeighths" unicode="&#x215d;" horiz-adv-x="875" 
d="M717 723l-438 -763l-38 22l435 764zM765 232c37 -15 61 -53 61 -99c0 -82 -66 -140 -168 -140c-89 0 -147 46 -147 118c0 60 36 111 105 130c-32 19 -50 45 -50 82c0 78 61 128 151 128c83 0 133 -40 133 -106c0 -52 -30 -97 -85 -113zM803 340c0 46 -32 73 -87 73
c-64 0 -105 -35 -105 -87c0 -45 32 -73 86 -73c61 0 106 33 106 87zM776 130c0 55 -35 89 -100 89c-68 0 -116 -44 -116 -103c0 -52 38 -84 98 -84c71 0 118 40 118 98zM419 666h-200l-39 -136c27 25 55 39 101 39c74 0 122 -53 122 -129c0 -101 -57 -182 -173 -182
c-84 0 -140 51 -149 134l50 8c3 -64 40 -103 103 -103c75 0 121 56 121 139c0 59 -27 93 -79 93c-41 0 -74 -14 -102 -56l-47 7l62 228h240z" />
    <glyph glyph-name="seveneighths" unicode="&#x215e;" horiz-adv-x="875" 
d="M684 723l-438 -763l-38 22l435 764zM765 232c37 -15 61 -53 61 -99c0 -82 -66 -140 -168 -140c-89 0 -147 46 -147 118c0 60 36 111 105 130c-32 19 -50 45 -50 82c0 78 61 128 151 128c83 0 133 -40 133 -106c0 -52 -30 -97 -85 -113zM803 340c0 46 -32 73 -87 73
c-64 0 -105 -35 -105 -87c0 -45 32 -73 86 -73c61 0 106 33 106 87zM776 130c0 55 -35 89 -100 89c-68 0 -116 -44 -116 -103c0 -52 38 -84 98 -84c71 0 118 40 118 98zM243 265h-57c37 108 74 182 148 287c35 49 58 81 70 122h-212l-22 -78h-46l30 120h307
c-6 -49 -14 -74 -61 -141c-77 -111 -123 -204 -157 -310z" />
    <glyph glyph-name="onethird" unicode="&#x2153;" horiz-adv-x="875" 
d="M694 723l-438 -763l-38 22l435 764zM346 708l-105 -443h-49l82 340c-22 -12 -56 -20 -92 -20c-13 0 -19 1 -32 2l10 42c10 -1 15 -1 22 -1c65 0 99 23 116 80h48zM625 207l11 45c10 -1 17 -1 24 -1c88 0 136 32 136 88c0 43 -32 72 -79 72c-52 0 -87 -36 -96 -100l-51 7
c19 90 66 133 148 133c75 0 124 -44 124 -111c0 -60 -44 -105 -111 -111c57 -11 89 -46 89 -102c0 -79 -64 -134 -157 -134c-90 0 -143 50 -149 141l52 5c3 -69 38 -106 103 -106c60 0 103 38 103 90c0 30 -15 58 -39 69c-23 11 -33 13 -108 15z" />
    <glyph glyph-name="twothirds" unicode="&#x2154;" horiz-adv-x="875" 
d="M727 723l-438 -763l-38 22l435 764zM644 207l11 45c10 -1 17 -1 24 -1c88 0 136 32 136 88c0 43 -32 72 -79 72c-52 0 -87 -36 -96 -100l-51 7c19 90 66 133 148 133c75 0 124 -44 124 -111c0 -60 -44 -105 -111 -111c57 -11 89 -46 89 -102c0 -79 -64 -134 -157 -134
c-90 0 -143 50 -149 141l52 5c3 -69 38 -106 103 -106c60 0 103 38 103 90c0 30 -15 58 -39 69c-23 11 -33 13 -108 15zM371 311l-9 -46h-284l10 48c179 93 276 202 276 281c0 47 -30 77 -75 77c-58 0 -93 -42 -93 -114c0 -9 0 -13 1 -22l-48 10c0 100 51 168 144 168
c74 0 120 -44 120 -113c0 -62 -33 -124 -96 -179c-53 -47 -102 -83 -154 -112c0 0 196 2 208 2z" />
    <glyph glyph-name="onefifth" horiz-adv-x="875" 
d="M694 723l-438 -763l-38 22l435 764zM346 708l-105 -443h-49l82 340c-22 -12 -56 -20 -92 -20c-13 0 -19 1 -32 2l10 42c10 -1 15 -1 22 -1c65 0 99 23 116 80h48zM856 401h-200l-39 -136c27 25 55 39 101 39c74 0 122 -53 122 -129c0 -101 -57 -182 -173 -182
c-84 0 -140 51 -149 134l50 8c3 -64 40 -103 103 -103c75 0 121 56 121 139c0 59 -27 93 -79 93c-41 0 -74 -14 -102 -56l-47 7l62 228h240z" />
    <glyph glyph-name="twofifths" horiz-adv-x="875" 
d="M723 723l-438 -763l-38 22l435 764zM867 401h-200l-39 -136c27 25 55 39 101 39c74 0 122 -53 122 -129c0 -101 -57 -182 -173 -182c-84 0 -140 51 -149 134l50 8c3 -64 40 -103 103 -103c75 0 121 56 121 139c0 59 -27 93 -79 93c-41 0 -74 -14 -102 -56l-47 7l62 228
h240zM365 311l-9 -46h-284l10 48c179 93 276 202 276 281c0 47 -30 77 -75 77c-58 0 -93 -42 -93 -114c0 -9 0 -13 1 -22l-48 10c0 100 51 168 144 168c74 0 120 -44 120 -113c0 -62 -33 -124 -96 -179c-53 -47 -102 -83 -154 -112c0 0 196 2 208 2z" />
    <glyph glyph-name="threefifths" horiz-adv-x="875" 
d="M729 723l-438 -763l-38 22l435 764zM865 401h-200l-39 -136c27 25 55 39 101 39c74 0 122 -53 122 -129c0 -101 -57 -182 -173 -182c-84 0 -140 51 -149 134l50 8c3 -64 40 -103 103 -103c75 0 121 56 121 139c0 59 -27 93 -79 93c-41 0 -74 -14 -102 -56l-47 7l62 228
h240zM196 472l11 45c10 -1 17 -1 24 -1c88 0 136 32 136 88c0 43 -32 72 -79 72c-52 0 -87 -36 -96 -100l-51 7c19 90 66 133 148 133c75 0 124 -44 124 -111c0 -60 -44 -105 -111 -111c57 -11 89 -46 89 -102c0 -79 -64 -134 -157 -134c-90 0 -143 50 -149 141l52 5
c3 -69 38 -106 103 -106c60 0 103 38 103 90c0 30 -15 58 -39 69c-23 11 -33 13 -108 15z" />
    <glyph glyph-name="fourfifths" horiz-adv-x="875" 
d="M722 723l-438 -763l-38 22l435 764zM867 401h-200l-39 -136c27 25 55 39 101 39c74 0 122 -53 122 -129c0 -101 -57 -182 -173 -182c-84 0 -140 51 -149 134l50 8c3 -64 40 -103 103 -103c75 0 121 56 121 139c0 59 -27 93 -79 93c-41 0 -74 -14 -102 -56l-47 7l62 228
h240zM412 427l-10 -42h-66l-27 -120h-49l28 121h-206l9 40l267 281h49l-61 -280h66zM348 639l-195 -209h144z" />
    <glyph glyph-name="braceleft.cap" horiz-adv-x="268" 
d="M408 809l-11 -49h-18c-58 0 -75 -12 -95 -98l-42 -186c-20 -87 -48 -121 -113 -135c40 -14 58 -39 58 -79c0 -16 -2 -34 -7 -55l-40 -172c-10 -42 -12 -50 -12 -63c0 -32 17 -45 59 -45h18l-12 -49h-23c-64 0 -102 34 -102 90c0 20 1 32 12 78l39 166c5 21 8 41 8 51
c0 35 -17 49 -68 55l12 51c65 2 88 14 109 106l38 167c33 143 62 167 161 167h29z" />
    <glyph glyph-name="braceright.cap" horiz-adv-x="268" 
d="M-48 -122l11 49h18c68 0 79 25 95 98l42 186c20 87 48 121 113 135c-40 14 -58 39 -58 79c0 16 2 34 7 55l40 172c10 42 12 50 12 63c0 32 -17 45 -59 45h-18l12 49h23c64 0 102 -34 102 -90c0 -20 -1 -32 -12 -78l-39 -166c-5 -21 -8 -41 -8 -51c0 -35 17 -49 68 -55
l-12 -51c-65 -2 -88 -14 -109 -106l-38 -167c-28 -125 -49 -167 -161 -167h-29z" />
    <glyph glyph-name="bracketleft.cap" horiz-adv-x="271" 
d="M412 805l-11 -51h-109l-190 -822h109l-12 -50h-170l213 923h170z" />
    <glyph glyph-name="bracketright.cap" horiz-adv-x="271" 
d="M332 805l-213 -923h-170l12 51h109l190 823h-109l11 49h170z" />
    <glyph glyph-name="emdash.cap" horiz-adv-x="843" 
d="M859 369l-14 -60h-767l14 60h767z" />
    <glyph glyph-name="endash.cap" horiz-adv-x="565" 
d="M581 369l-14 -60h-489l14 60h489z" />
    <glyph glyph-name="guillemotleft.cap" horiz-adv-x="383" 
d="M411 491l-17 -77l-102 -72l68 -75l-15 -66l-106 121l12 54zM251 491l-17 -77l-101 -72l67 -75l-15 -66l-106 121l12 54z" />
    <glyph glyph-name="guillemotright.cap" horiz-adv-x="383" 
d="M400 370l-12 -54l-160 -115l17 77l101 72l-67 75l15 66zM240 370l-12 -54l-160 -115l17 77l102 72l-68 75l15 66z" />
    <glyph glyph-name="guilsinglleft.cap" horiz-adv-x="224" 
d="M251 491l-17 -77l-101 -72l67 -75l-15 -66l-106 121l12 54z" />
    <glyph glyph-name="guilsinglright.cap" horiz-adv-x="224" 
d="M240 370l-12 -54l-160 -115l17 77l102 72l-68 75l15 66z" />
    <glyph glyph-name="hyphen.cap" horiz-adv-x="341" 
d="M357 369l-14 -60h-265l14 60h265z" />
    <glyph glyph-name="parenleft.cap" horiz-adv-x="308" 
d="M458 825l25 -36c-97 -67 -154 -116 -206 -193c-72 -107 -110 -236 -110 -374c0 -101 19 -181 59 -251c15 -26 24 -39 50 -69l-34 -34c-97 93 -145 214 -145 361c0 131 33 247 100 352c41 64 89 119 150 168c36 30 57 44 111 76z" />
    <glyph glyph-name="parenright.cap" horiz-adv-x="308" 
d="M134 790l34 35c97 -94 145 -215 145 -362c0 -131 -33 -247 -100 -352c-41 -64 -89 -119 -150 -168c-36 -30 -57 -44 -111 -76l-25 36c97 67 155 117 206 193c72 107 110 236 110 374c0 102 -19 181 -59 251c-15 26 -24 39 -50 69z" />
    <glyph glyph-name="periodcentered.cap" horiz-adv-x="187" 
d="M182 389l-23 -108h-81l24 108h80z" />
    <glyph glyph-name="afii10017" unicode="&#x410;" horiz-adv-x="634" 
d="M571 0h-68l-29 227h-276l-125 -227h-74l398 706h80zM468 288l-42 360l-194 -360h236z" />
    <glyph glyph-name="afii10018" unicode="&#x411;" horiz-adv-x="648" 
d="M212 706h464l-13 -58h-400l-57 -250h190c84 0 112 -3 146 -17c54 -22 86 -76 86 -159c0 -77 -39 -147 -104 -186c-44 -26 -89 -36 -172 -36h-302zM560 218c0 38 -11 69 -30 89c-23 25 -57 33 -133 33h-205l-64 -282h218c46 0 95 0 133 18c49 23 81 78 81 142z" />
    <glyph glyph-name="afii10019" unicode="&#x412;" horiz-adv-x="657" 
d="M212 706h218c84 0 112 -3 146 -17c54 -22 86 -76 86 -144c0 -94 -56 -160 -164 -177c85 -9 130 -59 130 -146c0 -77 -39 -147 -104 -186c-44 -26 -89 -36 -172 -36h-302zM264 648l-58 -250h198c48 0 91 2 128 21c40 20 66 68 66 122c0 75 -44 107 -148 107h-186zM191 339
l-64 -281h219c46 0 95 0 133 18c50 23 82 78 82 142c0 38 -11 69 -31 89c-23 24 -57 32 -133 32h-206z" />
    <glyph glyph-name="afii10020" unicode="&#x413;" horiz-adv-x="524" 
d="M635 706l-15 -58h-358l-148 -648h-64l162 706h423z" />
    <glyph glyph-name="afii10021" unicode="&#x414;" horiz-adv-x="720" 
d="M750 706l-149 -648h92l-47 -208h-60l34 150h-572l-34 -150h-60l47 208c80 17 193 132 269 467l42 181h438zM357 648l-30 -130c-52 -225 -121 -392 -209 -460h419l136 590h-316z" />
    <glyph glyph-name="afii10022" unicode="&#x415;" horiz-adv-x="590" 
d="M640 706l-13 -58h-364l-59 -256h333l-14 -58h-332l-64 -276h413l-13 -58h-477l162 706h428z" />
    <glyph glyph-name="afii10024" unicode="&#x416;" horiz-adv-x="860" 
d="M593 706l-70 -304h78c201 0 177 172 289 304h70c-112 -108 -96 -277 -247 -330c134 -32 49 -267 103 -376h-70c-11 34 -12 80 -12 117v54c0 117 -14 173 -135 173h-89l-79 -344h-64l79 344h-105c-188 0 -188 -237 -285 -344h-74c104 109 120 344 275 376
c-72 29 -76 93 -76 163v29c0 48 -2 97 -27 138h74c14 -34 16 -74 16 -121v-46c0 -73 14 -137 141 -137h74l70 304h64z" />
    <glyph glyph-name="afii10025" unicode="&#x417;" horiz-adv-x="634" 
d="M286 398h94c48 0 91 2 128 21c40 20 66 68 66 122c0 82 -44 125 -147 125c-111 0 -177 -51 -223 -141l-54 33c67 130 171 162 286 162c58 0 94 -8 134 -31c39 -23 68 -72 68 -136c0 -98 -56 -163 -148 -185c69 -9 114 -59 114 -146c0 -85 -42 -151 -104 -188
c-45 -32 -89 -47 -193 -47c-151 0 -232 71 -241 215l69 13c4 -118 81 -174 175 -174c65 0 109 12 145 35c52 34 81 78 81 142c0 38 -11 69 -30 89c-23 25 -57 33 -133 33h-100z" />
    <glyph glyph-name="afii10026" unicode="&#x418;" horiz-adv-x="732" 
d="M212 706h64l-124 -539l544 472l16 67h64l-162 -706h-64l126 553l-544 -472l-18 -81h-64z" />
    <glyph glyph-name="afii10027" unicode="&#x419;" horiz-adv-x="732" 
d="M212 706h64l-124 -539l544 472l16 67h64l-162 -706h-64l126 553l-544 -472l-18 -81h-64zM626 880l50 -10c-26 -67 -96 -108 -171 -108c-71 0 -119 36 -119 97v11l54 10c0 -51 40 -64 78 -64s87 13 108 64z" />
    <glyph glyph-name="afii10028" unicode="&#x41a;" horiz-adv-x="636" 
d="M212 706h64l-70 -304h167c201 0 177 172 289 304h74c-112 -108 -96 -277 -247 -330c134 -32 49 -267 103 -376h-74c-11 34 -12 72 -12 110v76c0 87 -13 158 -135 158h-178l-79 -344h-64z" />
    <glyph glyph-name="afii10029" unicode="&#x41b;" horiz-adv-x="668" 
d="M550 0h-64l149 648h-316c-114 -571 -176 -640 -335 -648h-10l13 58h10c106 15 159 60 275 648h440z" />
    <glyph glyph-name="afii10030" unicode="&#x41c;" horiz-adv-x="778" 
d="M822 706l-163 -706h-64l144 586l-344 -586h-75l-76 601l-130 -601h-64l162 706h80l80 -640l373 640h77z" />
    <glyph glyph-name="afii10031" unicode="&#x41d;" horiz-adv-x="719" 
d="M763 706l-163 -706h-64l79 345h-422l-80 -345h-63l162 706h64l-70 -304h423l70 304h64z" />
    <glyph glyph-name="afii10032" unicode="&#x41e;" horiz-adv-x="757" 
d="M764 393c0 -102 -43 -214 -103 -285c-68 -79 -160 -121 -267 -121c-182 0 -298 124 -298 320c0 240 155 413 369 413c202 0 299 -136 299 -327zM698 402c0 165 -87 263 -233 263c-88 0 -160 -34 -215 -102c-52 -65 -86 -166 -86 -258c0 -157 94 -264 232 -264
c170 0 302 158 302 361z" />
    <glyph glyph-name="afii10033" unicode="&#x41f;" horiz-adv-x="708" 
d="M752 706l-162 -706h-64l148 648h-412l-148 -648h-64l162 706h540z" />
    <glyph glyph-name="afii10034" unicode="&#x420;" horiz-adv-x="607" 
d="M212 706h226c69 0 108 -6 138 -22c48 -25 78 -84 78 -152c0 -70 -29 -129 -82 -170c-48 -36 -112 -52 -216 -52h-172l-70 -310h-64zM262 648l-64 -280h155c113 0 160 14 197 57c24 28 37 66 37 110c0 79 -37 113 -133 113h-192z" />
    <glyph glyph-name="afii10035" unicode="&#x421;" horiz-adv-x="745" 
d="M752 505l-66 -13c-29 116 -111 175 -226 175c-209 0 -294 -203 -294 -356c0 -168 90 -271 237 -271c121 0 218 75 263 203l66 -9c-52 -153 -180 -247 -337 -247c-186 0 -298 120 -298 320c0 217 130 413 374 413c145 0 246 -70 281 -215z" />
    <glyph glyph-name="afii10036" unicode="&#x422;" horiz-adv-x="523" 
d="M636 706l-12 -57h-211l-149 -649h-66l151 649h-212l12 57h487z" />
    <glyph glyph-name="afii10037" unicode="&#x423;" horiz-adv-x="586" 
d="M323 220l309 486h76l-372 -556c-40 -60 -109 -150 -241 -150h-40l13 58h30c83 1 121 25 173 101l-143 547h72z" />
    <glyph glyph-name="afii10038" unicode="&#x424;" horiz-adv-x="770" 
d="M487 720h64l-25 -115h11c84 0 113 -4 146 -21c60 -29 95 -85 95 -184c0 -105 -46 -207 -132 -254c-44 -23 -90 -36 -189 -36h-46l-27 -120h-64l27 120h-11c-84 0 -111 8 -146 22c-59 30 -94 84 -94 183c0 105 46 207 132 254c44 23 89 36 191 36h43zM361 168l87 379h-42
c-46 0 -95 -4 -133 -21c-68 -32 -109 -112 -109 -207c0 -50 8 -92 34 -115c25 -26 59 -36 152 -36h11zM512 547l-87 -379h42c46 0 96 4 134 21c62 29 109 112 109 207c0 50 -12 89 -35 113c-26 26 -59 38 -149 38h-14z" />
    <glyph glyph-name="afii10039" unicode="&#x425;" horiz-adv-x="547" 
d="M648 706l-285 -352l137 -354h-69l-116 307l-242 -307h-76l298 364l-133 342h69l110 -293l232 293h75z" />
    <glyph glyph-name="afii10040" unicode="&#x426;" horiz-adv-x="720" 
d="M212 706h64l-149 -648h410l149 648h64l-149 -648h90l-47 -208h-60l34 150h-568z" />
    <glyph glyph-name="afii10041" unicode="&#x427;" horiz-adv-x="634" 
d="M176 706h64l-40 -172c-11 -44 -17 -73 -17 -109c0 -54 41 -86 155 -86c56 0 123 4 196 19l80 348h64l-162 -706h-64l68 298c-75 -12 -135 -17 -181 -17c-141 0 -224 36 -224 134c0 29 6 56 21 119z" />
    <glyph glyph-name="afii10042" unicode="&#x428;" horiz-adv-x="908" 
d="M212 706h64l-148 -646h274l148 646h64l-148 -646h274l148 646h64l-162 -706h-740z" />
    <glyph glyph-name="afii10043" unicode="&#x429;" horiz-adv-x="922" 
d="M212 706h64l-148 -646h274l148 646h64l-148 -646h274l148 646h64l-149 -648h90l-47 -208h-60l34 150h-770z" />
    <glyph glyph-name="afii10044" unicode="&#x42a;" horiz-adv-x="740" 
d="M149 706h231l-70 -308h178c84 0 112 -3 146 -17c54 -22 86 -76 86 -159c0 -77 -39 -147 -104 -186c-44 -26 -89 -36 -172 -36h-290l149 648h-166zM652 218c0 38 -11 69 -30 89c-23 25 -57 33 -133 33h-193l-64 -282h206c46 0 95 0 133 18c49 23 81 78 81 142z" />
    <glyph glyph-name="afii10045" unicode="&#x42b;" horiz-adv-x="800" 
d="M212 706h64l-70 -308h148c84 0 112 -3 146 -17c54 -22 86 -76 86 -159c0 -77 -39 -147 -104 -186c-44 -26 -89 -36 -172 -36h-260zM518 218c0 38 -11 69 -30 89c-23 25 -57 33 -133 33h-163l-64 -282h176c46 0 95 0 133 18c49 23 81 78 81 142zM844 706l-162 -706h-64
l162 706h64z" />
    <glyph glyph-name="afii10046" unicode="&#x42c;" horiz-adv-x="636" 
d="M212 706h64l-70 -308h178c84 0 112 -3 146 -17c54 -22 86 -76 86 -159c0 -77 -39 -147 -104 -186c-44 -26 -89 -36 -172 -36h-290zM548 218c0 38 -11 69 -30 89c-23 25 -57 33 -133 33h-193l-64 -282h206c46 0 95 0 133 18c49 23 81 78 81 142z" />
    <glyph glyph-name="afii10047" unicode="&#x42d;" horiz-adv-x="724" 
d="M66 202l66 13c30 -115 116 -174 237 -174c210 0 278 203 290 289h-369l14 58h360v8c0 167 -86 270 -228 270c-133 0 -212 -65 -251 -162l-59 32c45 91 120 184 318 184c180 0 288 -120 288 -320c0 -217 -130 -413 -374 -413c-151 0 -256 70 -292 215z" />
    <glyph glyph-name="afii10048" unicode="&#x42e;" horiz-adv-x="980" 
d="M276 706l-72 -315h155c25 127 117 329 350 329c192 0 279 -136 279 -327c0 -102 -43 -213 -104 -285c-68 -78 -153 -121 -256 -121c-185 0 -278 134 -278 320l2 26h-162l-76 -333h-64l162 706h64zM418 305c0 -167 86 -264 212 -264c163 0 290 158 290 361
c0 166 -78 264 -211 264c-84 0 -154 -35 -208 -103c-52 -65 -83 -161 -83 -258z" />
    <glyph glyph-name="afii10049" unicode="&#x42f;" horiz-adv-x="662" 
d="M706 706l-162 -706h-64l72 312h-171c-228 0 -192 -226 -298 -312h-86c141 104 92 288 276 340c-75 9 -113 65 -113 144c0 77 38 148 104 187c44 26 89 35 172 35h270zM565 370l63 278h-186c-46 0 -95 0 -133 -18c-49 -23 -81 -78 -81 -142c0 -38 11 -67 32 -87
c23 -20 55 -31 131 -31h174z" />
    <glyph glyph-name="afii10065" unicode="&#x430;" horiz-adv-x="492" 
d="M453 53l-11 -50c-13 -4 -18 -5 -30 -5c-41 0 -63 22 -63 60c0 4 0 6 1 12c-36 -54 -90 -80 -165 -80c-90 0 -141 43 -141 117c0 78 57 131 141 149c42 9 54 11 203 31c9 35 12 49 12 62c0 54 -31 83 -104 83c-74 0 -116 -33 -129 -102l-62 4c25 99 91 148 199 148
c96 0 156 -44 156 -115c0 -21 -1 -36 -12 -81l-40 -168c-6 -26 -8 -39 -8 -47c0 -17 8 -25 24 -25c9 0 14 1 29 7zM377 240c-205 -21 -269 -52 -269 -127c0 -49 33 -77 93 -77c92 0 144 54 160 130z" />
    <glyph glyph-name="afii10066" unicode="&#x431;" horiz-adv-x="526" 
d="M512 706h54c-16 -70 -64 -112 -181 -117c-142 -14 -198 -90 -228 -190l-11 -37c47 75 117 109 198 109c58 0 167 -29 167 -199c0 -158 -112 -284 -252 -284c-129 0 -188 79 -188 203c0 69 14 136 34 203c25 85 73 245 297 255c74 3 102 19 110 57zM451 282
c0 110 -69 139 -125 139c-111 0 -195 -102 -195 -239c0 -89 50 -144 131 -144c104 0 189 106 189 244z" />
    <glyph glyph-name="afii10067" unicode="&#x432;" horiz-adv-x="496" 
d="M152 471h180c56 0 75 -2 97 -11c40 -15 59 -51 59 -96c0 -63 -39 -108 -97 -118c44 -7 74 -40 74 -98c0 -52 -27 -98 -70 -124c-29 -18 -59 -24 -115 -24h-235zM199 417l-34 -145h137c32 0 61 0 85 12c27 14 45 44 45 75c0 41 -22 58 -70 58h-163zM153 220l-39 -170h153
c30 0 62 0 88 12c33 13 54 45 54 81c0 30 -7 45 -20 57c-16 16 -38 20 -89 20h-147z" />
    <glyph glyph-name="afii10068" unicode="&#x433;" horiz-adv-x="414" 
d="M152 471h327l-12 -52h-269l-95 -419h-58z" />
    <glyph glyph-name="afii10069" unicode="&#x434;" horiz-adv-x="560" 
d="M437 52h70l-39 -172h-54l27 120h-398l-27 -120h-54l39 172c100 25 161 194 196 345l17 74h318zM462 419h-206l-7 -32c-19 -97 -69 -272 -159 -335h289z" />
    <glyph glyph-name="afii10070" unicode="&#x435;" horiz-adv-x="501" 
d="M411 144l56 -12c-35 -88 -114 -144 -215 -144c-115 0 -185 75 -185 198c0 167 109 297 250 297c107 0 169 -69 169 -189c0 -19 0 -29 -4 -59h-350c-3 -24 -4 -35 -4 -49c0 -91 51 -149 131 -149c68 0 125 40 152 107zM141 281h284c2 15 2 21 2 32c0 76 -43 124 -113 124
c-81 0 -142 -56 -173 -156z" />
    <glyph glyph-name="afii10072" unicode="&#x436;" horiz-adv-x="608" 
d="M411 471l-44 -195h45c132 0 105 125 173 195h68c-92 -91 -53 -182 -168 -223c109 -31 39 -157 84 -248h-60c-12 21 -13 50 -13 80v30c0 60 -6 114 -88 114h-53l-51 -224h-58l51 224h-51c-126 0 -115 -157 -196 -224h-68c105 100 77 224 207 255c-88 33 -25 126 -76 216
h60c42 -70 -30 -195 98 -195h38l44 195h58z" />
    <glyph glyph-name="afii10073" unicode="&#x437;" horiz-adv-x="466" 
d="M203 270h72c29 0 53 2 78 14c23 13 41 40 41 71c0 52 -30 78 -104 78c-69 0 -121 -29 -140 -82l-52 20c32 73 95 112 204 112c40 0 71 -5 103 -23c27 -15 49 -46 49 -89c0 -66 -38 -109 -91 -124c41 -7 76 -40 76 -98s-33 -102 -76 -129c-35 -21 -76 -32 -136 -32
c-131 0 -173 70 -182 143l58 14c14 -75 52 -107 129 -107c40 0 70 6 95 21c33 20 52 49 52 87c0 22 -7 39 -20 51c-16 15 -38 21 -89 21h-79z" />
    <glyph glyph-name="afii10074" unicode="&#x438;" horiz-adv-x="534" 
d="M152 471h58l-79 -345l339 302l10 43h58l-107 -471h-58l81 356l-339 -302l-12 -54h-58z" />
    <glyph glyph-name="afii10075" unicode="&#x439;" horiz-adv-x="534" 
d="M152 471h58l-79 -345l339 302l10 43h58l-107 -471h-58l81 356l-339 -302l-12 -54h-58zM480 684l44 -10c-25 -68 -93 -110 -166 -110c-70 0 -116 38 -116 100v10l48 10c0 -56 40 -70 79 -70s90 14 111 70z" />
    <glyph glyph-name="afii10076" unicode="&#x43a;" horiz-adv-x="460" 
d="M210 471l-44 -195h98c132 0 105 125 173 195h68c-92 -91 -53 -182 -168 -223c109 -31 39 -157 84 -248h-60c-12 21 -13 50 -13 80v30c0 60 -6 114 -88 114h-106l-51 -224h-58l107 471h58z" />
    <glyph glyph-name="afii10077" unicode="&#x43b;" horiz-adv-x="502" 
d="M399 0h-58l95 419h-206c-32 -146 -23 -100 -27 -119c-12 -52 -39 -155 -58 -196c-27 -58 -65 -104 -149 -104h-12l11 50h12c75 7 100 77 154 312l25 109h320z" />
    <glyph glyph-name="afii10078" unicode="&#x43c;" horiz-adv-x="628" 
d="M525 0h-56l95 399l-259 -399h-38l-80 404l-84 -404h-58l107 471h78l77 -381l245 381h80z" />
    <glyph glyph-name="afii10079" unicode="&#x43d;" horiz-adv-x="530" 
d="M152 471h58l-46 -201h266l46 201h58l-107 -471h-58l50 218h-266l-50 -218h-58z" />
    <glyph glyph-name="afii10080" unicode="&#x43e;" horiz-adv-x="521" 
d="M506 278c0 -161 -112 -290 -251 -290c-114 0 -188 81 -188 205c0 164 110 290 253 290c63 0 186 -30 186 -205zM445 288c0 117 -70 147 -127 147c-109 0 -191 -104 -191 -243c0 -95 50 -154 131 -154c103 0 187 109 187 250z" />
    <glyph glyph-name="afii10081" unicode="&#x43f;" horiz-adv-x="524" 
d="M152 471h376l-107 -471h-58l95 419h-260l-95 -419h-58z" />
    <glyph glyph-name="afii10082" unicode="&#x440;" horiz-adv-x="522" 
d="M152 471h58l-16 -78c35 56 91 87 157 87c101 0 156 -69 156 -191c0 -169 -101 -298 -234 -298c-79 0 -127 35 -146 108l-72 -315h-58zM447 290c0 88 -42 140 -113 140c-109 0 -183 -127 -183 -252c0 -86 44 -137 118 -137c102 0 178 107 178 249z" />
    <glyph glyph-name="afii10083" unicode="&#x441;" horiz-adv-x="491" 
d="M491 340l-58 -14c-12 77 -49 111 -121 111c-105 0 -185 -108 -185 -248c0 -94 52 -154 134 -154c68 0 121 42 149 115l59 -8c-41 -101 -114 -154 -213 -154c-119 0 -189 73 -189 196c0 169 108 299 250 299c99 0 165 -54 174 -143z" />
    <glyph glyph-name="afii10084" unicode="&#x442;" horiz-adv-x="414" 
d="M89 471h390l-12 -52h-166l-95 -419h-58l95 419h-166z" />
    <glyph glyph-name="afii10085" unicode="&#x443;" horiz-adv-x="422" 
d="M485 471l-343 -594c-55 -95 -84 -108 -146 -108c-18 0 -32 1 -49 5l12 52c19 -4 31 -6 43 -6c40 0 53 15 94 89l52 93l-49 469h62l35 -400l221 400h68z" />
    <glyph glyph-name="afii10086" unicode="&#x444;" horiz-adv-x="640" 
d="M481 706l-54 -241c61 0 198 -28 198 -191c0 -174 -108 -268 -303 -268l-50 -222h-58l50 222c-61 0 -197 28 -197 191c0 174 108 268 302 268l54 241h58zM415 415l-81 -359c135 0 231 69 231 218c0 111 -85 141 -150 141zM276 56l81 359c-134 0 -230 -69 -230 -218
c0 -111 84 -141 149 -141z" />
    <glyph glyph-name="afii10087" unicode="&#x445;" horiz-adv-x="411" 
d="M486 471l-216 -237l76 -234h-60l-58 194l-174 -194h-74l224 242l-75 229h60l57 -189l169 189h71z" />
    <glyph glyph-name="afii10088" unicode="&#x446;" horiz-adv-x="556" 
d="M152 471h58l-95 -419h260l95 419h58l-95 -419h70l-39 -172h-54l27 120h-392z" />
    <glyph glyph-name="afii10089" unicode="&#x447;" horiz-adv-x="464" 
d="M125 471h58l-29 -124c-7 -29 -10 -43 -10 -62c0 -38 32 -53 87 -53c40 0 88 6 129 20l50 219h58l-107 -471h-58l46 202c-31 -9 -81 -18 -130 -18c-84 0 -135 23 -135 88c0 15 3 30 10 63z" />
    <glyph glyph-name="afii10090" unicode="&#x448;" horiz-adv-x="732" 
d="M152 471h58l-95 -419h205l95 419h58l-95 -419h205l95 419h58l-107 -471h-584z" />
    <glyph glyph-name="afii10091" unicode="&#x449;" horiz-adv-x="764" 
d="M152 471h58l-95 -419h205l95 419h58l-95 -419h205l95 419h58l-95 -419h70l-39 -172h-54l27 120h-600z" />
    <glyph glyph-name="afii10092" unicode="&#x44a;" horiz-adv-x="560" 
d="M89 471h195l-43 -189h134c56 0 74 -5 98 -18c34 -19 57 -54 57 -112c0 -53 -25 -102 -70 -128c-29 -17 -59 -24 -114 -24h-227l95 419h-137zM229 230l-41 -178h144c30 0 59 2 88 12c36 15 54 47 54 84c0 32 -7 46 -20 60c-15 16 -38 22 -88 22h-137z" />
    <glyph glyph-name="afii10093" unicode="&#x44b;" horiz-adv-x="632" 
d="M152 471h58l-43 -189h114c56 0 74 -5 98 -18c34 -19 57 -54 57 -112c0 -53 -25 -102 -70 -128c-29 -17 -59 -24 -114 -24h-207zM155 230l-41 -178h124c30 0 59 2 88 12c36 15 54 47 54 84c0 32 -7 46 -20 60c-15 16 -38 22 -88 22h-117zM578 471h58l-107 -471h-58z" />
    <glyph glyph-name="afii10094" unicode="&#x44c;" horiz-adv-x="486" 
d="M152 471h58l-43 -189h134c56 0 74 -5 98 -18c34 -19 57 -54 57 -112c0 -53 -25 -102 -70 -128c-29 -17 -59 -24 -114 -24h-227zM155 230l-41 -178h144c30 0 59 2 88 12c36 15 54 47 54 84c0 32 -7 46 -20 60c-15 16 -38 22 -88 22h-137z" />
    <glyph glyph-name="afii10095" unicode="&#x44d;" horiz-adv-x="490" 
d="M45 131l58 14c13 -75 52 -107 127 -107c113 0 165 108 178 180h-221l12 52h215l1 12c0 92 -48 151 -131 151c-73 0 -127 -33 -148 -92l-52 20c32 79 98 122 212 122c113 0 179 -73 179 -196c0 -169 -98 -299 -250 -299c-114 0 -171 54 -180 143z" />
    <glyph glyph-name="afii10096" unicode="&#x44e;" horiz-adv-x="706" 
d="M152 471h58l-46 -201h103c23 115 108 213 250 213c53 0 174 -30 174 -205c0 -161 -110 -290 -248 -290c-119 0 -183 83 -183 201v29h-108l-49 -218h-58zM319 192c0 -95 48 -154 127 -154c102 0 185 109 185 250c0 114 -69 145 -125 145c-107 0 -187 -103 -187 -241z" />
    <glyph glyph-name="afii10097" unicode="&#x44f;" horiz-adv-x="488" 
d="M492 471l-107 -471h-58l45 196h-104c-145 0 -125 -135 -194 -196h-70c83 57 62 192 178 218c-54 8 -77 48 -77 101s25 102 70 128c29 17 59 24 114 24h203zM384 248l39 171h-136c-24 0 -48 0 -73 -11c-37 -14 -53 -48 -53 -85c0 -28 7 -41 19 -54c15 -16 39 -21 89 -21
h115z" />
    <glyph glyph-name="afii10050" unicode="&#x490;" horiz-adv-x="524" 
d="M212 706h361l34 150h60l-47 -208h-358l-148 -648h-64z" />
    <glyph glyph-name="afii10055" unicode="&#x406;" horiz-adv-x="233" 
d="M277 706l-163 -706h-64l162 706h65z" />
    <glyph glyph-name="afii10051" unicode="&#x402;" horiz-adv-x="734" 
d="M211 0l148 644h-222l14 62h511l-14 -62h-223l-59 -258c60 28 129 39 173 39c143 0 175 -96 175 -183c0 -85 -38 -164 -104 -206c-44 -27 -89 -36 -172 -36h-29l13 58h15c45 0 91 0 132 26c47 30 77 85 77 154c0 38 -9 69 -25 89c-20 25 -45 40 -96 40
c-48 0 -106 -9 -174 -43l-74 -324h-66z" />
    <glyph glyph-name="afii10099" unicode="&#x452;" horiz-adv-x="506" 
d="M205 706h58l-24 -106h178l-11 -50h-178l-41 -184c46 52 98 77 163 77c81 0 132 -46 132 -119c0 -23 -4 -48 -13 -88l-81 -353c-18 -78 -53 -111 -122 -111c-15 0 -28 1 -49 4l13 55c11 -1 30 -3 36 -3c52 0 56 23 73 95l73 312c6 27 12 54 12 82c0 48 -32 76 -89 76
c-56 0 -102 -24 -138 -68c-23 -32 -32 -55 -49 -129l-45 -196h-58l125 550h-87l11 50h87z" />
    <glyph glyph-name="afii10052" unicode="&#x403;" horiz-adv-x="524" 
d="M635 706l-15 -58h-358l-148 -648h-64l162 706h423zM583 895l-152 -127h-50l99 127h103z" />
    <glyph glyph-name="afii10100" unicode="&#x453;" horiz-adv-x="414" 
d="M152 471h327l-12 -52h-269l-95 -419h-58zM467 683l-143 -150h-46l93 150h96z" />
    <glyph glyph-name="afii10103" unicode="&#x456;" horiz-adv-x="203" 
d="M210 471l-106 -471h-59l106 471h59zM257 680l-21 -92h-58l21 92h58z" />
    <glyph glyph-name="afii10098" unicode="&#x491;" horiz-adv-x="414" 
d="M152 471h273l27 120h54l-39 -172h-269l-95 -419h-58z" />
    <glyph glyph-name="afii10057" unicode="&#x408;" horiz-adv-x="381" 
d="M431 706l-112 -485c-36 -155 -77 -235 -212 -235c-34 0 -65 5 -104 17l14 62c32 -15 59 -21 94 -21c91 0 119 59 146 179l111 483h63z" />
    <glyph glyph-name="afii10053" unicode="&#x404;" horiz-adv-x="724" 
d="M751 517l-66 -13c-29 107 -111 162 -226 162c-210 0 -276 -195 -288 -278h367l-14 -58h-359l-1 -19c0 -167 90 -270 228 -270h10c121 0 218 65 263 174l66 -9c-52 -136 -180 -219 -337 -219c-186 0 -298 120 -298 320c0 217 130 413 374 413c145 0 246 -66 281 -203z" />
    <glyph glyph-name="afii10101" unicode="&#x454;" horiz-adv-x="490" 
d="M490 350l-58 -14c-12 68 -49 97 -120 97c-105 0 -162 -100 -176 -167h229l-11 -52h-226l-1 -26c2 -106 48 -150 130 -150c68 0 121 37 149 102l59 -8c-41 -94 -114 -144 -213 -144c-116 0 -185 73 -185 196c0 169 108 299 250 299c98 0 164 -50 173 -133z" />
    <glyph glyph-name="afii10056" unicode="&#x407;" horiz-adv-x="232" 
d="M372 875l-22 -96h-64l22 96h64zM256 875l-22 -96h-64l22 96h64zM277 706l-163 -706h-64l162 706h65zM277 706l-163 -706h-64l162 706h65z" />
    <glyph glyph-name="afii10104" unicode="&#x457;" horiz-adv-x="206" 
d="M210 471l-106 -471h-59l106 471h59zM314 680l-21 -92h-58l21 92h58zM202 680l-21 -92h-58l21 92h58z" />
    <glyph glyph-name="afii10058" unicode="&#x409;" horiz-adv-x="1020" 
d="M272 706h418l-70 -308h148c84 0 112 -3 146 -17c54 -22 86 -76 86 -159c0 -77 -39 -147 -104 -186c-44 -26 -89 -36 -172 -36h-260l149 648h-294c-114 -571 -176 -640 -335 -648h-10l13 58h10c106 15 159 60 275 648zM932 218c0 38 -11 69 -30 89c-23 25 -57 33 -133 33
h-163l-64 -282h176c46 0 95 0 133 18c49 23 81 78 81 142z" />
    <glyph glyph-name="afii10106" unicode="&#x459;" horiz-adv-x="754" 
d="M186 471h312l-43 -189h114c56 0 74 -5 98 -18c34 -19 57 -54 57 -112c0 -53 -25 -102 -70 -128c-29 -17 -59 -24 -114 -24h-207l95 419h-198l-13 -57c-27 -117 -47 -362 -221 -362h-12l11 50h12c75 7 100 77 154 312zM443 230l-41 -178h124c30 0 59 2 88 12
c36 15 54 47 54 84c0 32 -7 46 -20 60c-15 16 -38 22 -88 22h-117z" />
    <glyph glyph-name="afii10059" unicode="&#x40a;" horiz-adv-x="1060" 
d="M212 706h64l-71 -308h390l71 308h64l-70 -308h148c84 0 112 -3 146 -17c54 -22 86 -76 86 -159c0 -77 -39 -147 -104 -186c-44 -26 -89 -36 -172 -36h-260l77 340h-390l-77 -340h-64zM972 218c0 38 -11 69 -30 89c-23 25 -57 33 -133 33h-163l-64 -282h176
c46 0 95 0 133 18c49 23 81 78 81 142z" />
    <glyph glyph-name="afii10107" unicode="&#x45a;" horiz-adv-x="770" 
d="M152 471h58l-43 -189h246l43 189h58l-43 -189h114c56 0 74 -5 98 -18c34 -19 57 -54 57 -112c0 -53 -25 -102 -70 -128c-29 -17 -59 -24 -114 -24h-207l53 230h-246l-53 -230h-58zM459 230l-41 -178h124c30 0 59 2 88 12c36 15 54 47 54 84c0 32 -7 46 -20 60
c-15 16 -38 22 -88 22h-117z" />
    <glyph glyph-name="afii10105" unicode="&#x458;" horiz-adv-x="208" 
d="M269 706l-21 -90h-59l20 90h60zM214 471l-132 -587c-18 -79 -53 -112 -122 -112c-15 0 -28 1 -49 4l13 55c11 -2 30 -3 36 -3c52 0 57 23 73 95l123 548h58z" />
    <glyph glyph-name="afii10054" unicode="&#x405;" horiz-adv-x="617" 
d="M651 529l-63 -15c-13 98 -73 152 -181 152c-106 0 -176 -51 -176 -130c0 -67 49 -90 119 -120l81 -34c108 -45 153 -94 153 -180c0 -128 -106 -215 -262 -215c-165 0 -262 81 -262 233v9l69 14c-1 -11 -1 -16 -1 -22c0 -114 71 -179 197 -179c119 0 194 59 194 152
c0 65 -47 96 -118 126l-81 34c-90 38 -156 78 -156 171c0 119 96 195 248 195c138 0 219 -60 239 -191z" />
    <glyph glyph-name="afii10060" unicode="&#x40b;" horiz-adv-x="720" 
d="M637 706l-12 -58h-212l-62 -264c63 29 122 41 173 41c108 0 164 -29 164 -134c0 -29 -5 -56 -20 -119l-41 -172h-64l41 172c10 44 18 73 18 109c0 54 -20 86 -117 86c-34 0 -100 -9 -168 -43l-74 -324h-64l150 648h-212l12 58h488z" />
    <glyph glyph-name="afii10108" unicode="&#x45b;" horiz-adv-x="506" 
d="M205 706h58l-24 -106h178l-11 -50h-178l-41 -184c46 52 98 77 163 77c81 0 132 -46 132 -119c0 -23 -4 -48 -13 -88l-54 -236h-58l54 235c6 27 13 54 13 82c0 48 -32 76 -89 76c-56 0 -102 -24 -138 -68c-23 -32 -32 -55 -49 -129l-45 -196h-58l125 550h-87l11 50h87z
" />
    <glyph glyph-name="afii10061" unicode="&#x40c;" horiz-adv-x="636" 
d="M212 706h64l-70 -304h167c201 0 177 172 289 304h74c-112 -108 -96 -277 -247 -330c134 -32 49 -267 103 -376h-74c-11 34 -12 72 -12 110v76c0 87 -13 158 -135 158h-178l-79 -344h-64zM613 895l-152 -127h-50l99 127h103z" />
    <glyph glyph-name="afii10109" unicode="&#x45c;" horiz-adv-x="460" 
d="M210 471l-44 -195h98c132 0 105 125 173 195h68c-92 -91 -53 -182 -168 -223c109 -31 39 -157 84 -248h-60c-12 21 -13 50 -13 80v30c0 60 -6 114 -88 114h-106l-51 -224h-58l107 471h58zM477 683l-143 -150h-46l93 150h96z" />
    <glyph glyph-name="afii10102" unicode="&#x455;" horiz-adv-x="452" 
d="M442 341l-53 -10c1 10 1 13 1 19c0 56 -37 87 -107 87c-71 0 -116 -32 -116 -82c0 -26 14 -45 43 -57l106 -44c62 -26 101 -57 101 -122c0 -87 -74 -144 -187 -144c-111 0 -173 51 -173 143c0 12 0 17 3 31l59 12c-3 -16 -4 -23 -4 -36c0 -67 42 -103 120 -103
c76 0 126 36 126 91c0 38 -17 55 -85 83l-78 32c-60 25 -88 60 -88 110c0 78 73 132 179 132c98 0 154 -46 154 -124c0 -6 0 -9 -1 -18z" />
    <glyph glyph-name="afii10062" unicode="&#x40e;" horiz-adv-x="586" 
d="M323 220l309 486h76l-372 -556c-40 -60 -109 -150 -241 -150h-40l13 58h30c83 1 121 25 173 101l-143 547h72zM532 880l50 -10c-26 -67 -96 -108 -171 -108c-71 0 -119 36 -119 97v11l54 10c0 -51 40 -64 78 -64s87 13 108 64z" />
    <glyph glyph-name="afii10110" unicode="&#x45e;" horiz-adv-x="422" 
d="M485 471l-343 -594c-55 -95 -84 -108 -146 -108c-18 0 -32 1 -49 5l12 52c19 -4 31 -6 43 -6c40 0 53 15 94 89l52 93l-49 469h62l35 -400l221 400h68zM426 684l44 -10c-25 -68 -93 -110 -166 -110c-70 0 -116 38 -116 100v10l48 10c0 -56 40 -70 79 -70s90 14 111 70z
" />
    <glyph glyph-name="afii10145" unicode="&#x40f;" horiz-adv-x="706" 
d="M212 706h64l-149 -648h410l149 648h64l-162 -706h-232l-36 -160h-60l36 160h-246z" />
    <glyph glyph-name="afii10193" unicode="&#x45f;" horiz-adv-x="524" 
d="M152 471h58l-95 -419h260l95 419h58l-107 -471h-160l-29 -130h-54l29 130h-162z" />
    <glyph glyph-name="afii61352" unicode="&#x2116;" horiz-adv-x="1060" 
d="M715 706l-163 -706h-69l-233 617l-137 -617h-63l162 706h71l230 -616l137 616h65zM752 452c0 143 86 254 196 254c80 0 129 -60 129 -171c0 -145 -88 -253 -191 -253c-85 0 -134 62 -134 170zM803 458c0 -86 29 -132 84 -132c118 0 141 169 141 216c0 80 -29 120 -86 120
c-76 0 -139 -91 -139 -204zM990 189l-12 -53h-283l12 53h283z" />
    <glyph glyph-name="afii10023" unicode="&#x401;" horiz-adv-x="590" 
d="M640 706l-13 -58h-364l-59 -256h333l-14 -58h-332l-64 -276h413l-13 -58h-477l162 706h428zM583 880l-22 -96h-64l22 96h64zM405 880l-22 -96h-64l22 96h64z" />
    <glyph glyph-name="afii10071" unicode="&#x451;" horiz-adv-x="501" 
d="M411 144l56 -12c-35 -88 -114 -144 -215 -144c-115 0 -185 75 -185 198c0 167 109 297 250 297c107 0 169 -69 169 -189c0 -19 0 -29 -4 -59h-350c-3 -24 -4 -35 -4 -49c0 -91 51 -149 131 -149c68 0 125 40 152 107zM141 281h284c2 15 2 21 2 32c0 76 -43 124 -113 124
c-81 0 -142 -56 -173 -156zM472 674l-22 -92h-63l22 92h63zM288 674l-21 -92h-64l23 92h62z" />
    <glyph glyph-name="afii10066.locl" horiz-adv-x="526" 
d="M512 706h54c-11 -56 -51 -94 -113 -94c-27 0 -52 6 -76 12c-24 5 -43 11 -73 11c-45 0 -78 -25 -78 -76c0 -48 41 -68 86 -77l36 -7c105 -19 164 -63 164 -203c0 -155 -112 -284 -252 -284c-116 0 -188 92 -188 205c1 146 88 235 184 259c-55 15 -90 47 -90 104
c0 87 65 129 141 129c20 0 45 -3 90 -14c22 -5 42 -9 66 -9c32 0 44 25 49 44zM452 288c0 105 -69 133 -125 133c-111 0 -195 -98 -195 -229c0 -95 50 -154 131 -154c104 0 189 109 189 250z" />
    <glyph glyph-name="afii10068.locl" horiz-adv-x="206" 
d="M210 471l-107 -471h-58l107 471h58zM306 640l-12 -52h-180l12 52h180z" />
    <glyph glyph-name="afii10069.locl" horiz-adv-x="514" 
d="M462 471h58l-100 -445c-18 -78 -30 -117 -50 -152c-33 -60 -98 -94 -179 -94c-106 0 -175 57 -175 144c0 11 1 16 3 33l61 6c-2 -14 -3 -19 -3 -30c0 -67 42 -103 120 -103c69 0 112 29 137 93c13 34 21 66 38 145c-38 -52 -86 -77 -146 -77c-97 0 -162 76 -162 189
c0 107 67 300 236 300c69 0 117 -33 142 -98zM415 299c0 85 -42 134 -116 134c-97 0 -172 -105 -172 -241c0 -95 45 -153 120 -153c40 0 77 21 108 59c35 42 60 147 60 201z" />
    <glyph glyph-name="afii10081.locl" horiz-adv-x="516" 
d="M520 471l-107 -471h-58l16 69c-49 -56 -99 -81 -164 -81c-82 0 -133 46 -133 119c0 24 3 49 13 92l62 272h58l-62 -271c-9 -38 -13 -59 -13 -86c0 -48 32 -75 90 -75c56 0 103 24 138 71c24 32 32 54 49 129l53 232h58zM518 640l-12 -52h-294l12 52h294z" />
    <glyph glyph-name="afii10084.locl" horiz-adv-x="774" 
d="M778 471l-107 -471h-58l16 70c-46 -56 -92 -82 -146 -82c-66 0 -112 37 -122 99c-42 -63 -102 -99 -164 -99c-73 0 -123 48 -123 119c0 24 4 50 14 92l62 272h58l-62 -271c-6 -28 -14 -57 -14 -86c0 -47 30 -76 78 -76c47 0 90 26 123 70c25 35 33 61 49 131l53 232h58
l-62 -271c-5 -20 -13 -56 -13 -78c0 -46 18 -84 77 -84c47 0 92 26 124 71c23 32 31 56 48 130l53 232h58zM694 640l-12 -52h-400l12 52h400z" />
    <glyph glyph-name="tonos" unicode="&#x384;" horiz-adv-x="225" 
d="M207 683l-143 -150h-46l93 150h96z" />
    <glyph glyph-name="dieresistonos" unicode="&#x385;" horiz-adv-x="272" 
d="M294 674l-22 -92h-63l22 92h63zM63 674l-21 -92h-64l23 92h62zM236 732l-108 -150h-46l58 150h96z" />
    <glyph glyph-name="Gamma" unicode="&#x393;" horiz-adv-x="494" 
d="M605 706l-15 -58h-328l-148 -648h-64l162 706h393z" />
    <glyph glyph-name="Theta" unicode="&#x398;" horiz-adv-x="757" 
d="M255 336l14 58h339l-14 -58h-339zM764 393c0 -102 -43 -214 -103 -285c-68 -79 -160 -121 -267 -121c-182 0 -298 124 -298 320c0 240 155 413 369 413c202 0 299 -136 299 -327zM698 402c0 165 -87 263 -233 263c-88 0 -160 -34 -215 -102c-52 -65 -86 -166 -86 -258
c0 -157 94 -264 232 -264c170 0 302 158 302 361z" />
    <glyph glyph-name="Lambda" unicode="&#x39b;" horiz-adv-x="629" 
d="M491 0l-72 644l-346 -644h-74l392 706h80l88 -706h-68z" />
    <glyph glyph-name="Xi" unicode="&#x39e;" horiz-adv-x="635" 
d="M40 0l14 64h521l-14 -64h-521zM188 643l14 63h483l-14 -63h-483zM157 332l15 64h401l-15 -64h-401z" />
    <glyph glyph-name="Pi" unicode="&#x3a0;" horiz-adv-x="707" 
d="M751 706l-163 -706h-64l149 649h-410l-150 -649h-63l162 706h539z" />
    <glyph glyph-name="Sigma" unicode="&#x3a3;" horiz-adv-x="612" 
d="M527 0h-522l10 44l318 325l-164 291l10 46h483l-13 -58h-400l156 -281l-296 -309h431z" />
    <glyph glyph-name="Iotadieresis" unicode="&#x3aa;" horiz-adv-x="233" 
d="M277 706l-163 -706h-64l162 706h65zM404 876l-21 -97h-68l21 97h68zM222 876l-22 -97h-68l22 97h68z" />
    <glyph glyph-name="Alpha" unicode="&#x391;" horiz-adv-x="634" 
d="M571 0h-68l-29 227h-276l-125 -227h-74l398 706h80zM468 288l-42 360l-194 -360h236z" />
    <glyph glyph-name="Beta" unicode="&#x392;" horiz-adv-x="657" 
d="M212 706h218c84 0 112 -3 146 -17c54 -22 86 -76 86 -144c0 -94 -56 -160 -164 -177c85 -9 130 -59 130 -146c0 -77 -39 -147 -104 -186c-44 -26 -89 -36 -172 -36h-302zM264 648l-58 -250h198c48 0 91 2 128 21c40 20 66 68 66 122c0 75 -44 107 -148 107h-186zM561 218
c0 38 -11 69 -31 89c-23 24 -57 32 -133 32h-206l-64 -281h219c46 0 95 0 133 18c50 23 82 78 82 142z" />
    <glyph glyph-name="Epsilon" unicode="&#x395;" horiz-adv-x="590" 
d="M640 706l-13 -58h-363l-60 -256h333l-14 -58h-332l-64 -276h413l-13 -58h-477l162 706h428z" />
    <glyph glyph-name="Zeta" unicode="&#x396;" horiz-adv-x="567" 
d="M625 706l-15 -60l-511 -588h441l-13 -58h-517l15 67l507 581h-381l14 58h460z" />
    <glyph glyph-name="Eta" unicode="&#x397;" horiz-adv-x="719" 
d="M763 706l-163 -706h-64l79 345h-422l-80 -345h-63l162 706h64l-70 -304h423l70 304h64z" />
    <glyph glyph-name="Iota" unicode="&#x399;" horiz-adv-x="233" 
d="M277 706l-163 -706h-64l162 706h65z" />
    <glyph glyph-name="Kappa" unicode="&#x39a;" horiz-adv-x="626" 
d="M707 706l-319 -263l196 -443h-70l-176 405l-161 -130l-64 -275h-63l162 706h65l-82 -351l425 351h87z" />
    <glyph glyph-name="Mu" unicode="&#x39c;" horiz-adv-x="778" 
d="M822 706l-163 -706h-64l144 586l-344 -586h-75l-76 601l-130 -601h-64l162 706h80l80 -640l373 640h77z" />
    <glyph glyph-name="Phi" unicode="&#x3a6;" horiz-adv-x="800" 
d="M559 706l-15 -66c173 -20 263 -112 263 -246c0 -152 -99 -325 -396 -329l-15 -65h-64l15 68c-213 26 -262 152 -262 252c0 121 80 322 394 322l15 64h65zM741 390c0 82 -43 177 -209 199l-109 -470c246 5 318 155 318 271zM153 320c0 -72 30 -174 207 -198l107 468
c-233 -1 -314 -150 -314 -270z" />
    <glyph glyph-name="Upsilondieresis" unicode="&#x3ab;" horiz-adv-x="562" 
d="M685 706l-346 -399l-71 -307h-65l72 315l-120 391h69l97 -335l281 335h83zM565 876l-21 -97h-68l21 97h68zM383 876l-22 -97h-68l22 97h68z" />
    <glyph glyph-name="Psi" unicode="&#x3a8;" horiz-adv-x="778" 
d="M848 706l-64 -281c-41 -178 -167 -254 -358 -262l-37 -163h-64l37 163c-123 7 -241 54 -241 203c0 25 4 50 10 75l61 265h64l-64 -277c-4 -17 -8 -36 -8 -59c3 -121 100 -149 190 -153l113 489h65l-113 -488c134 10 247 66 279 203l67 285h63z" />
    <glyph glyph-name="Nu" unicode="&#x39d;" horiz-adv-x="671" 
d="M715 706l-163 -706h-69l-233 617l-137 -617h-63l162 706h71l230 -616l137 616h65z" />
    <glyph glyph-name="Omicron" unicode="&#x39f;" horiz-adv-x="757" 
d="M764 393c0 -102 -43 -214 -103 -285c-68 -79 -160 -121 -267 -121c-182 0 -298 124 -298 320c0 240 155 413 369 413c202 0 299 -136 299 -327zM698 402c0 165 -87 263 -233 263c-88 0 -160 -34 -215 -102c-52 -65 -86 -166 -86 -258c0 -157 94 -264 232 -264
c170 0 302 158 302 361z" />
    <glyph glyph-name="Rho" unicode="&#x3a1;" horiz-adv-x="607" 
d="M212 706h226c69 0 108 -6 138 -22c48 -25 78 -84 78 -152c0 -70 -29 -129 -82 -170c-48 -36 -112 -52 -216 -52h-172l-70 -310h-64zM262 648l-64 -280h155c113 0 160 14 197 57c24 28 37 66 37 110c0 79 -37 113 -133 113h-192z" />
    <glyph glyph-name="Tau" unicode="&#x3a4;" horiz-adv-x="523" 
d="M636 706l-12 -57h-211l-149 -649h-66l151 649h-212l12 57h487z" />
    <glyph glyph-name="Upsilon" unicode="&#x3a5;" horiz-adv-x="562" 
d="M685 706l-346 -399l-71 -307h-65l72 315l-120 391h69l97 -335l281 335h83z" />
    <glyph glyph-name="Chi" unicode="&#x3a7;" horiz-adv-x="547" 
d="M648 706l-285 -352l137 -354h-69l-116 307l-242 -307h-76l298 364l-133 342h69l110 -293l232 293h75z" />
    <glyph glyph-name="Alphatonos" unicode="&#x386;" horiz-adv-x="634" 
d="M571 0h-68l-29 227h-276l-125 -227h-74l398 706h80zM468 288l-42 360l-194 -360h236zM280 706l-143 -150h-46l93 150h96z" />
    <glyph glyph-name="Epsilontonos" unicode="&#x388;" horiz-adv-x="590" 
d="M640 706l-13 -58h-363l-60 -256h333l-14 -58h-332l-64 -276h413l-13 -58h-477l162 706h428zM136 706l-143 -150h-46l93 150h96z" />
    <glyph glyph-name="Etatonos" unicode="&#x389;" horiz-adv-x="719" 
d="M763 706l-163 -706h-64l79 345h-422l-80 -345h-63l162 706h64l-70 -304h423l70 304h64zM137 706l-143 -150h-46l93 150h96z" />
    <glyph glyph-name="Iotatonos" unicode="&#x38a;" horiz-adv-x="233" 
d="M277 706l-163 -706h-64l162 706h65zM137 706l-143 -150h-46l93 150h96z" />
    <glyph glyph-name="Omicrontonos" unicode="&#x38c;" horiz-adv-x="757" 
d="M764 393c0 -102 -43 -214 -103 -285c-68 -79 -160 -121 -267 -121c-182 0 -298 124 -298 320c0 240 155 413 369 413c202 0 299 -136 299 -327zM698 402c0 165 -87 263 -233 263c-88 0 -160 -34 -215 -102c-52 -65 -86 -166 -86 -258c0 -157 94 -264 232 -264
c170 0 302 158 302 361zM167 706l-143 -150h-46l93 150h96z" />
    <glyph glyph-name="Upsilontonos" unicode="&#x38e;" horiz-adv-x="562" 
d="M685 706l-346 -399l-71 -307h-65l72 315l-120 391h69l97 -335l281 335h83zM127 706l-143 -150h-46l93 150h96z" />
    <glyph glyph-name="Omegatonos" unicode="&#x38f;" horiz-adv-x="784" 
d="M735 0h-296l12 53c153 79 254 185 254 370c0 151 -92 242 -233 242c-193 0 -301 -157 -301 -339c0 -118 53 -218 178 -273l-12 -53h-278l13 58h165c-84 56 -134 153 -134 270c0 238 160 392 367 392c186 0 301 -108 301 -297c0 -169 -80 -285 -214 -365h191zM177 706
l-143 -150h-46l93 150h96z" />
    <glyph glyph-name="alpha" unicode="&#x3b1;" horiz-adv-x="520" 
d="M417 293c0 87 -43 138 -117 138c-99 0 -174 -107 -174 -249c0 -89 40 -140 108 -140c110 0 183 126 183 251zM375 78c-35 -56 -91 -87 -158 -87c-98 0 -152 68 -152 191c0 168 100 298 231 298c78 0 126 -36 146 -108l22 99h59l-79 -353c-6 -26 -8 -39 -8 -47
c0 -17 8 -25 24 -25c9 0 14 1 29 7l-11 -50c-13 -4 -28 -5 -40 -5c-52 0 -65 26 -65 56c0 8 1 16 2 24z" />
    <glyph glyph-name="beta" unicode="&#x3b2;" horiz-adv-x="516" 
d="M275 370l11 53h9c74 0 169 53 169 160c0 48 -28 87 -95 87c-104 0 -139 -109 -153 -174l-58 -256c-6 -25 -9 -47 -9 -68c0 -68 50 -134 133 -134c103 0 158 99 158 200c0 76 -36 132 -139 132h-26zM501 236c0 -104 -63 -248 -217 -248c-96 0 -142 56 -158 112l-71 -316
h-59l162 716c31 139 97 216 214 216c113 0 150 -70 150 -134c0 -85 -64 -161 -152 -181c93 -18 131 -84 131 -165z" />
    <glyph glyph-name="psi" unicode="&#x3c8;" horiz-adv-x="639" 
d="M530 208l61 263h58l-63 -271c-42 -179 -152 -204 -273 -211l-48 -205h-58l48 205c-83 7 -181 33 -181 150c0 23 3 50 10 81l59 251h58l-58 -250c-7 -32 -11 -61 -11 -82c0 -80 70 -94 133 -102l135 584h58l-135 -585c86 8 174 30 207 172z" />
    <glyph glyph-name="delta" unicode="&#x3b4;" horiz-adv-x="521" 
d="M307 467c-75 30 -104 80 -104 124c0 96 82 125 150 125c105 0 153 -49 159 -127l-53 -13c-4 65 -43 94 -107 94c-55 0 -90 -30 -90 -76c0 -54 49 -84 110 -114c102 -50 134 -116 134 -195c0 -185 -126 -297 -252 -297c-105 0 -187 72 -187 192c0 129 86 276 240 287z
M324 426c-114 0 -197 -120 -197 -245c0 -104 69 -143 132 -143c85 0 186 89 186 244c0 77 -30 144 -121 144z" />
    <glyph glyph-name="epsilon" unicode="&#x3b5;" horiz-adv-x="471" 
d="M346 280l-10 -45h-74c-67 0 -155 -28 -155 -113c0 -51 30 -85 127 -85c53 0 128 17 171 93l54 -22c-58 -95 -135 -120 -227 -120c-107 0 -185 35 -185 125c0 77 64 140 145 148c-62 11 -87 50 -87 84c0 103 90 138 186 138c130 0 174 -63 185 -133l-57 -14
c-5 38 -20 101 -127 101c-72 0 -127 -28 -127 -91c0 -42 38 -66 102 -66h79z" />
    <glyph glyph-name="phi" unicode="&#x3c6;" horiz-adv-x="622" 
d="M457 621l-33 -145c128 -21 185 -111 185 -210c0 -170 -140 -271 -297 -274l-48 -208h-58l48 211c-111 17 -187 92 -187 209c0 150 113 273 299 275l33 142h58zM551 266c0 102 -68 148 -138 162l-90 -388c125 5 228 84 228 226zM129 203c0 -102 66 -146 137 -160l89 389
c-131 -2 -226 -92 -226 -229z" />
    <glyph glyph-name="gamma" unicode="&#x3b3;" horiz-adv-x="478" 
d="M535 471l-294 -471l-48 -216h-59l50 222l-40 351c-6 57 -17 62 -43 62h-12l12 52h15c46 0 80 -8 87 -85l28 -311l236 396h68z" />
    <glyph glyph-name="eta" unicode="&#x3b7;" horiz-adv-x="541" 
d="M220 401c49 57 99 82 164 82c81 0 132 -46 132 -119c0 -24 -3 -50 -13 -92l-111 -487h-59l112 486c7 29 13 56 13 76c0 54 -25 85 -89 85c-56 0 -102 -24 -138 -72c-23 -31 -32 -54 -49 -128l-53 -232h-58l87 381c2 6 3 14 3 20c0 15 -6 27 -24 27c-9 0 -14 -1 -29 -7
l11 50c19 5 25 6 35 6c44 0 69 -22 69 -56c0 -6 -1 -13 -3 -20z" />
    <glyph glyph-name="iota" unicode="&#x3b9;" horiz-adv-x="221" 
d="M224 471l-82 -363c-6 -26 -8 -39 -8 -47c0 -19 9 -25 24 -25c9 0 14 1 29 7l-11 -50c-13 -4 -28 -5 -40 -5c-48 0 -62 28 -62 61c0 9 1 19 3 29l88 393h59z" />
    <glyph glyph-name="xi" unicode="&#x3be;" horiz-adv-x="470" 
d="M285 391c-75 10 -103 56 -103 106c0 84 76 150 140 162h-113l11 47h340l-11 -47h-75c-128 0 -230 -54 -230 -161c0 -73 72 -87 126 -87h67l-11 -47h-78c-99 0 -221 -71 -221 -207c0 -52 32 -89 151 -98c71 -6 110 -26 110 -81c0 -75 -42 -116 -108 -183l-39 35
c60 53 90 79 90 129c0 30 -23 39 -72 42c-108 7 -198 47 -198 148c0 123 98 218 224 242z" />
    <glyph glyph-name="kappa" unicode="&#x3ba;" horiz-adv-x="482" 
d="M211 471l-57 -247l247 214c35 30 53 33 108 33l-13 -53c-38 0 -41 -2 -94 -48l-118 -103l181 -267h-69l-160 230l-100 -87l-33 -143h-58l107 471h59z" />
    <glyph glyph-name="lambda" unicode="&#x3bb;" horiz-adv-x="480" 
d="M330 100l-28 293l-235 -393h-68l295 478l-10 110c-5 51 -8 76 -41 76c-15 0 -32 -1 -62 -18l11 51c12 7 35 19 67 19c66 0 72 -48 81 -137l47 -452c9 -88 15 -91 36 -91c6 0 10 0 25 7l-12 -50c-18 -5 -22 -6 -34 -6c-48 0 -63 10 -72 113z" />
    <glyph glyph-name="nu" unicode="&#x3bd;" horiz-adv-x="421" 
d="M408 336l-204 -336h-68l-45 471h63l33 -404l169 289c23 40 42 62 42 115h60c0 -62 -28 -99 -50 -135z" />
    <glyph glyph-name="omicron" unicode="&#x3bf;" horiz-adv-x="521" 
d="M506 278c0 -161 -112 -290 -251 -290c-114 0 -188 81 -188 205c0 164 110 290 253 290c63 0 186 -30 186 -205zM445 288c0 117 -70 147 -127 147c-109 0 -191 -104 -191 -243c0 -95 50 -154 131 -154c103 0 187 109 187 250z" />
    <glyph glyph-name="rho" unicode="&#x3c1;" horiz-adv-x="513" 
d="M498 289c0 -169 -107 -298 -237 -298c-69 0 -126 36 -147 109l-70 -316h-59l109 486c28 126 111 213 232 213c128 0 172 -99 172 -194zM137 171c0 -66 50 -131 120 -131c99 0 181 110 181 253c0 85 -39 142 -118 142c-99 0 -157 -80 -178 -208c-3 -20 -5 -39 -5 -56z" />
    <glyph glyph-name="sigma" unicode="&#x3c3;" horiz-adv-x="525" 
d="M504 271c0 -157 -112 -283 -251 -283c-114 0 -188 79 -188 201c0 161 110 282 253 282h251l-11 -53h-125c51 -30 71 -92 71 -147zM443 282c0 115 -70 139 -127 139c-109 0 -191 -97 -191 -233c0 -93 50 -150 131 -150c103 0 187 106 187 244z" />
    <glyph glyph-name="tau" unicode="&#x3c4;" horiz-adv-x="397" 
d="M286 418l-64 -277c-5 -23 -11 -53 -11 -61c0 -20 11 -29 35 -29c13 0 25 2 51 8l-11 -48c-23 -10 -45 -14 -68 -14c-42 0 -67 25 -67 67c0 15 2 29 7 50l69 304h-78c-11 0 -41 -3 -71 -18l-11 -6l14 57c39 19 70 20 107 20h257l-13 -53h-146z" />
    <glyph glyph-name="theta" unicode="&#x3b8;" horiz-adv-x="516" 
d="M237 -12c-118 0 -162 79 -162 205c0 139 47 523 281 523c132 0 164 -109 164 -210c0 -222 -82 -518 -283 -518zM451 397c4 31 8 67 8 115c0 82 -21 158 -107 158c-122 0 -173 -168 -195 -273h294zM443 350h-294c-8 -44 -15 -90 -15 -139c0 -96 25 -173 106 -173
c119 0 177 165 203 312z" />
    <glyph glyph-name="omega" unicode="&#x3c9;" horiz-adv-x="635" 
d="M309 186l33 144h58l-33 -148c-5 -21 -10 -44 -10 -66c0 -43 20 -78 63 -78c121 0 156 253 156 303c0 79 -39 92 -80 94l11 48c74 -4 128 -41 128 -139c0 -77 -34 -356 -216 -356c-52 0 -104 32 -105 91c-28 -60 -83 -91 -136 -91c-85 0 -118 58 -118 133
c0 104 40 216 71 267c44 73 104 95 169 95l-11 -48c-37 0 -80 -14 -114 -81c-25 -49 -55 -144 -55 -238c0 -48 19 -78 64 -78c74 0 109 82 125 148z" />
    <glyph glyph-name="sigma1" unicode="&#x3c2;" horiz-adv-x="461" 
d="M327 483c94 0 155 -57 164 -143l-58 -14c-12 75 -47 110 -116 110c-142 0 -190 -143 -190 -249c0 -67 34 -114 135 -134c46 -9 93 -24 93 -82c0 -71 -47 -111 -108 -176l-40 35c59 52 90 78 90 127c0 33 -27 45 -72 54c-114 22 -158 79 -158 169c0 161 93 303 260 303z
" />
    <glyph glyph-name="chi" unicode="&#x3c7;" horiz-adv-x="456" 
d="M513 471l-256 -335l56 -218c21 -80 23 -91 57 -91c8 0 11 1 25 7l-12 -50c-17 -5 -22 -6 -34 -6c-48 0 -70 13 -93 113l-44 185l-219 -291h-68l271 356l-54 216c-17 70 -23 72 -47 72c-6 0 -19 -3 -28 -8l12 50c13 5 31 8 40 8c55 0 62 -22 77 -86l45 -192l203 270h69z
" />
    <glyph glyph-name="upsilon" unicode="&#x3c5;" horiz-adv-x="504" 
d="M202 471l-59 -259c-5 -24 -10 -49 -10 -69c0 -64 30 -104 103 -104c83 0 134 54 154 143l66 289h58l-67 -294c-23 -102 -72 -190 -216 -190c-90 0 -157 51 -157 152c0 18 4 45 8 62l62 270h58z" />
    <glyph glyph-name="zeta" unicode="&#x3b6;" horiz-adv-x="405" 
d="M525 706l-14 -57c-151 -107 -405 -288 -405 -490c0 -75 36 -97 126 -104c71 -5 111 -22 111 -77c0 -75 -43 -117 -109 -183l-39 35c56 53 91 79 91 129c0 31 -24 39 -73 42c-105 7 -168 56 -168 145c0 195 198 365 393 507h-269l13 53h343z" />
    <glyph glyph-name="alphatonos" unicode="&#x3ac;" horiz-adv-x="520" 
d="M417 293c0 87 -43 138 -117 138c-99 0 -174 -107 -174 -249c0 -89 40 -140 108 -140c110 0 183 126 183 251zM375 78c-35 -56 -91 -87 -158 -87c-98 0 -152 68 -152 191c0 168 100 298 231 298c78 0 126 -36 146 -108l22 99h59l-79 -353c-6 -26 -8 -39 -8 -47
c0 -17 8 -25 24 -25c9 0 14 1 29 7l-11 -50c-13 -4 -28 -5 -40 -5c-52 0 -65 26 -65 56c0 8 1 16 2 24zM483 683l-143 -150h-46l93 150h96z" />
    <glyph glyph-name="upsilontonos" unicode="&#x3cd;" horiz-adv-x="504" 
d="M202 471l-59 -259c-5 -24 -10 -49 -10 -69c0 -64 30 -104 103 -104c83 0 134 54 154 143l66 289h58l-67 -294c-23 -102 -72 -190 -216 -190c-90 0 -157 51 -157 152c0 18 4 45 8 62l62 270h58zM506 683l-143 -150h-46l93 150h96z" />
    <glyph glyph-name="epsilontonos" unicode="&#x3ad;" horiz-adv-x="471" 
d="M346 280l-10 -45h-74c-67 0 -155 -28 -155 -113c0 -51 30 -85 127 -85c53 0 128 17 171 93l54 -22c-58 -95 -135 -120 -227 -120c-107 0 -185 35 -185 125c0 77 64 140 145 148c-62 11 -87 50 -87 84c0 103 90 138 186 138c130 0 174 -63 185 -133l-57 -14
c-5 38 -20 101 -127 101c-72 0 -127 -28 -127 -91c0 -42 38 -66 102 -66h79zM492 683l-143 -150h-46l93 150h96z" />
    <glyph glyph-name="etatonos" unicode="&#x3ae;" horiz-adv-x="541" 
d="M220 401c49 57 99 82 164 82c81 0 132 -46 132 -119c0 -24 -3 -50 -13 -92l-111 -487h-59l112 486c7 29 13 56 13 76c0 54 -25 85 -89 85c-56 0 -102 -24 -138 -72c-23 -31 -32 -54 -49 -128l-53 -232h-58l87 381c2 6 3 14 3 20c0 15 -6 27 -24 27c-9 0 -14 -1 -29 -7
l11 50c19 5 25 6 35 6c44 0 69 -22 69 -56c0 -6 -1 -13 -3 -20zM549 683l-143 -150h-46l93 150h96z" />
    <glyph glyph-name="iotatonos" unicode="&#x3af;" horiz-adv-x="221" 
d="M224 471l-82 -363c-6 -26 -8 -39 -8 -47c0 -19 9 -25 24 -25c9 0 14 1 29 7l-11 -50c-13 -4 -28 -5 -40 -5c-48 0 -62 28 -62 61c0 9 1 19 3 29l88 393h59zM365 683l-143 -150h-46l93 150h96z" />
    <glyph glyph-name="omicrontonos" unicode="&#x3cc;" horiz-adv-x="521" 
d="M506 278c0 -161 -112 -290 -251 -290c-114 0 -188 81 -188 205c0 164 110 290 253 290c63 0 186 -30 186 -205zM445 288c0 117 -70 147 -127 147c-109 0 -191 -104 -191 -243c0 -95 50 -154 131 -154c103 0 187 109 187 250zM511 683l-143 -150h-46l93 150h96z" />
    <glyph glyph-name="upsilondieresistonos" unicode="&#x3b0;" horiz-adv-x="504" 
d="M202 471l-59 -259c-5 -24 -10 -49 -10 -69c0 -64 30 -104 103 -104c83 0 134 54 154 143l66 289h58l-67 -294c-23 -102 -72 -190 -216 -190c-90 0 -157 51 -157 152c0 18 4 45 8 62l62 270h58zM531 674l-22 -92h-63l22 92h63zM300 674l-21 -92h-64l23 92h62zM473 732
l-108 -150h-46l58 150h96z" />
    <glyph glyph-name="iotadieresistonos" unicode="&#x390;" horiz-adv-x="221" 
d="M224 471l-82 -363c-6 -26 -8 -39 -8 -47c0 -19 9 -25 24 -25c9 0 14 1 29 7l-11 -50c-13 -4 -28 -5 -40 -5c-48 0 -62 28 -62 61c0 9 1 19 3 29l88 393h59zM401 674l-22 -92h-63l22 92h63zM170 674l-21 -92h-64l23 92h62zM343 732l-108 -150h-46l58 150h96z" />
    <glyph glyph-name="upsilondieresis" unicode="&#x3cb;" horiz-adv-x="504" 
d="M202 471l-59 -259c-5 -24 -10 -49 -10 -69c0 -64 30 -104 103 -104c83 0 134 54 154 143l66 289h58l-67 -294c-23 -102 -72 -190 -216 -190c-90 0 -157 51 -157 152c0 18 4 45 8 62l62 270h58zM491 674l-22 -92h-63l22 92h63zM307 674l-21 -92h-64l23 92h62z" />
    <glyph glyph-name="iotadieresis" unicode="&#x3ca;" horiz-adv-x="221" 
d="M224 471l-82 -363c-6 -26 -8 -39 -8 -47c0 -19 9 -25 24 -25c9 0 14 1 29 7l-11 -50c-13 -4 -28 -5 -40 -5c-48 0 -62 28 -62 61c0 9 1 19 3 29l88 393h59zM365 674l-22 -92h-63l22 92h63zM181 674l-21 -92h-64l23 92h62z" />
    <glyph glyph-name="omegatonos" unicode="&#x3ce;" horiz-adv-x="635" 
d="M309 186l33 144h58l-33 -148c-5 -21 -10 -44 -10 -66c0 -43 20 -78 63 -78c121 0 156 253 156 303c0 79 -39 92 -80 94l11 48c74 -4 128 -41 128 -139c0 -77 -34 -356 -216 -356c-52 0 -104 32 -105 91c-28 -60 -83 -91 -136 -91c-85 0 -118 58 -118 133
c0 104 40 216 71 267c44 73 104 95 169 95l-11 -48c-37 0 -80 -14 -114 -81c-25 -49 -55 -144 -55 -238c0 -48 19 -78 64 -78c74 0 109 82 125 148zM616 683l-143 -150h-46l93 150h96z" />
    <glyph glyph-name="numbersign.oldstyle" horiz-adv-x="582" 
d="M579 308h-137l-30 -97h130l-10 -54h-137l-54 -171h-55l54 171h-104l-54 -171h-58l54 171h-128l10 54h135l30 97h-127l10 57h135l54 171h58l-54 -171h104l54 171h55l-54 -171h129zM387 308h-104l-30 -97h104z" />
    <glyph glyph-name="dollar.oldstyle" horiz-adv-x="508" 
d="M501 385l-58 -5c-10 56 -47 85 -90 91l-42 -182c119 -40 147 -86 147 -138c0 -96 -69 -154 -212 -154l-18 -80h-51l21 87c-102 22 -149 84 -164 156l63 5c13 -55 41 -94 112 -113l42 190c-115 45 -130 93 -130 137c0 62 41 146 195 146l17 78h50l-18 -81
c71 -12 129 -59 136 -137zM265 303l39 172c-87 0 -123 -41 -123 -83c0 -32 12 -66 84 -89zM257 45c81 0 140 25 140 89c0 32 -20 73 -99 94z" />
    </font>
</defs>
</svg>
