<?xml version="1.0" standalone="no"?>
<!DOCTYPE svg PUBLIC "-//W3C//DTD SVG 1.1//EN" "http://www.w3.org/Graphics/SVG/1.1/DTD/svg11.dtd" >
<svg xmlns="http://www.w3.org/2000/svg" xmlns:xlink="http://www.w3.org/1999/xlink" version="1.1">
<metadata>
Created by FontForge 20170910 at Wed Oct  4 16:01:08 2006
 By Jimmy Wärting
Copyright (c) 2006 Linotype GmbH, www.linotype.com. All rights reserved. This font software may not be reproduced, modified, disclosed or transferred without the express written approval of Linotype GmbH. Helvetica is a trademark of Linotype GmbH and may be registered in certain jurisdictions. This typeface is original artwork of Linotype Design Studio. The design may be protected in certain jurisdictions.
</metadata>
<defs>
<font id="HelveticaDLHCGH-Light" horiz-adv-x="542" >
  <font-face 
    font-family="DLH Helvetica CGH Light"
    font-weight="300"
    font-stretch="normal"
    units-per-em="1000"
    panose-1="2 11 3 3 4 0 0 2 0 4"
    ascent="706"
    descent="-294"
    x-height="512"
    cap-height="706"
    bbox="-174 -269 1055 933"
    underline-thickness="50"
    underline-position="-100"
    unicode-range="U+000D-FB02"
  />
<missing-glyph horiz-adv-x="271" 
 />
    <glyph glyph-name="IJ" unicode="IJ" horiz-adv-x="727" 
d="M90 0v706h70v-706h-70zM594 706h70v-502q0 -109 -51 -162.5t-143 -53.5q-198 0 -198 205v16.5t1 21.5h67q-1 -12 -1 -16.5v-11.5q0 -156 131 -156q59 0 91.5 37.5t32.5 127.5v494z" />
    <glyph glyph-name="ij" unicode="ij" horiz-adv-x="421" 
d="M75 0v512h64v-512h-64zM75 616v90h64v-90h-64zM353 -80q0 -56 -29.5 -81.5t-81.5 -25.5q-8 0 -18.5 0.5t-21.5 2.5v54q8 -1 18 -1.5t17 -0.5q29 0 40.5 16t11.5 48v580h64v-592zM289 616v90h64v-90h-64z" />
    <glyph glyph-name="napostrophe" unicode="&#x22;n" horiz-adv-x="549" 
d="M150 428q17 43 57.5 70t105.5 27q37 0 68.5 -10t54.5 -31t35.5 -53.5t12.5 -77.5v-353h-64v333q0 61 -26.5 98t-91.5 37q-36 0 -63.5 -13t-46.5 -35.5t-29 -53t-10 -65.5v-301h-64v512h61v-84zM79 707l-61 -164h-46l30 164h77z" />
    <glyph glyph-name="fi" unicode="fi" horiz-adv-x="455" 
d="M89 0v463h-73v49h73v95q0 56 29.5 81.5t81.5 25.5q8 0 18.5 -0.5t21.5 -2.5v-54q-8 1 -18 1.5t-17 0.5q-29 0 -40.5 -16t-11.5 -48v-83h87v-49h-87v-463h-64zM323 0v512h64v-512h-64zM323 616v90h64v-90h-64z" />
    <glyph glyph-name="fl" unicode="fl" horiz-adv-x="455" 
d="M89 0v463h-73v49h73v95q0 56 29.5 81.5t81.5 25.5q8 0 18.5 -0.5t21.5 -2.5v-54q-8 1 -18 1.5t-17 0.5q-29 0 -40.5 -16t-11.5 -48v-83h87v-49h-87v-463h-64zM323 0v706h64v-706h-64z" />
    <glyph glyph-name=".notdef" horiz-adv-x="271" 
 />
    <glyph glyph-name=".null" horiz-adv-x="0" 
 />
    <glyph glyph-name="nonmarkingreturn" unicode="&#xd;" horiz-adv-x="271" 
 />
    <glyph glyph-name="space" unicode=" " horiz-adv-x="271" 
 />
    <glyph glyph-name="exclam" unicode="!" horiz-adv-x="271" 
d="M94 0v92h86v-92h-86zM114 177l-13 299v230h73v-231l-14 -298h-46z" />
    <glyph glyph-name="quotedbl" unicode="&#x22;" horiz-adv-x="460" 
d="M135 749q20 0 32 -12t12 -30q0 -6 -0.5 -13t-1.5 -13l-33 -236h-19l-32 236q-1 6 -1.5 13t-0.5 13q0 18 12 30t32 12zM324 749q20 0 32 -12t12 -30q0 -6 -0.5 -13t-1.5 -13l-33 -236h-19l-32 236q-1 6 -1.5 13t-0.5 13q0 18 12 30t32 12z" />
    <glyph glyph-name="numbersign" unicode="#" 
d="M268 0l35 239h-101l-35 -239h-58l33 239h-102v54h110l19 137h-107v57h114l29 220h63l-31 -220h100l28 220h60l-30 -220h103v-57h-110l-19 -137h108v-54h-115l-32 -239h-62zM329 430h-100l-20 -137h101z" />
    <glyph glyph-name="dollar" unicode="$" 
d="M244 -100v94q-37 1 -74.5 13t-68 37.5t-50 66.5t-20.5 101h68q0 -39 11.5 -68.5t31 -49.5t46.5 -31t57 -14v295q-54 10 -90.5 26t-59.5 39t-33 53.5t-10 70.5q0 36 11.5 68.5t35.5 58t60.5 41t86.5 18.5v92h47v-92q30 0 62.5 -10t60 -31t46.5 -54.5t21 -82.5h-65
q-4 35 -17 58.5t-31 37.5t-38.5 20t-39.5 8v-267l38 -9q48 -12 81.5 -29.5t53.5 -41t29 -52t9 -61.5q0 -41 -13.5 -78.5t-40.5 -66t-66.5 -46.5t-90.5 -20v-94h-48zM292 49q67 4 105 44.5t38 105.5q0 54 -32 85t-90 45l-21 5v-285zM245 665q-66 -5 -96 -41t-30 -87
q0 -54 27.5 -85t98.5 -45v258z" />
    <glyph glyph-name="percent" unicode="%" horiz-adv-x="840" 
d="M163 0l460 706h56l-458 -706h-58zM182 263q-80 0 -114 59t-34 170q0 50 9 92t27 72.5t46 47.5t66 17q80 0 114 -59t34 -170q0 -50 -8.5 -92t-26.5 -72.5t-46 -47.5t-67 -17zM182 307q26 0 44 13.5t29.5 38.5t17 58.5t5.5 74.5q0 88 -21 136t-75 48q-26 0 -44.5 -13.5
t-29.5 -38t-16 -58.5t-5 -74q0 -88 21 -136.5t74 -48.5zM662 -15q-80 0 -114 59t-34 170q0 50 9 92t27 72.5t46 47.5t66 17q80 0 114 -59t34 -170q0 -50 -8.5 -92t-26.5 -72.5t-46 -47.5t-67 -17zM662 29q26 0 44 13.5t29.5 38.5t17 58.5t5.5 74.5q0 88 -21 136t-75 48
q-26 0 -44.5 -13.5t-29.5 -38t-16 -58.5t-5 -74q0 -88 21 -136.5t74 -48.5z" />
    <glyph glyph-name="ampersand" unicode="&#x26;" horiz-adv-x="625" 
d="M558 0l-75 89q-17 -21 -38 -39.5t-47 -32.5t-59 -22t-73 -8q-55 0 -97 16.5t-70 45.5t-42.5 67t-14.5 82q0 42 14.5 76.5t37.5 61t53 46t62 33.5q-30 38 -50 72t-20 79q0 33 12.5 59.5t34 45.5t50 29t59.5 10q35 0 62 -12t45 -31.5t27.5 -45.5t9.5 -53q0 -60 -38 -100.5
t-98 -68.5l175 -208q10 19 17.5 52.5t8.5 79.5h66q-5 -57 -18 -101t-34 -81l117 -141h-77zM244 371q-28 -11 -52 -27t-42 -37t-28 -47.5t-10 -59.5q0 -29 9.5 -57t29 -50t50 -35.5t71.5 -13.5q53 0 98 24t74 69zM267 442q59 25 83.5 56.5t24.5 69.5q0 33 -22.5 57.5
t-60.5 24.5q-36 0 -62 -22.5t-26 -60.5q0 -26 14 -54t49 -71z" />
    <glyph glyph-name="quotesingle" unicode="'" horiz-adv-x="271" 
d="M135 749q20 0 32 -12t12 -30q0 -6 -0.5 -13t-1.5 -13l-33 -236h-19l-32 236q-1 6 -1.5 13t-0.5 13q0 18 12 30t32 12z" />
    <glyph glyph-name="parenleft" unicode="(" horiz-adv-x="271" 
d="M135 264q0 -66 8.5 -123.5t24 -110.5t39 -104.5t53.5 -103.5h-54q-27 48 -52 97t-44 102.5t-30 113t-11 128.5q0 67 10.5 127.5t29.5 115t45 104t57 96.5h49q-30 -50 -53.5 -100.5t-39.5 -104.5t-24 -112.5t-8 -124.5z" />
    <glyph glyph-name="parenright" unicode=")" horiz-adv-x="271" 
d="M136 264q0 66 -8.5 123.5t-24 110.5t-39 104t-53.5 104h54q27 -48 52 -97t44 -102.5t30 -113t11 -128.5q0 -68 -10.5 -128t-29.5 -114.5t-45 -104.5t-57 -96h-49q30 50 53.5 100.5t39.5 104.5t24 112.5t8 124.5z" />
    <glyph glyph-name="asterisk" unicode="*" horiz-adv-x="350" 
d="M243 417l-68 98l-66 -97l-45 31l71 92l-111 37l19 50l108 -40l-8 118h58l-2 -118l112 40l15 -51l-111 -34l72 -94z" />
    <glyph glyph-name="plus" unicode="+" 
d="M30 262v60h211v210h60v-210h209v-60h-209v-211h-60v211h-211z" />
    <glyph glyph-name="comma" unicode="," horiz-adv-x="271" 
d="M133 0h-42v104h89v-111q0 -25 -4 -47.5t-14.5 -40.5t-27.5 -30t-44 -16v46q22 8 32.5 26.5t10.5 53.5v15z" />
    <glyph glyph-name="hyphen" unicode="-" horiz-adv-x="333" 
d="M37 249v62h259v-62h-259z" />
    <glyph glyph-name="period" unicode="." horiz-adv-x="271" 
d="M91 0v104h89v-104h-89z" />
    <glyph glyph-name="slash" unicode="/" horiz-adv-x="333" 
d="M-4 0l274 706h61l-273 -706h-62z" />
    <glyph glyph-name="zero" unicode="0" 
d="M270 -15q-62 0 -105.5 25t-71.5 72t-40.5 115.5t-12.5 155.5q0 79 13.5 146.5t41.5 117t72 77t104 27.5q62 0 105.5 -24.5t71.5 -72t40.5 -115.5t12.5 -155q0 -80 -13.5 -147.5t-41.5 -116.5t-72 -77t-104 -28zM270 43q43 0 74 23.5t50 65.5t28 99t9 123q0 72 -8 129
t-27 96.5t-50 60.5t-76 21q-44 0 -74.5 -23t-49.5 -64.5t-27.5 -98t-8.5 -122.5q0 -72 8.5 -129.5t27.5 -97.5t49.5 -61.5t74.5 -21.5z" />
    <glyph glyph-name="one" unicode="1" 
d="M267 0v532h-166v45q38 0 69.5 6t55 20.5t38 39.5t17.5 63h51v-706h-65z" />
    <glyph glyph-name="two" unicode="2" 
d="M39 0q0 4 -0.5 9t-0.5 11q0 42 9 77.5t29 68t53 61.5t80 58l106 64q47 28 76 67.5t29 97.5q0 66 -37 105.5t-103 39.5q-46 0 -75.5 -14.5t-47 -38.5t-24.5 -55t-7 -64h-71q0 42 12 84t38.5 75t69.5 54t106 21q48 0 87 -15t66 -42t42 -64t15 -81q0 -40 -11 -73t-31 -60.5
t-47 -50t-59 -41.5l-94 -56q-41 -24 -68 -46.5t-42.5 -44t-22 -42.5t-6.5 -43h375v-62h-446z" />
    <glyph glyph-name="three" unicode="3" 
d="M215 402q16 -1 26 -1h23q31 0 57 9.5t45 27.5t29.5 43t10.5 55q0 52 -36.5 88t-105.5 36q-72 0 -109 -43t-37 -118h-67q0 44 12 84.5t38 71t66.5 48.5t97.5 18q52 0 91 -15t65 -40.5t39 -58.5t13 -70q0 -33 -9 -58.5t-24 -44.5t-34 -32t-39 -21q22 -6 45 -18.5
t41.5 -33.5t30 -51t11.5 -71q0 -50 -17.5 -91t-49 -70t-74 -45t-91.5 -16q-56 0 -98.5 17t-71.5 46.5t-43.5 70.5t-14.5 89h69q0 -36 10.5 -65.5t30.5 -51t50 -33.5t69 -12q36 0 65.5 11t51 31.5t33.5 49.5t12 66q0 34 -12.5 61t-34 46t-51.5 28.5t-66 9.5h-21t-26 -1v54z
" />
    <glyph glyph-name="four" unicode="4" 
d="M338 0v178h-311v55l318 473h56v-472h98v-56h-98v-178h-63zM338 606l-241 -372h241v372z" />
    <glyph glyph-name="five" unicode="5" 
d="M59 331l57 375h339v-66h-288l-33 -219q23 17 57.5 29t82.5 12q52 0 93 -17.5t69.5 -48.5t43 -73.5t14.5 -93.5q0 -53 -17 -98t-48 -77.5t-75 -50.5t-98 -18q-94 0 -152.5 52t-66.5 144h66q9 -67 52 -101.5t103 -34.5q37 0 68 12.5t53 36t34 56.5t12 75q0 38 -10.5 70
t-31 55.5t-51 36.5t-70.5 13q-57 0 -90.5 -21t-52.5 -48h-60z" />
    <glyph glyph-name="six" unicode="6" 
d="M422 540q-2 24 -10.5 46t-24.5 38.5t-39.5 26t-56.5 9.5q-57 0 -93.5 -31t-57.5 -79t-29 -106t-8 -112q9 18 24 39t38 38.5t54.5 29t72.5 11.5q47 0 86 -15.5t67 -45t43.5 -72t15.5 -96.5q0 -53 -16.5 -96t-46.5 -74.5t-71.5 -48.5t-90.5 -17q-64 0 -110 25t-75 70.5
t-43 109t-14 139.5t14 146.5t44.5 125t79 87.5t118.5 33q47 0 83 -14.5t61 -39t38.5 -57.5t15.5 -70h-69zM431 221q0 41 -12 73t-32.5 53.5t-48 32.5t-58.5 11q-32 0 -60 -12t-50 -34.5t-34.5 -55t-12.5 -74.5q0 -35 10.5 -66t31 -54t49.5 -37t66 -14q67 0 109 46t42 131z
" />
    <glyph glyph-name="seven" unicode="7" 
d="M143 0q7 67 27.5 147t55 164t83.5 168.5t114 161.5h-374v65h443v-64q-68 -80 -116.5 -166.5t-81 -171.5t-51.5 -163.5t-27 -140.5h-73z" />
    <glyph glyph-name="eight" unicode="8" 
d="M372 390q26 -8 50.5 -23.5t43 -39t29.5 -55t11 -71.5q0 -48 -16.5 -88t-47.5 -68.5t-74 -44t-95 -15.5q-53 0 -96.5 15.5t-74.5 43.5t-48 68t-17 89q0 38 10.5 68.5t28.5 53.5t41.5 38.5t49.5 23.5q-48 20 -75 57.5t-27 92.5q0 38 14 71.5t41 59t66 40.5t88 15
q43 0 80 -12.5t64 -36.5t42 -58.5t15 -78.5q0 -28 -8.5 -51.5t-22.5 -41.5t-32.5 -31.5t-39.5 -20.5zM437 201q0 33 -11.5 61.5t-32.5 49.5t-51.5 32.5t-68.5 11.5q-40 0 -71 -12.5t-52 -33.5t-32 -49t-11 -60t11 -60.5t32 -50t52 -34t71 -12.5q74 0 119 41t45 116zM407 535
q0 60 -37 93.5t-97 33.5q-66 0 -102 -35.5t-36 -91.5q0 -55 36.5 -90t101.5 -35q63 0 98.5 36.5t35.5 88.5z" />
    <glyph glyph-name="nine" unicode="9" 
d="M119 166q2 -24 10.5 -46t24 -38t39.5 -25.5t57 -9.5q60 0 97 30.5t57 78.5t27 106.5t7 114.5q-9 -18 -24 -38.5t-38 -37.5t-54.5 -28t-72.5 -11q-47 0 -86 15t-67 43.5t-43.5 70.5t-15.5 95q0 52 17 95.5t47 74.5t71.5 48t90.5 17q64 0 109.5 -24.5t75 -69.5t43 -108
t13.5 -139q0 -78 -12.5 -149t-42.5 -126t-79 -87.5t-122 -32.5q-48 0 -84 14.5t-61 39t-38.5 57.5t-14.5 70h69zM110 486q0 -41 12 -72t32.5 -51.5t48 -31t58.5 -10.5t59.5 11t50.5 33t34.5 54t12.5 74q0 34 -10.5 65t-30.5 54t-49 36.5t-66 13.5q-67 0 -109.5 -45.5
t-42.5 -130.5z" />
    <glyph glyph-name="colon" unicode=":" horiz-adv-x="271" 
d="M91 0v104h89v-104h-89zM91 409v103h89v-103h-89z" />
    <glyph glyph-name="semicolon" unicode=";" horiz-adv-x="271" 
d="M91 409v103h89v-103h-89zM133 0h-42v104h89v-111q0 -25 -4 -47.5t-14.5 -40.5t-27.5 -30t-44 -16v46q22 8 32.5 26.5t10.5 53.5v15z" />
    <glyph glyph-name="less" unicode="&#x3c;" 
d="M38 257v70l460 221v-64l-397 -192l398 -189v-64z" />
    <glyph glyph-name="equal" unicode="=" 
d="M30 174v58h482v-58h-482zM30 350v59h482v-59h-482z" />
    <glyph glyph-name="greater" unicode="&#x3e;" 
d="M504 330v-70l-460 -221v64l397 192l-398 189v64z" />
    <glyph glyph-name="question" unicode="?" horiz-adv-x="500" 
d="M472 537q0 -57 -24.5 -95t-63.5 -73l-54 -48q-14 -12 -23 -25.5t-14.5 -30.5t-7.5 -38.5t-2 -49.5h-60q0 34 2 60t9 46.5t18.5 38t31.5 34.5l60 54q58 52 58 125q0 57 -36.5 92.5t-98.5 35.5q-70 0 -111 -43.5t-41 -128.5h-67q0 107 56 168.5t164 61.5q47 0 85 -14
t64.5 -38.5t40.5 -58t14 -73.5zM209 0v92h86v-92h-86z" />
    <glyph glyph-name="at" unicode="@" horiz-adv-x="900" 
d="M594 492h59l-47 -211q-9 -42 -13 -66t-4 -47q0 -20 9.5 -34t28.5 -14q24 0 51 22.5t50 62t38 93t15 115.5q0 60 -22 107.5t-59.5 80.5t-88 50t-107.5 17q-93 0 -164.5 -36.5t-121 -96.5t-75 -137t-25.5 -157q0 -77 24.5 -136.5t68 -100.5t103 -62t130.5 -21
q80 0 163.5 28.5t157.5 88.5l27 -32q-82 -65 -171 -97.5t-179 -32.5q-81 0 -149.5 24t-118 70.5t-77.5 114.5t-28 156t29 173t85.5 151t138.5 106.5t187 40.5q68 0 126.5 -21t101 -60t66.5 -94t24 -123q0 -66 -19 -127.5t-49.5 -109t-69 -76.5t-76.5 -29q-35 0 -60 21.5
t-25 71.5q-24 -42 -60.5 -67t-79.5 -25q-63 0 -100.5 43.5t-37.5 115.5q0 44 13.5 94t40 92t65.5 69.5t90 27.5q53 0 80 -27t39 -68zM557 347q0 33 -9 55t-22.5 35.5t-29.5 19t-30 5.5q-39 0 -67 -24t-46 -58.5t-26.5 -73.5t-8.5 -70q0 -32 8 -52.5t21 -33.5t28 -18t30 -5
q36 0 64 21.5t47.5 54.5t30 71.5t10.5 72.5z" />
    <glyph glyph-name="A" unicode="A" horiz-adv-x="631" 
d="M563 0l-84 223h-312l-85 -223h-72l278 706h72l275 -706h-72zM322 635l-134 -355h270z" />
    <glyph glyph-name="B" unicode="B" horiz-adv-x="656" 
d="M80 706h308q49 0 85 -13.5t60 -37t35.5 -55t11.5 -67.5q0 -54 -27 -97t-80 -60q28 -5 53.5 -19t44.5 -35.5t30 -51.5t11 -67q0 -42 -13 -79t-40.5 -64.5t-70 -43.5t-100.5 -16h-308v706zM380 61q88 0 125.5 34.5t37.5 104.5q0 141 -176 141h-218v-280h231zM368 397
q71 0 108 32t37 98q0 25 -7.5 47.5t-24 39t-42 26t-62.5 9.5h-228v-252h219z" />
    <glyph glyph-name="C" unicode="C" horiz-adv-x="699" 
d="M584 507q-9 33 -26.5 61.5t-44 49t-62 32.5t-80.5 12q-64 0 -111 -24.5t-77.5 -67.5t-45.5 -100t-15 -121t15 -119t46 -96t76.5 -64.5t107.5 -23.5q51 0 90.5 15.5t68 43t45.5 65.5t23 83h69q-20 -132 -98.5 -200t-199.5 -68q-74 0 -131.5 26t-98 73t-61.5 114t-21 150
q0 73 18.5 140.5t58 119t100.5 82.5t145 31q65 0 113.5 -17.5t82 -47t54 -68.5t29.5 -81h-70z" />
    <glyph glyph-name="D" unicode="D" horiz-adv-x="680" 
d="M80 706h267q77 0 132.5 -24.5t91.5 -70t53 -110.5t17 -145q0 -82 -20 -148t-58.5 -112t-93.5 -71t-125 -25h-264v706zM336 57q119 0 178 75t59 221q0 68 -12.5 123t-40.5 93.5t-74 59.5t-113 21h-183v-593h186z" />
    <glyph glyph-name="E" unicode="E" horiz-adv-x="583" 
d="M80 0v706h474v-59h-404v-254h369v-58h-369v-276h409v-59h-479z" />
    <glyph glyph-name="F" unicode="F" horiz-adv-x="531" 
d="M80 0v706h447v-59h-377v-254h328v-58h-328v-335h-70z" />
    <glyph glyph-name="G" unicode="G" horiz-adv-x="741" 
d="M619 0v120q-15 -25 -37 -49t-53 -43t-71 -31t-92 -12q-71 0 -128.5 26t-98.5 73.5t-63.5 115.5t-22.5 152q0 77 21.5 144.5t63.5 117.5t104.5 78.5t144.5 28.5q60 0 109 -16.5t85.5 -46t59 -70t28.5 -89.5h-67q-6 32 -22.5 61.5t-44 52t-65.5 36t-87 13.5
q-63 0 -111.5 -23t-81 -63.5t-49.5 -97t-17 -122.5q0 -74 17.5 -132t50.5 -98t79.5 -61.5t105.5 -21.5q60 0 105 22.5t74 57.5t43.5 77t14.5 81v23h-237v58h298v-362h-56z" />
    <glyph glyph-name="H" unicode="H" horiz-adv-x="672" 
d="M536 0v345h-386v-345h-70v706h70v-302h386v302h70v-706h-70z" />
    <glyph glyph-name="I" unicode="I" horiz-adv-x="236" 
d="M90 0v706h70v-706h-70z" />
    <glyph glyph-name="J" unicode="J" horiz-adv-x="477" 
d="M344 706h70v-502q0 -109 -51 -162.5t-143 -53.5q-198 0 -198 205v16.5t1 21.5h67q-1 -12 -1 -16.5v-11.5q0 -156 131 -156q59 0 91.5 37.5t32.5 127.5v494z" />
    <glyph glyph-name="K" unicode="K" horiz-adv-x="628" 
d="M545 0l-282 369l-113 -107v-262h-70v706h70v-366l385 366h90l-310 -293l315 -413h-85z" />
    <glyph glyph-name="L" unicode="L" horiz-adv-x="491" 
d="M80 0v706h70v-647h339v-59h-409z" />
    <glyph glyph-name="M" unicode="M" horiz-adv-x="797" 
d="M667 0v476q0 37 1 72t4 70q-6 -20 -12.5 -41t-14.5 -41l-207 -536h-66l-208 547q-14 35 -25 73q2 -35 3.5 -71t1.5 -73v-476h-66v706h88l241 -630l242 630h84v-706h-66z" />
    <glyph glyph-name="N" unicode="N" horiz-adv-x="690" 
d="M552 0l-365 546q-13 20 -25.5 40.5t-23.5 40.5q3 -36 4 -69.5t1 -77.5v-480h-65v706h75l374 -560q11 -16 19.5 -30t17.5 -30q-1 21 -1.5 36.5t-1 30t-0.5 30v36.5v487h65v-706h-74z" />
    <glyph glyph-name="O" unicode="O" horiz-adv-x="747" 
d="M381 45q58 0 105 20.5t81 59.5t52.5 97t18.5 133q0 70 -17 126.5t-50 96.5t-81 62t-109 22q-58 0 -105.5 -21t-81.5 -60.5t-52.5 -97.5t-18.5 -132q0 -70 17 -126.5t50 -96.5t81 -61.5t110 -21.5zM381 -15q-78 0 -139 26t-103 73.5t-64 115t-22 151.5q0 85 23.5 153.5
t66.5 116.5t103.5 74t134.5 26q77 0 137.5 -26t102.5 -73.5t64.5 -115t22.5 -151.5q0 -86 -23.5 -154.5t-66.5 -116.5t-103.5 -73.5t-133.5 -25.5z" />
    <glyph glyph-name="P" unicode="P" horiz-adv-x="592" 
d="M80 0v706h284q101 0 154.5 -48.5t53.5 -145.5q0 -53 -17 -91.5t-45.5 -63.5t-67.5 -36.5t-82 -11.5h-210v-309h-70zM356 370q33 0 60 7.5t46.5 24.5t30 43.5t10.5 65.5q0 67 -38.5 101.5t-112.5 34.5h-202v-277h206z" />
    <glyph glyph-name="Q" unicode="Q" horiz-adv-x="747" 
d="M381 -15q-77 0 -138 26t-103 73.5t-64.5 115t-22.5 151.5q0 85 23.5 153.5t66 116.5t103 74t135.5 26q76 0 136.5 -26t103 -73.5t65 -115t22.5 -151.5q0 -90 -29 -162t-78 -121l93 -71l-38 -48l-103 80q-36 -23 -79.5 -35.5t-92.5 -12.5zM381 45q35 0 66 7.5t56 21.5
l-73 57l35 43l85 -66q42 40 65 102.5t23 144.5q0 70 -17.5 126.5t-50.5 96.5t-81 62t-108 22q-59 0 -106.5 -21t-81 -60.5t-52 -97.5t-18.5 -132q0 -70 17.5 -126.5t50.5 -96.5t81 -61.5t109 -21.5z" />
    <glyph glyph-name="R" unicode="R" horiz-adv-x="658" 
d="M80 0v706h313q104 0 154.5 -50t50.5 -137q0 -62 -30 -106t-83 -63q21 -8 36.5 -20t26.5 -29t17.5 -41t9.5 -57l8 -106q3 -39 13 -60.5t24 -32.5v-4h-86q-4 7 -7 13.5t-5.5 16.5t-4 25.5t-3.5 39.5l-8 100q-2 28 -9.5 51t-22 39.5t-36.5 26t-54 9.5h-234v-321h-70z
M377 379q42 0 71.5 10.5t48 29.5t26.5 44t8 55q0 63 -38.5 96.5t-114.5 33.5h-228v-269h227z" />
    <glyph glyph-name="S" unicode="S" horiz-adv-x="595" 
d="M225 349q-78 17 -121.5 59t-43.5 121q0 37 15 72t45 61t75.5 42t106.5 16q68 0 115 -17t76 -45.5t43 -66.5t16 -80h-69q0 28 -10.5 55t-32 48t-56 34t-82.5 13q-46 0 -79 -11t-54 -29t-30.5 -41.5t-9.5 -48.5q0 -48 28 -76.5t93 -42.5l135 -30q50 -11 84.5 -28t55.5 -40
t30.5 -52t9.5 -65q0 -45 -16.5 -83t-49 -66.5t-80.5 -44.5t-111 -16q-57 0 -106 14.5t-85 44.5t-56 77t-20 112h70q0 -48 15 -83t41.5 -58.5t63.5 -34.5t81 -11q94 0 139 40t45 104q0 23 -5.5 42.5t-20.5 35t-41 28t-67 21.5z" />
    <glyph glyph-name="T" unicode="T" horiz-adv-x="537" 
d="M241 0v647h-225v59h519v-59h-224v-647h-70z" />
    <glyph glyph-name="U" unicode="U" horiz-adv-x="661" 
d="M598 241q0 -67 -20 -115.5t-55 -79.5t-83 -46t-104 -15q-58 0 -106 14.5t-82 45t-52.5 77t-18.5 109.5v475h70v-455q0 -57 13.5 -96t39 -63.5t61.5 -35.5t81 -11q40 0 74 10t59 34t39 64t14 99v454h70v-465z" />
    <glyph glyph-name="V" unicode="V" horiz-adv-x="594" 
d="M268 0l-256 706h76l187 -535q9 -26 16 -50t15 -51q7 26 15 51t16 48l185 537h74l-258 -706h-70z" />
    <glyph glyph-name="W" unicode="W" horiz-adv-x="895" 
d="M623 0l-170 638l-168 -638h-77l-180 706h72l131 -558q4 -17 9 -40.5t8 -40.5q3 15 8 36.5t12 47.5l147 555h80l145 -548q6 -22 12 -46t11 -47l7.5 37.5t12.5 52.5l131 551h67l-179 -706h-79z" />
    <glyph glyph-name="X" unicode="X" horiz-adv-x="577" 
d="M495 0l-199 313l-202 -313h-81l247 362l-233 344h81l190 -294l195 294h77l-236 -343l244 -363h-83z" />
    <glyph glyph-name="Y" unicode="Y" horiz-adv-x="589" 
d="M269 0v309l-269 397h85l220 -334l219 334h79l-267 -397v-309h-67z" />
    <glyph glyph-name="Z" unicode="Z" horiz-adv-x="563" 
d="M16 0v60l446 587h-403v59h484v-59l-446 -588h454v-59h-535z" />
    <glyph glyph-name="bracketleft" unicode="[" horiz-adv-x="271" 
d="M93 -180v886h165v-55h-100v-775h100v-56h-165z" />
    <glyph glyph-name="backslash" unicode="\" horiz-adv-x="354" 
d="M36 706h59l229 -724h-60z" />
    <glyph glyph-name="bracketright" unicode="]" horiz-adv-x="271" 
d="M178 706v-886h-165v56h100v775h-100v55h165z" />
    <glyph glyph-name="asciicircum" unicode="^" 
d="M404 350l-131 274l-134 -274h-76l180 356h64l173 -356h-76z" />
    <glyph glyph-name="underscore" unicode="_" horiz-adv-x="500" 
d="M0 -125v50h500v-50h-500z" />
    <glyph glyph-name="grave" unicode="`" horiz-adv-x="214" 
d="M95 588l-118 133h91l81 -133h-54z" />
    <glyph glyph-name="a" unicode="a" horiz-adv-x="528" 
d="M345 310q30 5 37.5 12t7.5 22v30q0 42 -28.5 68.5t-100.5 26.5q-38 0 -63 -9t-41 -24t-22.5 -35.5t-6.5 -44.5h-67q0 32 10 62.5t34 54t63 38t98 14.5q96 0 141.5 -39.5t45.5 -108.5v-293q0 -23 6 -32.5t24 -9.5q11 0 28 6v-49q-8 -3 -19.5 -5.5t-26.5 -2.5
q-32 0 -52 15.5t-20 50.5v34q-20 -42 -63.5 -73t-118.5 -31q-86 0 -129.5 41.5t-43.5 107.5q0 65 37.5 101t123.5 50zM213 236q-61 -11 -84.5 -34.5t-23.5 -64.5q0 -42 30 -70t86 -28q36 0 67.5 13t54.5 35.5t36 53.5t13 67v58z" />
    <glyph glyph-name="b" unicode="b" horiz-adv-x="565" 
d="M75 0v706h64v-282q10 17 24 35t34.5 32.5t49.5 24t68 9.5q55 0 95.5 -22t66.5 -58t39 -83.5t13 -98.5q0 -63 -16.5 -114t-46 -87t-71 -55.5t-91.5 -19.5q-66 0 -105 26.5t-63 68.5v-82h-61zM464 255q0 45 -9 84.5t-28.5 68.5t-49 46t-69.5 17q-46 0 -78.5 -19t-53 -50
t-30 -70.5t-9.5 -80.5t10 -79t30.5 -67t51 -46.5t72.5 -17.5q36 0 66 15t51.5 43t33.5 67.5t12 88.5z" />
    <glyph glyph-name="c" unicode="c" horiz-adv-x="513" 
d="M419 353q-11 55 -46.5 85.5t-93.5 30.5q-47 0 -80 -19.5t-53 -50.5t-29 -68.5t-9 -74.5q0 -42 9 -81t29 -68t51.5 -46.5t77.5 -17.5q58 0 98.5 32.5t47.5 102.5h63q-5 -45 -23 -80.5t-46 -60t-64 -37.5t-76 -13q-60 0 -104 21.5t-72.5 57.5t-42 83.5t-13.5 100.5
q0 52 14 102t43 88t73.5 61.5t106.5 23.5q85 0 139 -45.5t63 -126.5h-63z" />
    <glyph glyph-name="d" unicode="d" horiz-adv-x="565" 
d="M436 80q-10 -15 -24 -31t-35 -30t-50 -23t-68 -9q-53 0 -93 20.5t-67.5 56.5t-41.5 84t-14 104q0 63 16.5 114t46 86t71 54t91.5 19q61 0 101 -25t64 -67v273h64v-706h-61v80zM108 257q0 -48 10.5 -88t30.5 -68.5t49.5 -44t67.5 -15.5q46 0 78 17.5t52 48t29.5 71.5
t9.5 88q0 41 -10 78t-30.5 65.5t-52 45t-74.5 16.5q-73 0 -116.5 -56.5t-43.5 -157.5z" />
    <glyph glyph-name="e" unicode="e" horiz-adv-x="526" 
d="M106 246q0 -96 44 -149t123 -53q35 0 61 9.5t44.5 25.5t29.5 37t17 44h66q-8 -33 -25 -64t-44 -55t-64 -39t-85 -15q-53 0 -95.5 18t-72.5 52t-46 83t-16 111q0 55 14.5 105t43.5 87.5t72 59.5t100 22q56 0 97 -20.5t67.5 -55.5t39 -82t12.5 -100v-21h-383zM425 297
q-3 78 -42 125t-110 47q-44 0 -74.5 -16.5t-50 -41.5t-29.5 -55.5t-12 -58.5h318z" />
    <glyph glyph-name="f" unicode="f" horiz-adv-x="249" 
d="M89 0v463h-73v49h73v95q0 56 29.5 81.5t81.5 25.5q8 0 18.5 -0.5t21.5 -2.5v-54q-8 1 -18 1.5t-17 0.5q-29 0 -40.5 -16t-11.5 -48v-83h87v-49h-87v-463h-64z" />
    <glyph glyph-name="g" unicode="g" horiz-adv-x="566" 
d="M439 107q-11 -19 -26.5 -37.5t-37 -33t-49.5 -23.5t-64 -9q-54 0 -94.5 21t-68.5 56.5t-42 81.5t-14 97q0 60 16.5 109t46.5 83.5t72 53.5t93 19q60 0 101.5 -25.5t64.5 -68.5v81h61v-474q0 -119 -55.5 -179t-173.5 -60q-93 0 -143.5 38.5t-55.5 98.5h67q9 -44 44 -62.5
t90 -18.5q42 0 73.5 9.5t52.5 31t31.5 57t10.5 86.5v68zM108 265q0 -44 10 -81.5t30.5 -65.5t50.5 -44t70 -16q46 0 78 18.5t52 48.5t29 69t9 80q0 35 -10 70t-30 63.5t-51.5 46t-74.5 17.5q-38 0 -68 -14.5t-51 -41.5t-32.5 -65t-11.5 -85z" />
    <glyph glyph-name="h" unicode="h" horiz-adv-x="536" 
d="M407 0v333q0 61 -26.5 98t-91.5 37q-36 0 -63.5 -13t-47 -35.5t-29.5 -53t-10 -65.5v-301h-64v706h64v-266q10 17 24.5 32.5t34 27t45 18.5t57.5 7q37 0 68.5 -10t54.5 -31t35.5 -53.5t12.5 -77.5v-353h-64z" />
    <glyph glyph-name="i" unicode="i" horiz-adv-x="207" 
d="M75 0v512h64v-512h-64zM75 616v90h64v-90h-64z" />
    <glyph glyph-name="j" unicode="j" horiz-adv-x="207" 
d="M139 -80q0 -56 -29.5 -81.5t-81.5 -25.5q-8 0 -18.5 0.5t-21.5 2.5v54q8 -1 18 -1.5t17 -0.5q29 0 40.5 16t11.5 48v580h64v-592zM75 616v90h64v-90h-64z" />
    <glyph glyph-name="k" unicode="k" horiz-adv-x="490" 
d="M416 0l-187 284l-90 -83v-201h-64v706h64v-434l264 240h83l-209 -191l216 -321h-77z" />
    <glyph glyph-name="l" unicode="l" horiz-adv-x="207" 
d="M75 0v706h64v-706h-64z" />
    <glyph glyph-name="m" unicode="m" horiz-adv-x="829" 
d="M452 0h-64v347q0 25 -6 47t-19 38.5t-32.5 26t-46.5 9.5q-33 0 -60 -12.5t-45.5 -34.5t-29 -52.5t-10.5 -67.5v-301h-64v512h61v-81q17 40 56.5 67t96.5 27q34 0 58 -8t41.5 -21.5t28.5 -31.5t19 -37q24 45 63 71.5t104 26.5q71 0 116 -41.5t45 -132.5v-351h-64v331
q0 64 -23.5 100.5t-84.5 36.5q-36 0 -62 -13t-43.5 -36t-26 -54t-8.5 -66v-299z" />
    <glyph glyph-name="n" unicode="n" horiz-adv-x="535" 
d="M136 428q17 43 57.5 70t105.5 27q37 0 68.5 -10t54.5 -31t35.5 -53.5t12.5 -77.5v-353h-64v333q0 61 -26.5 98t-91.5 37q-36 0 -63.5 -13t-46.5 -35.5t-29 -53t-10 -65.5v-301h-64v512h61v-84z" />
    <glyph glyph-name="o" unicode="o" horiz-adv-x="549" 
d="M278 -13q-112 0 -173.5 71t-61.5 197q0 62 17.5 112t48.5 85t74 54t95 19q111 0 173 -71t62 -197q0 -62 -17 -112t-48 -85t-74.5 -54t-95.5 -19zM278 41q39 0 70.5 15.5t53.5 43.5t34 68t12 90q0 98 -42.5 155.5t-127.5 57.5q-38 0 -69.5 -15.5t-54 -43.5t-34.5 -68.5
t-12 -89.5q0 -98 42.5 -155.5t127.5 -57.5z" />
    <glyph glyph-name="p" unicode="p" horiz-adv-x="566" 
d="M139 -186h-64v698h61v-82q10 16 24.5 33t36 30.5t51 22.5t68.5 9q55 0 95.5 -22t66.5 -58t39 -83.5t13 -98.5q0 -63 -16.5 -114t-46 -87t-71 -55.5t-91.5 -19.5q-66 0 -104 24.5t-62 66.5v-264zM465 255q0 45 -9 84.5t-28.5 68.5t-49 46t-69.5 17q-46 0 -78.5 -18
t-53 -48.5t-30 -70.5t-9.5 -83q0 -44 10 -82t30.5 -66.5t51 -45t72.5 -16.5q36 0 66 15t51.5 43t33.5 67.5t12 88.5z" />
    <glyph glyph-name="q" unicode="q" horiz-adv-x="566" 
d="M437 512h61v-698h-64v270q-10 -16 -24 -33t-34.5 -31.5t-49 -23.5t-67.5 -9q-53 0 -93 20.5t-67.5 56.5t-41.5 84t-14 104q0 63 16.5 114t46 86t71 54t91.5 19q61 0 104 -25t65 -69v81zM108 257q0 -48 10.5 -88t30.5 -68.5t49.5 -44t67.5 -15.5q46 0 78 18t52 48.5
t29.5 71.5t9.5 87q0 40 -10 77t-30.5 65.5t-52 45.5t-74.5 17q-73 0 -116.5 -56.5t-43.5 -157.5z" />
    <glyph glyph-name="r" unicode="r" horiz-adv-x="312" 
d="M75 0v512h61v-98q7 21 18 40.5t28.5 35.5t41.5 25.5t57 9.5h8t14 -2v-64q-7 1 -10.5 1h-6.5q-41 0 -69 -15.5t-45 -43.5t-25 -67t-8 -85v-249h-64z" />
    <glyph glyph-name="s" unicode="s" horiz-adv-x="460" 
d="M169 247q-68 17 -96.5 48.5t-28.5 85.5q0 30 12.5 56t36 45.5t58 31t79.5 11.5q52 0 88.5 -13.5t59.5 -35.5t33.5 -51.5t12.5 -60.5h-64q-2 20 -10 38.5t-23.5 33t-40 23t-58.5 8.5q-32 0 -54.5 -7t-37 -18.5t-21 -26t-6.5 -30.5q0 -15 3.5 -27t13.5 -22t27.5 -18
t44.5 -15l110 -27q68 -17 96.5 -48.5t28.5 -83.5q0 -31 -13 -59.5t-37.5 -50t-61.5 -34.5t-85 -13q-102 0 -155 49.5t-53 128.5h66q0 -29 11 -51.5t30.5 -38t45 -23.5t55.5 -8q68 0 99.5 28t31.5 69q0 28 -18.5 47.5t-71.5 32.5z" />
    <glyph glyph-name="t" unicode="t" horiz-adv-x="246" 
d="M89 463h-73v49h73v150h64v-150h82v-49h-82v-364q0 -26 8 -37t28 -11q19 0 44 7v-58q-14 -4 -27.5 -6.5t-30.5 -2.5q-41 0 -63.5 20.5t-22.5 76.5v375z" />
    <glyph glyph-name="u" unicode="u" horiz-adv-x="535" 
d="M406 83q-17 -43 -57.5 -69.5t-104.5 -26.5q-37 0 -68 10t-53.5 31t-35 53.5t-12.5 77.5v353h64v-333q0 -61 26.5 -98t89.5 -37q35 0 62.5 13t46.5 35.5t29 53t10 65.5v301h64v-512h-61v83z" />
    <glyph glyph-name="v" unicode="v" horiz-adv-x="451" 
d="M194 0l-194 512h72l137 -382l10.5 -31.5l10.5 -31.5q3 11 8.5 27t11.5 33l139 385h69l-198 -512h-66z" />
    <glyph glyph-name="w" unicode="w" horiz-adv-x="696" 
d="M462 0l-94 351q-7 25 -11.5 45.5t-6.5 32.5q-3 -14 -7.5 -32.5t-12.5 -45.5l-102 -351h-62l-158 512h69l106 -363q12 -41 17 -73q6 38 19 84l102 352h62l96 -355q5 -18 10 -40.5t8 -42.5q3 19 8.5 40t12.5 42l109 356h68l-169 -512h-64z" />
    <glyph glyph-name="x" unicode="x" horiz-adv-x="454" 
d="M385 0l-156 219l-156 -219h-77l199 267l-177 245h77l137 -198l137 198h76l-179 -245l196 -267h-77z" />
    <glyph glyph-name="y" unicode="y" horiz-adv-x="451" 
d="M56 -126q10 -1 18 -1.5t20 -0.5q31 0 49 23t36 72l18 48l-195 497h71l134 -357q9 -23 14.5 -41t9.5 -32q5 14 11 32.5t16 44.5l132 353h68l-224 -571q-12 -32 -24.5 -56t-28 -40t-35.5 -24t-48 -8q-8 0 -17.5 0.5t-24.5 3.5v57z" />
    <glyph glyph-name="z" unicode="z" horiz-adv-x="432" 
d="M12 0v49l320 408h-295v55h373v-49l-318 -407h329v-56h-409z" />
    <glyph glyph-name="braceleft" unicode="{" horiz-adv-x="271" 
d="M23 290q40 11 56.5 33.5t16.5 69.5v190q0 57 23 90t84 33h41v-50q-23 0 -38.5 -2.5t-25 -10t-13.5 -21t-4 -35.5v-195q0 -52 -19 -83t-64 -44q48 -13 65.5 -43.5t17.5 -87.5v-195q0 -22 4 -35.5t13.5 -21t25 -10t38.5 -2.5v-50h-43q-61 0 -83 33t-22 90v190
q0 47 -16.5 70t-56.5 34v53z" />
    <glyph glyph-name="bar" unicode="|" horiz-adv-x="271" 
d="M106 -250v998h59v-998h-59z" />
    <glyph glyph-name="braceright" unicode="}" horiz-adv-x="271" 
d="M248 236q-40 -11 -56.5 -33.5t-16.5 -69.5v-190q0 -57 -23 -90t-84 -33h-41v50q23 0 38.5 2.5t25 10t13.5 21t4 35.5v195q0 52 19 83t64 44q-48 13 -65.5 43.5t-17.5 87.5v195q0 43 -17.5 56t-63.5 13v50h43q61 0 83 -33t22 -90v-190q0 -47 16.5 -70t56.5 -34v-53z" />
    <glyph glyph-name="asciitilde" unicode="~" 
d="M501 301q-36 -47 -67.5 -62t-60.5 -15q-27 0 -53.5 11t-53 24t-52.5 24t-50 11q-31 0 -50.5 -18t-40.5 -47l-33 55q9 14 21 28t27 25.5t34 18.5t42 7q29 0 57.5 -11t55 -24t51.5 -24t46 -11q29 0 51 17t45 46z" />
    <glyph glyph-name="uni00A0" unicode="&#xa0;" horiz-adv-x="271" 
 />
    <glyph glyph-name="exclamdown" unicode="&#xa1;" horiz-adv-x="271" 
d="M180 512v-92h-86v92h86zM160 335l13 -299v-222h-73v223l14 298h46z" />
    <glyph glyph-name="cent" unicode="&#xa2;" 
d="M421 353q-14 67 -62 96l-132 -400q22 -6 50 -6q58 0 98.5 32.5t47.5 102.5h63q-5 -45 -23 -80.5t-46 -60t-64 -37.5t-76 -13q-38 0 -68 9l-45 -137h-47l50 152q-63 32 -92.5 96.5t-29.5 142.5q0 52 14 102t43 88t73.5 61.5t106.5 23.5q28 0 52 -6l42 128h48l-47 -141
q45 -20 73 -59t34 -94h-63zM110 256q0 -60 17.5 -110t58.5 -78l130 397q-8 2 -17 3t-18 1q-47 0 -80 -19.5t-53 -50.5t-29 -68.5t-9 -74.5z" />
    <glyph glyph-name="sterling" unicode="&#xa3;" 
d="M393 -8q-21 0 -44.5 6t-48.5 13.5t-50.5 13.5t-49.5 6t-44 -4.5t-36 -11.5t-27.5 -14t-18.5 -13l-35 53q23 15 43.5 32t35.5 38.5t24 48.5t9 60q0 30 -6.5 54t-17.5 51h-87v47h66q-18 44 -26.5 75t-8.5 67q0 38 14.5 75t43.5 66t71 47t98 18q53 0 93 -17t67 -46t40.5 -69
t13.5 -85h-66q-1 32 -10.5 60.5t-28.5 49.5t-47 33.5t-65 12.5q-35 0 -63.5 -12t-48.5 -32t-30.5 -46t-10.5 -54q0 -30 9.5 -61.5t30.5 -81.5h184v-47h-165q11 -27 14.5 -50t3.5 -47q0 -35 -17 -74.5t-66 -87.5q13 6 34 13.5t54 7.5q23 0 46.5 -5t45.5 -11t42.5 -11t38.5 -5
q32 0 54 12t36 28l35 -56q-38 -26 -66.5 -36.5t-62.5 -10.5z" />
    <glyph glyph-name="currency" unicode="&#xa4;" 
d="M273 173q36 0 66 13t52 35.5t34.5 54t12.5 67.5t-13 67.5t-35.5 54t-53 35.5t-65.5 13q-36 0 -66.5 -13t-53 -35.5t-35 -54t-12.5 -67.5t13 -67.5t35.5 -54t53.5 -35.5t67 -13zM270 117q-38 0 -73 12t-64 35l-66 -64l-40 40l66 64q-7 9 -15 22t-15.5 31t-12.5 39.5
t-5 47.5q0 50 15.5 83.5t32.5 53.5l-64 64l40 40l64 -63q8 6 20 14t29.5 15.5t39.5 12.5t49 5q38 0 73.5 -12t64.5 -35l66 64l40 -40l-66 -64q7 -9 15 -22t15.5 -31t12.5 -40t5 -47q0 -50 -15.5 -83.5t-32.5 -53.5l64 -64l-40 -40l-64 63q-8 -6 -20.5 -14t-29.5 -15.5
t-39 -12.5t-50 -5z" />
    <glyph glyph-name="yen" unicode="&#xa5;" 
d="M239 0v230h-180v52h180v57l-27 43h-153v52h120l-169 272h83l182 -314l181 314h77l-169 -272h123v-52h-155l-26 -43v-57h181v-52h-181v-230h-67z" />
    <glyph glyph-name="brokenbar" unicode="&#xa6;" horiz-adv-x="271" 
d="M165 190v-381h-59v381h59zM106 689h59v-381h-59v381z" />
    <glyph glyph-name="section" unicode="&#xa7;" 
d="M149 176q-51 30 -79.5 67t-28.5 88q0 27 8 49.5t21 40t30 30.5t36 22q-16 19 -26.5 41t-10.5 56q0 30 12.5 57t35.5 48t54.5 33t70.5 12q35 0 67 -10.5t57 -30.5t39.5 -49.5t14.5 -67.5v-12h-69q0 26 -9 45.5t-24 33t-35 20.5t-42 7q-46 0 -73.5 -24.5t-27.5 -61.5
q0 -34 22 -55.5t62 -44.5l136 -80q53 -31 82 -67t29 -90q0 -50 -27 -85t-70 -56q14 -14 28 -39t14 -64q0 -35 -13.5 -65t-37.5 -51.5t-57 -34t-72 -12.5q-48 0 -83.5 14.5t-59 39.5t-34.5 58t-11 70h71q0 -52 31.5 -85.5t84.5 -33.5q51 0 80 25.5t29 70.5q0 31 -16.5 54
t-53.5 45zM177 436q-30 -18 -47 -40t-17 -56q0 -35 21.5 -62t66.5 -53l160 -94q42 22 56.5 46.5t14.5 50.5q0 24 -13 47t-42 40z" />
    <glyph glyph-name="dieresis" unicode="&#xa8;" horiz-adv-x="214" 
d="M161 616v90h66v-90h-66zM-14 616v90h66v-90h-66z" />
    <glyph glyph-name="copyright" unicode="&#xa9;" horiz-adv-x="820" 
d="M559 454q-26 32 -58.5 53t-83.5 21q-39 0 -70.5 -14t-53 -38t-33.5 -56.5t-12 -68.5t12 -68t34 -56.5t52.5 -38.5t68.5 -14q49 0 82.5 20.5t62.5 54.5l41 -36q-32 -40 -79.5 -67t-109.5 -27q-49 0 -90 18t-71 49t-46.5 73t-16.5 90q0 52 17.5 95t48 74t72.5 48t90 17
q70 0 113.5 -26t72.5 -64zM410 16q74 0 133.5 28t101.5 74.5t65 107.5t23 126q0 67 -23 128t-65.5 107.5t-102 73.5t-132.5 27q-74 0 -134 -28t-102 -74.5t-65 -107.5t-23 -126q0 -68 23 -128.5t65.5 -107t102.5 -73.5t133 -27zM409 -16q-79 0 -144.5 29t-112.5 79t-73 117
t-26 144q0 72 26 138.5t73 117t112.5 81t145.5 30.5q79 0 144.5 -29t112.5 -79t73 -117.5t26 -143.5q0 -72 -26 -138.5t-73 -117t-113 -81t-145 -30.5z" />
    <glyph glyph-name="ordfeminine" unicode="&#xaa;" horiz-adv-x="333" 
d="M28 610q1 53 34.5 83t102.5 30q127 0 127 -107v-165q0 -23 6 -31t18 -8q8 0 12 1v-43q-15 -4 -33 -4q-23 0 -36 17t-13 46q-17 -24 -48 -45.5t-78 -21.5q-46 0 -77.5 25t-31.5 72t27.5 70.5t85.5 35.5l64 13q33 6 44.5 14t11.5 23q0 27 -19 45.5t-61 18.5q-84 0 -85 -69
h-51zM245 554q-16 -6 -32.5 -11.5t-32.5 -8.5l-43 -9q-34 -7 -52 -21t-18 -40t18 -42t49 -16q54 0 82.5 30.5t28.5 76.5v41z" />
    <glyph glyph-name="guillemotleft" unicode="&#xab;" horiz-adv-x="440" 
d="M203 363l-121 -105l122 -103v-73l-171 147v58l170 144v-68zM395 363l-121 -105l122 -103v-73l-171 147v58l170 144v-68z" />
    <glyph glyph-name="logicalnot" unicode="&#xac;" 
d="M30 262v60h471v-322h-60v262h-411z" />
    <glyph glyph-name="uni00AD" unicode="&#xad;" horiz-adv-x="333" 
d="M37 249v62h259v-62h-259z" />
    <glyph glyph-name="registered" unicode="&#xae;" 
d="M319 421q-5 11 -7 22.5t-5 34.5q-6 47 -45 47h-28v-104h-35v226h85q33 0 52 -14t19 -42q0 -25 -15 -38.5t-34 -16.5q17 -5 26.5 -19t11.5 -45q2 -28 13 -51h-38zM268 554q26 0 39 7.5t13 26.5q0 32 -44 32h-42v-66h34zM271 370q37 0 66.5 13t50 35.5t31.5 52.5t11 63
q0 34 -11 64.5t-31.5 52.5t-50 35t-66.5 13t-66.5 -13.5t-50 -36t-31.5 -52t-11 -62.5q0 -35 11 -65t31.5 -52t50 -35t66.5 -13zM271 347q-41 0 -74.5 15t-58 40.5t-38 59.5t-13.5 73q0 37 13.5 70.5t38 59.5t58 41.5t74.5 15.5q40 0 74 -15t58.5 -40.5t38 -59.5t13.5 -73
q0 -37 -13.5 -70.5t-38 -59.5t-58.5 -41.5t-74 -15.5z" />
    <glyph glyph-name="macron" unicode="&#xaf;" horiz-adv-x="214" 
d="M-31 662h276v-45h-276v45z" />
    <glyph glyph-name="degree" unicode="&#xb0;" horiz-adv-x="354" 
d="M177 513q35 1 59.5 24t24.5 65q0 38 -24 62.5t-60 24.5q-35 0 -59.5 -23.5t-24.5 -65.5q0 -38 24 -62.5t60 -24.5zM177 454q-31 0 -58 10.5t-46.5 29.5t-30.5 45.5t-11 59.5q0 31 11.5 58.5t31 47.5t46.5 31.5t57 11.5q31 0 58 -10.5t46.5 -29.5t30.5 -45.5t11 -59.5
q0 -32 -11.5 -59t-31 -47t-46.5 -31.5t-57 -11.5z" />
    <glyph glyph-name="plusminus" unicode="&#xb1;" 
d="M30 306v60h211v166h60v-166h209v-60h-209v-161h-60v161h-211zM30 0v60h480v-60h-480z" />
    <glyph glyph-name="twosuperior" unicode="&#xb2;" horiz-adv-x="271" 
d="M16 353v17q0 44 20 75.5t69 60.5l52 31q21 13 34.5 31.5t13.5 44.5q0 29 -16 46t-45 17q-21 0 -34 -7t-21 -18.5t-11 -27t-3 -31.5h-51q0 23 6.5 46t20.5 41.5t37 30t56 11.5q51 0 81 -30t30 -76q0 -42 -22 -69.5t-55 -46.5l-47 -27q-36 -21 -50 -39t-14 -36h185v-44
h-236z" />
    <glyph glyph-name="threesuperior" unicode="&#xb3;" horiz-adv-x="271" 
d="M103 566q16 -2 21 -2h10q27 0 44.5 16t17.5 44q0 22 -16 37.5t-46 15.5q-32 0 -47.5 -21.5t-15.5 -57.5h-48q0 24 6 46.5t19.5 39.5t35 27t51.5 10q55 0 82 -29t27 -68q0 -29 -12.5 -47t-32.5 -29q23 -8 39.5 -29t16.5 -56q0 -54 -34 -85.5t-88 -31.5q-57 0 -87.5 35
t-30.5 89h49q0 -35 17.5 -58t52.5 -23q31 0 51.5 19.5t20.5 52.5q0 31 -21 48t-52 17h-10t-20 -2v42z" />
    <glyph glyph-name="acute" unicode="&#xb4;" horiz-adv-x="214" 
d="M64 588l82 133h90l-118 -133h-54z" />
    <glyph glyph-name="mu" unicode="&#xb5;" 
d="M406 83q-17 -43 -57.5 -69.5t-104.5 -26.5q-63 0 -105 37v-210h-64v698h64v-333q0 -61 26.5 -98t89.5 -37q35 0 62.5 13t46.5 35.5t29 53t10 65.5v301h64v-512h-61v83z" />
    <glyph glyph-name="paragraph" unicode="&#xb6;" horiz-adv-x="667" 
d="M531 662h-33v-829h-46v829h-157v-829h-46v498q-37 2 -66.5 18t-50 41t-31.5 56.5t-11 66.5q0 42 14 77.5t39.5 61t61.5 40t80 14.5h246v-44z" />
    <glyph glyph-name="periodcentered" unicode="&#xb7;" horiz-adv-x="271" 
d="M76 289q0 26 17.5 42.5t41.5 16.5q25 0 42 -16.5t17 -42.5t-17.5 -42.5t-41.5 -16.5q-25 0 -42 16.5t-17 42.5z" />
    <glyph glyph-name="cedilla" unicode="&#xb8;" horiz-adv-x="214" 
d="M68 -148q17 -9 36 -13t34 -4q29 0 45 10.5t16 30.5t-15.5 28.5t-34.5 8.5q-22 0 -46 -8l-13 13l60 82h39l-47 -59l18 4t18 2q38 0 58.5 -18.5t20.5 -48.5q0 -22 -9.5 -37.5t-25 -25t-35.5 -14t-42 -4.5q-28 0 -48.5 4.5t-42.5 14.5z" />
    <glyph glyph-name="onesuperior" unicode="&#xb9;" horiz-adv-x="271" 
d="M129 353v262h-82v35q38 0 62 13t27 50h41v-360h-48z" />
    <glyph glyph-name="ordmasculine" unicode="&#xba;" horiz-adv-x="333" 
d="M165 359q-72 0 -116.5 47.5t-44.5 131.5q0 85 45 135t118 50q72 0 116.5 -47.5t44.5 -132.5t-44.5 -134.5t-118.5 -49.5zM166 676q-49 0 -77.5 -35.5t-28.5 -101.5q0 -59 27.5 -95t78.5 -36q50 0 78 34.5t28 100.5q0 59 -27.5 96t-78.5 37z" />
    <glyph glyph-name="guillemotright" unicode="&#xbb;" horiz-adv-x="440" 
d="M237 150l121 105l-122 103v73l171 -147v-58l-170 -144v68zM45 150l121 105l-122 103v73l171 -147v-58l-170 -144v68z" />
    <glyph glyph-name="onequarter" unicode="&#xbc;" horiz-adv-x="813" 
d="M133 0l460 706h56l-458 -706h-58zM179 353v262h-82v35q38 0 62 13t27 50h41v-360h-48zM613 0v88h-152v37l159 235h40v-232h48v-40h-48v-88h-47zM613 281l-100 -153h100v153z" />
    <glyph glyph-name="onehalf" unicode="&#xbd;" horiz-adv-x="813" 
d="M474 0v17q0 44 20 75.5t69 60.5l52 31q21 13 34.5 31.5t13.5 44.5q0 29 -16 46t-45 17q-21 0 -34 -7t-21 -18.5t-11 -27t-3 -31.5h-51q0 23 6.5 46t20.5 41.5t37 30t56 11.5q51 0 81 -30t30 -76q0 -42 -22 -69.5t-55 -46.5l-47 -27q-36 -21 -50 -39t-14 -36h185v-44h-236
zM179 353v262h-82v35q38 0 62 13t27 50h41v-360h-48zM123 0l460 706h56l-458 -706h-58z" />
    <glyph glyph-name="threequarters" unicode="&#xbe;" horiz-adv-x="813" 
d="M163 0l460 706h56l-458 -706h-58zM613 0v88h-152v37l159 235h40v-232h48v-40h-48v-88h-47zM613 281l-100 -153h100v153zM193 566q16 -2 21 -2h10q27 0 44.5 16t17.5 44q0 22 -16 37.5t-46 15.5q-32 0 -47.5 -21.5t-15.5 -57.5h-48q0 24 6 46.5t19.5 39.5t35 27t51.5 10
q55 0 82 -29t27 -68q0 -29 -12.5 -47t-32.5 -29q23 -8 39.5 -29t16.5 -56q0 -54 -34 -85.5t-88 -31.5q-57 0 -87.5 35t-30.5 89h49q0 -35 17.5 -58t52.5 -23q31 0 51.5 19.5t20.5 52.5q0 31 -21 48t-52 17h-10t-20 -2v42z" />
    <glyph glyph-name="questiondown" unicode="&#xbf;" horiz-adv-x="500" 
d="M52 -18q0 57 24.5 94.5t63.5 72.5l54 48q14 12 23 24.5t14.5 28.5t7.5 36.5t2 48.5h60q0 -35 -2 -59.5t-9 -44t-19 -36t-31 -33.5l-60 -54q-29 -26 -43.5 -56t-14.5 -68q0 -57 36.5 -92t98.5 -35q70 0 111 43t41 128h67q0 -107 -56 -168t-164 -61q-47 0 -85 13.5
t-64.5 38t-40.5 58t-14 73.5zM315 512v-92h-86v92h86z" />
    <glyph glyph-name="Agrave" unicode="&#xc0;" horiz-adv-x="631" 
d="M563 0l-84 223h-312l-85 -223h-72l278 706h72l275 -706h-72zM322 635l-134 -355h270zM321 764l-118 133h91l81 -133h-54z" />
    <glyph glyph-name="Aacute" unicode="&#xc1;" horiz-adv-x="631" 
d="M563 0l-84 223h-312l-85 -223h-72l278 706h72l275 -706h-72zM322 635l-134 -355h270zM271 764l82 133h90l-118 -133h-54z" />
    <glyph glyph-name="Acircumflex" unicode="&#xc2;" horiz-adv-x="631" 
d="M563 0l-84 223h-312l-85 -223h-72l278 706h72l275 -706h-72zM322 635l-134 -355h270zM400 765l-78 94l-79 -94h-68l111 132h72l111 -132h-69z" />
    <glyph glyph-name="Atilde" unicode="&#xc3;" horiz-adv-x="631" 
d="M563 0l-84 223h-312l-85 -223h-72l278 706h72l275 -706h-72zM322 635l-134 -355h270zM281 813q-10 3 -17.5 5t-15.5 2q-14 0 -21.5 -9.5t-11.5 -25.5h-46q5 43 22 67.5t51 24.5q11 0 22 -2t27 -7l62 -20q14 -5 23.5 -6.5t18.5 -1.5q23 0 33 35h47q-3 -27 -11 -44.5
t-19 -28t-24 -15t-26 -4.5q-14 0 -25 2t-28 8z" />
    <glyph glyph-name="Adieresis" unicode="&#xc4;" horiz-adv-x="631" 
d="M563 0l-84 223h-312l-85 -223h-72l278 706h72l275 -706h-72zM322 635l-134 -355h270zM377 792v90h66v-90h-66zM202 792v90h66v-90h-66z" />
    <glyph glyph-name="Aring" unicode="&#xc5;" horiz-adv-x="631" 
d="M563 0l-84 223h-312l-85 -223h-72l278 706h72l275 -706h-72zM322 635l-134 -355h270zM322 767q27 0 45.5 18t18.5 48t-17.5 48.5t-46.5 18.5q-27 0 -45.5 -18t-18.5 -50q0 -29 17.5 -47t46.5 -18zM322 734q-42 0 -70.5 26.5t-28.5 71.5q0 21 7.5 39.5t21 32t31.5 21.5
t39 8q42 0 70.5 -26.5t28.5 -71.5q0 -21 -7.5 -39.5t-21 -32t-31.5 -21.5t-39 -8z" />
    <glyph glyph-name="AE" unicode="&#xc6;" horiz-adv-x="915" 
d="M437 0v223h-273l-84 -223h-74l276 706h604v-59h-380v-254h345v-58h-345v-276h385v-59h-454zM437 647h-113l-140 -369h253v369z" />
    <glyph glyph-name="Ccedilla" unicode="&#xc7;" horiz-adv-x="699" 
d="M269 -148q17 -9 36 -13t34 -4q29 0 45 10.5t16 30.5t-15.5 28.5t-34.5 8.5q-22 0 -46 -8l-13 13l49 68q-68 4 -121.5 31.5t-90 74.5t-56 112t-19.5 144q0 73 18.5 140.5t58 119t100.5 82.5t145 31q65 0 113.5 -17.5t82 -47t54 -68.5t29.5 -81h-70q-9 33 -26.5 61.5
t-44 49t-62 32.5t-80.5 12q-64 0 -111 -24.5t-77.5 -67.5t-45.5 -100t-15 -121t15 -119t46 -96t76.5 -64.5t107.5 -23.5q51 0 90.5 15.5t68 43t45.5 65.5t23 83h69q-20 -129 -94.5 -196.5t-190.5 -71.5l-35 -44l18 4t18 2q38 0 58.5 -18.5t20.5 -48.5q0 -22 -9.5 -37.5
t-25 -25t-35.5 -14t-42 -4.5q-28 0 -48.5 4.5t-42.5 14.5z" />
    <glyph glyph-name="Egrave" unicode="&#xc8;" horiz-adv-x="583" 
d="M80 0v706h474v-59h-404v-254h369v-58h-369v-276h409v-59h-479zM324 764l-118 133h91l81 -133h-54z" />
    <glyph glyph-name="Eacute" unicode="&#xc9;" horiz-adv-x="583" 
d="M80 0v706h474v-59h-404v-254h369v-58h-369v-276h409v-59h-479zM274 764l82 133h90l-118 -133h-54z" />
    <glyph glyph-name="Ecircumflex" unicode="&#xca;" horiz-adv-x="583" 
d="M80 0v706h474v-59h-404v-254h369v-58h-369v-276h409v-59h-479zM403 765l-78 94l-79 -94h-68l111 132h72l111 -132h-69z" />
    <glyph glyph-name="Edieresis" unicode="&#xcb;" horiz-adv-x="583" 
d="M80 0v706h474v-59h-404v-254h369v-58h-369v-276h409v-59h-479zM380 792v90h66v-90h-66zM205 792v90h66v-90h-66z" />
    <glyph glyph-name="Igrave" unicode="&#xcc;" horiz-adv-x="236" 
d="M90 0v706h70v-706h-70zM126 764l-118 133h91l81 -133h-54z" />
    <glyph glyph-name="Iacute" unicode="&#xcd;" horiz-adv-x="236" 
d="M90 0v706h70v-706h-70zM70 764l82 133h90l-118 -133h-54z" />
    <glyph glyph-name="Icircumflex" unicode="&#xce;" horiz-adv-x="236" 
d="M90 0v706h70v-706h-70zM203 765l-78 94l-79 -94h-68l111 132h72l111 -132h-69z" />
    <glyph glyph-name="Idieresis" unicode="&#xcf;" horiz-adv-x="236" 
d="M90 0v706h70v-706h-70zM180 792v90h66v-90h-66zM5 792v90h66v-90h-66z" />
    <glyph glyph-name="Eth" unicode="&#xd0;" horiz-adv-x="680" 
d="M80 402v304h267q77 0 132.5 -24.5t91.5 -70t53 -110.5t17 -145q0 -82 -20 -148t-58.5 -112t-93.5 -71t-125 -25h-264v347h-71v55h71zM336 57q119 0 178 75t59 221q0 68 -12.5 123t-40.5 93.5t-74 59.5t-113 21h-183v-248h167v-55h-167v-290h186z" />
    <glyph glyph-name="Ntilde" unicode="&#xd1;" horiz-adv-x="690" 
d="M552 0l-365 546q-13 20 -25.5 40.5t-23.5 40.5q3 -36 4 -69.5t1 -77.5v-480h-65v706h75l374 -560q11 -16 19.5 -30t17.5 -30q-1 21 -1.5 36.5t-1 30t-0.5 30v36.5v487h65v-706h-74zM314 813q-10 3 -17.5 5t-15.5 2q-14 0 -21.5 -9.5t-11.5 -25.5h-46q5 43 22 67.5
t51 24.5q11 0 22 -2t27 -7l62 -20q14 -5 23.5 -6.5t18.5 -1.5q23 0 33 35h47q-3 -27 -11 -44.5t-19 -28t-24 -15t-26 -4.5q-14 0 -25 2t-28 8z" />
    <glyph glyph-name="Ograve" unicode="&#xd2;" horiz-adv-x="747" 
d="M381 45q58 0 105 20.5t81 59.5t52.5 97t18.5 133q0 70 -17 126.5t-50 96.5t-81 62t-109 22q-58 0 -105.5 -21t-81.5 -60.5t-52.5 -97.5t-18.5 -132q0 -70 17 -126.5t50 -96.5t81 -61.5t110 -21.5zM381 -15q-78 0 -139 26t-103 73.5t-64 115t-22 151.5q0 85 23.5 153.5
t66.5 116.5t103.5 74t134.5 26q77 0 137.5 -26t102.5 -73.5t64.5 -115t22.5 -151.5q0 -86 -23.5 -154.5t-66.5 -116.5t-103.5 -73.5t-133.5 -25.5zM379 764l-118 133h91l81 -133h-54z" />
    <glyph glyph-name="Oacute" unicode="&#xd3;" horiz-adv-x="747" 
d="M381 45q58 0 105 20.5t81 59.5t52.5 97t18.5 133q0 70 -17 126.5t-50 96.5t-81 62t-109 22q-58 0 -105.5 -21t-81.5 -60.5t-52.5 -97.5t-18.5 -132q0 -70 17 -126.5t50 -96.5t81 -61.5t110 -21.5zM381 -15q-78 0 -139 26t-103 73.5t-64 115t-22 151.5q0 85 23.5 153.5
t66.5 116.5t103.5 74t134.5 26q77 0 137.5 -26t102.5 -73.5t64.5 -115t22.5 -151.5q0 -86 -23.5 -154.5t-66.5 -116.5t-103.5 -73.5t-133.5 -25.5zM329 764l82 133h90l-118 -133h-54z" />
    <glyph glyph-name="Ocircumflex" unicode="&#xd4;" horiz-adv-x="747" 
d="M381 45q58 0 105 20.5t81 59.5t52.5 97t18.5 133q0 70 -17 126.5t-50 96.5t-81 62t-109 22q-58 0 -105.5 -21t-81.5 -60.5t-52.5 -97.5t-18.5 -132q0 -70 17 -126.5t50 -96.5t81 -61.5t110 -21.5zM381 -15q-78 0 -139 26t-103 73.5t-64 115t-22 151.5q0 85 23.5 153.5
t66.5 116.5t103.5 74t134.5 26q77 0 137.5 -26t102.5 -73.5t64.5 -115t22.5 -151.5q0 -86 -23.5 -154.5t-66.5 -116.5t-103.5 -73.5t-133.5 -25.5zM458 765l-78 94l-79 -94h-68l111 132h72l111 -132h-69z" />
    <glyph glyph-name="Otilde" unicode="&#xd5;" horiz-adv-x="747" 
d="M381 45q58 0 105 20.5t81 59.5t52.5 97t18.5 133q0 70 -17 126.5t-50 96.5t-81 62t-109 22q-58 0 -105.5 -21t-81.5 -60.5t-52.5 -97.5t-18.5 -132q0 -70 17 -126.5t50 -96.5t81 -61.5t110 -21.5zM381 -15q-78 0 -139 26t-103 73.5t-64 115t-22 151.5q0 85 23.5 153.5
t66.5 116.5t103.5 74t134.5 26q77 0 137.5 -26t102.5 -73.5t64.5 -115t22.5 -151.5q0 -86 -23.5 -154.5t-66.5 -116.5t-103.5 -73.5t-133.5 -25.5zM341 813q-10 3 -17.5 5t-15.5 2q-14 0 -21.5 -9.5t-11.5 -25.5h-46q5 43 22 67.5t51 24.5q11 0 22 -2t27 -7l62 -20
q14 -5 23.5 -6.5t18.5 -1.5q23 0 33 35h47q-3 -27 -11 -44.5t-19 -28t-24 -15t-26 -4.5q-14 0 -25 2t-28 8z" />
    <glyph glyph-name="Odieresis" unicode="&#xd6;" horiz-adv-x="747" 
d="M381 45q58 0 105 20.5t81 59.5t52.5 97t18.5 133q0 70 -17 126.5t-50 96.5t-81 62t-109 22q-58 0 -105.5 -21t-81.5 -60.5t-52.5 -97.5t-18.5 -132q0 -70 17 -126.5t50 -96.5t81 -61.5t110 -21.5zM381 -15q-78 0 -139 26t-103 73.5t-64 115t-22 151.5q0 85 23.5 153.5
t66.5 116.5t103.5 74t134.5 26q77 0 137.5 -26t102.5 -73.5t64.5 -115t22.5 -151.5q0 -86 -23.5 -154.5t-66.5 -116.5t-103.5 -73.5t-133.5 -25.5zM435 792v90h66v-90h-66zM260 792v90h66v-90h-66z" />
    <glyph glyph-name="multiply" unicode="&#xd7;" 
d="M271 249l-182 -182l-42 41l182 183l-182 181l42 42l182 -182l183 182l41 -42l-182 -181l182 -183l-41 -41z" />
    <glyph glyph-name="Oslash" unicode="&#xd8;" horiz-adv-x="747" 
d="M381 -15q-69 0 -123.5 19.5t-96.5 57.5l-76 -86l-36 32l79 90q-75 96 -75 253q0 85 23.5 153.5t66.5 116.5t103.5 74t134.5 26q69 0 125 -21t98 -60l75 85l37 -32l-80 -90q35 -48 53.5 -110t18.5 -138q0 -86 -23.5 -154.5t-66.5 -116.5t-103.5 -73.5t-133.5 -25.5z
M381 662q-58 0 -105.5 -21t-81.5 -60.5t-52.5 -97.5t-18.5 -132q0 -123 51 -201l386 440q-32 35 -77 53.5t-102 18.5zM381 45q58 0 105 20.5t81 59.5t52.5 97t18.5 133q0 59 -12.5 108t-35.5 87l-385 -438q32 -32 76 -49.5t100 -17.5z" />
    <glyph glyph-name="Ugrave" unicode="&#xd9;" horiz-adv-x="661" 
d="M598 241q0 -67 -20 -115.5t-55 -79.5t-83 -46t-104 -15q-58 0 -106 14.5t-82 45t-52.5 77t-18.5 109.5v475h70v-455q0 -57 13.5 -96t39 -63.5t61.5 -35.5t81 -11q40 0 74 10t59 34t39 64t14 99v454h70v-465zM342 764l-118 133h91l81 -133h-54z" />
    <glyph glyph-name="Uacute" unicode="&#xda;" horiz-adv-x="661" 
d="M598 241q0 -67 -20 -115.5t-55 -79.5t-83 -46t-104 -15q-58 0 -106 14.5t-82 45t-52.5 77t-18.5 109.5v475h70v-455q0 -57 13.5 -96t39 -63.5t61.5 -35.5t81 -11q40 0 74 10t59 34t39 64t14 99v454h70v-465zM302 764l82 133h90l-118 -133h-54z" />
    <glyph glyph-name="Ucircumflex" unicode="&#xdb;" horiz-adv-x="661" 
d="M598 241q0 -67 -20 -115.5t-55 -79.5t-83 -46t-104 -15q-58 0 -106 14.5t-82 45t-52.5 77t-18.5 109.5v475h70v-455q0 -57 13.5 -96t39 -63.5t61.5 -35.5t81 -11q40 0 74 10t59 34t39 64t14 99v454h70v-465zM423 765l-78 94l-79 -94h-68l111 132h72l111 -132h-69z" />
    <glyph glyph-name="Udieresis" unicode="&#xdc;" horiz-adv-x="661" 
d="M598 241q0 -67 -20 -115.5t-55 -79.5t-83 -46t-104 -15q-58 0 -106 14.5t-82 45t-52.5 77t-18.5 109.5v475h70v-455q0 -57 13.5 -96t39 -63.5t61.5 -35.5t81 -11q40 0 74 10t59 34t39 64t14 99v454h70v-465zM398 792v90h66v-90h-66zM223 792v90h66v-90h-66z" />
    <glyph glyph-name="Yacute" unicode="&#xdd;" horiz-adv-x="589" 
d="M269 0v309l-269 397h85l220 -334l219 334h79l-267 -397v-309h-67zM271 764l82 133h90l-118 -133h-54z" />
    <glyph glyph-name="Thorn" unicode="&#xde;" horiz-adv-x="606" 
d="M80 0v706h70v-110h214q101 0 154.5 -48.5t53.5 -145.5q0 -53 -17 -91.5t-45.5 -63.5t-67.5 -36.5t-82 -11.5h-210v-199h-70zM356 260q33 0 60 7.5t46.5 24.5t30 43.5t10.5 65.5q0 67 -38.5 101.5t-112.5 34.5h-202v-277h206z" />
    <glyph glyph-name="germandbls" unicode="&#xdf;" horiz-adv-x="522" 
d="M75 0v510q0 46 13.5 83.5t38.5 64.5t61 41.5t82 14.5q39 0 72 -12t56 -34.5t36 -53.5t13 -69q0 -30 -8 -53t-21 -40.5t-29.5 -29t-32.5 -17.5q22 -6 45.5 -18.5t42 -34.5t30.5 -54.5t12 -79.5q0 -63 -18.5 -106.5t-48.5 -69.5t-68 -37.5t-77 -11.5q-26 0 -42.5 2t-33.5 7
v58q26 -8 43 -9.5t31 -1.5q31 0 58.5 9t47.5 29t32 51t12 75q0 52 -15.5 83t-40.5 47.5t-56.5 21.5t-63.5 5h-15t-18 -1v53q6 -1 12.5 -1h12.5q27 0 53 6t47 20t33.5 37t12.5 57q0 55 -31.5 86t-84.5 31q-61 0 -94.5 -38t-33.5 -115v-505h-65z" />
    <glyph glyph-name="agrave" unicode="&#xe0;" horiz-adv-x="528" 
d="M345 310q30 5 37.5 12t7.5 22v30q0 42 -28.5 68.5t-100.5 26.5q-38 0 -63 -9t-41 -24t-22.5 -35.5t-6.5 -44.5h-67q0 32 10 62.5t34 54t63 38t98 14.5q96 0 141.5 -39.5t45.5 -108.5v-293q0 -23 6 -32.5t24 -9.5q11 0 28 6v-49q-8 -3 -19.5 -5.5t-26.5 -2.5
q-32 0 -52 15.5t-20 50.5v34q-20 -42 -63.5 -73t-118.5 -31q-86 0 -129.5 41.5t-43.5 107.5q0 65 37.5 101t123.5 50zM213 236q-61 -11 -84.5 -34.5t-23.5 -64.5q0 -42 30 -70t86 -28q36 0 67.5 13t54.5 35.5t36 53.5t13 67v58zM257 588l-118 133h91l81 -133h-54z" />
    <glyph glyph-name="aacute" unicode="&#xe1;" horiz-adv-x="528" 
d="M345 310q30 5 37.5 12t7.5 22v30q0 42 -28.5 68.5t-100.5 26.5q-38 0 -63 -9t-41 -24t-22.5 -35.5t-6.5 -44.5h-67q0 32 10 62.5t34 54t63 38t98 14.5q96 0 141.5 -39.5t45.5 -108.5v-293q0 -23 6 -32.5t24 -9.5q11 0 28 6v-49q-8 -3 -19.5 -5.5t-26.5 -2.5
q-32 0 -52 15.5t-20 50.5v34q-20 -42 -63.5 -73t-118.5 -31q-86 0 -129.5 41.5t-43.5 107.5q0 65 37.5 101t123.5 50zM213 236q-61 -11 -84.5 -34.5t-23.5 -64.5q0 -42 30 -70t86 -28q36 0 67.5 13t54.5 35.5t36 53.5t13 67v58zM225 588l82 133h90l-118 -133h-54z" />
    <glyph glyph-name="acircumflex" unicode="&#xe2;" horiz-adv-x="528" 
d="M345 310q30 5 37.5 12t7.5 22v30q0 42 -28.5 68.5t-100.5 26.5q-38 0 -63 -9t-41 -24t-22.5 -35.5t-6.5 -44.5h-67q0 32 10 62.5t34 54t63 38t98 14.5q96 0 141.5 -39.5t45.5 -108.5v-293q0 -23 6 -32.5t24 -9.5q11 0 28 6v-49q-8 -3 -19.5 -5.5t-26.5 -2.5
q-32 0 -52 15.5t-20 50.5v34q-20 -42 -63.5 -73t-118.5 -31q-86 0 -129.5 41.5t-43.5 107.5q0 65 37.5 101t123.5 50zM213 236q-61 -11 -84.5 -34.5t-23.5 -64.5q0 -42 30 -70t86 -28q36 0 67.5 13t54.5 35.5t36 53.5t13 67v58zM344 589l-78 94l-79 -94h-68l111 132h72
l111 -132h-69z" />
    <glyph glyph-name="atilde" unicode="&#xe3;" horiz-adv-x="528" 
d="M345 310q30 5 37.5 12t7.5 22v30q0 42 -28.5 68.5t-100.5 26.5q-38 0 -63 -9t-41 -24t-22.5 -35.5t-6.5 -44.5h-67q0 32 10 62.5t34 54t63 38t98 14.5q96 0 141.5 -39.5t45.5 -108.5v-293q0 -23 6 -32.5t24 -9.5q11 0 28 6v-49q-8 -3 -19.5 -5.5t-26.5 -2.5
q-32 0 -52 15.5t-20 50.5v34q-20 -42 -63.5 -73t-118.5 -31q-86 0 -129.5 41.5t-43.5 107.5q0 65 37.5 101t123.5 50zM213 236q-61 -11 -84.5 -34.5t-23.5 -64.5q0 -42 30 -70t86 -28q36 0 67.5 13t54.5 35.5t36 53.5t13 67v58zM222 637q-10 3 -17.5 5t-15.5 2
q-14 0 -21.5 -9.5t-11.5 -25.5h-46q5 43 22 67.5t51 24.5q11 0 22 -2t27 -7l62 -20q14 -5 23.5 -6.5t18.5 -1.5q23 0 33 35h47q-3 -27 -11 -44.5t-19 -28t-24 -15t-26 -4.5q-14 0 -25 2t-28 8z" />
    <glyph glyph-name="adieresis" unicode="&#xe4;" horiz-adv-x="528" 
d="M345 310q30 5 37.5 12t7.5 22v30q0 42 -28.5 68.5t-100.5 26.5q-38 0 -63 -9t-41 -24t-22.5 -35.5t-6.5 -44.5h-67q0 32 10 62.5t34 54t63 38t98 14.5q96 0 141.5 -39.5t45.5 -108.5v-293q0 -23 6 -32.5t24 -9.5q11 0 28 6v-49q-8 -3 -19.5 -5.5t-26.5 -2.5
q-32 0 -52 15.5t-20 50.5v34q-20 -42 -63.5 -73t-118.5 -31q-86 0 -129.5 41.5t-43.5 107.5q0 65 37.5 101t123.5 50zM213 236q-61 -11 -84.5 -34.5t-23.5 -64.5q0 -42 30 -70t86 -28q36 0 67.5 13t54.5 35.5t36 53.5t13 67v58zM317 616v90h66v-90h-66zM142 616v90h66v-90
h-66z" />
    <glyph glyph-name="aring" unicode="&#xe5;" horiz-adv-x="528" 
d="M345 310q30 5 37.5 12t7.5 22v30q0 42 -28.5 68.5t-100.5 26.5q-38 0 -63 -9t-41 -24t-22.5 -35.5t-6.5 -44.5h-67q0 32 10 62.5t34 54t63 38t98 14.5q96 0 141.5 -39.5t45.5 -108.5v-293q0 -23 6 -32.5t24 -9.5q11 0 28 6v-49q-8 -3 -19.5 -5.5t-26.5 -2.5
q-32 0 -52 15.5t-20 50.5v34q-20 -42 -63.5 -73t-118.5 -31q-86 0 -129.5 41.5t-43.5 107.5q0 65 37.5 101t123.5 50zM213 236q-61 -11 -84.5 -34.5t-23.5 -64.5q0 -42 30 -70t86 -28q36 0 67.5 13t54.5 35.5t36 53.5t13 67v58zM262 606q27 0 45.5 18t18.5 48t-17.5 48.5
t-46.5 18.5q-27 0 -45.5 -18t-18.5 -50q0 -29 17.5 -47t46.5 -18zM262 573q-42 0 -70.5 26.5t-28.5 71.5q0 21 7.5 39.5t21 32t31.5 21.5t39 8q42 0 70.5 -26.5t28.5 -71.5q0 -21 -7.5 -39.5t-21 -32t-31.5 -21.5t-39 -8z" />
    <glyph glyph-name="ae" unicode="&#xe6;" horiz-adv-x="836" 
d="M431 246q0 -96 41 -149t116 -53q34 0 59 9.5t43 25.5t28.5 37t16.5 44h66q-8 -33 -24.5 -64t-42.5 -55t-62 -39t-84 -15q-71 0 -119 36.5t-69 90.5q-20 -60 -67 -93.5t-122 -33.5q-82 0 -127.5 41.5t-45.5 107.5q0 65 37.5 100t123.5 51l125 23q30 5 37.5 12t7.5 22v26
q0 42 -26 70.5t-82 28.5q-38 0 -63.5 -9t-41 -24t-22 -35.5t-6.5 -44.5h-67q0 32 10 62.5t34 54t62.5 38t95.5 14.5q65 0 103 -29.5t49 -74.5q25 43 67 73.5t106 30.5q55 0 95 -20.5t66 -55.5t38 -82t12 -100v-21h-368zM213 236q-61 -11 -84.5 -34.5t-23.5 -64.5
q0 -42 28 -70t88 -28q33 0 60.5 13t47.5 35.5t31 53.5t11 67v58zM735 297q-3 78 -40.5 125t-106.5 47q-42 0 -71 -16.5t-47 -41.5t-27 -55.5t-11 -58.5h303z" />
    <glyph glyph-name="ccedilla" unicode="&#xe7;" horiz-adv-x="513" 
d="M172 -148q17 -9 36 -13t34 -4q29 0 45 10.5t16 30.5t-15.5 28.5t-34.5 8.5q-22 0 -46 -8l-13 13l51 71q-53 5 -91 28t-62.5 58.5t-36.5 80.5t-12 94q0 52 14 102t43 88t73.5 61.5t106.5 23.5q85 0 139 -45.5t63 -126.5h-63q-11 55 -46.5 85.5t-93.5 30.5q-47 0 -80 -19.5
t-53 -50.5t-29 -68.5t-9 -74.5q0 -42 9 -81t29 -68t51.5 -46.5t77.5 -17.5q58 0 98.5 32.5t47.5 102.5h63q-5 -44 -22.5 -79t-44 -59.5t-61.5 -38t-74 -14.5l-36 -46l18 4t18 2q38 0 58.5 -18.5t20.5 -48.5q0 -22 -9.5 -37.5t-25 -25t-35.5 -14t-42 -4.5q-28 0 -48.5 4.5
t-42.5 14.5z" />
    <glyph glyph-name="egrave" unicode="&#xe8;" horiz-adv-x="526" 
d="M106 246q0 -96 44 -149t123 -53q35 0 61 9.5t44.5 25.5t29.5 37t17 44h66q-8 -33 -25 -64t-44 -55t-64 -39t-85 -15q-53 0 -95.5 18t-72.5 52t-46 83t-16 111q0 55 14.5 105t43.5 87.5t72 59.5t100 22q56 0 97 -20.5t67.5 -55.5t39 -82t12.5 -100v-21h-383zM425 297
q-3 78 -42 125t-110 47q-44 0 -74.5 -16.5t-50 -41.5t-29.5 -55.5t-12 -58.5h318zM266 588l-118 133h91l81 -133h-54z" />
    <glyph glyph-name="eacute" unicode="&#xe9;" horiz-adv-x="526" 
d="M106 246q0 -96 44 -149t123 -53q35 0 61 9.5t44.5 25.5t29.5 37t17 44h66q-8 -33 -25 -64t-44 -55t-64 -39t-85 -15q-53 0 -95.5 18t-72.5 52t-46 83t-16 111q0 55 14.5 105t43.5 87.5t72 59.5t100 22q56 0 97 -20.5t67.5 -55.5t39 -82t12.5 -100v-21h-383zM425 297
q-3 78 -42 125t-110 47q-44 0 -74.5 -16.5t-50 -41.5t-29.5 -55.5t-12 -58.5h318zM234 588l82 133h90l-118 -133h-54z" />
    <glyph glyph-name="ecircumflex" unicode="&#xea;" horiz-adv-x="526" 
d="M106 246q0 -96 44 -149t123 -53q35 0 61 9.5t44.5 25.5t29.5 37t17 44h66q-8 -33 -25 -64t-44 -55t-64 -39t-85 -15q-53 0 -95.5 18t-72.5 52t-46 83t-16 111q0 55 14.5 105t43.5 87.5t72 59.5t100 22q56 0 97 -20.5t67.5 -55.5t39 -82t12.5 -100v-21h-383zM425 297
q-3 78 -42 125t-110 47q-44 0 -74.5 -16.5t-50 -41.5t-29.5 -55.5t-12 -58.5h318zM354 589l-78 94l-79 -94h-68l111 132h72l111 -132h-69z" />
    <glyph glyph-name="edieresis" unicode="&#xeb;" horiz-adv-x="526" 
d="M106 246q0 -96 44 -149t123 -53q35 0 61 9.5t44.5 25.5t29.5 37t17 44h66q-8 -33 -25 -64t-44 -55t-64 -39t-85 -15q-53 0 -95.5 18t-72.5 52t-46 83t-16 111q0 55 14.5 105t43.5 87.5t72 59.5t100 22q56 0 97 -20.5t67.5 -55.5t39 -82t12.5 -100v-21h-383zM425 297
q-3 78 -42 125t-110 47q-44 0 -74.5 -16.5t-50 -41.5t-29.5 -55.5t-12 -58.5h318zM331 616v90h66v-90h-66zM156 616v90h66v-90h-66z" />
    <glyph glyph-name="igrave" unicode="&#xec;" horiz-adv-x="207" 
d="M75 0v512h64v-512h-64zM105 588l-118 133h91l81 -133h-54z" />
    <glyph glyph-name="iacute" unicode="&#xed;" horiz-adv-x="207" 
d="M75 0v512h64v-512h-64zM56 588l82 133h90l-118 -133h-54z" />
    <glyph glyph-name="icircumflex" unicode="&#xee;" horiz-adv-x="207" 
d="M75 0v512h64v-512h-64zM184 589l-78 94l-79 -94h-68l111 132h72l111 -132h-69z" />
    <glyph glyph-name="idieresis" unicode="&#xef;" horiz-adv-x="207" 
d="M75 0v512h64v-512h-64zM161 616v90h66v-90h-66zM-14 616v90h66v-90h-66z" />
    <glyph glyph-name="eth" unicode="&#xf0;" horiz-adv-x="556" 
d="M269 561l-38 24l65 52q-18 12 -37.5 22.5t-42.5 21.5l40 33q21 -9 40.5 -20t39.5 -25l55 45l37 -25l-57 -47q33 -25 60.5 -58.5t47 -77.5t30 -101.5t10.5 -130.5q0 -61 -16.5 -113.5t-47.5 -91t-76 -60.5t-102 -22q-109 0 -171.5 66.5t-62.5 190.5q0 55 15.5 103t45.5 84
t74 57t101 21q54 0 99 -21t71 -65q-10 58 -39 104t-77 86zM455 254q-1 92 -44.5 146.5t-127.5 54.5q-45 0 -78 -17t-54.5 -46t-32.5 -67t-11 -81q0 -45 10.5 -82t31.5 -64t53 -42t75 -15q46 0 79.5 17.5t55.5 47t32.5 68t10.5 80.5z" />
    <glyph glyph-name="ntilde" unicode="&#xf1;" horiz-adv-x="535" 
d="M136 428q17 43 57.5 70t105.5 27q37 0 68.5 -10t54.5 -31t35.5 -53.5t12.5 -77.5v-353h-64v333q0 61 -26.5 98t-91.5 37q-36 0 -63.5 -13t-46.5 -35.5t-29 -53t-10 -65.5v-301h-64v512h61v-84zM235 637q-10 3 -17.5 5t-15.5 2q-14 0 -21.5 -9.5t-11.5 -25.5h-46
q5 43 22 67.5t51 24.5q11 0 22 -2t27 -7l62 -20q14 -5 23.5 -6.5t18.5 -1.5q23 0 33 35h47q-3 -27 -11 -44.5t-19 -28t-24 -15t-26 -4.5q-14 0 -25 2t-28 8z" />
    <glyph glyph-name="ograve" unicode="&#xf2;" horiz-adv-x="549" 
d="M278 -13q-112 0 -173.5 71t-61.5 197q0 62 17.5 112t48.5 85t74 54t95 19q111 0 173 -71t62 -197q0 -62 -17 -112t-48 -85t-74.5 -54t-95.5 -19zM278 41q39 0 70.5 15.5t53.5 43.5t34 68t12 90q0 98 -42.5 155.5t-127.5 57.5q-38 0 -69.5 -15.5t-54 -43.5t-34.5 -68.5
t-12 -89.5q0 -98 42.5 -155.5t127.5 -57.5zM286 588l-118 133h91l81 -133h-54z" />
    <glyph glyph-name="oacute" unicode="&#xf3;" horiz-adv-x="549" 
d="M278 -13q-112 0 -173.5 71t-61.5 197q0 62 17.5 112t48.5 85t74 54t95 19q111 0 173 -71t62 -197q0 -62 -17 -112t-48 -85t-74.5 -54t-95.5 -19zM278 41q39 0 70.5 15.5t53.5 43.5t34 68t12 90q0 98 -42.5 155.5t-127.5 57.5q-38 0 -69.5 -15.5t-54 -43.5t-34.5 -68.5
t-12 -89.5q0 -98 42.5 -155.5t127.5 -57.5zM244 588l82 133h90l-118 -133h-54z" />
    <glyph glyph-name="ocircumflex" unicode="&#xf4;" horiz-adv-x="549" 
d="M278 -13q-112 0 -173.5 71t-61.5 197q0 62 17.5 112t48.5 85t74 54t95 19q111 0 173 -71t62 -197q0 -62 -17 -112t-48 -85t-74.5 -54t-95.5 -19zM278 41q39 0 70.5 15.5t53.5 43.5t34 68t12 90q0 98 -42.5 155.5t-127.5 57.5q-38 0 -69.5 -15.5t-54 -43.5t-34.5 -68.5
t-12 -89.5q0 -98 42.5 -155.5t127.5 -57.5zM357 589l-78 94l-79 -94h-68l111 132h72l111 -132h-69z" />
    <glyph glyph-name="otilde" unicode="&#xf5;" horiz-adv-x="549" 
d="M278 -13q-112 0 -173.5 71t-61.5 197q0 62 17.5 112t48.5 85t74 54t95 19q111 0 173 -71t62 -197q0 -62 -17 -112t-48 -85t-74.5 -54t-95.5 -19zM278 41q39 0 70.5 15.5t53.5 43.5t34 68t12 90q0 98 -42.5 155.5t-127.5 57.5q-38 0 -69.5 -15.5t-54 -43.5t-34.5 -68.5
t-12 -89.5q0 -98 42.5 -155.5t127.5 -57.5zM239 637q-10 3 -17.5 5t-15.5 2q-14 0 -21.5 -9.5t-11.5 -25.5h-46q5 43 22 67.5t51 24.5q11 0 22 -2t27 -7l62 -20q14 -5 23.5 -6.5t18.5 -1.5q23 0 33 35h47q-3 -27 -11 -44.5t-19 -28t-24 -15t-26 -4.5q-14 0 -25 2t-28 8z" />
    <glyph glyph-name="odieresis" unicode="&#xf6;" horiz-adv-x="549" 
d="M278 -13q-112 0 -173.5 71t-61.5 197q0 62 17.5 112t48.5 85t74 54t95 19q111 0 173 -71t62 -197q0 -62 -17 -112t-48 -85t-74.5 -54t-95.5 -19zM278 41q39 0 70.5 15.5t53.5 43.5t34 68t12 90q0 98 -42.5 155.5t-127.5 57.5q-38 0 -69.5 -15.5t-54 -43.5t-34.5 -68.5
t-12 -89.5q0 -98 42.5 -155.5t127.5 -57.5zM334 616v90h66v-90h-66zM159 616v90h66v-90h-66z" />
    <glyph glyph-name="divide" unicode="&#xf7;" 
d="M510 322v-60h-480v60h480zM223 451q0 20 13.5 33t32.5 13q20 0 33 -13t13 -33t-13.5 -33t-32.5 -13t-32.5 13t-13.5 33zM223 130q0 20 13.5 33t32.5 13q20 0 33 -13t13 -33t-13.5 -33t-32.5 -13t-32.5 13t-13.5 33z" />
    <glyph glyph-name="oslash" unicode="&#xf8;" horiz-adv-x="549" 
d="M40 4l56 65q-53 70 -53 186q0 62 17.5 112t48.5 85t74 54t95 19q98 0 158 -57l48 56l29 -27l-51 -59q25 -34 38 -79.5t13 -101.5q0 -62 -17 -112t-48 -85t-74.5 -54t-95.5 -19q-96 0 -155 53l-53 -62zM108 254q0 -82 30 -136l259 304q-21 23 -51 36t-68 13t-69.5 -15.5
t-54 -43.5t-34.5 -68.5t-12 -89.5zM278 41q39 0 70.5 15.5t53.5 43.5t34 68t12 90q0 77 -28 131l-258 -303q43 -45 116 -45z" />
    <glyph glyph-name="ugrave" unicode="&#xf9;" horiz-adv-x="535" 
d="M406 83q-17 -43 -57.5 -69.5t-104.5 -26.5q-37 0 -68 10t-53.5 31t-35 53.5t-12.5 77.5v353h64v-333q0 -61 26.5 -98t89.5 -37q35 0 62.5 13t46.5 35.5t29 53t10 65.5v301h64v-512h-61v83zM280 588l-118 133h91l81 -133h-54z" />
    <glyph glyph-name="uacute" unicode="&#xfa;" horiz-adv-x="535" 
d="M406 83q-17 -43 -57.5 -69.5t-104.5 -26.5q-37 0 -68 10t-53.5 31t-35 53.5t-12.5 77.5v353h64v-333q0 -61 26.5 -98t89.5 -37q35 0 62.5 13t46.5 35.5t29 53t10 65.5v301h64v-512h-61v83zM228 588l82 133h90l-118 -133h-54z" />
    <glyph glyph-name="ucircumflex" unicode="&#xfb;" horiz-adv-x="535" 
d="M406 83q-17 -43 -57.5 -69.5t-104.5 -26.5q-37 0 -68 10t-53.5 31t-35 53.5t-12.5 77.5v353h64v-333q0 -61 26.5 -98t89.5 -37q35 0 62.5 13t46.5 35.5t29 53t10 65.5v301h64v-512h-61v83zM351 589l-78 94l-79 -94h-68l111 132h72l111 -132h-69z" />
    <glyph glyph-name="udieresis" unicode="&#xfc;" horiz-adv-x="535" 
d="M406 83q-17 -43 -57.5 -69.5t-104.5 -26.5q-37 0 -68 10t-53.5 31t-35 53.5t-12.5 77.5v353h64v-333q0 -61 26.5 -98t89.5 -37q35 0 62.5 13t46.5 35.5t29 53t10 65.5v301h64v-512h-61v83zM326 616v90h66v-90h-66zM151 616v90h66v-90h-66z" />
    <glyph glyph-name="yacute" unicode="&#xfd;" horiz-adv-x="451" 
d="M56 -126q10 -1 18 -1.5t20 -0.5q31 0 49 23t36 72l18 48l-195 497h71l134 -357q9 -23 14.5 -41t9.5 -32q5 14 11 32.5t16 44.5l132 353h68l-224 -571q-12 -32 -24.5 -56t-28 -40t-35.5 -24t-48 -8q-8 0 -17.5 0.5t-24.5 3.5v57zM195 588l82 133h90l-118 -133h-54z" />
    <glyph glyph-name="thorn" unicode="&#xfe;" horiz-adv-x="566" 
d="M139 -186h-64v892h64v-276q10 16 24 33t35 30.5t50 22.5t68 9q55 0 95.5 -22t66.5 -58t39 -83.5t13 -98.5q0 -63 -16.5 -114t-46 -87t-71 -55.5t-91.5 -19.5q-66 0 -104 24.5t-62 66.5v-264zM465 255q0 45 -9 84.5t-28.5 68.5t-49 46t-69.5 17q-46 0 -78.5 -18t-53 -48.5
t-30 -70.5t-9.5 -83q0 -44 10 -82t30.5 -66.5t51 -45t72.5 -16.5q36 0 66 15t51.5 43t33.5 67.5t12 88.5z" />
    <glyph glyph-name="ydieresis" unicode="&#xff;" horiz-adv-x="451" 
d="M56 -126q10 -1 18 -1.5t20 -0.5q31 0 49 23t36 72l18 48l-195 497h71l134 -357q9 -23 14.5 -41t9.5 -32q5 14 11 32.5t16 44.5l132 353h68l-224 -571q-12 -32 -24.5 -56t-28 -40t-35.5 -24t-48 -8q-8 0 -17.5 0.5t-24.5 3.5v57zM292 616v90h66v-90h-66zM117 616v90h66
v-90h-66z" />
    <glyph glyph-name="Amacron" unicode="&#x100;" horiz-adv-x="631" 
d="M563 0l-84 223h-312l-85 -223h-72l278 706h72l275 -706h-72zM322 635l-134 -355h270zM184 838h276v-45h-276v45z" />
    <glyph glyph-name="amacron" unicode="&#x101;" horiz-adv-x="528" 
d="M345 310q30 5 37.5 12t7.5 22v30q0 42 -28.5 68.5t-100.5 26.5q-38 0 -63 -9t-41 -24t-22.5 -35.5t-6.5 -44.5h-67q0 32 10 62.5t34 54t63 38t98 14.5q96 0 141.5 -39.5t45.5 -108.5v-293q0 -23 6 -32.5t24 -9.5q11 0 28 6v-49q-8 -3 -19.5 -5.5t-26.5 -2.5
q-32 0 -52 15.5t-20 50.5v34q-20 -42 -63.5 -73t-118.5 -31q-86 0 -129.5 41.5t-43.5 107.5q0 65 37.5 101t123.5 50zM213 236q-61 -11 -84.5 -34.5t-23.5 -64.5q0 -42 30 -70t86 -28q36 0 67.5 13t54.5 35.5t36 53.5t13 67v58zM125 662h276v-45h-276v45z" />
    <glyph glyph-name="Abreve" unicode="&#x102;" horiz-adv-x="631" 
d="M563 0l-84 223h-312l-85 -223h-72l278 706h72l275 -706h-72zM322 635l-134 -355h270zM227 894q8 -42 32.5 -60.5t62.5 -18.5t61.5 18.5t34.5 60.5h41q-8 -63 -46.5 -94.5t-95.5 -31.5q-55 0 -91.5 33t-40.5 93h42z" />
    <glyph glyph-name="abreve" unicode="&#x103;" horiz-adv-x="528" 
d="M345 310q30 5 37.5 12t7.5 22v30q0 42 -28.5 68.5t-100.5 26.5q-38 0 -63 -9t-41 -24t-22.5 -35.5t-6.5 -44.5h-67q0 32 10 62.5t34 54t63 38t98 14.5q96 0 141.5 -39.5t45.5 -108.5v-293q0 -23 6 -32.5t24 -9.5q11 0 28 6v-49q-8 -3 -19.5 -5.5t-26.5 -2.5
q-32 0 -52 15.5t-20 50.5v34q-20 -42 -63.5 -73t-118.5 -31q-86 0 -129.5 41.5t-43.5 107.5q0 65 37.5 101t123.5 50zM213 236q-61 -11 -84.5 -34.5t-23.5 -64.5q0 -42 30 -70t86 -28q36 0 67.5 13t54.5 35.5t36 53.5t13 67v58zM169 718q8 -42 32.5 -60.5t62.5 -18.5
t61.5 18.5t34.5 60.5h41q-8 -63 -46.5 -94.5t-95.5 -31.5q-55 0 -91.5 33t-40.5 93h42z" />
    <glyph glyph-name="Aogonek" unicode="&#x104;" horiz-adv-x="631" 
d="M479 223h-312l-85 -223h-72l278 706h72l275 -706h-17q-83 -44 -83 -97q0 -54 60 -54q21 0 42 6v-44q-13 -4 -22 -5t-23 -1q-48 0 -77.5 23t-29.5 66q0 33 20 59.5t58 46.5zM322 635l-134 -355h270z" />
    <glyph glyph-name="aogonek" unicode="&#x105;" horiz-adv-x="528" 
d="M345 310q30 5 37.5 12t7.5 22v30q0 42 -28.5 68.5t-100.5 26.5q-38 0 -63 -9t-41 -24t-22.5 -35.5t-6.5 -44.5h-67q0 32 10 62.5t34 54t63 38t98 14.5q96 0 141.5 -39.5t45.5 -108.5v-293q0 -23 6 -32.5t24 -9.5q11 0 28 6v-49q-7 -2 -15.5 -4t-19.5 -3q-67 -40 -67 -89
q0 -54 60 -54q21 0 42 6v-44q-13 -4 -22 -5t-23 -1q-48 0 -77.5 23t-29.5 66q0 61 71 103q-37 13 -37 60v34q-20 -42 -63.5 -73t-118.5 -31q-86 0 -129.5 41.5t-43.5 107.5q0 65 37.5 101t123.5 50zM213 236q-61 -11 -84.5 -34.5t-23.5 -64.5q0 -42 30 -70t86 -28
q36 0 67.5 13t54.5 35.5t36 53.5t13 67v58z" />
    <glyph glyph-name="Cacute" unicode="&#x106;" horiz-adv-x="699" 
d="M584 507q-9 33 -26.5 61.5t-44 49t-62 32.5t-80.5 12q-64 0 -111 -24.5t-77.5 -67.5t-45.5 -100t-15 -121t15 -119t46 -96t76.5 -64.5t107.5 -23.5q51 0 90.5 15.5t68 43t45.5 65.5t23 83h69q-20 -132 -98.5 -200t-199.5 -68q-74 0 -131.5 26t-98 73t-61.5 114t-21 150
q0 73 18.5 140.5t58 119t100.5 82.5t145 31q65 0 113.5 -17.5t82 -47t54 -68.5t29.5 -81h-70zM333 764l82 133h90l-118 -133h-54z" />
    <glyph glyph-name="cacute" unicode="&#x107;" horiz-adv-x="513" 
d="M419 353q-11 55 -46.5 85.5t-93.5 30.5q-47 0 -80 -19.5t-53 -50.5t-29 -68.5t-9 -74.5q0 -42 9 -81t29 -68t51.5 -46.5t77.5 -17.5q58 0 98.5 32.5t47.5 102.5h63q-5 -45 -23 -80.5t-46 -60t-64 -37.5t-76 -13q-60 0 -104 21.5t-72.5 57.5t-42 83.5t-13.5 100.5
q0 52 14 102t43 88t73.5 61.5t106.5 23.5q85 0 139 -45.5t63 -126.5h-63zM241 588l82 133h90l-118 -133h-54z" />
    <glyph glyph-name="Ccircumflex" unicode="&#x108;" horiz-adv-x="699" 
d="M584 507q-9 33 -26.5 61.5t-44 49t-62 32.5t-80.5 12q-64 0 -111 -24.5t-77.5 -67.5t-45.5 -100t-15 -121t15 -119t46 -96t76.5 -64.5t107.5 -23.5q51 0 90.5 15.5t68 43t45.5 65.5t23 83h69q-20 -132 -98.5 -200t-199.5 -68q-74 0 -131.5 26t-98 73t-61.5 114t-21 150
q0 73 18.5 140.5t58 119t100.5 82.5t145 31q65 0 113.5 -17.5t82 -47t54 -68.5t29.5 -81h-70zM442 765l-78 94l-79 -94h-68l111 132h72l111 -132h-69z" />
    <glyph glyph-name="ccircumflex" unicode="&#x109;" horiz-adv-x="513" 
d="M419 353q-11 55 -46.5 85.5t-93.5 30.5q-47 0 -80 -19.5t-53 -50.5t-29 -68.5t-9 -74.5q0 -42 9 -81t29 -68t51.5 -46.5t77.5 -17.5q58 0 98.5 32.5t47.5 102.5h63q-5 -45 -23 -80.5t-46 -60t-64 -37.5t-76 -13q-60 0 -104 21.5t-72.5 57.5t-42 83.5t-13.5 100.5
q0 52 14 102t43 88t73.5 61.5t106.5 23.5q85 0 139 -45.5t63 -126.5h-63zM354 589l-78 94l-79 -94h-68l111 132h72l111 -132h-69z" />
    <glyph glyph-name="Cdotaccent" unicode="&#x10a;" horiz-adv-x="699" 
d="M584 507q-9 33 -26.5 61.5t-44 49t-62 32.5t-80.5 12q-64 0 -111 -24.5t-77.5 -67.5t-45.5 -100t-15 -121t15 -119t46 -96t76.5 -64.5t107.5 -23.5q51 0 90.5 15.5t68 43t45.5 65.5t23 83h69q-20 -132 -98.5 -200t-199.5 -68q-74 0 -131.5 26t-98 73t-61.5 114t-21 150
q0 73 18.5 140.5t58 119t100.5 82.5t145 31q65 0 113.5 -17.5t82 -47t54 -68.5t29.5 -81h-70zM335 792v90h64v-90h-64z" />
    <glyph glyph-name="cdotaccent" unicode="&#x10b;" horiz-adv-x="513" 
d="M419 353q-11 55 -46.5 85.5t-93.5 30.5q-47 0 -80 -19.5t-53 -50.5t-29 -68.5t-9 -74.5q0 -42 9 -81t29 -68t51.5 -46.5t77.5 -17.5q58 0 98.5 32.5t47.5 102.5h63q-5 -45 -23 -80.5t-46 -60t-64 -37.5t-76 -13q-60 0 -104 21.5t-72.5 57.5t-42 83.5t-13.5 100.5
q0 52 14 102t43 88t73.5 61.5t106.5 23.5q85 0 139 -45.5t63 -126.5h-63zM245 616v90h64v-90h-64z" />
    <glyph glyph-name="Ccaron" unicode="&#x10c;" horiz-adv-x="699" 
d="M584 507q-9 33 -26.5 61.5t-44 49t-62 32.5t-80.5 12q-64 0 -111 -24.5t-77.5 -67.5t-45.5 -100t-15 -121t15 -119t46 -96t76.5 -64.5t107.5 -23.5q51 0 90.5 15.5t68 43t45.5 65.5t23 83h69q-20 -132 -98.5 -200t-199.5 -68q-74 0 -131.5 26t-98 73t-61.5 114t-21 150
q0 73 18.5 140.5t58 119t100.5 82.5t145 31q65 0 113.5 -17.5t82 -47t54 -68.5t29.5 -81h-70zM402 766h-72l-111 131h69l78 -93l80 93h67z" />
    <glyph glyph-name="ccaron" unicode="&#x10d;" horiz-adv-x="513" 
d="M419 353q-11 55 -46.5 85.5t-93.5 30.5q-47 0 -80 -19.5t-53 -50.5t-29 -68.5t-9 -74.5q0 -42 9 -81t29 -68t51.5 -46.5t77.5 -17.5q58 0 98.5 32.5t47.5 102.5h63q-5 -45 -23 -80.5t-46 -60t-64 -37.5t-76 -13q-60 0 -104 21.5t-72.5 57.5t-42 83.5t-13.5 100.5
q0 52 14 102t43 88t73.5 61.5t106.5 23.5q85 0 139 -45.5t63 -126.5h-63zM313 590h-72l-111 131h69l78 -93l80 93h67z" />
    <glyph glyph-name="Dcaron" unicode="&#x10e;" horiz-adv-x="680" 
d="M80 706h267q77 0 132.5 -24.5t91.5 -70t53 -110.5t17 -145q0 -82 -20 -148t-58.5 -112t-93.5 -71t-125 -25h-264v706zM336 57q119 0 178 75t59 221q0 68 -12.5 123t-40.5 93.5t-74 59.5t-113 21h-183v-593h186zM361 766h-72l-111 131h69l78 -93l80 93h67z" />
    <glyph glyph-name="dcaron" unicode="&#x10f;" horiz-adv-x="604" 
d="M436 80q-10 -15 -24 -31t-35 -30t-50 -23t-68 -9q-53 0 -93 20.5t-67.5 56.5t-41.5 84t-14 104q0 63 16.5 114t46 86t71 54t91.5 19q61 0 101 -25t64 -67v273h64v-706h-61v80zM108 257q0 -48 10.5 -88t30.5 -68.5t49.5 -44t67.5 -15.5q46 0 78 17.5t52 48t29.5 71.5
t9.5 88q0 41 -10 78t-30.5 65.5t-52 45t-74.5 16.5q-73 0 -116.5 -56.5t-43.5 -157.5zM649 707l-61 -164h-46l30 164h77z" />
    <glyph glyph-name="Dcroat" unicode="&#x110;" horiz-adv-x="680" 
d="M80 402v304h267q77 0 132.5 -24.5t91.5 -70t53 -110.5t17 -145q0 -82 -20 -148t-58.5 -112t-93.5 -71t-125 -25h-264v347h-71v55h71zM336 57q119 0 178 75t59 221q0 68 -12.5 123t-40.5 93.5t-74 59.5t-113 21h-183v-248h167v-55h-167v-290h186z" />
    <glyph glyph-name="dcroat" unicode="&#x111;" horiz-adv-x="565" 
d="M433 624v82h64v-82h82v-49h-82v-575h-61v80q-10 -15 -24 -31t-35 -30t-50 -23t-68 -9q-53 0 -93 20.5t-67.5 56.5t-41.5 84t-14 104q0 63 16.5 114t46 86t71 54t91.5 19q61 0 101 -25t64 -67v142h-163v49h163zM108 257q0 -48 10.5 -88t30.5 -68.5t49.5 -44t67.5 -15.5
q46 0 78 17.5t52 48t29.5 71.5t9.5 88q0 41 -10 78t-30.5 65.5t-52 45t-74.5 16.5q-73 0 -116.5 -56.5t-43.5 -157.5z" />
    <glyph glyph-name="Emacron" unicode="&#x112;" horiz-adv-x="583" 
d="M80 0v706h474v-59h-404v-254h369v-58h-369v-276h409v-59h-479zM189 838h276v-45h-276v45z" />
    <glyph glyph-name="emacron" unicode="&#x113;" horiz-adv-x="526" 
d="M106 246q0 -96 44 -149t123 -53q35 0 61 9.5t44.5 25.5t29.5 37t17 44h66q-8 -33 -25 -64t-44 -55t-64 -39t-85 -15q-53 0 -95.5 18t-72.5 52t-46 83t-16 111q0 55 14.5 105t43.5 87.5t72 59.5t100 22q56 0 97 -20.5t67.5 -55.5t39 -82t12.5 -100v-21h-383zM425 297
q-3 78 -42 125t-110 47q-44 0 -74.5 -16.5t-50 -41.5t-29.5 -55.5t-12 -58.5h318zM139 662h276v-45h-276v45z" />
    <glyph glyph-name="Ebreve" unicode="&#x114;" horiz-adv-x="583" 
d="M80 0v706h474v-59h-404v-254h369v-58h-369v-276h409v-59h-479zM229 894q8 -42 32.5 -60.5t62.5 -18.5t61.5 18.5t34.5 60.5h41q-8 -63 -46.5 -94.5t-95.5 -31.5q-55 0 -91.5 33t-40.5 93h42z" />
    <glyph glyph-name="ebreve" unicode="&#x115;" horiz-adv-x="526" 
d="M106 246q0 -96 44 -149t123 -53q35 0 61 9.5t44.5 25.5t29.5 37t17 44h66q-8 -33 -25 -64t-44 -55t-64 -39t-85 -15q-53 0 -95.5 18t-72.5 52t-46 83t-16 111q0 55 14.5 105t43.5 87.5t72 59.5t100 22q56 0 97 -20.5t67.5 -55.5t39 -82t12.5 -100v-21h-383zM425 297
q-3 78 -42 125t-110 47q-44 0 -74.5 -16.5t-50 -41.5t-29.5 -55.5t-12 -58.5h318zM179 718q8 -42 32.5 -60.5t62.5 -18.5t61.5 18.5t34.5 60.5h41q-8 -63 -46.5 -94.5t-95.5 -31.5q-55 0 -91.5 33t-40.5 93h42z" />
    <glyph glyph-name="Edotaccent" unicode="&#x116;" horiz-adv-x="583" 
d="M80 0v706h474v-59h-404v-254h369v-58h-369v-276h409v-59h-479zM296 792v90h64v-90h-64z" />
    <glyph glyph-name="edotaccent" unicode="&#x117;" horiz-adv-x="526" 
d="M106 246q0 -96 44 -149t123 -53q35 0 61 9.5t44.5 25.5t29.5 37t17 44h66q-8 -33 -25 -64t-44 -55t-64 -39t-85 -15q-53 0 -95.5 18t-72.5 52t-46 83t-16 111q0 55 14.5 105t43.5 87.5t72 59.5t100 22q56 0 97 -20.5t67.5 -55.5t39 -82t12.5 -100v-21h-383zM425 297
q-3 78 -42 125t-110 47q-44 0 -74.5 -16.5t-50 -41.5t-29.5 -55.5t-12 -58.5h318zM245 616v90h64v-90h-64z" />
    <glyph glyph-name="Eogonek" unicode="&#x118;" horiz-adv-x="583" 
d="M80 0v706h474v-59h-404v-254h369v-58h-369v-276h409v-59q-83 -44 -83 -97q0 -54 60 -54q21 0 42 6v-44q-13 -4 -22 -5t-23 -1q-48 0 -77.5 23t-29.5 66q0 33 20 59.5t58 46.5h-424z" />
    <glyph glyph-name="eogonek" unicode="&#x119;" horiz-adv-x="526" 
d="M106 246q0 -96 44 -149t123 -53q35 0 61 9.5t44.5 25.5t29.5 37t17 44h66q-8 -30 -22.5 -59t-38 -52.5t-55 -39.5t-72.5 -20q-63 -41 -63 -86q0 -54 60 -54q21 0 42 6v-44q-13 -4 -22 -5t-23 -1q-48 0 -77.5 23t-29.5 66q0 55 57 94q-95 9 -149.5 77.5t-54.5 185.5
q0 55 14.5 105t43.5 87.5t72 59.5t100 22q56 0 97 -20.5t67.5 -55.5t39 -82t12.5 -100v-21h-383zM425 297q-3 78 -42 125t-110 47q-44 0 -74.5 -16.5t-50 -41.5t-29.5 -55.5t-12 -58.5h318z" />
    <glyph glyph-name="Ecaron" unicode="&#x11a;" horiz-adv-x="583" 
d="M80 0v706h474v-59h-404v-254h369v-58h-369v-276h409v-59h-479zM363 766h-72l-111 131h69l78 -93l80 93h67z" />
    <glyph glyph-name="ecaron" unicode="&#x11b;" horiz-adv-x="526" 
d="M106 246q0 -96 44 -149t123 -53q35 0 61 9.5t44.5 25.5t29.5 37t17 44h66q-8 -33 -25 -64t-44 -55t-64 -39t-85 -15q-53 0 -95.5 18t-72.5 52t-46 83t-16 111q0 55 14.5 105t43.5 87.5t72 59.5t100 22q56 0 97 -20.5t67.5 -55.5t39 -82t12.5 -100v-21h-383zM425 297
q-3 78 -42 125t-110 47q-44 0 -74.5 -16.5t-50 -41.5t-29.5 -55.5t-12 -58.5h318zM313 590h-72l-111 131h69l78 -93l80 93h67z" />
    <glyph glyph-name="Gcircumflex" unicode="&#x11c;" horiz-adv-x="741" 
d="M619 0v120q-15 -25 -37 -49t-53 -43t-71 -31t-92 -12q-71 0 -128.5 26t-98.5 73.5t-63.5 115.5t-22.5 152q0 77 21.5 144.5t63.5 117.5t104.5 78.5t144.5 28.5q60 0 109 -16.5t85.5 -46t59 -70t28.5 -89.5h-67q-6 32 -22.5 61.5t-44 52t-65.5 36t-87 13.5
q-63 0 -111.5 -23t-81 -63.5t-49.5 -97t-17 -122.5q0 -74 17.5 -132t50.5 -98t79.5 -61.5t105.5 -21.5q60 0 105 22.5t74 57.5t43.5 77t14.5 81v23h-237v58h298v-362h-56zM453 765l-78 94l-79 -94h-68l111 132h72l111 -132h-69z" />
    <glyph glyph-name="gcircumflex" unicode="&#x11d;" horiz-adv-x="566" 
d="M439 107q-11 -19 -26.5 -37.5t-37 -33t-49.5 -23.5t-64 -9q-54 0 -94.5 21t-68.5 56.5t-42 81.5t-14 97q0 60 16.5 109t46.5 83.5t72 53.5t93 19q60 0 101.5 -25.5t64.5 -68.5v81h61v-474q0 -119 -55.5 -179t-173.5 -60q-93 0 -143.5 38.5t-55.5 98.5h67q9 -44 44 -62.5
t90 -18.5q42 0 73.5 9.5t52.5 31t31.5 57t10.5 86.5v68zM108 265q0 -44 10 -81.5t30.5 -65.5t50.5 -44t70 -16q46 0 78 18.5t52 48.5t29 69t9 80q0 35 -10 70t-30 63.5t-51.5 46t-74.5 17.5q-38 0 -68 -14.5t-51 -41.5t-32.5 -65t-11.5 -85zM352 589l-78 94l-79 -94h-68
l111 132h72l111 -132h-69z" />
    <glyph glyph-name="Gbreve" unicode="&#x11e;" horiz-adv-x="741" 
d="M619 0v120q-15 -25 -37 -49t-53 -43t-71 -31t-92 -12q-71 0 -128.5 26t-98.5 73.5t-63.5 115.5t-22.5 152q0 77 21.5 144.5t63.5 117.5t104.5 78.5t144.5 28.5q60 0 109 -16.5t85.5 -46t59 -70t28.5 -89.5h-67q-6 32 -22.5 61.5t-44 52t-65.5 36t-87 13.5
q-63 0 -111.5 -23t-81 -63.5t-49.5 -97t-17 -122.5q0 -74 17.5 -132t50.5 -98t79.5 -61.5t105.5 -21.5q60 0 105 22.5t74 57.5t43.5 77t14.5 81v23h-237v58h298v-362h-56zM279 894q8 -42 32.5 -60.5t62.5 -18.5t61.5 18.5t34.5 60.5h41q-8 -63 -46.5 -94.5t-95.5 -31.5
q-55 0 -91.5 33t-40.5 93h42z" />
    <glyph glyph-name="gbreve" unicode="&#x11f;" horiz-adv-x="566" 
d="M439 107q-11 -19 -26.5 -37.5t-37 -33t-49.5 -23.5t-64 -9q-54 0 -94.5 21t-68.5 56.5t-42 81.5t-14 97q0 60 16.5 109t46.5 83.5t72 53.5t93 19q60 0 101.5 -25.5t64.5 -68.5v81h61v-474q0 -119 -55.5 -179t-173.5 -60q-93 0 -143.5 38.5t-55.5 98.5h67q9 -44 44 -62.5
t90 -18.5q42 0 73.5 9.5t52.5 31t31.5 57t10.5 86.5v68zM108 265q0 -44 10 -81.5t30.5 -65.5t50.5 -44t70 -16q46 0 78 18.5t52 48.5t29 69t9 80q0 35 -10 70t-30 63.5t-51.5 46t-74.5 17.5q-38 0 -68 -14.5t-51 -41.5t-32.5 -65t-11.5 -85zM177 718q8 -42 32.5 -60.5
t62.5 -18.5t61.5 18.5t34.5 60.5h41q-8 -63 -46.5 -94.5t-95.5 -31.5q-55 0 -91.5 33t-40.5 93h42z" />
    <glyph glyph-name="Gdotaccent" unicode="&#x120;" horiz-adv-x="741" 
d="M619 0v120q-15 -25 -37 -49t-53 -43t-71 -31t-92 -12q-71 0 -128.5 26t-98.5 73.5t-63.5 115.5t-22.5 152q0 77 21.5 144.5t63.5 117.5t104.5 78.5t144.5 28.5q60 0 109 -16.5t85.5 -46t59 -70t28.5 -89.5h-67q-6 32 -22.5 61.5t-44 52t-65.5 36t-87 13.5
q-63 0 -111.5 -23t-81 -63.5t-49.5 -97t-17 -122.5q0 -74 17.5 -132t50.5 -98t79.5 -61.5t105.5 -21.5q60 0 105 22.5t74 57.5t43.5 77t14.5 81v23h-237v58h298v-362h-56zM346 792v90h64v-90h-64z" />
    <glyph glyph-name="gdotaccent" unicode="&#x121;" horiz-adv-x="566" 
d="M439 107q-11 -19 -26.5 -37.5t-37 -33t-49.5 -23.5t-64 -9q-54 0 -94.5 21t-68.5 56.5t-42 81.5t-14 97q0 60 16.5 109t46.5 83.5t72 53.5t93 19q60 0 101.5 -25.5t64.5 -68.5v81h61v-474q0 -119 -55.5 -179t-173.5 -60q-93 0 -143.5 38.5t-55.5 98.5h67q9 -44 44 -62.5
t90 -18.5q42 0 73.5 9.5t52.5 31t31.5 57t10.5 86.5v68zM108 265q0 -44 10 -81.5t30.5 -65.5t50.5 -44t70 -16q46 0 78 18.5t52 48.5t29 69t9 80q0 35 -10 70t-30 63.5t-51.5 46t-74.5 17.5q-38 0 -68 -14.5t-51 -41.5t-32.5 -65t-11.5 -85zM243 616v90h64v-90h-64z" />
    <glyph glyph-name="Gcommaaccent" unicode="&#x122;" horiz-adv-x="741" 
d="M619 0v120q-15 -25 -37 -49t-53 -43t-71 -31t-92 -12q-71 0 -128.5 26t-98.5 73.5t-63.5 115.5t-22.5 152q0 77 21.5 144.5t63.5 117.5t104.5 78.5t144.5 28.5q60 0 109 -16.5t85.5 -46t59 -70t28.5 -89.5h-67q-6 32 -22.5 61.5t-44 52t-65.5 36t-87 13.5
q-63 0 -111.5 -23t-81 -63.5t-49.5 -97t-17 -122.5q0 -74 17.5 -132t50.5 -98t79.5 -61.5t105.5 -21.5q60 0 105 22.5t74 57.5t43.5 77t14.5 81v23h-237v58h298v-362h-56zM390 -55l-63 -146h-51l46 146h68z" />
    <glyph glyph-name="gcommaaccent" unicode="&#x123;" horiz-adv-x="566" 
d="M439 107q-11 -19 -26.5 -37.5t-37 -33t-49.5 -23.5t-64 -9q-54 0 -94.5 21t-68.5 56.5t-42 81.5t-14 97q0 60 16.5 109t46.5 83.5t72 53.5t93 19q60 0 101.5 -25.5t64.5 -68.5v81h61v-474q0 -119 -55.5 -179t-173.5 -60q-93 0 -143.5 38.5t-55.5 98.5h67q9 -44 44 -62.5
t90 -18.5q42 0 73.5 9.5t52.5 31t31.5 57t10.5 86.5v68zM108 265q0 -44 10 -81.5t30.5 -65.5t50.5 -44t70 -16q46 0 78 18.5t52 48.5t29 69t9 80q0 35 -10 70t-30 63.5t-51.5 46t-74.5 17.5q-38 0 -68 -14.5t-51 -41.5t-32.5 -65t-11.5 -85zM237 588l63 133h49l-48 -133h-64
z" />
    <glyph glyph-name="Hcircumflex" unicode="&#x124;" horiz-adv-x="672" 
d="M536 0v345h-386v-345h-70v706h70v-302h386v302h70v-706h-70zM421 765l-78 94l-79 -94h-68l111 132h72l111 -132h-69z" />
    <glyph glyph-name="hcircumflex" unicode="&#x125;" horiz-adv-x="536" 
d="M407 0v333q0 61 -26.5 98t-91.5 37q-36 0 -63.5 -13t-47 -35.5t-29.5 -53t-10 -65.5v-301h-64v706h64v-266q10 17 24.5 32.5t34 27t45 18.5t57.5 7q37 0 68.5 -10t54.5 -31t35.5 -53.5t12.5 -77.5v-353h-64zM339 765l-78 94l-79 -94h-68l111 132h72l111 -132h-69z" />
    <glyph glyph-name="Hbar" unicode="&#x126;" horiz-adv-x="672" 
d="M536 0v345h-386v-345h-70v535h-50v49h50v122h70v-122h386v122h70v-122h50v-49h-50v-535h-70zM536 404v131h-386v-131h386z" />
    <glyph glyph-name="hbar" unicode="&#x127;" horiz-adv-x="536" 
d="M139 575v-135q10 17 24.5 32.5t34 27t45 18.5t57.5 7q37 0 68.5 -10t54.5 -31t35.5 -53.5t12.5 -77.5v-353h-64v333q0 61 -26.5 98t-91.5 37q-36 0 -63.5 -13t-47 -35.5t-29.5 -53t-10 -65.5v-301h-64v575h-82v49h82v82h64v-82h163v-49h-163z" />
    <glyph glyph-name="Itilde" unicode="&#x128;" horiz-adv-x="236" 
d="M90 0v706h70v-706h-70zM84 813q-10 3 -17.5 5t-15.5 2q-14 0 -21.5 -9.5t-11.5 -25.5h-46q5 43 22 67.5t51 24.5q11 0 22 -2t27 -7l62 -20q14 -5 23.5 -6.5t18.5 -1.5q23 0 33 35h47q-3 -27 -11 -44.5t-19 -28t-24 -15t-26 -4.5q-14 0 -25 2t-28 8z" />
    <glyph glyph-name="itilde" unicode="&#x129;" horiz-adv-x="207" 
d="M75 0v512h64v-512h-64zM66 637q-10 3 -17.5 5t-15.5 2q-14 0 -21.5 -9.5t-11.5 -25.5h-46q5 43 22 67.5t51 24.5q11 0 22 -2t27 -7l62 -20q14 -5 23.5 -6.5t18.5 -1.5q23 0 33 35h47q-3 -27 -11 -44.5t-19 -28t-24 -15t-26 -4.5q-14 0 -25 2t-28 8z" />
    <glyph glyph-name="Imacron" unicode="&#x12a;" horiz-adv-x="236" 
d="M90 0v706h70v-706h-70zM-13 838h276v-45h-276v45z" />
    <glyph glyph-name="imacron" unicode="&#x12b;" horiz-adv-x="207" 
d="M75 0v512h64v-512h-64zM-31 662h276v-45h-276v45z" />
    <glyph glyph-name="Iogonek" unicode="&#x12e;" horiz-adv-x="236" 
d="M90 706h70v-706h-15q-83 -44 -83 -97q0 -54 60 -54q21 0 42 6v-44q-13 -4 -22 -5t-23 -1q-48 0 -77.5 23t-29.5 66q0 33 20 59.5t58 46.5v706z" />
    <glyph glyph-name="iogonek" unicode="&#x12f;" horiz-adv-x="207" 
d="M75 512h64v-512h-9q-83 -44 -83 -97q0 -54 60 -54q21 0 42 6v-44q-13 -4 -22 -5t-23 -1q-48 0 -77.5 23t-29.5 66q0 33 20 59.5t58 46.5v512zM75 616v90h64v-90h-64z" />
    <glyph glyph-name="Idotaccent" unicode="&#x130;" horiz-adv-x="236" 
d="M90 0v706h70v-706h-70zM93 792v90h64v-90h-64z" />
    <glyph glyph-name="dotlessi" unicode="&#x131;" horiz-adv-x="207" 
d="M75 0v512h64v-512h-64z" />
    <glyph glyph-name="Jcircumflex" unicode="&#x134;" horiz-adv-x="477" 
d="M344 706h70v-502q0 -109 -51 -162.5t-143 -53.5q-198 0 -198 205v16.5t1 21.5h67q-1 -12 -1 -16.5v-11.5q0 -156 131 -156q59 0 91.5 37.5t32.5 127.5v494zM456 765l-78 94l-79 -94h-68l111 132h72l111 -132h-69z" />
    <glyph glyph-name="jcircumflex" unicode="&#x135;" horiz-adv-x="207" 
d="M139 -80q0 -56 -29.5 -81.5t-81.5 -25.5q-8 0 -18.5 0.5t-21.5 2.5v54q8 -1 18 -1.5t17 -0.5q29 0 40.5 16t11.5 48v580h64v-592zM185 589l-78 94l-79 -94h-68l111 132h72l111 -132h-69z" />
    <glyph glyph-name="Kcommaaccent" unicode="&#x136;" horiz-adv-x="628" 
d="M545 0l-282 369l-113 -107v-262h-70v706h70v-366l385 366h90l-310 -293l315 -413h-85zM376 -55l-63 -146h-51l46 146h68z" />
    <glyph glyph-name="kcommaaccent" unicode="&#x137;" horiz-adv-x="490" 
d="M416 0l-187 284l-90 -83v-201h-64v706h64v-434l264 240h83l-209 -191l216 -321h-77zM313 -55l-63 -146h-51l46 146h68z" />
    <glyph glyph-name="Lacute" unicode="&#x139;" horiz-adv-x="491" 
d="M80 0v706h70v-647h339v-59h-409zM82 764l82 133h90l-118 -133h-54z" />
    <glyph glyph-name="lacute" unicode="&#x13a;" horiz-adv-x="207" 
d="M75 0v706h64v-706h-64zM54 764l82 133h90l-118 -133h-54z" />
    <glyph glyph-name="Lcommaaccent" unicode="&#x13b;" horiz-adv-x="491" 
d="M80 0v706h70v-647h339v-59h-409zM340 -55l-63 -146h-51l46 146h68z" />
    <glyph glyph-name="lcommaaccent" unicode="&#x13c;" horiz-adv-x="207" 
d="M75 0v706h64v-706h-64zM146 -55l-63 -146h-51l46 146h68z" />
    <glyph glyph-name="Lcaron" unicode="&#x13d;" horiz-adv-x="491" 
d="M80 0v706h70v-647h339v-59h-409zM369 708l-61 -164h-46l30 164h77z" />
    <glyph glyph-name="lcaron" unicode="&#x13e;" horiz-adv-x="244" 
d="M75 0v706h64v-706h-64zM289 707l-61 -164h-46l30 164h77z" />
    <glyph glyph-name="Ldot" unicode="&#x13f;" horiz-adv-x="491" 
d="M80 0v706h70v-647h339v-59h-409zM307 325v90h64v-90h-64z" />
    <glyph glyph-name="ldot" unicode="&#x140;" horiz-adv-x="280" 
d="M75 0v706h64v-706h-64zM213 301v90h64v-90h-64z" />
    <glyph glyph-name="Lslash" unicode="&#x141;" horiz-adv-x="491" 
d="M80 366v340h70v-307l184 92v-60l-184 -92v-280h339v-59h-409v306l-79 -40v60z" />
    <glyph glyph-name="lslash" unicode="&#x142;" horiz-adv-x="207" 
d="M75 425v281h64v-241l69 45v-61l-69 -45v-404h-64v364l-69 -45v61z" />
    <glyph glyph-name="Nacute" unicode="&#x143;" horiz-adv-x="690" 
d="M552 0l-365 546q-13 20 -25.5 40.5t-23.5 40.5q3 -36 4 -69.5t1 -77.5v-480h-65v706h75l374 -560q11 -16 19.5 -30t17.5 -30q-1 21 -1.5 36.5t-1 30t-0.5 30v36.5v487h65v-706h-74zM322 764l82 133h90l-118 -133h-54z" />
    <glyph glyph-name="nacute" unicode="&#x144;" horiz-adv-x="535" 
d="M136 428q17 43 57.5 70t105.5 27q37 0 68.5 -10t54.5 -31t35.5 -53.5t12.5 -77.5v-353h-64v333q0 61 -26.5 98t-91.5 37q-36 0 -63.5 -13t-46.5 -35.5t-29 -53t-10 -65.5v-301h-64v512h61v-84zM236 588l82 133h90l-118 -133h-54z" />
    <glyph glyph-name="Ncommaaccent" unicode="&#x145;" horiz-adv-x="690" 
d="M552 0l-365 546q-13 20 -25.5 40.5t-23.5 40.5q3 -36 4 -69.5t1 -77.5v-480h-65v706h75l374 -560q11 -16 19.5 -30t17.5 -30q-1 21 -1.5 36.5t-1 30t-0.5 30v36.5v487h65v-706h-74zM401 -55l-63 -146h-51l46 146h68z" />
    <glyph glyph-name="ncommaaccent" unicode="&#x146;" horiz-adv-x="535" 
d="M136 428q17 43 57.5 70t105.5 27q37 0 68.5 -10t54.5 -31t35.5 -53.5t12.5 -77.5v-353h-64v333q0 61 -26.5 98t-91.5 37q-36 0 -63.5 -13t-46.5 -35.5t-29 -53t-10 -65.5v-301h-64v512h61v-84zM313 -55l-63 -146h-51l46 146h68z" />
    <glyph glyph-name="Ncaron" unicode="&#x147;" horiz-adv-x="690" 
d="M552 0l-365 546q-13 20 -25.5 40.5t-23.5 40.5q3 -36 4 -69.5t1 -77.5v-480h-65v706h75l374 -560q11 -16 19.5 -30t17.5 -30q-1 21 -1.5 36.5t-1 30t-0.5 30v36.5v487h65v-706h-74zM391 766h-72l-111 131h69l78 -93l80 93h67z" />
    <glyph glyph-name="ncaron" unicode="&#x148;" horiz-adv-x="535" 
d="M136 428q17 43 57.5 70t105.5 27q37 0 68.5 -10t54.5 -31t35.5 -53.5t12.5 -77.5v-353h-64v333q0 61 -26.5 98t-91.5 37q-36 0 -63.5 -13t-46.5 -35.5t-29 -53t-10 -65.5v-301h-64v512h61v-84zM310 590h-72l-111 131h69l78 -93l80 93h67z" />
    <glyph glyph-name="Omacron" unicode="&#x14c;" horiz-adv-x="747" 
d="M381 45q58 0 105 20.5t81 59.5t52.5 97t18.5 133q0 70 -17 126.5t-50 96.5t-81 62t-109 22q-58 0 -105.5 -21t-81.5 -60.5t-52.5 -97.5t-18.5 -132q0 -70 17 -126.5t50 -96.5t81 -61.5t110 -21.5zM381 -15q-78 0 -139 26t-103 73.5t-64 115t-22 151.5q0 85 23.5 153.5
t66.5 116.5t103.5 74t134.5 26q77 0 137.5 -26t102.5 -73.5t64.5 -115t22.5 -151.5q0 -86 -23.5 -154.5t-66.5 -116.5t-103.5 -73.5t-133.5 -25.5zM244 838h276v-45h-276v45z" />
    <glyph glyph-name="omacron" unicode="&#x14d;" horiz-adv-x="549" 
d="M278 -13q-112 0 -173.5 71t-61.5 197q0 62 17.5 112t48.5 85t74 54t95 19q111 0 173 -71t62 -197q0 -62 -17 -112t-48 -85t-74.5 -54t-95.5 -19zM278 41q39 0 70.5 15.5t53.5 43.5t34 68t12 90q0 98 -42.5 155.5t-127.5 57.5q-38 0 -69.5 -15.5t-54 -43.5t-34.5 -68.5
t-12 -89.5q0 -98 42.5 -155.5t127.5 -57.5zM142 662h276v-45h-276v45z" />
    <glyph glyph-name="Obreve" unicode="&#x14e;" horiz-adv-x="747" 
d="M381 45q58 0 105 20.5t81 59.5t52.5 97t18.5 133q0 70 -17 126.5t-50 96.5t-81 62t-109 22q-58 0 -105.5 -21t-81.5 -60.5t-52.5 -97.5t-18.5 -132q0 -70 17 -126.5t50 -96.5t81 -61.5t110 -21.5zM381 -15q-78 0 -139 26t-103 73.5t-64 115t-22 151.5q0 85 23.5 153.5
t66.5 116.5t103.5 74t134.5 26q77 0 137.5 -26t102.5 -73.5t64.5 -115t22.5 -151.5q0 -86 -23.5 -154.5t-66.5 -116.5t-103.5 -73.5t-133.5 -25.5zM284 894q8 -42 32.5 -60.5t62.5 -18.5t61.5 18.5t34.5 60.5h41q-8 -63 -46.5 -94.5t-95.5 -31.5q-55 0 -91.5 33t-40.5 93h42
z" />
    <glyph glyph-name="obreve" unicode="&#x14f;" horiz-adv-x="549" 
d="M278 -13q-112 0 -173.5 71t-61.5 197q0 62 17.5 112t48.5 85t74 54t95 19q111 0 173 -71t62 -197q0 -62 -17 -112t-48 -85t-74.5 -54t-95.5 -19zM278 41q39 0 70.5 15.5t53.5 43.5t34 68t12 90q0 98 -42.5 155.5t-127.5 57.5q-38 0 -69.5 -15.5t-54 -43.5t-34.5 -68.5
t-12 -89.5q0 -98 42.5 -155.5t127.5 -57.5zM182 718q8 -42 32.5 -60.5t62.5 -18.5t61.5 18.5t34.5 60.5h41q-8 -63 -46.5 -94.5t-95.5 -31.5q-55 0 -91.5 33t-40.5 93h42z" />
    <glyph glyph-name="Ohungarumlaut" unicode="&#x150;" horiz-adv-x="747" 
d="M381 45q58 0 105 20.5t81 59.5t52.5 97t18.5 133q0 70 -17 126.5t-50 96.5t-81 62t-109 22q-58 0 -105.5 -21t-81.5 -60.5t-52.5 -97.5t-18.5 -132q0 -70 17 -126.5t50 -96.5t81 -61.5t110 -21.5zM381 -15q-78 0 -139 26t-103 73.5t-64 115t-22 151.5q0 85 23.5 153.5
t66.5 116.5t103.5 74t134.5 26q77 0 137.5 -26t102.5 -73.5t64.5 -115t22.5 -151.5q0 -86 -23.5 -154.5t-66.5 -116.5t-103.5 -73.5t-133.5 -25.5zM268 764l110 133h77l-136 -133h-51zM430 764l110 133h77l-136 -133h-51z" />
    <glyph glyph-name="ohungarumlaut" unicode="&#x151;" horiz-adv-x="549" 
d="M278 -13q-112 0 -173.5 71t-61.5 197q0 62 17.5 112t48.5 85t74 54t95 19q111 0 173 -71t62 -197q0 -62 -17 -112t-48 -85t-74.5 -54t-95.5 -19zM278 41q39 0 70.5 15.5t53.5 43.5t34 68t12 90q0 98 -42.5 155.5t-127.5 57.5q-38 0 -69.5 -15.5t-54 -43.5t-34.5 -68.5
t-12 -89.5q0 -98 42.5 -155.5t127.5 -57.5zM173 588l110 133h77l-136 -133h-51zM335 588l110 133h77l-136 -133h-51z" />
    <glyph glyph-name="OE" unicode="&#x152;" horiz-adv-x="1030" 
d="M557 0v71q-35 -45 -89 -65.5t-115 -20.5q-71 0 -126.5 25.5t-94 73.5t-59 116.5t-20.5 154.5q0 76 20.5 142.5t59.5 116t97 78.5t133 29q40 0 71 -7.5t55 -19.5t40.5 -27t27.5 -30v69h444v-59h-380v-254h345v-58h-345v-276h385v-59h-449zM558 494q0 34 -13.5 64.5
t-38.5 54t-61 37t-80 13.5q-60 0 -105 -24t-75.5 -65.5t-46 -98t-15.5 -120.5q0 -71 14.5 -128.5t44 -98.5t74 -63.5t103.5 -22.5q42 0 78.5 12t63 35.5t42 57t15.5 76.5v271z" />
    <glyph glyph-name="oe" unicode="&#x153;" horiz-adv-x="878" 
d="M263 -13q-106 0 -163 71t-57 197q0 62 16 112t45 85t69.5 54t89.5 19q69 0 117 -32t71 -92q12 26 29 49t39 39.5t49.5 26t61.5 9.5q55 0 95 -20.5t66 -55.5t38 -82t12 -100v-21h-362q0 -96 38 -149t113 -53q34 0 59 9.5t43 25.5t28.5 37t16.5 44h66q-8 -33 -24.5 -64
t-42.5 -55t-62 -39t-84 -15q-68 0 -116 34t-70 88q-23 -58 -70 -90t-111 -32zM263 41q35 0 63.5 15.5t48.5 43.5t31 68t11 90q0 98 -38 155.5t-116 57.5q-35 0 -64 -15.5t-49 -43.5t-31 -68.5t-11 -89.5q0 -98 38.5 -155.5t116.5 -57.5zM777 297q-3 78 -40.5 125t-106.5 47
q-42 0 -70 -16.5t-45 -41.5t-25 -55.5t-10 -58.5h297z" />
    <glyph glyph-name="Racute" unicode="&#x154;" horiz-adv-x="658" 
d="M80 0v706h313q104 0 154.5 -50t50.5 -137q0 -62 -30 -106t-83 -63q21 -8 36.5 -20t26.5 -29t17.5 -41t9.5 -57l8 -106q3 -39 13 -60.5t24 -32.5v-4h-86q-4 7 -7 13.5t-5.5 16.5t-4 25.5t-3.5 39.5l-8 100q-2 28 -9.5 51t-22 39.5t-36.5 26t-54 9.5h-234v-321h-70z
M377 379q42 0 71.5 10.5t48 29.5t26.5 44t8 55q0 63 -38.5 96.5t-114.5 33.5h-228v-269h227zM265 764l82 133h90l-118 -133h-54z" />
    <glyph glyph-name="racute" unicode="&#x155;" horiz-adv-x="312" 
d="M75 0v512h61v-98q7 21 18 40.5t28.5 35.5t41.5 25.5t57 9.5h8t14 -2v-64q-7 1 -10.5 1h-6.5q-41 0 -69 -15.5t-45 -43.5t-25 -67t-8 -85v-249h-64zM127 588l82 133h90l-118 -133h-54z" />
    <glyph glyph-name="Rcommaaccent" unicode="&#x156;" horiz-adv-x="658" 
d="M80 0v706h313q104 0 154.5 -50t50.5 -137q0 -62 -30 -106t-83 -63q21 -8 36.5 -20t26.5 -29t17.5 -41t9.5 -57l8 -106q3 -39 13 -60.5t24 -32.5v-4h-86q-4 7 -7 13.5t-5.5 16.5t-4 25.5t-3.5 39.5l-8 100q-2 28 -9.5 51t-22 39.5t-36.5 26t-54 9.5h-234v-321h-70z
M377 379q42 0 71.5 10.5t48 29.5t26.5 44t8 55q0 63 -38.5 96.5t-114.5 33.5h-228v-269h227zM386 -55l-63 -146h-51l46 146h68z" />
    <glyph glyph-name="rcommaaccent" unicode="&#x157;" horiz-adv-x="312" 
d="M75 0v512h61v-98q7 21 18 40.5t28.5 35.5t41.5 25.5t57 9.5h8t14 -2v-64q-7 1 -10.5 1h-6.5q-41 0 -69 -15.5t-45 -43.5t-25 -67t-8 -85v-249h-64zM141 -55l-63 -146h-51l46 146h68z" />
    <glyph glyph-name="Rcaron" unicode="&#x158;" horiz-adv-x="658" 
d="M80 0v706h313q104 0 154.5 -50t50.5 -137q0 -62 -30 -106t-83 -63q21 -8 36.5 -20t26.5 -29t17.5 -41t9.5 -57l8 -106q3 -39 13 -60.5t24 -32.5v-4h-86q-4 7 -7 13.5t-5.5 16.5t-4 25.5t-3.5 39.5l-8 100q-2 28 -9.5 51t-22 39.5t-36.5 26t-54 9.5h-234v-321h-70z
M377 379q42 0 71.5 10.5t48 29.5t26.5 44t8 55q0 63 -38.5 96.5t-114.5 33.5h-228v-269h227zM364 766h-72l-111 131h69l78 -93l80 93h67z" />
    <glyph glyph-name="rcaron" unicode="&#x159;" horiz-adv-x="312" 
d="M75 0v512h61v-98q7 21 18 40.5t28.5 35.5t41.5 25.5t57 9.5h8t14 -2v-64q-7 1 -10.5 1h-6.5q-41 0 -69 -15.5t-45 -43.5t-25 -67t-8 -85v-249h-64zM225 590h-72l-111 131h69l78 -93l80 93h67z" />
    <glyph glyph-name="Sacute" unicode="&#x15a;" horiz-adv-x="595" 
d="M225 349q-78 17 -121.5 59t-43.5 121q0 37 15 72t45 61t75.5 42t106.5 16q68 0 115 -17t76 -45.5t43 -66.5t16 -80h-69q0 28 -10.5 55t-32 48t-56 34t-82.5 13q-46 0 -79 -11t-54 -29t-30.5 -41.5t-9.5 -48.5q0 -48 28 -76.5t93 -42.5l135 -30q50 -11 84.5 -28t55.5 -40
t30.5 -52t9.5 -65q0 -45 -16.5 -83t-49 -66.5t-80.5 -44.5t-111 -16q-57 0 -106 14.5t-85 44.5t-56 77t-20 112h70q0 -48 15 -83t41.5 -58.5t63.5 -34.5t81 -11q94 0 139 40t45 104q0 23 -5.5 42.5t-20.5 35t-41 28t-67 21.5zM275 764l82 133h90l-118 -133h-54z" />
    <glyph glyph-name="sacute" unicode="&#x15b;" horiz-adv-x="460" 
d="M169 247q-68 17 -96.5 48.5t-28.5 85.5q0 30 12.5 56t36 45.5t58 31t79.5 11.5q52 0 88.5 -13.5t59.5 -35.5t33.5 -51.5t12.5 -60.5h-64q-2 20 -10 38.5t-23.5 33t-40 23t-58.5 8.5q-32 0 -54.5 -7t-37 -18.5t-21 -26t-6.5 -30.5q0 -15 3.5 -27t13.5 -22t27.5 -18
t44.5 -15l110 -27q68 -17 96.5 -48.5t28.5 -83.5q0 -31 -13 -59.5t-37.5 -50t-61.5 -34.5t-85 -13q-102 0 -155 49.5t-53 128.5h66q0 -29 11 -51.5t30.5 -38t45 -23.5t55.5 -8q68 0 99.5 28t31.5 69q0 28 -18.5 47.5t-71.5 32.5zM196 588l82 133h90l-118 -133h-54z" />
    <glyph glyph-name="Scircumflex" unicode="&#x15c;" horiz-adv-x="595" 
d="M225 349q-78 17 -121.5 59t-43.5 121q0 37 15 72t45 61t75.5 42t106.5 16q68 0 115 -17t76 -45.5t43 -66.5t16 -80h-69q0 28 -10.5 55t-32 48t-56 34t-82.5 13q-46 0 -79 -11t-54 -29t-30.5 -41.5t-9.5 -48.5q0 -48 28 -76.5t93 -42.5l135 -30q50 -11 84.5 -28t55.5 -40
t30.5 -52t9.5 -65q0 -45 -16.5 -83t-49 -66.5t-80.5 -44.5t-111 -16q-57 0 -106 14.5t-85 44.5t-56 77t-20 112h70q0 -48 15 -83t41.5 -58.5t63.5 -34.5t81 -11q94 0 139 40t45 104q0 23 -5.5 42.5t-20.5 35t-41 28t-67 21.5zM384 765l-78 94l-79 -94h-68l111 132h72
l111 -132h-69z" />
    <glyph glyph-name="scircumflex" unicode="&#x15d;" horiz-adv-x="460" 
d="M169 247q-68 17 -96.5 48.5t-28.5 85.5q0 30 12.5 56t36 45.5t58 31t79.5 11.5q52 0 88.5 -13.5t59.5 -35.5t33.5 -51.5t12.5 -60.5h-64q-2 20 -10 38.5t-23.5 33t-40 23t-58.5 8.5q-32 0 -54.5 -7t-37 -18.5t-21 -26t-6.5 -30.5q0 -15 3.5 -27t13.5 -22t27.5 -18
t44.5 -15l110 -27q68 -17 96.5 -48.5t28.5 -83.5q0 -31 -13 -59.5t-37.5 -50t-61.5 -34.5t-85 -13q-102 0 -155 49.5t-53 128.5h66q0 -29 11 -51.5t30.5 -38t45 -23.5t55.5 -8q68 0 99.5 28t31.5 69q0 28 -18.5 47.5t-71.5 32.5zM313 589l-78 94l-79 -94h-68l111 132h72
l111 -132h-69z" />
    <glyph glyph-name="Scedilla" unicode="&#x15e;" horiz-adv-x="595" 
d="M217 -148q17 -9 36 -13t34 -4q29 0 45 10.5t16 30.5t-15.5 28.5t-34.5 8.5q-22 0 -46 -8l-13 13l50 70q-54 2 -99.5 17.5t-78.5 46t-51.5 76t-18.5 107.5h70q0 -48 15 -83t41.5 -58.5t63.5 -34.5t81 -11q94 0 139 40t45 104q0 23 -5.5 42.5t-20.5 35t-41 28t-67 21.5
l-137 30q-78 17 -121.5 59t-43.5 121q0 37 15 72t45 61t75.5 42t106.5 16q68 0 115 -17t76 -45.5t43 -66.5t16 -80h-69q0 28 -10.5 55t-32 48t-56 34t-82.5 13q-46 0 -79 -11t-54 -29t-30.5 -41.5t-9.5 -48.5q0 -48 28 -76.5t93 -42.5l135 -30q50 -11 84.5 -28t55.5 -40
t30.5 -52t9.5 -65q0 -43 -15.5 -80t-45.5 -64.5t-74 -44.5t-102 -20l-37 -47l18 4t18 2q38 0 58.5 -18.5t20.5 -48.5q0 -22 -9.5 -37.5t-25 -25t-35.5 -14t-42 -4.5q-28 0 -48.5 4.5t-42.5 14.5z" />
    <glyph glyph-name="scedilla" unicode="&#x15f;" horiz-adv-x="460" 
d="M146 -148q17 -9 36 -13t34 -4q29 0 45 10.5t16 30.5t-15.5 28.5t-34.5 8.5q-22 0 -46 -8l-13 13l51 70q-94 5 -142.5 53t-48.5 124h66q0 -29 11 -51.5t30.5 -38t45 -23.5t55.5 -8q68 0 99.5 28t31.5 69q0 28 -18.5 47.5t-71.5 32.5l-108 26q-68 17 -96.5 48.5t-28.5 85.5
q0 30 12.5 56t36 45.5t58 31t79.5 11.5q52 0 88.5 -13.5t59.5 -35.5t33.5 -51.5t12.5 -60.5h-64q-2 20 -10 38.5t-23.5 33t-40 23t-58.5 8.5q-32 0 -54.5 -7t-37 -18.5t-21 -26t-6.5 -30.5q0 -15 3.5 -27t13.5 -22t27.5 -18t44.5 -15l110 -27q68 -17 96.5 -48.5t28.5 -83.5
q0 -29 -11.5 -56t-34 -48.5t-55 -35t-75.5 -16.5l-37 -47l18 4t18 2q38 0 58.5 -18.5t20.5 -48.5q0 -22 -9.5 -37.5t-25 -25t-35.5 -14t-42 -4.5q-28 0 -48.5 4.5t-42.5 14.5z" />
    <glyph glyph-name="Scaron" unicode="&#x160;" horiz-adv-x="595" 
d="M225 349q-78 17 -121.5 59t-43.5 121q0 37 15 72t45 61t75.5 42t106.5 16q68 0 115 -17t76 -45.5t43 -66.5t16 -80h-69q0 28 -10.5 55t-32 48t-56 34t-82.5 13q-46 0 -79 -11t-54 -29t-30.5 -41.5t-9.5 -48.5q0 -48 28 -76.5t93 -42.5l135 -30q50 -11 84.5 -28t55.5 -40
t30.5 -52t9.5 -65q0 -45 -16.5 -83t-49 -66.5t-80.5 -44.5t-111 -16q-57 0 -106 14.5t-85 44.5t-56 77t-20 112h70q0 -48 15 -83t41.5 -58.5t63.5 -34.5t81 -11q94 0 139 40t45 104q0 23 -5.5 42.5t-20.5 35t-41 28t-67 21.5zM344 766h-72l-111 131h69l78 -93l80 93h67z" />
    <glyph glyph-name="scaron" unicode="&#x161;" horiz-adv-x="460" 
d="M169 247q-68 17 -96.5 48.5t-28.5 85.5q0 30 12.5 56t36 45.5t58 31t79.5 11.5q52 0 88.5 -13.5t59.5 -35.5t33.5 -51.5t12.5 -60.5h-64q-2 20 -10 38.5t-23.5 33t-40 23t-58.5 8.5q-32 0 -54.5 -7t-37 -18.5t-21 -26t-6.5 -30.5q0 -15 3.5 -27t13.5 -22t27.5 -18
t44.5 -15l110 -27q68 -17 96.5 -48.5t28.5 -83.5q0 -31 -13 -59.5t-37.5 -50t-61.5 -34.5t-85 -13q-102 0 -155 49.5t-53 128.5h66q0 -29 11 -51.5t30.5 -38t45 -23.5t55.5 -8q68 0 99.5 28t31.5 69q0 28 -18.5 47.5t-71.5 32.5zM267 590h-72l-111 131h69l78 -93l80 93h67z
" />
    <glyph glyph-name="Tcommaaccent" unicode="&#x162;" horiz-adv-x="537" 
d="M241 0v647h-225v59h519v-59h-224v-647h-70zM311 -55l-63 -146h-51l46 146h68z" />
    <glyph glyph-name="tcommaaccent" unicode="&#x163;" horiz-adv-x="246" 
d="M89 463h-73v49h73v150h64v-150h82v-49h-82v-364q0 -26 8 -37t28 -11q19 0 44 7v-58q-14 -4 -27.5 -6.5t-30.5 -2.5q-41 0 -63.5 20.5t-22.5 76.5v375zM187 -55l-63 -146h-51l46 146h68z" />
    <glyph glyph-name="Tcaron" unicode="&#x164;" horiz-adv-x="537" 
d="M241 0v647h-225v59h519v-59h-224v-647h-70zM312 766h-72l-111 131h69l78 -93l80 93h67z" />
    <glyph glyph-name="tcaron" unicode="&#x165;" horiz-adv-x="263" 
d="M89 463h-73v49h73v150h64v-150h82v-49h-82v-364q0 -26 8 -37t28 -11q19 0 44 7v-58q-14 -4 -27.5 -6.5t-30.5 -2.5q-41 0 -63.5 20.5t-22.5 76.5v375zM308 707l-61 -164h-46l30 164h77z" />
    <glyph glyph-name="Tbar" unicode="&#x166;" horiz-adv-x="537" 
d="M241 0v365h-177v58h177v224h-225v59h519v-59h-224v-224h176v-58h-176v-365h-70z" />
    <glyph glyph-name="tbar" unicode="&#x167;" horiz-adv-x="246" 
d="M153 287v-188q0 -26 8 -37t28 -11q19 0 44 7v-58q-14 -4 -27.5 -6.5t-30.5 -2.5q-41 0 -63.5 20.5t-22.5 76.5v199h-73v49h73v127h-73v49h73v150h64v-150h82v-49h-82v-127h82v-49h-82z" />
    <glyph glyph-name="Utilde" unicode="&#x168;" horiz-adv-x="661" 
d="M598 241q0 -67 -20 -115.5t-55 -79.5t-83 -46t-104 -15q-58 0 -106 14.5t-82 45t-52.5 77t-18.5 109.5v475h70v-455q0 -57 13.5 -96t39 -63.5t61.5 -35.5t81 -11q40 0 74 10t59 34t39 64t14 99v454h70v-465zM304 813q-10 3 -17.5 5t-15.5 2q-14 0 -21.5 -9.5t-11.5 -25.5
h-46q5 43 22 67.5t51 24.5q11 0 22 -2t27 -7l62 -20q14 -5 23.5 -6.5t18.5 -1.5q23 0 33 35h47q-3 -27 -11 -44.5t-19 -28t-24 -15t-26 -4.5q-14 0 -25 2t-28 8z" />
    <glyph glyph-name="utilde" unicode="&#x169;" horiz-adv-x="535" 
d="M406 83q-17 -43 -57.5 -69.5t-104.5 -26.5q-37 0 -68 10t-53.5 31t-35 53.5t-12.5 77.5v353h64v-333q0 -61 26.5 -98t89.5 -37q35 0 62.5 13t46.5 35.5t29 53t10 65.5v301h64v-512h-61v83zM230 637q-10 3 -17.5 5t-15.5 2q-14 0 -21.5 -9.5t-11.5 -25.5h-46q5 43 22 67.5
t51 24.5q11 0 22 -2t27 -7l62 -20q14 -5 23.5 -6.5t18.5 -1.5q23 0 33 35h47q-3 -27 -11 -44.5t-19 -28t-24 -15t-26 -4.5q-14 0 -25 2t-28 8z" />
    <glyph glyph-name="Umacron" unicode="&#x16a;" horiz-adv-x="661" 
d="M598 241q0 -67 -20 -115.5t-55 -79.5t-83 -46t-104 -15q-58 0 -106 14.5t-82 45t-52.5 77t-18.5 109.5v475h70v-455q0 -57 13.5 -96t39 -63.5t61.5 -35.5t81 -11q40 0 74 10t59 34t39 64t14 99v454h70v-465zM207 838h276v-45h-276v45z" />
    <glyph glyph-name="umacron" unicode="&#x16b;" horiz-adv-x="535" 
d="M406 83q-17 -43 -57.5 -69.5t-104.5 -26.5q-37 0 -68 10t-53.5 31t-35 53.5t-12.5 77.5v353h64v-333q0 -61 26.5 -98t89.5 -37q35 0 62.5 13t46.5 35.5t29 53t10 65.5v301h64v-512h-61v83zM133 662h276v-45h-276v45z" />
    <glyph glyph-name="Ubreve" unicode="&#x16c;" horiz-adv-x="661" 
d="M598 241q0 -67 -20 -115.5t-55 -79.5t-83 -46t-104 -15q-58 0 -106 14.5t-82 45t-52.5 77t-18.5 109.5v475h70v-455q0 -57 13.5 -96t39 -63.5t61.5 -35.5t81 -11q40 0 74 10t59 34t39 64t14 99v454h70v-465zM247 894q8 -42 32.5 -60.5t62.5 -18.5t61.5 18.5t34.5 60.5h41
q-8 -63 -46.5 -94.5t-95.5 -31.5q-55 0 -91.5 33t-40.5 93h42z" />
    <glyph glyph-name="ubreve" unicode="&#x16d;" horiz-adv-x="535" 
d="M406 83q-17 -43 -57.5 -69.5t-104.5 -26.5q-37 0 -68 10t-53.5 31t-35 53.5t-12.5 77.5v353h64v-333q0 -61 26.5 -98t89.5 -37q35 0 62.5 13t46.5 35.5t29 53t10 65.5v301h64v-512h-61v83zM173 718q8 -42 32.5 -60.5t62.5 -18.5t61.5 18.5t34.5 60.5h41
q-8 -63 -46.5 -94.5t-95.5 -31.5q-55 0 -91.5 33t-40.5 93h42z" />
    <glyph glyph-name="Uring" unicode="&#x16e;" horiz-adv-x="661" 
d="M598 241q0 -67 -20 -115.5t-55 -79.5t-83 -46t-104 -15q-58 0 -106 14.5t-82 45t-52.5 77t-18.5 109.5v475h70v-455q0 -57 13.5 -96t39 -63.5t61.5 -35.5t81 -11q40 0 74 10t59 34t39 64t14 99v454h70v-465zM344 767q27 0 45.5 18t18.5 48t-17.5 48.5t-46.5 18.5
q-27 0 -45.5 -18t-18.5 -50q0 -29 17.5 -47t46.5 -18zM344 734q-42 0 -70.5 26.5t-28.5 71.5q0 21 7.5 39.5t21 32t31.5 21.5t39 8q42 0 70.5 -26.5t28.5 -71.5q0 -21 -7.5 -39.5t-21 -32t-31.5 -21.5t-39 -8z" />
    <glyph glyph-name="uring" unicode="&#x16f;" horiz-adv-x="535" 
d="M406 83q-17 -43 -57.5 -69.5t-104.5 -26.5q-37 0 -68 10t-53.5 31t-35 53.5t-12.5 77.5v353h64v-333q0 -61 26.5 -98t89.5 -37q35 0 62.5 13t46.5 35.5t29 53t10 65.5v301h64v-512h-61v83zM270 606q27 0 45.5 18t18.5 48t-17.5 48.5t-46.5 18.5q-27 0 -45.5 -18
t-18.5 -50q0 -29 17.5 -47t46.5 -18zM270 573q-42 0 -70.5 26.5t-28.5 71.5q0 21 7.5 39.5t21 32t31.5 21.5t39 8q42 0 70.5 -26.5t28.5 -71.5q0 -21 -7.5 -39.5t-21 -32t-31.5 -21.5t-39 -8z" />
    <glyph glyph-name="Uhungarumlaut" unicode="&#x170;" horiz-adv-x="661" 
d="M598 241q0 -67 -20 -115.5t-55 -79.5t-83 -46t-104 -15q-58 0 -106 14.5t-82 45t-52.5 77t-18.5 109.5v475h70v-455q0 -57 13.5 -96t39 -63.5t61.5 -35.5t81 -11q40 0 74 10t59 34t39 64t14 99v454h70v-465zM231 764l110 133h77l-136 -133h-51zM393 764l110 133h77
l-136 -133h-51z" />
    <glyph glyph-name="uhungarumlaut" unicode="&#x171;" horiz-adv-x="535" 
d="M406 83q-17 -43 -57.5 -69.5t-104.5 -26.5q-37 0 -68 10t-53.5 31t-35 53.5t-12.5 77.5v353h64v-333q0 -61 26.5 -98t89.5 -37q35 0 62.5 13t46.5 35.5t29 53t10 65.5v301h64v-512h-61v83zM157 588l110 133h77l-136 -133h-51zM319 588l110 133h77l-136 -133h-51z" />
    <glyph glyph-name="Uogonek" unicode="&#x172;" horiz-adv-x="661" 
d="M598 241q0 -57 -14.5 -100.5t-41 -74.5t-63 -49.5t-79.5 -25.5q-65 -41 -65 -88q0 -54 60 -54q21 0 42 6v-44q-13 -4 -22 -5t-23 -1q-48 0 -77.5 23t-29.5 66q0 54 53 91h-2q-58 0 -106 14.5t-82 45t-52.5 77t-18.5 109.5v475h70v-455q0 -57 13.5 -96t39 -63.5
t61.5 -35.5t81 -11q40 0 74 10t59 34t39 64t14 99v454h70v-465z" />
    <glyph glyph-name="uogonek" unicode="&#x173;" horiz-adv-x="535" 
d="M406 83q-17 -43 -57.5 -69.5t-104.5 -26.5q-37 0 -68 10t-53.5 31t-35 53.5t-12.5 77.5v353h64v-333q0 -61 26.5 -98t89.5 -37q35 0 62.5 13t46.5 35.5t29 53t10 65.5v301h64v-512h-6q-83 -44 -83 -97q0 -54 60 -54q21 0 42 6v-44q-13 -4 -22 -5t-23 -1q-48 0 -77.5 23
t-29.5 66q0 33 20 59.5t58 46.5v83z" />
    <glyph glyph-name="Wcircumflex" unicode="&#x174;" horiz-adv-x="895" 
d="M623 0l-170 638l-168 -638h-77l-180 706h72l131 -558q4 -17 9 -40.5t8 -40.5q3 15 8 36.5t12 47.5l147 555h80l145 -548q6 -22 12 -46t11 -47l7.5 37.5t12.5 52.5l131 551h67l-179 -706h-79zM531 765l-78 94l-79 -94h-68l111 132h72l111 -132h-69z" />
    <glyph glyph-name="wcircumflex" unicode="&#x175;" horiz-adv-x="696" 
d="M462 0l-94 351q-7 25 -11.5 45.5t-6.5 32.5q-3 -14 -7.5 -32.5t-12.5 -45.5l-102 -351h-62l-158 512h69l106 -363q12 -41 17 -73q6 38 19 84l102 352h62l96 -355q5 -18 10 -40.5t8 -42.5q3 19 8.5 40t12.5 42l109 356h68l-169 -512h-64zM429 589l-78 94l-79 -94h-68
l111 132h72l111 -132h-69z" />
    <glyph glyph-name="Ycircumflex" unicode="&#x176;" horiz-adv-x="589" 
d="M269 0v309l-269 397h85l220 -334l219 334h79l-267 -397v-309h-67zM382 765l-78 94l-79 -94h-68l111 132h72l111 -132h-69z" />
    <glyph glyph-name="ycircumflex" unicode="&#x177;" horiz-adv-x="451" 
d="M56 -126q10 -1 18 -1.5t20 -0.5q31 0 49 23t36 72l18 48l-195 497h71l134 -357q9 -23 14.5 -41t9.5 -32q5 14 11 32.5t16 44.5l132 353h68l-224 -571q-12 -32 -24.5 -56t-28 -40t-35.5 -24t-48 -8q-8 0 -17.5 0.5t-24.5 3.5v57zM315 589l-78 94l-79 -94h-68l111 132h72
l111 -132h-69z" />
    <glyph glyph-name="Ydieresis" unicode="&#x178;" horiz-adv-x="589" 
d="M269 0v309l-269 397h85l220 -334l219 334h79l-267 -397v-309h-67zM358 792v90h66v-90h-66zM183 792v90h66v-90h-66z" />
    <glyph glyph-name="Zacute" unicode="&#x179;" horiz-adv-x="563" 
d="M16 0v60l446 587h-403v59h484v-59l-446 -588h454v-59h-535zM248 764l82 133h90l-118 -133h-54z" />
    <glyph glyph-name="zacute" unicode="&#x17a;" horiz-adv-x="432" 
d="M12 0v49l320 408h-295v55h373v-49l-318 -407h329v-56h-409zM177 588l82 133h90l-118 -133h-54z" />
    <glyph glyph-name="Zdotaccent" unicode="&#x17b;" horiz-adv-x="563" 
d="M16 0v60l446 587h-403v59h484v-59l-446 -588h454v-59h-535zM260 792v90h64v-90h-64z" />
    <glyph glyph-name="zdotaccent" unicode="&#x17c;" horiz-adv-x="432" 
d="M12 0v49l320 408h-295v55h373v-49l-318 -407h329v-56h-409zM188 616v90h64v-90h-64z" />
    <glyph glyph-name="Zcaron" unicode="&#x17d;" horiz-adv-x="563" 
d="M16 0v60l446 587h-403v59h484v-59l-446 -588h454v-59h-535zM331 766h-72l-111 131h69l78 -93l80 93h67z" />
    <glyph glyph-name="zcaron" unicode="&#x17e;" horiz-adv-x="432" 
d="M12 0v49l320 408h-295v55h373v-49l-318 -407h329v-56h-409zM260 590h-72l-111 131h69l78 -93l80 93h67z" />
    <glyph glyph-name="florin" unicode="&#x192;" 
d="M474 653q-17 5 -29 6.5t-26 1.5q-38 0 -57 -20.5t-28 -71.5l-22 -121h125v-48h-133l-80 -424q-17 -91 -59.5 -131.5t-106.5 -40.5q-14 0 -32.5 1.5t-38.5 6.5l16 57q17 -5 29 -7t27 -2q16 0 32 5.5t29.5 20t24.5 38.5t18 61l76 415h-103v48h113l24 132q12 66 46 101.5
t102 35.5q20 0 35 -2.5t32 -7.5z" />
    <glyph glyph-name="Scommaaccent" unicode="&#x218;" horiz-adv-x="595" 
d="M225 349q-78 17 -121.5 59t-43.5 121q0 37 15 72t45 61t75.5 42t106.5 16q68 0 115 -17t76 -45.5t43 -66.5t16 -80h-69q0 28 -10.5 55t-32 48t-56 34t-82.5 13q-46 0 -79 -11t-54 -29t-30.5 -41.5t-9.5 -48.5q0 -48 28 -76.5t93 -42.5l135 -30q50 -11 84.5 -28t55.5 -40
t30.5 -52t9.5 -65q0 -45 -16.5 -83t-49 -66.5t-80.5 -44.5t-111 -16q-57 0 -106 14.5t-85 44.5t-56 77t-20 112h70q0 -48 15 -83t41.5 -58.5t63.5 -34.5t81 -11q94 0 139 40t45 104q0 23 -5.5 42.5t-20.5 35t-41 28t-67 21.5zM342 -55l-63 -146h-51l46 146h68z" />
    <glyph glyph-name="scommaaccent" unicode="&#x219;" horiz-adv-x="460" 
d="M169 247q-68 17 -96.5 48.5t-28.5 85.5q0 30 12.5 56t36 45.5t58 31t79.5 11.5q52 0 88.5 -13.5t59.5 -35.5t33.5 -51.5t12.5 -60.5h-64q-2 20 -10 38.5t-23.5 33t-40 23t-58.5 8.5q-32 0 -54.5 -7t-37 -18.5t-21 -26t-6.5 -30.5q0 -15 3.5 -27t13.5 -22t27.5 -18
t44.5 -15l110 -27q68 -17 96.5 -48.5t28.5 -83.5q0 -31 -13 -59.5t-37.5 -50t-61.5 -34.5t-85 -13q-102 0 -155 49.5t-53 128.5h66q0 -29 11 -51.5t30.5 -38t45 -23.5t55.5 -8q68 0 99.5 28t31.5 69q0 28 -18.5 47.5t-71.5 32.5zM263 -55l-63 -146h-51l46 146h68z" />
    <glyph glyph-name="uni021A" unicode="&#x21a;" horiz-adv-x="537" 
d="M241 0v647h-225v59h519v-59h-224v-647h-70zM311 -55l-63 -146h-51l46 146h68z" />
    <glyph glyph-name="uni021B" unicode="&#x21b;" horiz-adv-x="246" 
d="M89 463h-73v49h73v150h64v-150h82v-49h-82v-364q0 -26 8 -37t28 -11q19 0 44 7v-58q-14 -4 -27.5 -6.5t-30.5 -2.5q-41 0 -63.5 20.5t-22.5 76.5v375zM187 -55l-63 -146h-51l46 146h68z" />
    <glyph glyph-name="dotlessj" unicode="&#x237;" horiz-adv-x="207" 
d="M139 -80q0 -56 -29.5 -81.5t-81.5 -25.5q-8 0 -18.5 0.5t-21.5 2.5v54q8 -1 18 -1.5t17 -0.5q29 0 40.5 16t11.5 48v580h64v-592z" />
    <glyph glyph-name="circumflex" unicode="&#x2c6;" horiz-adv-x="214" 
d="M184 589l-78 94l-79 -94h-68l111 132h72l111 -132h-69z" />
    <glyph glyph-name="caron" unicode="&#x2c7;" horiz-adv-x="214" 
d="M143 590h-72l-111 131h69l78 -93l80 93h67z" />
    <glyph glyph-name="uni02C9" unicode="&#x2c9;" horiz-adv-x="214" 
d="M-31 662h276v-45h-276v45z" />
    <glyph glyph-name="breve" unicode="&#x2d8;" horiz-adv-x="214" 
d="M9 718q8 -42 32.5 -60.5t62.5 -18.5t61.5 18.5t34.5 60.5h41q-8 -63 -46.5 -94.5t-95.5 -31.5q-55 0 -91.5 33t-40.5 93h42z" />
    <glyph glyph-name="dotaccent" unicode="&#x2d9;" horiz-adv-x="214" 
d="M75 616v90h64v-90h-64z" />
    <glyph glyph-name="ring" unicode="&#x2da;" horiz-adv-x="214" 
d="M106 606q27 0 45.5 18t18.5 48t-17.5 48.5t-46.5 18.5q-27 0 -45.5 -18t-18.5 -50q0 -29 17.5 -47t46.5 -18zM106 573q-42 0 -70.5 26.5t-28.5 71.5q0 21 7.5 39.5t21 32t31.5 21.5t39 8q42 0 70.5 -26.5t28.5 -71.5q0 -21 -7.5 -39.5t-21 -32t-31.5 -21.5t-39 -8z" />
    <glyph glyph-name="ogonek" unicode="&#x2db;" horiz-adv-x="214" 
d="M204 0q-83 -44 -83 -97q0 -54 60 -54q21 0 42 6v-44q-13 -4 -22 -5t-23 -1q-48 0 -77.5 23t-29.5 66q0 33 20 59.5t58 46.5h55z" />
    <glyph glyph-name="tilde" unicode="&#x2dc;" horiz-adv-x="214" 
d="M66 637q-10 3 -17.5 5t-15.5 2q-14 0 -21.5 -9.5t-11.5 -25.5h-46q5 43 22 67.5t51 24.5q11 0 22 -2t27 -7l62 -20q14 -5 23.5 -6.5t18.5 -1.5q23 0 33 35h47q-3 -27 -11 -44.5t-19 -28t-24 -15t-26 -4.5q-14 0 -25 2t-28 8z" />
    <glyph glyph-name="hungarumlaut" unicode="&#x2dd;" horiz-adv-x="214" 
d="M-27 588l110 133h77l-136 -133h-51zM135 588l110 133h77l-136 -133h-51z" />
    <glyph glyph-name="tonos" unicode="&#x384;" horiz-adv-x="292" 
d="M49 577l9 134h88l-47 -134h-50z" />
    <glyph glyph-name="dieresistonos" unicode="&#x385;" horiz-adv-x="292" 
d="M224 611v92h67v-92h-67zM-13 611v92h66v-92h-66zM94 577l9 135l86 -1l-47 -133z" />
    <glyph glyph-name="Alphatonos" unicode="&#x386;" horiz-adv-x="625" 
d="M553 0l-84 223h-312l-85 -223h-72l278 706h72l275 -706h-72zM312 635l-134 -355h270zM89 573l9 134h88l-47 -134h-50z" />
    <glyph glyph-name="anoteleia" unicode="&#x387;" horiz-adv-x="278" 
d="M191 410h-104v106h104v-106z" />
    <glyph glyph-name="Epsilontonos" unicode="&#x388;" horiz-adv-x="562" 
d="M70 0v706h474v-58h-404v-255h369v-58h-370v-276h410v-59h-479zM-62 573l9 134h88l-47 -134h-50z" />
    <glyph glyph-name="Etatonos" unicode="&#x389;" horiz-adv-x="667" 
d="M527 0v345h-387v-345h-69v706h69v-302h387v302h70v-706h-70zM-57 573l9 134h88l-47 -134h-50z" />
    <glyph glyph-name="Iotatonos" unicode="&#x38a;" horiz-adv-x="208" 
d="M69 0v706h71v-706h-71zM-62 573l9 134h88l-47 -134h-50z" />
    <glyph glyph-name="Omicrontonos" unicode="&#x38c;" horiz-adv-x="729" 
d="M692 369q1 -45 -4 -81.5t-14 -65.5t-20 -51t-21 -38q-48 -75 -119 -111.5t-159 -36.5q-16 0 -51 4t-77 21q-52 22 -86 56.5t-54 70.5t-29.5 67.5t-12.5 48.5q-3 15 -5.5 36.5t-2.5 56.5q0 69 15.5 134.5t57.5 120.5q13 18 35 39t53.5 39t74 30t96.5 12q18 0 45.5 -2
t59.5 -12t67 -31t67 -58q15 -17 29.5 -39.5t26.5 -52t19.5 -68.5t8.5 -89zM623 363q0 12 -1 34.5t-7 51t-18.5 60.5t-35.5 62q-25 31 -53 49t-54.5 27.5t-49.5 12t-37 2.5q-15 0 -44.5 -3.5t-65.5 -20.5q-26 -12 -53 -33.5t-49 -55t-35.5 -81.5t-13.5 -113q0 -51 7.5 -90.5
t20.5 -70t29 -52.5t33 -38q33 -31 74.5 -45t86.5 -14q16 0 52 5t76 27q17 10 33.5 23.5t29.5 27.5q13 16 26.5 36.5t24.5 49t17.5 65t6.5 84.5zM-16 573l9 134h88l-47 -134h-50z" />
    <glyph glyph-name="Upsilontonos" unicode="&#x38e;" horiz-adv-x="604" 
d="M269 0v310l-269 396h85l219 -334l220 334h79l-267 -398v-308h-67zM-121 573l9 134h88l-47 -134h-50z" />
    <glyph glyph-name="Omegatonos" unicode="&#x38f;" horiz-adv-x="784" 
d="M728 1h-274v55q45 23 81 51t61.5 64.5t39 82.5t13.5 106q0 52 -13.5 105.5t-43.5 97t-79 71t-120 27.5q-69 0 -118.5 -27t-81 -70.5t-46 -97t-14.5 -106.5q0 -59 13 -105.5t36.5 -83.5t56.5 -65t74 -50v-55h-257v62h148q-73 38 -106 115t-34 191q0 71 21.5 135t63.5 112
t103 76.5t141 28.5q78 0 139 -28.5t102.5 -76.5t63.5 -112t22 -135q0 -53 -11 -98.5t-29.5 -84t-44 -70t-54.5 -54.5l147 1v-62zM11 573l9 134h88l-47 -134h-50z" />
    <glyph glyph-name="iotadieresistonos" unicode="&#x390;" horiz-adv-x="239" 
d="M75 512h64v-412q0 -30 7 -41.5t26 -11.5q13 0 24.5 2t22.5 5v-57q-12 -4 -27 -7t-37 -3q-47 0 -63.5 24.5t-16.5 70.5v430zM208 611v92h67v-92h-67zM-29 611v92h66v-92h-66zM78 577l9 135l86 -1l-47 -133z" />
    <glyph glyph-name="Alpha" unicode="&#x391;" horiz-adv-x="625" 
d="M553 0l-84 223h-312l-85 -223h-72l278 706h72l275 -706h-72zM312 635l-134 -355h270z" />
    <glyph glyph-name="Beta" unicode="&#x392;" horiz-adv-x="646" 
d="M69 706h288h27t27 -2q40 -5 71.5 -20.5t55.5 -49.5q9 -13 20 -38t11 -63q0 -39 -15 -74.5t-47 -59.5q-8 -6 -17.5 -11t-27.5 -12q7 -2 20.5 -5t29.5 -11q11 -6 26.5 -18t29.5 -30.5t23.5 -45.5t9.5 -63q0 -46 -13.5 -77t-23.5 -45q-21 -30 -48 -46.5t-57.5 -24t-63 -9
t-65.5 -1.5h-261v706zM338 61h15t31 0.5t38.5 3.5t36.5 9q42 17 57.5 50.5t15.5 75.5q0 5 -0.5 15t-3 22.5t-8.5 26.5t-17 27q-16 19 -35.5 29.5t-41.5 15t-45 5t-45 0.5h-199v-280h201zM323 397q20 0 41 0.5t41 4.5t38.5 13.5t33.5 27.5q18 24 21.5 49.5t3.5 34.5
q0 28 -8 48t-20 33.5t-25 21t-23 10.5q-16 6 -32 7.5t-48 1.5h-209v-252h186z" />
    <glyph glyph-name="Gamma" unicode="&#x393;" horiz-adv-x="478" 
d="M81 706h396v-60h-329v-646h-67v706z" />
    <glyph glyph-name="uni0394" unicode="&#x394;" horiz-adv-x="625" 
d="M278 706h72l275 -706h-625zM96 62h433l-217 573z" />
    <glyph glyph-name="Epsilon" unicode="&#x395;" horiz-adv-x="562" 
d="M70 0v706h474v-58h-404v-255h369v-58h-370v-276h410v-59h-479z" />
    <glyph glyph-name="Zeta" unicode="&#x396;" horiz-adv-x="562" 
d="M8 0v44l458 603h-403v59h484v-59l-445 -586h453v-61h-547z" />
    <glyph glyph-name="Eta" unicode="&#x397;" horiz-adv-x="667" 
d="M527 0v345h-387v-345h-69v706h69v-302h387v302h70v-706h-70z" />
    <glyph glyph-name="Theta" unicode="&#x398;" horiz-adv-x="729" 
d="M526 400l1 -62h-319v62h318zM692 369q1 -45 -4 -81.5t-14 -65.5t-20 -51t-21 -38q-48 -75 -119 -111.5t-159 -36.5q-16 0 -51 4t-77 21q-52 22 -86 56.5t-54 70.5t-29.5 67.5t-12.5 48.5q-3 15 -5.5 36.5t-2.5 56.5q0 69 15.5 134.5t57.5 120.5q13 18 35 39t53.5 39
t74 30t96.5 12q18 0 45.5 -2t59.5 -12t67 -31t67 -58q15 -17 29.5 -39.5t26.5 -52t19.5 -68.5t8.5 -89zM623 363q0 12 -1 34.5t-7 51t-18.5 60.5t-35.5 62q-25 31 -53 49t-54.5 27.5t-49.5 12t-37 2.5q-15 0 -44.5 -3.5t-65.5 -20.5q-26 -12 -53 -33.5t-49 -55t-35.5 -81.5
t-13.5 -113q0 -51 7.5 -90.5t20.5 -70t29 -52.5t33 -38q33 -31 74.5 -45t86.5 -14q16 0 52 5t76 27q17 10 33.5 23.5t29.5 27.5q13 16 26.5 36.5t24.5 49t17.5 65t6.5 84.5z" />
    <glyph glyph-name="Iota" unicode="&#x399;" horiz-adv-x="208" 
d="M69 0v706h71v-706h-71z" />
    <glyph glyph-name="Kappa" unicode="&#x39a;" horiz-adv-x="604" 
d="M535 0l-282 370l-114 -108v-262h-69v706h69v-366l386 366h90l-310 -292l315 -414h-85z" />
    <glyph glyph-name="Lambda" unicode="&#x39b;" horiz-adv-x="625" 
d="M312 635l-237 -635h-75l278 706h72l275 -706h-75z" />
    <glyph glyph-name="Mu" unicode="&#x39c;" horiz-adv-x="792" 
d="M658 0v286l2 145q1 17 1.5 35t0.5 36q1 29 1.5 57.5t2.5 57.5q-14 -41 -30 -81l-207 -536h-66l-208 547l-11 28q-4 11 -7.5 22t-8.5 22q1 -16 1 -31.5v-31.5l2 -70l4 -486h-66v706h88l241 -630l242 630h84v-706h-66z" />
    <glyph glyph-name="Nu" unicode="&#x39d;" horiz-adv-x="688" 
d="M544 0l-240 360l-80 119l-45 70q-13 20 -25.5 38.5t-25.5 38.5q2 -31 3 -61.5t2 -61.5l2 -157v-346h-65v706h75l318 -476l56 -84q10 -16 19.5 -31.5t20.5 -31.5q-4 26 -4 51.5t-1 51.5v34t-1 34v452h65v-706h-74z" />
    <glyph glyph-name="Xi" unicode="&#x39e;" horiz-adv-x="622" 
d="M61 707h500l1 -73h-501v73zM44 73h534l1 -73h-535v73zM89 404h445l1 -73h-446v73z" />
    <glyph glyph-name="Omicron" unicode="&#x39f;" horiz-adv-x="729" 
d="M692 369q1 -45 -4 -81.5t-14 -65.5t-20 -51t-21 -38q-48 -75 -119 -111.5t-159 -36.5q-16 0 -51 4t-77 21q-52 22 -86 56.5t-54 70.5t-29.5 67.5t-12.5 48.5q-3 15 -5.5 36.5t-2.5 56.5q0 69 15.5 134.5t57.5 120.5q13 18 35 39t53.5 39t74 30t96.5 12q18 0 45.5 -2
t59.5 -12t67 -31t67 -58q15 -17 29.5 -39.5t26.5 -52t19.5 -68.5t8.5 -89zM623 363q0 12 -1 34.5t-7 51t-18.5 60.5t-35.5 62q-25 31 -53 49t-54.5 27.5t-49.5 12t-37 2.5q-15 0 -44.5 -3.5t-65.5 -20.5q-26 -12 -53 -33.5t-49 -55t-35.5 -81.5t-13.5 -113q0 -51 7.5 -90.5
t20.5 -70t29 -52.5t33 -38q33 -31 74.5 -45t86.5 -14q16 0 52 5t76 27q17 10 33.5 23.5t29.5 27.5q13 16 26.5 36.5t24.5 49t17.5 65t6.5 84.5z" />
    <glyph glyph-name="Pi" unicode="&#x3a0;" horiz-adv-x="634" 
d="M71 -1l-1 707h494v-707h-67v646h-359v-646h-67z" />
    <glyph glyph-name="Rho" unicode="&#x3a1;" horiz-adv-x="562" 
d="M70 0v706h272h23t23 -2q7 0 20.5 -1.5t29.5 -6.5t34 -14t34 -24q18 -17 37 -53.5t19 -95.5q0 -48 -11.5 -76t-23.5 -45q-21 -28 -48.5 -44t-58.5 -23.5t-63.5 -9.5t-63.5 -2h-154v-309h-69zM300 370h30.5t45.5 4q32 5 58.5 19t42.5 43q5 11 7.5 20t3.5 13q2 7 3.5 17
t1.5 26q0 7 -1 20.5t-6.5 29.5t-16 32.5t-29.5 28.5q-27 19 -59 21.5t-63 2.5h-179v-277h161z" />
    <glyph glyph-name="Sigma" unicode="&#x3a3;" horiz-adv-x="538" 
d="M25 0v61l278 294l-270 292v59h484v-59h-396l267 -291l-269 -294l406 -1v-61h-500z" />
    <glyph glyph-name="Tau" unicode="&#x3a4;" horiz-adv-x="521" 
d="M228 0v647h-227v59h519v-60h-225v-646h-67z" />
    <glyph glyph-name="Upsilon" unicode="&#x3a5;" horiz-adv-x="604" 
d="M269 0v310l-269 396h85l219 -334l220 334h79l-267 -398v-308h-67z" />
    <glyph glyph-name="Phi" unicode="&#x3a6;" horiz-adv-x="727" 
d="M328 0v100q-74 5 -128.5 30t-91 63t-54.5 86t-18 99q0 61 19 111.5t55.5 88t91 60t126.5 27.5v70h71v-70q67 -4 121 -24.5t92 -55.5t58.5 -83t20.5 -107q0 -61 -19 -113t-56 -91t-91.5 -62.5t-125.5 -28.5v-100h-71zM105 385q0 -52 16 -93.5t45.5 -71t70.5 -47t91 -21.5
v461q-45 -4 -85 -19t-71 -42.5t-49 -68.5t-18 -98zM622 390q0 44 -15 82.5t-43.5 68t-70 48.5t-94.5 24v-461q102 10 162.5 72.5t60.5 165.5z" />
    <glyph glyph-name="Chi" unicode="&#x3a7;" horiz-adv-x="562" 
d="M477 0l-196 307l-199 -307h-81l244 356l-236 350h81l193 -300l198 300h77l-239 -349l241 -357h-83z" />
    <glyph glyph-name="Psi" unicode="&#x3a8;" horiz-adv-x="719" 
d="M324 705h70v-487q88 7 140 58.5t52 144.5v284h71v-276q0 -53 -16.5 -101t-49.5 -85t-82.5 -60.5t-114.5 -27.5v-155h-70v155q-68 4 -117 28t-81 61.5t-47.5 85t-15.5 99.5v276h69v-284q0 -46 14 -82t39 -61.5t60.5 -40.5t78.5 -19v487z" />
    <glyph glyph-name="uni03A9" unicode="&#x3a9;" horiz-adv-x="682" 
d="M677 1h-274v55q45 23 81 51t61.5 64.5t39 82.5t13.5 106q0 52 -13.5 105.5t-43.5 97t-79 71t-120 27.5q-69 0 -118.5 -27t-81 -70.5t-46 -97t-14.5 -106.5q0 -59 13 -105.5t36.5 -83.5t56.5 -65t74 -50v-55h-257v62h148q-73 38 -106 115t-34 191q0 71 21.5 135t63.5 112
t103 76.5t141 28.5q78 0 139 -28.5t102.5 -76.5t63.5 -112t22 -135q0 -53 -11 -98.5t-29.5 -84t-44 -70t-54.5 -54.5l147 1v-62z" />
    <glyph glyph-name="Iotadieresis" unicode="&#x3aa;" horiz-adv-x="208" 
d="M69 0v706h71v-706h-71zM160 785v92h67v-92h-67zM-15 785v92h66v-92h-66z" />
    <glyph glyph-name="Upsilondieresis" unicode="&#x3ab;" horiz-adv-x="604" 
d="M269 0v310l-269 396h85l219 -334l220 334h79l-267 -398v-308h-67zM368 785v92h67v-92h-67zM193 785v92h66v-92h-66z" />
    <glyph glyph-name="alphatonos" unicode="&#x3ac;" horiz-adv-x="558" 
d="M483 91q0 -26 9 -35.5t23 -9.5q4 0 11.5 0.5t11.5 2.5v-53q-8 -3 -22.5 -6t-26.5 -3q-30 0 -49.5 23t-19.5 65q-11 -17 -26 -32.5t-35.5 -28t-47 -20t-59.5 -7.5q-52 0 -92.5 22t-68 58.5t-42 84.5t-14.5 100q0 53 14 102t42 87t71 60.5t101 22.5q32 0 57.5 -8t45 -21.5
t33 -30t22.5 -34.5h1v82h61v-421zM421 264q0 39 -8.5 76t-27 66t-49 46.5t-75.5 17.5q-28 0 -56.5 -11t-52 -35.5t-38 -65t-14.5 -99.5q0 -105 46 -162t119 -57q44 0 74 20t48 52t26 72t8 80zM215 577l9 134h88l-47 -134h-50z" />
    <glyph glyph-name="epsilontonos" unicode="&#x3ad;" horiz-adv-x="509" 
d="M316 240q-11 1 -27.5 1h-38.5q-144 0 -144 -86q0 -33 13 -54.5t34 -34.5t47.5 -18.5t53.5 -5.5q31 0 57 6.5t45 21.5t30 39t11 59h67q-1 -85 -55.5 -133t-157.5 -48q-48 0 -86.5 11t-66.5 32t-43 50.5t-15 67.5q0 87 93 125v1q-73 40 -73 108q0 66 53 104t144 38
q44 0 80.5 -11.5t62 -32t39.5 -48t14 -59.5h-64q0 21 -10.5 38.5t-29 30.5t-43.5 20t-53 7q-56 0 -93 -21t-37 -68q0 -76 141 -76h27.5t24.5 1v-65zM216 577l9 134h88l-47 -134h-50z" />
    <glyph glyph-name="etatonos" unicode="&#x3ae;" horiz-adv-x="538" 
d="M135 512v-84q17 46 59.5 71t100.5 25q90 0 132 -45t42 -132v-527h-65v516q0 29 -5.5 53.5t-19 42t-35.5 27.5t-55 10q-30 0 -57.5 -10.5t-48 -31t-32.5 -49.5t-12 -66v-312h-65v512h61zM260 577l9 134h88l-47 -134h-50z" />
    <glyph glyph-name="iotatonos" unicode="&#x3af;" horiz-adv-x="239" 
d="M75 512h64v-412q0 -30 7 -41.5t26 -11.5q13 0 24.5 2t22.5 5v-57q-12 -4 -27 -7t-37 -3q-47 0 -63.5 24.5t-16.5 70.5v430zM80 577l9 134h88l-47 -134h-50z" />
    <glyph glyph-name="upsilondieresistonos" unicode="&#x3b0;" horiz-adv-x="516" 
d="M436 512q20 -64 27.5 -120.5t7.5 -113.5q0 -147 -60 -219t-164 -72q-88 0 -131 47.5t-43 128.5v349h67v-326q0 -78 30 -109t88 -31q75 0 111.5 59t36.5 164q0 63 -11.5 127.5t-28.5 115.5h70zM339 611v92h67v-92h-67zM102 611v92h66v-92h-66zM209 577l9 135l86 -1
l-47 -133z" />
    <glyph glyph-name="alpha" unicode="&#x3b1;" horiz-adv-x="558" 
d="M483 91q0 -26 9 -35.5t23 -9.5q4 0 11.5 0.5t11.5 2.5v-53q-8 -3 -22.5 -6t-26.5 -3q-30 0 -49.5 23t-19.5 65q-11 -17 -26 -32.5t-35.5 -28t-47 -20t-59.5 -7.5q-52 0 -92.5 22t-68 58.5t-42 84.5t-14.5 100q0 53 14 102t42 87t71 60.5t101 22.5q32 0 57.5 -8t45 -21.5
t33 -30t22.5 -34.5h1v82h61v-421zM421 264q0 39 -8.5 76t-27 66t-49 46.5t-75.5 17.5q-28 0 -56.5 -11t-52 -35.5t-38 -65t-14.5 -99.5q0 -105 46 -162t119 -57q44 0 74 20t48 52t26 72t8 80z" />
    <glyph glyph-name="beta" unicode="&#x3b2;" horiz-adv-x="555" 
d="M135 230q0 -49 14 -85t38 -59t56 -34.5t68 -11.5q60 0 97.5 40.5t37.5 107.5q0 32 -9 60t-29 49t-52 33t-77 12q-10 0 -24.5 -0.5t-25.5 -1.5v67q10 -2 22.5 -2h20.5q69 0 103.5 34.5t34.5 88.5q0 27 -7.5 51t-23.5 41.5t-42 28t-62 10.5q-73 0 -106.5 -49t-33.5 -140
v-240zM73 -180v654q0 121 52 179.5t152 58.5q51 0 88 -15t61 -39t36 -55t12 -64q0 -57 -21.5 -95.5t-72.5 -64.5q61 -22 100.5 -68t39.5 -116q0 -47 -13.5 -85t-40 -65.5t-66 -42.5t-90.5 -15t-100 20t-76 65v-252h-61z" />
    <glyph glyph-name="gamma" unicode="&#x3b3;" horiz-adv-x="429" 
d="M404 512q-11 -83 -28 -153t-39.5 -132.5t-51 -120.5t-62.5 -115l-4 -171h-60q4 37 5 61t1 53q0 65 -10.5 138t-29 148t-45.5 149.5t-60 142.5h71q18 -36 36 -86.5t34.5 -108.5t29.5 -120t20 -122q42 78 76 184.5t49 252.5h68z" />
    <glyph glyph-name="delta" unicode="&#x3b4;" horiz-adv-x="527" 
d="M286 441q-50 -12 -85 -34t-57.5 -50.5t-33 -61t-10.5 -65.5q0 -37 10.5 -71.5t31.5 -61t51.5 -42.5t71.5 -16q37 0 67 16.5t51 43.5t32.5 61.5t11.5 70.5q0 71 -36 119.5t-105 90.5zM438 632q-35 12 -74.5 20t-84.5 8q-42 0 -70.5 -10.5t-28.5 -35.5q0 -9 5 -18t18 -21
t34 -27t53 -36q49 -33 87 -63t63.5 -63t38.5 -70t13 -83q0 -44 -13.5 -88t-41.5 -79t-71.5 -57t-102.5 -22q-53 0 -95 18t-71.5 50.5t-45.5 76.5t-16 96q0 46 15 85.5t42 71t64.5 55t83.5 38.5q-38 26 -63 46t-39 36t-19.5 29t-5.5 25q0 20 9.5 38t30 31.5t52.5 21t77 7.5
q88 0 156 -18v-62z" />
    <glyph glyph-name="epsilon" unicode="&#x3b5;" horiz-adv-x="509" 
d="M316 240q-11 1 -27.5 1h-38.5q-144 0 -144 -86q0 -33 13 -54.5t34 -34.5t47.5 -18.5t53.5 -5.5q31 0 57 6.5t45 21.5t30 39t11 59h67q-1 -85 -55.5 -133t-157.5 -48q-48 0 -86.5 11t-66.5 32t-43 50.5t-15 67.5q0 87 93 125v1q-73 40 -73 108q0 66 53 104t144 38
q44 0 80.5 -11.5t62 -32t39.5 -48t14 -59.5h-64q0 21 -10.5 38.5t-29 30.5t-43.5 20t-53 7q-56 0 -93 -21t-37 -68q0 -76 141 -76h27.5t24.5 1v-65z" />
    <glyph glyph-name="zeta" unicode="&#x3b6;" horiz-adv-x="421" 
d="M416 662q-66 -38 -123 -86.5t-99 -102.5t-66 -111t-24 -111q0 -35 7 -63.5t26 -52t52.5 -42.5t86.5 -34q58 -17 82.5 -43t24.5 -68q0 -15 -1.5 -27t-5 -26.5t-10.5 -32t-18 -42.5h-58q14 29 24 55.5t10 53.5q0 25 -15 43t-57 30q-57 17 -97.5 38.5t-66 50t-37 65
t-11.5 83.5q0 54 17.5 109.5t50.5 108.5t81 102t109 89q5 2 8.5 3.5t7.5 4.5q-5 0 -17 -5h-221v55h340v-44z" />
    <glyph glyph-name="eta" unicode="&#x3b7;" horiz-adv-x="538" 
d="M135 512v-84q17 46 59.5 71t100.5 25q90 0 132 -45t42 -132v-527h-65v516q0 29 -5.5 53.5t-19 42t-35.5 27.5t-55 10q-30 0 -57.5 -10.5t-48 -31t-32.5 -49.5t-12 -66v-312h-65v512h61z" />
    <glyph glyph-name="theta" unicode="&#x3b8;" horiz-adv-x="547" 
d="M434 383q-2 62 -13.5 113.5t-32.5 88.5t-50 57.5t-65 20.5t-65 -20.5t-50 -57t-33 -88t-13 -114.5h322zM112 330q3 -140 44.5 -216.5t116.5 -76.5q73 0 116 76t45 217h-322zM45 349q0 85 14.5 152t43 114t71.5 72t99 25t99 -25t72 -72t43.5 -114t14.5 -152
q0 -172 -59 -267t-170 -95q-56 0 -99 25t-71.5 71.5t-43 113.5t-14.5 152z" />
    <glyph glyph-name="iota" unicode="&#x3b9;" horiz-adv-x="239" 
d="M75 512h64v-412q0 -30 7 -41.5t26 -11.5q13 0 24.5 2t22.5 5v-57q-12 -4 -27 -7t-37 -3q-47 0 -63.5 24.5t-16.5 70.5v430z" />
    <glyph glyph-name="kappa" unicode="&#x3ba;" horiz-adv-x="503" 
d="M414 0l-187 284l-89 -83v-201h-65v512h66v-241q8 8 14.5 15t14.5 14l233 212h83l-209 -191l216 -321h-77z" />
    <glyph glyph-name="lambda" unicode="&#x3bb;" horiz-adv-x="488" 
d="M12 0l197 505l-28 94q-8 24 -26 40t-45 16q-9 0 -22.5 -1t-22.5 -3v57q20 4 57 4q39 0 68.5 -19.5t43.5 -64.5l176 -537q8 -26 16 -35.5t21 -9.5q18 0 36 7v-56q-8 -3 -22.5 -6.5t-29.5 -3.5q-33 0 -49.5 19t-29.5 66l-112 350l-159 -422h-69z" />
    <glyph glyph-name="uni03BC" unicode="&#x3bc;" 
d="M73 512h63v-309q0 -85 36.5 -121.5t94.5 -36.5q60 0 93.5 39.5t33.5 117.5v310h64v-400q0 -35 6.5 -50.5t24.5 -15.5q15 0 24 3v-53q-23 -9 -46 -9q-28 0 -43.5 19.5t-22.5 54.5q-26 -38 -57.5 -56t-81.5 -18q-19 0 -38.5 5t-36.5 14t-30 20.5t-19 25.5l-2 -1v-247h-63
v708z" />
    <glyph glyph-name="nu" unicode="&#x3bd;" horiz-adv-x="462" 
d="M442 512q-6 -56 -22.5 -120t-42 -131t-59 -133.5t-73.5 -127.5h-54l-186 512h76l147 -434q27 45 51 99t43 111t32 114.5t18 109.5h70z" />
    <glyph glyph-name="xi" unicode="&#x3be;" horiz-adv-x="454" 
d="M438 634q-20 6 -57 13t-74 7q-47 0 -80 -9t-53.5 -25.5t-29.5 -39.5t-9 -50q0 -23 8.5 -43.5t29.5 -37t57 -26t90 -9.5h33t28 1v-64q-11 1 -29.5 1.5t-35.5 0.5q-93 0 -150 -35t-57 -113q0 -33 15.5 -55.5t43 -38t64.5 -27t81 -22.5q40 -11 64 -23t37 -27t17 -33t4 -40
q0 -29 -9.5 -56t-28.5 -63h-54q10 19 16 34.5t9 28.5t4 25t1 25q0 29 -23 45t-82 30q-45 11 -85.5 25.5t-71 36.5t-48.5 53t-18 75q0 69 36.5 116t105.5 72q-51 14 -83 51.5t-32 85.5q0 46 17 81.5t47.5 59.5t73.5 36t94 12q33 0 71 -4t63 -11v-63z" />
    <glyph glyph-name="omicron" unicode="&#x3bf;" 
d="M506 268q0 -58 -14 -109t-43 -89.5t-74 -60.5t-107 -22q-47 0 -89.5 15t-74.5 47t-50.5 82t-18.5 121q0 63 17.5 114t48.5 86t74.5 54t96.5 19q52 0 95.5 -17.5t74 -50.5t47.5 -81t17 -108zM441 260q0 100 -43 155.5t-124 55.5q-48 0 -81 -19t-53.5 -50.5t-29.5 -71
t-9 -80.5q0 -100 45 -155.5t124 -55.5t125 59.5t46 161.5z" />
    <glyph glyph-name="pi" unicode="&#x3c0;" horiz-adv-x="580" 
d="M13 512h554v-50h-93v-362q0 -30 7 -41.5t26 -11.5q13 0 24.5 2t22.5 5v-57q-12 -4 -27 -7t-37 -3q-42 0 -61 24.5t-19 70.5v380h-248v-462h-65v462h-84v50z" />
    <glyph glyph-name="rho" unicode="&#x3c1;" horiz-adv-x="545" 
d="M67 -180v432q0 61 13 111.5t40.5 86t69.5 55t99 19.5q103 0 162 -67.5t59 -188.5q0 -57 -12.5 -108t-39.5 -89.5t-69.5 -61t-103.5 -22.5q-60 0 -97.5 25t-55.5 57v-249h-65zM445 260q0 100 -36.5 155.5t-117.5 55.5q-45 0 -75.5 -17.5t-49 -49t-26 -75.5t-7.5 -98
q0 -41 9.5 -76t29 -61t48.5 -40.5t67 -14.5q39 0 68.5 16t49.5 45t30 69.5t10 90.5z" />
    <glyph glyph-name="sigma1" unicode="&#x3c2;" horiz-adv-x="473" 
d="M376 331q-4 30 -12.5 55.5t-24 44t-38.5 29t-57 10.5q-37 0 -64 -14t-45 -38.5t-26.5 -58.5t-8.5 -73q0 -88 36 -136.5t107 -72.5q45 -16 74 -31.5t45.5 -31.5t23 -33.5t6.5 -36.5q0 -14 -1.5 -26t-6 -26.5t-12.5 -31.5t-21 -40h-53q9 17 15.5 30t10 24.5t5.5 22.5t2 25
q0 13 -3.5 26t-13.5 24t-28 21.5t-48 19.5q-58 17 -97 41.5t-62.5 58t-33.5 75.5t-10 93q0 49 14 93.5t41 77.5t67 52.5t93 19.5q85 0 134 -51t54 -142h-62z" />
    <glyph glyph-name="sigma" unicode="&#x3c3;" horiz-adv-x="554" 
d="M404 459q46 -35 65.5 -86t19.5 -105t-13.5 -105t-41.5 -90t-71.5 -62.5t-103.5 -23.5q-47 0 -87.5 17t-71 50.5t-48 83t-17.5 114.5q0 60 19 108t52.5 82t79.5 52t101 18h254v-53h-137zM423 260q0 73 -23.5 121.5t-63.5 77.5h-64q-39 0 -70.5 -15t-54 -42.5t-34.5 -66
t-12 -85.5q0 -100 42.5 -155.5t114.5 -55.5q38 0 68.5 16t52 45.5t33 70t11.5 89.5z" />
    <glyph glyph-name="tau" unicode="&#x3c4;" horiz-adv-x="432" 
d="M169 463h-155v49h397v-49h-178v-363q0 -30 7 -41.5t26 -11.5q13 0 24.5 2t22.5 5v-57q-12 -4 -27 -7t-37 -3q-47 0 -63.5 24.5t-16.5 70.5v381z" />
    <glyph glyph-name="upsilon" unicode="&#x3c5;" horiz-adv-x="516" 
d="M436 512q20 -64 27.5 -120.5t7.5 -113.5q0 -147 -60 -219t-164 -72q-88 0 -131 47.5t-43 128.5v349h67v-326q0 -78 30 -109t88 -31q75 0 111.5 59t36.5 164q0 63 -11.5 127.5t-28.5 115.5h70z" />
    <glyph glyph-name="phi" unicode="&#x3c6;" horiz-adv-x="697" 
d="M317 466q-47 0 -86 -13t-68 -39.5t-45 -66t-16 -93.5q0 -49 16 -88t44.5 -66.5t68 -42t86.5 -14.5v423zM317 647h64v-127q133 -6 207 -75.5t74 -190.5t-74.5 -191t-206.5 -76v-167h-64v167q-133 6 -207 77t-74 192q0 59 19 106.5t55.5 81.5t88.5 53.5t118 22.5v127z
M381 43q47 0 87 13t69.5 39.5t46 66t16.5 92.5q0 55 -17 95t-46 66t-69.5 38.5t-86.5 12.5v-423z" />
    <glyph glyph-name="chi" unicode="&#x3c7;" horiz-adv-x="467" 
d="M383 -180l-149 283l-149 -283h-72l188 350l-178 342h71l142 -276l143 276h71l-181 -342l185 -350h-71z" />
    <glyph glyph-name="psi" unicode="&#x3c8;" horiz-adv-x="684" 
d="M311 646h64v-604q45 3 77.5 15t52.5 35t29.5 58t9.5 84v277h67v-301q0 -45 -13 -84.5t-41.5 -69t-73 -47.5t-108.5 -21v-168h-64v168q-65 3 -110 20.5t-73.5 47t-41.5 68.5t-13 86v301h68v-277q0 -95 39 -140.5t131 -51.5v604z" />
    <glyph glyph-name="omega" unicode="&#x3c9;" horiz-adv-x="690" 
d="M313 383h63v-228q0 -51 24.5 -83.5t62.5 -32.5q33 0 56.5 14.5t38.5 40.5t22.5 62t7.5 79q0 145 -90 277h76q42 -63 61.5 -134t19.5 -149q0 -56 -13.5 -100.5t-38 -76t-59.5 -48.5t-77 -17q-51 0 -82.5 24t-39.5 67q-11 -42 -41.5 -66.5t-81.5 -24.5q-42 0 -76.5 17
t-59 48.5t-38 76t-13.5 100.5q0 156 80 283h78q-90 -132 -90 -277q0 -29 7 -63t22 -63.5t38 -49.5t56 -20q42 0 64.5 32.5t22.5 83.5v228z" />
    <glyph glyph-name="iotadieresis" unicode="&#x3ca;" horiz-adv-x="239" 
d="M75 512h64v-412q0 -30 7 -41.5t26 -11.5q13 0 24.5 2t22.5 5v-57q-12 -4 -27 -7t-37 -3q-47 0 -63.5 24.5t-16.5 70.5v430zM167 613v92h67v-92h-67zM-8 613v92h66v-92h-66z" />
    <glyph glyph-name="upsilondieresis" unicode="&#x3cb;" horiz-adv-x="516" 
d="M436 512q20 -64 27.5 -120.5t7.5 -113.5q0 -147 -60 -219t-164 -72q-88 0 -131 47.5t-43 128.5v349h67v-326q0 -78 30 -109t88 -31q75 0 111.5 59t36.5 164q0 63 -11.5 127.5t-28.5 115.5h70zM310 613v92h67v-92h-67zM135 613v92h66v-92h-66z" />
    <glyph glyph-name="omicrontonos" unicode="&#x3cc;" 
d="M506 268q0 -58 -14 -109t-43 -89.5t-74 -60.5t-107 -22q-47 0 -89.5 15t-74.5 47t-50.5 82t-18.5 121q0 63 17.5 114t48.5 86t74.5 54t96.5 19q52 0 95.5 -17.5t74 -50.5t47.5 -81t17 -108zM441 260q0 100 -43 155.5t-124 55.5q-48 0 -81 -19t-53.5 -50.5t-29.5 -71
t-9 -80.5q0 -100 45 -155.5t124 -55.5t125 59.5t46 161.5zM244 577l9 134h88l-47 -134h-50z" />
    <glyph glyph-name="upsilontonos" unicode="&#x3cd;" horiz-adv-x="516" 
d="M436 512q20 -64 27.5 -120.5t7.5 -113.5q0 -147 -60 -219t-164 -72q-88 0 -131 47.5t-43 128.5v349h67v-326q0 -78 30 -109t88 -31q75 0 111.5 59t36.5 164q0 63 -11.5 127.5t-28.5 115.5h70zM228 577l9 134h88l-47 -134h-50z" />
    <glyph glyph-name="omegatonos" unicode="&#x3ce;" horiz-adv-x="690" 
d="M313 383h63v-228q0 -51 24.5 -83.5t62.5 -32.5q33 0 56.5 14.5t38.5 40.5t22.5 62t7.5 79q0 145 -90 277h76q42 -63 61.5 -134t19.5 -149q0 -56 -13.5 -100.5t-38 -76t-59.5 -48.5t-77 -17q-51 0 -82.5 24t-39.5 67q-11 -42 -41.5 -66.5t-81.5 -24.5q-42 0 -76.5 17
t-59 48.5t-38 76t-13.5 100.5q0 156 80 283h78q-90 -132 -90 -277q0 -29 7 -63t22 -63.5t38 -49.5t56 -20q42 0 64.5 32.5t22.5 83.5v228zM310 577l9 134h88l-47 -134h-50z" />
    <glyph glyph-name="afii10023" unicode="&#x401;" horiz-adv-x="583" 
d="M80 0v706h474v-59h-404v-254h369v-58h-369v-276h409v-59h-479zM384 792v90h66v-90h-66zM209 792v90h66v-90h-66z" />
    <glyph glyph-name="afii10051" unicode="&#x402;" horiz-adv-x="750" 
d="M271 396q12 26 33 45.5t47 32t55 19t58 6.5q57 0 102 -16.5t77 -47.5t49 -76.5t17 -102.5q0 -58 -16.5 -107.5t-51.5 -85.5t-89.5 -56t-129.5 -20v59q63 0 105 16t67 44.5t35.5 67t10.5 83.5q0 90 -48.5 137.5t-133.5 47.5q-86 0 -136.5 -53.5t-50.5 -156.5v-232h-70v647
h-185v59h519v-59h-264v-251z" />
    <glyph glyph-name="afii10052" unicode="&#x403;" horiz-adv-x="509" 
d="M150 0h-70v706h432v-59h-362v-647zM258 764l82 133h90l-118 -133h-54z" />
    <glyph glyph-name="afii10053" unicode="&#x404;" horiz-adv-x="697" 
d="M470 338h-349q1 -62 17 -115.5t47 -92.5t76 -61.5t105 -22.5q49 0 88 15t67.5 41.5t46 63t24.5 80.5h69q-22 -128 -99.5 -194.5t-197.5 -66.5q-71 0 -128.5 26t-98.5 73t-63 114t-22 150q0 73 17.5 140.5t56 119t98.5 82.5t145 31q65 0 114.5 -17.5t84 -47t55.5 -68.5
t30 -81h-70q-9 33 -26.5 61.5t-44 49t-62 32.5t-80.5 12q-58 0 -102 -20.5t-74.5 -56.5t-48 -85t-22.5 -105h347v-57z" />
    <glyph glyph-name="afii10054" unicode="&#x405;" horiz-adv-x="595" 
d="M225 349q-78 17 -121.5 59t-43.5 121q0 37 15 72t45 61t75.5 42t106.5 16q68 0 115 -17t76 -45.5t43 -66.5t16 -80h-69q0 28 -10.5 55t-32 48t-56 34t-82.5 13q-46 0 -79 -11t-54 -29t-30.5 -41.5t-9.5 -48.5q0 -48 28 -76.5t93 -42.5l135 -30q50 -11 84.5 -28t55.5 -40
t30.5 -52t9.5 -65q0 -45 -16.5 -83t-49 -66.5t-80.5 -44.5t-111 -16q-57 0 -106 14.5t-85 44.5t-56 77t-20 112h70q0 -48 15 -83t41.5 -58.5t63.5 -34.5t81 -11q94 0 139 40t45 104q0 23 -5.5 42.5t-20.5 35t-41 28t-67 21.5z" />
    <glyph glyph-name="afii10055" unicode="&#x406;" horiz-adv-x="236" 
d="M90 0v706h70v-706h-70z" />
    <glyph glyph-name="afii10056" unicode="&#x407;" horiz-adv-x="236" 
d="M90 0v706h70v-706h-70zM180 792v90h66v-90h-66zM5 792v90h66v-90h-66z" />
    <glyph glyph-name="afii10057" unicode="&#x408;" horiz-adv-x="477" 
d="M344 706h70v-502q0 -109 -51 -162.5t-143 -53.5q-198 0 -198 205v16.5t1 21.5h67q-1 -12 -1 -16.5v-11.5q0 -156 131 -156q59 0 91.5 37.5t32.5 127.5v494z" />
    <glyph glyph-name="afii10058" unicode="&#x409;" horiz-adv-x="1075" 
d="M540 647h-281v-60q0 -180 -10.5 -296t-34 -183t-61 -93t-90.5 -26q-21 0 -37 3t-26 7v59q6 -2 23.5 -5.5t32.5 -3.5q43 0 70 36.5t42 106t20 170t5 228.5v116h417v-297h234q98 0 154.5 -55t56.5 -150q0 -94 -56.5 -149t-154.5 -55h-304v647zM985 204q0 68 -40.5 107
t-114.5 39h-220v-291h220q74 0 114.5 39t40.5 106z" />
    <glyph glyph-name="afii10059" unicode="&#x40a;" horiz-adv-x="1071" 
d="M536 345h-386v-345h-70v706h70v-302h386v302h70v-302h234q98 0 154.5 -54t56.5 -149q0 -94 -56.5 -147.5t-154.5 -53.5h-304v345zM981 201q0 68 -40.5 106t-114.5 38h-220v-286h220q74 0 114.5 37.5t40.5 104.5z" />
    <glyph glyph-name="afii10060" unicode="&#x40b;" horiz-adv-x="750" 
d="M694 0h-69v267q0 90 -36.5 132.5t-124.5 42.5q-43 0 -78.5 -13.5t-61 -40.5t-39.5 -66t-14 -90v-232h-70v647h-185v59h519v-59h-264v-251q12 26 34 45.5t49 32t57 19t59 6.5q116 0 170 -59t54 -174v-266z" />
    <glyph glyph-name="afii10061" unicode="&#x40c;" horiz-adv-x="628" 
d="M545 0l-282 369l-113 -107v-262h-70v706h70v-366l385 366h90l-310 -293l315 -413h-85zM281 764l82 133h90l-118 -133h-54z" />
    <glyph glyph-name="afii10062" unicode="&#x40e;" horiz-adv-x="609" 
d="M85 706l229 -480l225 480h74l-281 -582q-22 -46 -44.5 -73t-45 -41t-45 -18t-43.5 -4q-9 0 -19.5 1t-21 3t-19.5 4.5t-14 4.5v60q9 -5 30 -9t40 -4q24 0 42 7.5t31.5 20t24 29.5t19.5 36l9 19l-266 546h75zM225 894q8 -42 32.5 -60.5t62.5 -18.5t61.5 18.5t34.5 60.5h41
q-8 -63 -46.5 -94.5t-95.5 -31.5q-55 0 -91.5 33t-40.5 93h42z" />
    <glyph glyph-name="afii10145" unicode="&#x40f;" horiz-adv-x="662" 
d="M596 706v-706h-217v-169h-65v169h-234v706h70v-647h376v647h70z" />
    <glyph glyph-name="afii10017" unicode="&#x410;" horiz-adv-x="631" 
d="M563 0l-84 223h-312l-85 -223h-72l278 706h72l275 -706h-72zM322 635l-134 -355h270z" />
    <glyph glyph-name="afii10018" unicode="&#x411;" horiz-adv-x="653" 
d="M609 204q0 -94 -56 -149t-154 -55h-319v706h474v-60h-404v-237h249q98 0 154 -55t56 -150zM540 204q0 68 -40.5 107t-115.5 39h-234v-291h234q75 0 115.5 39t40.5 106z" />
    <glyph glyph-name="afii10019" unicode="&#x412;" horiz-adv-x="656" 
d="M80 706h308q49 0 85 -13.5t60 -37t35.5 -55t11.5 -67.5q0 -54 -27 -97t-80 -60q28 -5 53.5 -19t44.5 -35.5t30 -51.5t11 -67q0 -42 -13 -79t-40.5 -64.5t-70 -43.5t-100.5 -16h-308v706zM380 61q88 0 125.5 34.5t37.5 104.5q0 141 -176 141h-218v-280h231zM368 397
q71 0 108 32t37 98q0 25 -7.5 47.5t-24 39t-42 26t-62.5 9.5h-228v-252h219z" />
    <glyph glyph-name="afii10020" unicode="&#x413;" horiz-adv-x="509" 
d="M150 0h-70v706h432v-59h-362v-647z" />
    <glyph glyph-name="afii10021" unicode="&#x414;" horiz-adv-x="686" 
d="M680 59v-228h-65v169h-544v-169h-65v228h65q36 70 57 144t31 147t12.5 142t2.5 129v85h426v-647h80zM531 647h-287v-13q0 -57 -2.5 -127.5t-12 -146t-29.5 -153t-55 -148.5h386v588z" />
    <glyph glyph-name="afii10022" unicode="&#x415;" horiz-adv-x="583" 
d="M80 0v706h474v-59h-404v-254h369v-58h-369v-276h409v-59h-479z" />
    <glyph glyph-name="afii10024" unicode="&#x416;" horiz-adv-x="962" 
d="M453 345h-55l-302 -345h-86l329 377l-315 329h86l288 -302h55v302h70v-302h55l288 302h86l-315 -329l329 -377h-86l-302 345h-55v-345h-70v345z" />
    <glyph glyph-name="afii10025" unicode="&#x417;" horiz-adv-x="639" 
d="M595 207q0 -32 -13.5 -70.5t-44.5 -71.5t-81.5 -55.5t-124.5 -22.5q-133 0 -207 63t-74 177v7h66q0 -49 15.5 -84.5t44 -59t69.5 -35t91 -11.5q44 0 79 13t59.5 35t37.5 51.5t13 62.5q0 30 -12 54.5t-33.5 41.5t-50.5 26t-62 9h-114v58h114q28 0 53 8.5t44 24.5t30.5 40
t11.5 54q0 36 -13 62.5t-36 43.5t-53.5 25.5t-66.5 8.5q-84 0 -138 -39t-59 -119h-68q3 55 23.5 95.5t55 67.5t81.5 40t103 13q50 0 94 -11.5t76.5 -35t51.5 -60t19 -86.5q0 -27 -9 -52t-24 -45.5t-35 -35t-41 -21.5v-2q56 -11 92 -53t36 -111z" />
    <glyph glyph-name="afii10026" unicode="&#x418;" horiz-adv-x="676" 
d="M80 706h70v-619l376 619h84v-706h-69v618l-376 -618h-85v706z" />
    <glyph glyph-name="afii10027" unicode="&#x419;" horiz-adv-x="676" 
d="M80 706h70v-619l376 619h84v-706h-69v618l-376 -618h-85v706zM253 894q8 -42 32.5 -60.5t62.5 -18.5t61.5 18.5t34.5 60.5h41q-8 -63 -46.5 -94.5t-95.5 -31.5q-55 0 -91.5 33t-40.5 93h42z" />
    <glyph glyph-name="afii10028" unicode="&#x41a;" horiz-adv-x="628" 
d="M545 0l-282 369l-113 -107v-262h-70v706h70v-366l385 366h90l-310 -293l315 -413h-85z" />
    <glyph glyph-name="afii10029" unicode="&#x41b;" horiz-adv-x="676" 
d="M540 0v647h-281v-60q0 -180 -10.5 -296t-34 -183t-61 -93t-90.5 -26q-21 0 -37 3t-26 7v59q6 -2 23.5 -5.5t32.5 -3.5q43 0 70 36.5t42 106t20 170t5 228.5v116h417v-706h-70z" />
    <glyph glyph-name="afii10030" unicode="&#x41c;" horiz-adv-x="797" 
d="M667 0v476q0 37 1 72t4 70q-6 -20 -12.5 -41t-14.5 -41l-207 -536h-66l-208 547q-14 35 -25 73q2 -35 3.5 -71t1.5 -73v-476h-66v706h88l241 -630l242 630h84v-706h-66z" />
    <glyph glyph-name="afii10031" unicode="&#x41d;" horiz-adv-x="672" 
d="M536 0v345h-386v-345h-70v706h70v-302h386v302h70v-706h-70z" />
    <glyph glyph-name="afii10032" unicode="&#x41e;" horiz-adv-x="747" 
d="M381 45q58 0 105 20.5t81 59.5t52.5 97t18.5 133q0 70 -17 126.5t-50 96.5t-81 62t-109 22q-58 0 -105.5 -21t-81.5 -60.5t-52.5 -97.5t-18.5 -132q0 -70 17 -126.5t50 -96.5t81 -61.5t110 -21.5zM381 -15q-78 0 -139 26t-103 73.5t-64 115t-22 151.5q0 85 23.5 153.5
t66.5 116.5t103.5 74t134.5 26q77 0 137.5 -26t102.5 -73.5t64.5 -115t22.5 -151.5q0 -86 -23.5 -154.5t-66.5 -116.5t-103.5 -73.5t-133.5 -25.5z" />
    <glyph glyph-name="afii10033" unicode="&#x41f;" horiz-adv-x="662" 
d="M526 0v647h-376v-647h-70v706h516v-706h-70z" />
    <glyph glyph-name="afii10034" unicode="&#x420;" horiz-adv-x="592" 
d="M80 0v706h284q101 0 154.5 -48.5t53.5 -145.5q0 -53 -17 -91.5t-45.5 -63.5t-67.5 -36.5t-82 -11.5h-210v-309h-70zM356 370q33 0 60 7.5t46.5 24.5t30 43.5t10.5 65.5q0 67 -38.5 101.5t-112.5 34.5h-202v-277h206z" />
    <glyph glyph-name="afii10035" unicode="&#x421;" horiz-adv-x="699" 
d="M584 507q-9 33 -26.5 61.5t-44 49t-62 32.5t-80.5 12q-64 0 -111 -24.5t-77.5 -67.5t-45.5 -100t-15 -121t15 -119t46 -96t76.5 -64.5t107.5 -23.5q51 0 90.5 15.5t68 43t45.5 65.5t23 83h69q-20 -132 -98.5 -200t-199.5 -68q-74 0 -131.5 26t-98 73t-61.5 114t-21 150
q0 73 18.5 140.5t58 119t100.5 82.5t145 31q65 0 113.5 -17.5t82 -47t54 -68.5t29.5 -81h-70z" />
    <glyph glyph-name="afii10036" unicode="&#x422;" horiz-adv-x="537" 
d="M241 0v647h-225v59h519v-59h-224v-647h-70z" />
    <glyph glyph-name="afii10037" unicode="&#x423;" horiz-adv-x="609" 
d="M85 706l229 -480l225 480h74l-281 -582q-22 -46 -44.5 -73t-45 -41t-45 -18t-43.5 -4q-9 0 -19.5 1t-21 3t-19.5 4.5t-14 4.5v60q9 -5 30 -9t40 -4q24 0 42 7.5t31.5 20t24 29.5t19.5 36l9 19l-266 546h75z" />
    <glyph glyph-name="afii10038" unicode="&#x424;" horiz-adv-x="756" 
d="M733 362q0 -70 -25 -123t-68 -90t-100 -56.5t-121 -21.5v-86h-68v86q-64 2 -121 21.5t-100 56.5t-68 90t-25 123q0 67 24.5 119.5t67 89t99.5 56.5t123 22v78h68v-78q66 -2 123 -22t99.5 -56.5t67 -89t24.5 -119.5zM663 362q0 55 -18.5 97t-51.5 70.5t-77.5 44
t-96.5 18.5v-465q51 3 95.5 19t77.5 46t52 72.5t19 97.5zM351 592q-52 -3 -96.5 -18.5t-77.5 -44t-51.5 -70.5t-18.5 -97t19 -97.5t52 -72.5t77.5 -46t95.5 -19v465z" />
    <glyph glyph-name="afii10039" unicode="&#x425;" horiz-adv-x="577" 
d="M495 0l-199 313l-202 -313h-81l247 362l-233 344h81l190 -294l195 294h77l-236 -343l244 -363h-83z" />
    <glyph glyph-name="afii10040" unicode="&#x426;" horiz-adv-x="682" 
d="M611 0h-531v706h70v-647h376v647h70v-647h80v-228h-65v169z" />
    <glyph glyph-name="afii10041" unicode="&#x427;" horiz-adv-x="609" 
d="M473 0v311q-15 -4 -38.5 -9t-50.5 -9.5t-55 -8t-52 -3.5q-76 0 -121 18.5t-68.5 48t-30.5 66t-7 71.5v221h69v-217q0 -21 4 -47t19.5 -48.5t45.5 -37.5t83 -15q28 0 58 3.5t57.5 8t50 10t36.5 8.5v335h70v-706h-70z" />
    <glyph glyph-name="afii10042" unicode="&#x428;" horiz-adv-x="1018" 
d="M952 0h-872v706h70v-647h331v647h70v-647h331v647h70v-706z" />
    <glyph glyph-name="afii10043" unicode="&#x429;" horiz-adv-x="1038" 
d="M967 0h-887v706h70v-647h331v647h70v-647h331v647h70v-647h80v-228h-65v169z" />
    <glyph glyph-name="afii10044" unicode="&#x42a;" horiz-adv-x="725" 
d="M705 204q0 -94 -56.5 -149t-154.5 -55h-304v647h-174v59h244v-297h234q98 0 154.5 -55t56.5 -150zM635 204q0 68 -40.5 107t-114.5 39h-220v-291h220q74 0 114.5 39t40.5 106z" />
    <glyph glyph-name="afii10045" unicode="&#x42b;" horiz-adv-x="842" 
d="M595 204q0 -94 -56.5 -149t-154.5 -55h-304v706h70v-297h234q98 0 154.5 -55t56.5 -150zM525 204q0 68 -40.5 107t-114.5 39h-220v-291h220q74 0 114.5 39t40.5 106zM706 706h70v-706h-70v706z" />
    <glyph glyph-name="afii10046" unicode="&#x42c;" horiz-adv-x="615" 
d="M595 204q0 -94 -56.5 -149t-154.5 -55h-304v706h70v-297h234q98 0 154.5 -55t56.5 -150zM525 204q0 68 -40.5 107t-114.5 39h-220v-291h220q74 0 114.5 39t40.5 106z" />
    <glyph glyph-name="afii10047" unicode="&#x42d;" horiz-adv-x="698" 
d="M241 395h347q-5 56 -22.5 105t-48 85t-74.5 56.5t-102 20.5q-45 0 -80.5 -12t-62 -32.5t-44 -49t-26.5 -61.5h-70q9 42 30 81t55.5 68.5t84 47t114.5 17.5q85 0 145 -31t98.5 -82.5t56 -119t17.5 -140.5q0 -83 -22 -150t-63 -114t-98.5 -73t-128.5 -26
q-120 0 -197.5 66.5t-99.5 194.5h69q7 -44 24.5 -80.5t46 -63t67 -41.5t88.5 -15q60 0 105 22.5t76 61.5t46.5 92.5t17.5 115.5h-349v57z" />
    <glyph glyph-name="afii10048" unicode="&#x42e;" horiz-adv-x="968" 
d="M611 -15q-72 0 -130 24.5t-99.5 70t-64 110.5t-24.5 145h-143v-335h-70v706h70v-313h144q6 76 31 136.5t66.5 103t97.5 65.5t122 23q74 0 133 -26t100 -73.5t63 -115t22 -151.5q0 -86 -23.5 -154.5t-65.5 -116.5t-100.5 -73.5t-128.5 -25.5zM611 45q55 0 101 20.5
t78.5 59.5t50.5 97t18 133q0 70 -17 126.5t-48.5 96.5t-78 62t-104.5 22q-55 0 -100.5 -21t-78.5 -60.5t-51 -97.5t-18 -132q0 -70 16.5 -126.5t48 -96.5t78 -61.5t105.5 -21.5z" />
    <glyph glyph-name="afii10049" unicode="&#x42f;" horiz-adv-x="632" 
d="M110 0h-86l233 306q-93 4 -147 56.5t-54 144.5q0 94 57.5 146.5t156.5 52.5h296v-706h-69v306h-159zM497 646h-212q-75 0 -118 -35.5t-43 -103.5t43 -104.5t118 -36.5h212v280z" />
    <glyph glyph-name="afii10065" unicode="&#x430;" horiz-adv-x="528" 
d="M345 310q30 5 37.5 12t7.5 22v30q0 42 -28.5 68.5t-100.5 26.5q-38 0 -63 -9t-41 -24t-22.5 -35.5t-6.5 -44.5h-67q0 32 10 62.5t34 54t63 38t98 14.5q96 0 141.5 -39.5t45.5 -108.5v-293q0 -23 6 -32.5t24 -9.5q11 0 28 6v-49q-8 -3 -19.5 -5.5t-26.5 -2.5
q-32 0 -52 15.5t-20 50.5v34q-20 -42 -63.5 -73t-118.5 -31q-86 0 -129.5 41.5t-43.5 107.5q0 65 37.5 101t123.5 50zM213 236q-61 -11 -84.5 -34.5t-23.5 -64.5q0 -42 30 -70t86 -28q36 0 67.5 13t54.5 35.5t36 53.5t13 67v58z" />
    <glyph glyph-name="afii10066" unicode="&#x431;" horiz-adv-x="554" 
d="M519 253q0 -60 -16.5 -109.5t-47.5 -84t-74 -53.5t-97 -19q-71 0 -116.5 26t-72 69t-37 98.5t-10.5 115.5q0 37 1.5 76t7.5 77t17 73t30 64q35 54 84 77t123 28l48 3q21 1 34.5 3t21 5t11.5 8t7 11h67q-4 -23 -14 -38t-26.5 -24t-40.5 -14t-55 -7l-76 -5
q-44 -3 -76 -16.5t-55 -41t-37 -70.5t-21 -104h3q26 52 78.5 83t115.5 31q48 0 89 -18t71 -52t46.5 -82.5t16.5 -109.5zM454 254q0 47 -12 85.5t-34 65.5t-53 42t-68 15q-80 0 -127 -56t-47 -153q0 -48 12.5 -87t35 -67t54 -43.5t69.5 -15.5t69.5 15.5t54 44t34.5 67.5
t12 87z" />
    <glyph glyph-name="afii10067" unicode="&#x432;" horiz-adv-x="528" 
d="M491 142q0 -70 -47.5 -106t-137.5 -36h-231v512h231q79 0 122 -31t43 -91q0 -46 -23.5 -76t-65.5 -42v-2q51 -9 80 -40.5t29 -87.5zM407 374q0 85 -109 85h-159v-168h159q54 0 81.5 22t27.5 61zM427 149q0 45 -32 69t-97 24h-159v-189h159q66 0 97.5 23.5t31.5 72.5z" />
    <glyph glyph-name="afii10068" unicode="&#x433;" horiz-adv-x="393" 
d="M139 459v-459h-64v512h321v-53h-257z" />
    <glyph glyph-name="afii10069" unicode="&#x434;" horiz-adv-x="535" 
d="M465 -144v144h-396v-144h-63v197h54q37 69 54 163t17 230v66h326v-459h71v-197h-63zM393 459h-201v-34q0 -129 -19 -222t-48 -150h268v406z" />
    <glyph glyph-name="afii10070" unicode="&#x435;" horiz-adv-x="526" 
d="M106 246q0 -96 44 -149t123 -53q35 0 61 9.5t44.5 25.5t29.5 37t17 44h66q-8 -33 -25 -64t-44 -55t-64 -39t-85 -15q-53 0 -95.5 18t-72.5 52t-46 83t-16 111q0 55 14.5 105t43.5 87.5t72 59.5t100 22q56 0 97 -20.5t67.5 -55.5t39 -82t12.5 -100v-21h-383zM425 297
q-3 78 -42 125t-110 47q-44 0 -74.5 -16.5t-50 -41.5t-29.5 -55.5t-12 -58.5h318z" />
    <glyph glyph-name="afii10072" unicode="&#x436;" horiz-adv-x="735" 
d="M403 0h-64v242h-48l-209 -242h-82l239 271l-217 241h77l193 -217h47v217h64v-217h47l193 217h77l-217 -241l239 -271h-82l-210 242h-47v-242z" />
    <glyph glyph-name="afii10073" unicode="&#x437;" horiz-adv-x="489" 
d="M42 361q4 47 22 78.5t45 50.5t62 27t73 8q40 0 74.5 -7.5t60.5 -24t41 -43t15 -64.5q0 -45 -25.5 -75.5t-57.5 -37.5v-2q18 -3 36 -11t32 -21.5t23 -34.5t9 -51q0 -42 -16 -73t-43.5 -52t-65.5 -31t-82 -10q-52 0 -91 13t-65 37t-40 57.5t-17 73.5h63q4 -28 13.5 -51.5
t27.5 -40.5t45 -26.5t65 -9.5q40 0 67 10t43.5 25.5t23 35.5t6.5 40q0 39 -25 64.5t-85 25.5h-86v48h71q45 0 77 23.5t32 69.5q0 14 -4.5 30t-18.5 29.5t-39 22t-65 8.5q-68 0 -100.5 -31.5t-38.5 -79.5h-62v0z" />
    <glyph glyph-name="afii10074" unicode="&#x438;" horiz-adv-x="546" 
d="M414 0v438l-258 -438h-81v512h64v-438l258 438h81v-512h-64z" />
    <glyph glyph-name="afii10075" unicode="&#x439;" horiz-adv-x="546" 
d="M414 0v438l-258 -438h-81v512h64v-438l258 438h81v-512h-64zM188 718q8 -42 32.5 -60.5t62.5 -18.5t61.5 18.5t34.5 60.5h41q-8 -63 -46.5 -94.5t-95.5 -31.5q-55 0 -91.5 33t-40.5 93h42z" />
    <glyph glyph-name="afii10076" unicode="&#x43a;" horiz-adv-x="491" 
d="M139 0h-64v512h64v-265l263 265h84l-208 -204l216 -308h-79l-183 263l-93 -91v-172z" />
    <glyph glyph-name="afii10077" unicode="&#x43b;" horiz-adv-x="539" 
d="M407 0v459h-208v-24q0 -103 -5.5 -176t-15.5 -122.5t-24 -78t-31 -43.5t-36 -19t-40 -4q-11 0 -26.5 3t-20.5 5v51q7 -2 18 -4t22 -2q24 0 42.5 14.5t30.5 56.5t18 119t6 203v74h334v-512h-64z" />
    <glyph glyph-name="afii10078" unicode="&#x43c;" horiz-adv-x="675" 
d="M312 0l-171 421h-3v-421h-63v512h84l182 -441l182 441h84v-512h-63v421h-3l-171 -421h-58z" />
    <glyph glyph-name="afii10079" unicode="&#x43d;" 
d="M410 0v242h-271v-242h-64v512h64v-217h271v217h64v-512h-64z" />
    <glyph glyph-name="afii10080" unicode="&#x43e;" horiz-adv-x="549" 
d="M278 -13q-112 0 -173.5 71t-61.5 197q0 62 17.5 112t48.5 85t74 54t95 19q111 0 173 -71t62 -197q0 -62 -17 -112t-48 -85t-74.5 -54t-95.5 -19zM278 41q39 0 70.5 15.5t53.5 43.5t34 68t12 90q0 98 -42.5 155.5t-127.5 57.5q-38 0 -69.5 -15.5t-54 -43.5t-34.5 -68.5
t-12 -89.5q0 -98 42.5 -155.5t127.5 -57.5z" />
    <glyph glyph-name="afii10081" unicode="&#x43f;" horiz-adv-x="536" 
d="M404 0v459h-265v-459h-64v512h393v-512h-64z" />
    <glyph glyph-name="afii10082" unicode="&#x440;" horiz-adv-x="566" 
d="M139 -186h-64v698h61v-82q10 16 24.5 33t36 30.5t51 22.5t68.5 9q55 0 95.5 -22t66.5 -58t39 -83.5t13 -98.5q0 -63 -16.5 -114t-46 -87t-71 -55.5t-91.5 -19.5q-66 0 -104 24.5t-62 66.5v-264zM465 255q0 45 -9 84.5t-28.5 68.5t-49 46t-69.5 17q-46 0 -78.5 -18
t-53 -48.5t-30 -70.5t-9.5 -83q0 -44 10 -82t30.5 -66.5t51 -45t72.5 -16.5q36 0 66 15t51.5 43t33.5 67.5t12 88.5z" />
    <glyph glyph-name="afii10083" unicode="&#x441;" horiz-adv-x="513" 
d="M419 353q-11 55 -46.5 85.5t-93.5 30.5q-47 0 -80 -19.5t-53 -50.5t-29 -68.5t-9 -74.5q0 -42 9 -81t29 -68t51.5 -46.5t77.5 -17.5q58 0 98.5 32.5t47.5 102.5h63q-5 -45 -23 -80.5t-46 -60t-64 -37.5t-76 -13q-60 0 -104 21.5t-72.5 57.5t-42 83.5t-13.5 100.5
q0 52 14 102t43 88t73.5 61.5t106.5 23.5q85 0 139 -45.5t63 -126.5h-63z" />
    <glyph glyph-name="afii10084" unicode="&#x442;" horiz-adv-x="435" 
d="M253 459v-459h-64v459h-186v53h436v-53h-186z" />
    <glyph glyph-name="afii10085" unicode="&#x443;" horiz-adv-x="451" 
d="M56 -126q10 -1 18 -1.5t20 -0.5q31 0 49 23t36 72l18 48l-195 497h71l134 -357q9 -23 14.5 -41t9.5 -32q5 14 11 32.5t16 44.5l132 353h68l-224 -571q-12 -32 -24.5 -56t-28 -40t-35.5 -24t-48 -8q-8 0 -17.5 0.5t-24.5 3.5v57z" />
    <glyph glyph-name="afii10086" unicode="&#x444;" horiz-adv-x="787" 
d="M365 54q-17 -30 -53 -47.5t-78 -17.5q-41 0 -75.5 17.5t-60.5 51t-40.5 83.5t-14.5 115q0 64 14 113.5t39 84t60.5 52.5t78.5 18q42 0 76 -18.5t54 -51.5v252h64v-252q20 33 54 51.5t76 18.5q43 0 78.5 -18t60.5 -52.5t39 -84t14 -113.5q0 -65 -14.5 -115t-40.5 -83.5
t-61 -51t-75 -17.5q-42 0 -78 17.5t-53 47.5v-240h-64v240zM686 256q0 59 -10.5 100t-29 66.5t-45 37t-58.5 11.5q-24 0 -45 -10t-36 -26.5t-24 -38t-9 -45.5v-183q0 -25 9 -48t24.5 -40t36.5 -27.5t45 -10.5q68 0 105 49.5t37 164.5zM365 351q0 24 -9 45.5t-24 38t-36 26.5
t-45 10q-32 0 -58.5 -11.5t-45 -37t-29 -66.5t-10.5 -100q0 -115 37 -164.5t105 -49.5q24 0 45 10.5t36.5 27.5t24.5 40t9 48v183z" />
    <glyph glyph-name="afii10087" unicode="&#x445;" horiz-adv-x="454" 
d="M385 0l-156 219l-156 -219h-77l199 267l-177 245h77l137 -198l137 198h76l-179 -245l196 -267h-77z" />
    <glyph glyph-name="afii10088" unicode="&#x446;" horiz-adv-x="546" 
d="M476 0h-401v512h64v-459h265v459h64v-459h71v-197h-63v144z" />
    <glyph glyph-name="afii10089" unicode="&#x447;" horiz-adv-x="503" 
d="M371 223q-14 -5 -35 -10.5t-44.5 -10t-47.5 -7.5t-44 -3q-71 0 -109.5 38t-38.5 128v154h63v-161q0 -38 9.5 -58.5t24.5 -30t32 -11.5t32 -2q16 0 38 2.5t44 7t42 10t34 11.5v232h64v-512h-64v223v0z" />
    <glyph glyph-name="afii10090" unicode="&#x448;" horiz-adv-x="785" 
d="M717 0h-642v512h64v-459h225v459h64v-459h225v459h64v-512z" />
    <glyph glyph-name="afii10091" unicode="&#x449;" horiz-adv-x="795" 
d="M725 0h-650v512h64v-459h225v459h64v-459h225v459h64v-459h71v-197h-63v144z" />
    <glyph glyph-name="afii10092" unicode="&#x44a;" horiz-adv-x="571" 
d="M206 512v-201h179q75 0 119 -41t44 -114t-44 -114.5t-119 -41.5h-243v459h-142v53h206zM484 156q0 50 -30.5 76t-84.5 26h-163v-205h163q54 0 84.5 26t30.5 77z" />
    <glyph glyph-name="afii10093" unicode="&#x44b;" horiz-adv-x="702" 
d="M139 512v-201h179q75 0 119 -41t44 -114t-44 -114.5t-119 -41.5h-243v512h64zM417 156q0 50 -30.5 76t-84.5 26h-163v-205h163q54 0 84.5 26t30.5 77zM570 512h64v-512h-64v512z" />
    <glyph glyph-name="afii10094" unicode="&#x44c;" horiz-adv-x="504" 
d="M139 512v-201h179q75 0 119 -41t44 -114t-44 -114.5t-119 -41.5h-243v512h64zM417 156q0 50 -30.5 76t-84.5 26h-163v-205h163q54 0 84.5 26t30.5 77z" />
    <glyph glyph-name="afii10095" unicode="&#x44d;" horiz-adv-x="511" 
d="M37 363q14 77 69 119.5t137 42.5q61 0 105 -23.5t72.5 -61.5t41.5 -88t13 -102q0 -53 -14.5 -100.5t-43 -83.5t-72.5 -57.5t-102 -21.5q-84 0 -140 47t-67 132h63q10 -63 49.5 -93t94.5 -30q41 0 71.5 15.5t51 41.5t31 61.5t12.5 74.5h-237v53h236q-3 33 -13.5 65.5
t-30 58t-49 41t-71.5 15.5q-56 0 -93.5 -27.5t-50.5 -78.5h-63z" />
    <glyph glyph-name="afii10096" unicode="&#x44e;" horiz-adv-x="749" 
d="M483 -13q-106 0 -166.5 67t-63.5 188h-114v-242h-64v512h64v-217h116q5 53 24 95.5t49 72.5t69 46t86 16q109 0 169.5 -71t60.5 -197q0 -62 -16.5 -112t-47 -85t-73 -54t-93.5 -19zM483 41q38 0 68.5 15.5t52 43.5t33 68t11.5 90q0 98 -41 155.5t-124 57.5
q-37 0 -67.5 -15.5t-52 -43.5t-33.5 -68.5t-12 -89.5q0 -98 41.5 -155.5t123.5 -57.5z" />
    <glyph glyph-name="afii10097" unicode="&#x44f;" horiz-adv-x="525" 
d="M393 0v214h-117l-171 -214h-82l181 216q-69 5 -111 43t-42 105q0 68 42 108t114 40h250v-512h-64zM223 459q-52 0 -80 -25.5t-28 -70.5t28 -70.5t80 -25.5h170v192h-170z" />
    <glyph glyph-name="afii10071" unicode="&#x451;" horiz-adv-x="526" 
d="M106 246q0 -96 44 -149t123 -53q35 0 61 9.5t44.5 25.5t29.5 37t17 44h66q-8 -33 -25 -64t-44 -55t-64 -39t-85 -15q-53 0 -95.5 18t-72.5 52t-46 83t-16 111q0 55 14.5 105t43.5 87.5t72 59.5t100 22q56 0 97 -20.5t67.5 -55.5t39 -82t12.5 -100v-21h-383zM425 297
q-3 78 -42 125t-110 47q-44 0 -74.5 -16.5t-50 -41.5t-29.5 -55.5t-12 -58.5h318zM329 616v90h66v-90h-66zM154 616v90h66v-90h-66z" />
    <glyph glyph-name="afii10099" unicode="&#x452;" horiz-adv-x="536" 
d="M240 -122q9 -2 24 -4t25 -2q65 0 91.5 37t26.5 98v316q0 61 -26.5 98t-91.5 37q-36 0 -63.5 -13t-47 -35.5t-29.5 -53t-10 -65.5v-291h-64v568h-82v49h82v89h64v-89h177v-49h-177v-138q10 17 24.5 32.5t34 27t45 18.5t57.5 7q37 0 68.5 -10t54.5 -31t35.5 -53.5
t12.5 -77.5v-356q0 -45 -12.5 -77.5t-35.5 -53.5t-54.5 -31t-68.5 -10q-19 0 -35.5 2.5t-24.5 4.5v56z" />
    <glyph glyph-name="afii10100" unicode="&#x453;" horiz-adv-x="393" 
d="M139 459v-459h-64v512h321v-53h-257zM185 588l82 133h90l-118 -133h-54z" />
    <glyph glyph-name="afii10101" unicode="&#x454;" horiz-adv-x="511" 
d="M417 363q-13 51 -50.5 78.5t-93.5 27.5q-42 0 -72 -15.5t-49.5 -41t-29.5 -58t-13 -65.5h236v-53h-237q2 -39 12.5 -74.5t31 -61.5t51 -41.5t71.5 -15.5q55 0 94.5 30t49.5 93h63q-11 -85 -67 -132t-140 -47q-59 0 -102.5 21.5t-72 57.5t-43 83.5t-14.5 100.5
q0 52 13 102t41.5 88t72 61.5t105.5 23.5q82 0 137 -42.5t69 -119.5h-63z" />
    <glyph glyph-name="afii10102" unicode="&#x455;" horiz-adv-x="460" 
d="M169 247q-68 17 -96.5 48.5t-28.5 85.5q0 30 12.5 56t36 45.5t58 31t79.5 11.5q52 0 88.5 -13.5t59.5 -35.5t33.5 -51.5t12.5 -60.5h-64q-2 20 -10 38.5t-23.5 33t-40 23t-58.5 8.5q-32 0 -54.5 -7t-37 -18.5t-21 -26t-6.5 -30.5q0 -15 3.5 -27t13.5 -22t27.5 -18
t44.5 -15l110 -27q68 -17 96.5 -48.5t28.5 -83.5q0 -31 -13 -59.5t-37.5 -50t-61.5 -34.5t-85 -13q-102 0 -155 49.5t-53 128.5h66q0 -29 11 -51.5t30.5 -38t45 -23.5t55.5 -8q68 0 99.5 28t31.5 69q0 28 -18.5 47.5t-71.5 32.5z" />
    <glyph glyph-name="afii10103" unicode="&#x456;" horiz-adv-x="207" 
d="M75 0v512h64v-512h-64zM75 616v90h64v-90h-64z" />
    <glyph glyph-name="afii10104" unicode="&#x457;" horiz-adv-x="207" 
d="M75 0v512h64v-512h-64zM161 616v90h66v-90h-66zM-14 616v90h66v-90h-66z" />
    <glyph glyph-name="afii10105" unicode="&#x458;" horiz-adv-x="207" 
d="M139 -80q0 -56 -29.5 -81.5t-81.5 -25.5q-8 0 -18.5 0.5t-21.5 2.5v54q8 -1 18 -1.5t17 -0.5q29 0 40.5 16t11.5 48v580h64v-592zM75 616v90h64v-90h-64z" />
    <glyph glyph-name="afii10106" unicode="&#x459;" horiz-adv-x="836" 
d="M407 459h-208v-24q0 -103 -5.5 -176t-15.5 -122.5t-24 -78t-31 -43.5t-36 -19t-40 -4q-11 0 -26.5 3t-20.5 5v51q7 -2 18 -4t22 -2q24 0 42.5 14.5t30.5 56.5t18 119t6 203v74h334v-201h179q75 0 119 -41t44 -114t-44 -114.5t-119 -41.5h-243v459zM749 156q0 50 -30.5 76
t-84.5 26h-163v-205h163q54 0 84.5 26t30.5 77z" />
    <glyph glyph-name="afii10107" unicode="&#x45a;" horiz-adv-x="839" 
d="M410 247h-271v-247h-64v512h64v-212h271v212h64v-212h179q75 0 119 -38.5t44 -111.5t-44 -111.5t-119 -38.5h-243v247zM752 150q0 50 -30.5 73.5t-84.5 23.5h-163v-194h163q54 0 84.5 23t30.5 74z" />
    <glyph glyph-name="afii10108" unicode="&#x45b;" horiz-adv-x="536" 
d="M75 617v89h64v-89h177v-49h-177v-138q10 17 24.5 32.5t34 27t45 18.5t57.5 7q37 0 68.5 -10t54.5 -31t35.5 -53.5t12.5 -77.5v-343h-64v323q0 61 -26.5 98t-91.5 37q-36 0 -63.5 -13t-47 -35.5t-29.5 -53t-10 -65.5v-291h-64v568h-82v49h82z" />
    <glyph glyph-name="afii10109" unicode="&#x45c;" horiz-adv-x="491" 
d="M139 0h-64v512h64v-265l263 265h84l-208 -204l216 -308h-79l-183 263l-93 -91v-172zM230 588l82 133h90l-118 -133h-54z" />
    <glyph glyph-name="afii10110" unicode="&#x45e;" horiz-adv-x="451" 
d="M56 -126q10 -1 18 -1.5t20 -0.5q31 0 49 23t36 72l18 48l-195 497h71l134 -357q9 -23 14.5 -41t9.5 -32q5 14 11 32.5t16 44.5l132 353h68l-224 -571q-12 -32 -24.5 -56t-28 -40t-35.5 -24t-48 -8q-8 0 -17.5 0.5t-24.5 3.5v57zM136 718q8 -42 32.5 -60.5t62.5 -18.5
t61.5 18.5t34.5 60.5h41q-8 -63 -46.5 -94.5t-95.5 -31.5q-55 0 -91.5 33t-40.5 93h42z" />
    <glyph glyph-name="afii10193" unicode="&#x45f;" horiz-adv-x="536" 
d="M468 512v-512h-159v-144h-63v144h-171v512h64v-459h265v459h64z" />
    <glyph glyph-name="afii10050" unicode="&#x490;" horiz-adv-x="509" 
d="M150 647v-647h-70v706h364v152h68v-211h-362z" />
    <glyph glyph-name="afii10098" unicode="&#x491;" horiz-adv-x="393" 
d="M139 459v-459h-64v512h258v135h63v-188h-257z" />
    <glyph glyph-name="afii57799" unicode="&#x5b0;" horiz-adv-x="244" 
d="M89 -232q0 13 8.5 21.5t21.5 8.5t21.5 -8.5t8.5 -21.5t-8.5 -21.5t-21.5 -8.5t-21.5 8.5t-8.5 21.5zM89 -124q0 13 8.5 21.5t21.5 8.5t21.5 -8.5t8.5 -21.5t-8.5 -21.5t-21.5 -8.5t-21.5 8.5t-8.5 21.5z" />
    <glyph glyph-name="afii57801" unicode="&#x5b1;" horiz-adv-x="244" 
d="M-16 -124q0 13 8.5 21.5t21.5 8.5t21.5 -8.5t8.5 -21.5t-8.5 -21.5t-21.5 -8.5t-21.5 8.5t-8.5 21.5zM194 -232q0 13 8.5 21.5t21.5 8.5t21.5 -8.5t8.5 -21.5t-8.5 -21.5t-21.5 -8.5t-21.5 8.5t-8.5 21.5zM194 -124q0 13 8.5 21.5t21.5 8.5t21.5 -8.5t8.5 -21.5
t-8.5 -21.5t-21.5 -8.5t-21.5 8.5t-8.5 21.5zM36 -232q0 13 8.5 21.5t21.5 8.5t21.5 -8.5t8.5 -21.5t-8.5 -21.5t-21.5 -8.5t-21.5 8.5t-8.5 21.5zM89 -124q0 13 8.5 21.5t21.5 8.5t21.5 -8.5t8.5 -21.5t-8.5 -21.5t-21.5 -8.5t-21.5 8.5t-8.5 21.5z" />
    <glyph glyph-name="afii57800" unicode="&#x5b2;" horiz-adv-x="244" 
d="M-13 -100h154v-31h-154v31zM188 -232q0 13 8.5 21.5t21.5 8.5t21.5 -8.5t8.5 -21.5t-8.5 -21.5t-21.5 -8.5t-21.5 8.5t-8.5 21.5zM188 -124q0 13 8.5 21.5t21.5 8.5t21.5 -8.5t8.5 -21.5t-8.5 -21.5t-21.5 -8.5t-21.5 8.5t-8.5 21.5z" />
    <glyph glyph-name="afii57802" unicode="&#x5b3;" horiz-adv-x="244" 
d="M-13 -100h154v-31h-63v-124h-29v124h-62v31zM188 -232q0 13 8.5 21.5t21.5 8.5t21.5 -8.5t8.5 -21.5t-8.5 -21.5t-21.5 -8.5t-21.5 8.5t-8.5 21.5zM188 -124q0 13 8.5 21.5t21.5 8.5t21.5 -8.5t8.5 -21.5t-8.5 -21.5t-21.5 -8.5t-21.5 8.5t-8.5 21.5z" />
    <glyph glyph-name="afii57793" unicode="&#x5b4;" horiz-adv-x="244" 
d="M89 -124q0 13 8.5 21.5t21.5 8.5t21.5 -8.5t8.5 -21.5t-8.5 -21.5t-21.5 -8.5t-21.5 8.5t-8.5 21.5z" />
    <glyph glyph-name="afii57794" unicode="&#x5b5;" horiz-adv-x="244" 
d="M37 -124q0 13 8.5 21.5t21.5 8.5t21.5 -8.5t8.5 -21.5t-8.5 -21.5t-21.5 -8.5t-21.5 8.5t-8.5 21.5zM143 -124q0 13 8.5 21.5t21.5 8.5t21.5 -8.5t8.5 -21.5t-8.5 -21.5t-21.5 -8.5t-21.5 8.5t-8.5 21.5z" />
    <glyph glyph-name="afii57795" unicode="&#x5b6;" horiz-adv-x="244" 
d="M89 -229q0 13 8.5 21.5t21.5 8.5t21.5 -8.5t8.5 -21.5t-8.5 -21.5t-21.5 -8.5t-21.5 8.5t-8.5 21.5zM37 -124q0 13 8.5 21.5t21.5 8.5t21.5 -8.5t8.5 -21.5t-8.5 -21.5t-21.5 -8.5t-21.5 8.5t-8.5 21.5zM143 -124q0 13 8.5 21.5t21.5 8.5t21.5 -8.5t8.5 -21.5t-8.5 -21.5
t-21.5 -8.5t-21.5 8.5t-8.5 21.5z" />
    <glyph glyph-name="afii57798" unicode="&#x5b7;" horiz-adv-x="244" 
d="M43 -100h153v-31h-153v31z" />
    <glyph glyph-name="afii57797" unicode="&#x5b8;" horiz-adv-x="244" 
d="M43 -100h153v-31h-63v-124h-27v124h-63v31z" />
    <glyph glyph-name="afii57806" unicode="&#x5b9;" horiz-adv-x="244" 
d="M89 632q0 13 8.5 21.5t21.5 8.5t21.5 -8.5t8.5 -21.5t-8.5 -21.5t-21.5 -8.5t-21.5 8.5t-8.5 21.5z" />
    <glyph glyph-name="afii57796" unicode="&#x5bb;" horiz-adv-x="244" 
d="M177 -239q0 13 8.5 21.5t21.5 8.5t21.5 -8.5t8.5 -21.5t-8.5 -21.5t-21.5 -8.5t-21.5 8.5t-8.5 21.5zM89 -177q0 13 8.5 21.5t21.5 8.5t21.5 -8.5t8.5 -21.5t-8.5 -21.5t-21.5 -8.5t-21.5 8.5t-8.5 21.5zM2 -119q0 13 8.5 21.5t21.5 8.5t21.5 -8.5t8.5 -21.5t-8.5 -21.5
t-21.5 -8.5t-21.5 8.5t-8.5 21.5z" />
    <glyph glyph-name="afii57807" unicode="&#x5bc;" horiz-adv-x="244" 
d="M89 261q0 13 8.5 21.5t21.5 8.5t21.5 -8.5t8.5 -21.5t-8.5 -21.5t-21.5 -8.5t-21.5 8.5t-8.5 21.5z" />
    <glyph glyph-name="afii57839" unicode="&#x5bd;" horiz-adv-x="244" 
d="M133 -100v-155h-27v155h27z" />
    <glyph glyph-name="afii57645" unicode="&#x5be;" horiz-adv-x="351" 
d="M319 450h-293v62h293v-62z" />
    <glyph glyph-name="afii57841" unicode="&#x5bf;" horiz-adv-x="244" 
d="M244 625h-249v37h249v-37z" />
    <glyph glyph-name="afii57842" unicode="&#x5c0;" horiz-adv-x="254" 
d="M158 -84h-68v683h68v-683z" />
    <glyph glyph-name="afii57804" unicode="&#x5c1;" horiz-adv-x="244" 
d="M355 631q0 13 8.5 21.5t21.5 8.5t21.5 -8.5t8.5 -21.5t-8.5 -21.5t-21.5 -8.5t-21.5 8.5t-8.5 21.5z" />
    <glyph glyph-name="afii57803" unicode="&#x5c2;" horiz-adv-x="244" 
d="M-148 631q0 13 8.5 21.5t21.5 8.5t21.5 -8.5t8.5 -21.5t-8.5 -21.5t-21.5 -8.5t-21.5 8.5t-8.5 21.5z" />
    <glyph glyph-name="afii57658" unicode="&#x5c3;" horiz-adv-x="278" 
d="M178 0h-84v88h84v-88zM178 418h-84v88h84v-88z" />
    <glyph glyph-name="uni05C4" unicode="&#x5c4;" horiz-adv-x="244" 
d="M92 631q0 13 8.5 21.5t21.5 8.5t21.5 -8.5t8.5 -21.5t-8.5 -21.5t-21.5 -8.5t-21.5 8.5t-8.5 21.5z" />
    <glyph glyph-name="afii57664" unicode="&#x5d0;" horiz-adv-x="553" 
d="M123 512q49 -63 100 -129t99 -134q42 17 64 54.5t28 99.5l10 109h66l-11 -95q-3 -30 -11 -61t-22.5 -59t-37.5 -51t-57 -38q37 -53 70 -103.5t66 -104.5h-81q-40 66 -89 138.5t-105 148.5q-35 -20 -52.5 -53.5t-25.5 -87.5l-20 -146h-67l20 118q8 46 17 78.5t22 56.5
t32 41t47 32q-34 46 -71.5 94t-71.5 92h81z" />
    <glyph glyph-name="afii57665" unicode="&#x5d1;" horiz-adv-x="511" 
d="M342 62v246q0 43 -6 73t-22 48.5t-45 26.5t-75 8q-36 0 -76 -5.5t-76 -14.5v61q38 9 80.5 15.5t81.5 6.5q48 0 86 -8.5t64.5 -29.5t40.5 -57t14 -91v-279h71v-62h-438v62h300z" />
    <glyph glyph-name="afii57666" unicode="&#x5d2;" horiz-adv-x="346" 
d="M275 123q0 -37 1.5 -64t7.5 -54v-5h-65q-3 11 -4.5 27t-2 34l-1 36t-0.5 33q-8 -27 -26 -52t-40.5 -44.5t-47.5 -32.5t-47 -16v77q75 23 116.5 65.5t41.5 106.5v121q0 107 -95 107q-15 0 -28.5 -1t-27.5 -4v57q20 5 36.5 7.5t35.5 2.5q71 0 108.5 -41.5t37.5 -119.5v-240
z" />
    <glyph glyph-name="afii57667" unicode="&#x5d3;" horiz-adv-x="461" 
d="M287 450h-268v62h403v-62h-69v-450h-66v450z" />
    <glyph glyph-name="afii57668" unicode="&#x5d4;" horiz-adv-x="563" 
d="M81 0v288h67v-288h-67zM419 0v308q0 43 -6.5 73t-24.5 48.5t-50 26.5t-84 8q-42 0 -87.5 -5.5t-86.5 -15.5v62q42 10 87.5 16t90.5 6q53 0 95.5 -8.5t72 -29.5t45 -57t15.5 -91v-341h-67z" />
    <glyph glyph-name="afii57669" unicode="&#x5d5;" horiz-adv-x="247" 
d="M90 0v512h67v-512h-67z" />
    <glyph glyph-name="afii57670" unicode="&#x5d6;" horiz-adv-x="306" 
d="M265 512v-63q-24 -2 -42 -14.5t-31 -32t-19.5 -44.5t-6.5 -52q0 -6 0.5 -22.5t1.5 -39t2 -49.5t3 -54q4 -63 8 -141h-68l-14 298q1 63 23 98t65 52h-154v64h232z" />
    <glyph glyph-name="afii57671" unicode="&#x5d7;" horiz-adv-x="571" 
d="M86 0v505q42 10 87.5 16t90.5 6q53 0 95.5 -8.5t72 -29.5t45 -57t15.5 -91v-341h-66v309q0 43 -6.5 73t-25 48.5t-51 26.5t-84.5 8q-24 0 -51 -2t-56 -6v-457h-66z" />
    <glyph glyph-name="afii57672" unicode="&#x5d8;" horiz-adv-x="580" 
d="M138 512v-279q0 -187 159 -187q50 0 82 23t50.5 57t25.5 73t7 72q0 15 -3.5 46.5t-18.5 63.5t-45.5 56t-85.5 24q-15 0 -37 -5v60q32 7 61 7q48 0 85 -19.5t61.5 -53.5t37.5 -79t13 -96t-13 -102.5t-40.5 -93t-72 -68t-107.5 -26.5q-109 0 -167.5 61.5t-58.5 179.5v286
h67z" />
    <glyph glyph-name="afii57673" unicode="&#x5d9;" horiz-adv-x="234" 
d="M83 249v263h68v-263h-68z" />
    <glyph glyph-name="afii57674" unicode="&#x5da;" horiz-adv-x="499" 
d="M345 -203v499q0 50 -8 82.5t-27.5 51.5t-52.5 26.5t-82 7.5q-72 0 -147 -20v62q43 10 81 15.5t80 5.5q52 0 93.5 -9.5t70 -33t44 -62.5t15.5 -97v-528h-67z" />
    <glyph glyph-name="afii57675" unicode="&#x5db;" horiz-adv-x="505" 
d="M50 67q32 -9 66.5 -14.5t71.5 -5.5q99 0 148.5 54t49.5 155t-49.5 155t-148.5 54q-35 0 -71 -6t-67 -14v61q36 9 72.5 15t73.5 6q124 0 191.5 -68.5t67.5 -202.5t-67.5 -202.5t-191.5 -68.5q-37 0 -73.5 5.5t-72.5 13.5v63z" />
    <glyph glyph-name="afii57676" unicode="&#x5dc;" horiz-adv-x="444" 
d="M189 0l139 450h-303v253h67v-191h303v-61q-34 -111 -69.5 -225t-69.5 -226h-67z" />
    <glyph glyph-name="afii57677" unicode="&#x5dd;" horiz-adv-x="586" 
d="M431 62v254q0 46 -10.5 75t-29.5 45.5t-47 22t-62 5.5q-28 0 -60 -3.5t-70 -11.5v-387h279zM86 499q45 11 98.5 19.5t101.5 8.5q43 0 81.5 -9t67 -30.5t45.5 -57.5t17 -90v-340h-411v499z" />
    <glyph glyph-name="afii57678" unicode="&#x5de;" horiz-adv-x="581" 
d="M127 512l36 -122q15 44 36 71t45 41.5t50.5 19.5t53.5 5q78 0 121.5 -47.5t43.5 -127.5v-200q0 -85 -41 -123.5t-113 -38.5q-31 0 -77 8v55q33 -3 65 -3q21 0 39.5 5t31.5 17t20.5 32.5t7.5 52.5v160q0 30 -5 57t-17.5 47.5t-33 32.5t-51.5 12q-35 0 -60 -16.5t-43 -45.5
t-31 -69t-24 -86l-58 -249h-67l71 301l-70 211h70z" />
    <glyph glyph-name="afii57679" unicode="&#x5df;" horiz-adv-x="253" 
d="M90 -203v715h67v-715h-67z" />
    <glyph glyph-name="afii57680" unicode="&#x5e0;" horiz-adv-x="335" 
d="M200 62v293q0 54 -22.5 80.5t-73.5 26.5q-14 0 -27 -1t-27 -5v58q20 5 36.5 7.5t35.5 2.5q71 0 108 -41.5t37 -119.5v-240q0 -37 2 -64t8 -54v-5h-227v62h150z" />
    <glyph glyph-name="afii57681" unicode="&#x5e1;" horiz-adv-x="571" 
d="M119 257q0 -41 10 -79.5t30.5 -68t52 -47.5t75.5 -18q43 0 74.5 18t52.5 48t31.5 68.5t10.5 78.5t-10.5 78t-31.5 67.5t-53 47.5t-74 18q-43 0 -74.5 -17.5t-52.5 -47t-31 -67.5t-10 -79zM49 257q0 61 18 111t50 85t75.5 54.5t94.5 19.5q57 0 101 -22t75 -59t47 -86
t16 -103q0 -55 -16 -104t-46.5 -86.5t-75 -59.5t-101.5 -22q-43 0 -85.5 15.5t-76.5 48.5t-55 84.5t-21 123.5z" />
    <glyph glyph-name="afii57682" unicode="&#x5e2;" horiz-adv-x="569" 
d="M493 512l-24 -354q-3 -49 -20.5 -81.5t-47 -52t-71.5 -27.5t-95 -8q-38 0 -80.5 3t-91.5 8v57q38 -4 73.5 -5.5t64.5 -2.5l-146 463h71l142 -463q64 5 97.5 28t37.5 80l24 355h66z" />
    <glyph glyph-name="afii57683" unicode="&#x5e3;" horiz-adv-x="597" 
d="M259 527q50 0 95 -9t79.5 -32t55 -62t20.5 -99v-528h-67v499q0 51 -13.5 83.5t-38.5 51t-59 26t-75 7.5q-25 0 -52.5 -1t-62.5 -5l-7 -117q0 -32 15 -42t44 -10h11.5t10.5 1l2 -59q-8 -2 -18.5 -3t-19.5 -1q-51 0 -81 20.5t-30 78.5l13 181q50 11 93 15.5t85 4.5z" />
    <glyph glyph-name="afii57684" unicode="&#x5e4;" horiz-adv-x="562" 
d="M239 527q60 0 110 -14.5t86.5 -46t56.5 -82.5t20 -123q0 -134 -71 -205t-205 -71q-42 0 -81.5 5t-81.5 14v63q35 -9 76.5 -14.5t81.5 -5.5q106 0 159 57t53 157q0 106 -54.5 155t-153.5 49q-23 0 -42 -1.5t-53 -5.5l-7 -117q0 -32 15.5 -42t44.5 -10h11.5t10.5 1l2 -59
q-8 -2 -18.5 -3t-19.5 -1q-51 0 -81 20.5t-30 78.5l13 181q50 11 86.5 15.5t71.5 4.5z" />
    <glyph glyph-name="afii57685" unicode="&#x5e5;" horiz-adv-x="517" 
d="M275 256q53 20 79 64.5t34 130.5l6 61h64l-6 -59q-4 -40 -14 -78.5t-29 -71.5t-49.5 -57.5t-75.5 -34.5v-414h-67v427l-191 288h78z" />
    <glyph glyph-name="afii57686" unicode="&#x5e6;" horiz-adv-x="522" 
d="M111 512l187 -262q17 11 31.5 23t26 30.5t19.5 46t12 69.5l9 93h65l-7 -59q-7 -58 -18 -97t-27.5 -65t-38 -43.5t-48.5 -32.5l111 -153v-62h-375v62h292l-321 450h82z" />
    <glyph glyph-name="afii57687" unicode="&#x5e7;" horiz-adv-x="569" 
d="M82 -203v491h67v-491h-67zM490 512l-22 -354q-3 -50 -18.5 -82t-39 -50t-52 -25t-56.5 -7q-19 0 -31 0.5t-29 3.5v58q14 -2 26 -2h26q19 0 37 4.5t33 16.5t24.5 32t11.5 50l19 293h-356v62h427z" />
    <glyph glyph-name="afii57688" unicode="&#x5e8;" horiz-adv-x="477" 
d="M335 0v310q0 46 -9 76t-29 47.5t-51 24t-76 6.5q-36 0 -71 -5.5t-71 -14.5v63q42 9 79 14.5t77 5.5q49 0 89 -9t68.5 -30t44.5 -57t16 -90v-341h-67z" />
    <glyph glyph-name="afii57689" unicode="&#x5e9;" horiz-adv-x="707" 
d="M128 512l26 -304q54 7 85 19t47 36t21 63.5t7 101.5q1 19 1.5 40t0.5 44h68q-1 -23 -1 -44.5t-1 -41.5q-2 -66 -10.5 -113t-32 -79t-66.5 -50.5t-115 -26.5l9 -101q35 -5 67 -7.5t64 -2.5q88 0 140 26.5t79.5 83.5t37.5 145t13 211h66q-5 -126 -15.5 -224t-44.5 -165.5
t-99.5 -102.5t-178.5 -35q-42 0 -86 4.5t-104 13.5l-44 509h66z" />
    <glyph glyph-name="afii57690" unicode="&#x5ea;" horiz-adv-x="580" 
d="M438 0v308q0 43 -5.5 73t-22.5 48.5t-48 26.5t-83 8q-53 0 -113 -9v-356q0 -60 -27 -85t-81 -25q-10 0 -20 1t-19 3v62q5 -2 11.5 -3t13.5 -1q33 0 44 12t11 47v394q42 10 91 16.5t94 6.5q53 0 94 -8.5t69.5 -29.5t43 -57t14.5 -91v-341h-67z" />
    <glyph glyph-name="afii57716" unicode="&#x5f0;" horiz-adv-x="486" 
d="M87 0v512h67v-512h-67zM321 0v512h68v-512h-68z" />
    <glyph glyph-name="afii57717" unicode="&#x5f1;" horiz-adv-x="486" 
d="M80 249v263h68v-263h-68zM321 0v512h68v-512h-68z" />
    <glyph glyph-name="afii57718" unicode="&#x5f2;" horiz-adv-x="481" 
d="M310 249v263h67v-263h-67zM80 249v263h68v-263h-68z" />
    <glyph glyph-name="uni05F3" unicode="&#x5f3;" horiz-adv-x="219" 
d="M192 609q-20 -54 -38.5 -103.5t-37.5 -103.5h-58q11 55 21 104t21 103h92z" />
    <glyph glyph-name="uni05F4" unicode="&#x5f4;" horiz-adv-x="409" 
d="M380 609q-19 -54 -37 -103.5t-38 -103.5h-58q11 55 21.5 104t21.5 103h90zM189 609q-19 -54 -37.5 -103.5t-38.5 -103.5h-57q11 55 21 104t21 103h91z" />
    <glyph glyph-name="uni200E" unicode="&#x200e;" horiz-adv-x="0" 
d="M0 0v794h106l-42 43l16 16l69 -70l-68 -67l-17 15l42 41h-85v-772h-21z" />
    <glyph glyph-name="uni200F" unicode="&#x200f;" horiz-adv-x="0" 
d="M21 0h-21v772h-85l42 -41l-17 -15l-68 67l69 70l16 -16l-42 -43h106v-794z" />
    <glyph glyph-name="endash" unicode="&#x2013;" horiz-adv-x="500" 
d="M0 262v61h500v-61h-500z" />
    <glyph glyph-name="emdash" unicode="&#x2014;" horiz-adv-x="1000" 
d="M120 261v63h760v-63h-760z" />
    <glyph glyph-name="quoteleft" unicode="&#x2018;" horiz-adv-x="271" 
d="M137 570h42v-104h-89v111q0 25 4 47.5t14.5 40.5t27.5 30t44 16v-46q-22 -8 -32.5 -26.5t-10.5 -53.5v-15z" />
    <glyph glyph-name="quoteright" unicode="&#x2019;" horiz-adv-x="271" 
d="M133 602h-42v104h89v-111q0 -25 -4 -47.5t-14.5 -40.5t-27.5 -30t-44 -16v46q22 8 32.5 26.5t10.5 53.5v15z" />
    <glyph glyph-name="quotesinglbase" unicode="&#x201a;" horiz-adv-x="271" 
d="M133 0h-42v104h89v-111q0 -25 -4 -47.5t-14.5 -40.5t-27.5 -30t-44 -16v46q22 8 32.5 26.5t10.5 53.5v15z" />
    <glyph glyph-name="quotedblleft" unicode="&#x201c;" horiz-adv-x="436" 
d="M303 570h42v-104h-89v111q0 25 4 47.5t14.5 40.5t27.5 30t44 16v-46q-22 -8 -32.5 -26.5t-10.5 -53.5v-15zM137 570h42v-104h-89v111q0 25 4 47.5t14.5 40.5t27.5 30t44 16v-46q-22 -8 -32.5 -26.5t-10.5 -53.5v-15z" />
    <glyph glyph-name="quotedblright" unicode="&#x201d;" horiz-adv-x="437" 
d="M133 602h-42v104h89v-111q0 -25 -4 -47.5t-14.5 -40.5t-27.5 -30t-44 -16v46q22 8 32.5 26.5t10.5 53.5v15zM299 602h-42v104h89v-111q0 -25 -4 -47.5t-14.5 -40.5t-27.5 -30t-44 -16v46q22 8 32.5 26.5t10.5 53.5v15z" />
    <glyph glyph-name="quotedblbase" unicode="&#x201e;" horiz-adv-x="437" 
d="M133 0h-42v104h89v-111q0 -25 -4 -47.5t-14.5 -40.5t-27.5 -30t-44 -16v46q22 8 32.5 26.5t10.5 53.5v15zM299 0h-42v104h89v-111q0 -25 -4 -47.5t-14.5 -40.5t-27.5 -30t-44 -16v46q22 8 32.5 26.5t10.5 53.5v15z" />
    <glyph glyph-name="dagger" unicode="&#x2020;" 
d="M237 -120v557h-183v60h183v209h69v-209h182v-60h-182v-557h-69z" />
    <glyph glyph-name="daggerdbl" unicode="&#x2021;" 
d="M237 -120v222h-183v60h183v275h-183v60h183v209h69v-209h182v-60h-182v-275h182v-60h-182v-222h-69z" />
    <glyph glyph-name="bullet" unicode="&#x2022;" 
d="M270 234q-26 0 -47.5 8.5t-37.5 24t-25 37.5t-9 48q0 53 34 86.5t86 33.5q25 0 47 -8.5t38 -24t25 -37.5t9 -48q0 -53 -34 -86.5t-86 -33.5z" />
    <glyph glyph-name="ellipsis" unicode="&#x2026;" horiz-adv-x="1000" 
d="M122 0v104h89v-104h-89zM456 0v104h89v-104h-89zM789 0v104h89v-104h-89z" />
    <glyph glyph-name="perthousand" unicode="&#x2030;" horiz-adv-x="1060" 
d="M123 0l423 706h53l-422 -706h-54zM167 323q-72 0 -105 51.5t-33 147.5q0 43 8.5 79.5t26 63t43 41.5t60.5 15q72 0 105 -51.5t33 -147.5q0 -43 -8.5 -79.5t-25.5 -63t-43 -41.5t-61 -15zM167 367q22 0 38.5 12t27 32.5t15.5 49t5 61.5q0 73 -19.5 113.5t-66.5 40.5
q-23 0 -39 -12t-26 -32.5t-15 -48.5t-5 -61q0 -73 19.5 -114t65.5 -41zM557 -15q-72 0 -105 51.5t-33 147.5q0 43 8.5 79.5t26 63t43 41.5t60.5 15q72 0 105 -51.5t33 -147.5q0 -43 -8.5 -79.5t-25.5 -63t-43 -41.5t-61 -15zM557 29q22 0 38.5 12t27 32.5t15.5 49t5 61.5
q0 73 -19.5 113.5t-66.5 40.5q-23 0 -39 -12t-26 -32.5t-15 -48.5t-5 -61q0 -73 19.5 -114t65.5 -41zM894 -15q-72 0 -105 51.5t-33 147.5q0 43 8.5 79.5t26 63t43 41.5t60.5 15q72 0 105 -51.5t33 -147.5q0 -43 -8.5 -79.5t-25.5 -63t-43 -41.5t-61 -15zM894 29
q22 0 38.5 12t27 32.5t15.5 49t5 61.5q0 73 -19.5 113.5t-66.5 40.5q-23 0 -39 -12t-26 -32.5t-15 -48.5t-5 -61q0 -73 19.5 -114t65.5 -41z" />
    <glyph glyph-name="guilsinglleft" unicode="&#x2039;" horiz-adv-x="271" 
d="M214 363l-121 -105l122 -103v-73l-171 147v58l170 144v-68z" />
    <glyph glyph-name="guilsinglright" unicode="&#x203a;" horiz-adv-x="271" 
d="M57 150l121 105l-122 103v73l171 -147v-58l-170 -144v68z" />
    <glyph glyph-name="fraction" unicode="&#x2044;" horiz-adv-x="125" 
d="M-174 0l460 706h56l-458 -706h-58z" />
    <glyph glyph-name="uni20AA" unicode="&#x20aa;" horiz-adv-x="753" 
d="M328 512q29 0 61 -6t58.5 -26t43.5 -57t17 -99v-134q0 -15 -4 -18t-9 -3h-54v147q0 45 -12.5 71t-31.5 39.5t-42.5 17.5t-44.5 4h-148v-448h-67v512h233zM268 345h53q5 0 10 -4t5 -18v-257h146q21 0 44.5 3.5t42.5 17t31.5 39.5t12.5 70v316h69v-324q0 -61 -17.5 -98
t-44 -57t-58 -26.5t-59.5 -6.5h-235v345z" />
    <glyph glyph-name="Euro" unicode="&#x20ac;" 
d="M490 29q-26 -21 -62 -32.5t-80 -11.5q-213 0 -245 266h-78l13 52h61q-1 12 -1 24v26v25t1 25h-74l13 52h67q8 59 27 108t49 84t72 54.5t96 19.5t89.5 -14t63.5 -35l-19 -64q-31 25 -61 39t-74 14q-39 0 -68.5 -15t-51 -42t-35 -65t-20.5 -84h290l-13 -52h-283
q-1 -12 -1 -24.5v-25.5v-26t1 -24h269l-13 -52h-252q14 -106 58 -157t123 -51q41 0 73.5 14t64.5 42v-70z" />
    <glyph glyph-name="afii61289" unicode="&#x2113;" horiz-adv-x="500" 
d="M412 41q-59 -54 -127 -54q-54 0 -89 31t-35 96v107l-58 -58h-2l-27 42l87 83v261q0 84 36 128t89 44q47 0 77 -32.5t30 -92.5q0 -74 -43 -154.5t-125 -166.5v-145q0 -27 6.5 -44t17 -27t24 -14t26.5 -4q21 0 43.5 9.5t44.5 29.5h2zM335 591q0 39 -13 59t-36 20
q-24 0 -42.5 -25t-18.5 -87v-214q57 66 83.5 128t26.5 119z" />
    <glyph glyph-name="afii61352" unicode="&#x2116;" horiz-adv-x="897" 
d="M870 571q0 -32 -10 -58.5t-28.5 -45.5t-44.5 -30t-58 -11q-65 0 -102 40.5t-37 104.5q0 30 9.5 56.5t27.5 46t43 31t57 11.5q33 0 59.5 -11.5t45 -31t28.5 -46t10 -56.5zM591 304v53h280v-53h-280zM444 0l-296 596h-2v-596h-66v706h84l296 -596h2v596h66v-706h-84z
M815 571q0 45 -25 71.5t-60 26.5t-60 -26.5t-25 -71.5t24.5 -71.5t58.5 -26.5q38 0 62.5 26.5t24.5 71.5z" />
    <glyph glyph-name="trademark" unicode="&#x2122;" horiz-adv-x="700" 
d="M579 374v218q0 17 0.5 34.5t1.5 34.5q-8 -31 -17 -59l-72 -228h-42l-72 229q-9 27 -15 57q1 -16 1.5 -33.5t0.5 -34.5v-218h-46v332h67l86 -272l85 272h68v-332h-46zM127 374v291h-108v41h262v-41h-106v-291h-48z" />
    <glyph glyph-name="Omega" unicode="&#x2126;" horiz-adv-x="770" 
d="M387 662q-64 0 -114 -21.5t-85 -59.5t-53.5 -89.5t-18.5 -110.5q0 -111 47 -187t141 -132v-62h-262v58h193q-97 58 -142.5 142.5t-45.5 181.5q0 72 24.5 133.5t69.5 107.5t107.5 72t138.5 26t138 -25t106 -69.5t68 -106.5t24 -136q0 -97 -47 -183.5t-144 -142.5h196v-58
h-262v62q188 108 188 321q0 59 -18 110t-52 88.5t-83.5 59t-113.5 21.5z" />
    <glyph glyph-name="estimated" unicode="&#x212e;" horiz-adv-x="600" 
d="M157 259v-181q59 -59 145 -59q63 0 109 28.5t84 91.5l35 -21q-23 -36 -46.5 -61.5t-51 -42t-59.5 -24t-71 -7.5q-59 0 -106.5 21.5t-81.5 59t-52 87.5t-18 108t18 108.5t52 87.5t81.5 58.5t106.5 21.5q58 0 105.5 -20.5t81.5 -57t53 -87t19 -111.5h-404zM448 295v145
q-63 60 -147 60t-144 -60v-145h291z" />
    <glyph glyph-name="partialdiff" unicode="&#x2202;" 
d="M245 377q-40 0 -69 -13t-48 -36t-28.5 -53.5t-9.5 -66.5q0 -76 40 -121t118 -45q43 0 75 20t53 52.5t31 73.5t10 83q-32 52 -78.5 79t-93.5 27zM65 657q26 22 69.5 43t104.5 21q63 0 109 -28t76.5 -77.5t45.5 -118t15 -149.5q0 -83 -15 -150t-45 -114t-75.5 -73
t-106.5 -26q-48 0 -88.5 14.5t-70 43t-45.5 71.5t-16 99q0 46 15 86t43 70t68 47.5t90 17.5q55 0 102.5 -24.5t76.5 -68.5q0 77 -10 137t-32 101.5t-57 63.5t-84 22q-38 0 -73.5 -15.5t-60.5 -38.5z" />
    <glyph glyph-name="Delta" unicode="&#x2206;" horiz-adv-x="660" 
d="M638 0h-616l275 706h63zM548 59l-220 581l-219 -581h439z" />
    <glyph glyph-name="product" unicode="&#x220f;" horiz-adv-x="720" 
d="M635 706v-907h-70v847h-410v-847h-70v907h550z" />
    <glyph glyph-name="summation" unicode="&#x2211;" horiz-adv-x="720" 
d="M69 -150l368 421l-355 385v50h552v-59h-453l340 -371v-4l-359 -413h488v-60h-581v51z" />
    <glyph glyph-name="minus" unicode="&#x2212;" 
d="M30 262v60h480v-60h-480z" />
    <glyph glyph-name="uni2215" unicode="&#x2215;" horiz-adv-x="125" 
d="M-174 0l460 706h56l-458 -706h-58z" />
    <glyph glyph-name="uni2219" unicode="&#x2219;" horiz-adv-x="271" 
d="M76 289q0 26 17.5 42.5t41.5 16.5q25 0 42 -16.5t17 -42.5t-17.5 -42.5t-41.5 -16.5q-25 0 -42 16.5t-17 42.5z" />
    <glyph glyph-name="radical" unicode="&#x221a;" 
d="M288 -214h-55l-168 346l-45 -22l-19 40l88 44l166 -347l194 939h49z" />
    <glyph glyph-name="infinity" unicode="&#x221e;" horiz-adv-x="750" 
d="M376 276q48 48 91 80t94 32q30 0 54.5 -10.5t42.5 -29t28 -44t10 -55.5q0 -62 -36.5 -100.5t-95.5 -38.5q-43 0 -86 24.5t-102 80.5q-27 -24 -48.5 -43t-43 -33t-45 -21.5t-53.5 -7.5q-29 0 -53 10t-41.5 28t-27.5 43t-10 55t10 56t27 45t41 29.5t53 10.5q27 0 50 -7.5
t45.5 -22t45.5 -35t50 -46.5zM409 246q47 -47 84.5 -67.5t72.5 -20.5q37 0 59.5 24.5t22.5 63.5q0 43 -24 68.5t-61 25.5q-42 0 -77 -26t-77 -68zM342 246q-24 23 -44.5 40.5t-39 29t-36.5 17.5t-38 6q-35 0 -58.5 -26t-23.5 -66q0 -41 23.5 -65t62.5 -24t73.5 22t80.5 66z
" />
    <glyph glyph-name="integral" unicode="&#x222b;" 
d="M235 641q0 56 29.5 81.5t81.5 25.5q8 0 18.5 -0.5t21.5 -2.5v-54q-8 1 -18 1.5t-17 0.5q-29 0 -40.5 -16t-11.5 -48v-723q0 -56 -29.5 -81.5t-81.5 -25.5q-8 0 -18.5 0.5t-21.5 2.5v54q8 -1 18 -1.5t17 -0.5q29 0 40.5 16t11.5 48v723z" />
    <glyph glyph-name="approxequal" unicode="&#x2248;" 
d="M501 384q-18 -23 -34 -38t-31.5 -23.5t-31 -12t-31.5 -3.5q-27 0 -53.5 11t-53 24t-52.5 24t-50 11q-31 0 -50.5 -14t-40.5 -46l-33 45q21 32 49 53t75 21q29 0 57.5 -11t55 -24t51.5 -24t46 -11q29 0 50.5 15.5t45.5 47.5zM501 214q-18 -23 -34 -37.5t-31.5 -22t-31 -10
t-31.5 -2.5q-27 0 -53.5 11t-53 24t-52.5 24t-50 11q-31 0 -50.5 -16.5t-40.5 -48.5l-33 45q10 16 22 30t27 25t33.5 17.5t41.5 6.5q29 0 57.5 -11t55 -24t51.5 -24t46 -11q29 0 50.5 13t45.5 45z" />
    <glyph glyph-name="notequal" unicode="&#x2260;" 
d="M228 174l-73 -137l-42 23l61 114h-144v57h175l63 120h-238v58h270l78 145l42 -22l-66 -123h158v-58h-190l-63 -120h253v-57h-284z" />
    <glyph glyph-name="lessequal" unicode="&#x2264;" 
d="M38 300v64l460 184v-64l-392 -152l393 -149v-64zM38 0v60h461v-60h-461z" />
    <glyph glyph-name="greaterequal" unicode="&#x2265;" 
d="M504 367v-64l-460 -184v64l392 152l-393 149v64zM45 0v60h461v-60h-461z" />
    <glyph glyph-name="lozenge" unicode="&#x25ca;" horiz-adv-x="660" 
d="M361 -216h-63l-221 461l220 461h63l222 -461zM328 640l-185 -395l187 -395l185 395z" />
    <glyph glyph-name="grave.cap" unicode="&#xe300;" horiz-adv-x="214" 
d="M95 764l-118 133h91l81 -133h-54z" />
    <glyph glyph-name="acute.cap" unicode="&#xe301;" horiz-adv-x="214" 
d="M64 764l82 133h90l-118 -133h-54z" />
    <glyph glyph-name="circumflex.cap" unicode="&#xe302;" horiz-adv-x="214" 
d="M184 765l-78 94l-79 -94h-68l111 132h72l111 -132h-69z" />
    <glyph glyph-name="caron.cap" unicode="&#xe303;" horiz-adv-x="214" 
d="M143 766h-72l-111 131h69l78 -93l80 93h67z" />
    <glyph glyph-name="tilde.cap" unicode="&#xe304;" horiz-adv-x="214" 
d="M66 813q-10 3 -17.5 5t-15.5 2q-14 0 -21.5 -9.5t-11.5 -25.5h-46q5 43 22 67.5t51 24.5q11 0 22 -2t27 -7l62 -20q14 -5 23.5 -6.5t18.5 -1.5q23 0 33 35h47q-3 -27 -11 -44.5t-19 -28t-24 -15t-26 -4.5q-14 0 -25 2t-28 8z" />
    <glyph glyph-name="dieresis.cap" unicode="&#xe305;" horiz-adv-x="214" 
d="M161 792v90h66v-90h-66zM-14 792v90h66v-90h-66z" />
    <glyph glyph-name="macron.cap" unicode="&#xe306;" horiz-adv-x="214" 
d="M-31 838h276v-45h-276v45z" />
    <glyph glyph-name="breve.cap" unicode="&#xe307;" horiz-adv-x="214" 
d="M9 894q8 -42 32.5 -60.5t62.5 -18.5t61.5 18.5t34.5 60.5h41q-8 -63 -46.5 -94.5t-95.5 -31.5q-55 0 -91.5 33t-40.5 93h42z" />
    <glyph glyph-name="ring.cap" unicode="&#xe308;" horiz-adv-x="214" 
d="M106 767q27 0 45.5 18t18.5 48t-17.5 48.5t-46.5 18.5q-27 0 -45.5 -18t-18.5 -50q0 -29 17.5 -47t46.5 -18zM106 734q-42 0 -70.5 26.5t-28.5 71.5q0 21 7.5 39.5t21 32t31.5 21.5t39 8q42 0 70.5 -26.5t28.5 -71.5q0 -21 -7.5 -39.5t-21 -32t-31.5 -21.5t-39 -8z" />
    <glyph glyph-name="hungarumlaut.cap" unicode="&#xe309;" horiz-adv-x="214" 
d="M-27 764l110 133h77l-136 -133h-51zM135 764l110 133h77l-136 -133h-51z" />
    <glyph glyph-name="dotaccent.cap" unicode="&#xe30a;" horiz-adv-x="214" 
d="M75 792v90h64v-90h-64z" />
    <glyph glyph-name="caron.alt" unicode="&#xe30b;" horiz-adv-x="214" 
d="M180 720l-61 -164h-46l30 164h77z" />
    <glyph glyph-name="commaaccent" unicode="&#xe30c;" horiz-adv-x="214" 
d="M141 -55l-63 -146h-51l46 146h68z" />
    <glyph glyph-name="commaaccent.alt" unicode="&#xe30d;" horiz-adv-x="214" 
d="M235 588l63 133h49l-48 -133h-64z" />
    <glyph glyph-name="zero.prop" unicode="&#xf639;" 
d="M270 -15q-62 0 -105.5 25t-71.5 72t-40.5 115.5t-12.5 155.5q0 79 13.5 146.5t41.5 117t72 77t104 27.5q62 0 105.5 -24.5t71.5 -72t40.5 -115.5t12.5 -155q0 -80 -13.5 -147.5t-41.5 -116.5t-72 -77t-104 -28zM270 43q43 0 74 23.5t50 65.5t28 99t9 123q0 72 -8 129
t-27 96.5t-50 60.5t-76 21q-44 0 -74.5 -23t-49.5 -64.5t-27.5 -98t-8.5 -122.5q0 -72 8.5 -129.5t27.5 -97.5t49.5 -61.5t74.5 -21.5z" />
    <glyph glyph-name="two.prop" unicode="&#xf63a;" 
d="M39 0q0 4 -0.5 9t-0.5 11q0 42 9 77.5t29 68t53 61.5t80 58l106 64q47 28 76 67.5t29 97.5q0 66 -37 105.5t-103 39.5q-46 0 -75.5 -14.5t-47 -38.5t-24.5 -55t-7 -64h-71q0 42 12 84t38.5 75t69.5 54t106 21q48 0 87 -15t66 -42t42 -64t15 -81q0 -40 -11 -73t-31 -60.5
t-47 -50t-59 -41.5l-94 -56q-41 -24 -68 -46.5t-42.5 -44t-22 -42.5t-6.5 -43h375v-62h-446z" />
    <glyph glyph-name="three.prop" unicode="&#xf63b;" 
d="M215 402q16 -1 26 -1h23q31 0 57 9.5t45 27.5t29.5 43t10.5 55q0 52 -36.5 88t-105.5 36q-72 0 -109 -43t-37 -118h-67q0 44 12 84.5t38 71t66.5 48.5t97.5 18q52 0 91 -15t65 -40.5t39 -58.5t13 -70q0 -33 -9 -58.5t-24 -44.5t-34 -32t-39 -21q22 -6 45 -18.5
t41.5 -33.5t30 -51t11.5 -71q0 -50 -17.5 -91t-49 -70t-74 -45t-91.5 -16q-56 0 -98.5 17t-71.5 46.5t-43.5 70.5t-14.5 89h69q0 -36 10.5 -65.5t30.5 -51t50 -33.5t69 -12q36 0 65.5 11t51 31.5t33.5 49.5t12 66q0 34 -12.5 61t-34 46t-51.5 28.5t-66 9.5h-21t-26 -1v54z
" />
    <glyph glyph-name="four.prop" unicode="&#xf63c;" 
d="M338 0v178h-311v55l318 473h56v-472h98v-56h-98v-178h-63zM338 606l-241 -372h241v372z" />
    <glyph glyph-name="five.prop" unicode="&#xf63d;" 
d="M59 331l57 375h339v-66h-288l-33 -219q23 17 57.5 29t82.5 12q52 0 93 -17.5t69.5 -48.5t43 -73.5t14.5 -93.5q0 -53 -17 -98t-48 -77.5t-75 -50.5t-98 -18q-94 0 -152.5 52t-66.5 144h66q9 -67 52 -101.5t103 -34.5q37 0 68 12.5t53 36t34 56.5t12 75q0 38 -10.5 70
t-31 55.5t-51 36.5t-70.5 13q-57 0 -90.5 -21t-52.5 -48h-60z" />
    <glyph glyph-name="six.prop" unicode="&#xf63e;" 
d="M422 540q-2 24 -10.5 46t-24.5 38.5t-39.5 26t-56.5 9.5q-57 0 -93.5 -31t-57.5 -79t-29 -106t-8 -112q9 18 24 39t38 38.5t54.5 29t72.5 11.5q47 0 86 -15.5t67 -45t43.5 -72t15.5 -96.5q0 -53 -16.5 -96t-46.5 -74.5t-71.5 -48.5t-90.5 -17q-64 0 -110 25t-75 70.5
t-43 109t-14 139.5t14 146.5t44.5 125t79 87.5t118.5 33q47 0 83 -14.5t61 -39t38.5 -57.5t15.5 -70h-69zM431 221q0 41 -12 73t-32.5 53.5t-48 32.5t-58.5 11q-32 0 -60 -12t-50 -34.5t-34.5 -55t-12.5 -74.5q0 -35 10.5 -66t31 -54t49.5 -37t66 -14q67 0 109 46t42 131z
" />
    <glyph glyph-name="seven.prop" unicode="&#xf63f;" 
d="M143 0q7 67 27.5 147t55 164t83.5 168.5t114 161.5h-374v65h443v-64q-68 -80 -116.5 -166.5t-81 -171.5t-51.5 -163.5t-27 -140.5h-73z" />
    <glyph glyph-name="eight.prop" unicode="&#xf640;" 
d="M372 390q26 -8 50.5 -23.5t43 -39t29.5 -55t11 -71.5q0 -48 -16.5 -88t-47.5 -68.5t-74 -44t-95 -15.5q-53 0 -96.5 15.5t-74.5 43.5t-48 68t-17 89q0 38 10.5 68.5t28.5 53.5t41.5 38.5t49.5 23.5q-48 20 -75 57.5t-27 92.5q0 38 14 71.5t41 59t66 40.5t88 15
q43 0 80 -12.5t64 -36.5t42 -58.5t15 -78.5q0 -28 -8.5 -51.5t-22.5 -41.5t-32.5 -31.5t-39.5 -20.5zM437 201q0 33 -11.5 61.5t-32.5 49.5t-51.5 32.5t-68.5 11.5q-40 0 -71 -12.5t-52 -33.5t-32 -49t-11 -60t11 -60.5t32 -50t52 -34t71 -12.5q74 0 119 41t45 116zM407 535
q0 60 -37 93.5t-97 33.5q-66 0 -102 -35.5t-36 -91.5q0 -55 36.5 -90t101.5 -35q63 0 98.5 36.5t35.5 88.5z" />
    <glyph glyph-name="nine.prop" unicode="&#xf641;" 
d="M119 166q2 -24 10.5 -46t24 -38t39.5 -25.5t57 -9.5q60 0 97 30.5t57 78.5t27 106.5t7 114.5q-9 -18 -24 -38.5t-38 -37.5t-54.5 -28t-72.5 -11q-47 0 -86 15t-67 43.5t-43.5 70.5t-15.5 95q0 52 17 95.5t47 74.5t71.5 48t90.5 17q64 0 109.5 -24.5t75 -69.5t43 -108
t13.5 -139q0 -78 -12.5 -149t-42.5 -126t-79 -87.5t-122 -32.5q-48 0 -84 14.5t-61 39t-38.5 57.5t-14.5 70h69zM110 486q0 -41 12 -72t32.5 -51.5t48 -31t58.5 -10.5t59.5 11t50.5 33t34.5 54t12.5 74q0 34 -10.5 65t-30.5 54t-49 36.5t-66 13.5q-67 0 -109.5 -45.5
t-42.5 -130.5z" />
    <glyph glyph-name="one.prop" unicode="&#xf6dc;" 
d="M267 0v532h-166v45q38 0 69.5 6t55 20.5t38 39.5t17.5 63h51v-706h-65z" />
    <glyph glyph-name="uniF8FF" unicode="&#xf8ff;" horiz-adv-x="512" 
d="M220 117v67h56v-67h-56zM223 234v24q0 26 2.5 43.5t9 31.5t18 27t29.5 31q32 32 40.5 51.5t8.5 38.5q0 36 -22 57t-53 21t-53.5 -19.5t-28.5 -70.5l-50 8q7 70 44 101t91 31t89 -33t35 -93q0 -16 -2.5 -30.5t-9 -28.5t-19 -30t-32.5 -35q-17 -16 -26.5 -27t-14.5 -21.5
t-6.5 -22.5t-1.5 -30v-24h-48zM462 50v617h-412v-617h412zM512 718v-718h-512v718h512z" />
    <glyph glyph-name="Delta.001" horiz-adv-x="660" 
d="M638 0h-616l275 706h63zM548 59l-220 581l-219 -581h439z" />
    <glyph glyph-name="pi.old" 
d="M36 512h457v-55h-71v-362q0 -29 11 -40.5t26 -11.5q14 0 23.5 1.5t18.5 3.5v-52q-13 -3 -23 -4.5t-21 -1.5q-51 0 -73.5 22.5t-22.5 76.5v368h-187v-457h-61v457h-77v55z" />
    <glyph glyph-name="Omega.001" horiz-adv-x="770" 
d="M387 662q-64 0 -114 -21.5t-85 -59.5t-53.5 -89.5t-18.5 -110.5q0 -111 47 -187t141 -132v-62h-262v58h193q-97 58 -142.5 142.5t-45.5 181.5q0 72 24.5 133.5t69.5 107.5t107.5 72t138.5 26t138 -25t106 -69.5t68 -106.5t24 -136q0 -97 -47 -183.5t-144 -142.5h196v-58
h-262v62q188 108 188 321q0 59 -18 110t-52 88.5t-83.5 59t-113.5 21.5z" />
    <glyph glyph-name="mu.001" 
d="M406 83q-17 -43 -57.5 -69.5t-104.5 -26.5q-63 0 -105 37v-210h-64v698h64v-333q0 -61 26.5 -98t89.5 -37q35 0 62.5 13t46.5 35.5t29 53t10 65.5v301h64v-512h-61v83z" />
    <glyph glyph-name="dieresis.001" horiz-adv-x="292" 
d="M106 613v92h67v-92h-67zM-69 613v92h66v-92h-66z" />
    <glyph glyph-name="onefitted" horiz-adv-x="354" 
d="M174 0v532h-166v45q38 0 69.5 6t55 20.5t38 39.5t17.5 63h51v-706h-65z" />
    </font>
</defs>
</svg>
