<?xml version="1.0" encoding="utf-8"?>
<!-- Generator: Adobe Illustrator 21.1.0, SVG Export Plug-In . SVG Version: 6.00 Build 0)  -->
<svg version="1.1" id="Layer_1" xmlns="http://www.w3.org/2000/svg" xmlns:xlink="http://www.w3.org/1999/xlink" x="0px" y="0px"
	 width="29.875px" height="40.75px" viewBox="0 0 29.875 40.75" enable-background="new 0 0 29.875 40.75" xml:space="preserve">
<g>
	<path fill="#000066" d="M27.739,9.804c-0.021-0.454-0.395-0.572-0.849-0.572h-5.963c-0.395-2.954-1.207-5.793-2.874-7.468
		c-0.942-0.946-2.069-1.521-3.34-1.514c-1.279,0.015-2.406,0.711-3.349,1.679C9.729,3.608,8.918,6.277,8.515,9.232H3.023
		c-0.457,0-0.832,0.122-0.849,0.578L1.04,39.365c-0.009,0.231,0.077,0.606,0.237,0.773c0.16,0.166,0.381,0.411,0.612,0.411h26.346
		c0.232,0,0.454-0.306,0.614-0.473s0.245-0.379,0.235-0.611L27.739,9.804z M12.581,3.02c0.625-0.642,1.329-1.078,2.151-1.088
		c0.803-0.022,1.501,0.465,2.115,1.081c1.089,1.094,1.901,3.264,2.359,6.219h-8.967C10.626,6.868,11.334,4.3,12.581,3.02z
		 M2.772,38.777L3.84,11.005h4.455c-0.189,1.182-0.176,3.179-0.174,3.32c0.007,0.465,0.386,0.816,0.849,0.816
		c0.004,0,0.008,0,0.013,0c0.469,0,0.844-0.372,0.837-0.841c-0.011-0.757,0.032-2.114,0.184-3.295h9.421
		c0.188,1.182,0.169,3.023,0.169,3.04c-0.007,0.469,0.367,0.719,0.836,0.726c0.464,0.018,0.856-0.157,0.863-0.626
		c0.002-0.141,0.018-1.958-0.159-3.14h4.942l1.269,27.772H2.772z"/>
</g>
</svg>
