<?xml version="1.0" encoding="utf-8"?>
<!-- Generator: Adobe Illustrator 21.1.0, SVG Export Plug-In . SVG Version: 6.00 Build 0)  -->
<svg version="1.1" id="Layer_1" xmlns="http://www.w3.org/2000/svg" xmlns:xlink="http://www.w3.org/1999/xlink" x="0px" y="0px"
	 width="52px" height="34px" viewBox="0 0 52 34" enable-background="new 0 0 52 34" xml:space="preserve">
<path fill="none" stroke="#000066" stroke-width="2" d="M51,22.04c-2.803,0.201-5.238-1.908-5.439-4.711
	c-0.201-2.803,1.908-5.238,4.711-5.439c0.242-0.018,0.486-0.018,0.728,0V1H1.01v10.89c2.803-0.201,5.238,1.908,5.439,4.711
	c0.201,2.803-1.908,5.238-4.711,5.439c-0.242,0.018-0.486,0.018-0.728,0v10.97H51V22.04z"/>
<g>
	<g>
		
			<line fill="none" stroke="#000066" stroke-width="2" stroke-linecap="round" stroke-linejoin="round" x1="38.833" y1="1.25" x2="38.833" y2="3.75"/>
		
			<line fill="none" stroke="#000066" stroke-width="2" stroke-linecap="round" stroke-linejoin="round" stroke-dasharray="5.2833,5.2833" x1="38.833" y1="9.033" x2="38.833" y2="27.525"/>
		
			<line fill="none" stroke="#000066" stroke-width="2" stroke-linecap="round" stroke-linejoin="round" x1="38.833" y1="30.167" x2="38.833" y2="32.667"/>
	</g>
</g>
<g>
	<path fill="#000066" d="M32.12,7.277c-0.023,0.193-0.034,0.375-0.057,0.545c-0.091,0.636-0.307,1.237-0.624,1.794
		c-0.238,0.443-0.579,0.817-0.931,1.169c-0.885,0.874-1.771,1.76-2.645,2.645c-0.227,0.227-0.454,0.454-0.681,0.681
		c-0.114,0.125-0.159,0.25-0.114,0.431c0.136,0.477,0.25,0.954,0.375,1.419c0.102,0.363,0.204,0.727,0.307,1.09
		c0.17,0.647,0.341,1.294,0.511,1.93c0.125,0.443,0.25,0.885,0.363,1.328c0.148,0.556,0.295,1.124,0.443,1.691
		c0.125,0.443,0.25,0.885,0.363,1.328c0.125,0.465,0.25,0.92,0.363,1.385c0.068,0.261,0.125,0.511,0.17,0.772
		c0.045,0.272-0.079,0.488-0.25,0.681c-0.238,0.261-0.488,0.511-0.749,0.795c-0.114-0.204-0.204-0.375-0.295-0.545
		c-0.318-0.624-0.636-1.237-0.954-1.862c-0.363-0.715-0.727-1.43-1.09-2.146c-0.159-0.307-0.329-0.613-0.488-0.92
		c-0.17-0.329-0.329-0.67-0.499-1.01c-0.193-0.397-0.397-0.795-0.602-1.192c-0.238-0.465-0.477-0.931-0.715-1.396
		c-0.118-0.237-0.237-0.349-0.402-0.349c-0.041,0-0.084,0.007-0.131,0.02c-0.091,0.023-0.182,0.091-0.261,0.159
		c-0.988,0.874-1.975,1.748-2.963,2.622c-0.704,0.624-1.408,1.249-2.111,1.884c-0.114,0.102-0.148,0.227-0.136,0.386
		c0.034,0.363,0.068,0.727,0.091,1.078c0.057,0.715,0.125,1.442,0.182,2.157c0.011,0.182,0.045,0.375,0.057,0.556
		c0.034,0.42-0.148,0.67-0.42,0.885c-0.25-0.692-0.499-1.351-0.738-2.009c-0.227-0.602-0.431-1.215-0.67-1.805
		c-0.193-0.465-0.556-0.772-1.033-0.942c-0.42-0.148-0.84-0.306-1.26-0.454c-0.329-0.125-0.658-0.238-0.988-0.363
		c-0.352-0.125-0.692-0.25-1.044-0.375c-0.114-0.045-0.238-0.091-0.363-0.136c0.125-0.17,0.272-0.306,0.465-0.386
		c0.108-0.051,0.219-0.065,0.331-0.065c0.112,0,0.226,0.014,0.339,0.02c0.534,0.045,1.056,0.091,1.589,0.136
		c0.579,0.045,1.158,0.091,1.737,0.159c0.044,0.005,0.086,0.008,0.126,0.008c0.209,0,0.369-0.077,0.521-0.258
		c0.817-0.942,1.669-1.873,2.497-2.804c0.658-0.738,1.305-1.464,1.953-2.202c0.193-0.216,0.159-0.534-0.114-0.67
		c-0.477-0.238-0.942-0.477-1.419-0.727c-0.454-0.238-0.908-0.465-1.374-0.704c-0.375-0.193-0.738-0.375-1.112-0.568
		c-0.477-0.25-0.965-0.488-1.442-0.738c-0.454-0.238-0.92-0.465-1.374-0.704c-0.556-0.284-1.124-0.568-1.68-0.863
		c-0.25-0.125-0.488-0.25-0.761-0.386c0.079-0.079,0.159-0.159,0.238-0.238c0.216-0.204,0.431-0.397,0.647-0.602
		c0.17-0.156,0.358-0.214,0.555-0.214c0.119,0,0.241,0.021,0.365,0.055c0.386,0.091,0.761,0.204,1.147,0.318
		c0.658,0.182,1.317,0.363,1.987,0.545c0.704,0.193,1.408,0.386,2.111,0.568c0.704,0.193,1.408,0.386,2.111,0.568
		c0.545,0.148,1.09,0.284,1.635,0.431c0.556,0.148,1.124,0.307,1.68,0.454c0.027,0.007,0.053,0.01,0.079,0.01
		c0.105,0,0.2-0.053,0.273-0.135c0.602-0.59,1.192-1.192,1.794-1.782c0.658-0.647,1.294-1.317,1.975-1.941
		c0.488-0.454,1.078-0.783,1.725-0.965c0.352-0.102,0.727-0.159,1.09-0.227C31.916,7.277,32.007,7.289,32.12,7.277 M32.12,5.5
		c-0.05,0-0.1,0.002-0.151,0.006l-0.015,0c-0.098,0.002-0.271,0.006-0.483,0.051l-0.194,0.035C30.963,5.65,30.606,5.714,30.24,5.82
		c-0.901,0.253-1.75,0.728-2.44,1.37c-0.475,0.435-0.931,0.894-1.371,1.337c-0.212,0.213-0.424,0.427-0.639,0.638
		c-0.304,0.298-0.606,0.6-0.908,0.902c-0.113,0.113-0.226,0.226-0.339,0.338c-0.009-0.002-0.018-0.005-0.027-0.007
		c-0.285-0.078-0.569-0.155-0.851-0.23c-0.269-0.073-0.547-0.145-0.825-0.218c-0.267-0.07-0.534-0.139-0.801-0.211
		c-0.007-0.002-0.014-0.004-0.021-0.005c-0.69-0.178-1.398-0.372-2.083-0.56c-0.009-0.002-0.02-0.005-0.029-0.008
		c-0.69-0.178-1.399-0.372-2.084-0.56c-0.668-0.181-1.32-0.361-1.971-0.54l-0.116-0.034c-0.345-0.102-0.702-0.207-1.082-0.298
		c-0.278-0.074-0.54-0.11-0.801-0.11c-0.662,0-1.269,0.236-1.756,0.682c-0.007,0.007-0.014,0.013-0.021,0.02
		c-0.102,0.096-0.203,0.19-0.305,0.284c-0.114,0.105-0.228,0.21-0.342,0.318c-0.012,0.011-0.023,0.022-0.034,0.033l-0.048,0.048
		l-0.191,0.191c-0.404,0.404-0.589,0.978-0.498,1.541c0.092,0.564,0.449,1.049,0.96,1.305c0.134,0.067,0.26,0.131,0.382,0.194
		c0.121,0.062,0.239,0.122,0.359,0.182c0.424,0.225,0.852,0.442,1.267,0.652l0.412,0.209c0.231,0.121,0.465,0.24,0.699,0.358
		c0.222,0.112,0.444,0.225,0.664,0.34c0.247,0.13,0.496,0.255,0.745,0.381c0.234,0.118,0.467,0.236,0.698,0.357
		c0.201,0.104,0.389,0.199,0.576,0.294c0.181,0.092,0.363,0.184,0.547,0.279l0.466,0.238c0.261,0.133,0.52,0.264,0.779,0.399
		c-0.273,0.307-0.542,0.609-0.804,0.902c-0.281,0.315-0.563,0.629-0.845,0.943c-0.432,0.48-0.875,0.974-1.311,1.47
		c-0.43-0.042-0.85-0.075-1.26-0.107l-0.785-0.067l-0.793-0.068c-0.021-0.002-0.041-0.003-0.062-0.004
		c-0.026-0.001-0.052-0.004-0.078-0.006c-0.089-0.007-0.21-0.016-0.35-0.016c-0.381,0-0.725,0.071-1.048,0.216
		c-0.462,0.199-0.86,0.522-1.182,0.961c-0.331,0.451-0.43,1.032-0.268,1.567c0.162,0.535,0.568,0.963,1.093,1.154
		c0.107,0.039,0.214,0.077,0.311,0.116c0.022,0.009,0.044,0.017,0.066,0.025c0.173,0.061,0.343,0.123,0.513,0.184
		c0.17,0.061,0.341,0.123,0.513,0.184c0.167,0.063,0.334,0.124,0.501,0.184c0.156,0.057,0.312,0.113,0.468,0.172
		c0.014,0.005,0.027,0.01,0.041,0.015c0.203,0.071,0.407,0.146,0.61,0.22c0.217,0.079,0.433,0.158,0.65,0.234
		c0.001,0,0.002,0.001,0.002,0.001c0.119,0.3,0.236,0.625,0.36,0.968c0.086,0.24,0.173,0.479,0.262,0.717
		c0.113,0.312,0.229,0.625,0.346,0.941c0.128,0.346,0.258,0.696,0.387,1.056c0.194,0.538,0.635,0.95,1.185,1.106
		c0.16,0.046,0.324,0.068,0.487,0.068c0.396,0,0.786-0.132,1.103-0.384c0.989-0.783,1.14-1.737,1.09-2.405
		c-0.008-0.12-0.022-0.243-0.037-0.366c-0.007-0.059-0.015-0.118-0.019-0.175c-0.001-0.01-0.001-0.02-0.002-0.03
		c-0.029-0.362-0.06-0.727-0.092-1.091c-0.03-0.352-0.061-0.704-0.089-1.053c-0.01-0.156-0.022-0.312-0.035-0.468
		c0.534-0.479,1.07-0.954,1.593-1.418l1.486-1.315l0.253-0.224c0.191,0.371,0.386,0.751,0.563,1.117
		c0.003,0.006,0.006,0.012,0.009,0.018c0.066,0.131,0.13,0.263,0.193,0.394c0.105,0.215,0.209,0.429,0.317,0.638
		c0.084,0.162,0.171,0.323,0.257,0.484c0.078,0.146,0.157,0.291,0.232,0.437l1.074,2.115l0.009,0.017
		c0.16,0.315,0.32,0.626,0.48,0.936c0.158,0.308,0.316,0.616,0.475,0.927c0.005,0.01,0.01,0.02,0.016,0.03
		c0.095,0.179,0.191,0.357,0.31,0.572c0.277,0.499,0.777,0.834,1.344,0.902c0.07,0.008,0.14,0.012,0.21,0.012
		c0.494,0,0.969-0.206,1.308-0.574c0.12-0.13,0.237-0.252,0.351-0.372c0.137-0.144,0.272-0.284,0.403-0.428
		c0.007-0.007,0.014-0.015,0.02-0.023c0.715-0.81,0.759-1.616,0.67-2.149c-0.052-0.302-0.115-0.589-0.2-0.915
		c-0.098-0.4-0.203-0.791-0.305-1.169l-0.063-0.233c-0.117-0.454-0.244-0.905-0.367-1.342c-0.148-0.568-0.294-1.13-0.44-1.682
		c-0.114-0.445-0.243-0.902-0.367-1.344c-0.169-0.629-0.337-1.27-0.506-1.911c-0.003-0.01-0.005-0.019-0.008-0.029l-0.304-1.08
		c-0.045-0.17-0.089-0.341-0.134-0.513c-0.013-0.051-0.026-0.102-0.04-0.154l0.136-0.136c0.875-0.887,1.76-1.771,2.637-2.637
		c0.418-0.418,0.883-0.923,1.236-1.571c0.431-0.76,0.711-1.569,0.83-2.406c0.018-0.132,0.029-0.252,0.041-0.375
		c0.006-0.069,0.013-0.14,0.022-0.213c0.063-0.535-0.12-1.069-0.497-1.453C33.052,5.69,32.595,5.5,32.12,5.5L32.12,5.5z"/>
</g>
</svg>
