<?xml version="1.0" encoding="utf-8"?>
<!-- Generator: Adobe Illustrator 21.1.0, SVG Export Plug-In . SVG Version: 6.00 Build 0)  -->
<svg version="1.1" id="Layer_1" xmlns="http://www.w3.org/2000/svg" xmlns:xlink="http://www.w3.org/1999/xlink" x="0px" y="0px"
	 width="29.875px" height="40.75px" viewBox="0 0 29.875 40.75" enable-background="new 0 0 29.875 40.75" xml:space="preserve">
<g>
	<path fill="#000066" d="M27.739,9.804c-0.021-0.454-0.395-0.572-0.849-0.572h-5.963c-0.395-2.954-1.207-5.793-2.874-7.468
		c-0.942-0.946-2.069-1.521-3.34-1.514c-1.279,0.015-2.406,0.711-3.349,1.679C9.729,3.608,8.918,6.277,8.515,9.232H3.023
		c-0.457,0-0.832,0.122-0.849,0.578L1.04,39.365c-0.009,0.231,0.077,0.606,0.237,0.773c0.16,0.166,0.381,0.411,0.612,0.411h26.346
		c0.232,0,0.454-0.306,0.614-0.473s0.245-0.379,0.235-0.611L27.739,9.804z M12.581,3.02c0.625-0.642,1.329-1.078,2.151-1.088
		c0.803-0.022,1.501,0.465,2.115,1.081c1.089,1.094,1.901,3.264,2.359,6.219h-8.967C10.626,6.868,11.334,4.3,12.581,3.02z
		 M2.772,38.777l1.068-27.772h4.455c-0.189,1.182-0.176,3.179-0.174,3.32c0.007,0.465,0.386,0.816,0.849,0.816
		c0.004,0,0.008,0,0.013,0c0.469,0,0.844-0.372,0.837-0.841c-0.011-0.757,0.032-2.114,0.184-3.295h9.421
		c0.188,1.182,0.169,3.023,0.169,3.04c-0.007,0.469,0.367,0.719,0.836,0.726c0.464,0.018,0.856-0.157,0.863-0.626
		c0.002-0.141,0.018-1.958-0.159-3.14h4.942l1.269,27.772H2.772z"/>
	<g>
		<path fill="#000066" d="M23.028,18.413c-0.018,0.154-0.027,0.299-0.045,0.434c-0.072,0.507-0.244,0.986-0.498,1.429
			c-0.19,0.353-0.461,0.651-0.742,0.932c-0.706,0.697-1.411,1.402-2.108,2.108c-0.181,0.181-0.362,0.362-0.543,0.543
			c-0.09,0.1-0.127,0.199-0.09,0.344c0.109,0.38,0.199,0.76,0.299,1.131c0.081,0.289,0.163,0.579,0.244,0.868
			c0.136,0.516,0.271,1.031,0.407,1.538c0.1,0.353,0.199,0.706,0.29,1.058c0.118,0.443,0.235,0.896,0.353,1.348
			c0.1,0.353,0.199,0.706,0.29,1.058c0.1,0.371,0.199,0.733,0.289,1.104c0.054,0.208,0.1,0.407,0.136,0.615
			c0.036,0.217-0.063,0.389-0.199,0.543c-0.19,0.208-0.389,0.407-0.597,0.633c-0.09-0.163-0.163-0.299-0.235-0.434
			c-0.253-0.498-0.507-0.986-0.76-1.484c-0.289-0.57-0.579-1.14-0.868-1.71c-0.127-0.244-0.262-0.489-0.389-0.733
			c-0.136-0.262-0.262-0.534-0.398-0.805c-0.154-0.317-0.317-0.633-0.479-0.95c-0.19-0.371-0.38-0.742-0.57-1.113
			c-0.094-0.189-0.189-0.278-0.321-0.278c-0.032,0-0.067,0.005-0.105,0.016c-0.072,0.018-0.145,0.072-0.208,0.127
			c-0.787,0.697-1.574,1.393-2.361,2.09c-0.561,0.498-1.122,0.995-1.683,1.502c-0.09,0.081-0.118,0.181-0.109,0.308
			c0.027,0.289,0.054,0.579,0.072,0.859c0.045,0.57,0.1,1.149,0.145,1.719c0.009,0.145,0.036,0.299,0.045,0.443
			c0.027,0.335-0.118,0.534-0.335,0.706c-0.199-0.552-0.398-1.077-0.588-1.601c-0.181-0.479-0.344-0.968-0.534-1.438
			c-0.154-0.371-0.443-0.615-0.823-0.751c-0.335-0.118-0.669-0.244-1.004-0.362c-0.262-0.1-0.525-0.19-0.787-0.29
			c-0.28-0.1-0.552-0.199-0.832-0.299c-0.09-0.036-0.19-0.072-0.289-0.109c0.1-0.136,0.217-0.244,0.371-0.308
			c0.086-0.041,0.174-0.052,0.263-0.052c0.089,0,0.18,0.011,0.27,0.016c0.425,0.036,0.841,0.072,1.267,0.109
			c0.461,0.036,0.923,0.072,1.384,0.127c0.035,0.004,0.068,0.007,0.1,0.007c0.166,0,0.294-0.061,0.416-0.206
			c0.651-0.751,1.33-1.493,1.99-2.235c0.525-0.588,1.04-1.167,1.556-1.755c0.154-0.172,0.127-0.425-0.09-0.534
			c-0.38-0.19-0.751-0.38-1.131-0.579c-0.362-0.19-0.724-0.371-1.095-0.561c-0.299-0.154-0.588-0.299-0.887-0.452
			c-0.38-0.199-0.769-0.389-1.149-0.588c-0.362-0.19-0.733-0.371-1.095-0.561c-0.443-0.226-0.896-0.452-1.339-0.688
			c-0.199-0.1-0.389-0.199-0.606-0.308c0.063-0.063,0.127-0.127,0.19-0.19c0.172-0.163,0.344-0.317,0.516-0.479
			c0.135-0.124,0.285-0.171,0.442-0.171c0.095,0,0.192,0.017,0.291,0.044c0.308,0.072,0.606,0.163,0.914,0.253
			c0.525,0.145,1.049,0.29,1.583,0.434c0.561,0.154,1.122,0.308,1.683,0.452c0.561,0.154,1.122,0.308,1.683,0.452
			c0.434,0.118,0.868,0.226,1.303,0.344c0.443,0.118,0.896,0.244,1.339,0.362c0.021,0.005,0.042,0.008,0.063,0.008
			c0.084,0,0.159-0.042,0.217-0.107c0.479-0.47,0.95-0.95,1.429-1.42c0.525-0.516,1.031-1.049,1.574-1.547
			c0.389-0.362,0.859-0.624,1.375-0.769c0.28-0.081,0.579-0.127,0.868-0.181C22.865,18.413,22.938,18.422,23.028,18.413
			 M23.028,16.997c-0.04,0-0.08,0.002-0.12,0.005l-0.012,0c-0.078,0.002-0.216,0.005-0.385,0.041l-0.154,0.028
			c-0.251,0.045-0.535,0.096-0.827,0.181c-0.718,0.201-1.395,0.58-1.945,1.092c-0.378,0.347-0.742,0.712-1.093,1.066
			c-0.169,0.17-0.338,0.34-0.509,0.508c-0.242,0.238-0.483,0.478-0.723,0.719c-0.09,0.09-0.18,0.18-0.27,0.27
			c-0.007-0.002-0.014-0.004-0.021-0.006c-0.227-0.062-0.454-0.124-0.678-0.183c-0.214-0.058-0.436-0.116-0.657-0.173
			c-0.213-0.055-0.426-0.111-0.638-0.168c-0.005-0.001-0.011-0.003-0.016-0.004c-0.55-0.142-1.114-0.297-1.66-0.446
			c-0.007-0.002-0.016-0.004-0.023-0.006c-0.55-0.142-1.115-0.297-1.661-0.447c-0.533-0.144-1.052-0.288-1.57-0.431l-0.092-0.027
			c-0.275-0.081-0.56-0.165-0.862-0.237c-0.221-0.059-0.431-0.087-0.638-0.087c-0.528,0-1.011,0.188-1.399,0.543
			c-0.006,0.005-0.011,0.011-0.017,0.016c-0.081,0.077-0.162,0.151-0.243,0.226c-0.091,0.084-0.182,0.167-0.272,0.253
			c-0.009,0.009-0.018,0.018-0.027,0.027l-0.038,0.038l-0.152,0.152c-0.322,0.322-0.469,0.779-0.396,1.228
			c0.073,0.449,0.357,0.836,0.765,1.04c0.107,0.053,0.207,0.105,0.305,0.155c0.096,0.049,0.19,0.097,0.286,0.145
			c0.338,0.179,0.679,0.352,1.01,0.52L8.618,23.2c0.184,0.097,0.371,0.191,0.557,0.285c0.177,0.09,0.354,0.179,0.529,0.271
			c0.197,0.103,0.395,0.204,0.594,0.304c0.186,0.094,0.373,0.188,0.557,0.285c0.16,0.083,0.31,0.159,0.459,0.234
			c0.145,0.073,0.289,0.147,0.436,0.222l0.372,0.189c0.208,0.106,0.415,0.211,0.621,0.318c-0.217,0.245-0.432,0.485-0.641,0.719
			c-0.224,0.251-0.448,0.501-0.673,0.752c-0.344,0.383-0.697,0.776-1.045,1.172c-0.342-0.034-0.677-0.06-1.004-0.085l-0.625-0.054
			l-0.632-0.054c-0.016-0.001-0.033-0.003-0.049-0.003c-0.021-0.001-0.042-0.003-0.062-0.004c-0.071-0.006-0.168-0.013-0.279-0.013
			c-0.304,0-0.577,0.056-0.835,0.172c-0.368,0.159-0.685,0.416-0.942,0.766c-0.264,0.36-0.343,0.822-0.213,1.249
			c0.129,0.427,0.452,0.767,0.871,0.92c0.085,0.031,0.17,0.062,0.248,0.093c0.017,0.007,0.035,0.014,0.052,0.02
			c0.138,0.049,0.273,0.098,0.409,0.147c0.136,0.049,0.271,0.098,0.409,0.147c0.133,0.05,0.266,0.099,0.399,0.147
			c0.124,0.045,0.249,0.09,0.373,0.137c0.011,0.004,0.022,0.008,0.033,0.012c0.162,0.057,0.324,0.116,0.486,0.175
			c0.173,0.063,0.345,0.126,0.518,0.187c0.001,0,0.001,0,0.002,0.001c0.095,0.239,0.188,0.498,0.287,0.771
			c0.069,0.191,0.138,0.382,0.209,0.572c0.09,0.249,0.182,0.498,0.276,0.75c0.102,0.276,0.205,0.555,0.309,0.841
			c0.155,0.429,0.506,0.757,0.944,0.882c0.128,0.036,0.258,0.054,0.388,0.054c0.315,0,0.626-0.105,0.879-0.306
			c0.788-0.624,0.909-1.384,0.868-1.917c-0.006-0.095-0.017-0.194-0.029-0.292c-0.006-0.047-0.012-0.094-0.015-0.14
			c-0.001-0.008-0.001-0.016-0.002-0.024c-0.023-0.288-0.048-0.579-0.073-0.87c-0.024-0.28-0.049-0.561-0.071-0.839
			c-0.008-0.124-0.018-0.249-0.028-0.373c0.426-0.382,0.853-0.761,1.27-1.13l1.184-1.048l0.201-0.178
			c0.152,0.296,0.307,0.598,0.449,0.89c0.002,0.005,0.005,0.01,0.007,0.015c0.052,0.105,0.103,0.209,0.154,0.314
			c0.084,0.172,0.167,0.342,0.253,0.509c0.067,0.129,0.136,0.258,0.205,0.386c0.062,0.116,0.125,0.232,0.185,0.348l0.856,1.686
			l0.007,0.013c0.128,0.251,0.255,0.499,0.382,0.746c0.126,0.245,0.252,0.491,0.378,0.738c0.004,0.008,0.008,0.016,0.013,0.024
			c0.076,0.142,0.152,0.285,0.247,0.456c0.221,0.398,0.619,0.665,1.071,0.719c0.056,0.007,0.112,0.01,0.167,0.01
			c0.394,0,0.772-0.164,1.042-0.457c0.095-0.104,0.189-0.201,0.28-0.296c0.11-0.115,0.216-0.226,0.321-0.341
			c0.005-0.006,0.011-0.012,0.016-0.018c0.57-0.646,0.605-1.288,0.534-1.713c-0.042-0.24-0.092-0.469-0.159-0.729
			c-0.078-0.319-0.162-0.63-0.243-0.931l-0.05-0.186c-0.093-0.362-0.194-0.721-0.292-1.069c-0.118-0.453-0.234-0.901-0.351-1.34
			c-0.091-0.355-0.194-0.719-0.293-1.071c-0.134-0.502-0.269-1.012-0.403-1.523c-0.002-0.008-0.004-0.015-0.006-0.023l-0.242-0.86
			c-0.036-0.135-0.071-0.272-0.106-0.409c-0.01-0.041-0.021-0.082-0.032-0.123l0.108-0.108c0.698-0.707,1.402-1.411,2.101-2.101
			c0.333-0.333,0.704-0.736,0.985-1.252c0.344-0.606,0.566-1.251,0.662-1.917c0.014-0.105,0.023-0.2,0.033-0.299
			c0.005-0.055,0.01-0.112,0.017-0.17c0.05-0.426-0.096-0.852-0.396-1.158C23.771,17.148,23.406,16.997,23.028,16.997L23.028,16.997
			z"/>
	</g>
</g>
</svg>
