<?xml version="1.0" encoding="utf-8"?>
<!-- Generator: Adobe Illustrator 21.1.0, SVG Export Plug-In . SVG Version: 6.00 Build 0)  -->
<svg version="1.1" id="Layer_1" xmlns="http://www.w3.org/2000/svg" xmlns:xlink="http://www.w3.org/1999/xlink" x="0px" y="0px"
	 width="52px" height="47.062px" viewBox="0 0 52 47.062" enable-background="new 0 0 52 47.062" xml:space="preserve">
<g>
	<path fill="#000066" d="M49.053,44.206h-2.218V21.237c0-0.565-0.286-1.164-0.851-1.164H38.54v-7.36
		c0-0.565-0.174-0.935-0.739-0.935H14.616c-0.565,0-0.963,0.37-0.963,0.935v7.36H6.091c-0.565,0-0.734,0.599-0.734,1.164v22.969
		H3.364c-0.565,0-1.023,0.566-1.023,1.131c0,0.565,0.458,1.131,1.023,1.131h18.753c0.565,0,1.34-0.458,1.34-1.023v-5.01h5.279v5.01
		c0,0.565,0.317,1.023,0.882,1.023h19.435c0.565,0,1.023-0.566,1.023-1.131C50.076,44.772,49.618,44.206,49.053,44.206z
		 M45.327,22.335v21.87H38.54v-21.87H45.327z M6.866,22.335h6.787v21.87H6.866V22.335z M29.618,38.173h-7.501
		c-0.565,0-0.922,0.57-0.922,1.135v4.898h-5.279V14.04h21.116v30.166h-6.033v-4.898C30.999,38.743,30.183,38.173,29.618,38.173z"/>
	<path fill="#000066" d="M19.686,17.827c-0.565,0-0.754,0.458-0.754,1.023v1.364c0,0.565,0.189,1.023,0.754,1.023
		s0.754-0.458,0.754-1.023V18.85C20.44,18.285,20.251,17.827,19.686,17.827z"/>
	<path fill="#000066" d="M26.097,17.827c-0.565,0-1.131,0.458-1.131,1.023v1.364c0,0.565,0.566,1.023,1.131,1.023
		s1.131-0.458,1.131-1.023V18.85C27.228,18.285,26.662,17.827,26.097,17.827z"/>
	<path fill="#000066" d="M32.13,21.237c0.565,0,1.131-0.458,1.131-1.023V18.85c0-0.565-0.566-1.023-1.131-1.023
		c-0.565,0-1.131,0.458-1.131,1.023v1.364C30.999,20.779,31.565,21.237,32.13,21.237z"/>
	<path fill="#000066" d="M19.686,24.305c-0.565,0-0.754,0.458-0.754,1.023v1.364c0,0.565,0.189,1.023,0.754,1.023
		s0.754-0.458,0.754-1.023v-1.364C20.44,24.763,20.251,24.305,19.686,24.305z"/>
	<path fill="#000066" d="M26.097,24.305c-0.565,0-1.131,0.458-1.131,1.023v1.364c0,0.565,0.566,1.023,1.131,1.023
		s1.131-0.458,1.131-1.023v-1.364C27.228,24.763,26.662,24.305,26.097,24.305z"/>
	<path fill="#000066" d="M32.13,27.715c0.565,0,1.131-0.458,1.131-1.023v-1.364c0-0.565-0.566-1.023-1.131-1.023
		c-0.565,0-1.131,0.458-1.131,1.023v1.364C30.999,27.257,31.565,27.715,32.13,27.715z"/>
	<path fill="#000066" d="M19.686,31.466c-0.565,0-0.754,0.458-0.754,1.023v1.364c0,0.565,0.189,1.023,0.754,1.023
		s0.754-0.458,0.754-1.023v-1.364C20.44,31.924,20.251,31.466,19.686,31.466z"/>
	<path fill="#000066" d="M10.259,24.305c-0.565,0-1.131,0.458-1.131,1.023v1.364c0,0.565,0.566,1.023,1.131,1.023
		c0.565,0,1.131-0.458,1.131-1.023v-1.364C11.391,24.763,10.824,24.305,10.259,24.305z"/>
	<path fill="#000066" d="M10.259,31.466c-0.565,0-1.131,0.458-1.131,1.023v1.364c0,0.565,0.566,1.023,1.131,1.023
		c0.565,0,1.131-0.458,1.131-1.023v-1.364C11.391,31.924,10.824,31.466,10.259,31.466z"/>
	<path fill="#000066" d="M41.557,27.715c0.565,0,0.754-0.458,0.754-1.023v-1.364c0-0.565-0.189-1.023-0.754-1.023
		c-0.565,0-0.754,0.458-0.754,1.023v1.364C40.803,27.257,40.992,27.715,41.557,27.715z"/>
	<path fill="#000066" d="M41.557,34.875c0.565,0,0.754-0.458,0.754-1.023v-1.364c0-0.565-0.189-1.023-0.754-1.023
		c-0.565,0-0.754,0.458-0.754,1.023v1.364C40.803,34.417,40.992,34.875,41.557,34.875z"/>
	<path fill="#000066" d="M26.097,31.466c-0.565,0-1.131,0.458-1.131,1.023v1.364c0,0.565,0.566,1.023,1.131,1.023
		s1.131-0.458,1.131-1.023v-1.364C27.228,31.924,26.662,31.466,26.097,31.466z"/>
	<path fill="#000066" d="M32.13,34.875c0.565,0,1.131-0.458,1.131-1.023v-1.364c0-0.565-0.566-1.023-1.131-1.023
		c-0.565,0-1.131,0.458-1.131,1.023v1.364C30.999,34.417,31.565,34.875,32.13,34.875z"/>
	<path fill="#000066" d="M12.21,6.363l-0.39,2.272c-0.044,0.256,0.061,0.514,0.271,0.667c0.119,0.086,0.26,0.13,0.401,0.13
		c0.109,0,0.218-0.026,0.317-0.078l2.04-1.073l2.04,1.073c0.229,0.121,0.508,0.101,0.718-0.052c0.21-0.153,0.315-0.411,0.271-0.667
		l-0.39-2.272l1.651-1.609c0.186-0.181,0.253-0.452,0.173-0.699c-0.08-0.247-0.294-0.427-0.551-0.464L16.481,3.26l-1.02-2.067
		c-0.115-0.233-0.352-0.38-0.612-0.38c-0.26,0-0.497,0.147-0.612,0.38l-1.02,2.067l-2.281,0.331c-0.257,0.037-0.47,0.217-0.55,0.464
		c-0.08,0.247-0.013,0.518,0.172,0.699L12.21,6.363z M13.769,4.558c0.222-0.032,0.414-0.172,0.513-0.373l0.567-1.15l0.567,1.15
		c0.099,0.201,0.291,0.341,0.513,0.373l1.269,0.184l-0.918,0.895c-0.161,0.157-0.234,0.382-0.196,0.604l0.217,1.263l-1.135-0.596
		c-0.199-0.105-0.436-0.105-0.635,0l-1.135,0.597l0.217-1.263c0.038-0.221-0.035-0.447-0.196-0.604l-0.918-0.895L13.769,4.558z"/>
	<path fill="#000066" d="M23.632,6.363l-0.39,2.272c-0.044,0.256,0.061,0.514,0.271,0.667c0.119,0.086,0.26,0.13,0.401,0.13
		c0.109,0,0.218-0.026,0.317-0.078l2.04-1.073l2.04,1.073c0.229,0.121,0.508,0.101,0.718-0.052c0.21-0.153,0.315-0.411,0.271-0.667
		l-0.39-2.272l1.651-1.609c0.186-0.181,0.253-0.452,0.173-0.699c-0.08-0.247-0.294-0.427-0.551-0.464L27.904,3.26l-1.02-2.067
		c-0.115-0.233-0.352-0.38-0.612-0.38s-0.497,0.147-0.612,0.38l-1.02,2.067L22.36,3.591c-0.257,0.037-0.47,0.217-0.55,0.464
		c-0.08,0.247-0.013,0.518,0.172,0.699L23.632,6.363z M25.191,4.558c0.222-0.032,0.414-0.172,0.513-0.373l0.567-1.15l0.567,1.15
		c0.099,0.201,0.291,0.341,0.513,0.373l1.269,0.184l-0.918,0.895c-0.161,0.157-0.234,0.382-0.196,0.604l0.217,1.263L26.59,6.907
		c-0.199-0.105-0.436-0.105-0.635,0L24.82,7.504l0.217-1.263c0.038-0.221-0.035-0.447-0.196-0.604l-0.918-0.895L25.191,4.558z"/>
	<path fill="#000066" d="M35.055,6.363l-0.39,2.272c-0.044,0.256,0.061,0.514,0.271,0.667c0.119,0.086,0.26,0.13,0.401,0.13
		c0.109,0,0.218-0.026,0.317-0.078l2.04-1.073l2.04,1.073c0.229,0.121,0.508,0.101,0.718-0.052c0.21-0.153,0.315-0.411,0.271-0.667
		l-0.39-2.272l1.651-1.609c0.186-0.181,0.253-0.452,0.173-0.699c-0.08-0.247-0.294-0.427-0.551-0.464L39.326,3.26l-1.02-2.067
		c-0.115-0.233-0.352-0.38-0.612-0.38s-0.497,0.147-0.612,0.38l-1.02,2.067l-2.281,0.331c-0.257,0.037-0.47,0.217-0.55,0.464
		c-0.08,0.247-0.013,0.518,0.172,0.699L35.055,6.363z M36.614,4.558c0.222-0.032,0.414-0.172,0.513-0.373l0.567-1.15l0.567,1.15
		c0.099,0.201,0.291,0.341,0.513,0.373l1.269,0.184l-0.918,0.895c-0.161,0.157-0.234,0.382-0.196,0.604l0.217,1.263l-1.135-0.596
		c-0.199-0.105-0.436-0.105-0.635,0l-1.135,0.597l0.217-1.263c0.038-0.221-0.035-0.447-0.196-0.604l-0.918-0.895L36.614,4.558z"/>
</g>
</svg>
