<?xml version="1.0" encoding="utf-8"?>
<!-- Generator: Adobe Illustrator 21.1.0, SVG Export Plug-In . SVG Version: 6.00 Build 0)  -->
<svg version="1.1" id="Layer_1" xmlns="http://www.w3.org/2000/svg" xmlns:xlink="http://www.w3.org/1999/xlink" x="0px" y="0px"
	 width="44.208px" height="39.895px" viewBox="0 0 44.208 39.895" enable-background="new 0 0 44.208 39.895" xml:space="preserve">
<g>
	<path fill="#000066" d="M10.637,25.237H5.153c-0.61,0-1.108,0.497-1.108,1.108v3.585c0,0.61,0.497,1.108,1.108,1.108h5.483
		c0.61,0,1.108-0.497,1.108-1.108v-3.585C11.743,25.733,11.246,25.237,10.637,25.237z M10.795,29.929
		c0,0.087-0.071,0.158-0.158,0.158H5.153c-0.087,0-0.158-0.071-0.158-0.158v-3.585c0-0.087,0.071-0.158,0.158-0.158h5.483
		c0.087,0,0.158,0.071,0.158,0.158L10.795,29.929L10.795,29.929z"/>
	<path fill="#000066" d="M39.213,0.201H13.168c-2.616,0-4.471,2.672-4.471,5.289v7.399H5.153c-2.616,0-4.915,1.796-4.915,4.412
		v17.083c0,2.616,2.299,5.289,4.915,5.289H31.2c2.616,0,4.985-2.672,4.985-5.289v-7.399h3.029c2.616,0,4.724-1.796,4.724-4.412
		V10.762V5.489V5.135C43.723,3.02,41.688,0.201,39.213,0.201z M34.071,34.382c0,1.57-1.301,3.174-2.871,3.174H5.153
		c-1.57,0-2.801-1.605-2.801-3.174V17.3c0-1.57,1.231-3.002,2.801-3.002h3.543h2.115H31.2c1.57,0,2.871,1.432,2.871,3.002v8.275
		v1.41V34.382z M41.823,22.573c0,1.57-1.04,3.002-2.609,3.002h-3.029V17.3c0-2.616-2.368-4.412-4.985-4.412h-20.39v-2.115h31.013
		V22.573z M10.355,5.135c0.204-1.41,1.385-2.115,2.813-2.115h26.047c1.426,0,2.607,0.704,2.813,2.115H10.355z"/>
</g>
</svg>
