<?xml version="1.0" encoding="utf-8"?>
<!-- Generator: Adobe Illustrator 21.0.2, SVG Export Plug-In . SVG Version: 6.00 Build 0)  -->
<svg version="1.1" id="Layer_1" xmlns="http://www.w3.org/2000/svg" xmlns:xlink="http://www.w3.org/1999/xlink" x="0px" y="0px"
	 viewBox="0 0 352.5 91" style="enable-background:new 0 0 352.5 91;" xml:space="preserve">
<path d="M215.6,26.8c-5.5,0-9.8,1.5-14.4,3.7c0-12.9,0.2-24.1,0.5-28.4l-26.5,5.1v2.4l2.6,0.3c3.7,0.5,5.1,2.7,5.6,7.6
	c0.8,9.5,0.7,60.2,0,68.3c7.1,1.6,14.9,2.8,22.6,2.8c21,0,33.7-13,33.7-33.6C239.6,38.6,229.4,26.8,215.6,26.8z M206.4,84.5
	c-1.5,0-3.4-0.2-4.5-0.4c-0.4-5.7-0.7-29.2-0.6-49.7c2.4-0.8,4.1-1,6.2-1c8.7,0,13.6,10.1,13.6,22.7C221,72.3,215,84.5,206.4,84.5z"
	/>
<path d="M75.2,4H5.5v3.4l3.7,0.5c5.3,0.8,7.4,4.1,8,11.6c1.2,14.4,1,40.1,0,52.5c-0.6,7.5-2.7,10.8-8,11.6l-3.7,0.5v3.4h44.8v-3.4
	l-4.7-0.5c-5.3-0.8-7.4-4.1-8-11.6c-0.4-5.1-0.7-13.7-0.8-23.8l9.2,0.3c6.2,0.2,8.7,4.8,10.2,11.5h3.5V31.7h-3.5
	C54.8,38.4,52.2,43,46,43.2l-9.3,0.3C36.7,30.2,37,17.4,37.6,9.7h13.8c10.7,0,16.5,6.8,20.1,18.9l4.1-1.1L75.2,4z"/>
<path d="M97.9,26.1c19.8,0,29.7,13.4,29.7,31.1c0,17.3-11.1,31.5-30.9,31.5c-19.8,0-29.7-13.4-29.7-31.1
	C66.9,40.3,78,26.1,97.9,26.1z M96.8,30c-8.8,0-11.2,11.8-11.2,27.5c0,15.2,3.9,27.5,12,27.5c8.8,0,11.2-11.8,11.2-27.5
	C108.8,42.2,104.9,30,96.8,30z"/>
<path d="M244.5,58c0-16.4,10.3-31.8,30.8-31.8c16.6,0,24.5,12.3,24.6,28.4h-37.1c-0.4,14.6,7,25.4,21.2,25.4c6.2,0,9.6-1.5,13.4-4.4
	l1.7,2.1c-4.1,5.7-12.7,11.1-24.1,11.1C257.1,88.7,244.5,76.1,244.5,58z M263,50.4l18.6-0.4c0.1-8.2-1.2-20-7.9-20
	C266.9,30,263.1,41.2,263,50.4z"/>
<path d="M346.8,29.3c-4.4-2-11-3.2-17.9-3.2C314,26.1,305,34.8,305,45c0,10.5,6.8,14.6,16.2,18c10.1,3.6,12.8,6.4,12.8,11.1
	c0,4.8-3.5,9.3-9.9,9.3c-7.5,0-13.1-4.4-17.5-16.5l-3,0.8l0.5,17.3c4.9,2,13.4,3.7,20.9,3.7c15.8,0,25.4-7.7,25.4-20.2
	c0-8.4-4.1-13-14.4-17c-11.2-4.3-15.1-7.1-15.1-12.2c0-5.2,3.5-8.8,8.2-8.8c7.2,0,12.1,4.5,15.3,14.9l3-0.8L346.8,29.3z"/>
<path d="M179.2,27.8c-6.7-4-18.9-2.1-25,12.1l0.3-13.8L128,31.2v2.4l2.6,0.3c3.7,0.5,5.1,2.7,5.6,7.6c0.8,9.4,0.7,26.3,0,34.5
	c-0.4,4.9-1.9,7.1-5.6,7.6l-2.6,0.3v3.4h36.8v-3.4l-4.8-0.3c-3.7-0.5-5.1-2.7-5.6-7.6c-0.7-7.5-0.8-22.3-0.2-32
	c1.8-2.9,10.4-5.3,18.4,0.1L179.2,27.8z"/>
</svg>
