<?xml version="1.0" encoding="UTF-8" standalone="no"?>
<!-- Generator: Adobe Illustrator 14.0.0, SVG Export Plug-In . SVG Version: 6.00 Build 43363)  -->

<svg
   xmlns:dc="http://purl.org/dc/elements/1.1/"
   xmlns:cc="http://creativecommons.org/ns#"
   xmlns:rdf="http://www.w3.org/1999/02/22-rdf-syntax-ns#"
   xmlns:svg="http://www.w3.org/2000/svg"
   xmlns="http://www.w3.org/2000/svg"
   xmlns:xlink="http://www.w3.org/1999/xlink"
   xmlns:sodipodi="http://sodipodi.sourceforge.net/DTD/sodipodi-0.dtd"
   xmlns:inkscape="http://www.inkscape.org/namespaces/inkscape"
   version="1.1"
   id="Layer_1"
   x="0px"
   y="0px"
   width="691"
   height="118"
   viewBox="0 0 691.00001 118"
   enable-background="new 0 0 1708.72 792"
   xml:space="preserve">


<path
   style="fill:#11155e"
   d="M 118.00396,59.11836 C 118.00396,91.802148 91.694672,118 58.890526,118 26.438538,118 -2.56187e-5,91.686248 -2.56187e-5,59.23426 -2.56187e-5,26.077957 26.438538,4.659176e-4 59.946999,4.659176e-4 91.810572,4.659176e-4 118.00396,26.786729 118.00396,59.11836 m -111.8612878,0 c 0,29.144382 23.5990148,52.7434 52.7478538,52.7434 29.255824,0 52.979654,-23.478661 52.979654,-52.6275 0,-29.732797 -23.362757,-53.1000117 -53.336269,-53.1000117 -28.671867,0 -52.3912388,23.9556297 -52.3912388,52.9841117 z M 46.025631,56.755784 45.321316,58.17333 C 42.606582,57.584914 37.645172,55.694854 32.45642,53.336735 l -0.708772,1.297188 2.126318,1.181288 c 7.555786,3.891564 10.034262,4.716237 14.393883,4.716237 8.732616,0 15.338914,-4.956952 18.410263,-13.685111 5.429467,-1.06093 12.387922,-1.533445 20.652481,-1.533445 7.078813,0 13.217057,0.352157 21.120537,1.29273 l -2.0015,2.478476 c -3.65977,-0.472515 -10.386421,-0.940573 -15.223015,-0.940573 -5.786083,0 -9.441389,0.120358 -11.326993,0.236258 l -0.94503,2.121861 c 4.836594,-0.236258 6.606298,-0.236258 10.377504,-0.236258 6.374498,0 11.447354,0.236258 15.575174,0.588415 l -2.00151,2.598834 c -7.435424,-0.236258 -10.85893,-0.352157 -16.404298,-0.352157 -3.066891,0 -5.304652,0.115899 -8.973331,0.236257 l -0.940573,2.121861 c 3.182791,-0.236258 7.551328,-0.352158 12.156123,-0.352158 4.368537,0 9.561746,0.1159 12.624179,0.236258 l -1.997045,2.594376 c -2.135233,-0.120358 -6.25414,-0.120358 -9.445846,-0.120358 -5.072852,0 -11.442892,0.240716 -14.750499,0.708773 l -0.94503,1.890061 c 6.013425,-0.588415 9.793546,-0.824673 16.399844,-0.824673 2.603291,0 4.248179,0 7.19917,0.236258 l -2.242218,2.714733 c -4.007464,-0.236257 -5.304652,-0.236257 -6.842555,-0.236257 -11.21555,0 -18.521705,1.649345 -25.845691,5.777167 6.726655,6.731113 17.937748,11.326992 27.967552,11.326992 0.82913,0 1.297188,0 3.419048,-0.111442 l -4.836594,4.832136 C 62.786548,77.16755 58.061396,75.281946 33.637708,60.772163 23.960062,55.222338 16.052119,51.446674 9.6820786,49.561071 l 0.8246724,-2.955449 c 1.537904,0.240715 4.841052,1.185746 7.907944,2.246676 l 1.40863,-3.187249 26.202306,11.090735 z"
   id="path17" /><path
   style="fill:#11155e"
   d="m 216.38965,19.707917 v 63.125358 h 33.27667 V 98.412904 H 196.68666 V 19.707917 h 19.70299 m 74.46127,78.704987 -0.58842,-5.545368 c -4.60033,4.832137 -9.798,7.078813 -16.28394,7.078813 -8.0283,0 -14.5187,-3.307606 -17.81739,-8.968874 -2.48739,-4.248179 -2.83509,-6.37004 -2.83509,-15.695529 V 41.769028 h 18.52616 v 32.804146 c 0,8.260101 2.35812,11.683607 8.13974,11.683607 6.13825,0 9.20068,-4.011922 9.20068,-11.683607 V 41.769028 h 18.52616 v 56.643876 h -16.8679 z m 58.88164,-66.196707 h -3.0669 c -6.83809,0 -8.61671,1.649345 -8.61671,7.903485 v 1.649346 h 10.97929 v 12.50828 H 338.04895 V 98.412904 H 319.52724 V 54.277308 h -8.02384 v -12.50828 h 8.02384 v -1.649346 c 0,-14.866398 5.54983,-20.411765 20.05961,-20.411765 h 10.14571 v 12.50828 z m 28.44006,-8.144201 v 17.697032 h 10.49786 v 12.50828 h -10.49786 v 22.417726 c 0.11144,8.264559 0.58396,8.737074 7.66723,8.737074 h 3.65976 v 12.980796 h -13.92582 c -10.97484,0 -15.93179,-5.07731 -15.93179,-16.636102 V 54.277308 h -7.78758 V 41.769028 H 359.642 V 24.071996 h 18.53062 z m 33.97652,-4.364079 v 28.435608 c 3.42797,-5.545367 8.26456,-8.023843 15.46819,-8.023843 7.78313,0 14.03727,3.303149 17.46523,9.321031 2.47402,4.368537 2.82618,6.726656 2.82618,16.168045 V 98.412904 H 429.49847 V 66.313073 c 0,-8.139743 -2.47402,-11.799508 -8.13974,-11.799508 -6.12932,0 -9.20513,4.011922 -9.20513,11.799508 V 98.412904 H 393.63635 V 19.707917 h 18.51279 z m 43.672,40.119216 c 0,-12.864896 10.02089,-20.416224 26.7818,-20.416224 17.58113,0 26.31375,7.319529 26.31375,22.185927 V 90.50496 c 0,4.952495 0,4.952495 1.53345,7.907944 h -17.11308 l -1.06539,-4.720695 c -5.89752,5.188752 -10.97483,7.078811 -18.39689,7.078811 -12.51273,0 -21.60196,-7.435426 -21.60196,-17.69703 0,-8.500816 5.54536,-14.518699 16.39984,-17.58559 1.6538,-0.468058 7.08327,-1.533446 16.4043,-3.303149 4.01192,-0.824673 5.54983,-2.121861 5.54983,-4.836594 0,-3.187249 -3.30761,-5.313568 -8.26456,-5.313568 -6.01789,0 -9.55729,2.835092 -9.67319,7.792044 h -16.8679 z m 35.26479,11.442892 c -2.3492,0.708773 -3.05798,0.94503 -4.9525,1.533445 -2.22884,0.592873 -4.23926,1.065389 -6.71328,1.537904 -6.0268,1.533445 -8.97779,3.891564 -8.97779,7.551328 0,3.655306 2.83955,5.781625 7.43543,5.781625 8.96442,0 13.20814,-4.01638 13.20814,-12.392381 v -4.011921 z m 41.19352,-29.500997 0.59287,6.374497 c 4.36408,-5.545367 9.56175,-8.023843 16.40876,-8.023843 7.89903,0 14.26907,3.423507 17.57222,9.321031 2.35812,4.368537 2.83509,6.842556 2.83509,16.168045 V 98.412904 H 551.16223 V 66.313073 c 0,-8.376001 -2.35367,-11.799508 -8.13975,-11.799508 -6.01788,0 -9.08477,4.011922 -9.08477,11.799508 V 98.412904 H 515.41155 V 41.769028 h 16.8679 z m 78.12103,17.70149 c -0.47252,-5.30911 -2.71919,-7.315071 -8.38492,-7.315071 -4.60034,0 -7.43988,1.774161 -7.43988,4.720695 0,2.714733 2.71473,4.364079 8.85297,5.309109 l 6.37895,1.176831 c 13.4444,2.246676 19.703,7.907943 19.703,17.705947 0,12.035765 -10.26606,19.702991 -26.31375,19.702991 -18.99868,0 -29.3851,-7.551326 -29.3851,-21.240894 h 18.05365 v 0.708773 c 0,4.720694 3.89156,7.671685 10.15016,7.671685 5.42947,0 8.73707,-2.005961 8.73707,-5.193209 0,-3.307607 -3.07134,-5.188752 -10.27943,-6.490398 l -5.89752,-0.945031 c -13.4444,-2.358118 -19.22602,-7.19917 -19.22602,-16.163586 0,-12.272023 10.26606,-19.707451 27.13842,-19.707451 11.80396,0 19.11457,3.187249 22.89024,10.029804 1.6538,2.830634 1.89452,3.775664 2.36257,10.029805 h -17.34041 z m 25.83677,0.356615 c 0.12036,-12.744538 10.15016,-20.416224 27.02252,-20.416224 17.58559,0 26.19785,7.319529 26.19785,22.185927 V 90.50496 c 0,4.841052 0,4.841052 1.54236,7.907944 h -17.23343 l -0.94503,-4.720695 c -6.84256,5.549825 -10.85893,7.078811 -18.41026,7.078811 -12.61972,0 -21.70896,-7.435426 -21.70896,-17.69703 0,-8.500816 5.54983,-14.518699 16.39985,-17.58559 1.6538,-0.468058 7.08327,-1.653803 16.40876,-3.303149 3.89156,-0.824673 5.54536,-2.121861 5.54536,-4.836594 0,-3.187249 -3.3076,-5.313568 -8.14865,-5.313568 -6.01343,0 -9.66428,2.950992 -9.66428,7.792044 h -17.00609 z m 35.40298,11.442892 c -2.36257,0.708773 -3.19616,0.94503 -5.08622,1.533445 -1.99259,0.356616 -4.24818,0.829131 -6.7222,1.537904 -6.01343,1.533445 -8.96442,3.891564 -8.96442,7.551328 0,3.655306 2.83509,5.781625 7.55133,5.781625 8.96442,0 13.21705,-4.01638 13.21705,-12.392381 v -4.011921 z"
   id="path19" />

</svg>