<?xml version="1.0" encoding="UTF-8" standalone="no"?>
<svg width="458px" height="106px" viewBox="0 0 458 106" version="1.1" xmlns="http://www.w3.org/2000/svg" xmlns:xlink="http://www.w3.org/1999/xlink">
    <!-- Generator: Sketch 47 (45396) - http://www.bohemiancoding.com/sketch -->
    <title>miles_and_more_logo</title>
    <desc>Created with Sketch.</desc>
    <defs></defs>
    <g id="Page-1" stroke="none" stroke-width="1" fill="none" fill-rule="evenodd">
        <g id="miles_and_more_logo" fill-rule="nonzero" fill="#0C2058">
            <path d="M127.6,16.1 C114.2,16.1 105.6,24.6 105.6,38 C105.6,51.1 114,59.6 127.7,59.6 C138,59.6 145.7,54.8 147.8,45.8 L135.2,45.8 C133.9,48.9 131.2,50.6 127.6,50.6 C122.5,50.6 119.2,47.2 119.1,41.3 L148.4,41.3 C149.2,25.3 141.5,16.1 127.6,16.1 Z M119.2,33.3 C120.1,27.7 123,25.3 127.3,25.3 C131.9,25.3 134.6,28 134.9,33.3 L119.2,33.3 Z M32.5,37.3 L32.3,37.3 L22.6,1.8 L0.7,1.8 L0.7,58.6 L14.6,58.6 L14.6,20 L14.8,20 L26.8,58.6 L38.1,58.6 L50,20 L50.2,20 L50.2,58.6 L64,58.6 L64,1.7 L42.3,1.7 L32.5,37.3 Z M69.5,58.5 L83,58.5 L83,17.3 L69.5,17.3 L69.5,58.5 L69.5,58.5 Z M88.3,58.5 L101.8,58.5 L101.8,1.7 L88.3,1.7 L88.3,58.5 L88.3,58.5 Z M69.5,12 L83,12 L83,1.7 L69.5,1.7 L69.5,12 Z M400.8,22.1 L400.6,17.2 L387.5,17.2 L387.5,58.5 L401,58.5 L401,38.1 C401,32.3 405,28.2 411.2,28.2 C412.1,28.2 413,28.3 413.9,28.4 L413.9,16.5 C413.2,16.4 412.5,16.3 411.8,16.3 C406.1,16.3 403,18.8 400.8,22.1 Z M437,16.1 C423.6,16.1 415,24.6 415,38 C415,51.1 423.4,59.6 437.1,59.6 C447.4,59.6 455.1,54.8 457.2,45.8 L444.5,45.8 C443.2,48.9 440.5,50.6 436.9,50.6 C431.8,50.6 428.5,47.2 428.4,41.3 L457.7,41.3 C458.5,25.3 450.8,16.1 437,16.1 Z M428.6,33.2 C429.5,27.6 432.4,25.2 436.7,25.2 C441.3,25.2 444,27.9 444.3,33.2 L428.6,33.2 L428.6,33.2 Z M176.4,33.2 C170,31.9 164.9,31.9 164.9,28.1 C164.9,25.9 166.7,25 170,25 C174.1,25 176.1,26.4 176.1,29.1 L188.5,29.1 C188.3,21.2 181.9,16.2 170,16.2 C161.6,16.2 151.5,18.7 151.5,29.2 C151.5,39.7 161.4,41.1 168.7,42.3 C174.9,43.2 176.7,44 176.7,46.4 C176.7,49.3 174.1,51.1 170.6,51.1 C166.7,51.1 163.8,48.9 163.8,45.9 L150.8,45.9 C151,54.6 158,59.7 170.1,59.7 C182.9,59.7 190.2,54 190.2,45.1 C190,37.9 185.1,34.9 176.4,33.2 L176.4,33.2 Z M362.1,16.1 C349.1,16.1 340.2,24.7 340.2,38.2 C340.2,51.3 348.5,59.6 362,59.6 C375.5,59.6 383.8,51.2 383.8,38.1 C383.8,24.8 375.1,16.1 362.1,16.1 Z M362,49.3 C356.2,49.3 353.8,45.8 353.8,38.3 C353.8,30.8 356.3,26.5 362,26.5 C367.6,26.5 370.4,30.7 370.4,38.4 C370.4,45.9 367.7,49.3 362,49.3 Z M255.5,29.4 L243.9,29.4 C243.3,32.2 242.4,34.9 241,37.4 L233.9,29.5 C240.3,25.6 243.6,21.4 243.6,15.3 C243.6,6.6 236.7,0.7 227.5,0.7 C218.2,0.7 210.9,6.9 210.9,14.8 C210.9,19.1 213.1,22.4 216.4,26.2 C208.3,30.3 204.3,35.8 204.3,42.7 C204.3,52.7 212.7,59.7 224,59.7 C229.7,59.7 235.1,57.8 239.5,54.2 L243.3,58.7 L259.8,58.7 L248.5,46 C252.3,41.1 254.8,35.4 255.5,29.4 Z M225.4,48.7 C220.8,48.7 217.3,46.5 217.3,42.4 C217.3,39.4 219.1,37.3 223,34.9 L232.5,46.1 C230.5,47.8 228,48.7 225.4,48.7 Z M227.2,21.8 C224.3,18.8 222.8,17 222.8,14.7 C222.8,12.2 224.7,10.5 227.6,10.5 C230.2,10.5 232.6,12 232.6,15.1 C232.6,17.4 231.2,19.2 227.2,21.8 L227.2,21.8 Z M304.9,37.3 L304.7,37.3 L295,1.7 L273.1,1.7 L273.1,58.5 L287,58.5 L287,20 L287.2,20 L299.2,58.6 L310.5,58.6 L322.3,20 L322.5,20 L322.5,58.6 L336.4,58.6 L336.4,1.7 L314.7,1.7 L304.9,37.3 Z" id="Shape"></path>
            <path d="M331.1,79.4 L331.1,96.3 L340,96.3 L340,100.5 L325.9,100.5 L325.9,79.5 L331.1,79.4 L331.1,79.4 Z M351,100.4 L350.8,98.9 C349.7,100.1 348.1,100.8 346.4,100.8 C344.5,100.9 342.7,100 341.6,98.4 C340.9,97.3 340.8,96.7 340.8,94.2 L340.8,85.3 L345.7,85.3 L345.7,94.1 C345.7,96.3 346.3,97.2 347.9,97.2 C349.5,97.2 350.4,96.1 350.4,94.1 L350.4,85.3 L355.4,85.3 L355.4,100.4 L351,100.4 L351,100.4 Z M366.7,82.7 L365.9,82.7 C364.1,82.7 363.6,83.1 363.6,84.8 L363.6,85.2 L366.5,85.2 L366.5,88.5 L363.6,88.5 L363.6,100.3 L358.6,100.3 L358.6,88.5 L356.5,88.5 L356.5,85.2 L358.6,85.2 L358.6,84.8 C358.6,80.8 360.1,79.4 364,79.4 L366.7,79.4 L366.7,82.7 L366.7,82.7 Z M374.3,80.5 L374.3,85.2 L377.1,85.2 L377.1,88.5 L374.3,88.5 L374.3,94.5 C374.3,96.7 374.5,96.8 376.3,96.8 L377.3,96.8 L377.3,100.3 L373.6,100.3 C370.7,100.3 369.4,98.9 369.4,95.9 L369.4,88.6 L367.3,88.6 L367.3,85.3 L369.4,85.3 L369.4,80.6 L374.3,80.5 L374.3,80.5 Z M383.4,79.4 L383.4,87 C384.3,85.6 385.9,84.7 387.5,84.9 C389.4,84.8 391.2,85.8 392.2,87.4 C392.9,88.6 393,89.2 393,91.7 L393,100.5 L388,100.5 L388,91.9 C388,89.7 387.3,88.8 385.8,88.8 C384.3,88.8 383.3,89.9 383.3,91.9 L383.3,100.5 L378.3,100.5 L378.3,79.5 L383.4,79.4 L383.4,79.4 Z M395.1,90.1 C395.1,86.7 397.8,84.7 402.2,84.7 C406.9,84.7 409.2,86.7 409.2,90.6 L409.2,98.3 C409.1,99 409.2,99.8 409.6,100.4 L405,100.4 L404.7,99.2 C403.4,100.5 401.6,101.2 399.8,101.1 C396.5,101.1 394,99.1 394,96.4 C394,94.1 395.5,92.5 398.4,91.7 C398.8,91.6 400.3,91.3 402.8,90.8 C403.9,90.6 404.3,90.2 404.3,89.5 C404.3,88.8 403.4,88.1 402.1,88.1 C400.5,88.1 399.6,88.9 399.5,90.2 L395.1,90.1 L395.1,90.1 Z M404.5,93.1 L403.2,93.5 C402.6,93.7 402.1,93.8 401.4,93.9 C399.8,94.3 399,94.9 399,95.9 C399,96.9 399.8,97.4 401,97.4 C403.4,97.4 404.5,96.3 404.5,94.1 L404.5,93.1 L404.5,93.1 Z M415.5,85.2 L415.7,86.9 C417.6,84.5 421.1,84 423.6,86 C424.1,86.4 424.5,86.8 424.8,87.3 C425.4,88.5 425.6,89.1 425.6,91.6 L425.6,100.4 L420.7,100.4 L420.7,91.8 C420.7,89.6 420.1,88.7 418.5,88.7 C416.9,88.7 416.1,89.8 416.1,91.8 L416.1,100.4 L411,100.4 L411,85.3 L415.5,85.2 L415.5,85.2 Z M436.3,90 C436.2,88.6 435.6,88 434.1,88 C432.9,88 432.1,88.5 432.1,89.3 C432.1,90.1 432.8,90.5 434.5,90.7 L436.2,91 C439.8,91.6 441.5,93.1 441.5,95.7 C441.5,98.9 438.8,101 434.5,101 C429.4,101 426.6,99 426.6,95.3 L431.4,95.3 L431.4,95.5 C431.4,96.8 432.4,97.5 434.1,97.5 C435.6,97.5 436.4,97 436.4,96.1 C436.4,95.2 435.6,94.7 433.7,94.4 L432.1,94.2 C428.5,93.6 427,92.3 427,89.9 C427,86.6 429.7,84.6 434.2,84.6 C437.3,84.6 439.3,85.5 440.3,87.3 C440.8,88.1 441,89 440.9,90 L436.3,90 L436.3,90 Z M443.2,90.1 C443.2,86.7 445.9,84.7 450.4,84.7 C455.1,84.7 457.4,86.7 457.4,90.6 L457.4,98.3 C457.3,99 457.4,99.8 457.8,100.4 L453.2,100.4 L452.9,99.2 C451.6,100.5 449.8,101.2 448,101.1 C444.6,101.1 442.2,99.1 442.2,96.4 C442.2,94.1 443.7,92.5 446.6,91.7 C447,91.6 448.5,91.3 451,90.8 C452,90.6 452.5,90.2 452.5,89.5 C452.5,88.8 451.6,88.1 450.3,88.1 C448.7,88.1 447.7,88.9 447.7,90.2 L443.2,90.1 L443.2,90.1 Z M452.7,93.1 L451.3,93.5 C450.7,93.6 450.1,93.7 449.5,93.9 C447.9,94.3 447.1,94.9 447.1,95.9 C447.1,96.9 447.9,97.4 449.1,97.4 C451.5,97.4 452.6,96.3 452.6,94.1 L452.7,93.1 L452.7,93.1 Z" id="Shape"></path>
            <path d="M305,89.9 C305,98.7 297.8,105.8 289,105.8 C280.2,105.8 273.1,98.6 273.1,89.8 C273.1,81 280.3,73.9 289.1,73.9 C289.2,73.9 289.2,73.9 289.3,73.9 C298.1,74 305.1,81.2 305,89.9 Z M274.6,89.9 C274.6,97.9 281.1,104.4 289.1,104.4 C297.1,104.4 303.6,97.9 303.6,89.9 C303.6,81.9 297.1,75.4 289.1,75.4 C289.1,75.4 289,75.4 289,75.4 C281,75.4 274.5,81.9 274.6,89.9 L274.6,89.9 Z M284.9,89.5 L284.8,89.8 C283.9,89.5 283.4,89.4 282.9,89.1 C282.5,88.9 282.1,88.8 280.9,88.2 L280.8,88.4 L281.3,88.7 L282.6,89.4 C283.6,90 284.7,90.4 285.8,90.4 C288,90.4 290,88.8 291.3,86 C292.6,85.8 294,85.7 295.3,85.7 C297.7,85.7 300.1,86 302.4,86.4 L301.7,87.1 C299.7,86.8 297.6,86.6 295.6,86.6 C295.3,86.6 295,86.6 294.3,86.6 L294.1,87.1 C294.7,87.1 294.9,87.1 295.4,87.1 C297.4,87.1 299.4,87.3 301.4,87.6 L300.7,88.3 C298.9,88 297.1,87.9 295.3,87.9 C294.7,87.9 294.3,87.9 293.5,88 L293.2,88.4 C293.7,88.4 294.3,88.3 294.8,88.3 C296.6,88.3 298.5,88.4 300.3,88.6 L299.6,89.3 C298.2,89.1 296.9,89 295.5,89.1 C294.4,89.1 293.7,89.1 292.6,89.2 L292.3,89.7 C293.4,89.6 294.5,89.5 295.7,89.5 C296.9,89.5 298.1,89.6 299.2,89.7 L298.5,90.4 C297.6,90.3 297.1,90.3 296.3,90.3 C293.7,90.2 291.2,90.8 289,92.1 C291.2,94.2 294.1,95.4 297.2,95.4 L296.3,96.5 C291.6,95.4 287.2,93.5 283.2,90.9 C280.8,89.3 278.2,88 275.5,87.1 L275.7,86.5 C276.8,86.9 277.1,87 277.6,87.2 L277.8,86.5 L284.9,89.5 Z" id="Shape"></path>
        </g>
    </g>
</svg>