<?xml version="1.0" encoding="utf-8"?>
<!-- Generator: Adobe Illustrator 21.1.0, SVG Export Plug-In . SVG Version: 6.00 Build 0)  -->
<svg version="1.1" id="Layer_1" xmlns="http://www.w3.org/2000/svg" xmlns:xlink="http://www.w3.org/1999/xlink" x="0px" y="0px"
	 width="22.094px" height="15px" viewBox="0 0 22.094 15" enable-background="new 0 0 22.094 15" xml:space="preserve">
<path id="Shape_3_copy_8" fill="#131313" d="M0,10.03h5.033V15c0.173-0.15,0.274-0.24,0.366-0.33c1.458-1.45,2.912-2.91,4.378-4.35
	c0.211-0.195,0.326-0.473,0.314-0.76c-0.007-3.03-0.007-6.06-0.007-9.08c0-0.17-0.014-0.33-0.022-0.48L0,0L0,10.03L0,10.03z
	 M12.007,10.03h5.035V15c0.172-0.15,0.273-0.24,0.364-0.33c1.459-1.45,2.913-2.91,4.379-4.35c0.211-0.195,0.326-0.473,0.314-0.76
	c-0.007-3.03-0.007-6.06-0.007-9.08c0-0.17-0.014-0.33-0.021-0.48L12.008,0v10.03L12.007,10.03z"/>
</svg>
