<?xml version="1.0" encoding="utf-8"?>
<!-- Generator: Adobe Illustrator 21.1.0, SVG Export Plug-In . SVG Version: 6.00 Build 0)  -->
<svg version="1.1" id="Layer_1" xmlns="http://www.w3.org/2000/svg" xmlns:xlink="http://www.w3.org/1999/xlink" x="0px" y="0px"
	 width="22.094px" height="15px" viewBox="0 0 22.094 15" enable-background="new 0 0 22.094 15" xml:space="preserve">
<path id="Shape_3_copy_8" fill="#ffb300" d="M22.1,10.03V0H12.038c-0.008,0.15-0.022,0.31-0.022,0.48c0,3.02,0,6.05-0.007,9.08
	c-0.012,0.287,0.103,0.565,0.314,0.76c1.466,1.44,2.92,2.9,4.378,4.35c0.092,0.09,0.193,0.18,0.366,0.33v-4.97L22.1,10.03
	L22.1,10.03z M10.092,10.03V0L0.029,0C0.022,0.15,0.008,0.31,0.008,0.48c0,3.02,0,6.05-0.007,9.08
	c-0.012,0.287,0.103,0.565,0.314,0.76c1.466,1.44,2.92,2.9,4.379,4.35c0.091,0.09,0.192,0.18,0.364,0.33v-4.97h5.035L10.092,10.03z"
	/>
</svg>
