<?xml version="1.0" encoding="utf-8"?>
<!-- Generator: Adobe Illustrator 21.1.0, SVG Export Plug-In . SVG Version: 6.00 Build 0)  -->
<svg version="1.1" id="Layer_1" xmlns="http://www.w3.org/2000/svg" xmlns:xlink="http://www.w3.org/1999/xlink" x="0px" y="0px"
	 width="35px" height="35px" viewBox="0 0 35 35" enable-background="new 0 0 35 35" xml:space="preserve">
<circle fill="#FFB300" cx="17.5" cy="17.5" r="17.5"/>
<g>
	<path fill="#FFFFFF" d="M28.866,26.732h-1.103V15.304c0-0.281-0.142-0.579-0.423-0.579h-3.704v-3.662
		c0-0.281-0.086-0.465-0.368-0.465H11.732c-0.281,0-0.479,0.184-0.479,0.465v3.662H7.491c-0.281,0-0.365,0.298-0.365,0.579v11.428
		H6.134c-0.281,0-0.509,0.282-0.509,0.563s0.228,0.563,0.509,0.563h9.33c0.281,0,0.667-0.228,0.667-0.509v-2.493h2.627v2.493
		c0,0.281,0.158,0.509,0.439,0.509h9.67c0.281,0,0.509-0.282,0.509-0.563S29.147,26.732,28.866,26.732z M27.012,15.851v10.881
		h-3.377V15.851H27.012z M7.876,15.851h3.377v10.881H7.876V15.851z M19.196,23.73h-3.732c-0.281,0-0.459,0.284-0.459,0.565v2.437
		h-2.627V11.723h10.506v15.009h-3.002v-2.437C19.883,24.014,19.477,23.73,19.196,23.73z"/>
	<path fill="#FFFFFF" d="M14.255,13.608c-0.281,0-0.375,0.228-0.375,0.509v0.679c0,0.281,0.094,0.509,0.375,0.509
		s0.375-0.228,0.375-0.509v-0.679C14.63,13.836,14.536,13.608,14.255,13.608z"/>
	<path fill="#FFFFFF" d="M17.444,13.608c-0.281,0-0.563,0.228-0.563,0.509v0.679c0,0.281,0.282,0.509,0.563,0.509
		s0.563-0.228,0.563-0.509v-0.679C18.007,13.836,17.725,13.608,17.444,13.608z"/>
	<path fill="#FFFFFF" d="M20.446,15.304c0.281,0,0.563-0.228,0.563-0.509v-0.679c0-0.281-0.282-0.509-0.563-0.509
		s-0.563,0.228-0.563,0.509v0.679C19.883,15.076,20.165,15.304,20.446,15.304z"/>
	<path fill="#FFFFFF" d="M14.255,16.831c-0.281,0-0.375,0.228-0.375,0.509v0.679c0,0.281,0.094,0.509,0.375,0.509
		s0.375-0.228,0.375-0.509V17.34C14.63,17.059,14.536,16.831,14.255,16.831z"/>
	<path fill="#FFFFFF" d="M17.444,16.831c-0.281,0-0.563,0.228-0.563,0.509v0.679c0,0.281,0.282,0.509,0.563,0.509
		s0.563-0.228,0.563-0.509V17.34C18.007,17.059,17.725,16.831,17.444,16.831z"/>
	<path fill="#FFFFFF" d="M20.446,18.527c0.281,0,0.563-0.228,0.563-0.509V17.34c0-0.281-0.282-0.509-0.563-0.509
		s-0.563,0.228-0.563,0.509v0.679C19.883,18.299,20.165,18.527,20.446,18.527z"/>
	<path fill="#FFFFFF" d="M14.255,20.393c-0.281,0-0.375,0.228-0.375,0.509v0.679c0,0.281,0.094,0.509,0.375,0.509
		s0.375-0.228,0.375-0.509v-0.679C14.63,20.621,14.536,20.393,14.255,20.393z"/>
	<path fill="#FFFFFF" d="M9.565,16.831c-0.281,0-0.563,0.228-0.563,0.509v0.679c0,0.281,0.282,0.509,0.563,0.509
		s0.563-0.228,0.563-0.509V17.34C10.128,17.059,9.846,16.831,9.565,16.831z"/>
	<path fill="#FFFFFF" d="M9.565,20.393c-0.281,0-0.563,0.228-0.563,0.509v0.679c0,0.281,0.282,0.509,0.563,0.509
		s0.563-0.228,0.563-0.509v-0.679C10.128,20.621,9.846,20.393,9.565,20.393z"/>
	<path fill="#FFFFFF" d="M25.136,18.527c0.281,0,0.375-0.228,0.375-0.509V17.34c0-0.281-0.094-0.509-0.375-0.509
		s-0.375,0.228-0.375,0.509v0.679C24.761,18.299,24.855,18.527,25.136,18.527z"/>
	<path fill="#FFFFFF" d="M25.136,22.09c0.281,0,0.375-0.228,0.375-0.509v-0.679c0-0.281-0.094-0.509-0.375-0.509
		s-0.375,0.228-0.375,0.509v0.679C24.761,21.862,24.855,22.09,25.136,22.09z"/>
	<path fill="#FFFFFF" d="M17.444,20.393c-0.281,0-0.563,0.228-0.563,0.509v0.679c0,0.281,0.282,0.509,0.563,0.509
		s0.563-0.228,0.563-0.509v-0.679C18.007,20.621,17.725,20.393,17.444,20.393z"/>
	<path fill="#FFFFFF" d="M20.446,22.09c0.281,0,0.563-0.228,0.563-0.509v-0.679c0-0.281-0.282-0.509-0.563-0.509
		s-0.563,0.228-0.563,0.509v0.679C19.883,21.862,20.165,22.09,20.446,22.09z"/>
	<path fill="#FFFFFF" d="M10.535,7.904l-0.194,1.13c-0.022,0.127,0.03,0.256,0.135,0.332c0.059,0.043,0.129,0.065,0.199,0.065
		c0.054,0,0.108-0.013,0.158-0.039l1.015-0.534l1.015,0.534c0.114,0.06,0.253,0.05,0.357-0.026s0.157-0.205,0.135-0.332l-0.194-1.13
		l0.821-0.801c0.093-0.09,0.126-0.225,0.086-0.348s-0.146-0.212-0.274-0.231L12.66,6.36l-0.508-1.028
		c-0.057-0.116-0.175-0.189-0.304-0.189s-0.247,0.073-0.304,0.189L11.037,6.36L9.902,6.525C9.774,6.543,9.668,6.633,9.628,6.756
		S9.621,7.014,9.714,7.104L10.535,7.904z M11.311,7.006c0.11-0.016,0.206-0.085,0.255-0.186l0.282-0.572L12.13,6.82
		c0.049,0.1,0.145,0.17,0.255,0.186l0.631,0.092l-0.457,0.445c-0.08,0.078-0.116,0.19-0.098,0.3l0.108,0.628l-0.565-0.297
		c-0.099-0.052-0.217-0.052-0.316,0l-0.565,0.297l0.108-0.629c0.019-0.11-0.018-0.222-0.098-0.3L10.68,7.097L11.311,7.006z"/>
	<path fill="#FFFFFF" d="M16.218,7.904l-0.194,1.13c-0.022,0.127,0.03,0.256,0.135,0.332c0.059,0.043,0.129,0.065,0.199,0.065
		c0.054,0,0.108-0.013,0.158-0.039l1.015-0.534l1.015,0.534c0.114,0.06,0.253,0.05,0.357-0.026s0.157-0.205,0.135-0.332l-0.194-1.13
		l0.821-0.801c0.093-0.09,0.126-0.225,0.086-0.348c-0.04-0.123-0.146-0.212-0.274-0.231L18.343,6.36l-0.508-1.028
		c-0.057-0.116-0.175-0.189-0.304-0.189s-0.247,0.073-0.304,0.189L16.72,6.36l-1.135,0.165c-0.128,0.019-0.234,0.108-0.274,0.231
		s-0.007,0.258,0.086,0.348L16.218,7.904z M16.994,7.006C17.104,6.99,17.2,6.92,17.249,6.82l0.282-0.572l0.282,0.572
		c0.049,0.1,0.145,0.17,0.255,0.186l0.631,0.092l-0.457,0.445c-0.08,0.078-0.116,0.19-0.098,0.3l0.108,0.628L17.69,8.175
		c-0.099-0.052-0.217-0.052-0.316,0l-0.565,0.297l0.108-0.629c0.019-0.11-0.018-0.222-0.098-0.3l-0.457-0.445L16.994,7.006z"/>
	<path fill="#FFFFFF" d="M21.901,7.904l-0.194,1.13c-0.022,0.127,0.03,0.256,0.135,0.332c0.059,0.043,0.129,0.065,0.199,0.065
		c0.054,0,0.108-0.013,0.158-0.039l1.015-0.534l1.015,0.534c0.114,0.06,0.253,0.05,0.357-0.026s0.157-0.205,0.135-0.332l-0.194-1.13
		l0.821-0.801c0.093-0.09,0.126-0.225,0.086-0.348c-0.04-0.123-0.146-0.212-0.274-0.231L24.027,6.36l-0.508-1.028
		c-0.057-0.116-0.175-0.189-0.304-0.189c-0.129,0-0.247,0.073-0.304,0.189L22.403,6.36l-1.135,0.165
		c-0.128,0.019-0.234,0.108-0.274,0.231s-0.007,0.258,0.086,0.348L21.901,7.904z M22.677,7.006c0.111-0.016,0.206-0.085,0.255-0.186
		l0.282-0.572l0.282,0.572c0.049,0.1,0.145,0.17,0.255,0.186l0.631,0.092l-0.457,0.445c-0.08,0.078-0.116,0.19-0.098,0.3
		l0.108,0.628L23.37,8.174c-0.099-0.052-0.217-0.052-0.316,0l-0.565,0.297L22.6,7.843c0.019-0.11-0.018-0.222-0.098-0.3
		l-0.457-0.445L22.677,7.006z"/>
</g>
</svg>
