<?xml version="1.0" encoding="utf-8"?>
<!-- Generator: Adobe Illustrator 21.1.0, SVG Export Plug-In . SVG Version: 6.00 Build 0)  -->
<svg version="1.1" id="Layer_1" xmlns="http://www.w3.org/2000/svg" xmlns:xlink="http://www.w3.org/1999/xlink" x="0px" y="0px"
	 width="35px" height="35px" viewBox="0 0 35 35" enable-background="new 0 0 35 35" xml:space="preserve">
<circle fill="#FFB300" cx="17.5" cy="17.5" r="17.5"/>
<g>
	<g>
		<path fill="#FFFFFF" d="M11.226,23.582H8.222c-0.334,0-0.607-0.272-0.607-0.607v-1.964c0-0.334,0.272-0.607,0.607-0.607h3.004
			c0.334,0,0.607,0.272,0.607,0.607v1.964C11.833,23.31,11.56,23.582,11.226,23.582z M8.222,20.924
			c-0.048,0-0.087,0.039-0.087,0.087v1.964c0,0.048,0.039,0.087,0.087,0.087h3.004c0.048,0,0.087-0.039,0.087-0.087v-1.964
			c0-0.048-0.039-0.087-0.087-0.087H8.222z"/>
	</g>
	<g>
		<path fill="#FFFFFF" d="M22.492,14.411c0.86,0,1.573,0.785,1.573,1.645v4.534h1.158v-4.534c0-1.434-1.298-2.417-2.731-2.417
			H11.321v0.772H22.492z"/>
		<path fill="#FFFFFF" d="M24.065,25.415c0,0.86-0.713,1.739-1.573,1.739H8.222c-0.86,0-1.534-0.879-1.534-1.739v-9.359
			c0-0.86,0.674-1.645,1.534-1.645h1.941v-0.772H8.222c-1.434,0-2.693,0.984-2.693,2.417v9.359c0,1.434,1.259,2.897,2.693,2.897
			h14.27c1.434,0,2.731-1.464,2.731-2.897v-4.053h-1.158C24.065,21.362,24.065,25.415,24.065,25.415z"/>
		<path fill="#FFFFFF" d="M29.471,9.391c-0.118-1.158-1.233-2.703-2.588-2.703h-14.27c-1.434,0-2.45,1.464-2.45,2.897v4.053h1.158
			V12.48h16.991v6.464c0,0.86-0.57,1.645-1.43,1.645h-1.66v0.772h1.66c1.434,0,2.588-0.984,2.588-2.417v-6.471V9.585V9.391H29.471z
			 M11.072,9.391c0.112-0.772,0.759-1.158,1.541-1.158h14.27c0.781,0,1.429,0.386,1.541,1.158H11.072z"/>
		<rect x="10.163" y="13.638" fill="#FFFFFF" width="1.158" height="0.772"/>
		<rect x="24.065" y="20.589" fill="#FFFFFF" width="1.158" height="0.772"/>
	</g>
</g>
</svg>
