<?xml version="1.0" encoding="utf-8"?>
<!-- Generator: Adobe Illustrator 21.1.0, SVG Export Plug-In . SVG Version: 6.00 Build 0)  -->
<svg version="1.1" id="Layer_1" xmlns="http://www.w3.org/2000/svg" xmlns:xlink="http://www.w3.org/1999/xlink" x="0px" y="0px"
	 width="35px" height="35px" viewBox="0 0 35 35" enable-background="new 0 0 35 35" xml:space="preserve">
<circle fill="#FFFFFF" cx="17.5" cy="17.5" r="17.5"/>
<g>
	<path fill="#808080" d="M9.635,17.575c-1.111,0-2.015,0.904-2.015,2.015s0.904,2.015,2.015,2.015s2.015-0.904,2.015-2.015
		C11.65,18.479,10.746,17.575,9.635,17.575z M9.635,20.25c-0.364,0-0.66-0.296-0.66-0.66s0.296-0.66,0.66-0.66s0.66,0.296,0.66,0.66
		C10.294,19.954,9.998,20.25,9.635,20.25z"/>
	<path fill="#808080" d="M25.047,17.575c-1.111,0-2.015,0.904-2.015,2.015s0.904,2.015,2.015,2.015s2.015-0.904,2.015-2.015
		S26.158,17.575,25.047,17.575z M25.047,20.25c-0.364,0-0.66-0.296-0.66-0.66s0.296-0.66,0.66-0.66s0.66,0.296,0.66,0.66
		S25.411,20.25,25.047,20.25z"/>
	<path fill="#808080" d="M21.533,18.041h-8.359c-0.374,0-0.678,0.348-0.678,0.722s0.303,0.722,0.678,0.722h8.359
		c0.374,0,0.678-0.348,0.678-0.722S21.907,18.041,21.533,18.041z"/>
	<path fill="#808080" d="M21.533,20.568h-8.359c-0.374,0-0.678,0.348-0.678,0.722s0.303,0.722,0.678,0.722h8.359
		c0.374,0,0.678-0.348,0.678-0.722S21.907,20.568,21.533,20.568z"/>
	<path fill="#808080" d="M30.232,13.799c-0.228-0.633-0.773-1.08-1.424-1.168c-0.72-0.097-1.335,0.03-1.774,0.184l-1.504-3.26
		c-0.057-0.122-0.148-0.225-0.264-0.295c-0.048-0.029-1.203-0.717-3.76-1.071c-2.384-0.33-3.83-0.244-4.005-0.232
		c-0.174-0.012-1.621-0.098-4.005,0.232c-2.557,0.354-3.712,1.042-3.76,1.071C9.621,9.33,9.529,9.433,9.472,9.555l-1.504,3.26
		c-0.439-0.154-1.055-0.281-1.774-0.184c-0.651,0.088-1.197,0.535-1.424,1.168c-0.241,0.671-0.082,1.421,0.415,1.959
		c0.221,0.239,0.642,0.446,1.06,0.607L5.65,17.461c-0.055,0.101-0.083,0.214-0.082,0.328c0,0-0.372,7.293,0.079,8.473
		c0.256,0.669,0.946,0.763,1.273,0.782c0.228,0.013,0.577,0.018,0.937,0.018c0.614,0,1.263-0.013,1.419-0.016
		c0.747,0.047,1.54-0.359,1.633-1.247c0.039-0.369,0.041-0.827,0.033-1.209c2.834,0.142,6.426,0.38,6.477,0.383
		c0.015,0.001,0.03,0.001,0.046,0.001c0.011,0,0.022-0.003,0.033-0.003c0.011,0.001,0.022,0.003,0.033,0.003
		c0.015,0,0.03,0,0.046-0.001c0.05-0.003,3.409-0.225,6.193-0.369c-0.001,0.339,0.008,0.79,0.051,1.194
		c0.093,0.888,0.881,1.294,1.629,1.248c0.156,0.003,0.802,0.016,1.414,0.016c0.359,0,0.707-0.004,0.935-0.018
		c0.33-0.019,0.556-0.159,0.767-0.405c0.388-0.451,0.302-1.114,0.302-1.315V23.7c0.361-0.547,0.491-1.176,0.466-1.402l0.067-4.51
		c0.001-0.115-0.012-0.228-0.067-0.328l-0.586-1.095c0.418-0.161,0.843-0.368,1.064-0.607C30.311,15.22,30.474,14.469,30.232,13.799
		z M10.604,10.335c0.37-0.173,1.357-0.566,3.077-0.804c2.328-0.322,3.717-0.223,3.733-0.222c0.029,0.002,0.057-0.001,0.086-0.002
		c0.029,0.001,0.058,0.004,0.087,0.002c0.014-0.001,1.403-0.101,3.733,0.222c1.723,0.239,2.71,0.633,3.077,0.804l1.367,2.962
		c-0.584,0.142-1.4,0.24-1.949,0.306c-0.254,0.031-0.479,0.058-0.649,0.084c-0.667,0.091-10.011,0.037-11.747-0.007
		c-0.774-0.02-1.61-0.215-2.183-0.377L10.604,10.335z M9.571,25.766c-0.047,0.02-2.059-0.033-2.728-0.061
		c-0.021-0.079-0.045-1.343-0.045-1.343l2.782,0.073C9.58,24.435,9.606,25.425,9.571,25.766z M27.711,25.707
		c-0.672,0.027-2.664,0.074-2.664,0.074s-0.058-0.932-0.064-1.241c0.758-0.033,2.69-0.022,2.69-0.022S27.728,25.629,27.711,25.707z
		 M28.832,14.828c-0.128,0.111-0.72,0.348-1.242,0.496c-0.198,0.056-0.36,0.199-0.439,0.389c-0.08,0.19-0.069,0.405,0.029,0.586
		l0.896,1.654l-0.036,4.381c0,0.042,0.001,0.07,0.008,0.112c0,0.002,0.03,0.24-0.116,0.407c-0.157,0.179-0.506,0.278-0.984,0.278
		c-2.018,0-9.052,0.464-9.447,0.49c-0.395-0.026-7.429-0.49-9.447-0.49c-0.478,0-0.828-0.099-0.984-0.278
		c-0.143-0.163-0.118-0.394-0.118-0.394l0,0c0.007-0.041,0.011-0.083,0.011-0.125l-0.036-4.381l0.896-1.654
		c0.098-0.181,0.108-0.396,0.029-0.586c-0.08-0.19-0.241-0.333-0.439-0.389c-0.522-0.148-1.113-0.385-1.231-0.486
		c-0.223-0.242-0.169-0.486-0.135-0.58c0.027-0.076,0.114-0.254,0.33-0.283c0.892-0.12,1.197,0.128,1.55,0.306
		c0.79,0.399,1.893,0.714,3.46,0.754c0.685,0.018,4.705,0.059,7.914,0.059c2.032,0,3.738-0.017,4.068-0.066
		c0.161-0.024,0.372-0.05,0.611-0.078c1.148-0.138,2.121-0.335,2.798-0.561c0.091-0.03,0.293-0.128,0.395-0.163
		c0.36-0.122,0.665-0.321,1.458-0.25c0.217,0.019,0.303,0.208,0.33,0.283C28.991,14.352,29.045,14.597,28.832,14.828z"/>
</g>
</svg>
