<?xml version="1.0" encoding="utf-8"?>
<!-- Generator: Adobe Illustrator 21.1.0, SVG Export Plug-In . SVG Version: 6.00 Build 0)  -->
<svg version="1.1" id="Layer_1" xmlns="http://www.w3.org/2000/svg" xmlns:xlink="http://www.w3.org/1999/xlink" x="0px" y="0px"
	 width="35px" height="35px" viewBox="0 0 35 35" enable-background="new 0 0 35 35" xml:space="preserve">
<circle fill="#FFB300" cx="17.5" cy="17.5" r="17.5"/>
<path fill="#FFFFFF" d="M25.845,9.919c-0.014-0.299-0.26-0.367-0.559-0.367H21.36c-0.26-1.956-0.794-3.823-1.892-4.926
	c-0.62-0.623-1.359-1.006-2.199-1.001c-0.842,0.01-1.584,0.475-2.205,1.112c-1.076,1.105-1.61,2.859-1.875,4.814H9.574
	c-0.301,0-0.548,0.071-0.559,0.371L8.269,27.468C8.263,27.62,8.32,27.931,8.425,28.04c0.106,0.11,0.251,0.334,0.403,0.334h17.344
	c0.153,0,0.299-0.267,0.404-0.378c0.106-0.11,0.161-0.278,0.154-0.431L25.845,9.919z M15.866,5.558c0.411-0.422,0.875-0.7,1.416-0.7
	c0.008,0,0.017,0,0.025,0c0.522,0,0.969,0.257,1.367,0.656c0.717,0.72,1.252,1.691,1.553,4.038h-5.906
	C14.576,7.988,15.043,6.404,15.866,5.558z M9.409,27.202l0.703-16.476h2.933c-0.125,1.173-0.116,1.904-0.114,1.997
	c0.004,0.306,0.254,0.349,0.559,0.349c0.003,0,0.006,0,0.008,0c0.309,0,0.556-0.068,0.551-0.377c-0.007-0.495,0.021-1.187,0.12-1.97
	h6.203c0.124,1.173,0.111,1.977,0.111,1.989c-0.005,0.309,0.241,0.467,0.55,0.472c0.311,0.012,0.563-0.094,0.568-0.403
	c0.002-0.093,0.012-0.884-0.104-2.058h3.253l0.835,16.476L9.409,27.202L9.409,27.202z"/>
<g>
	<path fill="#FFFFFF" d="M21.994,15.502c-0.051,0.436-0.143,0.836-0.384,1.212c-0.227,0.355-0.57,0.638-0.866,0.933
		c-0.338,0.337-0.686,0.669-1.013,1.017c-0.259,0.276-0.03,0.693,0.061,1.023c0.251,0.91,0.491,1.822,0.735,2.734
		c0.121,0.452,0.251,0.901,0.362,1.355c0.041,0.168,0.123,0.371,0.06,0.542c-0.074,0.2-0.314,0.373-0.453,0.524
		c-0.453-0.815-0.849-1.662-1.284-2.487c-0.22-0.417-0.421-0.845-0.636-1.264c-0.163-0.319-0.297-0.913-0.71-0.588
		c-0.776,0.61-1.554,1.311-2.257,2.004c-0.197,0.194-0.157,0.331-0.136,0.595c0.019,0.234,0.037,0.468,0.057,0.702
		c0.032,0.375,0.214,0.924-0.129,1.196c-0.13-0.359-0.264-0.717-0.396-1.076c-0.12-0.329-0.199-0.766-0.468-1.009
		c-0.247-0.223-0.644-0.298-0.951-0.409c-0.359-0.131-0.719-0.262-1.078-0.393c0.251-0.343,0.745-0.187,1.104-0.156
		c0.366,0.031,1.026,0.236,1.32-0.027c0.382-0.342,0.706-0.795,1.048-1.178c0.327-0.366,0.665-0.725,0.979-1.102
		c0.344-0.414-0.204-0.529-0.531-0.699c-0.43-0.223-0.862-0.441-1.292-0.662c-0.831-0.426-1.659-0.859-2.494-1.277
		c0.251-0.251,0.472-0.55,0.856-0.474c0.42,0.083,0.836,0.232,1.249,0.345c0.918,0.251,1.838,0.497,2.758,0.739
		c0.32,0.084,0.931,0.395,1.223,0.225c0.172-0.1,0.332-0.329,0.473-0.47c0.188-0.188,0.377-0.373,0.565-0.561
		c0.313-0.312,0.615-0.669,0.982-0.919C21.118,15.643,21.556,15.546,21.994,15.502 M21.994,14.659c-1.23,0-2.04,0.778-2.852,1.588
		c-0.207,0.207-0.416,0.412-0.623,0.619c-0.146,0.146-0.091,0.101-0.268,0.08c-0.218-0.026-0.447-0.12-0.66-0.176
		c-0.568-0.148-1.134-0.302-1.701-0.453c-0.578-0.154-1.157-0.31-1.732-0.476c-0.6-0.173-1.15-0.289-1.664,0.148
		c-0.262,0.222-0.608,0.504-0.678,0.857c-0.129,0.654,0.445,0.913,0.923,1.16c1.041,0.538,2.091,1.06,3.131,1.601
		c-0.22,0.248-0.441,0.495-0.662,0.742c-0.129,0.143-0.258,0.287-0.386,0.43c-0.06,0.067-0.119,0.133-0.178,0.2
		c-0.113,0.127-0.135,0.168-0.3,0.19c-0.325,0.044-0.735-0.062-1.068-0.09c-0.491-0.042-0.94-0.006-1.307,0.368
		c-0.462,0.469-0.363,1.188,0.252,1.456c0.273,0.119,0.564,0.205,0.844,0.307c0.132,0.049,0.265,0.097,0.398,0.145
		c0.118,0.043,0.419,0.095,0.501,0.181c0.156,0.164,0.217,0.584,0.296,0.8c0.124,0.339,0.219,0.721,0.388,1.04
		c0.362,0.685,1.209,0.521,1.589-0.051c0.299-0.45,0.188-0.963,0.145-1.467c-0.018-0.21-0.037-0.419-0.053-0.629
		c-0.021-0.26,0.076-0.305,0.268-0.477c0.19-0.169,0.381-0.339,0.572-0.507c0.241-0.214,0.483-0.427,0.724-0.641
		c0.417,0.811,0.826,1.625,1.24,2.438c0.221,0.434,0.424,1.062,0.78,1.406c0.556,0.535,1.134,0.064,1.531-0.381
		c0.486-0.544,0.375-1.075,0.207-1.724c-0.173-0.668-0.355-1.335-0.534-2.002c-0.151-0.563-0.299-1.126-0.457-1.687
		c-0.035-0.126-0.167-0.419-0.145-0.536c0.047-0.247,0.541-0.591,0.729-0.779c0.573-0.572,1.145-1.089,1.417-1.876
		C22.884,15.815,22.997,14.659,21.994,14.659L21.994,14.659z"/>
</g>
</svg>
