<?xml version="1.0" encoding="utf-8"?>
<!-- Generator: Adobe Illustrator 21.1.0, SVG Export Plug-In . SVG Version: 6.00 Build 0)  -->
<svg version="1.1" id="Layer_1" xmlns="http://www.w3.org/2000/svg" xmlns:xlink="http://www.w3.org/1999/xlink" x="0px" y="0px"
	 width="35px" height="35px" viewBox="0 0 35 35" enable-background="new 0 0 35 35" xml:space="preserve">
<circle fill="#FFB300" cx="17.5" cy="17.5" r="17.5"/>
<path fill="#FFFFFF" d="M25.845,9.919c-0.014-0.299-0.26-0.367-0.559-0.367H21.36c-0.26-1.956-0.794-3.823-1.892-4.926
	c-0.62-0.623-1.359-1.006-2.199-1.001c-0.842,0.01-1.584,0.475-2.205,1.112c-1.076,1.105-1.61,2.859-1.875,4.814H9.574
	c-0.301,0-0.548,0.071-0.559,0.371L8.269,27.468C8.263,27.62,8.32,27.931,8.425,28.04c0.106,0.11,0.251,0.334,0.403,0.334h17.344
	c0.153,0,0.299-0.267,0.404-0.378c0.106-0.11,0.161-0.278,0.154-0.431L25.845,9.919z M15.866,5.558c0.411-0.422,0.875-0.7,1.416-0.7
	c0.008,0,0.017,0,0.025,0c0.522,0,0.969,0.257,1.367,0.656c0.717,0.72,1.252,1.691,1.553,4.038h-5.906
	C14.576,7.988,15.043,6.404,15.866,5.558z M9.409,27.202l0.703-16.476h2.933c-0.125,1.173-0.116,1.904-0.114,1.997
	c0.004,0.306,0.254,0.349,0.559,0.349c0.003,0,0.006,0,0.008,0c0.309,0,0.556-0.068,0.551-0.377c-0.007-0.495,0.021-1.187,0.12-1.97
	h6.203c0.124,1.173,0.111,1.977,0.111,1.989c-0.005,0.309,0.241,0.467,0.55,0.472c0.311,0.012,0.563-0.094,0.568-0.403
	c0.002-0.093,0.012-0.884-0.104-2.058h3.253l0.835,16.476L9.409,27.202L9.409,27.202z"/>
</svg>
