<?xml version="1.0" encoding="utf-8"?>
<!-- Generator: Adobe Illustrator 21.1.0, SVG Export Plug-In . SVG Version: 6.00 Build 0)  -->
<svg version="1.1" id="Layer_1" xmlns="http://www.w3.org/2000/svg" xmlns:xlink="http://www.w3.org/1999/xlink" x="0px" y="0px"
	 width="212px" height="206.917px" viewBox="0 0 212 206.917" enable-background="new 0 0 212 206.917" xml:space="preserve">
<g>
	<path fill="#FFB300" d="M0.429,141.376c2.758-5.869,5.303-11.526,7.92-17.112c2.333-5.162,4.879-10.253,7.071-15.415
		c1.697-4.101,1.344-8.273-0.566-12.304c-1.697-3.536-3.323-7.142-5.02-10.677c-1.273-2.828-2.616-5.586-3.889-8.415
		c-1.414-2.97-2.758-5.869-4.172-8.839c-0.424-0.99-0.919-2.051-1.414-3.111c1.838-0.283,3.606-0.212,5.303,0.495
		c1.98,0.707,3.111,2.404,4.455,3.889c3.041,3.606,6.01,7.142,9.051,10.748c3.323,3.889,6.647,7.778,9.829,11.809
		c1.485,1.909,3.111,2.687,5.586,2.475c10.96-0.778,22.062-1.273,33.022-1.909c8.697-0.495,17.253-0.99,25.88-1.556
		c2.546-0.141,4.313-2.333,3.465-4.879c-1.485-4.455-2.899-8.839-4.313-13.364c-1.343-4.313-2.758-8.556-4.172-12.94
		c-1.131-3.536-2.263-6.93-3.394-10.465c-1.414-4.525-2.97-9.051-4.384-13.576c-1.343-4.313-2.828-8.627-4.172-12.94
		c-1.697-5.233-3.465-10.536-5.091-15.839c-0.778-2.333-1.485-4.596-2.333-7.142c0.99,0,1.98,0,2.97,0
		c2.616,0.071,5.162,0.212,7.778,0.283c3.253,0.141,5.233,2.121,6.718,4.738c1.838,2.97,3.465,6.01,5.162,9.122
		c2.97,5.233,5.94,10.465,8.98,15.768c3.182,5.586,6.364,11.172,9.617,16.688c3.182,5.586,6.364,11.172,9.617,16.688
		c2.475,4.313,5.02,8.556,7.495,12.869c2.546,4.384,5.091,8.91,7.637,13.294c0.636,1.061,1.768,1.485,2.97,1.414
		c7.425,0.071,14.849,0,22.274,0.071c8.132,0.071,16.263-0.141,24.395,0.212c5.869,0.212,11.597,1.838,16.758,4.738
		c2.828,1.556,5.515,3.536,8.202,5.374c0.707,0.424,1.202,1.061,1.98,1.697c-1.344,1.061-2.546,2.121-3.748,3.041
		c-4.525,3.394-9.617,5.798-15.061,7.283c-4.243,1.273-8.697,1.485-13.081,1.485c-10.96-0.071-21.991-0.071-32.951,0
		c-2.828,0-5.657,0-8.485,0c-1.485,0.071-2.546,0.566-3.394,1.98c-2.121,3.818-4.384,7.495-6.505,11.172
		c-1.626,2.899-3.253,5.798-4.879,8.697c-2.97,5.091-5.94,10.182-8.839,15.203c-1.98,3.536-3.96,7.071-6.01,10.536
		c-2.546,4.384-5.162,8.839-7.778,13.294c-1.98,3.536-3.96,7.071-6.01,10.536c-2.121,3.677-4.172,7.283-6.364,10.889
		c-1.202,2.051-2.404,3.96-3.748,5.869c-1.414,1.98-3.536,2.546-5.798,2.687c-3.111,0.141-6.223,0.141-9.617,0.283
		c0.566-1.98,1.061-3.606,1.556-5.233c1.909-5.869,3.748-11.667,5.657-17.536c2.192-6.718,4.384-13.435,6.576-20.153
		c0.919-2.899,1.768-5.869,2.687-8.768c0.99-3.111,2.121-6.223,3.182-9.405c1.273-3.677,2.475-7.425,3.677-11.172
		c1.414-4.384,2.828-8.768,4.243-13.152c0.919-2.758,0.636-4.313-1.273-5.374c-0.707-0.424-1.697-0.566-2.616-0.636
		c-11.597-0.707-23.193-1.414-34.79-2.121c-8.273-0.495-16.546-0.99-24.89-1.414c-1.343-0.071-2.333,0.495-3.253,1.556
		c-2.051,2.475-4.101,4.95-6.152,7.283c-4.101,4.808-8.202,9.758-12.304,14.566c-1.061,1.202-2.051,2.616-3.111,3.818
		C6.157,141.305,3.47,141.729,0.429,141.376z"/>
</g>
</svg>
