<?xml version="1.0" encoding="utf-8"?>
<!-- Generator: Adobe Illustrator 21.1.0, SVG Export Plug-In . SVG Version: 6.00 Build 0)  -->
<svg version="1.1" id="Layer_1" xmlns="http://www.w3.org/2000/svg" xmlns:xlink="http://www.w3.org/1999/xlink" x="0px" y="0px"
	 width="35px" height="35px" viewBox="0 0 35 35" enable-background="new 0 0 35 35" xml:space="preserve">
<circle fill="#FFFFFF" cx="17.5" cy="17.5" r="17.5"/>
<g>
	<path fill="#808080" d="M10.813,23.126c0.042,0.186,0.207,0.313,0.39,0.313c0.029,0,0.058-0.003,0.088-0.01
		c0.216-0.048,0.352-0.262,0.303-0.478l-1.513-6.758l7.573-1.556l7.314,1.554l-1.43,6.765c-0.046,0.216,0.093,0.429,0.309,0.475
		c0.216,0.045,0.429-0.093,0.475-0.309l1.513-7.156c0.046-0.216-0.092-0.429-0.309-0.475l-1.485-0.34
		c0.001-0.011,0.118-0.022,0.118-0.033V8.71c0-0.221-0.139-0.322-0.629-0.322h-3.769V6.551c0-0.221-0.354-0.73-0.842-0.73h-3.123
		c-0.488,0-0.8,0.508-0.8,0.73v1.836h-3.615c-0.221,0-0.417,0.101-0.417,0.322v6.408c0,0.024,0.011,0.048,0.016,0.071L9.517,15.49
		c-0.105,0.022-0.195,0.085-0.254,0.175c-0.058,0.09-0.077,0.2-0.053,0.305L10.813,23.126z M16.096,6.921h2.566v1.466h-2.566V6.921z
		 M11.697,9.12h11.729v5.858l-5.538-1.214c-0.054-0.012-0.226-0.012-0.28-0.001l-5.91,1.262L11.697,9.12L11.697,9.12z"/>
	<path fill="#808080" d="M16.829,10.254c0-0.221-0.179-0.4-0.4-0.4h-3.231c-0.221,0-0.4,0.179-0.4,0.4v2.131
		c0,0.221,0.179,0.4,0.4,0.4h3.231c0.221,0,0.4-0.179,0.4-0.4V10.254z M16.096,12.053H13.53v-1.466h2.566V12.053z"/>
	<path fill="#808080" d="M21.96,10.254c0-0.221-0.179-0.4-0.4-0.4h-3.231c-0.221,0-0.4,0.179-0.4,0.4v2.131
		c0,0.221,0.179,0.4,0.4,0.4h3.231c0.221,0,0.4-0.179,0.4-0.4C21.96,12.385,21.96,10.254,21.96,10.254z M18.661,10.587h2.566v1.466
		h-2.566V10.587z"/>
	<path fill="#808080" d="M7.036,24.685c0.894-0.034,1.594-0.419,1.951-0.662c0.458,0.303,1.467,0.886,2.453,0.886
		c0.03,0,0.06-0.001,0.09-0.002c0.957-0.035,1.794-0.556,2.207-0.863c0.403,0.295,1.213,0.754,2.298,0.685
		c0.988-0.064,1.621-0.423,1.955-0.681c0.409,0.279,1.215,0.717,2.238,0.681c0.898-0.03,1.436-0.362,1.731-0.64
		c0.374,0.259,1.048,0.596,2.016,0.596c0.999,0,1.606-0.36,1.924-0.635c0.409,0.251,1.196,0.635,2.17,0.635
		c1.481,0,2.125-0.888,2.152-0.926c0.126-0.179,0.084-0.424-0.094-0.553c-0.177-0.129-0.427-0.089-0.558,0.087
		c-0.018,0.024-0.453,0.591-1.5,0.591c-1.124,0-1.966-0.661-1.973-0.667c-0.088-0.071-0.202-0.105-0.313-0.087
		c-0.112,0.018-0.21,0.08-0.271,0.175c-0.017,0.024-0.417,0.579-1.536,0.579c-1.169,0-1.751-0.603-1.773-0.626
		c-0.089-0.098-0.22-0.145-0.351-0.127s-0.244,0.1-0.303,0.218c-0.003,0.005-0.301,0.544-1.346,0.58
		c-1.123,0.034-1.958-0.691-1.965-0.698c-0.08-0.073-0.187-0.107-0.296-0.101c-0.108,0.007-0.21,0.059-0.28,0.142
		c-0.02,0.024-0.51,0.582-1.676,0.657c-1.172,0.076-1.954-0.678-1.961-0.684c-0.151-0.151-0.395-0.157-0.553-0.013
		c-0.009,0.008-0.927,0.836-1.97,0.875c-1.039,0.039-2.266-0.888-2.278-0.897c-0.151-0.116-0.365-0.108-0.509,0.017
		c-0.007,0.006-0.718,0.618-1.709,0.657c-0.947,0.039-1.597-0.621-1.608-0.633c-0.152-0.159-0.405-0.166-0.565-0.015
		c-0.161,0.152-0.168,0.405-0.016,0.566C4.852,23.841,5.718,24.732,7.036,24.685z"/>
	<path fill="#808080" d="M30.127,25.475c-0.177-0.129-0.427-0.089-0.558,0.087c-0.018,0.024-0.453,0.591-1.5,0.591
		c-1.124,0-1.966-0.661-1.973-0.667c-0.088-0.071-0.202-0.105-0.313-0.087c-0.112,0.018-0.21,0.08-0.271,0.175
		c-0.017,0.024-0.417,0.579-1.536,0.579c-1.169,0-1.751-0.603-1.773-0.626c-0.089-0.098-0.22-0.145-0.351-0.127
		s-0.244,0.1-0.303,0.218c-0.003,0.005-0.301,0.544-1.346,0.58c-1.123,0.035-1.958-0.691-1.965-0.698
		c-0.08-0.073-0.187-0.107-0.296-0.101c-0.108,0.007-0.21,0.059-0.28,0.142c-0.02,0.024-0.51,0.582-1.676,0.657
		c-1.172,0.076-1.954-0.678-1.961-0.684c-0.151-0.152-0.395-0.157-0.553-0.013c-0.009,0.008-0.927,0.836-1.97,0.875
		c-1.039,0.04-2.266-0.888-2.278-0.897c-0.151-0.116-0.365-0.108-0.509,0.017c-0.007,0.006-0.718,0.618-1.709,0.657
		c-0.947,0.038-1.597-0.621-1.608-0.633c-0.152-0.159-0.405-0.166-0.565-0.015c-0.161,0.152-0.168,0.405-0.016,0.566
		c0.036,0.038,0.902,0.93,2.22,0.882c0.894-0.034,1.594-0.419,1.951-0.662c0.458,0.303,1.467,0.886,2.453,0.886
		c0.03,0,0.06-0.001,0.09-0.002c0.957-0.035,1.794-0.556,2.207-0.863c0.403,0.295,1.213,0.755,2.298,0.685
		c0.988-0.064,1.621-0.423,1.955-0.681c0.409,0.279,1.215,0.717,2.238,0.681c0.898-0.03,1.436-0.362,1.731-0.64
		c0.374,0.259,1.048,0.596,2.016,0.596c0.999,0,1.606-0.36,1.924-0.635c0.409,0.251,1.196,0.635,2.17,0.635
		c1.481,0,2.125-0.888,2.152-0.926C30.347,25.849,30.304,25.604,30.127,25.475z"/>
</g>
</svg>
